<svg id="Layer_1" data-name="Layer 1" xmlns="http://www.w3.org/2000/svg" width="1080" height="1080" viewBox="0 0 1080 1080">
  <defs>
    <style>
      .cls-1 {
        fill: #e44d26;
      }

      .cls-2 {
        fill: #f16529;
      }

      .cls-3 {
        fill: #ebebeb;
      }

      .cls-4 {
        fill: #fff;
      }
    </style>
  </defs>
  <g>
    <polygon class="cls-1" points="205.85 252.11 874.65 252.11 813.44 933.83 540.53 1011.89 266.49 933.27 205.85 252.11"/>
    <polygon class="cls-2" points="540.16 307.89 813.82 307.89 762.9 893.03 539.78 953.3 540.16 307.89"/>
    <polygon class="cls-3" points="751.67 395.87 328.26 395.87 352.41 651.93 639.36 651.93 632.06 759.19 539.97 782.22 448.44 759.19 442.82 690.68 356.34 690.68 367.57 823.77 539.41 872.62 712.93 823.21 735.95 565.46 431.03 565.46 421.48 481.22 743.81 481.22 751.67 395.87"/>
    <polygon class="cls-3" points="751.67 391.38 328.26 391.38 352.41 647.44 639.36 647.44 632.06 754.7 539.97 777.72 448.44 754.7 442.82 686.19 356.34 686.19 367.57 819.28 539.41 868.13 712.93 818.72 735.95 560.96 431.03 560.96 421.48 476.73 743.81 476.73 751.67 391.38"/>
    <polygon class="cls-4" points="540.16 391.38 751.67 391.38 743.81 476.73 539.74 476.78 540.16 391.38"/>
    <polygon class="cls-4" points="539.88 560.87 735.95 560.87 712.93 818.72 539.41 868.13 539.97 777.72 632.06 754.7 639.36 647.44 539.6 647.63 539.88 560.87"/>
    <polygon points="273.98 68.3 314.23 68.3 314.23 113.6 354.85 113.6 354.85 68.3 395.09 68.3 395.09 193.9 355.03 193.9 355.03 153.65 314.6 153.65 314.6 193.9 273.98 193.9 273.98 68.3"/>
    <polygon points="417.74 68.11 530.05 68.11 530.05 109.1 494.3 109.1 494.3 193.9 453.68 193.9 453.68 108.73 417.74 108.73 417.74 68.11"/>
    <polygon points="552.51 68.3 597.06 68.3 621.96 111.91 646.67 68.49 691.78 68.49 691.78 194.46 655.84 194.46 655.84 131.38 621.96 176.12 592.76 132.69 592.76 194.09 552.33 194.09 552.51 68.3"/>
    <polygon points="718.55 68.49 758.98 68.49 758.98 153.84 817.38 153.84 817.38 193.9 718.73 193.9 718.55 68.49"/>
  </g>
</svg>
