<?xml version="1.0" encoding="utf-8"?>
<!-- Generator: Adobe Illustrator 25.3.1, SVG Export Plug-In . SVG Version: 6.00 Build 0)  -->
<svg version="1.1" id="Layer_1" xmlns="http://www.w3.org/2000/svg" xmlns:xlink="http://www.w3.org/1999/xlink" x="0px" y="0px"
	 viewBox="0 0 1080 1080" style="enable-background:new 0 0 1080 1080;" xml:space="preserve">
<style type="text/css">
	.st0{fill:#E5A229;}
	.st1{fill:#F1BE21;}
	.st2{fill:#FFFFFF;}
	.st3{fill:#EBEAEA;}
	.st4{fill:#231F20;}
</style>
<g>
	<polygon class="st0" points="882.2,247.1 540,247.1 540,247.1 197.8,247.1 261.9,942.8 540,1021.7 540,1021.7 540,1021.7 
		540,1021.7 540,1021.7 818,942.8 	"/>
	<polygon class="st1" points="540,303.8 540,962.8 540,962.8 765.2,898.9 820,303.8 	"/>
	<polygon class="st2" points="719.1,389.2 372.8,389.2 348.7,649.7 349.3,648 643.4,648 633.8,758.2 540,785.3 444.7,757.8 
		439,691.1 352.5,691.1 364.9,824.4 540,874.1 715.1,824.4 739.2,562.9 427.1,562.9 431,475.7 647.7,475.7 650.9,525.6 738.2,525.6 
			"/>
	<g>
		<path class="st3" d="M540,389.2H372.8l-24.1,260.5l0.5-1.6H540v-85.2H439.1l4-87.2H540V389.2z M439,691.1h-86.5l12.4,133.3
			L540,874v-88.7l-95.3-27.5L439,691.1z"/>
	</g>
	<g>
		<polygon class="st4" points="473.4,144.5 412.5,144.5 412.5,188.2 473.4,188.2 506,188.2 517,188.2 517,58.3 473.4,58.3 		"/>
		<path class="st4" d="M667.5,59H561.3c0,0,0,22.8,0,45.5c14.2,14.2,21.6,21,42.1,41.5c-12,0-42.1,0-42.1,0v41.5h106.2v-41.5
			l-42.4-41.6h42.4V59z"/>
	</g>
</g>
</svg>
