<svg id="Layer_1" data-name="Layer 1" xmlns="http://www.w3.org/2000/svg" width="1080" height="1080" viewBox="0 0 1080 1080">
  <defs>
    <style>
      .cls-1 {
        fill: #5080ba;
      }

      .cls-1, .cls-2, .cls-3 {
        fill-rule: evenodd;
      }

      .cls-2 {
        fill: #fff;
      }
    </style>
  </defs>
  <g>
    <path class="cls-1" d="M540,800c283.32,0,513-116.4,513-260S823.32,280,540,280,27,396.42,27,540,256.68,800,540,800Z"/>
    <path class="cls-2" d="M639.41,620.38,663.75,495.1c5.49-28.28.92-49.37-13.58-62.69-14-12.9-37.88-19.17-72.88-19.17H535.13l12.06-62.08a8,8,0,0,0-7.83-9.5H481.17a8,8,0,0,0-7.83,6.46l-25.85,133c-2.36-15-8.15-27.84-17.42-38.45C413,423.15,386,413.24,349.83,413.24H237.06a8,8,0,0,0-7.83,6.46L176.91,688.92a8,8,0,0,0,7.83,9.5h58.64a8,8,0,0,0,7.84-6.47l12.65-65.11h43.65c22.92,0,42.16-2.48,57.19-7.38a112,112,0,0,0,42-25.13,129,129,0,0,0,24.8-30.8L421,617.33a8,8,0,0,0,7.83,9.51H487a8,8,0,0,0,7.84-6.47L523.58,472.6H563.5c17,0,22,3.38,23.34,4.84s3.79,6,.93,20.77L564.62,617.33a8,8,0,0,0,7.84,9.51h59.1a8,8,0,0,0,7.85-6.46ZM369.66,516.87c-3.65,18.77-10.54,32.18-20.48,39.82s-26.22,11.71-48,11.71h-26L294,471.68h33.6c24.69,0,34.64,5.28,38.63,9.7,5.53,6.14,6.71,18.41,3.4,35.49Z"/>
    <path class="cls-2" d="M884.5,442.67c-17.07-19.53-44.06-29.44-80.24-29.44H691.49a8,8,0,0,0-7.84,6.46L631.32,688.91a8,8,0,0,0,7.84,9.5h58.65a8,8,0,0,0,7.83-6.46l12.66-65.11H762c22.91,0,42.15-2.49,57.18-7.38a111.88,111.88,0,0,0,42-25.14A125,125,0,0,0,900.36,524c6.67-34.3,1.34-61.66-15.86-81.35Zm-57.1,74.2c-3.65,18.77-10.54,32.18-20.47,39.82-10.09,7.76-26.23,11.71-48,11.71H733l18.8-96.72h33.6c24.69,0,34.64,5.28,38.63,9.7,5.54,6.14,6.72,18.41,3.4,35.49Z"/>
    <path class="cls-3" d="M327.63,463.7q33.42,0,44.56,12.34t5.3,42.35Q371.4,549.65,354.05,563t-52.83,13.36H265.55L287.44,463.7ZM184.74,690.44h58.64l13.91-71.58h50.23q33.25,0,54.72-7a103.57,103.57,0,0,0,39-23.42,117,117,0,0,0,36.83-66q9.31-47.88-14-74.58t-74.23-26.71H237.06L184.74,690.44Z"/>
    <path class="cls-3" d="M481.18,349.64h58.18l-13.91,71.57h51.84q48.93,0,67.49,17.07t11.14,55.3L631.57,618.86h-59.1l23.14-119.12q3.95-20.33-2.9-27.73t-29.2-7.39H517L487,618.86H428.85l52.33-269.22Z"/>
    <path class="cls-3" d="M785.38,463.7q33.42,0,44.55,12.34t5.31,42.35Q829.15,549.65,811.8,563T759,576.38H723.3L745.2,463.7ZM642.48,690.44h58.65L715,618.86h50.23q33.26,0,54.71-7a103.53,103.53,0,0,0,39-23.42,117.09,117.09,0,0,0,36.82-66q9.31-47.88-14-74.58t-74.23-26.71H694.8L642.48,690.44Z"/>
  </g>
</svg>
