<svg xmlns="http://www.w3.org/2000/svg" width="461" height="364" viewBox="0 0 461 364">
  <g id="Grupo_74117" data-name="Grupo 74117" transform="translate(-223 -12765)">
    <g id="Grupo_73854" data-name="Grupo 73854" transform="translate(0 10033)">
      <rect id="Rectángulo_31956" data-name="Rectángulo 31956" width="461" height="364" transform="translate(223 2732)" fill="none"/>
      <g id="Grupo_78411" data-name="Grupo 78411" transform="translate(304.289 2738.516)">
        <g id="Grupo_78430" data-name="Grupo 78430" transform="translate(184.97)">
          <g id="Grupo_78422" data-name="Grupo 78422" transform="translate(0)">
            <g id="Grupo_78413" data-name="Grupo 78413" transform="translate(0)">
              <path id="Trazado_114084" data-name="Trazado 114084" d="M325.988,225.472l52.99-30.215c1.938-1.119,1.695-3.074-.543-4.366l-30.489-17.6c-2.238-1.292-5.623-1.433-7.561-.314l-52.99,30.216c-1.938,1.118-1.7,3.073.543,4.365l30.489,17.6C320.665,226.45,324.05,226.591,325.988,225.472Z" transform="translate(-282.659 -33.914)" fill="#b2d3ea"/>
              <path id="Trazado_114085" data-name="Trazado 114085" d="M282.677,193.019h0V69.311l49.18-12.872,9.059-5.23c2.079-1.2,5.71-1.05,8.111.336l8.451,4.88,26.231-.015-7.767,119.423a2.351,2.351,0,0,1-1.393,2.173l-49.078,37.032c-2.079,1.2-5.71,1.05-8.111-.336l-32.708-18.884C283.268,195.019,282.6,193.983,282.677,193.019Z" transform="translate(-282.667 -33.914)" fill="#396caa"/>
              <path id="Trazado_114086" data-name="Trazado 114086" d="M306.224,50.4a9.362,9.362,0,0,1,4.348,1.14l8.451,4.88,26.231-.015V180.451a2.347,2.347,0,0,1-1.392,2.173l-56.846,32.414a7.331,7.331,0,0,1-3.764.8l-.586-124.816Z" transform="translate(-244.211 -33.914)" fill="#d4ecff"/>
              <path id="Trazado_114087" data-name="Trazado 114087" d="M347.915,215.294a9.246,9.246,0,0,1-6.484-.074V89.551h6.484Z" transform="translate(-305.633 -33.914)" fill="#5793ce"/>
              <path id="Trazado_114088" data-name="Trazado 114088" d="M325.464,91.041,382.31,58.627c2.079-1.2,1.818-3.3-.583-4.683L349.02,35.06c-2.4-1.386-6.032-1.536-8.111-.336L284.063,67.138c-2.079,1.2-1.818,3.3.582,4.683l32.708,18.884C319.754,92.091,323.385,92.241,325.464,91.041Z" transform="translate(-282.66 -33.914)" fill="#d4ecff"/>
              <path id="Trazado_114089" data-name="Trazado 114089" d="M284.641,69.521,317.349,88.4c2.4,1.386,6.032,1.536,8.111.336l56.846-32.414a3.149,3.149,0,0,0,1.037-.92c.714,1.149.39,2.4-1.037,3.22L325.46,91.041c-2.079,1.2-5.71,1.05-8.111-.336L284.641,71.821c-1.865-1.077-2.432-2.582-1.619-3.763A4.527,4.527,0,0,0,284.641,69.521Z" transform="translate(-282.655 -33.914)" fill="#fafdff"/>
              <g id="Grupo_78412" data-name="Grupo 78412" transform="translate(21.166 10.487)">
                <path id="Trazado_114090" data-name="Trazado 114090" d="M324.045,77.9l37.846-21.939c.973-.561.851-1.542-.272-2.191l-15.306-8.837a4.218,4.218,0,0,0-3.8-.157L304.671,66.719c-.973.561-.851,1.542.273,2.191l15.305,8.837A4.22,4.22,0,0,0,324.045,77.9Z" transform="translate(-304.014 -44.401)" fill="#173d7a"/>
                <g id="Grupo_78411-2" data-name="Grupo 78411" transform="translate(15.711 9.684)">
                  <path id="Trazado_114091" data-name="Trazado 114091" d="M322.572,56.951l2.193-1.267c.135-.077.118-.213-.038-.3l-2.117-1.222a.582.582,0,0,0-.525-.022L319.892,55.4c-.135.078-.118.214.037.3l2.118,1.223A.585.585,0,0,0,322.572,56.951Z" transform="translate(-297.821 -54.084)" fill="#d4ecff"/>
                  <path id="Trazado_114092" data-name="Trazado 114092" d="M329.9,61.164l2.193-1.267c.135-.077.118-.213-.037-.3l-2.118-1.222a.582.582,0,0,0-.525-.022l-2.193,1.266c-.135.078-.118.213.038.3l2.117,1.223A.585.585,0,0,0,329.9,61.164Z" transform="translate(-312.475 -54.084)" fill="#d4ecff"/>
                  <path id="Trazado_114093" data-name="Trazado 114093" d="M337.226,65.377l2.193-1.267c.134-.077.117-.213-.038-.3l-2.118-1.223a.585.585,0,0,0-.525-.021l-2.193,1.266c-.134.078-.118.213.038.3l2.117,1.223A.59.59,0,0,0,337.226,65.377Z" transform="translate(-327.128 -54.084)" fill="#d4ecff"/>
                  <path id="Trazado_114094" data-name="Trazado 114094" d="M344.552,69.589l2.193-1.266c.135-.078.118-.213-.038-.3L344.59,66.8a.587.587,0,0,0-.526-.021l-2.193,1.266c-.134.077-.117.213.038.3l2.118,1.223A.585.585,0,0,0,344.552,69.589Z" transform="translate(-341.781 -54.084)" fill="#d4ecff"/>
                </g>
                <path id="Trazado_114095" data-name="Trazado 114095" d="M361.885,55.965l-.044.026a2.677,2.677,0,0,0-.228-.156L346.307,47a4.218,4.218,0,0,0-3.8-.157l-37.8,21.912c-.9-.642-.944-1.515-.045-2.034L342.512,44.78a4.218,4.218,0,0,1,3.8.157l15.306,8.837C362.736,54.423,362.858,55.4,361.885,55.965Z" transform="translate(-304.009 -44.401)" fill="#5793ce"/>
              </g>
            </g>
            <g id="Grupo_78415" data-name="Grupo 78415" transform="translate(4.596 55.511)">
              <path id="Trazado_114096" data-name="Trazado 114096" d="M376.925,115.55l-21.519-12.32a5.25,5.25,0,0,1-2.192-4.189v-7.7c0-1.614.981-2.356,2.192-1.657l21.519,12.32a5.251,5.251,0,0,1,2.192,4.19v7.695C379.117,115.507,378.136,116.249,376.925,115.55Z" transform="translate(-353.214 -89.425)" fill="#173d7a"/>
              <path id="Trazado_114097" data-name="Trazado 114097" d="M354.891,89.456a2.15,2.15,0,0,0-.55,1.6v7.695a5.252,5.252,0,0,0,2.192,4.189l21.519,12.321a1.581,1.581,0,0,0,1.065.232,1.307,1.307,0,0,1-1.642.056l-21.519-12.32a5.25,5.25,0,0,1-2.192-4.189v-7.7C353.764,90.249,354.222,89.57,354.891,89.456Z" transform="translate(-353.764 -89.425)" fill="#fff"/>
              <g id="Grupo_78414" data-name="Grupo 78414" transform="translate(8.187 9.375)">
                <path id="Trazado_114098" data-name="Trazado 114098" d="M363.852,107.191l-1.974-1.14a1.143,1.143,0,0,1-.478-.913V103.03c0-.352.214-.514.478-.362l1.974,1.14a1.144,1.144,0,0,1,.478.913v2.109C364.33,107.182,364.116,107.343,363.852,107.191Z" transform="translate(-354.8 -98.8)" fill="#396caa"/>
                <path id="Trazado_114099" data-name="Trazado 114099" d="M370.452,103.38l-1.974-1.139a1.146,1.146,0,0,1-.477-.914V99.219c0-.352.213-.514.477-.361L370.452,100a1.146,1.146,0,0,1,.478.913v2.109C370.93,103.371,370.716,103.533,370.452,103.38Z" transform="translate(-368.001 -98.8)" fill="#fff"/>
              </g>
            </g>
            <g id="Grupo_78417" data-name="Grupo 78417" transform="translate(4.596 111.118)">
              <path id="Trazado_114100" data-name="Trazado 114100" d="M376.925,171.157l-21.519-12.32a5.252,5.252,0,0,1-2.192-4.19v-7.7c0-1.614.981-2.357,2.192-1.657l21.519,12.32a5.25,5.25,0,0,1,2.192,4.189V169.5C379.117,171.114,378.136,171.856,376.925,171.157Z" transform="translate(-353.214 -145.032)" fill="#173d7a"/>
              <path id="Trazado_114101" data-name="Trazado 114101" d="M354.891,145.063a2.15,2.15,0,0,0-.55,1.6v7.695a5.253,5.253,0,0,0,2.192,4.189l21.519,12.321a1.586,1.586,0,0,0,1.065.232,1.309,1.309,0,0,1-1.642.056l-21.519-12.32a5.251,5.251,0,0,1-2.192-4.19v-7.7C353.764,145.856,354.222,145.176,354.891,145.063Z" transform="translate(-353.764 -145.032)" fill="#fff"/>
              <g id="Grupo_78416" data-name="Grupo 78416" transform="translate(8.187 9.376)">
                <path id="Trazado_114102" data-name="Trazado 114102" d="M363.852,162.8l-1.974-1.14a1.143,1.143,0,0,1-.478-.913v-2.108c0-.353.214-.514.478-.362l1.974,1.14a1.144,1.144,0,0,1,.478.913v2.108C364.33,162.788,364.116,162.95,363.852,162.8Z" transform="translate(-354.8 -154.407)" fill="#396caa"/>
                <path id="Trazado_114103" data-name="Trazado 114103" d="M370.452,158.987l-1.974-1.14a1.143,1.143,0,0,1-.477-.913v-2.108c0-.352.213-.514.477-.361l1.974,1.139a1.143,1.143,0,0,1,.478.913v2.109C370.93,158.978,370.716,159.139,370.452,158.987Z" transform="translate(-368.001 -154.407)" fill="#fff"/>
              </g>
            </g>
            <g id="Grupo_78419" data-name="Grupo 78419" transform="translate(4.596 138.921)">
              <path id="Trazado_114104" data-name="Trazado 114104" d="M376.925,198.96l-21.519-12.32a5.25,5.25,0,0,1-2.192-4.189v-7.7c0-1.615.981-2.357,2.192-1.658l21.519,12.32a5.252,5.252,0,0,1,2.192,4.19V197.3C379.117,198.917,378.136,199.659,376.925,198.96Z" transform="translate(-353.214 -172.835)" fill="#173d7a"/>
              <path id="Trazado_114105" data-name="Trazado 114105" d="M354.891,172.866a2.15,2.15,0,0,0-.55,1.6v7.7a5.252,5.252,0,0,0,2.192,4.189l21.519,12.321a1.581,1.581,0,0,0,1.065.232,1.307,1.307,0,0,1-1.642.056l-21.519-12.32a5.25,5.25,0,0,1-2.192-4.189v-7.7C353.764,173.659,354.222,172.98,354.891,172.866Z" transform="translate(-353.764 -172.835)" fill="#fff"/>
              <g id="Grupo_78418" data-name="Grupo 78418" transform="translate(8.187 9.375)">
                <path id="Trazado_114106" data-name="Trazado 114106" d="M363.852,190.6l-1.974-1.14a1.143,1.143,0,0,1-.478-.913V186.44c0-.352.214-.514.478-.361l1.974,1.139a1.145,1.145,0,0,1,.478.913v2.109C364.33,190.592,364.116,190.753,363.852,190.6Z" transform="translate(-354.8 -182.21)" fill="#396caa"/>
                <path id="Trazado_114107" data-name="Trazado 114107" d="M370.452,186.79l-1.974-1.139a1.144,1.144,0,0,1-.477-.913v-2.109c0-.352.213-.514.477-.361l1.974,1.139a1.147,1.147,0,0,1,.478.914v2.108C370.93,186.781,370.716,186.943,370.452,186.79Z" transform="translate(-368.001 -182.21)" fill="#fff"/>
              </g>
            </g>
            <g id="Grupo_78421" data-name="Grupo 78421" transform="translate(4.596 83.314)">
              <path id="Trazado_114108" data-name="Trazado 114108" d="M376.925,143.354l-21.519-12.321a5.249,5.249,0,0,1-2.192-4.189v-7.695c0-1.615.981-2.357,2.192-1.658l21.519,12.321A5.249,5.249,0,0,1,379.117,134V141.7C379.117,143.311,378.136,144.053,376.925,143.354Z" transform="translate(-353.214 -117.228)" fill="#173d7a"/>
              <path id="Trazado_114109" data-name="Trazado 114109" d="M354.891,117.259a2.15,2.15,0,0,0-.55,1.6v7.7a5.253,5.253,0,0,0,2.192,4.189l21.519,12.32a1.575,1.575,0,0,0,1.065.232,1.308,1.308,0,0,1-1.642.057l-21.519-12.321a5.25,5.25,0,0,1-2.192-4.189v-7.695C353.764,118.053,354.222,117.373,354.891,117.259Z" transform="translate(-353.764 -117.228)" fill="#fff"/>
              <g id="Grupo_78420" data-name="Grupo 78420" transform="translate(8.187 9.376)">
                <path id="Trazado_114110" data-name="Trazado 114110" d="M363.852,134.994l-1.974-1.139a1.147,1.147,0,0,1-.478-.914v-2.108c0-.352.214-.514.478-.361l1.974,1.139a1.147,1.147,0,0,1,.478.913v2.109C364.33,134.985,364.116,135.147,363.852,134.994Z" transform="translate(-354.8 -126.604)" fill="#396caa"/>
                <path id="Trazado_114111" data-name="Trazado 114111" d="M370.452,131.184l-1.974-1.14a1.143,1.143,0,0,1-.477-.913v-2.109c0-.351.213-.513.477-.361l1.974,1.14a1.143,1.143,0,0,1,.478.913v2.108C370.93,131.174,370.716,131.336,370.452,131.184Z" transform="translate(-368.001 -126.604)" fill="#fff"/>
              </g>
            </g>
          </g>
          <g id="Grupo_78423" data-name="Grupo 78423" transform="translate(44.933 30.024)">
            <path id="Trazado_114112" data-name="Trazado 114112" d="M287.123,107.673,336.768,79.01a4.814,4.814,0,0,0,2.012-3.844V65.7c0-1.482-.9-2.163-2.012-1.521L287.123,92.841a4.82,4.82,0,0,0-2.011,3.845v9.466C285.112,107.633,286.012,108.315,287.123,107.673Z" transform="translate(-285.112 -63.937)" fill="#5793ce"/>
            <path id="Trazado_114113" data-name="Trazado 114113" d="M288.549,104.354l46.794-27.017a2.445,2.445,0,0,0,1.021-1.95V68.27c0-.752-.457-1.1-1.021-.772L288.549,94.515a2.444,2.444,0,0,0-1.021,1.95v7.117C287.528,104.334,287.985,104.679,288.549,104.354Z" transform="translate(-285.112 -63.937)" fill="#d4ecff" opacity="0.4"/>
            <path id="Trazado_114114" data-name="Trazado 114114" d="M291.317,79.369l6.984-4.032a2.375,2.375,0,0,0,.991-1.894h0c0-.729-.444-1.065-.991-.749l-6.984,4.032a2.375,2.375,0,0,0-.991,1.894h0C290.326,79.35,290.77,79.685,291.317,79.369Z" transform="translate(-250.838 -63.937)" fill="#d4ecff"/>
            <ellipse id="Elipse_4814" data-name="Elipse 4814" cx="0.935" cy="1.619" rx="0.935" ry="1.619" transform="matrix(-0.866, -0.5, 0.5, -0.866, 35.673, 18.755)" fill="#173d7a"/>
            <path id="Trazado_114115" data-name="Trazado 114115" d="M306,83.815c0,.73.513,1.026,1.145.661a2.532,2.532,0,0,0,1.145-1.983c0-.73-.513-1.026-1.145-.661A2.532,2.532,0,0,0,306,83.815Z" transform="translate(-275.51 -63.937)" fill="#173d7a"/>
            <path id="Trazado_114116" data-name="Trazado 114116" d="M310.038,86.146c0,.73.513,1.026,1.145.661a2.531,2.531,0,0,0,1.145-1.982c0-.73-.513-1.026-1.145-.661A2.53,2.53,0,0,0,310.038,86.146Z" transform="translate(-283.586 -63.937)" fill="#d4ecff"/>
            <path id="Trazado_114117" data-name="Trazado 114117" d="M314.076,88.477c0,.73.512,1.026,1.144.661a2.53,2.53,0,0,0,1.145-1.982c0-.73-.513-1.026-1.145-.661A2.529,2.529,0,0,0,314.076,88.477Z" transform="translate(-291.661 -63.937)" fill="#173d7a"/>
            <path id="Trazado_114118" data-name="Trazado 114118" d="M331.023,100.391l2.352-1.359a1.523,1.523,0,0,0,.636-1.215V95.328c0-.468-.285-.683-.636-.481l-2.352,1.358a1.522,1.522,0,0,0-.636,1.216V99.91C330.387,100.378,330.671,100.593,331.023,100.391Z" transform="translate(-325.618 -63.937)" fill="#173d7a"/>
          </g>
          <g id="Grupo_78424" data-name="Grupo 78424" transform="translate(44.933 46.717)">
            <path id="Trazado_114119" data-name="Trazado 114119" d="M287.123,124.366,336.768,95.7a4.818,4.818,0,0,0,2.012-3.845V82.393c0-1.482-.9-2.163-2.012-1.521l-49.645,28.662a4.82,4.82,0,0,0-2.011,3.845v9.466C285.112,124.327,286.012,125.008,287.123,124.366Z" transform="translate(-285.112 -80.63)" fill="#5793ce"/>
            <path id="Trazado_114120" data-name="Trazado 114120" d="M288.549,121.047,335.343,94.03a2.445,2.445,0,0,0,1.021-1.95V84.963c0-.752-.457-1.1-1.021-.772l-46.794,27.017a2.445,2.445,0,0,0-1.021,1.95v7.117C287.528,121.027,287.985,121.372,288.549,121.047Z" transform="translate(-285.112 -80.63)" fill="#d4ecff" opacity="0.4"/>
            <path id="Trazado_114121" data-name="Trazado 114121" d="M291.317,96.063l6.984-4.032a2.375,2.375,0,0,0,.991-1.894h0c0-.73-.444-1.066-.991-.75l-6.984,4.032a2.375,2.375,0,0,0-.991,1.894h0C290.326,96.043,290.77,96.379,291.317,96.063Z" transform="translate(-250.838 -80.63)" fill="#d4ecff"/>
            <path id="Trazado_114122" data-name="Trazado 114122" d="M301.963,98.177c0,.73.513,1.026,1.145.661a2.531,2.531,0,0,0,1.144-1.983c0-.73-.512-1.026-1.144-.661A2.532,2.532,0,0,0,301.963,98.177Z" transform="translate(-267.435 -80.63)" fill="#fff"/>
            <path id="Trazado_114123" data-name="Trazado 114123" d="M306,100.508c0,.73.513,1.026,1.145.661a2.532,2.532,0,0,0,1.145-1.983c0-.729-.513-1.025-1.145-.66A2.53,2.53,0,0,0,306,100.508Z" transform="translate(-275.51 -80.63)" fill="#173d7a"/>
            <path id="Trazado_114124" data-name="Trazado 114124" d="M310.038,102.839c0,.73.513,1.026,1.145.661a2.53,2.53,0,0,0,1.145-1.982c0-.73-.513-1.026-1.145-.661A2.53,2.53,0,0,0,310.038,102.839Z" transform="translate(-283.586 -80.63)" fill="#d4ecff"/>
            <ellipse id="Elipse_4815" data-name="Elipse 4815" cx="0.935" cy="1.619" rx="0.935" ry="1.619" transform="matrix(-0.866, -0.5, 0.5, -0.866, 23.559, 25.749)" fill="#173d7a"/>
            <path id="Trazado_114125" data-name="Trazado 114125" d="M331.023,117.084l2.352-1.358a1.525,1.525,0,0,0,.636-1.216v-2.489c0-.468-.285-.683-.636-.48l-2.352,1.358a1.52,1.52,0,0,0-.636,1.215V116.6C330.387,117.071,330.671,117.287,331.023,117.084Z" transform="translate(-325.618 -80.63)" fill="#173d7a"/>
          </g>
          <g id="Grupo_78425" data-name="Grupo 78425" transform="translate(44.933 63.41)">
            <path id="Trazado_114126" data-name="Trazado 114126" d="M287.123,141.059,336.768,112.4a4.817,4.817,0,0,0,2.012-3.844V99.086c0-1.481-.9-2.162-2.012-1.521l-49.645,28.663a4.816,4.816,0,0,0-2.011,3.844v9.466C285.112,141.02,286.012,141.7,287.123,141.059Z" transform="translate(-285.112 -97.324)" fill="#5793ce"/>
            <path id="Trazado_114127" data-name="Trazado 114127" d="M288.549,137.74l46.794-27.017a2.444,2.444,0,0,0,1.021-1.95v-7.117c0-.752-.457-1.1-1.021-.772L288.549,127.9a2.446,2.446,0,0,0-1.021,1.951v7.116C287.528,137.72,287.985,138.066,288.549,137.74Z" transform="translate(-285.112 -97.324)" fill="#d4ecff" opacity="0.4"/>
            <path id="Trazado_114128" data-name="Trazado 114128" d="M291.317,112.756l6.984-4.032a2.375,2.375,0,0,0,.991-1.894h0c0-.73-.444-1.066-.991-.749l-6.984,4.031a2.375,2.375,0,0,0-.991,1.894h0C290.326,112.736,290.77,113.072,291.317,112.756Z" transform="translate(-250.838 -97.324)" fill="#d4ecff"/>
            <path id="Trazado_114129" data-name="Trazado 114129" d="M301.963,114.87c0,.73.513,1.026,1.145.661a2.531,2.531,0,0,0,1.144-1.983c0-.73-.512-1.025-1.144-.661A2.533,2.533,0,0,0,301.963,114.87Z" transform="translate(-267.435 -97.324)" fill="#fff"/>
            <path id="Trazado_114130" data-name="Trazado 114130" d="M306,117.2c0,.73.513,1.026,1.145.661a2.53,2.53,0,0,0,1.145-1.982c0-.73-.513-1.026-1.145-.661A2.53,2.53,0,0,0,306,117.2Z" transform="translate(-275.51 -97.324)" fill="#173d7a"/>
            <path id="Trazado_114131" data-name="Trazado 114131" d="M310.038,119.532c0,.73.513,1.026,1.145.661a2.53,2.53,0,0,0,1.145-1.982c0-.73-.513-1.026-1.145-.661A2.531,2.531,0,0,0,310.038,119.532Z" transform="translate(-283.586 -97.324)" fill="#d4ecff"/>
            <path id="Trazado_114132" data-name="Trazado 114132" d="M314.076,121.864c0,.73.512,1.026,1.144.661a2.532,2.532,0,0,0,1.145-1.983c0-.73-.513-1.026-1.145-.661A2.531,2.531,0,0,0,314.076,121.864Z" transform="translate(-291.661 -97.324)" fill="#173d7a"/>
            <path id="Trazado_114133" data-name="Trazado 114133" d="M331.023,133.777l2.352-1.358a1.525,1.525,0,0,0,.636-1.216v-2.488c0-.469-.285-.684-.636-.481l-2.352,1.358a1.522,1.522,0,0,0-.636,1.215V133.3C330.387,133.764,330.671,133.98,331.023,133.777Z" transform="translate(-325.618 -97.324)" fill="#173d7a"/>
          </g>
          <g id="Grupo_78426" data-name="Grupo 78426" transform="translate(44.933 80.103)">
            <path id="Trazado_114134" data-name="Trazado 114134" d="M287.123,157.753l49.645-28.663a4.817,4.817,0,0,0,2.012-3.844v-9.467c0-1.481-.9-2.162-2.012-1.521l-49.645,28.663a4.818,4.818,0,0,0-2.011,3.844v9.466C285.112,157.713,286.012,158.394,287.123,157.753Z" transform="translate(-285.112 -114.017)" fill="#5793ce"/>
            <path id="Trazado_114135" data-name="Trazado 114135" d="M288.549,154.433l46.794-27.017a2.442,2.442,0,0,0,1.021-1.95v-7.117c0-.751-.457-1.1-1.021-.771L288.549,144.6a2.442,2.442,0,0,0-1.021,1.95v7.117C287.528,154.413,287.985,154.759,288.549,154.433Z" transform="translate(-285.112 -114.017)" fill="#d4ecff" opacity="0.4"/>
            <path id="Trazado_114136" data-name="Trazado 114136" d="M291.317,129.449l6.984-4.032a2.375,2.375,0,0,0,.991-1.894h0c0-.73-.444-1.065-.991-.749l-6.984,4.032a2.375,2.375,0,0,0-.991,1.894h0C290.326,129.43,290.77,129.765,291.317,129.449Z" transform="translate(-250.838 -114.017)" fill="#d4ecff"/>
            <path id="Trazado_114137" data-name="Trazado 114137" d="M301.963,131.563c0,.73.513,1.026,1.145.661a2.53,2.53,0,0,0,1.144-1.982c0-.73-.512-1.026-1.144-.661A2.53,2.53,0,0,0,301.963,131.563Z" transform="translate(-267.435 -114.017)" fill="#173d7a"/>
            <ellipse id="Elipse_4816" data-name="Elipse 4816" cx="0.935" cy="1.619" rx="0.935" ry="1.619" transform="matrix(-0.866, -0.5, 0.5, -0.866, 31.635, 21.086)" fill="#173d7a"/>
            <path id="Trazado_114138" data-name="Trazado 114138" d="M310.038,136.226c0,.73.513,1.026,1.145.661a2.533,2.533,0,0,0,1.145-1.983c0-.73-.513-1.026-1.145-.661A2.532,2.532,0,0,0,310.038,136.226Z" transform="translate(-283.586 -114.017)" fill="#d4ecff"/>
            <path id="Trazado_114139" data-name="Trazado 114139" d="M314.076,138.557c0,.73.512,1.026,1.144.661a2.532,2.532,0,0,0,1.145-1.983c0-.73-.513-1.025-1.145-.66A2.529,2.529,0,0,0,314.076,138.557Z" transform="translate(-291.661 -114.017)" fill="#173d7a"/>
            <path id="Trazado_114140" data-name="Trazado 114140" d="M331.023,150.47l2.352-1.358a1.524,1.524,0,0,0,.636-1.215v-2.489c0-.469-.285-.684-.636-.481l-2.352,1.358a1.522,1.522,0,0,0-.636,1.215v2.489C330.387,150.458,330.671,150.673,331.023,150.47Z" transform="translate(-325.618 -114.017)" fill="#d4ecff"/>
          </g>
          <g id="Grupo_78427" data-name="Grupo 78427" transform="translate(44.933 96.797)">
            <path id="Trazado_114141" data-name="Trazado 114141" d="M287.123,174.446l49.645-28.663a4.814,4.814,0,0,0,2.012-3.844v-9.467c0-1.481-.9-2.162-2.012-1.52l-49.645,28.662a4.819,4.819,0,0,0-2.011,3.844v9.467C285.112,174.406,286.012,175.087,287.123,174.446Z" transform="translate(-285.112 -130.71)" fill="#5793ce"/>
            <path id="Trazado_114142" data-name="Trazado 114142" d="M288.549,171.127l46.794-27.017a2.446,2.446,0,0,0,1.021-1.951v-7.117c0-.751-.457-1.1-1.021-.771l-46.794,27.017a2.442,2.442,0,0,0-1.021,1.95v7.117C287.528,171.106,287.985,171.452,288.549,171.127Z" transform="translate(-285.112 -130.71)" fill="#d4ecff" opacity="0.4"/>
            <path id="Trazado_114143" data-name="Trazado 114143" d="M291.317,146.142l6.984-4.032a2.375,2.375,0,0,0,.991-1.894h0c0-.73-.444-1.065-.991-.749l-6.984,4.032a2.375,2.375,0,0,0-.991,1.894h0C290.326,146.123,290.77,146.458,291.317,146.142Z" transform="translate(-250.838 -130.71)" fill="#d4ecff"/>
            <path id="Trazado_114144" data-name="Trazado 114144" d="M301.963,148.256c0,.73.513,1.026,1.145.661a2.529,2.529,0,0,0,1.144-1.982c0-.73-.512-1.026-1.144-.661A2.53,2.53,0,0,0,301.963,148.256Z" transform="translate(-267.435 -130.71)" fill="#173d7a"/>
            <path id="Trazado_114145" data-name="Trazado 114145" d="M306,150.588c0,.73.513,1.025,1.145.66a2.53,2.53,0,0,0,1.145-1.982c0-.73-.513-1.026-1.145-.661A2.532,2.532,0,0,0,306,150.588Z" transform="translate(-275.51 -130.71)" fill="#fff"/>
            <path id="Trazado_114146" data-name="Trazado 114146" d="M310.038,152.919c0,.73.513,1.026,1.145.661a2.532,2.532,0,0,0,1.145-1.983c0-.73-.513-1.025-1.145-.661A2.532,2.532,0,0,0,310.038,152.919Z" transform="translate(-283.586 -130.71)" fill="#d4ecff"/>
            <path id="Trazado_114147" data-name="Trazado 114147" d="M314.076,155.25c0,.73.512,1.026,1.144.661a2.531,2.531,0,0,0,1.145-1.982c0-.73-.513-1.026-1.145-.661A2.529,2.529,0,0,0,314.076,155.25Z" transform="translate(-291.661 -130.71)" fill="#fff"/>
            <path id="Trazado_114148" data-name="Trazado 114148" d="M331.023,167.163l2.352-1.358a1.524,1.524,0,0,0,.636-1.215V162.1c0-.469-.285-.684-.636-.481l-2.352,1.358a1.522,1.522,0,0,0-.636,1.216v2.488C330.387,167.151,330.671,167.366,331.023,167.163Z" transform="translate(-325.618 -130.71)" fill="#d4ecff"/>
          </g>
          <g id="Grupo_78428" data-name="Grupo 78428" transform="translate(44.933 113.49)">
            <path id="Trazado_114149" data-name="Trazado 114149" d="M287.123,191.139l49.645-28.663a4.814,4.814,0,0,0,2.012-3.844v-9.466c0-1.482-.9-2.163-2.012-1.521l-49.645,28.662a4.819,4.819,0,0,0-2.011,3.844v9.467C285.112,191.1,286.012,191.78,287.123,191.139Z" transform="translate(-285.112 -147.403)" fill="#5793ce"/>
            <path id="Trazado_114150" data-name="Trazado 114150" d="M288.549,187.82,335.343,160.8a2.446,2.446,0,0,0,1.021-1.951v-7.116c0-.752-.457-1.1-1.021-.772l-46.794,27.017a2.444,2.444,0,0,0-1.021,1.95v7.117C287.528,187.8,287.985,188.145,288.549,187.82Z" transform="translate(-285.112 -147.403)" fill="#d4ecff" opacity="0.4"/>
            <path id="Trazado_114151" data-name="Trazado 114151" d="M291.317,162.835,298.3,158.8a2.375,2.375,0,0,0,.991-1.894h0c0-.729-.444-1.065-.991-.749l-6.984,4.032a2.375,2.375,0,0,0-.991,1.894h0C290.326,162.816,290.77,163.151,291.317,162.835Z" transform="translate(-250.838 -147.403)" fill="#d4ecff"/>
            <ellipse id="Elipse_4817" data-name="Elipse 4817" cx="0.935" cy="1.619" rx="0.935" ry="1.619" transform="matrix(-0.866, -0.5, 0.5, -0.866, 35.673, 18.754)" fill="#173d7a"/>
            <path id="Trazado_114152" data-name="Trazado 114152" d="M306,167.281c0,.73.513,1.026,1.145.661a2.532,2.532,0,0,0,1.145-1.983c0-.73-.513-1.026-1.145-.661A2.532,2.532,0,0,0,306,167.281Z" transform="translate(-275.51 -147.403)" fill="#173d7a"/>
            <path id="Trazado_114153" data-name="Trazado 114153" d="M310.038,169.612c0,.73.513,1.026,1.145.661a2.532,2.532,0,0,0,1.145-1.983c0-.73-.513-1.025-1.145-.66A2.53,2.53,0,0,0,310.038,169.612Z" transform="translate(-283.586 -147.403)" fill="#d4ecff"/>
            <path id="Trazado_114154" data-name="Trazado 114154" d="M314.076,171.943c0,.73.512,1.026,1.144.661a2.53,2.53,0,0,0,1.145-1.982c0-.73-.513-1.026-1.145-.661A2.529,2.529,0,0,0,314.076,171.943Z" transform="translate(-291.661 -147.403)" fill="#173d7a"/>
            <path id="Trazado_114155" data-name="Trazado 114155" d="M331.023,183.856l2.352-1.358a1.523,1.523,0,0,0,.636-1.215v-2.489c0-.468-.285-.684-.636-.481l-2.352,1.358a1.522,1.522,0,0,0-.636,1.216v2.489C330.387,183.844,330.671,184.059,331.023,183.856Z" transform="translate(-325.618 -147.403)" fill="#173d7a"/>
          </g>
          <g id="Grupo_78429" data-name="Grupo 78429" transform="translate(44.933 130.183)">
            <path id="Trazado_114156" data-name="Trazado 114156" d="M287.123,207.832l49.645-28.663a4.814,4.814,0,0,0,2.012-3.844v-9.466c0-1.482-.9-2.163-2.012-1.521L287.123,193a4.82,4.82,0,0,0-2.011,3.845v9.466C285.112,207.793,286.012,208.474,287.123,207.832Z" transform="translate(-285.112 -164.096)" fill="#5793ce"/>
            <path id="Trazado_114157" data-name="Trazado 114157" d="M288.549,204.513,335.343,177.5a2.445,2.445,0,0,0,1.021-1.95v-7.117c0-.752-.457-1.1-1.021-.772l-46.794,27.017a2.444,2.444,0,0,0-1.021,1.95v7.117C287.528,204.493,287.985,204.838,288.549,204.513Z" transform="translate(-285.112 -164.096)" fill="#d4ecff" opacity="0.4"/>
            <path id="Trazado_114158" data-name="Trazado 114158" d="M291.317,179.528,298.3,175.5a2.373,2.373,0,0,0,.991-1.893h0c0-.73-.444-1.066-.991-.75l-6.984,4.032a2.375,2.375,0,0,0-.991,1.894h0C290.326,179.509,290.77,179.845,291.317,179.528Z" transform="translate(-250.838 -164.096)" fill="#d4ecff"/>
            <path id="Trazado_114159" data-name="Trazado 114159" d="M301.2,182.546c0,1.379.968,1.938,2.162,1.248a4.777,4.777,0,0,0,2.162-3.744c0-1.379-.968-1.938-2.162-1.248A4.777,4.777,0,0,0,301.2,182.546Z" transform="translate(-267.952 -164.096)" fill="#fff"/>
            <path id="Trazado_114160" data-name="Trazado 114160" d="M311.6,187.44c0,.73.512,1.026,1.144.661a2.531,2.531,0,0,0,1.145-1.982c0-.73-.513-1.026-1.145-.661A2.529,2.529,0,0,0,311.6,187.44Z" transform="translate(-286.713 -164.096)" fill="#173d7a"/>
            <path id="Trazado_114161" data-name="Trazado 114161" d="M315.64,189.771c0,.73.512,1.026,1.144.661a2.53,2.53,0,0,0,1.145-1.982c0-.73-.513-1.026-1.145-.661A2.529,2.529,0,0,0,315.64,189.771Z" transform="translate(-294.789 -164.096)" fill="#d4ecff"/>
            <path id="Trazado_114162" data-name="Trazado 114162" d="M319.678,192.1c0,.73.512,1.025,1.144.661a2.531,2.531,0,0,0,1.145-1.983c0-.73-.512-1.026-1.145-.661A2.531,2.531,0,0,0,319.678,192.1Z" transform="translate(-302.865 -164.096)" fill="#173d7a"/>
            <path id="Trazado_114163" data-name="Trazado 114163" d="M331.023,200.55l2.352-1.358a1.525,1.525,0,0,0,.636-1.216v-2.489c0-.468-.285-.683-.636-.481l-2.352,1.358a1.522,1.522,0,0,0-.636,1.216v2.489C330.387,200.537,330.671,200.753,331.023,200.55Z" transform="translate(-325.618 -164.096)" fill="#d4ecff"/>
          </g>
        </g>
        <path id="Trazado_114164" data-name="Trazado 114164" d="M276.438,249.748a.993.993,0,0,0,.493-.131l56.436-32.073a2.188,2.188,0,0,0,.032-3.786L309.188,199.47a2.828,2.828,0,0,1-1.384-2.425V181.3a1,1,0,0,0-2,0v15.747a4.838,4.838,0,0,0,2.367,4.147l24.211,14.288a.189.189,0,0,1,0,.326l-56.436,32.073a1,1,0,0,0,.495,1.869Z" transform="translate(-41.228 -33.914)" fill="#5793ce"/>
        <g id="Grupo_78435" data-name="Grupo 78435" transform="translate(228.477 201.403)">
          <g id="Grupo_78434" data-name="Grupo 78434" transform="translate(0)">
            <g id="Grupo_78433" data-name="Grupo 78433" transform="translate(0)">
              <g id="Grupo_78431" data-name="Grupo 78431" transform="translate(14.816)">
                <rect id="Rectángulo_33769" data-name="Rectángulo 33769" width="5.361" height="11.57" transform="matrix(0.497, 0.868, -0.868, 0.497, 10.037, 0.125)" fill="#5793ce"/>
                <path id="Trazado_114165" data-name="Trazado 114165" d="M315.912,238.867a4.187,4.187,0,0,0-1.886-3.289c-1.045-.607-1.895-.12-1.9,1.089a4.187,4.187,0,0,0,1.886,3.289C315.059,240.563,315.909,240.076,315.912,238.867Z" transform="translate(-302.65 -235.317)" fill="#5793ce"/>
              </g>
              <g id="Grupo_78432" data-name="Grupo 78432" transform="translate(0 2.985)">
                <rect id="Rectángulo_33770" data-name="Rectángulo 33770" width="8.688" height="18.146" transform="translate(15.742 0.446) rotate(60.169)" fill="#5793ce"/>
                <path id="Trazado_114166" data-name="Trazado 114166" d="M317.675,240.25l3.4-1.948a6.939,6.939,0,0,1,2.668,4.651l-3.4,1.948A6.935,6.935,0,0,1,317.675,240.25Z" transform="translate(-301.208 -238.302)" fill="#396caa"/>
                <path id="Trazado_114167" data-name="Trazado 114167" d="M325.37,244.3a6.789,6.789,0,0,0-3.056-5.329c-1.693-.984-3.071-.194-3.077,1.764a6.792,6.792,0,0,0,3.056,5.33C323.987,247.048,325.364,246.258,325.37,244.3Z" transform="translate(-304.401 -238.302)" fill="#5793ce"/>
              </g>
            </g>
          </g>
          <path id="Trazado_114168" data-name="Trazado 114168" d="M317.069,237.625a.541.541,0,0,0,0-1.026,1.965,1.965,0,0,0-1.778-.006.542.542,0,0,0,0,1.027A1.965,1.965,0,0,0,317.069,237.625Z" transform="translate(-292.157 -235.317)" fill="#d4ecff"/>
        </g>
        <g id="Grupo_78440" data-name="Grupo 78440" transform="translate(240.682 208.779)">
          <g id="Grupo_78439" data-name="Grupo 78439" transform="translate(0)">
            <g id="Grupo_78438" data-name="Grupo 78438" transform="translate(0)">
              <g id="Grupo_78436" data-name="Grupo 78436" transform="translate(14.816)">
                <rect id="Rectángulo_33771" data-name="Rectángulo 33771" width="5.362" height="11.57" transform="matrix(0.497, 0.868, -0.868, 0.497, 10.037, 0.125)" fill="#5793ce"/>
                <path id="Trazado_114169" data-name="Trazado 114169" d="M303.708,246.243a4.191,4.191,0,0,0-1.886-3.289c-1.045-.608-1.9-.12-1.9,1.089a4.19,4.19,0,0,0,1.886,3.289C302.854,247.939,303.7,247.452,303.708,246.243Z" transform="translate(-290.445 -242.692)" fill="#5793ce"/>
              </g>
              <g id="Grupo_78437" data-name="Grupo 78437" transform="translate(0 2.986)">
                <rect id="Rectángulo_33772" data-name="Rectángulo 33772" width="8.688" height="18.146" transform="matrix(0.497, 0.868, -0.868, 0.497, 15.742, 0.446)" fill="#5793ce"/>
                <path id="Trazado_114170" data-name="Trazado 114170" d="M305.471,247.626l3.4-1.948a6.935,6.935,0,0,1,2.667,4.651l-3.4,1.948A6.937,6.937,0,0,1,305.471,247.626Z" transform="translate(-289.005 -245.678)" fill="#396caa"/>
                <path id="Trazado_114171" data-name="Trazado 114171" d="M313.165,251.675a6.786,6.786,0,0,0-3.056-5.329c-1.693-.985-3.071-.195-3.076,1.764a6.786,6.786,0,0,0,3.056,5.329C311.782,254.424,313.16,253.634,313.165,251.675Z" transform="translate(-292.196 -245.678)" fill="#5793ce"/>
              </g>
            </g>
          </g>
          <path id="Trazado_114172" data-name="Trazado 114172" d="M304.865,245a.542.542,0,0,0,0-1.027,1.967,1.967,0,0,0-1.779-.005.542.542,0,0,0,0,1.027A1.967,1.967,0,0,0,304.865,245Z" transform="translate(-279.953 -242.692)" fill="#d4ecff"/>
        </g>
        <g id="Grupo_78456" data-name="Grupo 78456" transform="translate(49.534 70.524)">
          <path id="Trazado_114173" data-name="Trazado 114173" d="M515.3,159.924a.98.98,0,0,0,.226-.026,1,1,0,0,0,.75-1.2l-9.753-42.343a1,1,0,1,0-1.949.45l9.753,42.342A1,1,0,0,0,515.3,159.924Z" transform="translate(-501.703 -104.438)" fill="#5793ce"/>
          <path id="Trazado_114174" data-name="Trazado 114174" d="M502.339,156.938a.987.987,0,0,0,.226-.026,1,1,0,0,0,.75-1.2l-9.753-42.342a1,1,0,0,0-1.95.449l9.753,42.342A1,1,0,0,0,502.339,156.938Z" transform="translate(-475.778 -104.438)" fill="#5793ce"/>
          <path id="Trazado_114175" data-name="Trazado 114175" d="M489.375,153.952a1.043,1.043,0,0,0,.226-.025,1,1,0,0,0,.75-1.2L480.6,110.385a1,1,0,0,0-1.95.449l9.753,42.343A1,1,0,0,0,489.375,153.952Z" transform="translate(-449.85 -104.438)" fill="#5793ce"/>
          <g id="Grupo_78445" data-name="Grupo 78445" transform="translate(24.174)">
            <g id="Grupo_78444" data-name="Grupo 78444" transform="translate(0)">
              <g id="Grupo_78443" data-name="Grupo 78443" transform="translate(0)">
                <g id="Grupo_78441" data-name="Grupo 78441" transform="translate(5.299 16.079)">
                  <rect id="Rectángulo_33773" data-name="Rectángulo 33773" width="5.362" height="11.57" transform="matrix(-0.974, 0.228, -0.228, -0.974, 7.86, 11.264)" fill="#5793ce"/>
                  <path id="Trazado_114176" data-name="Trazado 114176" d="M482.829,133.891a4.189,4.189,0,0,0,3.691-.865,1.155,1.155,0,0,0-.5-2.131,4.189,4.189,0,0,0-3.691.865A1.155,1.155,0,0,0,482.829,133.891Z" transform="translate(-479.175 -120.517)" fill="#5793ce"/>
                </g>
                <g id="Grupo_78442" data-name="Grupo 78442" transform="translate(0)">
                  <rect id="Rectángulo_33774" data-name="Rectángulo 33774" width="8.688" height="18.146" transform="translate(12.6 17.667) rotate(166.808)" fill="#5793ce"/>
                  <path id="Trazado_114177" data-name="Trazado 114177" d="M488.347,122.37l.894,3.812a6.934,6.934,0,0,1-5.22,1.223l-.894-3.812A6.937,6.937,0,0,1,488.347,122.37Z" transform="translate(-477.394 -104.438)" fill="#396caa"/>
                  <path id="Trazado_114178" data-name="Trazado 114178" d="M484.018,125.524a6.787,6.787,0,0,0,5.981-1.4c1.428-1.341,1.066-2.887-.809-3.453a6.787,6.787,0,0,0-5.981,1.4C481.781,123.412,482.143,124.958,484.018,125.524Z" transform="translate(-478.234 -104.438)" fill="#5793ce"/>
                </g>
              </g>
            </g>
            <path id="Trazado_114179" data-name="Trazado 114179" d="M482.427,131.213a.542.542,0,0,0,.983.3,1.965,1.965,0,0,0,.515-1.7c-.13-.553-.57-.686-.983-.3A1.965,1.965,0,0,0,482.427,131.213Z" transform="translate(-471.378 -104.438)" fill="#d4ecff"/>
          </g>
          <g id="Grupo_78450" data-name="Grupo 78450" transform="translate(12.154 7.157)">
            <g id="Grupo_78449" data-name="Grupo 78449" transform="translate(0)">
              <g id="Grupo_78448" data-name="Grupo 78448" transform="translate(0)">
                <g id="Grupo_78446" data-name="Grupo 78446" transform="translate(5.299 16.079)">
                  <rect id="Rectángulo_33775" data-name="Rectángulo 33775" width="5.361" height="11.57" transform="matrix(-0.974, 0.228, -0.228, -0.974, 7.86, 11.264)" fill="#5793ce"/>
                  <path id="Trazado_114180" data-name="Trazado 114180" d="M494.849,141.048a4.186,4.186,0,0,0,3.691-.865,1.155,1.155,0,0,0-.5-2.131,4.192,4.192,0,0,0-3.691.865A1.155,1.155,0,0,0,494.849,141.048Z" transform="translate(-491.195 -127.674)" fill="#5793ce"/>
                </g>
                <g id="Grupo_78447" data-name="Grupo 78447" transform="translate(0)">
                  <rect id="Rectángulo_33776" data-name="Rectángulo 33776" width="8.688" height="18.146" transform="matrix(-0.974, 0.228, -0.228, -0.974, 12.6, 17.667)" fill="#5793ce"/>
                  <path id="Trazado_114181" data-name="Trazado 114181" d="M500.367,129.527l.894,3.812a6.935,6.935,0,0,1-5.22,1.224l-.894-3.812A6.938,6.938,0,0,1,500.367,129.527Z" transform="translate(-489.414 -111.595)" fill="#396caa"/>
                  <path id="Trazado_114182" data-name="Trazado 114182" d="M496.038,132.682a6.793,6.793,0,0,0,5.981-1.4c1.428-1.341,1.066-2.887-.809-3.454a6.79,6.79,0,0,0-5.981,1.4C493.8,130.569,494.163,132.115,496.038,132.682Z" transform="translate(-490.254 -111.595)" fill="#5793ce"/>
                </g>
              </g>
            </g>
            <path id="Trazado_114183" data-name="Trazado 114183" d="M494.447,138.371a.542.542,0,0,0,.983.3,1.967,1.967,0,0,0,.515-1.7.542.542,0,0,0-.983-.3A1.967,1.967,0,0,0,494.447,138.371Z" transform="translate(-483.398 -111.595)" fill="#d4ecff"/>
          </g>
          <g id="Grupo_78455" data-name="Grupo 78455" transform="translate(0 14.26)">
            <g id="Grupo_78454" data-name="Grupo 78454" transform="translate(0)">
              <g id="Grupo_78453" data-name="Grupo 78453" transform="translate(0)">
                <g id="Grupo_78451" data-name="Grupo 78451" transform="translate(5.299 16.079)">
                  <rect id="Rectángulo_33777" data-name="Rectángulo 33777" width="5.361" height="11.57" transform="matrix(-0.974, 0.228, -0.228, -0.974, 7.86, 11.264)" fill="#5793ce"/>
                  <path id="Trazado_114184" data-name="Trazado 114184" d="M507,148.151a4.19,4.19,0,0,0,3.691-.865,1.155,1.155,0,0,0-.5-2.131,4.19,4.19,0,0,0-3.691.865A1.155,1.155,0,0,0,507,148.151Z" transform="translate(-503.349 -134.777)" fill="#5793ce"/>
                </g>
                <g id="Grupo_78452" data-name="Grupo 78452" transform="translate(0)">
                  <rect id="Rectángulo_33778" data-name="Rectángulo 33778" width="8.688" height="18.146" transform="matrix(-0.974, 0.228, -0.228, -0.974, 12.6, 17.667)" fill="#5793ce"/>
                  <path id="Trazado_114185" data-name="Trazado 114185" d="M512.522,136.63l.893,3.812a6.938,6.938,0,0,1-5.22,1.224l-.893-3.813A6.936,6.936,0,0,1,512.522,136.63Z" transform="translate(-501.568 -118.698)" fill="#396caa"/>
                  <path id="Trazado_114186" data-name="Trazado 114186" d="M508.193,139.784a6.79,6.79,0,0,0,5.981-1.4c1.428-1.341,1.066-2.887-.81-3.453a6.787,6.787,0,0,0-5.981,1.4C505.955,137.672,506.317,139.217,508.193,139.784Z" transform="translate(-502.408 -118.698)" fill="#5793ce"/>
                </g>
              </g>
            </g>
            <path id="Trazado_114187" data-name="Trazado 114187" d="M506.6,145.473a.542.542,0,0,0,.983.3,1.961,1.961,0,0,0,.514-1.7.542.542,0,0,0-.983-.3A1.967,1.967,0,0,0,506.6,145.473Z" transform="translate(-495.552 -118.698)" fill="#d4ecff"/>
          </g>
        </g>
        <g id="Grupo_78462" data-name="Grupo 78462" transform="translate(18.198 72.508)">
          <g id="Grupo_78458" data-name="Grupo 78458" transform="translate(0)">
            <path id="Trazado_114188" data-name="Trazado 114188" d="M402.663,346.556,518.8,279.5c3.285-1.9,2.873-5.21-.92-7.4L438.8,226.457c-3.794-2.191-9.533-2.428-12.819-.532L309.84,292.98c-3.285,1.9-2.873,5.21.921,7.4l79.084,45.644C393.639,348.215,399.377,348.453,402.663,346.556Z" transform="translate(-278.16 -106.422)" fill="#b2d3ea"/>
            <path id="Trazado_114189" data-name="Trazado 114189" d="M410.507,174.194l116.142-67.055a4.692,4.692,0,0,1,3.936-.482l-.007-.012.211.08.051.019,4.2,1.606-3.767,1.844c.017.07.039.135.054.205l18.918,86.113c.946,4.309-.949,9.34-4.235,11.237L432.658,273.191l.4,4.8-4.587-1.777a6.447,6.447,0,0,1-3.285-4.673l-18.918-86.112C405.326,181.122,407.222,176.091,410.507,174.194Z" transform="translate(-406.029 -106.422)" fill="#173d7a"/>
            <path id="Trazado_114190" data-name="Trazado 114190" d="M416.391,174.194l116.142-67.055a4.692,4.692,0,0,1,3.936-.482l-.007-.012.211.08.051.019,4.2,1.606-3.767,1.844c.017.07.039.135.054.205l12.468,56.754-56.827,44.273-80.127-32.6A9.024,9.024,0,0,1,416.391,174.194Z" transform="translate(-411.913 -106.422)" fill="#396caa"/>
            <path id="Trazado_114191" data-name="Trazado 114191" d="M541.746,187.431l-8.841-3.764a11.076,11.076,0,0,1,3.582-8.853l13.995,5.887Z" transform="translate(-532.888 -106.422)" fill="#274f89"/>
            <path id="Trazado_114192" data-name="Trazado 114192" d="M425.62,277.538l116.142-67.055c3.286-1.9,5.182-6.928,4.235-11.237L527.08,113.134c-.947-4.31-4.378-6.266-7.664-4.369L403.274,175.82c-3.285,1.9-5.181,6.928-4.234,11.237l18.917,86.113C418.9,277.479,422.335,279.435,425.62,277.538Z" transform="translate(-394.552 -106.422)" fill="#d4ecff"/>
            <path id="Trazado_114193" data-name="Trazado 114193" d="M428.119,271.133,537.348,208.1c3.007-1.736,4.742-6.34,3.875-10.283l-17.311-78.8c-.866-3.944-4.006-5.733-7.012-4L407.67,178.052c-3.006,1.736-4.741,6.34-3.875,10.284l17.312,78.8C421.973,271.079,425.112,272.869,428.119,271.133Z" transform="translate(-394.532 -106.422)" fill="#fff"/>
            <path id="Trazado_114194" data-name="Trazado 114194" d="M428.119,271.133,537.348,208.1c3.007-1.736,4.742-6.34,3.875-10.283l-17.311-78.8c-.866-3.944-4.006-5.733-7.012-4L407.67,178.052c-3.006,1.736-4.741,6.34-3.875,10.284l17.312,78.8C421.973,271.079,425.112,272.869,428.119,271.133Z" transform="translate(-394.532 -106.422)" fill="#fff"/>
            <path id="Trazado_114195" data-name="Trazado 114195" d="M307.63,280.458l15.876-2.1,102.481-59.168c3.286-1.9,9.025-1.659,12.819.531l72.618,41.911,9.6-1.267v5.447h-.009a3.738,3.738,0,0,1-2.2,3.364L402.668,336.236c-3.286,1.9-9.024,1.659-12.818-.531l-79.084-45.644c-2.135-1.233-3.2-2.82-3.136-4.311h0Z" transform="translate(-278.164 -106.422)" fill="#173d7a"/>
            <path id="Trazado_114196" data-name="Trazado 114196" d="M307.627,243.071l7.281-4.2h80.049l39.463,22.768,9.6-1.267v5.447h-.009a3.738,3.738,0,0,1-2.2,3.364L325.664,336.236a12.02,12.02,0,0,1-6.615,1.24Z" transform="translate(-201.161 -106.422)" fill="#396caa"/>
            <path id="Trazado_114197" data-name="Trazado 114197" d="M307.627,260.931l4.26-.562v5.447h-.009a3.738,3.738,0,0,1-2.2,3.364l-2.047,1.182Z" transform="translate(-69.029 -106.422)" fill="#5793ce"/>
            <path id="Trazado_114198" data-name="Trazado 114198" d="M438.043,336.779a14.876,14.876,0,0,1-10.891-.676V323.954h10.891Z" transform="translate(-314.71 -106.422)" fill="#274f89"/>
            <path id="Trazado_114199" data-name="Trazado 114199" d="M402.663,330.8,518.8,263.741c3.285-1.9,2.873-5.21-.92-7.4L438.8,210.7c-3.794-2.19-9.533-2.428-12.819-.531L309.84,277.22c-3.285,1.9-2.873,5.21.921,7.4l79.084,45.644C393.639,332.454,399.377,332.692,402.663,330.8Z" transform="translate(-278.16 -106.422)" fill="#d4ecff"/>
            <path id="Trazado_114200" data-name="Trazado 114200" d="M310.761,282.631l79.084,45.644c3.794,2.19,9.532,2.428,12.818.531L518.8,261.752a4.323,4.323,0,0,0,2.042-2.235c.514,1.554-.141,3.126-2.042,4.224L402.663,330.8c-3.286,1.9-9.024,1.659-12.818-.532L310.761,284.62c-2.55-1.472-3.565-3.45-2.963-5.166A6.174,6.174,0,0,0,310.761,282.631Z" transform="translate(-278.16 -106.422)" fill="#fff"/>
            <g id="Grupo_78457" data-name="Grupo 78457" transform="translate(41.317 106.592)">
              <path id="Trazado_114201" data-name="Trazado 114201" d="M361.949,241.542l5.255-3.034c.422-.244.369-.669-.118-.951l-6.2-3.581a1.829,1.829,0,0,0-1.646-.068l-5.255,3.034c-.422.244-.369.669.118.95l6.2,3.582A1.832,1.832,0,0,0,361.949,241.542Z" transform="translate(-212.018 -213.014)" fill="#173d7a"/>
              <path id="Trazado_114202" data-name="Trazado 114202" d="M370.064,246.227l5.255-3.034c.422-.243.369-.669-.118-.95l-6.2-3.581a1.829,1.829,0,0,0-1.646-.069l-5.255,3.034c-.422.244-.369.67.118.951l6.2,3.581A1.829,1.829,0,0,0,370.064,246.227Z" transform="translate(-228.248 -213.014)" fill="#173d7a"/>
              <path id="Trazado_114203" data-name="Trazado 114203" d="M378.179,250.913l5.255-3.035c.422-.243.369-.669-.119-.95l-6.2-3.581a1.829,1.829,0,0,0-1.646-.068l-5.255,3.034c-.422.243-.369.669.118.95l6.2,3.581A1.829,1.829,0,0,0,378.179,250.913Z" transform="translate(-244.478 -213.014)" fill="#173d7a"/>
              <path id="Trazado_114204" data-name="Trazado 114204" d="M388.407,247.043l5.255-3.034c.422-.243.369-.669-.118-.95l-5.207-3.006a1.826,1.826,0,0,0-1.646-.068l-5.255,3.033c-.422.244-.369.67.118.951l5.207,3.006A1.829,1.829,0,0,0,388.407,247.043Z" transform="translate(-265.93 -213.014)" fill="#173d7a"/>
              <path id="Trazado_114205" data-name="Trazado 114205" d="M396.523,251.729l5.255-3.034c.421-.244.369-.67-.119-.951l-5.206-3.006a1.831,1.831,0,0,0-1.647-.068l-5.254,3.034c-.422.243-.37.669.118.95l5.206,3.006A1.831,1.831,0,0,0,396.523,251.729Z" transform="translate(-282.161 -213.014)" fill="#173d7a"/>
              <path id="Trazado_114206" data-name="Trazado 114206" d="M404.638,256.414l5.255-3.034c.422-.244.369-.669-.118-.95l-5.207-3.007a1.829,1.829,0,0,0-1.646-.068l-5.255,3.034c-.422.244-.369.669.118.951l5.207,3.006A1.832,1.832,0,0,0,404.638,256.414Z" transform="translate(-298.392 -213.014)" fill="#173d7a"/>
              <path id="Trazado_114207" data-name="Trazado 114207" d="M412.753,261.1l5.255-3.034c.422-.243.369-.669-.118-.95l-5.207-3.006a1.829,1.829,0,0,0-1.646-.069l-5.255,3.034c-.422.244-.369.67.118.951l5.207,3.006A1.829,1.829,0,0,0,412.753,261.1Z" transform="translate(-314.622 -213.014)" fill="#173d7a"/>
              <path id="Trazado_114208" data-name="Trazado 114208" d="M420.868,265.784l5.255-3.033c.422-.244.369-.669-.118-.951l-5.207-3.006a1.829,1.829,0,0,0-1.646-.068L413.9,261.76c-.422.243-.369.669.118.95l5.207,3.006A1.826,1.826,0,0,0,420.868,265.784Z" transform="translate(-330.852 -213.014)" fill="#173d7a"/>
              <path id="Trazado_114209" data-name="Trazado 114209" d="M428.983,270.47l5.255-3.034c.422-.244.369-.669-.119-.951l-5.206-3.006a1.831,1.831,0,0,0-1.647-.068l-5.254,3.034c-.422.244-.369.669.118.951l5.207,3.006A1.832,1.832,0,0,0,428.983,270.47Z" transform="translate(-347.082 -213.014)" fill="#173d7a"/>
              <path id="Trazado_114210" data-name="Trazado 114210" d="M437.1,275.155l5.255-3.034c.422-.243.369-.669-.118-.95l-5.207-3.006a1.829,1.829,0,0,0-1.646-.069l-5.255,3.034c-.422.244-.369.67.118.951l5.207,3.006A1.829,1.829,0,0,0,437.1,275.155Z" transform="translate(-363.314 -213.014)" fill="#173d7a"/>
              <path id="Trazado_114211" data-name="Trazado 114211" d="M445.214,279.841l5.255-3.034c.422-.244.369-.669-.118-.951l-5.207-3.006a1.829,1.829,0,0,0-1.646-.068l-5.255,3.034c-.422.243-.369.669.118.95l5.207,3.006A1.829,1.829,0,0,0,445.214,279.841Z" transform="translate(-379.544 -213.014)" fill="#173d7a"/>
              <path id="Trazado_114212" data-name="Trazado 114212" d="M453.329,284.526l5.255-3.034c.422-.244.369-.669-.118-.951l-5.207-3.006a1.832,1.832,0,0,0-1.646-.068l-5.255,3.034c-.422.244-.369.669.118.95l5.207,3.007A1.829,1.829,0,0,0,453.329,284.526Z" transform="translate(-395.774 -213.014)" fill="#173d7a"/>
              <path id="Trazado_114213" data-name="Trazado 114213" d="M461.444,289.211l5.255-3.034c.422-.243.369-.669-.119-.95l-5.206-3.006a1.826,1.826,0,0,0-1.646-.068l-5.255,3.033c-.422.244-.369.669.118.951l5.207,3.006A1.829,1.829,0,0,0,461.444,289.211Z" transform="translate(-412.004 -213.014)" fill="#173d7a"/>
              <path id="Trazado_114214" data-name="Trazado 114214" d="M400.365,244.825l5.255-3.034c.421-.244.369-.669-.119-.95l-5.206-3.006a1.831,1.831,0,0,0-1.647-.069l-5.255,3.034c-.421.244-.369.669.119.951l5.206,3.006A1.831,1.831,0,0,0,400.365,244.825Z" transform="translate(-289.845 -213.014)" fill="#396caa"/>
              <path id="Trazado_114215" data-name="Trazado 114215" d="M392.128,240.07l5.255-3.034c.422-.244.369-.669-.118-.951l-5.207-3.006a1.829,1.829,0,0,0-1.646-.068l-5.255,3.034c-.422.244-.369.669.118.95L390.482,240A1.832,1.832,0,0,0,392.128,240.07Z" transform="translate(-273.372 -213.014)" fill="#396caa"/>
              <path id="Trazado_114216" data-name="Trazado 114216" d="M377.815,235.307l11.318-6.535c.422-.243.369-.669-.119-.95l-5.206-3.006a1.831,1.831,0,0,0-1.647-.069l-11.317,6.535c-.422.243-.369.669.118.95l5.207,3.006A1.829,1.829,0,0,0,377.815,235.307Z" transform="translate(-250.809 -213.014)" fill="#173d7a"/>
              <path id="Trazado_114217" data-name="Trazado 114217" d="M385.715,229.514l9.185-5.3c.422-.243.369-.669-.118-.95l-5.207-3.006a1.829,1.829,0,0,0-1.646-.068l-9.185,5.3c-.422.244-.369.669.118.951l5.207,3.006A1.829,1.829,0,0,0,385.715,229.514Z" transform="translate(-264.476 -213.014)" fill="#173d7a"/>
              <path id="Trazado_114218" data-name="Trazado 114218" d="M408.48,249.51l5.255-3.034c.422-.243.369-.669-.118-.95l-5.207-3.006a1.826,1.826,0,0,0-1.646-.068l-5.255,3.033c-.422.244-.369.67.118.951l5.207,3.006A1.829,1.829,0,0,0,408.48,249.51Z" transform="translate(-306.076 -213.014)" fill="#396caa"/>
              <path id="Trazado_114219" data-name="Trazado 114219" d="M416.6,254.2l5.255-3.034c.422-.244.369-.669-.118-.951l-5.207-3.006a1.829,1.829,0,0,0-1.646-.068l-5.255,3.034c-.422.243-.369.669.118.95l5.207,3.006A1.829,1.829,0,0,0,416.6,254.2Z" transform="translate(-322.306 -213.014)" fill="#173d7a"/>
              <path id="Trazado_114220" data-name="Trazado 114220" d="M424.71,258.881l5.255-3.034c.422-.244.369-.669-.118-.95l-5.207-3.007a1.832,1.832,0,0,0-1.646-.068l-5.255,3.034c-.422.244-.369.669.118.951l5.207,3.006A1.829,1.829,0,0,0,424.71,258.881Z" transform="translate(-338.536 -213.014)" fill="#173d7a"/>
              <path id="Trazado_114221" data-name="Trazado 114221" d="M432.826,263.566l5.255-3.034c.421-.243.369-.669-.119-.95l-5.206-3.006a1.828,1.828,0,0,0-1.647-.068l-5.255,3.033c-.421.244-.369.67.119.951l5.206,3.006A1.831,1.831,0,0,0,432.826,263.566Z" transform="translate(-354.767 -213.014)" fill="#173d7a"/>
              <path id="Trazado_114222" data-name="Trazado 114222" d="M440.941,268.252l5.255-3.034c.422-.244.369-.669-.118-.951l-5.207-3.006a1.829,1.829,0,0,0-1.646-.068l-5.255,3.034c-.422.243-.369.669.118.95l5.207,3.006A1.829,1.829,0,0,0,440.941,268.252Z" transform="translate(-370.998 -213.014)" fill="#173d7a"/>
              <path id="Trazado_114223" data-name="Trazado 114223" d="M449.056,272.937l5.255-3.034c.422-.244.369-.669-.118-.95l-5.207-3.006a1.829,1.829,0,0,0-1.646-.069l-5.255,3.034c-.422.244-.369.669.118.951l5.207,3.006A1.829,1.829,0,0,0,449.056,272.937Z" transform="translate(-387.228 -213.014)" fill="#173d7a"/>
              <path id="Trazado_114224" data-name="Trazado 114224" d="M457.171,277.622l5.255-3.034c.422-.243.369-.669-.118-.95l-5.207-3.006a1.829,1.829,0,0,0-1.646-.068L450.2,273.6c-.422.243-.369.669.118.95l5.207,3.006A1.829,1.829,0,0,0,457.171,277.622Z" transform="translate(-403.458 -213.014)" fill="#173d7a"/>
              <path id="Trazado_114225" data-name="Trazado 114225" d="M465.287,282.308l5.255-3.034c.421-.244.369-.669-.119-.951l-5.206-3.006a1.831,1.831,0,0,0-1.647-.068l-5.255,3.034c-.421.243-.369.669.119.95l5.206,3.006A1.831,1.831,0,0,0,465.287,282.308Z" transform="translate(-419.689 -213.014)" fill="#173d7a"/>
              <path id="Trazado_114226" data-name="Trazado 114226" d="M473.4,286.993l5.255-3.034c.422-.244.369-.669-.118-.95L473.332,280a1.829,1.829,0,0,0-1.646-.069l-5.255,3.034c-.422.244-.369.669.118.951l5.207,3.006A1.829,1.829,0,0,0,473.4,286.993Z" transform="translate(-435.92 -213.014)" fill="#173d7a"/>
              <path id="Trazado_114227" data-name="Trazado 114227" d="M481.618,295.323l11.466-6.62c.422-.244.369-.669-.118-.951l-5.207-3.006a1.829,1.829,0,0,0-1.646-.068l-11.466,6.62c-.422.243-.369.669.118.95l5.207,3.006A1.832,1.832,0,0,0,481.618,295.323Z" transform="translate(-458.563 -213.014)" fill="#173d7a"/>
              <path id="Trazado_114228" data-name="Trazado 114228" d="M499.206,286.2l9.678-5.588c.421-.243.369-.669-.119-.95l-5.206-3.006a1.831,1.831,0,0,0-1.647-.068l-9.677,5.587c-.422.244-.369.669.118.95l5.207,3.006A1.829,1.829,0,0,0,499.206,286.2Z" transform="translate(-491.95 -213.014)" fill="#173d7a"/>
              <path id="Trazado_114229" data-name="Trazado 114229" d="M422.691,248.594l5.255-3.034c.422-.244.369-.67-.118-.951l-5.207-3.006a1.829,1.829,0,0,0-1.646-.068l-5.255,3.034c-.422.243-.369.669.118.95l5.207,3.006A1.829,1.829,0,0,0,422.691,248.594Z" transform="translate(-334.498 -213.014)" fill="#173d7a"/>
              <path id="Trazado_114230" data-name="Trazado 114230" d="M414.374,243.792l5.255-3.034c.422-.244.369-.669-.118-.951L414.3,236.8a1.829,1.829,0,0,0-1.646-.068l-5.255,3.034c-.422.244-.369.669.118.95l5.207,3.006A1.829,1.829,0,0,0,414.374,243.792Z" transform="translate(-317.864 -213.014)" fill="#173d7a"/>
              <path id="Trazado_114231" data-name="Trazado 114231" d="M406.057,238.99l5.255-3.034c.422-.244.369-.669-.118-.951L405.987,232a1.832,1.832,0,0,0-1.646-.068l-5.255,3.034c-.422.244-.369.669.118.95l5.207,3.007A1.832,1.832,0,0,0,406.057,238.99Z" transform="translate(-301.23 -213.014)" fill="#396caa"/>
              <path id="Trazado_114232" data-name="Trazado 114232" d="M397.74,234.188l5.255-3.034c.422-.244.369-.669-.118-.95L397.67,227.2a1.832,1.832,0,0,0-1.646-.068l-5.255,3.034c-.422.244-.369.669.118.95l5.207,3.007A1.829,1.829,0,0,0,397.74,234.188Z" transform="translate(-284.596 -213.014)" fill="#173d7a"/>
              <path id="Trazado_114233" data-name="Trazado 114233" d="M430.808,253.279l5.254-3.034c.422-.244.369-.669-.118-.95l-5.207-3.007a1.832,1.832,0,0,0-1.646-.068l-5.255,3.034c-.422.244-.369.669.119.95l5.206,3.007A1.834,1.834,0,0,0,430.808,253.279Z" transform="translate(-350.73 -213.014)" fill="#173d7a"/>
              <path id="Trazado_114234" data-name="Trazado 114234" d="M438.922,257.964l5.255-3.034c.422-.243.369-.669-.118-.95l-5.207-3.006a1.829,1.829,0,0,0-1.646-.068l-5.255,3.034c-.422.243-.369.669.118.95l5.207,3.006A1.829,1.829,0,0,0,438.922,257.964Z" transform="translate(-366.96 -213.014)" fill="#173d7a"/>
              <path id="Trazado_114235" data-name="Trazado 114235" d="M447.037,262.65l5.255-3.034c.422-.244.369-.669-.118-.951l-5.207-3.006a1.829,1.829,0,0,0-1.646-.068l-5.255,3.034c-.422.243-.369.669.118.95l5.207,3.006A1.829,1.829,0,0,0,447.037,262.65Z" transform="translate(-383.19 -213.014)" fill="#173d7a"/>
              <path id="Trazado_114236" data-name="Trazado 114236" d="M455.152,267.335l5.255-3.034c.422-.244.369-.669-.118-.95l-5.207-3.007a1.832,1.832,0,0,0-1.646-.068l-5.255,3.034c-.422.244-.369.669.118.951l5.207,3.006A1.832,1.832,0,0,0,455.152,267.335Z" transform="translate(-399.42 -213.014)" fill="#173d7a"/>
              <path id="Trazado_114237" data-name="Trazado 114237" d="M463.268,272.02l5.255-3.034c.421-.243.369-.669-.119-.95L463.2,265.03a1.831,1.831,0,0,0-1.647-.069L456.3,268c-.421.243-.369.669.119.95l5.206,3.006A1.831,1.831,0,0,0,463.268,272.02Z" transform="translate(-415.651 -213.014)" fill="#173d7a"/>
              <path id="Trazado_114238" data-name="Trazado 114238" d="M471.383,276.706l5.255-3.034c.422-.244.369-.669-.118-.951l-5.207-3.006a1.829,1.829,0,0,0-1.646-.068l-5.255,3.034c-.422.243-.369.669.118.95l5.207,3.006A1.829,1.829,0,0,0,471.383,276.706Z" transform="translate(-431.882 -213.014)" fill="#173d7a"/>
              <path id="Trazado_114239" data-name="Trazado 114239" d="M479.5,281.391l5.255-3.034c.422-.244.369-.669-.118-.95l-5.207-3.007a1.832,1.832,0,0,0-1.646-.068l-5.255,3.034c-.422.244-.369.669.118.951l5.207,3.006A1.829,1.829,0,0,0,479.5,281.391Z" transform="translate(-448.112 -213.014)" fill="#173d7a"/>
              <path id="Trazado_114240" data-name="Trazado 114240" d="M487.613,286.076l5.255-3.034c.422-.243.369-.669-.118-.95l-5.207-3.006a1.832,1.832,0,0,0-1.646-.069l-5.255,3.034c-.422.244-.369.67.118.951l5.207,3.006A1.829,1.829,0,0,0,487.613,286.076Z" transform="translate(-464.342 -213.014)" fill="#173d7a"/>
              <path id="Trazado_114241" data-name="Trazado 114241" d="M495.729,290.762l5.255-3.034c.421-.244.369-.669-.119-.951l-5.206-3.006a1.831,1.831,0,0,0-1.647-.068l-5.255,3.034c-.421.243-.369.669.119.95l5.206,3.006A1.831,1.831,0,0,0,495.729,290.762Z" transform="translate(-480.573 -213.014)" fill="#173d7a"/>
              <path id="Trazado_114242" data-name="Trazado 114242" d="M418.418,237.005l5.255-3.034c.422-.244.369-.669-.118-.951l-5.207-3.006a1.829,1.829,0,0,0-1.646-.068l-5.255,3.034c-.422.244-.369.669.118.95l5.207,3.006A1.829,1.829,0,0,0,418.418,237.005Z" transform="translate(-325.952 -213.014)" fill="#173d7a"/>
              <path id="Trazado_114243" data-name="Trazado 114243" d="M410.343,232.343l5.255-3.034c.422-.244.369-.669-.118-.951l-5.207-3.006a1.829,1.829,0,0,0-1.646-.068l-5.255,3.034c-.422.243-.369.669.118.95l5.207,3.006A1.829,1.829,0,0,0,410.343,232.343Z" transform="translate(-309.802 -213.014)" fill="#173d7a"/>
              <path id="Trazado_114244" data-name="Trazado 114244" d="M402.268,227.681l5.255-3.034c.422-.244.369-.669-.119-.951L402.2,220.69a1.829,1.829,0,0,0-1.646-.068l-5.255,3.034c-.422.243-.369.669.118.95l5.207,3.006A1.829,1.829,0,0,0,402.268,227.681Z" transform="translate(-293.652 -213.014)" fill="#173d7a"/>
              <path id="Trazado_114245" data-name="Trazado 114245" d="M394.194,223.019l5.255-3.034c.421-.244.369-.669-.119-.951l-5.206-3.006a1.831,1.831,0,0,0-1.647-.068l-5.255,3.034c-.421.243-.369.669.119.95l5.206,3.006A1.831,1.831,0,0,0,394.194,223.019Z" transform="translate(-277.503 -213.014)" fill="#173d7a"/>
              <path id="Trazado_114246" data-name="Trazado 114246" d="M399.011,218.225l5.255-3.034c.422-.244.369-.669-.118-.951l-1.721-.994a1.832,1.832,0,0,0-1.646-.068l-5.255,3.034c-.422.244-.369.669.118.951l1.721.993A1.829,1.829,0,0,0,399.011,218.225Z" transform="translate(-290.624 -213.014)" fill="#173d7a"/>
              <path id="Trazado_114247" data-name="Trazado 114247" d="M409.549,224.309l5.255-3.034c.422-.244.369-.67-.118-.951l-1.721-.993a1.829,1.829,0,0,0-1.646-.069l-5.255,3.034c-.422.244-.369.669.118.951l1.721.993A1.829,1.829,0,0,0,409.549,224.309Z" transform="translate(-311.7 -213.014)" fill="#173d7a"/>
              <path id="Trazado_114248" data-name="Trazado 114248" d="M417.59,228.951l5.255-3.034c.422-.243.369-.669-.118-.95l-1.721-.994a1.829,1.829,0,0,0-1.646-.068l-5.255,3.034c-.422.243-.369.669.118.95l1.721.994A1.829,1.829,0,0,0,417.59,228.951Z" transform="translate(-327.782 -213.014)" fill="#173d7a"/>
              <path id="Trazado_114249" data-name="Trazado 114249" d="M425.632,233.594l5.255-3.034c.422-.244.369-.669-.118-.951l-1.721-.993a1.831,1.831,0,0,0-1.647-.069l-5.255,3.034c-.421.244-.369.67.119.951l1.721.993A1.829,1.829,0,0,0,425.632,233.594Z" transform="translate(-343.865 -213.014)" fill="#173d7a"/>
              <path id="Trazado_114250" data-name="Trazado 114250" d="M433.673,238.236l5.255-3.034c.422-.243.369-.669-.118-.95l-1.722-.994a1.829,1.829,0,0,0-1.646-.068l-5.255,3.034c-.422.244-.369.669.118.95l1.722.994A1.829,1.829,0,0,0,433.673,238.236Z" transform="translate(-359.947 -213.014)" fill="#173d7a"/>
              <path id="Trazado_114251" data-name="Trazado 114251" d="M478.566,264.155l5.255-3.034c.422-.243.369-.669-.118-.95l-1.722-.994a1.829,1.829,0,0,0-1.646-.068l-5.255,3.034c-.422.244-.369.669.118.95l1.722.994A1.829,1.829,0,0,0,478.566,264.155Z" transform="translate(-449.733 -213.014)" fill="#173d7a"/>
              <path id="Trazado_114252" data-name="Trazado 114252" d="M486.607,268.8l5.255-3.034c.422-.244.369-.669-.119-.95l-1.721-.994a1.829,1.829,0,0,0-1.646-.068l-5.255,3.033c-.422.244-.369.67.118.951l1.722.994A1.832,1.832,0,0,0,486.607,268.8Z" transform="translate(-465.815 -213.014)" fill="#173d7a"/>
              <path id="Trazado_114253" data-name="Trazado 114253" d="M494.648,273.441l5.255-3.034c.422-.244.369-.67-.118-.951l-1.721-.994a1.832,1.832,0,0,0-1.646-.068l-5.255,3.034c-.422.244-.369.669.118.95l1.721.994A1.829,1.829,0,0,0,494.648,273.441Z" transform="translate(-481.898 -213.014)" fill="#173d7a"/>
              <path id="Trazado_114254" data-name="Trazado 114254" d="M502.689,278.083l5.255-3.034c.422-.243.369-.669-.118-.95l-1.721-.994a1.829,1.829,0,0,0-1.646-.068l-5.255,3.034c-.422.243-.369.669.118.95l1.721.994A1.829,1.829,0,0,0,502.689,278.083Z" transform="translate(-497.98 -213.014)" fill="#173d7a"/>
              <path id="Trazado_114255" data-name="Trazado 114255" d="M426.533,241.69l5.255-3.034c.422-.243.369-.669-.119-.95l-5.206-3.006a1.829,1.829,0,0,0-1.646-.069l-5.255,3.034c-.422.244-.369.669.118.951l5.207,3.006A1.829,1.829,0,0,0,426.533,241.69Z" transform="translate(-342.182 -213.014)" fill="#173d7a"/>
              <path id="Trazado_114256" data-name="Trazado 114256" d="M434.649,246.375l5.255-3.034c.422-.243.369-.669-.118-.95l-5.207-3.006a1.829,1.829,0,0,0-1.646-.068l-5.255,3.034c-.422.243-.369.669.119.95L433,246.307A1.829,1.829,0,0,0,434.649,246.375Z" transform="translate(-358.414 -213.014)" fill="#173d7a"/>
              <path id="Trazado_114257" data-name="Trazado 114257" d="M442.764,251.061l5.255-3.034c.422-.244.369-.669-.118-.951l-5.207-3.006a1.829,1.829,0,0,0-1.646-.068l-5.255,3.034c-.422.244-.369.669.118.95l5.207,3.007A1.832,1.832,0,0,0,442.764,251.061Z" transform="translate(-374.644 -213.014)" fill="#173d7a"/>
              <path id="Trazado_114258" data-name="Trazado 114258" d="M450.879,255.746l5.255-3.034c.422-.244.369-.669-.118-.95l-5.207-3.007a1.832,1.832,0,0,0-1.646-.068l-5.255,3.034c-.422.244-.369.669.118.951l5.207,3.006A1.829,1.829,0,0,0,450.879,255.746Z" transform="translate(-390.874 -213.014)" fill="#173d7a"/>
              <path id="Trazado_114259" data-name="Trazado 114259" d="M458.994,260.431l5.255-3.034c.422-.243.369-.669-.118-.95l-5.207-3.006a1.829,1.829,0,0,0-1.646-.068l-5.255,3.034c-.422.243-.369.669.118.95l5.207,3.006A1.829,1.829,0,0,0,458.994,260.431Z" transform="translate(-407.104 -213.014)" fill="#173d7a"/>
              <path id="Trazado_114260" data-name="Trazado 114260" d="M467.11,265.117l5.255-3.034c.422-.244.369-.669-.118-.951l-5.207-3.006a1.829,1.829,0,0,0-1.646-.068l-5.255,3.034c-.422.244-.369.669.119.95l5.206,3.007A1.832,1.832,0,0,0,467.11,265.117Z" transform="translate(-423.336 -213.014)" fill="#173d7a"/>
              <path id="Trazado_114261" data-name="Trazado 114261" d="M475.225,269.8l5.255-3.034c.422-.244.369-.669-.118-.95l-5.207-3.006a1.829,1.829,0,0,0-1.646-.069l-5.255,3.034c-.422.244-.369.669.118.951l5.207,3.006A1.829,1.829,0,0,0,475.225,269.8Z" transform="translate(-439.566 -213.014)" fill="#173d7a"/>
              <path id="Trazado_114262" data-name="Trazado 114262" d="M483.34,274.487l5.255-3.034c.422-.243.369-.669-.118-.95L483.27,267.5a1.829,1.829,0,0,0-1.646-.068l-5.255,3.034c-.422.243-.369.669.118.95l5.207,3.006A1.829,1.829,0,0,0,483.34,274.487Z" transform="translate(-455.796 -213.014)" fill="#173d7a"/>
              <path id="Trazado_114263" data-name="Trazado 114263" d="M491.455,279.173l5.255-3.034c.422-.244.369-.669-.118-.951l-5.207-3.006a1.829,1.829,0,0,0-1.646-.068l-5.255,3.034c-.422.243-.369.669.118.95l5.207,3.006A1.829,1.829,0,0,0,491.455,279.173Z" transform="translate(-472.026 -213.014)" fill="#173d7a"/>
              <path id="Trazado_114264" data-name="Trazado 114264" d="M369.916,242.269l15.476-8.936c.422-.243.369-.669-.118-.95l-5.207-3.006a1.829,1.829,0,0,0-1.646-.069l-15.476,8.936c-.422.243-.369.669.118.95l5.207,3.006A1.832,1.832,0,0,0,369.916,242.269Z" transform="translate(-239.169 -213.014)" fill="#173d7a"/>
              <path id="Trazado_114265" data-name="Trazado 114265" d="M469.613,299.829l15.477-8.935c.421-.244.369-.669-.119-.951l-5.206-3.006a1.831,1.831,0,0,0-1.647-.068L462.642,295.8c-.422.244-.369.669.118.951l5.207,3.006A1.829,1.829,0,0,0,469.613,299.829Z" transform="translate(-438.565 -213.014)" fill="#173d7a"/>
              <path id="Trazado_114266" data-name="Trazado 114266" d="M448.377,291.441l5.255-3.034c.422-.243.369-.669-.118-.95l-6.2-3.581a1.829,1.829,0,0,0-1.646-.069l-5.255,3.034c-.422.244-.369.669.118.951l6.2,3.581A1.829,1.829,0,0,0,448.377,291.441Z" transform="translate(-384.874 -213.014)" fill="#173d7a"/>
              <path id="Trazado_114267" data-name="Trazado 114267" d="M386.3,257.416l8.4-4.852c.422-.244.369-.669-.118-.951l-6.2-3.581a1.834,1.834,0,0,0-1.647-.068l-8.4,4.852c-.422.244-.369.669.118.951l6.2,3.581A1.829,1.829,0,0,0,386.3,257.416Z" transform="translate(-263.859 -213.014)" fill="#173d7a"/>
              <path id="Trazado_114268" data-name="Trazado 114268" d="M437.409,286.927l8.4-4.852c.422-.244.369-.67-.118-.951l-6.2-3.581a1.831,1.831,0,0,0-1.647-.068l-8.4,4.852c-.422.243-.369.669.119.95l6.2,3.581A1.829,1.829,0,0,0,437.409,286.927Z" transform="translate(-366.087 -213.014)" fill="#173d7a"/>
              <path id="Trazado_114269" data-name="Trazado 114269" d="M398,264.176l8.4-4.852c.422-.244.369-.669-.118-.951l-6.2-3.581a1.829,1.829,0,0,0-1.646-.068l-8.4,4.852c-.422.244-.369.669.118.951l6.2,3.581A1.829,1.829,0,0,0,398,264.176Z" transform="translate(-287.275 -213.014)" fill="#173d7a"/>
              <path id="Trazado_114270" data-name="Trazado 114270" d="M426.972,254.757l-36.539,21.1a.5.5,0,0,0,0,.948l6.325,3.651a1.813,1.813,0,0,0,1.642,0l36.539-21.1Z" transform="translate(-315.864 -213.014)" fill="#173d7a"/>
              <path id="Trazado_114271" data-name="Trazado 114271" d="M470.215,299.936l-5.853,3.38c-.346.2-.3.548.1.779L467,305.559a1.5,1.5,0,0,0,1.349.056l5.854-3.379c.346-.2.3-.548-.1-.779l-2.537-1.465A1.5,1.5,0,0,0,470.215,299.936Z" transform="translate(-429.393 -213.014)" fill="#173d7a"/>
              <path id="Trazado_114272" data-name="Trazado 114272" d="M462.033,295.212l-5.854,3.379c-.345.2-.3.549.1.779l2.538,1.465a1.5,1.5,0,0,0,1.349.056l5.853-3.379c.346-.2.3-.549-.1-.779l-2.537-1.465A1.5,1.5,0,0,0,462.033,295.212Z" transform="translate(-413.028 -213.014)" fill="#173d7a"/>
              <path id="Trazado_114273" data-name="Trazado 114273" d="M453.918,290.527l-5.853,3.379c-.346.2-.3.548.1.779l2.537,1.465a1.5,1.5,0,0,0,1.349.056l5.854-3.38c.345-.2.3-.548-.1-.779l-2.538-1.464A1.5,1.5,0,0,0,453.918,290.527Z" transform="translate(-396.798 -213.014)" fill="#173d7a"/>
              <path id="Trazado_114274" data-name="Trazado 114274" d="M466.514,292.625,460.661,296c-.346.2-.3.548.1.779l2.537,1.465a1.5,1.5,0,0,0,1.349.056l5.854-3.38c.346-.2.3-.548-.1-.779l-2.537-1.464A1.5,1.5,0,0,0,466.514,292.625Z" transform="translate(-421.991 -213.014)" fill="#173d7a"/>
            </g>
          </g>
          <g id="Grupo_78461" data-name="Grupo 78461" transform="translate(21.248 24.152)">
            <g id="Grupo_78459" data-name="Grupo 78459" transform="translate(20.211)">
              <path id="Trazado_114275" data-name="Trazado 114275" d="M446.84,149.005l7.766-4.484a2.22,2.22,0,0,0,.948-2.3h0a1.081,1.081,0,0,0-1.662-.793l-7.765,4.484a2.22,2.22,0,0,0-.948,2.3h0A1.08,1.08,0,0,0,446.84,149.005Z" transform="translate(-391.707 -130.574)" fill="#d4ecff"/>
              <path id="Trazado_114276" data-name="Trazado 114276" d="M461.653,159.685l11.451-6.611a2.221,2.221,0,0,0,.948-2.3h0a1.081,1.081,0,0,0-1.662-.793l-11.451,6.611a2.222,2.222,0,0,0-.947,2.3h0A1.08,1.08,0,0,0,461.653,159.685Z" transform="translate(-425.018 -130.574)" fill="#d4ecff"/>
              <path id="Trazado_114277" data-name="Trazado 114277" d="M433.3,185.254l7.766-4.484a2.22,2.22,0,0,0,.948-2.3h0a1.081,1.081,0,0,0-1.662-.793l-7.766,4.484a2.221,2.221,0,0,0-.947,2.3h0A1.08,1.08,0,0,0,433.3,185.254Z" transform="translate(-364.633 -130.574)" fill="#d4ecff"/>
              <path id="Trazado_114278" data-name="Trazado 114278" d="M446.109,194.774l11.451-6.611a2.222,2.222,0,0,0,.947-2.3h0a1.08,1.08,0,0,0-1.661-.793l-11.451,6.611a2.221,2.221,0,0,0-.948,2.3h0A1.081,1.081,0,0,0,446.109,194.774Z" transform="translate(-393.928 -130.574)" fill="#d4ecff"/>
              <path id="Trazado_114279" data-name="Trazado 114279" d="M426.847,143.122l4.851-2.8a2.222,2.222,0,0,0,.948-2.3h0a1.081,1.081,0,0,0-1.662-.793l-4.851,2.8a2.221,2.221,0,0,0-.948,2.3h0A1.081,1.081,0,0,0,426.847,143.122Z" transform="translate(-348.805 -130.574)" fill="#d4ecff"/>
              <path id="Trazado_114280" data-name="Trazado 114280" d="M431.828,159.1l14.822-8.558a2.221,2.221,0,0,0,.947-2.3h0a1.08,1.08,0,0,0-1.661-.793l-14.822,8.558a2.221,2.221,0,0,0-.948,2.3h0A1.081,1.081,0,0,0,431.828,159.1Z" transform="translate(-368.736 -130.574)" fill="#d4ecff"/>
              <path id="Trazado_114281" data-name="Trazado 114281" d="M428.835,166.3l4.852-2.8a2.222,2.222,0,0,0,.947-2.3h0a1.08,1.08,0,0,0-1.661-.793l-4.852,2.8a2.221,2.221,0,0,0-.947,2.3h0A1.08,1.08,0,0,0,428.835,166.3Z" transform="translate(-352.782 -130.574)" fill="#d4ecff"/>
              <path id="Trazado_114282" data-name="Trazado 114282" d="M447.1,210.9l12.957-7.481a2.22,2.22,0,0,0,.948-2.3h0a1.082,1.082,0,0,0-1.662-.794l-12.957,7.481a2.221,2.221,0,0,0-.948,2.3h0A1.081,1.081,0,0,0,447.1,210.9Z" transform="translate(-397.413 -130.574)" fill="#d4ecff"/>
              <path id="Trazado_114283" data-name="Trazado 114283" d="M425.844,178.261l3.113-1.8a2.221,2.221,0,0,0,.948-2.3h0a1.081,1.081,0,0,0-1.662-.793l-3.113,1.8a2.22,2.22,0,0,0-.948,2.3h0A1.081,1.081,0,0,0,425.844,178.261Z" transform="translate(-345.061 -130.574)" fill="#d4ecff"/>
              <path id="Trazado_114284" data-name="Trazado 114284" d="M422.851,191.656l3.867-2.232a2.221,2.221,0,0,0,.948-2.3h0a1.081,1.081,0,0,0-1.662-.793l-3.867,2.232a2.22,2.22,0,0,0-.947,2.3h0A1.08,1.08,0,0,0,422.851,191.656Z" transform="translate(-339.83 -130.574)" fill="#d4ecff"/>
              <path id="Trazado_114285" data-name="Trazado 114285" d="M431.567,200.342l10.2-5.886a2.221,2.221,0,0,0,.948-2.3h0a1.08,1.08,0,0,0-1.661-.793l-10.2,5.886a2.221,2.221,0,0,0-.947,2.3h0A1.08,1.08,0,0,0,431.567,200.342Z" transform="translate(-363.59 -130.574)" fill="#d4ecff"/>
              <path id="Trazado_114286" data-name="Trazado 114286" d="M421.356,200.136l7.33-4.232a2.221,2.221,0,0,0,.948-2.3h0a1.081,1.081,0,0,0-1.662-.793l-7.33,4.232a2.221,2.221,0,0,0-.948,2.3h0A1.081,1.081,0,0,0,421.356,200.136Z" transform="translate(-340.302 -130.574)" fill="#d4ecff"/>
              <path id="Trazado_114287" data-name="Trazado 114287" d="M466.465,217.354l4.708-2.718a2.221,2.221,0,0,0,.947-2.3h0a1.08,1.08,0,0,0-1.661-.793l-4.708,2.718a2.221,2.221,0,0,0-.947,2.3h0A1.08,1.08,0,0,0,466.465,217.354Z" transform="translate(-427.898 -130.574)" fill="#d4ecff"/>
              <path id="Trazado_114288" data-name="Trazado 114288" d="M438.775,176.722l12.957-7.481a2.221,2.221,0,0,0,.948-2.3h0a1.081,1.081,0,0,0-1.662-.793l-12.957,7.481a2.22,2.22,0,0,0-.948,2.3h0A1.081,1.081,0,0,0,438.775,176.722Z" transform="translate(-380.767 -130.574)" fill="#d4ecff"/>
              <path id="Trazado_114289" data-name="Trazado 114289" d="M430.332,170.06l22.583-13.039a2.219,2.219,0,0,0,.947-2.3h0a1.08,1.08,0,0,0-1.661-.793l-22.583,13.038a2.223,2.223,0,0,0-.948,2.3h0A1.081,1.081,0,0,0,430.332,170.06Z" transform="translate(-373.505 -130.574)" fill="#d4ecff"/>
              <path id="Trazado_114290" data-name="Trazado 114290" d="M427.339,177.463l12.958-7.481a2.221,2.221,0,0,0,.947-2.3h0a1.081,1.081,0,0,0-1.661-.794l-12.958,7.481a2.222,2.222,0,0,0-.947,2.3h0A1.08,1.08,0,0,0,427.339,177.463Z" transform="translate(-357.896 -130.574)" fill="#d4ecff"/>
              <path id="Trazado_114291" data-name="Trazado 114291" d="M456.851,182.4l4.708-2.718a2.221,2.221,0,0,0,.948-2.3h0a1.081,1.081,0,0,0-1.662-.793l-4.708,2.718a2.221,2.221,0,0,0-.947,2.3h0A1.08,1.08,0,0,0,456.851,182.4Z" transform="translate(-408.671 -130.574)" fill="#d4ecff"/>
              <path id="Trazado_114292" data-name="Trazado 114292" d="M480.152,179.85l27.878-16.1a2.221,2.221,0,0,0,.948-2.3h0a1.081,1.081,0,0,0-1.662-.793l-27.878,16.1a2.22,2.22,0,0,0-.948,2.3h0A1.081,1.081,0,0,0,480.152,179.85Z" transform="translate(-478.442 -130.574)" fill="#d4ecff"/>
              <path id="Trazado_114293" data-name="Trazado 114293" d="M424.348,191.936l15.575-8.993a2.22,2.22,0,0,0,.948-2.3h0a1.081,1.081,0,0,0-1.662-.794l-15.575,8.993a2.221,2.221,0,0,0-.948,2.3h0A1.081,1.081,0,0,0,424.348,191.936Z" transform="translate(-354.531 -130.574)" fill="#d4ecff"/>
              <path id="Trazado_114294" data-name="Trazado 114294" d="M428.343,140.452l11.45-6.611a2.22,2.22,0,0,0,.948-2.3h0a1.081,1.081,0,0,0-1.662-.793l-11.45,6.611a2.221,2.221,0,0,0-.948,2.3h0A1.081,1.081,0,0,0,428.343,140.452Z" transform="translate(-358.396 -130.574)" fill="#d4ecff"/>
              <path id="Trazado_114295" data-name="Trazado 114295" d="M413.383,206.3l13.262-7.657a2.22,2.22,0,0,0,.948-2.3h0a1.082,1.082,0,0,0-1.662-.794l-13.262,7.658a2.218,2.218,0,0,0-.947,2.3h0A1.08,1.08,0,0,0,413.383,206.3Z" transform="translate(-330.289 -130.574)" fill="#d4ecff"/>
            </g>
            <g id="Grupo_78460" data-name="Grupo 78460" transform="translate(0 65.701)">
              <path id="Trazado_114296" data-name="Trazado 114296" d="M508.632,234.255l7.766-4.484a2.222,2.222,0,0,0,.947-2.3h0a1.08,1.08,0,0,0-1.661-.793l-7.766,4.484a2.22,2.22,0,0,0-.948,2.3h0A1.081,1.081,0,0,0,508.632,234.255Z" transform="translate(-495.078 -196.275)" fill="#d4ecff"/>
              <path id="Trazado_114297" data-name="Trazado 114297" d="M507.154,208.1l14.822-8.558a2.221,2.221,0,0,0,.948-2.3h0a1.08,1.08,0,0,0-1.661-.793l-14.823,8.558a2.221,2.221,0,0,0-.947,2.3h0A1.081,1.081,0,0,0,507.154,208.1Z" transform="translate(-499.18 -196.275)" fill="#d4ecff"/>
              <path id="Trazado_114298" data-name="Trazado 114298" d="M504.163,215.3l4.851-2.8a2.221,2.221,0,0,0,.948-2.3h0a1.081,1.081,0,0,0-1.662-.793l-4.851,2.8a2.221,2.221,0,0,0-.948,2.3h0A1.082,1.082,0,0,0,504.163,215.3Z" transform="translate(-483.226 -196.275)" fill="#d4ecff"/>
              <path id="Trazado_114299" data-name="Trazado 114299" d="M501.17,227.262l3.114-1.8a2.223,2.223,0,0,0,.948-2.3h0a1.081,1.081,0,0,0-1.662-.793l-3.114,1.8a2.221,2.221,0,0,0-.947,2.3h0A1.081,1.081,0,0,0,501.17,227.262Z" transform="translate(-475.504 -196.275)" fill="#d4ecff"/>
              <path id="Trazado_114300" data-name="Trazado 114300" d="M514.1,225.722l12.958-7.48a2.223,2.223,0,0,0,.947-2.3h0a1.08,1.08,0,0,0-1.661-.793l-12.958,7.48a2.223,2.223,0,0,0-.947,2.3h0A1.08,1.08,0,0,0,514.1,225.722Z" transform="translate(-511.211 -196.275)" fill="#d4ecff"/>
              <path id="Trazado_114301" data-name="Trazado 114301" d="M505.658,219.061l22.583-13.039a2.22,2.22,0,0,0,.948-2.3h0a1.081,1.081,0,0,0-1.662-.794l-22.582,13.039a2.22,2.22,0,0,0-.948,2.3h0A1.08,1.08,0,0,0,505.658,219.061Z" transform="translate(-503.949 -196.275)" fill="#d4ecff"/>
              <path id="Trazado_114302" data-name="Trazado 114302" d="M502.667,226.464l12.957-7.481a2.22,2.22,0,0,0,.948-2.3h0a1.081,1.081,0,0,0-1.662-.793l-12.957,7.481a2.221,2.221,0,0,0-.948,2.3h0A1.081,1.081,0,0,0,502.667,226.464Z" transform="translate(-488.34 -196.275)" fill="#d4ecff"/>
              <path id="Trazado_114303" data-name="Trazado 114303" d="M499.675,240.937l15.576-8.993a2.22,2.22,0,0,0,.947-2.3h0a1.08,1.08,0,0,0-1.661-.793l-15.576,8.993a2.221,2.221,0,0,0-.947,2.3h0A1.081,1.081,0,0,0,499.675,240.937Z" transform="translate(-484.974 -196.275)" fill="#d4ecff"/>
            </g>
          </g>
        </g>
        <g id="Grupo_78469" data-name="Grupo 78469" transform="translate(0 9.32)">
          <g id="Grupo_78465" data-name="Grupo 78465" transform="translate(0)">
            <path id="Trazado_114304" data-name="Trazado 114304" d="M561.636,147.634,549.4,142.766l2.753-18,5.941,5.263Z" transform="translate(-542.349 -43.233)" fill="#5793ce"/>
            <path id="Trazado_114305" data-name="Trazado 114305" d="M497.058,63.692,467.493,51.877s5.447,11.791,5.456,11.815,15.787,3.654,15.787,3.654Z" transform="translate(-395.868 -43.233)" fill="#1565c0"/>
            <path id="Trazado_114306" data-name="Trazado 114306" d="M493.149,112.682a13.012,13.012,0,0,1,4.791-1.647c-1.632-10.882,3.069-22.367,12.091-27.58a19.687,19.687,0,0,1,8.454-2.656c-3.535-13.19,1.926-28.179,13.054-34.609a20.5,20.5,0,0,1,17.637-1.7l-.005-.01.272.109c.143.055.285.111.426.17l9.264,3.644-3.7,3.178c5.01,1.579,9.342,5.63,11.63,11.618,4.219,11.043-.109,24.471-9.666,29.993l-56.811,47.888c-7.176,4.146-11.532,2.415-14.7-5.877S485.972,116.828,493.149,112.682Z" transform="translate(-484.677 -43.233)" fill="#1565c0"/>
            <path id="Trazado_114307" data-name="Trazado 114307" d="M520.748,58.338,488.88,45.606a20.362,20.362,0,0,1,16.563-1.115l-.005-.01.272.109c.143.055.285.111.426.17L515.4,48.4l-3.7,3.178A17.682,17.682,0,0,1,520.748,58.338Z" transform="translate(-440.945 -43.233)" fill="#5793ce"/>
            <path id="Trazado_114308" data-name="Trazado 114308" d="M533.14,106.111,512.1,97.718a25.359,25.359,0,0,1,11.078-14.333,20.5,20.5,0,0,1,2.125-1.069l28.988,11.577Z" transform="translate(-497.7 -43.233)" fill="#5793ce"/>
            <path id="Trazado_114309" data-name="Trazado 114309" d="M525.4,49.733l-9.031,5.217-15.673-6.24a25,25,0,0,1,3.573-2.52,22.158,22.158,0,0,1,6.127-2.429Z" transform="translate(-457.403 -43.233)" fill="#d4ecff"/>
            <path id="Trazado_114310" data-name="Trazado 114310" d="M540.068,94.216l15.147,6.03-4.469,6.278-13-5.167A29.18,29.18,0,0,1,540.068,94.216Z" transform="translate(-524.281 -43.233)" fill="#d4ecff"/>
            <path id="Trazado_114311" data-name="Trazado 114311" d="M463.622,116.663a13.031,13.031,0,0,1,4.791-1.647c-1.631-10.881,3.191-22.438,12.213-27.65a19.059,19.059,0,0,1,8.332-2.586c-3.535-13.189,1.926-28.179,13.054-34.608,11.969-6.915,25.954-1.31,31.237,12.519q.269.7.5,1.418c9.132-4.062,19.228.515,23.191,10.889,4.219,11.043-.109,24.471-9.665,29.992l-72.179,41.7c-7.177,4.146-15.562.785-18.73-7.507S456.446,120.809,463.622,116.663Z" transform="translate(-445.022 -43.233)" fill="#d4ecff"/>
            <g id="Grupo_78463" data-name="Grupo 78463" transform="translate(8.64 3.144)">
              <path id="Trazado_114312" data-name="Trazado 114312" d="M500.334,115.83a13.006,13.006,0,0,1,4.791-1.647c-1.632-10.882,3.19-22.438,12.212-27.651a19.075,19.075,0,0,1,8.333-2.585c-3.536-13.19,1.925-28.179,13.054-34.609a20.377,20.377,0,0,1,21.32.1,20.4,20.4,0,0,0-19.831.735c-11.128,6.43-16.589,21.42-13.054,34.609a19.059,19.059,0,0,0-8.332,2.586c-9.022,5.213-13.844,16.769-12.213,27.65a13.031,13.031,0,0,0-4.791,1.647c-7.176,4.146-10.426,14.23-7.258,22.522a14.882,14.882,0,0,0,5.641,7.243,14.454,14.454,0,0,1-7.131-8.076C489.908,130.059,493.157,119.976,500.334,115.83Z" transform="translate(-491.862 -46.378)" fill="#fff"/>
              <path id="Trazado_114313" data-name="Trazado 114313" d="M466.5,64.109c-.135-.415-.282-.828-.435-1.238a16.071,16.071,0,0,1,14.332,1.461A16.117,16.117,0,0,0,466.5,64.109Z" transform="translate(-386.41 -46.378)" fill="#fff"/>
            </g>
            <g id="Grupo_78464" data-name="Grupo 78464" transform="translate(14.765 7.598)">
              <path id="Trazado_114314" data-name="Trazado 114314" d="M541.922,66.269a9.485,9.485,0,0,1,3.806.77c2.866,1.251,5.343,4.152,6.8,7.959,3.706,9.7-.256,22-8.652,26.849l-72.179,41.7a7.518,7.518,0,0,1-6.44.911c-1.825-.731-3.446-2.654-4.447-5.274-2.675-7,.185-15.876,6.245-19.378a9.377,9.377,0,0,1,3.432-1.205l2.931-.395-.377-2.512c-1.505-10.035,3.129-20.627,11.018-25.185a15.2,15.2,0,0,1,6.64-2.11l3.632-.235-.817-3.047c-3.241-12.095,2-26.064,11.932-31.8,4.618-2.668,9.484-3.206,13.7-1.519s7.657,5.558,9.7,10.9c.158.414.3.831.439,1.251l1.947,5.978,5.662-2.518A12.436,12.436,0,0,1,541.922,66.269Z" transform="translate(-459.802 -50.831)" fill="#1565c0"/>
            </g>
          </g>
          <g id="Grupo_78468" data-name="Grupo 78468" transform="translate(50.855 41.429)">
            <path id="Trazado_114315" data-name="Trazado 114315" d="M509.657,112.654l-2.487-1,1.934-1.487Z" transform="translate(-498.998 -84.662)" fill="#5793ce"/>
            <path id="Trazado_114316" data-name="Trazado 114316" d="M508.342,85.713l-2.415-.979.17,1.013Z" transform="translate(-496.441 -84.662)" fill="#5793ce"/>
            <path id="Trazado_114317" data-name="Trazado 114317" d="M516.345,106.357l-2.52-1.016,3.674-3.7Z" transform="translate(-513.496 -84.662)" fill="#5793ce"/>
            <g id="Grupo_78466" data-name="Grupo 78466" transform="translate(0)">
              <path id="Trazado_114318" data-name="Trazado 114318" d="M502.1,111.589l9.632-5.561a1.56,1.56,0,0,0,.658-1.588l-2.308-10.931-11.4,6.583,2.308,10.932A.726.726,0,0,0,502.1,111.589Z" transform="translate(-493.28 -84.662)" fill="#5793ce"/>
              <path id="Trazado_114319" data-name="Trazado 114319" d="M504.486,84.746,517.5,91.309c.553.278.369,1.316-.3,1.7l-10.625,6.135-10.625,6.134c-.67.387-1.205-.236-.877-1.023l7.718-18.533C503.124,84.924,503.924,84.463,504.486,84.746Z" transform="translate(-494.974 -84.662)" fill="#5793ce"/>
            </g>
            <g id="Grupo_78467" data-name="Grupo 78467" transform="translate(2.525 1.02)">
              <path id="Trazado_114320" data-name="Trazado 114320" d="M499.578,112.609l9.633-5.561a1.562,1.562,0,0,0,.658-1.588l-2.308-10.932-11.4,6.584,2.308,10.931A.725.725,0,0,0,499.578,112.609Z" transform="translate(-490.753 -85.682)" fill="#d4ecff"/>
              <path id="Trazado_114321" data-name="Trazado 114321" d="M501.961,85.766l13.017,6.562c.552.279.368,1.317-.3,1.7l-10.625,6.134L493.426,106.3c-.671.387-1.205-.236-.878-1.023l7.718-18.534C500.6,85.944,501.4,85.482,501.961,85.766Z" transform="translate(-492.449 -85.682)" fill="#d4ecff"/>
            </g>
          </g>
        </g>
        <g id="Grupo_78470" data-name="Grupo 78470" transform="translate(171.254 256.237)">
          <path id="Trazado_114322" data-name="Trazado 114322" d="M392.293,330.543l-38.51-22.125c-3.037-1.745-8.335-1.514-11.833.515l-78.975,45.818c-3.5,2.029-3.872,5.089-.835,6.834l38.51,22.126c3.037,1.745,8.335,1.514,11.833-.516l78.974-45.817C394.956,335.348,395.33,332.288,392.293,330.543Z" transform="translate(-257.004 -290.151)" fill="#b2d3ea"/>
          <path id="Trazado_114323" data-name="Trazado 114323" d="M299.08,376.4,259.645,353.74a4.566,4.566,0,0,1-2.639-3.706h0l-.033-6.789,1.267,2.185a9.476,9.476,0,0,1,2.474-1.993l79.412-46.071c4.5-2.611,11.314-2.907,15.22-.663L394.78,319.36a7.027,7.027,0,0,1,1.1.777l1.512-1.937.032,6.382v0c.056,1.758-1.2,3.627-3.713,5.084L314.3,375.734C309.8,378.345,302.986,378.641,299.08,376.4Z" transform="translate(-256.969 -290.151)" fill="#396caa"/>
          <path id="Trazado_114324" data-name="Trazado 114324" d="M394.787,314.315l-39.435-22.657c-3.906-2.245-10.72-1.948-15.22.662L260.72,338.392c-4.5,2.61-4.98,6.546-1.074,8.79l39.435,22.657c3.906,2.244,10.72,1.948,15.219-.663l79.412-46.071C398.212,320.495,398.693,316.559,394.787,314.315Z" transform="translate(-257.004 -290.151)" fill="#d4ecff"/>
          <path id="Trazado_114325" data-name="Trazado 114325" d="M259.647,347.182l39.435,22.657c3.906,2.245,10.72,1.948,15.219-.663l79.412-46.071c2.18-1.264,3.407-2.839,3.659-4.383.314,1.887-.926,3.96-3.659,5.545L314.3,370.339c-4.5,2.61-11.313,2.907-15.219.662l-39.435-22.657c-2.014-1.157-2.852-2.764-2.584-4.407A4.774,4.774,0,0,0,259.647,347.182Z" transform="translate(-257.005 -290.151)" fill="#fff"/>
          <path id="Trazado_114326" data-name="Trazado 114326" d="M392.293,315.228,353.783,293.1c-3.037-1.745-8.335-1.514-11.833.515l-78.975,45.818c-3.5,2.029-3.872,5.089-.835,6.834l38.51,22.126c3.037,1.745,8.335,1.514,11.833-.516l78.974-45.817C394.956,320.032,395.33,316.973,392.293,315.228Z" transform="translate(-257.004 -290.151)" fill="#fff"/>
        </g>
        <g id="Grupo_78471" data-name="Grupo 78471" transform="translate(212.925 279.65)">
          <path id="Trazado_114327" data-name="Trazado 114327" d="M312.137,323.277l14.256-8.231c.528-.3.462-.838-.148-1.19h0a2.292,2.292,0,0,0-2.063-.086L309.927,322c-.529.3-.463.838.148,1.19h0A2.29,2.29,0,0,0,312.137,323.277Z" transform="translate(-280.561 -313.564)" fill="#b2d3ea"/>
          <path id="Trazado_114328" data-name="Trazado 114328" d="M307.794,320.489l5.086-2.936c.528-.305.462-.838-.148-1.191h0a2.3,2.3,0,0,0-2.063-.085l-5.085,2.936c-.529.3-.462.838.148,1.191h0A2.293,2.293,0,0,0,307.794,320.489Z" transform="translate(-262.706 -313.564)" fill="#b2d3ea"/>
          <path id="Trazado_114329" data-name="Trazado 114329" d="M316.328,325.416l5.086-2.936c.528-.305.462-.838-.149-1.19h0a2.29,2.29,0,0,0-2.062-.086l-5.085,2.936c-.529.3-.462.838.148,1.191h0A2.293,2.293,0,0,0,316.328,325.416Z" transform="translate(-279.775 -313.564)" fill="#396caa"/>
          <path id="Trazado_114330" data-name="Trazado 114330" d="M324.863,335.379l13.807-7.972c.529-.305.463-.838-.148-1.19h0a2.29,2.29,0,0,0-2.062-.086L322.652,334.1c-.528.3-.462.838.148,1.191h0A2.3,2.3,0,0,0,324.863,335.379Z" transform="translate(-305.565 -313.564)" fill="#b2d3ea"/>
          <path id="Trazado_114331" data-name="Trazado 114331" d="M303.453,330.343l17.812-10.283c.528-.3.462-.839-.149-1.191h0a2.293,2.293,0,0,0-2.062-.085l-17.812,10.283c-.528.305-.462.839.149,1.191h0A2.29,2.29,0,0,0,303.453,330.343Z" transform="translate(-266.749 -313.564)" fill="#b2d3ea"/>
          <path id="Trazado_114332" data-name="Trazado 114332" d="M299.111,347.727l43.575-25.16c.529-.306.463-.839-.148-1.191h0a2.29,2.29,0,0,0-2.062-.086L296.9,346.451c-.529.305-.462.838.148,1.19h0A2.29,2.29,0,0,0,299.111,347.727Z" transform="translate(-283.829 -313.564)" fill="#396caa"/>
          <path id="Trazado_114333" data-name="Trazado 114333" d="M330.327,340.025,355.4,325.549c.528-.305.462-.838-.148-1.191h0a2.3,2.3,0,0,0-2.063-.085l-25.073,14.476c-.529.3-.462.838.148,1.191h0A2.293,2.293,0,0,0,330.327,340.025Z" transform="translate(-327.76 -313.564)" fill="#b2d3ea"/>
        </g>
        <path id="Trazado_114334" data-name="Trazado 114334" d="M318.809,363.663l3.667-2.116a1.581,1.581,0,0,0,.661-1.262h0c0-.486-.3-.71-.661-.5l-3.667,2.115a1.579,1.579,0,0,0-.66,1.262h0C318.149,363.649,318.444,363.873,318.809,363.663Z" transform="translate(-72.603 -33.914)" fill="#d4ecff"/>
        <path id="Trazado_114335" data-name="Trazado 114335" d="M324.58,367l3.666-2.115a1.583,1.583,0,0,0,.661-1.263h0c0-.486-.3-.71-.661-.5l-3.666,2.115a1.581,1.581,0,0,0-.661,1.262h0C323.919,366.991,324.215,367.214,324.58,367Z" transform="translate(-84.143 -33.914)" fill="#d4ecff"/>
      </g>
    </g>
  </g>
</svg>
