<svg xmlns="http://www.w3.org/2000/svg" width="451" height="277" viewBox="0 0 451 277">
  <g id="Grupo_79435" data-name="Grupo 79435" transform="translate(2047 1531)">
    <path id="Trazado_134288" data-name="Trazado 134288" d="M22,0H429a22,22,0,0,1,22,22V255a22,22,0,0,1-22,22H22A22,22,0,0,1,0,255V22A22,22,0,0,1,22,0Z" transform="translate(-2047 -1531)" fill="#1565c0"/>
    <g id="Grupo_79423" data-name="Grupo 79423" transform="translate(-2026 -1503.103)">
      <g id="Grupo_78422" data-name="Grupo 78422" transform="translate(0)">
        <g id="Grupo_78413" data-name="Grupo 78413">
          <path id="Trazado_114084" data-name="Trazado 114084" d="M318.214,215.1l42.666-24.328c1.56-.9,1.365-2.475-.437-3.515l-24.549-14.173a6.766,6.766,0,0,0-6.088-.253L287.14,197.157c-1.56.9-1.365,2.474.437,3.515l24.549,14.173A6.766,6.766,0,0,0,318.214,215.1Z" transform="translate(-283.327 -60.859)" fill="#b2d3ea" opacity="0.289"/>
          <path id="Trazado_114085" data-name="Trazado 114085" d="M282.676,165.234h0V65.626l39.6-10.364,7.294-4.211a7.259,7.259,0,0,1,6.531.271l6.8,3.929,21.121-.012L357.771,151.4a1.893,1.893,0,0,1-1.122,1.75l-39.517,29.817a7.259,7.259,0,0,1-6.531-.271l-26.336-15.2A2.588,2.588,0,0,1,282.676,165.234Z" transform="translate(-282.667 -37.125)" fill="#396caa"/>
          <path id="Trazado_114086" data-name="Trazado 114086" d="M301.634,50.4a7.538,7.538,0,0,1,3.5.918l6.8,3.929,21.121-.012v99.875a1.89,1.89,0,0,1-1.121,1.75l-45.771,26.1a5.9,5.9,0,0,1-3.031.647l-.472-100.5Z" transform="translate(-251.703 -37.127)" fill="#d4ecff"/>
          <path id="Trazado_114087" data-name="Trazado 114087" d="M346.652,190.8a7.445,7.445,0,0,1-5.221-.06V89.551h5.221Z" transform="translate(-312.607 -44.753)" fill="#5793ce"/>
          <path id="Trazado_114088" data-name="Trazado 114088" d="M317.125,79.911l45.771-26.1c1.674-.966,1.464-2.655-.469-3.771l-26.335-15.2a7.259,7.259,0,0,0-6.531-.271l-45.771,26.1c-1.674.966-1.464,2.655.469,3.771l26.336,15.2A7.26,7.26,0,0,0,317.125,79.911Z" transform="translate(-282.66 -33.914)" fill="#d4ecff"/>
          <path id="Trazado_114089" data-name="Trazado 114089" d="M284.255,66.771l26.336,15.2a7.259,7.259,0,0,0,6.531.271l45.771-26.1a2.536,2.536,0,0,0,.835-.741A1.754,1.754,0,0,1,362.893,58L317.121,84.1a7.259,7.259,0,0,1-6.531-.271l-26.336-15.2c-1.5-.867-1.958-2.079-1.3-3.03A3.645,3.645,0,0,0,284.255,66.771Z" transform="translate(-282.656 -38.101)" fill="#fafdff"/>
          <g id="Grupo_78412" data-name="Grupo 78412" transform="translate(17.042 8.444)">
            <path id="Trazado_114090" data-name="Trazado 114090" d="M320.142,71.377l30.473-17.665c.783-.452.685-1.242-.219-1.764l-12.324-7.115a3.4,3.4,0,0,0-3.056-.126L304.543,62.371c-.783.452-.685,1.242.22,1.764l12.323,7.115A3.4,3.4,0,0,0,320.142,71.377Z" transform="translate(-304.014 -44.401)" fill="#173d7a"/>
            <g id="Grupo_78411" data-name="Grupo 78411" transform="translate(12.651 7.797)">
              <path id="Trazado_114091" data-name="Trazado 114091" d="M322.032,56.393l1.766-1.02c.109-.062.1-.172-.031-.244l-1.7-.984a.468.468,0,0,0-.423-.018l-1.766,1.019c-.109.063-.095.172.03.244l1.705.985A.471.471,0,0,0,322.032,56.393Z" transform="translate(-302.103 -54.084)" fill="#d4ecff"/>
              <path id="Trazado_114092" data-name="Trazado 114092" d="M329.359,60.606l1.766-1.02c.109-.062.095-.172-.03-.244l-1.705-.984a.468.468,0,0,0-.423-.018L327.2,59.359c-.109.063-.095.172.031.244l1.7.985A.471.471,0,0,0,329.359,60.606Z" transform="translate(-315.329 -54.905)" fill="#d4ecff"/>
              <path id="Trazado_114093" data-name="Trazado 114093" d="M336.686,64.819l1.766-1.02c.108-.062.094-.172-.031-.244l-1.705-.985a.471.471,0,0,0-.423-.017l-1.766,1.019c-.108.063-.1.172.031.244l1.7.985A.475.475,0,0,0,336.686,64.819Z" transform="translate(-328.555 -55.726)" fill="#d4ecff"/>
              <path id="Trazado_114094" data-name="Trazado 114094" d="M344.012,69.031l1.766-1.019c.109-.063.1-.172-.031-.244l-1.7-.985a.472.472,0,0,0-.424-.017l-1.766,1.019c-.108.062-.094.172.031.244l1.705.985A.471.471,0,0,0,344.012,69.031Z" transform="translate(-341.781 -56.547)" fill="#d4ecff"/>
            </g>
            <path id="Trazado_114095" data-name="Trazado 114095" d="M350.611,53.712l-.035.021a2.164,2.164,0,0,0-.184-.126l-12.324-7.115a3.4,3.4,0,0,0-3.056-.126L304.575,64.009c-.722-.517-.76-1.22-.036-1.638l30.474-17.665a3.4,3.4,0,0,1,3.056.126l12.324,7.115C351.3,52.47,351.394,53.26,350.611,53.712Z" transform="translate(-304.01 -44.401)" fill="#5793ce"/>
          </g>
        </g>
        <g id="Grupo_78415" data-name="Grupo 78415" transform="translate(3.701 44.696)">
          <path id="Trazado_114096" data-name="Trazado 114096" d="M372.306,110.46l-17.327-9.92a4.227,4.227,0,0,1-1.765-3.373v-6.2c0-1.3.79-1.9,1.765-1.334l17.327,9.92a4.228,4.228,0,0,1,1.765,3.374v6.2C374.07,110.426,373.281,111.023,372.306,110.46Z" transform="translate(-353.214 -89.425)" fill="#173d7a"/>
          <path id="Trazado_114097" data-name="Trazado 114097" d="M354.671,89.456a1.731,1.731,0,0,0-.443,1.289v6.2a4.228,4.228,0,0,0,1.765,3.373l17.327,9.921a1.273,1.273,0,0,0,.858.187,1.052,1.052,0,0,1-1.322.045l-17.327-9.92a4.227,4.227,0,0,1-1.765-3.373v-6.2C353.764,90.095,354.133,89.548,354.671,89.456Z" transform="translate(-353.764 -89.431)" fill="#fff"/>
          <g id="Grupo_78414" data-name="Grupo 78414" transform="translate(6.592 7.549)">
            <path id="Trazado_114098" data-name="Trazado 114098" d="M363.374,106.3l-1.589-.918a.921.921,0,0,1-.385-.735v-1.7c0-.283.172-.414.385-.291l1.589.918a.921.921,0,0,1,.385.735v1.7C363.759,106.291,363.587,106.421,363.374,106.3Z" transform="translate(-356.086 -99.543)" fill="#396caa"/>
            <path id="Trazado_114099" data-name="Trazado 114099" d="M369.975,102.488l-1.589-.917a.923.923,0,0,1-.384-.736v-1.7c0-.283.172-.414.384-.291l1.589.917a.923.923,0,0,1,.385.735v1.7C370.359,102.481,370.187,102.611,369.975,102.488Z" transform="translate(-368.001 -98.8)" fill="#fff"/>
          </g>
        </g>
        <g id="Grupo_78417" data-name="Grupo 78417" transform="translate(3.701 89.47)">
          <path id="Trazado_114100" data-name="Trazado 114100" d="M372.306,166.067l-17.327-9.92a4.229,4.229,0,0,1-1.765-3.374v-6.2c0-1.3.79-1.9,1.765-1.334l17.327,9.92a4.227,4.227,0,0,1,1.765,3.373v6.2C374.07,166.033,373.281,166.63,372.306,166.067Z" transform="translate(-353.214 -145.032)" fill="#173d7a"/>
          <path id="Trazado_114101" data-name="Trazado 114101" d="M354.671,145.063a1.731,1.731,0,0,0-.443,1.289v6.2a4.23,4.23,0,0,0,1.765,3.373l17.327,9.921a1.277,1.277,0,0,0,.858.187,1.054,1.054,0,0,1-1.322.045l-17.327-9.92a4.228,4.228,0,0,1-1.765-3.374v-6.2C353.764,145.7,354.133,145.154,354.671,145.063Z" transform="translate(-353.764 -145.038)" fill="#fff"/>
          <g id="Grupo_78416" data-name="Grupo 78416" transform="translate(6.592 7.549)">
            <path id="Trazado_114102" data-name="Trazado 114102" d="M363.374,161.906l-1.589-.918a.921.921,0,0,1-.385-.735v-1.7c0-.284.172-.414.385-.291l1.589.918a.921.921,0,0,1,.385.735v1.7C363.759,161.9,363.587,162.028,363.374,161.906Z" transform="translate(-356.086 -155.15)" fill="#396caa"/>
            <path id="Trazado_114103" data-name="Trazado 114103" d="M369.975,158.095l-1.589-.918a.92.92,0,0,1-.384-.735v-1.7c0-.283.172-.414.384-.291l1.589.917a.921.921,0,0,1,.385.735v1.7C370.359,158.088,370.187,158.217,369.975,158.095Z" transform="translate(-368.001 -154.407)" fill="#fff"/>
          </g>
        </g>
        <g id="Grupo_78419" data-name="Grupo 78419" transform="translate(3.701 111.856)">
          <path id="Trazado_114104" data-name="Trazado 114104" d="M372.306,193.87l-17.327-9.92a4.227,4.227,0,0,1-1.765-3.373v-6.2c0-1.3.79-1.9,1.765-1.335l17.327,9.92a4.229,4.229,0,0,1,1.765,3.374v6.2C374.07,193.836,373.281,194.433,372.306,193.87Z" transform="translate(-353.214 -172.835)" fill="#173d7a"/>
          <path id="Trazado_114105" data-name="Trazado 114105" d="M354.671,172.866a1.732,1.732,0,0,0-.443,1.289v6.2a4.228,4.228,0,0,0,1.765,3.373l17.327,9.921a1.273,1.273,0,0,0,.858.187,1.052,1.052,0,0,1-1.322.045l-17.327-9.92a4.227,4.227,0,0,1-1.765-3.373v-6.2C353.764,173.5,354.133,172.958,354.671,172.866Z" transform="translate(-353.764 -172.841)" fill="#fff"/>
          <g id="Grupo_78418" data-name="Grupo 78418" transform="translate(6.592 7.549)">
            <path id="Trazado_114106" data-name="Trazado 114106" d="M363.374,189.709l-1.589-.918a.921.921,0,0,1-.385-.735v-1.7c0-.283.172-.414.385-.291l1.589.917a.922.922,0,0,1,.385.735v1.7C363.759,189.7,363.587,189.831,363.374,189.709Z" transform="translate(-356.086 -182.953)" fill="#396caa"/>
            <path id="Trazado_114107" data-name="Trazado 114107" d="M369.975,185.9l-1.589-.917a.921.921,0,0,1-.384-.735v-1.7c0-.283.172-.414.384-.291l1.589.917a.923.923,0,0,1,.385.736v1.7C370.359,185.891,370.187,186.021,369.975,185.9Z" transform="translate(-368.001 -182.21)" fill="#fff"/>
          </g>
        </g>
        <g id="Grupo_78421" data-name="Grupo 78421" transform="translate(3.701 67.083)">
          <path id="Trazado_114108" data-name="Trazado 114108" d="M372.306,138.264l-17.327-9.921a4.226,4.226,0,0,1-1.765-3.373v-6.2c0-1.3.79-1.9,1.765-1.335l17.327,9.921a4.226,4.226,0,0,1,1.765,3.373v6.2C374.07,138.229,373.281,138.827,372.306,138.264Z" transform="translate(-353.214 -117.228)" fill="#173d7a"/>
          <path id="Trazado_114109" data-name="Trazado 114109" d="M354.671,117.259a1.731,1.731,0,0,0-.443,1.289v6.2a4.23,4.23,0,0,0,1.765,3.373l17.327,9.92a1.268,1.268,0,0,0,.858.187,1.053,1.053,0,0,1-1.322.046l-17.327-9.921a4.227,4.227,0,0,1-1.765-3.373v-6.2C353.764,117.9,354.133,117.351,354.671,117.259Z" transform="translate(-353.764 -117.234)" fill="#fff"/>
          <g id="Grupo_78420" data-name="Grupo 78420" transform="translate(6.592 7.549)">
            <path id="Trazado_114110" data-name="Trazado 114110" d="M363.374,134.1l-1.589-.917a.923.923,0,0,1-.385-.736v-1.7c0-.283.172-.414.385-.291l1.589.917a.923.923,0,0,1,.385.735v1.7C363.759,134.095,363.587,134.225,363.374,134.1Z" transform="translate(-356.086 -127.346)" fill="#396caa"/>
            <path id="Trazado_114111" data-name="Trazado 114111" d="M369.975,130.292l-1.589-.918a.92.92,0,0,1-.384-.735v-1.7c0-.283.172-.413.384-.291l1.589.918a.921.921,0,0,1,.385.735V130C370.359,130.284,370.187,130.414,369.975,130.292Z" transform="translate(-368.001 -126.604)" fill="#fff"/>
          </g>
        </g>
      </g>
      <g id="Grupo_78423" data-name="Grupo 78423" transform="translate(36.179 24.174)">
        <path id="Trazado_114112" data-name="Trazado 114112" d="M286.731,99.152,326.7,76.074a3.876,3.876,0,0,0,1.62-3.1V65.357c0-1.193-.725-1.742-1.62-1.225L286.731,87.21a3.881,3.881,0,0,0-1.619,3.1v7.622C285.112,99.12,285.837,99.669,286.731,99.152Z" transform="translate(-285.112 -63.937)" fill="#5793ce"/>
        <path id="Trazado_114113" data-name="Trazado 114113" d="M288.35,97.15,326.028,75.4a1.969,1.969,0,0,0,.822-1.57V68.1c0-.605-.368-.883-.822-.622L288.35,89.228a1.968,1.968,0,0,0-.822,1.57v5.73C287.528,97.134,287.9,97.412,288.35,97.15Z" transform="translate(-285.583 -64.607)" fill="#d4ecff" opacity="0.4"/>
        <path id="Trazado_114114" data-name="Trazado 114114" d="M291.124,78.045l5.623-3.246a1.912,1.912,0,0,0,.8-1.525h0c0-.587-.358-.858-.8-.6l-5.623,3.246a1.912,1.912,0,0,0-.8,1.525h0C290.326,78.03,290.684,78.3,291.124,78.045Z" transform="translate(-258.531 -65.62)" fill="#d4ecff"/>
        <ellipse id="Elipse_4814" data-name="Elipse 4814" cx="0.752" cy="1.303" rx="0.752" ry="1.303" transform="matrix(-0.866, -0.5, 0.5, -0.866, 28.723, 15.101)" fill="#173d7a"/>
        <path id="Trazado_114115" data-name="Trazado 114115" d="M306,83.4c0,.588.413.826.922.532a2.038,2.038,0,0,0,.922-1.6c0-.588-.413-.826-.922-.532A2.038,2.038,0,0,0,306,83.4Z" transform="translate(-281.45 -67.393)" fill="#173d7a"/>
        <path id="Trazado_114116" data-name="Trazado 114116" d="M310.038,85.729c0,.588.413.826.922.532a2.038,2.038,0,0,0,.922-1.6c0-.588-.413-.826-.922-.532A2.037,2.037,0,0,0,310.038,85.729Z" transform="translate(-288.739 -67.847)" fill="#d4ecff"/>
        <path id="Trazado_114117" data-name="Trazado 114117" d="M314.076,88.06c0,.588.412.826.921.532a2.037,2.037,0,0,0,.922-1.6c0-.588-.413-.826-.922-.532A2.036,2.036,0,0,0,314.076,88.06Z" transform="translate(-296.028 -68.302)" fill="#173d7a"/>
        <path id="Trazado_114118" data-name="Trazado 114118" d="M330.9,99.3l1.894-1.094a1.226,1.226,0,0,0,.512-.978v-2c0-.377-.229-.55-.512-.387L330.9,95.926a1.226,1.226,0,0,0-.512.979v2C330.387,99.286,330.616,99.459,330.9,99.3Z" transform="translate(-326.547 -69.944)" fill="#173d7a"/>
      </g>
      <g id="Grupo_78424" data-name="Grupo 78424" transform="translate(36.179 37.615)">
        <path id="Trazado_114119" data-name="Trazado 114119" d="M286.731,115.845,326.7,92.767a3.879,3.879,0,0,0,1.62-3.1V82.05c0-1.193-.725-1.742-1.62-1.225L286.731,103.9a3.881,3.881,0,0,0-1.619,3.1v7.622C285.112,115.814,285.837,116.362,286.731,115.845Z" transform="translate(-285.112 -80.63)" fill="#5793ce"/>
        <path id="Trazado_114120" data-name="Trazado 114120" d="M288.35,113.843l37.678-21.754a1.969,1.969,0,0,0,.822-1.57v-5.73c0-.605-.368-.883-.822-.622L288.35,105.921a1.969,1.969,0,0,0-.822,1.57v5.73C287.528,113.827,287.9,114.1,288.35,113.843Z" transform="translate(-285.583 -81.3)" fill="#d4ecff" opacity="0.4"/>
        <path id="Trazado_114121" data-name="Trazado 114121" d="M291.124,94.739l5.623-3.246a1.912,1.912,0,0,0,.8-1.525h0c0-.588-.358-.858-.8-.6l-5.623,3.246a1.912,1.912,0,0,0-.8,1.525h0C290.326,94.723,290.684,94.994,291.124,94.739Z" transform="translate(-258.531 -82.313)" fill="#d4ecff"/>
        <path id="Trazado_114122" data-name="Trazado 114122" d="M301.963,97.76c0,.588.413.826.922.532a2.038,2.038,0,0,0,.921-1.6c0-.588-.412-.826-.921-.532A2.038,2.038,0,0,0,301.963,97.76Z" transform="translate(-274.162 -83.632)" fill="#fff"/>
        <path id="Trazado_114123" data-name="Trazado 114123" d="M306,100.091c0,.588.413.826.922.532a2.038,2.038,0,0,0,.922-1.6c0-.587-.413-.825-.922-.531A2.037,2.037,0,0,0,306,100.091Z" transform="translate(-281.45 -84.086)" fill="#173d7a"/>
        <path id="Trazado_114124" data-name="Trazado 114124" d="M310.038,102.422c0,.588.413.826.922.532a2.037,2.037,0,0,0,.922-1.6c0-.588-.413-.826-.922-.532A2.037,2.037,0,0,0,310.038,102.422Z" transform="translate(-288.739 -84.54)" fill="#d4ecff"/>
        <ellipse id="Elipse_4815" data-name="Elipse 4815" cx="0.752" cy="1.303" rx="0.752" ry="1.303" transform="matrix(-0.866, -0.5, 0.5, -0.866, 18.969, 20.732)" fill="#173d7a"/>
        <path id="Trazado_114125" data-name="Trazado 114125" d="M330.9,115.989l1.894-1.093a1.228,1.228,0,0,0,.512-.979v-2c0-.377-.229-.55-.512-.386L330.9,112.62a1.224,1.224,0,0,0-.512.978v2C330.387,115.979,330.616,116.153,330.9,115.989Z" transform="translate(-326.547 -86.637)" fill="#173d7a"/>
      </g>
      <g id="Grupo_78425" data-name="Grupo 78425" transform="translate(36.179 51.056)">
        <path id="Trazado_114126" data-name="Trazado 114126" d="M286.731,132.538,326.7,109.46a3.879,3.879,0,0,0,1.62-3.1V98.743c0-1.192-.725-1.741-1.62-1.225L286.731,120.6a3.878,3.878,0,0,0-1.619,3.1v7.622C285.112,132.507,285.837,133.055,286.731,132.538Z" transform="translate(-285.112 -97.324)" fill="#5793ce"/>
        <path id="Trazado_114127" data-name="Trazado 114127" d="M288.35,130.536l37.678-21.754a1.968,1.968,0,0,0,.822-1.57v-5.73c0-.605-.368-.883-.822-.622L288.35,122.614a1.969,1.969,0,0,0-.822,1.571v5.73C287.528,130.52,287.9,130.8,288.35,130.536Z" transform="translate(-285.583 -97.994)" fill="#d4ecff" opacity="0.4"/>
        <path id="Trazado_114128" data-name="Trazado 114128" d="M291.124,111.432l5.623-3.246a1.912,1.912,0,0,0,.8-1.525h0c0-.588-.358-.858-.8-.6l-5.623,3.246a1.912,1.912,0,0,0-.8,1.525h0C290.326,111.416,290.684,111.687,291.124,111.432Z" transform="translate(-258.531 -99.007)" fill="#d4ecff"/>
        <path id="Trazado_114129" data-name="Trazado 114129" d="M301.963,114.453c0,.588.413.826.922.532a2.038,2.038,0,0,0,.921-1.6c0-.588-.412-.825-.921-.532A2.04,2.04,0,0,0,301.963,114.453Z" transform="translate(-274.162 -100.326)" fill="#fff"/>
        <path id="Trazado_114130" data-name="Trazado 114130" d="M306,116.784c0,.588.413.826.922.532a2.037,2.037,0,0,0,.922-1.6c0-.588-.413-.826-.922-.532A2.037,2.037,0,0,0,306,116.784Z" transform="translate(-281.45 -100.78)" fill="#173d7a"/>
        <path id="Trazado_114131" data-name="Trazado 114131" d="M310.038,119.115c0,.588.413.826.922.532a2.037,2.037,0,0,0,.922-1.6c0-.588-.413-.826-.922-.532A2.038,2.038,0,0,0,310.038,119.115Z" transform="translate(-288.739 -101.234)" fill="#d4ecff"/>
        <path id="Trazado_114132" data-name="Trazado 114132" d="M314.076,121.447c0,.588.412.826.921.532a2.038,2.038,0,0,0,.922-1.6c0-.588-.413-.826-.922-.532A2.038,2.038,0,0,0,314.076,121.447Z" transform="translate(-296.028 -101.688)" fill="#173d7a"/>
        <path id="Trazado_114133" data-name="Trazado 114133" d="M330.9,132.682l1.894-1.093a1.228,1.228,0,0,0,.512-.979v-2c0-.378-.229-.551-.512-.387l-1.894,1.093a1.225,1.225,0,0,0-.512.978v2C330.387,132.672,330.616,132.846,330.9,132.682Z" transform="translate(-326.547 -103.331)" fill="#173d7a"/>
      </g>
      <g id="Grupo_78426" data-name="Grupo 78426" transform="translate(36.179 64.497)">
        <path id="Trazado_114134" data-name="Trazado 114134" d="M286.731,149.232,326.7,126.153a3.879,3.879,0,0,0,1.62-3.1v-7.623c0-1.192-.725-1.741-1.62-1.225L286.731,137.29a3.879,3.879,0,0,0-1.619,3.1v7.622C285.112,149.2,285.837,149.748,286.731,149.232Z" transform="translate(-285.112 -114.017)" fill="#5793ce"/>
        <path id="Trazado_114135" data-name="Trazado 114135" d="M288.35,147.229l37.678-21.754a1.966,1.966,0,0,0,.822-1.57v-5.73c0-.6-.368-.883-.822-.621L288.35,139.308a1.966,1.966,0,0,0-.822,1.57v5.73C287.528,147.213,287.9,147.491,288.35,147.229Z" transform="translate(-285.583 -114.687)" fill="#d4ecff" opacity="0.4"/>
        <path id="Trazado_114136" data-name="Trazado 114136" d="M291.124,128.125l5.623-3.246a1.912,1.912,0,0,0,.8-1.525h0c0-.588-.358-.858-.8-.6L291.124,126a1.912,1.912,0,0,0-.8,1.525h0C290.326,128.11,290.684,128.38,291.124,128.125Z" transform="translate(-258.531 -115.7)" fill="#d4ecff"/>
        <path id="Trazado_114137" data-name="Trazado 114137" d="M301.963,131.146c0,.588.413.826.922.532a2.037,2.037,0,0,0,.921-1.6c0-.588-.412-.826-.921-.532A2.037,2.037,0,0,0,301.963,131.146Z" transform="translate(-274.162 -117.019)" fill="#173d7a"/>
        <ellipse id="Elipse_4816" data-name="Elipse 4816" cx="0.752" cy="1.303" rx="0.752" ry="1.303" transform="matrix(-0.866, -0.5, 0.5, -0.866, 25.472, 16.978)" fill="#173d7a"/>
        <path id="Trazado_114138" data-name="Trazado 114138" d="M310.038,135.809c0,.588.413.826.922.532a2.04,2.04,0,0,0,.922-1.6c0-.588-.413-.826-.922-.532A2.038,2.038,0,0,0,310.038,135.809Z" transform="translate(-288.739 -117.927)" fill="#d4ecff"/>
        <path id="Trazado_114139" data-name="Trazado 114139" d="M314.076,138.14c0,.588.412.826.921.532a2.038,2.038,0,0,0,.922-1.6c0-.588-.413-.825-.922-.531A2.036,2.036,0,0,0,314.076,138.14Z" transform="translate(-296.028 -118.381)" fill="#173d7a"/>
        <path id="Trazado_114140" data-name="Trazado 114140" d="M330.9,149.375l1.894-1.093a1.227,1.227,0,0,0,.512-.978v-2c0-.378-.229-.551-.512-.387l-1.894,1.093a1.225,1.225,0,0,0-.512.978v2C330.387,149.366,330.616,149.539,330.9,149.375Z" transform="translate(-326.547 -120.024)" fill="#d4ecff"/>
      </g>
      <g id="Grupo_78427" data-name="Grupo 78427" transform="translate(36.179 77.939)">
        <path id="Trazado_114141" data-name="Trazado 114141" d="M286.731,165.925,326.7,142.847a3.876,3.876,0,0,0,1.62-3.1v-7.623c0-1.192-.725-1.741-1.62-1.224l-39.973,23.078a3.88,3.88,0,0,0-1.619,3.1V164.7C285.112,165.893,285.837,166.441,286.731,165.925Z" transform="translate(-285.112 -130.71)" fill="#5793ce"/>
        <path id="Trazado_114142" data-name="Trazado 114142" d="M288.35,163.923l37.678-21.754a1.969,1.969,0,0,0,.822-1.571v-5.73c0-.6-.368-.883-.822-.621L288.35,156a1.966,1.966,0,0,0-.822,1.57v5.73C287.528,163.906,287.9,164.184,288.35,163.923Z" transform="translate(-285.583 -131.38)" fill="#d4ecff" opacity="0.4"/>
        <path id="Trazado_114143" data-name="Trazado 114143" d="M291.124,144.818l5.623-3.246a1.912,1.912,0,0,0,.8-1.525h0c0-.588-.358-.857-.8-.6l-5.623,3.246a1.912,1.912,0,0,0-.8,1.525h0C290.326,144.8,290.684,145.073,291.124,144.818Z" transform="translate(-258.531 -132.393)" fill="#d4ecff"/>
        <path id="Trazado_114144" data-name="Trazado 114144" d="M301.963,147.839c0,.588.413.826.922.532a2.036,2.036,0,0,0,.921-1.6c0-.588-.412-.826-.921-.532A2.037,2.037,0,0,0,301.963,147.839Z" transform="translate(-274.162 -133.712)" fill="#173d7a"/>
        <path id="Trazado_114145" data-name="Trazado 114145" d="M306,150.171c0,.588.413.825.922.531a2.037,2.037,0,0,0,.922-1.6c0-.588-.413-.826-.922-.532A2.038,2.038,0,0,0,306,150.171Z" transform="translate(-281.45 -134.166)" fill="#fff"/>
        <path id="Trazado_114146" data-name="Trazado 114146" d="M310.038,152.5c0,.588.413.826.922.532a2.038,2.038,0,0,0,.922-1.6c0-.588-.413-.825-.922-.532A2.038,2.038,0,0,0,310.038,152.5Z" transform="translate(-288.739 -134.62)" fill="#d4ecff"/>
        <path id="Trazado_114147" data-name="Trazado 114147" d="M314.076,154.833c0,.588.412.826.921.532a2.038,2.038,0,0,0,.922-1.6c0-.588-.413-.826-.922-.532A2.036,2.036,0,0,0,314.076,154.833Z" transform="translate(-296.028 -135.075)" fill="#fff"/>
        <path id="Trazado_114148" data-name="Trazado 114148" d="M330.9,166.068l1.894-1.093A1.227,1.227,0,0,0,333.3,164v-2c0-.378-.229-.551-.512-.387L330.9,162.7a1.226,1.226,0,0,0-.512.979v2C330.387,166.059,330.616,166.232,330.9,166.068Z" transform="translate(-326.547 -136.717)" fill="#d4ecff"/>
      </g>
      <g id="Grupo_78428" data-name="Grupo 78428" transform="translate(36.179 91.379)">
        <path id="Trazado_114149" data-name="Trazado 114149" d="M286.731,182.618,326.7,159.54a3.876,3.876,0,0,0,1.62-3.1v-7.622c0-1.193-.725-1.742-1.62-1.225l-39.973,23.078a3.88,3.88,0,0,0-1.619,3.1v7.623C285.112,182.586,285.837,183.134,286.731,182.618Z" transform="translate(-285.112 -147.403)" fill="#5793ce"/>
        <path id="Trazado_114150" data-name="Trazado 114150" d="M288.35,180.616l37.678-21.754a1.969,1.969,0,0,0,.822-1.571v-5.73c0-.605-.368-.883-.822-.622L288.35,172.694a1.967,1.967,0,0,0-.822,1.57v5.73C287.528,180.6,287.9,180.878,288.35,180.616Z" transform="translate(-285.583 -148.073)" fill="#d4ecff" opacity="0.4"/>
        <path id="Trazado_114151" data-name="Trazado 114151" d="M291.124,161.511l5.623-3.247a1.912,1.912,0,0,0,.8-1.525h0c0-.587-.358-.858-.8-.6l-5.623,3.246a1.912,1.912,0,0,0-.8,1.525h0C290.326,161.5,290.684,161.766,291.124,161.511Z" transform="translate(-258.531 -149.086)" fill="#d4ecff"/>
        <ellipse id="Elipse_4817" data-name="Elipse 4817" cx="0.752" cy="1.303" rx="0.752" ry="1.303" transform="matrix(-0.866, -0.5, 0.5, -0.866, 28.723, 15.101)" fill="#173d7a"/>
        <path id="Trazado_114152" data-name="Trazado 114152" d="M306,166.864c0,.588.413.826.922.532a2.038,2.038,0,0,0,.922-1.6c0-.588-.413-.826-.922-.532A2.038,2.038,0,0,0,306,166.864Z" transform="translate(-281.45 -150.859)" fill="#173d7a"/>
        <path id="Trazado_114153" data-name="Trazado 114153" d="M310.038,169.2c0,.588.413.826.922.532a2.038,2.038,0,0,0,.922-1.6c0-.588-.413-.825-.922-.531A2.037,2.037,0,0,0,310.038,169.2Z" transform="translate(-288.739 -151.313)" fill="#d4ecff"/>
        <path id="Trazado_114154" data-name="Trazado 114154" d="M314.076,171.526c0,.588.412.826.921.532a2.037,2.037,0,0,0,.922-1.6c0-.588-.413-.826-.922-.532A2.036,2.036,0,0,0,314.076,171.526Z" transform="translate(-296.028 -151.768)" fill="#173d7a"/>
        <path id="Trazado_114155" data-name="Trazado 114155" d="M330.9,182.761l1.894-1.093a1.226,1.226,0,0,0,.512-.978v-2c0-.377-.229-.551-.512-.387l-1.894,1.093a1.226,1.226,0,0,0-.512.979v2C330.387,182.752,330.616,182.925,330.9,182.761Z" transform="translate(-326.547 -153.41)" fill="#173d7a"/>
      </g>
      <g id="Grupo_78429" data-name="Grupo 78429" transform="translate(36.179 104.82)">
        <path id="Trazado_114156" data-name="Trazado 114156" d="M286.731,199.311,326.7,176.233a3.876,3.876,0,0,0,1.62-3.1v-7.622c0-1.193-.725-1.742-1.62-1.225l-39.973,23.078a3.881,3.881,0,0,0-1.619,3.1v7.622C285.112,199.28,285.837,199.828,286.731,199.311Z" transform="translate(-285.112 -164.096)" fill="#5793ce"/>
        <path id="Trazado_114157" data-name="Trazado 114157" d="M288.35,197.309l37.678-21.754a1.969,1.969,0,0,0,.822-1.57v-5.73c0-.605-.368-.883-.822-.622L288.35,189.387a1.968,1.968,0,0,0-.822,1.57v5.73C287.528,197.293,287.9,197.571,288.35,197.309Z" transform="translate(-285.583 -164.766)" fill="#d4ecff" opacity="0.4"/>
        <path id="Trazado_114158" data-name="Trazado 114158" d="M291.124,178.2l5.623-3.246a1.911,1.911,0,0,0,.8-1.524h0c0-.588-.358-.858-.8-.6l-5.623,3.246a1.912,1.912,0,0,0-.8,1.525h0C290.326,178.189,290.684,178.46,291.124,178.2Z" transform="translate(-258.531 -165.779)" fill="#d4ecff"/>
        <path id="Trazado_114159" data-name="Trazado 114159" d="M301.2,181.759c0,1.11.779,1.56,1.741,1a3.846,3.846,0,0,0,1.741-3.015c0-1.11-.779-1.56-1.741-1A3.846,3.846,0,0,0,301.2,181.759Z" transform="translate(-274.43 -166.904)" fill="#fff"/>
        <path id="Trazado_114160" data-name="Trazado 114160" d="M311.6,187.023c0,.588.412.826.921.532a2.038,2.038,0,0,0,.922-1.6c0-.588-.413-.826-.922-.532A2.036,2.036,0,0,0,311.6,187.023Z" transform="translate(-291.562 -168.228)" fill="#173d7a"/>
        <path id="Trazado_114161" data-name="Trazado 114161" d="M315.64,189.354c0,.588.412.826.921.532a2.037,2.037,0,0,0,.922-1.6c0-.588-.413-.826-.922-.532A2.036,2.036,0,0,0,315.64,189.354Z" transform="translate(-298.851 -168.682)" fill="#d4ecff"/>
        <path id="Trazado_114162" data-name="Trazado 114162" d="M319.678,191.686c0,.588.412.825.921.532a2.038,2.038,0,0,0,.922-1.6c0-.588-.412-.826-.922-.532A2.038,2.038,0,0,0,319.678,191.686Z" transform="translate(-306.141 -169.136)" fill="#173d7a"/>
        <path id="Trazado_114163" data-name="Trazado 114163" d="M330.9,199.455l1.894-1.093a1.228,1.228,0,0,0,.512-.979v-2c0-.377-.229-.55-.512-.387l-1.894,1.093a1.226,1.226,0,0,0-.512.979v2C330.387,199.445,330.616,199.619,330.9,199.455Z" transform="translate(-326.547 -170.103)" fill="#d4ecff"/>
      </g>
    </g>
    <g id="Grupo_79424" data-name="Grupo 79424" transform="translate(-1765.272 -1492.92)">
      <g id="Grupo_78458" data-name="Grupo 78458" transform="translate(0)">
        <path id="Trazado_114188" data-name="Trazado 114188" d="M369.708,304.284l75.871-43.8c2.146-1.239,1.877-3.4-.6-4.834l-51.662-29.817c-2.478-1.431-6.228-1.586-8.374-.348l-75.871,43.8c-2.146,1.239-1.877,3.4.6,4.835l51.662,29.817C363.813,305.368,367.562,305.524,369.708,304.284Z" transform="translate(-288.376 -147.414)" fill="#b2d3ea" opacity="0.29"/>
        <path id="Trazado_114189" data-name="Trazado 114189" d="M408.954,150.695l75.871-43.8a3.065,3.065,0,0,1,2.571-.315l0-.008.138.052.033.012,2.742,1.049-2.461,1.2c.011.046.025.088.035.134l12.358,56.254c.618,2.815-.62,6.1-2.767,7.341l-74.046,42.751.264,3.138-3-1.161a4.211,4.211,0,0,1-2.146-3.053l-12.358-56.253C405.57,155.22,406.808,151.934,408.954,150.695Z" transform="translate(-406.029 -106.422)" fill="#173d7a"/>
        <path id="Trazado_114190" data-name="Trazado 114190" d="M415.119,150.695l75.871-43.8a3.065,3.065,0,0,1,2.571-.315l0-.008.138.052.033.012,2.742,1.049-2.461,1.2c.011.046.025.088.035.134l8.145,37.075-37.123,28.922-52.344-21.3A5.9,5.9,0,0,1,415.119,150.695Z" transform="translate(-412.193 -106.422)" fill="#396caa"/>
        <path id="Trazado_114191" data-name="Trazado 114191" d="M538.676,183.056,532.9,180.6a7.235,7.235,0,0,1,2.34-5.783l9.142,3.846Z" transform="translate(-532.89 -130.136)" fill="#274f89"/>
        <path id="Trazado_114192" data-name="Trazado 114192" d="M416.319,218.766l75.871-43.8c2.147-1.239,3.385-4.526,2.767-7.341L482.6,111.368c-.619-2.816-2.86-4.093-5.007-2.854l-75.871,43.8c-2.146,1.239-3.385,4.526-2.766,7.341l12.358,56.254C411.932,218.728,414.173,220.006,416.319,218.766Z" transform="translate(-396.023 -106.983)" fill="#d4ecff"/>
        <path id="Trazado_114193" data-name="Trazado 114193" d="M419.607,216.772,490.962,175.6c1.964-1.134,3.1-4.142,2.531-6.717L482.185,117.4c-.566-2.576-2.617-3.745-4.581-2.611l-71.355,41.176c-1.964,1.134-3.1,4.142-2.531,6.718l11.309,51.476C415.592,216.737,417.643,217.906,419.607,216.772Z" transform="translate(-397.667 -109.173)" fill="#fff"/>
        <path id="Trazado_114194" data-name="Trazado 114194" d="M419.607,216.772,490.962,175.6c1.964-1.134,3.1-4.142,2.531-6.717L482.185,117.4c-.566-2.576-2.617-3.745-4.581-2.611l-71.355,41.176c-1.964,1.134-3.1,4.142-2.531,6.718l11.309,51.476C415.592,216.737,417.643,217.906,419.607,216.772Z" transform="translate(-397.667 -109.173)" fill="#fff"/>
        <path id="Trazado_114195" data-name="Trazado 114195" d="M307.629,258.771,318,257.4l66.947-38.652c2.147-1.239,5.9-1.084,8.374.347l47.438,27.379,6.271-.828v3.558h-.006a2.442,2.442,0,0,1-1.44,2.2l-75.871,43.8c-2.147,1.239-5.9,1.084-8.374-.347l-51.662-29.817c-1.395-.805-2.089-1.842-2.049-2.816h0Z" transform="translate(-288.38 -145.08)" fill="#173d7a"/>
        <path id="Trazado_114196" data-name="Trazado 114196" d="M307.627,241.614l4.756-2.746h52.293l25.78,14.873,6.271-.828v3.558h-.006a2.442,2.442,0,0,1-1.44,2.2l-75.871,43.8a7.853,7.853,0,0,1-4.321.81Z" transform="translate(-238.077 -152.346)" fill="#396caa"/>
        <path id="Trazado_114197" data-name="Trazado 114197" d="M307.627,260.736l2.783-.367v3.558H310.4a2.442,2.442,0,0,1-1.44,2.2l-1.337.772Z" transform="translate(-151.76 -159.801)" fill="#5793ce"/>
        <path id="Trazado_114198" data-name="Trazado 114198" d="M434.267,332.332a9.718,9.718,0,0,1-7.115-.442v-7.936h7.115Z" transform="translate(-353.698 -181.849)" fill="#274f89"/>
        <path id="Trazado_114199" data-name="Trazado 114199" d="M369.708,288.524l75.871-43.8c2.146-1.239,1.877-3.4-.6-4.835l-51.662-29.817c-2.478-1.431-6.228-1.586-8.374-.347l-75.871,43.8c-2.146,1.239-1.877,3.4.6,4.834l51.662,29.817C363.813,289.607,367.562,289.763,369.708,288.524Z" transform="translate(-288.376 -141.95)" fill="#d4ecff"/>
        <path id="Trazado_114200" data-name="Trazado 114200" d="M309.675,274.616l51.662,29.817c2.478,1.431,6.227,1.586,8.374.347l75.871-43.8a2.824,2.824,0,0,0,1.334-1.46,2.3,2.3,0,0,1-1.334,2.759l-75.871,43.8c-2.147,1.239-5.9,1.084-8.374-.348l-51.662-29.817c-1.666-.962-2.329-2.254-1.936-3.375A4.033,4.033,0,0,0,309.675,274.616Z" transform="translate(-288.378 -159.506)" fill="#fff"/>
        <g id="Grupo_78457" data-name="Grupo 78457" transform="translate(26.991 69.632)">
          <path id="Trazado_114201" data-name="Trazado 114201" d="M359.088,238.838l3.433-1.982c.276-.159.241-.437-.077-.621l-4.052-2.339a1.2,1.2,0,0,0-1.075-.044l-3.433,1.982c-.276.159-.241.437.077.621l4.052,2.34A1.2,1.2,0,0,0,359.088,238.838Z" transform="translate(-261.144 -220.202)" fill="#173d7a"/>
          <path id="Trazado_114202" data-name="Trazado 114202" d="M367.2,243.523l3.433-1.982c.276-.159.241-.437-.077-.621l-4.052-2.339a1.2,1.2,0,0,0-1.075-.045L362,240.518c-.276.159-.241.438.077.621l4.052,2.339A1.2,1.2,0,0,0,367.2,243.523Z" transform="translate(-274.56 -221.826)" fill="#173d7a"/>
          <path id="Trazado_114203" data-name="Trazado 114203" d="M375.318,248.209l3.433-1.983c.276-.159.241-.437-.078-.621l-4.052-2.339a1.2,1.2,0,0,0-1.075-.044l-3.433,1.982c-.276.159-.241.437.077.621l4.052,2.339A1.2,1.2,0,0,0,375.318,248.209Z" transform="translate(-287.977 -223.451)" fill="#173d7a"/>
          <path id="Trazado_114204" data-name="Trazado 114204" d="M385.891,244.538l3.433-1.982c.276-.159.241-.437-.077-.621l-3.4-1.964a1.193,1.193,0,0,0-1.075-.044l-3.433,1.981c-.276.159-.241.438.077.621l3.4,1.964A1.2,1.2,0,0,0,385.891,244.538Z" transform="translate(-305.882 -222.309)" fill="#173d7a"/>
          <path id="Trazado_114205" data-name="Trazado 114205" d="M394.007,249.224l3.433-1.982c.275-.159.241-.438-.078-.621l-3.4-1.964a1.2,1.2,0,0,0-1.076-.044l-3.432,1.982c-.276.159-.242.437.077.621l3.4,1.964A1.2,1.2,0,0,0,394.007,249.224Z" transform="translate(-319.299 -223.933)" fill="#173d7a"/>
          <path id="Trazado_114206" data-name="Trazado 114206" d="M402.122,253.909l3.433-1.982c.276-.159.241-.437-.077-.621l-3.4-1.964A1.2,1.2,0,0,0,401,249.3l-3.433,1.982c-.276.159-.241.437.077.621l3.4,1.964A1.2,1.2,0,0,0,402.122,253.909Z" transform="translate(-332.716 -225.558)" fill="#173d7a"/>
          <path id="Trazado_114207" data-name="Trazado 114207" d="M410.237,258.594l3.433-1.982c.276-.159.241-.437-.077-.621l-3.4-1.964a1.2,1.2,0,0,0-1.075-.045l-3.433,1.982c-.276.159-.241.438.077.621l3.4,1.964A1.2,1.2,0,0,0,410.237,258.594Z" transform="translate(-346.132 -227.182)" fill="#173d7a"/>
          <path id="Trazado_114208" data-name="Trazado 114208" d="M418.352,263.28l3.433-1.981c.276-.159.241-.437-.077-.621l-3.4-1.964a1.2,1.2,0,0,0-1.075-.044l-3.433,1.982c-.276.159-.241.437.077.621l3.4,1.964A1.193,1.193,0,0,0,418.352,263.28Z" transform="translate(-359.548 -228.807)" fill="#173d7a"/>
          <path id="Trazado_114209" data-name="Trazado 114209" d="M426.467,267.965l3.433-1.982c.276-.159.241-.437-.078-.621l-3.4-1.964a1.2,1.2,0,0,0-1.076-.044l-3.432,1.982c-.276.159-.241.437.077.621l3.4,1.964A1.2,1.2,0,0,0,426.467,267.965Z" transform="translate(-372.965 -230.431)" fill="#173d7a"/>
          <path id="Trazado_114210" data-name="Trazado 114210" d="M434.583,272.65l3.433-1.982c.276-.159.241-.437-.077-.621l-3.4-1.964a1.2,1.2,0,0,0-1.075-.045l-3.433,1.982c-.276.159-.241.438.077.621l3.4,1.964A1.2,1.2,0,0,0,434.583,272.65Z" transform="translate(-386.382 -232.056)" fill="#173d7a"/>
          <path id="Trazado_114211" data-name="Trazado 114211" d="M442.7,277.336l3.433-1.982c.276-.159.241-.437-.077-.621l-3.4-1.964a1.2,1.2,0,0,0-1.075-.044l-3.433,1.982c-.276.159-.241.437.077.621l3.4,1.964A1.2,1.2,0,0,0,442.7,277.336Z" transform="translate(-399.799 -233.681)" fill="#173d7a"/>
          <path id="Trazado_114212" data-name="Trazado 114212" d="M450.813,282.021l3.433-1.982c.276-.159.241-.437-.077-.621l-3.4-1.964a1.2,1.2,0,0,0-1.075-.044l-3.433,1.982c-.276.159-.241.437.077.621l3.4,1.964A1.2,1.2,0,0,0,450.813,282.021Z" transform="translate(-413.215 -235.305)" fill="#173d7a"/>
          <path id="Trazado_114213" data-name="Trazado 114213" d="M458.928,286.706l3.433-1.982c.276-.159.241-.437-.078-.621l-3.4-1.964a1.193,1.193,0,0,0-1.075-.044l-3.433,1.981c-.276.159-.241.437.077.621l3.4,1.964A1.2,1.2,0,0,0,458.928,286.706Z" transform="translate(-426.631 -236.93)" fill="#173d7a"/>
          <path id="Trazado_114214" data-name="Trazado 114214" d="M397.849,242.32l3.433-1.982c.275-.159.241-.437-.078-.621l-3.4-1.964a1.2,1.2,0,0,0-1.076-.045l-3.433,1.982c-.275.159-.241.437.078.621l3.4,1.964A1.2,1.2,0,0,0,397.849,242.32Z" transform="translate(-325.651 -221.539)" fill="#396caa"/>
          <path id="Trazado_114215" data-name="Trazado 114215" d="M389.612,237.565l3.433-1.982c.276-.159.241-.437-.077-.621l-3.4-1.964a1.2,1.2,0,0,0-1.075-.044l-3.433,1.982c-.276.159-.241.437.077.621l3.4,1.964A1.2,1.2,0,0,0,389.612,237.565Z" transform="translate(-312.034 -219.891)" fill="#396caa"/>
          <path id="Trazado_114216" data-name="Trazado 114216" d="M375.3,231.589l7.394-4.269c.276-.159.241-.437-.078-.621l-3.4-1.964a1.2,1.2,0,0,0-1.076-.045l-7.393,4.269c-.276.159-.241.437.077.621l3.4,1.964A1.2,1.2,0,0,0,375.3,231.589Z" transform="translate(-292.331 -217.025)" fill="#173d7a"/>
          <path id="Trazado_114217" data-name="Trazado 114217" d="M383.2,226.223l6-3.464c.276-.159.241-.437-.077-.621l-3.4-1.964a1.2,1.2,0,0,0-1.075-.044l-6,3.464c-.276.159-.241.437.077.621l3.4,1.964A1.2,1.2,0,0,0,383.2,226.223Z" transform="translate(-303.999 -215.444)" fill="#173d7a"/>
          <path id="Trazado_114218" data-name="Trazado 114218" d="M405.964,247.006l3.433-1.982c.276-.159.241-.437-.077-.621l-3.4-1.964a1.193,1.193,0,0,0-1.075-.044l-3.433,1.981c-.276.159-.241.438.077.621l3.4,1.964A1.2,1.2,0,0,0,405.964,247.006Z" transform="translate(-339.068 -223.164)" fill="#396caa"/>
          <path id="Trazado_114219" data-name="Trazado 114219" d="M414.079,251.691l3.433-1.982c.276-.159.241-.437-.077-.621l-3.4-1.964a1.2,1.2,0,0,0-1.075-.044l-3.433,1.982c-.276.159-.241.437.077.621l3.4,1.964A1.2,1.2,0,0,0,414.079,251.691Z" transform="translate(-352.484 -224.789)" fill="#173d7a"/>
          <path id="Trazado_114220" data-name="Trazado 114220" d="M422.194,256.376l3.433-1.982c.276-.159.241-.437-.077-.621l-3.4-1.964a1.2,1.2,0,0,0-1.075-.044l-3.433,1.982c-.276.159-.241.437.077.621l3.4,1.964A1.2,1.2,0,0,0,422.194,256.376Z" transform="translate(-365.9 -226.413)" fill="#173d7a"/>
          <path id="Trazado_114221" data-name="Trazado 114221" d="M430.31,261.061l3.433-1.982c.275-.159.241-.437-.078-.621l-3.4-1.964a1.194,1.194,0,0,0-1.076-.044l-3.433,1.981c-.275.159-.241.438.078.621l3.4,1.964A1.2,1.2,0,0,0,430.31,261.061Z" transform="translate(-379.317 -228.038)" fill="#173d7a"/>
          <path id="Trazado_114222" data-name="Trazado 114222" d="M438.425,265.747l3.433-1.982c.276-.159.241-.437-.077-.621l-3.4-1.964a1.2,1.2,0,0,0-1.075-.044l-3.433,1.982c-.276.159-.241.437.077.621l3.4,1.964A1.2,1.2,0,0,0,438.425,265.747Z" transform="translate(-392.734 -229.662)" fill="#173d7a"/>
          <path id="Trazado_114223" data-name="Trazado 114223" d="M446.54,270.432l3.433-1.982c.276-.159.241-.437-.077-.621l-3.4-1.964a1.2,1.2,0,0,0-1.075-.045l-3.433,1.982c-.276.159-.241.437.077.621l3.4,1.964A1.2,1.2,0,0,0,446.54,270.432Z" transform="translate(-406.15 -231.287)" fill="#173d7a"/>
          <path id="Trazado_114224" data-name="Trazado 114224" d="M454.655,275.118l3.433-1.982c.276-.159.241-.437-.077-.621l-3.4-1.964a1.2,1.2,0,0,0-1.075-.044l-3.433,1.982c-.276.159-.241.437.077.621l3.4,1.964A1.2,1.2,0,0,0,454.655,275.118Z" transform="translate(-419.567 -232.912)" fill="#173d7a"/>
          <path id="Trazado_114225" data-name="Trazado 114225" d="M462.771,279.8l3.433-1.982c.275-.159.241-.437-.078-.621l-3.4-1.964a1.2,1.2,0,0,0-1.076-.044l-3.433,1.982c-.275.159-.241.437.078.621l3.4,1.964A1.2,1.2,0,0,0,462.771,279.8Z" transform="translate(-432.984 -234.536)" fill="#173d7a"/>
          <path id="Trazado_114226" data-name="Trazado 114226" d="M470.886,284.488l3.433-1.982c.276-.159.241-.437-.077-.621l-3.4-1.964a1.2,1.2,0,0,0-1.075-.045l-3.433,1.982c-.276.159-.241.437.077.621l3.4,1.964A1.2,1.2,0,0,0,470.886,284.488Z" transform="translate(-446.401 -236.161)" fill="#173d7a"/>
          <path id="Trazado_114227" data-name="Trazado 114227" d="M479.1,291.575l7.49-4.325c.276-.159.241-.437-.077-.621l-3.4-1.964a1.2,1.2,0,0,0-1.075-.044l-7.49,4.325c-.276.159-.241.437.077.621l3.4,1.964A1.2,1.2,0,0,0,479.1,291.575Z" transform="translate(-464.041 -237.806)" fill="#173d7a"/>
          <path id="Trazado_114228" data-name="Trazado 114228" d="M496.69,282.811l6.322-3.65c.275-.159.241-.437-.078-.621l-3.4-1.964a1.2,1.2,0,0,0-1.076-.044l-6.322,3.65c-.276.159-.241.437.077.621l3.4,1.964A1.2,1.2,0,0,0,496.69,282.811Z" transform="translate(-491.95 -235.001)" fill="#173d7a"/>
          <path id="Trazado_114229" data-name="Trazado 114229" d="M420.175,246.089l3.433-1.982c.276-.159.241-.438-.077-.621l-3.4-1.964a1.2,1.2,0,0,0-1.075-.044l-3.433,1.982c-.276.159-.241.437.077.621l3.4,1.964A1.2,1.2,0,0,0,420.175,246.089Z" transform="translate(-362.562 -222.846)" fill="#173d7a"/>
          <path id="Trazado_114230" data-name="Trazado 114230" d="M411.858,241.287l3.433-1.982c.276-.159.241-.437-.077-.621l-3.4-1.964a1.2,1.2,0,0,0-1.075-.044l-3.433,1.982c-.276.159-.241.437.077.621l3.4,1.964A1.2,1.2,0,0,0,411.858,241.287Z" transform="translate(-348.812 -221.181)" fill="#173d7a"/>
          <path id="Trazado_114231" data-name="Trazado 114231" d="M403.541,236.485l3.433-1.982c.276-.159.241-.437-.077-.621l-3.4-1.964a1.2,1.2,0,0,0-1.075-.044l-3.433,1.982c-.276.159-.241.437.077.621l3.4,1.964A1.2,1.2,0,0,0,403.541,236.485Z" transform="translate(-335.062 -219.516)" fill="#396caa"/>
          <path id="Trazado_114232" data-name="Trazado 114232" d="M395.224,231.683l3.433-1.982c.276-.159.241-.437-.077-.621l-3.4-1.964a1.2,1.2,0,0,0-1.075-.044l-3.433,1.982c-.276.159-.241.437.077.621l3.4,1.964A1.2,1.2,0,0,0,395.224,231.683Z" transform="translate(-321.312 -217.851)" fill="#173d7a"/>
          <path id="Trazado_114233" data-name="Trazado 114233" d="M428.292,250.774l3.432-1.982c.276-.159.241-.437-.077-.621l-3.4-1.964a1.2,1.2,0,0,0-1.075-.044l-3.433,1.982c-.276.159-.241.437.078.621l3.4,1.964A1.2,1.2,0,0,0,428.292,250.774Z" transform="translate(-375.98 -224.471)" fill="#173d7a"/>
          <path id="Trazado_114234" data-name="Trazado 114234" d="M436.406,255.46l3.433-1.982c.276-.159.241-.437-.077-.621l-3.4-1.964a1.2,1.2,0,0,0-1.075-.044l-3.433,1.982c-.276.159-.241.437.077.621l3.4,1.964A1.2,1.2,0,0,0,436.406,255.46Z" transform="translate(-389.396 -226.095)" fill="#173d7a"/>
          <path id="Trazado_114235" data-name="Trazado 114235" d="M444.521,260.145l3.433-1.982c.276-.159.241-.437-.077-.621l-3.4-1.964a1.2,1.2,0,0,0-1.075-.044l-3.433,1.982c-.276.159-.241.437.077.621l3.4,1.964A1.2,1.2,0,0,0,444.521,260.145Z" transform="translate(-402.813 -227.72)" fill="#173d7a"/>
          <path id="Trazado_114236" data-name="Trazado 114236" d="M452.636,264.83l3.433-1.982c.276-.159.241-.437-.077-.621l-3.4-1.964a1.2,1.2,0,0,0-1.075-.044l-3.433,1.982c-.276.159-.241.437.077.621l3.4,1.964A1.2,1.2,0,0,0,452.636,264.83Z" transform="translate(-416.229 -229.345)" fill="#173d7a"/>
          <path id="Trazado_114237" data-name="Trazado 114237" d="M460.752,269.515l3.433-1.982c.275-.159.241-.437-.078-.621l-3.4-1.964a1.2,1.2,0,0,0-1.076-.045l-3.433,1.983c-.275.159-.241.437.078.621l3.4,1.964A1.2,1.2,0,0,0,460.752,269.515Z" transform="translate(-429.646 -230.969)" fill="#173d7a"/>
          <path id="Trazado_114238" data-name="Trazado 114238" d="M468.867,274.2l3.433-1.982c.276-.159.241-.437-.077-.621l-3.4-1.964a1.2,1.2,0,0,0-1.075-.044l-3.433,1.982c-.276.159-.241.437.077.621l3.4,1.964A1.2,1.2,0,0,0,468.867,274.2Z" transform="translate(-443.063 -232.594)" fill="#173d7a"/>
          <path id="Trazado_114239" data-name="Trazado 114239" d="M476.982,278.886l3.433-1.982c.276-.159.241-.437-.077-.621l-3.4-1.964a1.2,1.2,0,0,0-1.075-.044l-3.433,1.982c-.276.159-.241.437.077.621l3.4,1.964A1.2,1.2,0,0,0,476.982,278.886Z" transform="translate(-456.479 -234.218)" fill="#173d7a"/>
          <path id="Trazado_114240" data-name="Trazado 114240" d="M485.1,283.572l3.433-1.982c.276-.159.241-.437-.077-.621l-3.4-1.964a1.2,1.2,0,0,0-1.075-.045l-3.433,1.982c-.276.159-.241.438.077.621l3.4,1.964A1.2,1.2,0,0,0,485.1,283.572Z" transform="translate(-469.895 -235.843)" fill="#173d7a"/>
          <path id="Trazado_114241" data-name="Trazado 114241" d="M493.213,288.257l3.433-1.982c.275-.159.241-.437-.078-.621l-3.4-1.964a1.2,1.2,0,0,0-1.076-.044l-3.433,1.982c-.275.159-.241.437.078.621l3.4,1.964A1.2,1.2,0,0,0,493.213,288.257Z" transform="translate(-483.312 -237.467)" fill="#173d7a"/>
          <path id="Trazado_114242" data-name="Trazado 114242" d="M415.9,234.5l3.433-1.982c.276-.159.241-.437-.077-.621l-3.4-1.964a1.2,1.2,0,0,0-1.075-.044l-3.433,1.982c-.276.159-.241.437.077.621l3.4,1.964A1.2,1.2,0,0,0,415.9,234.5Z" transform="translate(-355.498 -218.828)" fill="#173d7a"/>
          <path id="Trazado_114243" data-name="Trazado 114243" d="M407.827,229.838l3.433-1.982c.276-.159.241-.437-.077-.621l-3.4-1.964a1.2,1.2,0,0,0-1.075-.044l-3.433,1.982c-.276.159-.241.437.077.621l3.4,1.964A1.2,1.2,0,0,0,407.827,229.838Z" transform="translate(-342.148 -217.211)" fill="#173d7a"/>
          <path id="Trazado_114244" data-name="Trazado 114244" d="M399.752,225.176l3.433-1.982c.276-.159.241-.437-.078-.621l-3.4-1.964a1.2,1.2,0,0,0-1.075-.044l-3.433,1.982c-.276.159-.241.437.077.621l3.4,1.964A1.2,1.2,0,0,0,399.752,225.176Z" transform="translate(-328.798 -215.595)" fill="#173d7a"/>
          <path id="Trazado_114245" data-name="Trazado 114245" d="M391.678,220.514l3.433-1.982c.275-.159.241-.437-.078-.621l-3.4-1.964a1.2,1.2,0,0,0-1.076-.044l-3.433,1.982c-.275.159-.241.437.078.621l3.4,1.964A1.2,1.2,0,0,0,391.678,220.514Z" transform="translate(-315.449 -213.978)" fill="#173d7a"/>
          <path id="Trazado_114246" data-name="Trazado 114246" d="M397.7,216.418l3.433-1.982c.276-.159.241-.437-.077-.621l-1.124-.649a1.2,1.2,0,0,0-1.075-.044l-3.433,1.982c-.276.159-.241.437.077.621l1.124.649A1.2,1.2,0,0,0,397.7,216.418Z" transform="translate(-326.899 -213.014)" fill="#173d7a"/>
          <path id="Trazado_114247" data-name="Trazado 114247" d="M408.242,222.5l3.433-1.982c.276-.159.241-.438-.077-.621l-1.124-.649a1.2,1.2,0,0,0-1.075-.045l-3.433,1.982c-.276.159-.241.437.077.621l1.124.649A1.2,1.2,0,0,0,408.242,222.5Z" transform="translate(-344.321 -215.123)" fill="#173d7a"/>
          <path id="Trazado_114248" data-name="Trazado 114248" d="M416.283,227.144l3.433-1.982c.276-.159.241-.437-.077-.621l-1.124-.649a1.2,1.2,0,0,0-1.075-.044l-3.433,1.982c-.276.159-.241.437.077.621l1.124.649A1.2,1.2,0,0,0,416.283,227.144Z" transform="translate(-357.615 -216.733)" fill="#173d7a"/>
          <path id="Trazado_114249" data-name="Trazado 114249" d="M424.324,231.787l3.433-1.982c.276-.159.241-.437-.077-.621l-1.124-.649a1.2,1.2,0,0,0-1.076-.045l-3.433,1.982c-.275.159-.241.438.078.621l1.124.649A1.2,1.2,0,0,0,424.324,231.787Z" transform="translate(-370.909 -218.343)" fill="#173d7a"/>
          <path id="Trazado_114250" data-name="Trazado 114250" d="M432.366,236.429l3.433-1.982c.276-.159.241-.437-.077-.621l-1.125-.649a1.2,1.2,0,0,0-1.075-.044l-3.433,1.982c-.276.159-.241.437.077.621l1.125.649A1.2,1.2,0,0,0,432.366,236.429Z" transform="translate(-384.203 -219.953)" fill="#173d7a"/>
          <path id="Trazado_114251" data-name="Trazado 114251" d="M477.258,262.348l3.433-1.982c.276-.159.241-.437-.077-.621l-1.125-.649a1.2,1.2,0,0,0-1.075-.044l-3.433,1.982c-.276.159-.241.437.077.621l1.125.649A1.2,1.2,0,0,0,477.258,262.348Z" transform="translate(-458.423 -228.94)" fill="#173d7a"/>
          <path id="Trazado_114252" data-name="Trazado 114252" d="M485.3,266.991l3.433-1.982c.276-.159.241-.437-.078-.621l-1.124-.649a1.2,1.2,0,0,0-1.075-.044l-3.433,1.981c-.276.159-.241.438.077.621l1.125.649A1.2,1.2,0,0,0,485.3,266.991Z" transform="translate(-471.717 -230.55)" fill="#173d7a"/>
          <path id="Trazado_114253" data-name="Trazado 114253" d="M493.341,271.634l3.433-1.982c.276-.159.241-.438-.077-.621l-1.124-.649a1.2,1.2,0,0,0-1.075-.044l-3.433,1.982c-.276.159-.241.437.077.621l1.124.649A1.2,1.2,0,0,0,493.341,271.634Z" transform="translate(-485.012 -232.159)" fill="#173d7a"/>
          <path id="Trazado_114254" data-name="Trazado 114254" d="M501.382,276.276l3.433-1.982c.276-.159.241-.437-.077-.621l-1.124-.649a1.2,1.2,0,0,0-1.075-.044l-3.433,1.982c-.276.159-.241.437.077.621l1.124.649A1.2,1.2,0,0,0,501.382,276.276Z" transform="translate(-498.306 -233.769)" fill="#173d7a"/>
          <path id="Trazado_114255" data-name="Trazado 114255" d="M424.017,239.185l3.433-1.982c.276-.159.241-.437-.078-.621l-3.4-1.964a1.2,1.2,0,0,0-1.075-.045l-3.433,1.982c-.276.159-.241.437.077.621l3.4,1.964A1.2,1.2,0,0,0,424.017,239.185Z" transform="translate(-368.914 -220.452)" fill="#173d7a"/>
          <path id="Trazado_114256" data-name="Trazado 114256" d="M432.133,243.871l3.433-1.982c.276-.159.241-.437-.077-.621l-3.4-1.964a1.2,1.2,0,0,0-1.075-.044l-3.433,1.982c-.276.159-.241.437.078.621l3.4,1.964A1.2,1.2,0,0,0,432.133,243.871Z" transform="translate(-382.332 -222.077)" fill="#173d7a"/>
          <path id="Trazado_114257" data-name="Trazado 114257" d="M440.248,248.556l3.433-1.982c.276-.159.241-.437-.077-.621l-3.4-1.964a1.2,1.2,0,0,0-1.075-.044l-3.433,1.982c-.276.159-.241.437.077.621l3.4,1.964A1.2,1.2,0,0,0,440.248,248.556Z" transform="translate(-395.748 -223.702)" fill="#173d7a"/>
          <path id="Trazado_114258" data-name="Trazado 114258" d="M448.363,253.241l3.433-1.982c.276-.159.241-.437-.077-.621l-3.4-1.964a1.2,1.2,0,0,0-1.075-.044l-3.433,1.982c-.276.159-.241.437.077.621l3.4,1.964A1.2,1.2,0,0,0,448.363,253.241Z" transform="translate(-409.164 -225.326)" fill="#173d7a"/>
          <path id="Trazado_114259" data-name="Trazado 114259" d="M456.478,257.927l3.433-1.982c.276-.159.241-.437-.077-.621l-3.4-1.964a1.2,1.2,0,0,0-1.075-.044l-3.433,1.982c-.276.159-.241.437.077.621l3.4,1.964A1.2,1.2,0,0,0,456.478,257.927Z" transform="translate(-422.581 -226.951)" fill="#173d7a"/>
          <path id="Trazado_114260" data-name="Trazado 114260" d="M464.594,262.612l3.433-1.982c.276-.159.241-.437-.077-.621l-3.4-1.964a1.2,1.2,0,0,0-1.075-.044l-3.433,1.982c-.276.159-.241.437.078.621l3.4,1.964A1.2,1.2,0,0,0,464.594,262.612Z" transform="translate(-435.998 -228.575)" fill="#173d7a"/>
          <path id="Trazado_114261" data-name="Trazado 114261" d="M472.709,267.3l3.433-1.982c.276-.159.241-.437-.077-.621l-3.4-1.964a1.2,1.2,0,0,0-1.075-.045l-3.433,1.982c-.276.159-.241.437.077.621l3.4,1.964A1.2,1.2,0,0,0,472.709,267.3Z" transform="translate(-449.415 -230.2)" fill="#173d7a"/>
          <path id="Trazado_114262" data-name="Trazado 114262" d="M480.824,271.983,484.257,270c.276-.159.241-.437-.077-.621l-3.4-1.964a1.2,1.2,0,0,0-1.075-.044l-3.433,1.982c-.276.159-.241.437.077.621l3.4,1.964A1.2,1.2,0,0,0,480.824,271.983Z" transform="translate(-462.831 -231.825)" fill="#173d7a"/>
          <path id="Trazado_114263" data-name="Trazado 114263" d="M488.939,276.668l3.433-1.982c.276-.159.241-.437-.077-.621l-3.4-1.964a1.2,1.2,0,0,0-1.075-.044l-3.433,1.982c-.276.159-.241.437.077.621l3.4,1.964A1.2,1.2,0,0,0,488.939,276.668Z" transform="translate(-476.247 -233.449)" fill="#173d7a"/>
          <path id="Trazado_114264" data-name="Trazado 114264" d="M367.4,237.718l10.11-5.838c.276-.159.241-.437-.077-.621l-3.4-1.964a1.2,1.2,0,0,0-1.075-.045l-10.11,5.838c-.276.159-.241.437.077.621l3.4,1.964A1.2,1.2,0,0,0,367.4,237.718Z" transform="translate(-281.988 -218.607)" fill="#173d7a"/>
          <path id="Trazado_114265" data-name="Trazado 114265" d="M467.1,295.278l10.11-5.837c.275-.159.241-.437-.078-.621l-3.4-1.964a1.2,1.2,0,0,0-1.076-.044l-10.11,5.837c-.276.159-.241.437.077.621l3.4,1.964A1.2,1.2,0,0,0,467.1,295.278Z" transform="translate(-446.815 -238.565)" fill="#173d7a"/>
          <path id="Trazado_114266" data-name="Trazado 114266" d="M445.516,288.737l3.433-1.982c.276-.159.241-.437-.077-.621l-4.052-2.339a1.2,1.2,0,0,0-1.075-.045l-3.433,1.982c-.276.159-.241.437.077.621l4.052,2.339A1.194,1.194,0,0,0,445.516,288.737Z" transform="translate(-404.032 -237.504)" fill="#173d7a"/>
          <path id="Trazado_114267" data-name="Trazado 114267" d="M383.434,254.082l5.49-3.17c.276-.159.241-.437-.077-.621l-4.051-2.339a1.2,1.2,0,0,0-1.076-.044l-5.49,3.17c-.276.159-.241.437.077.621l4.052,2.339A1.2,1.2,0,0,0,383.434,254.082Z" transform="translate(-303.451 -225.076)" fill="#173d7a"/>
          <path id="Trazado_114268" data-name="Trazado 114268" d="M434.548,283.593l5.49-3.17c.276-.159.241-.438-.077-.621l-4.051-2.339a1.2,1.2,0,0,0-1.076-.044l-5.49,3.17c-.276.159-.241.437.078.621l4.051,2.339A1.2,1.2,0,0,0,434.548,283.593Z" transform="translate(-387.956 -235.308)" fill="#173d7a"/>
          <path id="Trazado_114269" data-name="Trazado 114269" d="M395.142,260.842l5.49-3.17c.276-.159.241-.437-.077-.621l-4.052-2.339a1.2,1.2,0,0,0-1.075-.044l-5.49,3.17c-.276.159-.241.437.077.621l4.052,2.339A1.2,1.2,0,0,0,395.142,260.842Z" transform="translate(-322.808 -227.419)" fill="#173d7a"/>
          <path id="Trazado_114270" data-name="Trazado 114270" d="M414.184,254.757l-23.869,13.781a.327.327,0,0,0,0,.619l4.132,2.385a1.185,1.185,0,0,0,1.073,0l23.869-13.781Z" transform="translate(-341.602 -227.488)" fill="#173d7a"/>
          <path id="Trazado_114271" data-name="Trazado 114271" d="M468.1,299.889l-3.824,2.208c-.226.13-.2.358.063.509l1.657.956a.978.978,0,0,0,.881.037l3.824-2.207c.226-.131.2-.358-.063-.509l-1.657-.957A.981.981,0,0,0,468.1,299.889Z" transform="translate(-441.438 -243.107)" fill="#173d7a"/>
          <path id="Trazado_114272" data-name="Trazado 114272" d="M459.923,295.165l-3.824,2.207c-.225.131-.2.359.063.509l1.658.957a.977.977,0,0,0,.881.037l3.823-2.207c.226-.131.2-.359-.063-.509L460.8,295.2A.978.978,0,0,0,459.923,295.165Z" transform="translate(-427.91 -241.468)" fill="#173d7a"/>
          <path id="Trazado_114273" data-name="Trazado 114273" d="M451.807,290.48l-3.824,2.207c-.226.131-.2.358.063.509l1.657.957a.977.977,0,0,0,.881.037l3.824-2.208c.225-.13.2-.358-.063-.509l-1.658-.956A.978.978,0,0,0,451.807,290.48Z" transform="translate(-414.493 -239.844)" fill="#173d7a"/>
          <path id="Trazado_114274" data-name="Trazado 114274" d="M464.4,292.578l-3.824,2.207c-.226.131-.2.358.063.509l1.657.957a.978.978,0,0,0,.881.037l3.824-2.208c.226-.13.2-.358-.063-.509l-1.657-.956A.979.979,0,0,0,464.4,292.578Z" transform="translate(-435.319 -240.571)" fill="#173d7a"/>
        </g>
      </g>
      <g id="Grupo_78461" data-name="Grupo 78461" transform="translate(13.881 15.778)">
        <g id="Grupo_78459" data-name="Grupo 78459" transform="translate(13.203)">
          <path id="Trazado_114275" data-name="Trazado 114275" d="M446.247,146.317l5.073-2.929a1.45,1.45,0,0,0,.619-1.5h0a.706.706,0,0,0-1.086-.518l-5.073,2.929a1.45,1.45,0,0,0-.619,1.5h0A.706.706,0,0,0,446.247,146.317Z" transform="translate(-410.231 -134.277)" fill="#d4ecff"/>
          <path id="Trazado_114276" data-name="Trazado 114276" d="M461.06,156.26l7.48-4.319a1.451,1.451,0,0,0,.619-1.5h0a.706.706,0,0,0-1.086-.518l-7.48,4.319a1.452,1.452,0,0,0-.619,1.5h0A.706.706,0,0,0,461.06,156.26Z" transform="translate(-437.128 -137.243)" fill="#d4ecff"/>
          <path id="Trazado_114277" data-name="Trazado 114277" d="M432.71,182.566l5.073-2.929a1.451,1.451,0,0,0,.619-1.5h0a.706.706,0,0,0-1.086-.518l-5.073,2.929a1.451,1.451,0,0,0-.619,1.5h0A.706.706,0,0,0,432.71,182.566Z" transform="translate(-387.851 -146.846)" fill="#d4ecff"/>
          <path id="Trazado_114278" data-name="Trazado 114278" d="M445.516,191.349,453,187.03a1.452,1.452,0,0,0,.619-1.5h0a.706.706,0,0,0-1.085-.518l-7.48,4.319a1.451,1.451,0,0,0-.619,1.5h0A.706.706,0,0,0,445.516,191.349Z" transform="translate(-411.428 -149.41)" fill="#d4ecff"/>
          <path id="Trazado_114279" data-name="Trazado 114279" d="M426.254,141.018l3.169-1.829a1.451,1.451,0,0,0,.619-1.5h0a.706.706,0,0,0-1.086-.518L425.788,139a1.451,1.451,0,0,0-.619,1.5h0A.706.706,0,0,0,426.254,141.018Z" transform="translate(-375.272 -132.821)" fill="#d4ecff"/>
          <path id="Trazado_114280" data-name="Trazado 114280" d="M431.235,155l9.683-5.591a1.451,1.451,0,0,0,.619-1.5h0a.706.706,0,0,0-1.085-.518l-9.683,5.591a1.451,1.451,0,0,0-.619,1.5h0A.706.706,0,0,0,431.235,155Z" transform="translate(-390.02 -136.364)" fill="#d4ecff"/>
          <path id="Trazado_114281" data-name="Trazado 114281" d="M428.242,164.2l3.17-1.83a1.452,1.452,0,0,0,.619-1.5h0a.706.706,0,0,0-1.085-.518l-3.17,1.83a1.451,1.451,0,0,0-.619,1.5h0A.706.706,0,0,0,428.242,164.2Z" transform="translate(-378.56 -140.859)" fill="#d4ecff"/>
          <path id="Trazado_114282" data-name="Trazado 114282" d="M446.505,207.176l8.464-4.887a1.45,1.45,0,0,0,.619-1.5h0a.707.707,0,0,0-1.086-.519l-8.464,4.887a1.451,1.451,0,0,0-.619,1.5h0A.706.706,0,0,0,446.505,207.176Z" transform="translate(-414.048 -154.701)" fill="#d4ecff"/>
          <path id="Trazado_114283" data-name="Trazado 114283" d="M425.251,176.5l2.034-1.175a1.451,1.451,0,0,0,.619-1.5h0a.706.706,0,0,0-1.086-.518l-2.034,1.175a1.45,1.45,0,0,0-.619,1.5h0A.706.706,0,0,0,425.251,176.5Z" transform="translate(-372.479 -145.353)" fill="#d4ecff"/>
          <path id="Trazado_114284" data-name="Trazado 114284" d="M422.259,189.749l2.526-1.458a1.451,1.451,0,0,0,.619-1.5h0a.706.706,0,0,0-1.086-.518l-2.526,1.458a1.451,1.451,0,0,0-.619,1.5h0A.706.706,0,0,0,422.259,189.749Z" transform="translate(-368.024 -149.847)" fill="#d4ecff"/>
          <path id="Trazado_114285" data-name="Trazado 114285" d="M430.975,197.168l6.66-3.845a1.451,1.451,0,0,0,.619-1.5h0a.706.706,0,0,0-1.085-.518l-6.661,3.845a1.45,1.45,0,0,0-.619,1.5h0A.706.706,0,0,0,430.975,197.168Z" transform="translate(-386.568 -151.592)" fill="#d4ecff"/>
          <path id="Trazado_114286" data-name="Trazado 114286" d="M420.763,197.536l4.788-2.765a1.451,1.451,0,0,0,.619-1.5h0a.706.706,0,0,0-1.086-.518l-4.788,2.765a1.451,1.451,0,0,0-.619,1.5h0A.706.706,0,0,0,420.763,197.536Z" transform="translate(-367.814 -152.094)" fill="#d4ecff"/>
          <path id="Trazado_114287" data-name="Trazado 114287" d="M465.872,215.279l3.076-1.776a1.451,1.451,0,0,0,.619-1.5h0a.706.706,0,0,0-1.085-.518l-3.076,1.776a1.451,1.451,0,0,0-.619,1.5h0A.706.706,0,0,0,465.872,215.279Z" transform="translate(-440.678 -158.589)" fill="#d4ecff"/>
          <path id="Trazado_114288" data-name="Trazado 114288" d="M438.182,173l8.464-4.887a1.451,1.451,0,0,0,.619-1.5h0a.706.706,0,0,0-1.086-.518l-8.464,4.887a1.45,1.45,0,0,0-.619,1.5h0A.706.706,0,0,0,438.182,173Z" transform="translate(-400.288 -142.849)" fill="#d4ecff"/>
          <path id="Trazado_114289" data-name="Trazado 114289" d="M429.739,164.406l14.753-8.518a1.45,1.45,0,0,0,.619-1.5h0a.706.706,0,0,0-1.085-.518l-14.753,8.517a1.452,1.452,0,0,0-.619,1.5h0A.706.706,0,0,0,429.739,164.406Z" transform="translate(-392.616 -138.612)" fill="#d4ecff"/>
          <path id="Trazado_114290" data-name="Trazado 114290" d="M426.746,173.736l8.465-4.887a1.451,1.451,0,0,0,.619-1.5h0a.706.706,0,0,0-1.085-.519l-8.465,4.887a1.452,1.452,0,0,0-.619,1.5h0A.706.706,0,0,0,426.746,173.736Z" transform="translate(-381.382 -143.106)" fill="#d4ecff"/>
          <path id="Trazado_114291" data-name="Trazado 114291" d="M456.258,180.321l3.076-1.776a1.451,1.451,0,0,0,.619-1.5h0a.706.706,0,0,0-1.086-.518l-3.076,1.776a1.451,1.451,0,0,0-.619,1.5h0A.706.706,0,0,0,456.258,180.321Z" transform="translate(-424.784 -146.467)" fill="#d4ecff"/>
          <path id="Trazado_114292" data-name="Trazado 114292" d="M479.559,173.136l18.212-10.515a1.451,1.451,0,0,0,.619-1.5h0a.706.706,0,0,0-1.086-.518l-18.212,10.515a1.45,1.45,0,0,0-.619,1.5h0A.706.706,0,0,0,479.559,173.136Z" transform="translate(-478.442 -140.946)" fill="#d4ecff"/>
          <path id="Trazado_114293" data-name="Trazado 114293" d="M423.755,187.685l10.174-5.875a1.45,1.45,0,0,0,.619-1.5h0a.706.706,0,0,0-1.086-.519l-10.174,5.875a1.451,1.451,0,0,0-.619,1.5h0A.706.706,0,0,0,423.755,187.685Z" transform="translate(-378.146 -147.6)" fill="#d4ecff"/>
          <path id="Trazado_114294" data-name="Trazado 114294" d="M427.75,137.027l7.48-4.319a1.451,1.451,0,0,0,.619-1.5h0a.706.706,0,0,0-1.086-.518l-7.48,4.319a1.451,1.451,0,0,0-.619,1.5h0A.706.706,0,0,0,427.75,137.027Z" transform="translate(-382.056 -130.574)" fill="#d4ecff"/>
          <path id="Trazado_114295" data-name="Trazado 114295" d="M412.791,202.514l8.664-5a1.45,1.45,0,0,0,.619-1.5h0a.707.707,0,0,0-1.086-.519l-8.664,5a1.449,1.449,0,0,0-.619,1.5h0A.706.706,0,0,0,412.791,202.514Z" transform="translate(-358.508 -153.044)" fill="#d4ecff"/>
        </g>
        <g id="Grupo_78460" data-name="Grupo 78460" transform="translate(0 42.92)">
          <path id="Trazado_114296" data-name="Trazado 114296" d="M508.039,231.567l5.073-2.929a1.452,1.452,0,0,0,.619-1.5h0a.706.706,0,0,0-1.085-.518l-5.073,2.929a1.45,1.45,0,0,0-.619,1.5h0A.706.706,0,0,0,508.039,231.567Z" transform="translate(-499.185 -206.757)" fill="#d4ecff"/>
          <path id="Trazado_114297" data-name="Trazado 114297" d="M506.561,204l9.683-5.591a1.451,1.451,0,0,0,.619-1.5h0a.706.706,0,0,0-1.085-.518l-9.683,5.591a1.451,1.451,0,0,0-.619,1.5h0A.706.706,0,0,0,506.561,204Z" transform="translate(-501.352 -196.275)" fill="#d4ecff"/>
          <path id="Trazado_114298" data-name="Trazado 114298" d="M503.57,213.2l3.169-1.83a1.451,1.451,0,0,0,.619-1.5h0a.706.706,0,0,0-1.086-.518l-3.169,1.83a1.451,1.451,0,0,0-.619,1.5h0A.707.707,0,0,0,503.57,213.2Z" transform="translate(-489.892 -200.769)" fill="#d4ecff"/>
          <path id="Trazado_114299" data-name="Trazado 114299" d="M500.578,225.506l2.034-1.175a1.452,1.452,0,0,0,.619-1.5h0a.706.706,0,0,0-1.086-.518l-2.034,1.174a1.451,1.451,0,0,0-.619,1.5h0A.706.706,0,0,0,500.578,225.506Z" transform="translate(-483.811 -205.263)" fill="#d4ecff"/>
          <path id="Trazado_114300" data-name="Trazado 114300" d="M513.509,222l8.465-4.886a1.452,1.452,0,0,0,.619-1.5h0a.706.706,0,0,0-1.085-.518l-8.465,4.886a1.452,1.452,0,0,0-.619,1.5h0A.706.706,0,0,0,513.509,222Z" transform="translate(-511.621 -202.759)" fill="#d4ecff"/>
          <path id="Trazado_114301" data-name="Trazado 114301" d="M505.065,213.407l14.753-8.518a1.45,1.45,0,0,0,.619-1.5h0a.706.706,0,0,0-1.086-.519L504.6,211.387a1.45,1.45,0,0,0-.619,1.5h0A.706.706,0,0,0,505.065,213.407Z" transform="translate(-503.949 -198.522)" fill="#d4ecff"/>
          <path id="Trazado_114302" data-name="Trazado 114302" d="M502.074,222.737l8.464-4.887a1.45,1.45,0,0,0,.619-1.5h0a.706.706,0,0,0-1.086-.518l-8.464,4.887a1.451,1.451,0,0,0-.619,1.5h0A.706.706,0,0,0,502.074,222.737Z" transform="translate(-492.715 -203.016)" fill="#d4ecff"/>
          <path id="Trazado_114303" data-name="Trazado 114303" d="M499.082,236.686l10.175-5.875a1.45,1.45,0,0,0,.619-1.5h0a.706.706,0,0,0-1.085-.518l-10.175,5.875a1.451,1.451,0,0,0-.619,1.5h0A.706.706,0,0,0,499.082,236.686Z" transform="translate(-489.479 -207.51)" fill="#d4ecff"/>
        </g>
      </g>
    </g>
    <path id="Trazado_134286" data-name="Trazado 134286" d="M0,0H116.9" transform="matrix(0.875, -0.485, 0.485, 0.875, -1848.648, -1306.876)" fill="none" stroke="#5793ce" stroke-linecap="round" stroke-width="3"/>
    <path id="Trazado_134287" data-name="Trazado 134287" d="M0,0H116.9" transform="matrix(-0.883, -0.469, 0.469, -0.883, -1865.587, -1315.167)" fill="none" stroke="#5793ce" stroke-linecap="round" stroke-width="3"/>
    <g id="Grupo_79425" data-name="Grupo 79425" transform="translate(-1887.438 -1390.264)">
      <path id="Trazado_86764" data-name="Trazado 86764" d="M618.577,359.357l-20.958,12.165a6.686,6.686,0,0,1-6.7.008l-26.842-15.5,23.6-14H597.82l20.817,12.82A2.627,2.627,0,0,1,618.577,359.357Z" transform="translate(-568.457 -273.397)" fill="#b2d3ea" opacity="0.43"/>
      <g id="Grupo_35254" data-name="Grupo 35254" transform="translate(0 51.304)">
        <path id="Trazado_86765" data-name="Trazado 86765" d="M610.058,345.265v13.079a1.885,1.885,0,0,1-.95,1.642l-22.3,12.876a6.588,6.588,0,0,1-6.587,0l-22.228-12.834a1.808,1.808,0,0,1-.907-1.684h-.138V345.265Z" transform="translate(-556.947 -329.736)" fill="#e8e8e8"/>
        <path id="Trazado_86766" data-name="Trazado 86766" d="M586.843,350.471l22.3-12.876a1.9,1.9,0,0,0,0-3.282l-22.423-12.946a5.989,5.989,0,0,0-5.99,0l-22.7,13.108a1.826,1.826,0,0,0,0,3.163l22.228,12.833A6.585,6.585,0,0,0,586.843,350.471Z" transform="translate(-557.009 -320.565)" fill="#185396"/>
      </g>
      <path id="Trazado_86767" data-name="Trazado 86767" d="M608.343,369.09a1.879,1.879,0,0,0-.781,1.493c0,.573.351.838.781.59l14.383-8.3.018-2.093Z" transform="translate(-575.741 -284.19)" fill="#00223d"/>
      <path id="Trazado_86768" data-name="Trazado 86768" d="M633.722,358.863l-2.022,1.168-.018,2.093,2.04-1.178a1.878,1.878,0,0,0,.781-1.493C634.5,358.881,634.152,358.615,633.722,358.863Z" transform="translate(-584.696 -283.446)" fill="#00223d"/>
      <g id="Grupo_35256" data-name="Grupo 35256" transform="translate(0 34.268)">
        <g id="Grupo_35255" data-name="Grupo 35255">
          <path id="Trazado_86769" data-name="Trazado 86769" d="M610.058,318.166v13.08a1.885,1.885,0,0,1-.95,1.642l-22.3,12.876a6.585,6.585,0,0,1-6.587,0L557.992,332.93a1.807,1.807,0,0,1-.907-1.684h-.138v-13.08Z" transform="translate(-556.947 -302.637)" fill="#e8e8e8"/>
          <path id="Trazado_86770" data-name="Trazado 86770" d="M586.843,323.373l22.3-12.876a1.9,1.9,0,0,0,0-3.282l-22.423-12.946a5.989,5.989,0,0,0-5.99,0l-22.7,13.108a1.826,1.826,0,0,0,0,3.163l22.228,12.833A6.586,6.586,0,0,0,586.843,323.373Z" transform="translate(-557.009 -293.466)" fill="#185396"/>
        </g>
        <path id="Trazado_86771" data-name="Trazado 86771" d="M608.343,341.991a1.879,1.879,0,0,0-.781,1.493c0,.573.351.838.781.59l14.383-8.3.018-2.092Z" transform="translate(-575.741 -308.397)" fill="#00223d"/>
        <path id="Trazado_86772" data-name="Trazado 86772" d="M633.722,331.764l-2.022,1.168-.018,2.092,2.04-1.178a1.878,1.878,0,0,0,.781-1.492C634.5,331.782,634.152,331.516,633.722,331.764Z" transform="translate(-584.696 -307.652)" fill="#00223d"/>
      </g>
      <g id="Grupo_35258" data-name="Grupo 35258" transform="translate(0 17.192)">
        <g id="Grupo_35257" data-name="Grupo 35257">
          <path id="Trazado_86773" data-name="Trazado 86773" d="M610.058,291.005v13.08a1.883,1.883,0,0,1-.95,1.641l-22.3,12.876a6.588,6.588,0,0,1-6.587,0l-22.228-12.834a1.808,1.808,0,0,1-.907-1.684h-.138v-13.08Z" transform="translate(-556.947 -275.476)" fill="#f6f6f6"/>
          <path id="Trazado_86774" data-name="Trazado 86774" d="M586.843,296.212l22.3-12.876a1.9,1.9,0,0,0,0-3.282l-22.423-12.946a5.989,5.989,0,0,0-5.99,0l-22.7,13.108a1.826,1.826,0,0,0,0,3.163l22.228,12.833A6.585,6.585,0,0,0,586.843,296.212Z" transform="translate(-557.009 -266.306)" fill="#185396"/>
        </g>
        <path id="Trazado_86775" data-name="Trazado 86775" d="M608.343,314.831a1.876,1.876,0,0,0-.781,1.492c0,.573.351.839.781.591l14.383-8.3.018-2.093Z" transform="translate(-575.741 -281.236)" fill="#00223d"/>
        <path id="Trazado_86776" data-name="Trazado 86776" d="M633.722,304.6l-2.022,1.167-.018,2.093,2.04-1.178a1.878,1.878,0,0,0,.781-1.493C634.5,304.622,634.152,304.356,633.722,304.6Z" transform="translate(-584.696 -280.491)" fill="#00223d"/>
      </g>
      <g id="Grupo_35260" data-name="Grupo 35260">
        <g id="Grupo_35259" data-name="Grupo 35259">
          <path id="Trazado_86777" data-name="Trazado 86777" d="M610.058,263.66v13.08a1.884,1.884,0,0,1-.95,1.642l-22.3,12.876a6.585,6.585,0,0,1-6.587,0l-22.228-12.833a1.808,1.808,0,0,1-.907-1.684h-.138V263.66Z" transform="translate(-556.947 -248.131)" fill="#e8e8e8"/>
          <path id="Trazado_86778" data-name="Trazado 86778" d="M586.843,268.868l22.3-12.876a1.9,1.9,0,0,0,0-3.282l-22.423-12.946a5.989,5.989,0,0,0-5.99,0l-22.7,13.108a1.826,1.826,0,0,0,0,3.163l22.228,12.833A6.589,6.589,0,0,0,586.843,268.868Z" transform="translate(-557.009 -238.96)" fill="#185396"/>
        </g>
        <path id="Trazado_86779" data-name="Trazado 86779" d="M608.343,287.486a1.877,1.877,0,0,0-.781,1.492c0,.573.351.839.781.59l14.383-8.3.018-2.093Z" transform="translate(-575.741 -253.891)" fill="#00223d"/>
        <path id="Trazado_86780" data-name="Trazado 86780" d="M633.722,277.259l-2.022,1.168-.018,2.093,2.04-1.178a1.876,1.876,0,0,0,.781-1.492C634.5,277.277,634.152,277.011,633.722,277.259Z" transform="translate(-584.696 -253.146)" fill="#00223d"/>
      </g>
      <g id="Grupo_35261" data-name="Grupo 35261" transform="translate(3.119 23.8)">
        <path id="Trazado_86781" data-name="Trazado 86781" d="M592.231,294.962a1.989,1.989,0,0,0,.9,1.557c.5.288.9.057.9-.514a1.99,1.99,0,0,0-.9-1.557C592.635,294.159,592.231,294.39,592.231,294.962Z" transform="translate(-573.167 -283.316)" fill="#212d60"/>
        <path id="Trazado_86782" data-name="Trazado 86782" d="M587.178,292.044a1.987,1.987,0,0,0,.9,1.557c.5.288.9.058.9-.514a1.99,1.99,0,0,0-.9-1.557C587.582,291.242,587.178,291.472,587.178,292.044Z" transform="translate(-571.291 -282.233)" fill="#212d60"/>
        <path id="Trazado_86783" data-name="Trazado 86783" d="M582.124,289.126a1.991,1.991,0,0,0,.9,1.557c.5.287.9.057.9-.515a1.988,1.988,0,0,0-.9-1.557C582.528,288.324,582.124,288.554,582.124,289.126Z" transform="translate(-569.414 -281.149)" fill="#212d60"/>
        <path id="Trazado_86784" data-name="Trazado 86784" d="M577.07,286.208a1.99,1.99,0,0,0,.9,1.557c.5.288.9.057.9-.515a1.988,1.988,0,0,0-.9-1.557C577.474,285.406,577.07,285.636,577.07,286.208Z" transform="translate(-567.538 -280.066)" fill="#212d60"/>
        <path id="Trazado_86785" data-name="Trazado 86785" d="M572.016,283.29a1.99,1.99,0,0,0,.9,1.557c.5.288.9.057.9-.515a1.989,1.989,0,0,0-.9-1.557C572.42,282.488,572.016,282.719,572.016,283.29Z" transform="translate(-565.661 -278.983)" fill="#fff"/>
        <path id="Trazado_86786" data-name="Trazado 86786" d="M566.962,280.373a1.99,1.99,0,0,0,.9,1.557c.5.288.9.057.9-.515a1.99,1.99,0,0,0-.9-1.557C567.366,279.57,566.962,279.8,566.962,280.373Z" transform="translate(-563.784 -277.899)" fill="#fff"/>
        <path id="Trazado_86787" data-name="Trazado 86787" d="M561.908,277.455a1.989,1.989,0,0,0,.9,1.557c.5.288.9.057.9-.514a1.99,1.99,0,0,0-.9-1.557C562.312,276.652,561.908,276.883,561.908,277.455Z" transform="translate(-561.908 -276.816)" fill="#fff"/>
      </g>
      <g id="Grupo_35262" data-name="Grupo 35262" transform="translate(3.584 41.611)">
        <path id="Trazado_86788" data-name="Trazado 86788" d="M592.97,323.292a1.99,1.99,0,0,0,.9,1.557c.5.288.9.057.9-.515a1.989,1.989,0,0,0-.9-1.557C593.374,322.49,592.97,322.72,592.97,323.292Z" transform="translate(-573.906 -311.647)" fill="#fff"/>
        <path id="Trazado_86789" data-name="Trazado 86789" d="M587.917,320.375a1.989,1.989,0,0,0,.9,1.557c.5.288.9.057.9-.515a1.988,1.988,0,0,0-.9-1.557C588.321,319.572,587.917,319.8,587.917,320.375Z" transform="translate(-572.03 -310.564)" fill="#37a3a5"/>
        <path id="Trazado_86790" data-name="Trazado 86790" d="M582.863,317.457a1.989,1.989,0,0,0,.9,1.557c.5.288.9.057.9-.514a1.989,1.989,0,0,0-.9-1.557C583.267,316.654,582.863,316.885,582.863,317.457Z" transform="translate(-570.153 -309.48)" fill="#37a3a5"/>
        <path id="Trazado_86791" data-name="Trazado 86791" d="M577.809,314.539a1.988,1.988,0,0,0,.9,1.557c.5.288.9.058.9-.514a1.99,1.99,0,0,0-.9-1.557C578.213,313.736,577.809,313.967,577.809,314.539Z" transform="translate(-568.277 -308.397)" fill="#37a3a5"/>
        <path id="Trazado_86792" data-name="Trazado 86792" d="M572.755,311.621a1.99,1.99,0,0,0,.9,1.557c.5.287.9.057.9-.515a1.99,1.99,0,0,0-.9-1.557C573.159,310.819,572.755,311.049,572.755,311.621Z" transform="translate(-566.4 -307.314)" fill="#37a3a5"/>
        <path id="Trazado_86793" data-name="Trazado 86793" d="M567.7,308.7a1.99,1.99,0,0,0,.9,1.557c.5.287.9.057.9-.515a1.988,1.988,0,0,0-.9-1.557C568.105,307.9,567.7,308.131,567.7,308.7Z" transform="translate(-564.524 -306.23)" fill="#37a3a5"/>
        <path id="Trazado_86794" data-name="Trazado 86794" d="M562.647,305.785a1.989,1.989,0,0,0,.9,1.557c.5.288.9.057.9-.515a1.989,1.989,0,0,0-.9-1.557C563.051,304.983,562.647,305.214,562.647,305.785Z" transform="translate(-562.647 -305.147)" fill="#fff"/>
      </g>
      <g id="Grupo_35263" data-name="Grupo 35263" transform="translate(2.887 58.774)">
        <path id="Trazado_86795" data-name="Trazado 86795" d="M591.862,350.591a1.989,1.989,0,0,0,.9,1.557c.5.288.9.057.9-.515a1.988,1.988,0,0,0-.9-1.557C592.266,349.789,591.862,350.019,591.862,350.591Z" transform="translate(-572.798 -338.946)" fill="#fff"/>
        <path id="Trazado_86796" data-name="Trazado 86796" d="M586.808,347.673a1.99,1.99,0,0,0,.9,1.557c.5.288.9.057.9-.515a1.989,1.989,0,0,0-.9-1.557C587.212,346.871,586.808,347.1,586.808,347.673Z" transform="translate(-570.921 -337.863)" fill="#37a3a5"/>
        <path id="Trazado_86797" data-name="Trazado 86797" d="M581.754,344.756a1.99,1.99,0,0,0,.9,1.557c.5.288.9.057.9-.514a1.99,1.99,0,0,0-.9-1.557C582.158,343.953,581.754,344.184,581.754,344.756Z" transform="translate(-569.045 -336.779)" fill="#37a3a5"/>
        <path id="Trazado_86798" data-name="Trazado 86798" d="M576.7,341.838a1.989,1.989,0,0,0,.9,1.557c.5.288.9.057.9-.514a1.99,1.99,0,0,0-.9-1.557C577.1,341.035,576.7,341.266,576.7,341.838Z" transform="translate(-567.168 -335.696)" fill="#fff"/>
        <path id="Trazado_86799" data-name="Trazado 86799" d="M571.647,338.92a1.987,1.987,0,0,0,.9,1.557c.5.288.9.058.9-.514a1.99,1.99,0,0,0-.9-1.557C572.051,338.118,571.647,338.348,571.647,338.92Z" transform="translate(-565.292 -334.612)" fill="#fff"/>
        <path id="Trazado_86800" data-name="Trazado 86800" d="M566.593,336a1.99,1.99,0,0,0,.9,1.557c.5.287.9.057.9-.515a1.991,1.991,0,0,0-.9-1.557C567,335.2,566.593,335.43,566.593,336Z" transform="translate(-563.416 -333.529)" fill="#fff"/>
        <path id="Trazado_86801" data-name="Trazado 86801" d="M561.539,333.084a1.99,1.99,0,0,0,.9,1.557c.5.288.9.057.9-.515a1.987,1.987,0,0,0-.9-1.557C561.943,332.282,561.539,332.512,561.539,333.084Z" transform="translate(-561.539 -332.446)" fill="#fff"/>
      </g>
      <g id="Grupo_35264" data-name="Grupo 35264" transform="translate(2.654 74.804)">
        <path id="Trazado_86802" data-name="Trazado 86802" d="M591.492,376.089a1.988,1.988,0,0,0,.9,1.557c.5.288.9.057.9-.514a1.99,1.99,0,0,0-.9-1.557C591.9,375.286,591.492,375.517,591.492,376.089Z" transform="translate(-572.428 -364.443)" fill="#212d60"/>
        <path id="Trazado_86803" data-name="Trazado 86803" d="M586.439,373.171a1.987,1.987,0,0,0,.9,1.557c.5.288.9.058.9-.514a1.99,1.99,0,0,0-.9-1.557C586.843,372.369,586.439,372.6,586.439,373.171Z" transform="translate(-570.552 -363.36)" fill="#212d60"/>
        <path id="Trazado_86804" data-name="Trazado 86804" d="M581.385,370.253a1.991,1.991,0,0,0,.9,1.557c.5.287.9.057.9-.515a1.99,1.99,0,0,0-.9-1.557C581.789,369.451,581.385,369.681,581.385,370.253Z" transform="translate(-568.675 -362.276)" fill="#37a3a5"/>
        <path id="Trazado_86805" data-name="Trazado 86805" d="M576.331,367.335a1.99,1.99,0,0,0,.9,1.557c.5.288.9.057.9-.515a1.987,1.987,0,0,0-.9-1.557C576.735,366.533,576.331,366.763,576.331,367.335Z" transform="translate(-566.799 -361.193)" fill="#37a3a5"/>
        <path id="Trazado_86806" data-name="Trazado 86806" d="M571.277,364.418a1.989,1.989,0,0,0,.9,1.557c.5.288.9.057.9-.515a1.988,1.988,0,0,0-.9-1.557C571.681,363.615,571.277,363.846,571.277,364.418Z" transform="translate(-564.922 -360.11)" fill="#37a3a5"/>
        <path id="Trazado_86807" data-name="Trazado 86807" d="M566.223,361.5a1.989,1.989,0,0,0,.9,1.557c.5.288.9.057.9-.515a1.99,1.99,0,0,0-.9-1.557C566.627,360.7,566.223,360.928,566.223,361.5Z" transform="translate(-563.046 -359.026)" fill="#212d60"/>
        <path id="Trazado_86808" data-name="Trazado 86808" d="M561.169,358.582a1.988,1.988,0,0,0,.9,1.557c.5.288.9.058.9-.514a1.989,1.989,0,0,0-.9-1.557C561.573,357.779,561.169,358.01,561.169,358.582Z" transform="translate(-561.169 -357.943)" fill="#212d60"/>
      </g>
    </g>
    <path id="Trazado_134290" data-name="Trazado 134290" d="M.99,2.485V-8.4H4.549a4.131,4.131,0,0,1,2.666.733A2.641,2.641,0,0,1,8.108-5.5a2.211,2.211,0,0,1-.434,1.35,2.811,2.811,0,0,1-1.181.908A2.525,2.525,0,0,1,7.888-2.3,2.693,2.693,0,0,1,8.4-.656a2.912,2.912,0,0,1-.95,2.3,3.927,3.927,0,0,1-2.684.837ZM2.426-2.607V1.311H4.8A2.282,2.282,0,0,0,6.377.791,1.825,1.825,0,0,0,6.957-.641q0-1.966-2.138-1.966Zm0-1.151H4.594A2.273,2.273,0,0,0,6.1-4.231a1.583,1.583,0,0,0,.565-1.281A1.556,1.556,0,0,0,6.142-6.82a2.57,2.57,0,0,0-1.593-.408H2.426ZM15.3,2.485a2.906,2.906,0,0,1-.194-.852,3.086,3.086,0,0,1-2.3,1,2.856,2.856,0,0,1-1.963-.677A2.189,2.189,0,0,1,10.075.242a2.287,2.287,0,0,1,.961-1.963,4.53,4.53,0,0,1,2.7-.7h1.346v-.636a1.554,1.554,0,0,0-.434-1.155,1.743,1.743,0,0,0-1.279-.43,2.017,2.017,0,0,0-1.241.374,1.1,1.1,0,0,0-.5.9H10.239a1.909,1.909,0,0,1,.43-1.17,2.934,2.934,0,0,1,1.166-.894,3.924,3.924,0,0,1,1.619-.329,3.2,3.2,0,0,1,2.191.7,2.522,2.522,0,0,1,.822,1.925V.593a4.552,4.552,0,0,0,.284,1.772v.12Zm-2.3-1.054a2.431,2.431,0,0,0,1.234-.336,2.035,2.035,0,0,0,.845-.875v-1.66H14q-2.542,0-2.542,1.488a1.259,1.259,0,0,0,.434,1.017A1.667,1.667,0,0,0,13.006,1.431ZM23.347.339a1.018,1.018,0,0,0-.422-.871,4.066,4.066,0,0,0-1.473-.535,6.964,6.964,0,0,1-1.667-.538,2.372,2.372,0,0,1-.912-.748,1.789,1.789,0,0,1-.3-1.032,2.1,2.1,0,0,1,.841-1.682,3.285,3.285,0,0,1,2.15-.688,3.38,3.38,0,0,1,2.232.71,2.256,2.256,0,0,1,.856,1.817H23.265a1.249,1.249,0,0,0-.482-.979,1.807,1.807,0,0,0-1.215-.411,1.891,1.891,0,0,0-1.181.329,1.036,1.036,0,0,0-.426.86.839.839,0,0,0,.4.755,4.876,4.876,0,0,0,1.432.486,7.461,7.461,0,0,1,1.679.553,2.449,2.449,0,0,1,.953.774,1.9,1.9,0,0,1,.31,1.1,2.07,2.07,0,0,1-.867,1.738,3.638,3.638,0,0,1-2.251.654,4.074,4.074,0,0,1-1.72-.344,2.8,2.8,0,0,1-1.17-.961A2.316,2.316,0,0,1,18.3-.005h1.383a1.432,1.432,0,0,0,.557,1.1,2.161,2.161,0,0,0,1.372.408,2.231,2.231,0,0,0,1.26-.318A.976.976,0,0,0,23.347.339Zm6.542,2.3a3.535,3.535,0,0,1-2.677-1.08,4.01,4.01,0,0,1-1.032-2.89V-1.59a4.855,4.855,0,0,1,.46-2.15,3.587,3.587,0,0,1,1.286-1.48,3.233,3.233,0,0,1,1.791-.535A3.03,3.03,0,0,1,32.17-4.716a4.5,4.5,0,0,1,.875,2.976v.576H27.564a2.876,2.876,0,0,0,.7,1.933,2.2,2.2,0,0,0,1.7.736,2.409,2.409,0,0,0,1.241-.3,3.119,3.119,0,0,0,.89-.793l.845.658A3.4,3.4,0,0,1,29.889,2.634Zm-.172-7.253a1.845,1.845,0,0,0-1.406.609,2.962,2.962,0,0,0-.7,1.709h4.053v-.1a2.635,2.635,0,0,0-.568-1.634A1.737,1.737,0,0,0,29.717-4.618ZM38.1-1.628a4.739,4.739,0,0,1,.882-2.995,2.79,2.79,0,0,1,2.31-1.133,2.806,2.806,0,0,1,2.251.972V-9h1.383V2.485H43.655l-.067-.867a2.817,2.817,0,0,1-2.31,1.017,2.763,2.763,0,0,1-2.292-1.151A4.793,4.793,0,0,1,38.1-1.523Zm1.383.157A3.588,3.588,0,0,0,40.051.683a1.837,1.837,0,0,0,1.57.778A2.018,2.018,0,0,0,43.542.279V-3.437a2.033,2.033,0,0,0-1.907-1.144,1.846,1.846,0,0,0-1.585.785A3.951,3.951,0,0,0,39.482-1.471Zm10.946,4.1a3.535,3.535,0,0,1-2.677-1.08,4.01,4.01,0,0,1-1.032-2.89V-1.59a4.855,4.855,0,0,1,.46-2.15,3.587,3.587,0,0,1,1.286-1.48,3.233,3.233,0,0,1,1.791-.535,3.03,3.03,0,0,1,2.452,1.039,4.5,4.5,0,0,1,.875,2.976v.576H48.1A2.876,2.876,0,0,0,48.8.769a2.2,2.2,0,0,0,1.7.736,2.409,2.409,0,0,0,1.241-.3,3.119,3.119,0,0,0,.89-.793l.845.658A3.4,3.4,0,0,1,50.429,2.634Zm-.172-7.253a1.845,1.845,0,0,0-1.406.609,2.962,2.962,0,0,0-.7,1.709H52.2v-.1a2.635,2.635,0,0,0-.568-1.634A1.737,1.737,0,0,0,50.257-4.618Zm8.382,2.991a4.739,4.739,0,0,1,.882-2.995,2.79,2.79,0,0,1,2.31-1.133,2.806,2.806,0,0,1,2.251.972V-9h1.383V2.485H64.194l-.067-.867a2.817,2.817,0,0,1-2.31,1.017,2.763,2.763,0,0,1-2.292-1.151,4.793,4.793,0,0,1-.886-3.006Zm1.383.157A3.588,3.588,0,0,0,60.59.683a1.837,1.837,0,0,0,1.57.778A2.018,2.018,0,0,0,64.082.279V-3.437a2.033,2.033,0,0,0-1.907-1.144A1.846,1.846,0,0,0,60.59-3.8,3.951,3.951,0,0,0,60.022-1.471ZM72.606,2.485a2.906,2.906,0,0,1-.194-.852,3.086,3.086,0,0,1-2.3,1,2.856,2.856,0,0,1-1.963-.677A2.189,2.189,0,0,1,67.379.242a2.287,2.287,0,0,1,.961-1.963,4.53,4.53,0,0,1,2.7-.7h1.346v-.636a1.554,1.554,0,0,0-.434-1.155,1.743,1.743,0,0,0-1.279-.43,2.017,2.017,0,0,0-1.241.374,1.1,1.1,0,0,0-.5.9H67.544a1.909,1.909,0,0,1,.43-1.17,2.934,2.934,0,0,1,1.166-.894,3.924,3.924,0,0,1,1.619-.329,3.2,3.2,0,0,1,2.191.7,2.522,2.522,0,0,1,.822,1.925V.593a4.553,4.553,0,0,0,.284,1.772v.12Zm-2.3-1.054a2.431,2.431,0,0,0,1.234-.336,2.035,2.035,0,0,0,.845-.875v-1.66H71.3q-2.542,0-2.542,1.488A1.259,1.259,0,0,0,69.2,1.064,1.667,1.667,0,0,0,70.31,1.431Zm7.507-8.995v1.959h1.51v1.069h-1.51V.487a1.123,1.123,0,0,0,.2.73.85.85,0,0,0,.688.243,3.349,3.349,0,0,0,.658-.09V2.486a4.034,4.034,0,0,1-1.062.149,1.723,1.723,0,0,1-1.4-.561A2.409,2.409,0,0,1,76.434.481V-4.536H74.961V-5.605h1.473V-7.564Zm2.61,5.929a4.779,4.779,0,0,1,.467-2.138,3.486,3.486,0,0,1,1.3-1.466,3.542,3.542,0,0,1,1.9-.516,3.412,3.412,0,0,1,2.673,1.144,4.4,4.4,0,0,1,1.021,3.043v.1a4.82,4.82,0,0,1-.452,2.12,3.435,3.435,0,0,1-1.294,1.462,3.582,3.582,0,0,1-1.933.523A3.4,3.4,0,0,1,81.448,1.49a4.379,4.379,0,0,1-1.021-3.028Zm1.391.164A3.461,3.461,0,0,0,82.442.69a2,2,0,0,0,1.671.815A1.986,1.986,0,0,0,85.788.679a3.785,3.785,0,0,0,.621-2.314,3.455,3.455,0,0,0-.632-2.157A2.009,2.009,0,0,0,84.1-4.618a1.986,1.986,0,0,0-1.652.815A3.757,3.757,0,0,0,81.818-1.471ZM94.237.339a1.018,1.018,0,0,0-.422-.871,4.066,4.066,0,0,0-1.473-.535,6.964,6.964,0,0,1-1.667-.538,2.372,2.372,0,0,1-.912-.748,1.789,1.789,0,0,1-.3-1.032,2.1,2.1,0,0,1,.841-1.682,3.285,3.285,0,0,1,2.15-.688,3.38,3.38,0,0,1,2.232.71,2.256,2.256,0,0,1,.856,1.817H94.155a1.249,1.249,0,0,0-.482-.979,1.807,1.807,0,0,0-1.215-.411,1.891,1.891,0,0,0-1.181.329,1.036,1.036,0,0,0-.426.86.839.839,0,0,0,.4.755,4.876,4.876,0,0,0,1.432.486,7.461,7.461,0,0,1,1.679.553,2.449,2.449,0,0,1,.953.774,1.9,1.9,0,0,1,.31,1.1,2.07,2.07,0,0,1-.867,1.738,3.638,3.638,0,0,1-2.251.654,4.074,4.074,0,0,1-1.72-.344,2.8,2.8,0,0,1-1.17-.961A2.316,2.316,0,0,1,89.19-.005h1.383a1.432,1.432,0,0,0,.557,1.1,2.161,2.161,0,0,0,1.372.408,2.231,2.231,0,0,0,1.26-.318A.976.976,0,0,0,94.237.339Z" transform="translate(-1902.147 -1403.809)" fill="#fff"/>
    <g id="Grupo_79434" data-name="Grupo 79434" transform="translate(133.893 -430)">
      <path id="Trazado_134297" data-name="Trazado 134297" d="M4.361-2.335a6.784,6.784,0,0,1-2.7-1.311,2.505,2.505,0,0,1-.845-1.92A2.647,2.647,0,0,1,1.848-7.7a4.106,4.106,0,0,1,2.686-.845,4.482,4.482,0,0,1,2.01.436,3.305,3.305,0,0,1,1.368,1.2A3.074,3.074,0,0,1,8.4-5.235H6.946A2,2,0,0,0,6.315-6.8a2.567,2.567,0,0,0-1.781-.569A2.628,2.628,0,0,0,2.87-6.9a1.57,1.57,0,0,0-.6,1.306A1.412,1.412,0,0,0,2.84-4.46a5.565,5.565,0,0,0,1.931.847A8.961,8.961,0,0,1,6.9-2.767,3.238,3.238,0,0,1,8.047-1.689a2.752,2.752,0,0,1,.372,1.45,2.556,2.556,0,0,1-1.037,2.13,4.421,4.421,0,0,1-2.773.8,5.143,5.143,0,0,1-2.1-.432A3.541,3.541,0,0,1,1,1.077,2.888,2.888,0,0,1,.469-.629h1.45A1.884,1.884,0,0,0,2.652.938a3.085,3.085,0,0,0,1.957.575A2.836,2.836,0,0,0,6.36,1.047a1.513,1.513,0,0,0,.609-1.27,1.486,1.486,0,0,0-.564-1.244A6.5,6.5,0,0,0,4.361-2.335Zm9.062,5.027a3.552,3.552,0,0,1-2.69-1.086A4.03,4.03,0,0,1,9.7-1.3v-.255a4.879,4.879,0,0,1,.462-2.16A3.6,3.6,0,0,1,11.451-5.2a3.25,3.25,0,0,1,1.8-.537,3.045,3.045,0,0,1,2.465,1.044A4.522,4.522,0,0,1,16.595-1.7v.579H11.087a2.89,2.89,0,0,0,.7,1.942,2.208,2.208,0,0,0,1.71.74,2.421,2.421,0,0,0,1.247-.3,3.134,3.134,0,0,0,.894-.8l.849.661A3.414,3.414,0,0,1,13.424,2.692ZM13.251-4.6a1.854,1.854,0,0,0-1.413.612,2.977,2.977,0,0,0-.706,1.717H15.2v-.105a2.648,2.648,0,0,0-.571-1.642A1.746,1.746,0,0,0,13.251-4.6Zm8.882.255a4.166,4.166,0,0,0-.684-.053,1.832,1.832,0,0,0-1.856,1.165V2.542H18.2V-5.588h1.353l.023.939a2.165,2.165,0,0,1,1.939-1.09,1.42,1.42,0,0,1,.616.105Zm4.1,5,2.014-6.244h1.42L26.747,2.542h-1.06L22.741-5.588h1.42ZM32.51,2.542H31.12V-5.588h1.39Zm-1.5-10.287a.83.83,0,0,1,.207-.571.776.776,0,0,1,.612-.233.788.788,0,0,1,.616.233.821.821,0,0,1,.21.571.794.794,0,0,1-.21.564.8.8,0,0,1-.616.225.79.79,0,0,1-.612-.225A.8.8,0,0,1,31.007-7.745ZM34.4-1.591a4.763,4.763,0,0,1,.887-3.01A2.8,2.8,0,0,1,37.6-5.739a2.82,2.82,0,0,1,2.262.977V-9h1.39V2.542H39.979l-.068-.872A2.831,2.831,0,0,1,37.59,2.692a2.777,2.777,0,0,1-2.3-1.157,4.817,4.817,0,0,1-.89-3.021Zm1.39.158A3.606,3.606,0,0,0,36.357.731a1.846,1.846,0,0,0,1.578.781A2.028,2.028,0,0,0,39.867.325V-3.409a2.044,2.044,0,0,0-1.916-1.15,1.855,1.855,0,0,0-1.593.789A3.971,3.971,0,0,0,35.786-1.433ZM43.045-1.6a4.8,4.8,0,0,1,.47-2.149A3.5,3.5,0,0,1,44.822-5.22a3.559,3.559,0,0,1,1.912-.518,3.429,3.429,0,0,1,2.686,1.15,4.423,4.423,0,0,1,1.026,3.058v.1A4.844,4.844,0,0,1,49.992.7a3.452,3.452,0,0,1-1.3,1.469,3.6,3.6,0,0,1-1.942.526,3.42,3.42,0,0,1-2.679-1.15A4.4,4.4,0,0,1,43.045-1.5Zm1.4.165A3.478,3.478,0,0,0,45.07.739a2.008,2.008,0,0,0,1.679.819,2,2,0,0,0,1.683-.83A3.8,3.8,0,0,0,49.057-1.6a3.472,3.472,0,0,0-.635-2.168,2.019,2.019,0,0,0-1.687-.83,2,2,0,0,0-1.661.819A3.775,3.775,0,0,0,44.443-1.433ZM56.12-4.341a4.166,4.166,0,0,0-.684-.053A1.832,1.832,0,0,0,53.58-3.229V2.542H52.19V-5.588h1.353l.023.939A2.165,2.165,0,0,1,55.5-5.739a1.42,1.42,0,0,1,.616.105Z" transform="translate(-2148.469 -897.623)" fill="#fff"/>
      <path id="Trazado_134298" data-name="Trazado 134298" d="M9.121-.93A4.025,4.025,0,0,1,7.84,1.749a4.2,4.2,0,0,1-2.867.943A3.855,3.855,0,0,1,1.866,1.3,5.593,5.593,0,0,1,.7-2.417V-3.469a6.234,6.234,0,0,1,.545-2.683A4.069,4.069,0,0,1,2.786-7.929,4.3,4.3,0,0,1,5.1-8.549a3.953,3.953,0,0,1,2.8.973A4.074,4.074,0,0,1,9.121-4.882H7.671a3.143,3.143,0,0,0-.815-1.9A2.467,2.467,0,0,0,5.1-7.369,2.581,2.581,0,0,0,2.933-6.347a4.7,4.7,0,0,0-.785,2.91v1.06A4.827,4.827,0,0,0,2.891.46,2.4,2.4,0,0,0,4.973,1.513,2.776,2.776,0,0,0,6.818.968a3.023,3.023,0,0,0,.853-1.9Zm3.261,3.472h-1.39V-9h1.39Zm3.735,0h-1.39V-5.588h1.39Zm-1.5-10.287a.83.83,0,0,1,.207-.571.776.776,0,0,1,.612-.233.788.788,0,0,1,.616.233.821.821,0,0,1,.21.571.794.794,0,0,1-.21.564.8.8,0,0,1-.616.225.79.79,0,0,1-.612-.225A.8.8,0,0,1,14.614-7.745Zm7.1,10.437a3.552,3.552,0,0,1-2.69-1.086,4.03,4.03,0,0,1-1.037-2.9v-.255a4.879,4.879,0,0,1,.462-2.16A3.605,3.605,0,0,1,19.742-5.2a3.25,3.25,0,0,1,1.8-.537,3.045,3.045,0,0,1,2.465,1.044A4.522,4.522,0,0,1,24.886-1.7v.579H19.378a2.89,2.89,0,0,0,.7,1.942,2.208,2.208,0,0,0,1.71.74,2.421,2.421,0,0,0,1.247-.3,3.134,3.134,0,0,0,.894-.8l.849.661A3.414,3.414,0,0,1,21.715,2.692ZM21.542-4.6a1.854,1.854,0,0,0-1.413.612,2.977,2.977,0,0,0-.706,1.717H23.5v-.105a2.648,2.648,0,0,0-.571-1.642A1.746,1.746,0,0,0,21.542-4.6Zm6.267-.992.045,1.022a2.963,2.963,0,0,1,2.435-1.172q2.577,0,2.6,2.908V2.542H31.5v-5.38a1.872,1.872,0,0,0-.4-1.3,1.611,1.611,0,0,0-1.229-.421,2.006,2.006,0,0,0-1.187.361,2.449,2.449,0,0,0-.8.947V2.542h-1.39V-5.588Zm9.062-1.969v1.969h1.518v1.075H36.872V.535a1.129,1.129,0,0,0,.2.734.854.854,0,0,0,.691.245,3.366,3.366,0,0,0,.661-.09V2.543a4.054,4.054,0,0,1-1.067.149,1.731,1.731,0,0,1-1.405-.564,2.421,2.421,0,0,1-.473-1.6V-4.514H34V-5.588h1.48V-7.557Zm6.515,10.25A3.552,3.552,0,0,1,40.7,1.607a4.03,4.03,0,0,1-1.037-2.9v-.255a4.879,4.879,0,0,1,.462-2.16A3.605,3.605,0,0,1,41.414-5.2a3.25,3.25,0,0,1,1.8-.537,3.045,3.045,0,0,1,2.465,1.044A4.522,4.522,0,0,1,46.558-1.7v.579H41.05a2.89,2.89,0,0,0,.7,1.942,2.208,2.208,0,0,0,1.71.74,2.421,2.421,0,0,0,1.247-.3,3.134,3.134,0,0,0,.894-.8l.849.661A3.414,3.414,0,0,1,43.386,2.692ZM43.214-4.6a1.854,1.854,0,0,0-1.413.612,2.977,2.977,0,0,0-.706,1.717h4.073v-.105A2.648,2.648,0,0,0,44.6-4.014,1.746,1.746,0,0,0,43.214-4.6Zm5.23,8.078H47.249L51.818-8.4H53Zm7.379-9.07.045,1.022A2.963,2.963,0,0,1,58.3-5.739q2.577,0,2.6,2.908V2.542h-1.39v-5.38a1.872,1.872,0,0,0-.4-1.3,1.611,1.611,0,0,0-1.229-.421,2.006,2.006,0,0,0-1.187.361,2.449,2.449,0,0,0-.8.947V2.542h-1.39V-5.588Zm12.2,8.131a2.92,2.92,0,0,1-.2-.857,3.1,3.1,0,0,1-2.314,1.007,2.87,2.87,0,0,1-1.973-.68,2.2,2.2,0,0,1-.77-1.725,2.3,2.3,0,0,1,.966-1.973,4.553,4.553,0,0,1,2.716-.7H67.8v-.639a1.561,1.561,0,0,0-.436-1.161,1.752,1.752,0,0,0-1.285-.432,2.027,2.027,0,0,0-1.247.376,1.107,1.107,0,0,0-.5.909h-1.4a1.918,1.918,0,0,1,.432-1.176,2.949,2.949,0,0,1,1.172-.9,3.944,3.944,0,0,1,1.627-.331,3.214,3.214,0,0,1,2.2.7A2.535,2.535,0,0,1,69.191-3.1V.641a4.575,4.575,0,0,0,.286,1.781v.12Zm-2.307-1.06a2.443,2.443,0,0,0,1.24-.338A2.045,2.045,0,0,0,67.8.265V-1.4h-1.09q-2.555,0-2.555,1.5a1.266,1.266,0,0,0,.436,1.022A1.675,1.675,0,0,0,65.712,1.483ZM73.94.656l2.014-6.244h1.42L74.458,2.542H73.4L70.453-5.588h1.42Zm8.048,2.036A3.552,3.552,0,0,1,79.3,1.607a4.03,4.03,0,0,1-1.037-2.9v-.255a4.879,4.879,0,0,1,.462-2.16A3.605,3.605,0,0,1,80.015-5.2a3.25,3.25,0,0,1,1.8-.537A3.045,3.045,0,0,1,84.28-4.694,4.522,4.522,0,0,1,85.159-1.7v.579H79.651a2.89,2.89,0,0,0,.7,1.942,2.208,2.208,0,0,0,1.71.74,2.421,2.421,0,0,0,1.247-.3,3.134,3.134,0,0,0,.894-.8l.849.661A3.414,3.414,0,0,1,81.988,2.692ZM81.815-4.6a1.854,1.854,0,0,0-1.413.612A2.977,2.977,0,0,0,79.7-2.267h4.073v-.105A2.648,2.648,0,0,0,83.2-4.014,1.746,1.746,0,0,0,81.815-4.6Zm4.621,3.006a4.778,4.778,0,0,1,.879-3.025,2.812,2.812,0,0,1,2.329-1.123,2.8,2.8,0,0,1,2.322,1.052l.068-.9H93.3V2.347a3.308,3.308,0,0,1-.936,2.487,3.452,3.452,0,0,1-2.514.909,4.182,4.182,0,0,1-1.721-.376A2.962,2.962,0,0,1,86.85,4.338l.721-.834a2.718,2.718,0,0,0,2.187,1.1,2.13,2.13,0,0,0,1.582-.571,2.183,2.183,0,0,0,.567-1.608v-.7a2.857,2.857,0,0,1-2.277.962,2.777,2.777,0,0,1-2.311-1.15A5.024,5.024,0,0,1,86.436-1.591Zm1.4.158A3.646,3.646,0,0,0,88.4.727a1.831,1.831,0,0,0,1.578.785A2.036,2.036,0,0,0,91.907.318V-3.394a2.06,2.06,0,0,0-1.916-1.165,1.848,1.848,0,0,0-1.586.789A3.971,3.971,0,0,0,87.834-1.433Zm12.587,3.975a2.92,2.92,0,0,1-.2-.857,3.1,3.1,0,0,1-2.314,1.007,2.87,2.87,0,0,1-1.973-.68,2.2,2.2,0,0,1-.77-1.725,2.3,2.3,0,0,1,.966-1.973,4.553,4.553,0,0,1,2.716-.7H100.2v-.639a1.561,1.561,0,0,0-.436-1.161,1.752,1.752,0,0,0-1.285-.432,2.027,2.027,0,0,0-1.247.376,1.107,1.107,0,0,0-.5.909h-1.4a1.918,1.918,0,0,1,.432-1.176,2.949,2.949,0,0,1,1.172-.9,3.944,3.944,0,0,1,1.627-.331,3.214,3.214,0,0,1,2.2.7,2.534,2.534,0,0,1,.827,1.935V.641a4.575,4.575,0,0,0,.286,1.781v.12Zm-2.307-1.06a2.443,2.443,0,0,0,1.24-.338A2.045,2.045,0,0,0,100.2.265V-1.4h-1.09q-2.555,0-2.555,1.5a1.266,1.266,0,0,0,.436,1.022A1.675,1.675,0,0,0,98.114,1.483Zm5.32-3.073a4.763,4.763,0,0,1,.887-3.01,2.8,2.8,0,0,1,2.322-1.138,2.82,2.82,0,0,1,2.262.977V-9h1.39V2.542h-1.277l-.068-.872a2.831,2.831,0,0,1-2.322,1.022,2.777,2.777,0,0,1-2.3-1.157,4.817,4.817,0,0,1-.89-3.021Zm1.39.158A3.606,3.606,0,0,0,105.4.731a1.846,1.846,0,0,0,1.578.781A2.028,2.028,0,0,0,108.9.325V-3.409a2.044,2.044,0,0,0-1.916-1.15,1.855,1.855,0,0,0-1.593.789A3.971,3.971,0,0,0,104.824-1.433Zm7.259-.165a4.8,4.8,0,0,1,.47-2.149A3.5,3.5,0,0,1,113.86-5.22a3.559,3.559,0,0,1,1.912-.518,3.429,3.429,0,0,1,2.686,1.15,4.423,4.423,0,0,1,1.026,3.058v.1A4.844,4.844,0,0,1,119.03.7a3.452,3.452,0,0,1-1.3,1.469,3.6,3.6,0,0,1-1.942.526,3.42,3.42,0,0,1-2.679-1.15A4.4,4.4,0,0,1,112.083-1.5Zm1.4.165a3.478,3.478,0,0,0,.627,2.172,2.008,2.008,0,0,0,1.679.819,2,2,0,0,0,1.683-.83,3.8,3.8,0,0,0,.624-2.326,3.472,3.472,0,0,0-.635-2.168,2.019,2.019,0,0,0-1.687-.83,2,2,0,0,0-1.661.819A3.775,3.775,0,0,0,113.481-1.433Zm11.677-2.908a4.166,4.166,0,0,0-.684-.053,1.832,1.832,0,0,0-1.856,1.165V2.542h-1.39V-5.588h1.353l.023.939a2.165,2.165,0,0,1,1.939-1.09,1.42,1.42,0,0,1,.616.105Z" transform="translate(-1887.943 -886.623)" fill="#fff"/>
    </g>
  </g>
</svg>
