<svg xmlns="http://www.w3.org/2000/svg" xmlns:xlink="http://www.w3.org/1999/xlink" width="201" height="178.86" viewBox="0 0 201 178.86">
  <defs>
    <filter id="Trazado_134429" x="19.5" y="6.5" width="162" height="159" filterUnits="userSpaceOnUse">
      <feOffset input="SourceAlpha"/>
      <feGaussianBlur stdDeviation="2.5" result="blur"/>
      <feFlood flood-opacity="0.29"/>
      <feComposite operator="in" in2="blur"/>
      <feComposite in="SourceGraphic"/>
    </filter>
  </defs>
  <g id="Grupo_79544" data-name="Grupo 79544" transform="translate(1192 4414.579)">
    <g id="Trazado_134427" data-name="Trazado 134427" transform="translate(-1178 -4414.579)" fill="none" stroke-linecap="round">
      <path d="M17,0H157a17,17,0,0,1,17,17V150a17,17,0,0,1-17,17H17A17,17,0,0,1,0,150V17A17,17,0,0,1,17,0Z" stroke="none"/>
      <path d="M 17 8 C 12.03738403320312 8 8 12.03738403320312 8 17 L 8 150 C 8 154.9626159667969 12.03738403320312 159 17 159 L 157 159 C 161.9626159667969 159 166 154.9626159667969 166 150 L 166 17 C 166 12.03738403320312 161.9626159667969 8 157 8 L 17 8 M 17 0 L 157 0 C 166.3888244628906 0 174 7.61114501953125 174 17 L 174 150 C 174 159.3888244628906 166.3888244628906 167 157 167 L 17 167 C 7.61114501953125 167 0 159.3888244628906 0 150 L 0 17 C 0 7.61114501953125 7.61114501953125 0 17 0 Z" stroke="none" fill="#1565c0"/>
    </g>
    <path id="Trazado_134428" data-name="Trazado 134428" d="M6,0H195a6,6,0,0,1,6,6V112.721a6,6,0,0,1-6,6H6a6,6,0,0,1-6-6V6A6,6,0,0,1,6,0Z" transform="translate(-1192 -4354.439)" fill="#f6f6f6"/>
    <g transform="matrix(1, 0, 0, 1, -1192, -4414.58)" filter="url(#Trazado_134429)">
      <path id="Trazado_134429-2" data-name="Trazado 134429" d="M15,0H132a15,15,0,0,1,15,15V129a15,15,0,0,1-15,15H15A15,15,0,0,1,0,129V15A15,15,0,0,1,15,0Z" transform="translate(27 14)" fill="#1565c0"/>
    </g>
    <path id="Trazado_134430" data-name="Trazado 134430" d="M-43.158,0V-10.664h3.435a5.053,5.053,0,0,1,2.542.641A4.5,4.5,0,0,1-35.42-8.214,5.462,5.462,0,0,1-34.779-5.6V-5.1A5.494,5.494,0,0,1-35.4-2.479,4.524,4.524,0,0,1-37.141-.663,4.942,4.942,0,0,1-39.65,0Zm2.571-8.679v6.7h.894a2,2,0,0,0,1.7-.787A3.858,3.858,0,0,0-37.4-5.1v-.461A3.827,3.827,0,0,0-37.994-7.9a2.035,2.035,0,0,0-1.729-.784Zm6.7,4.644a4.677,4.677,0,0,1,.461-2.113A3.3,3.3,0,0,1-32.1-7.573a3.993,3.993,0,0,1,2.029-.5,3.644,3.644,0,0,1,2.805,1.1,4.23,4.23,0,0,1,1.025,3v.088A4.1,4.1,0,0,1-27.268-.941,3.654,3.654,0,0,1-30.055.146,3.7,3.7,0,0,1-32.772-.868a3.968,3.968,0,0,1-1.106-2.75Zm2.468.154a2.949,2.949,0,0,0,.344,1.611,1.147,1.147,0,0,0,1.018.513q1.318,0,1.348-2.029v-.249q0-2.131-1.362-2.131-1.238,0-1.34,1.838Zm8.6-4.043.081.93a2.725,2.725,0,0,1,2.263-1.077,2.006,2.006,0,0,1,2.029,1.194,2.637,2.637,0,0,1,2.329-1.194q2.41,0,2.476,2.915V0h-2.476V-5a1.511,1.511,0,0,0-.205-.886.873.873,0,0,0-.747-.278,1.169,1.169,0,0,0-1.091.652l.007.1V0h-2.476V-4.988a1.588,1.588,0,0,0-.2-.9.87.87,0,0,0-.754-.278,1.184,1.184,0,0,0-1.084.652V0h-2.468V-7.925ZM-9.628,0H-12.1V-7.925h2.476ZM-12.25-9.976a1.111,1.111,0,0,1,.381-.87,1.432,1.432,0,0,1,.989-.339,1.432,1.432,0,0,1,.989.339,1.111,1.111,0,0,1,.381.87,1.111,1.111,0,0,1-.381.87,1.432,1.432,0,0,1-.989.339,1.432,1.432,0,0,1-.989-.339A1.111,1.111,0,0,1-12.25-9.976Zm6.409,2.051.081.93A2.687,2.687,0,0,1-3.5-8.071a2.261,2.261,0,0,1,1.849.74A3.522,3.522,0,0,1-1.014-5.1V0H-3.49V-5a1.337,1.337,0,0,0-.242-.883,1.118,1.118,0,0,0-.879-.282A1.177,1.177,0,0,0-5.687-5.6V0H-8.156V-7.925ZM2.955,0H.48V-7.925H2.955ZM.333-9.976a1.111,1.111,0,0,1,.381-.87,1.432,1.432,0,0,1,.989-.339,1.432,1.432,0,0,1,.989.339,1.111,1.111,0,0,1,.381.87,1.111,1.111,0,0,1-.381.87,1.432,1.432,0,0,1-.989.339,1.432,1.432,0,0,1-.989-.339A1.111,1.111,0,0,1,.333-9.976Zm3.831,5.94a4.677,4.677,0,0,1,.461-2.113A3.3,3.3,0,0,1,5.951-7.573a3.993,3.993,0,0,1,2.029-.5,3.644,3.644,0,0,1,2.805,1.1,4.23,4.23,0,0,1,1.025,3v.088A4.1,4.1,0,0,1,10.781-.941,3.654,3.654,0,0,1,7.994.146,3.7,3.7,0,0,1,5.277-.868a3.968,3.968,0,0,1-1.106-2.75Zm2.468.154a2.949,2.949,0,0,0,.344,1.611,1.147,1.147,0,0,0,1.018.513q1.318,0,1.348-2.029v-.249q0-2.131-1.362-2.131-1.238,0-1.34,1.838ZM17.047-2.227a.57.57,0,0,0-.33-.505,5.013,5.013,0,0,0-1.252-.4,5.711,5.711,0,0,1-1.523-.538,2.552,2.552,0,0,1-.916-.809,1.933,1.933,0,0,1-.315-1.091,2.19,2.19,0,0,1,.9-1.8,3.711,3.711,0,0,1,2.358-.707,4.112,4.112,0,0,1,2.52.71,2.222,2.222,0,0,1,.952,1.868H16.967q0-.952-1-.952a1,1,0,0,0-.652.216.669.669,0,0,0-.264.538.614.614,0,0,0,.322.535,3.045,3.045,0,0,0,1.029.337A8.893,8.893,0,0,1,17.64-4.5a2.255,2.255,0,0,1,1.787,2.2,2.075,2.075,0,0,1-.963,1.765A4.224,4.224,0,0,1,15.97.146,4.31,4.31,0,0,1,14.154-.22a3.037,3.037,0,0,1-1.245-1,2.256,2.256,0,0,1-.447-1.326h2.307a.954.954,0,0,0,.366.8,1.506,1.506,0,0,0,.9.253,1.185,1.185,0,0,0,.758-.205A.656.656,0,0,0,17.047-2.227Zm6.958-1.794a4.841,4.841,0,0,1,.813-2.966,2.676,2.676,0,0,1,2.271-1.084,2.276,2.276,0,0,1,1.787.835V-11.25h2.476V0H29.132l-.125-.85a2.337,2.337,0,0,1-1.934,1A2.671,2.671,0,0,1,24.833-.937,4.994,4.994,0,0,1,24.005-4.021Zm2.468.154q0,2.109,1.23,2.109a1.215,1.215,0,0,0,1.172-.688V-5.464a1.182,1.182,0,0,0-1.157-.7q-1.143,0-1.238,1.846ZM36.588.146A4.074,4.074,0,0,1,33.636-.941a3.756,3.756,0,0,1-1.128-2.831v-.205a4.867,4.867,0,0,1,.45-2.146,3.3,3.3,0,0,1,1.315-1.439,3.969,3.969,0,0,1,2.051-.509,3.43,3.43,0,0,1,2.637,1.036,4.073,4.073,0,0,1,.967,2.889v.959H35.021A1.779,1.779,0,0,0,35.6-2.139a1.722,1.722,0,0,0,1.157.381,2.218,2.218,0,0,0,1.831-.82l1.128,1.333A3.153,3.153,0,0,1,38.408-.231,4.418,4.418,0,0,1,36.588.146ZM36.31-6.167q-1.084,0-1.289,1.436h2.49v-.19a1.223,1.223,0,0,0-.3-.919A1.2,1.2,0,0,0,36.31-6.167ZM-34.46,11.1a4.779,4.779,0,0,1-.831,2.948,2.665,2.665,0,0,1-2.245,1.1,2.285,2.285,0,0,1-1.794-.8v3.7H-41.8V7.075h2.307l.073.732a2.285,2.285,0,0,1,1.868-.879,2.687,2.687,0,0,1,2.278,1.08,4.838,4.838,0,0,1,.813,2.97Zm-2.468-.154q0-2.109-1.23-2.109a1.162,1.162,0,0,0-1.172.63v3.12a1.2,1.2,0,0,0,1.187.659q1.179,0,1.216-2.036Zm8.35-1.633-.813-.059a1.46,1.46,0,0,0-1.494.732V15h-2.468V7.075h2.314l.081,1.018a1.911,1.911,0,0,1,1.736-1.165,2.407,2.407,0,0,1,.688.088ZM-25.085,15h-2.476V7.075h2.476Zm-2.622-9.976a1.111,1.111,0,0,1,.381-.87,1.432,1.432,0,0,1,.989-.339,1.432,1.432,0,0,1,.989.339,1.111,1.111,0,0,1,.381.87,1.111,1.111,0,0,1-.381.87,1.432,1.432,0,0,1-.989.339,1.432,1.432,0,0,1-.989-.339A1.111,1.111,0,0,1-27.708,5.024Zm6.475,2.051.081.93a2.725,2.725,0,0,1,2.263-1.077A2.006,2.006,0,0,1-16.86,8.123a2.637,2.637,0,0,1,2.329-1.194q2.41,0,2.476,2.915V15h-2.476V10a1.511,1.511,0,0,0-.205-.886.873.873,0,0,0-.747-.278,1.169,1.169,0,0,0-1.091.652l.007.1V15h-2.476V10.012a1.588,1.588,0,0,0-.2-.9A.87.87,0,0,0-20,8.833a1.184,1.184,0,0,0-1.084.652V15h-2.468V7.075Zm14.421,8.071a4.074,4.074,0,0,1-2.952-1.088,3.756,3.756,0,0,1-1.128-2.831v-.205a4.867,4.867,0,0,1,.45-2.146A3.3,3.3,0,0,1-9.126,7.438a3.969,3.969,0,0,1,2.051-.509A3.43,3.43,0,0,1-4.438,7.965a4.073,4.073,0,0,1,.967,2.889v.959H-8.379A1.779,1.779,0,0,0-7.8,12.861a1.722,1.722,0,0,0,1.157.381,2.218,2.218,0,0,0,1.831-.82l1.128,1.333a3.153,3.153,0,0,1-1.307,1.014A4.418,4.418,0,0,1-6.812,15.146ZM-7.09,8.833q-1.084,0-1.289,1.436h2.49v-.19a1.223,1.223,0,0,0-.3-.919A1.2,1.2,0,0,0-7.09,8.833Zm9.4.476L1.5,9.25a1.46,1.46,0,0,0-1.494.732V15H-2.461V7.075H-.146l.081,1.018A1.911,1.911,0,0,1,1.67,6.929a2.407,2.407,0,0,1,.688.088ZM9.207,7.075l.081.93A2.687,2.687,0,0,1,11.55,6.929a2.261,2.261,0,0,1,1.849.74A3.522,3.522,0,0,1,14.033,9.9V15H11.558V10a1.337,1.337,0,0,0-.242-.883,1.118,1.118,0,0,0-.879-.282A1.177,1.177,0,0,0,9.36,9.4V15H6.892V7.075ZM18,15H15.527V7.075H18ZM15.381,5.024a1.111,1.111,0,0,1,.381-.87,1.612,1.612,0,0,1,1.978,0,1.111,1.111,0,0,1,.381.87,1.111,1.111,0,0,1-.381.87,1.612,1.612,0,0,1-1.978,0A1.111,1.111,0,0,1,15.381,5.024Zm7.3,7.039,1.252-4.988h2.6L23.95,15h-2.52L18.845,7.075h2.607Zm8.328,3.083a4.074,4.074,0,0,1-2.952-1.088,3.756,3.756,0,0,1-1.128-2.831v-.205a4.867,4.867,0,0,1,.45-2.146A3.3,3.3,0,0,1,28.7,7.438a3.969,3.969,0,0,1,2.051-.509,3.43,3.43,0,0,1,2.637,1.036,4.073,4.073,0,0,1,.967,2.889v.959H29.443a1.779,1.779,0,0,0,.579,1.047,1.722,1.722,0,0,0,1.157.381,2.218,2.218,0,0,0,1.831-.82l1.128,1.333a3.153,3.153,0,0,1-1.307,1.014A4.418,4.418,0,0,1,31.011,15.146Zm-.278-6.313q-1.084,0-1.289,1.436h2.49v-.19a1.223,1.223,0,0,0-.3-.919A1.2,1.2,0,0,0,30.732,8.833ZM37.947,15H35.471V3.75h2.476Z" transform="translate(-1091 -4297.579)" fill="#fff"/>
    <g id="jK04H4" transform="translate(-2070.5 -5972.591)">
      <g id="Grupo_78484" data-name="Grupo 78484" transform="translate(938.5 1589.012)">
        <path id="Trazado_123894" data-name="Trazado 123894" d="M1013.4,1663.41q-27.171.034-54.341.012c-4.219,0-8.437-.01-12.656.013-.547,0-.711-.133-.706-.7.025-3.612,0-7.224.018-10.836a4.251,4.251,0,0,1,4.59-4.5c1.767,0,3.533.005,5.3,0,.884,0,1.393-.429,1.413-1.141.02-.748-.509-1.222-1.422-1.227-1.9-.011-3.8-.034-5.695.007a6.5,6.5,0,0,0-5.189,2.588,6.838,6.838,0,0,0-1.381,4.431c.02,3.586.008,7.172,0,10.757,0,.313.121.64-.426.744a6.243,6.243,0,0,0-4.406,3.281v.791c.794.907,1.625,1.04,2.136.22,1.018-1.635,2.494-2.067,4.31-2.065q34.1.034,68.2.015c.316,0,.633,0,.949.016a3.81,3.81,0,0,1,3.057,1.7c.777,1.1,1.487,1.127,2.38.114v-.791A6.492,6.492,0,0,0,1013.4,1663.41Z" transform="translate(-938.5 -1613.39)" fill="#fff"/>
        <path id="Trazado_123895" data-name="Trazado 123895" d="M977.021,1607.2q0,10.522,0,21.044a6.58,6.58,0,0,0,.057,1.024,2.182,2.182,0,0,0,3.158,1.643,3.365,3.365,0,0,0,1.291-1.019,1.371,1.371,0,0,1,1.284-.547q20.767.019,41.535.011c3.039,0,4.735,1.7,4.74,4.756q.006,3.244,0,6.487a1.409,1.409,0,0,0,.477,1.275,1.094,1.094,0,0,0,1.186.145,1.213,1.213,0,0,0,.709-1.216q0-3.362,0-6.724a8.3,8.3,0,0,0-.154-1.887,6.631,6.631,0,0,0-6.739-5.208q-16.455-.009-32.911,0H984.2a4.091,4.091,0,0,1,3.842-2.214c11.866.074,23.734.007,35.6.063a3.355,3.355,0,0,0,3.67-3.7c-.1-4.666-.03-9.335-.031-14,0-2.407-1.168-3.563-3.6-3.563H980.642C978.166,1603.572,977.022,1604.718,977.021,1607.2Zm2.374,20.645q0-10.323,0-20.647c0-1.141.116-1.254,1.277-1.254h42.955c1.172,0,1.279.1,1.279,1.242q0,7.04,0,14.081c0,1.055-.108,1.165-1.189,1.165q-18,0-35.993-.011a5.439,5.439,0,0,0-4.628,2.067c-1.109,1.4-2.357,2.689-3.7,4.2Z" transform="translate(-955.269 -1595.35)" fill="#fff"/>
        <path id="Trazado_123896" data-name="Trazado 123896" d="M990.459,1654.676c-9.307-.024-18.614-.008-27.921-.009a5.253,5.253,0,0,0-2.723.68,5.043,5.043,0,0,0-2.359,5.63,4.978,4.978,0,0,0,4.8,3.748c4.746.025,9.492.007,14.237.009q6.881,0,13.763,0a6.3,6.3,0,0,0,1.495-.105,5.08,5.08,0,0,0,3.936-5.294A5.008,5.008,0,0,0,990.459,1654.676Zm1,7.574a3.67,3.67,0,0,1-1.174.109q-6.883,0-13.765,0c-4.72,0-9.44.008-14.16-.005a2.63,2.63,0,0,1-2.667-2.229,2.7,2.7,0,0,1,1.692-2.9,3.312,3.312,0,0,1,1.243-.178q13.884,0,27.767,0a2.671,2.671,0,0,1,1.064,5.206Z" transform="translate(-946.684 -1617.591)" fill="#fff"/>
        <path id="Trazado_123897" data-name="Trazado 123897" d="M1030.375,1659.008a5.312,5.312,0,1,0,10.625-.048,5.312,5.312,0,0,0-10.625.048Zm8.25.031a2.933,2.933,0,0,1-2.943,2.893,2.892,2.892,0,0,1-2.932-2.887,2.926,2.926,0,0,1,2.924-2.989A2.977,2.977,0,0,1,1038.625,1659.039Z" transform="translate(-978.497 -1617.165)" fill="#fff"/>
        <path id="Trazado_123898" data-name="Trazado 123898" d="M1055.488,1661.114a11.98,11.98,0,0,0-1.064,1.056,1.188,1.188,0,1,0,1.653,1.679c.835-.8,1.641-1.635,2.462-2.451a1.216,1.216,0,0,0,.38-.919,1.153,1.153,0,0,0-.363-.844c-.858-.854-1.7-1.727-2.573-2.563a1.142,1.142,0,0,0-1.688-.006,1.161,1.161,0,0,0,.04,1.692,9.339,9.339,0,0,0,1.179,1.162C1056.107,1660.37,1056,1660.7,1055.488,1661.114Z" transform="translate(-988.759 -1618.477)" fill="#fff"/>
        <path id="Trazado_123899" data-name="Trazado 123899" d="M968.8,1596.872a1.2,1.2,0,0,0,1.815.106,1.211,1.211,0,0,0-.171-1.814c-.772-.79-1.565-1.561-2.344-2.346a1.541,1.541,0,0,0-.971-.5,1.187,1.187,0,0,0-1.069.667,1.124,1.124,0,0,0,.229,1.375C967.12,1595.2,967.951,1596.047,968.8,1596.872Z" transform="translate(-950.438 -1590.45)" fill="#fff"/>
        <path id="Trazado_123900" data-name="Trazado 123900" d="M978.249,1594.322a1.119,1.119,0,0,0,1.119-1.113c.034-.5.007-1,.007-1.5h.015q0-.673,0-1.345c0-.053,0-.106-.007-.158a1.209,1.209,0,0,0-1.14-1.191,1.157,1.157,0,0,0-1.2,1.121c-.046,1.026-.046,2.058,0,3.084A1.122,1.122,0,0,0,978.249,1594.322Z" transform="translate(-955.264 -1589.012)" fill="#fff"/>
        <path id="Trazado_123901" data-name="Trazado 123901" d="M964.307,1606.148c.447.024.9,0,1.345,0,.474,0,.95.022,1.424-.006a1.178,1.178,0,0,0-.034-2.356c-.922-.027-1.846-.03-2.768,0a1.139,1.139,0,0,0-1.155,1.155A1.152,1.152,0,0,0,964.307,1606.148Z" transform="translate(-949.217 -1595.436)" fill="#fff"/>
        <path id="Trazado_123902" data-name="Trazado 123902" d="M989.343,1623.443c.68.068,1.192-.36,1.451-1.187.5-1.591.988-3.184,1.535-4.95.555,1.79,1.062,3.416,1.563,5.044a1.333,1.333,0,0,0,1.441,1.09,1.4,1.4,0,0,0,1.323-1.256c.131-.671.266-1.341.4-2.011.434-2.166.873-4.331,1.3-6.5a1.2,1.2,0,0,0-.863-1.536,1.186,1.186,0,0,0-1.468,1.06c-.063.282-.11.568-.168.852-.255,1.255-.51,2.509-.812,3.988-.534-1.74-1-3.242-1.455-4.75-.194-.649-.477-1.2-1.257-1.194s-1.053.539-1.248,1.2c-.445,1.507-.933,3-1.4,4.5l-.125-.007c-.3-1.521-.6-3.044-.921-4.56-.186-.876-.689-1.244-1.423-1.109-.71.13-1.045.708-.879,1.57q.814,4.222,1.644,8.441A1.462,1.462,0,0,0,989.343,1623.443Z" transform="translate(-959.306 -1599.059)" fill="#fff"/>
        <path id="Trazado_123903" data-name="Trazado 123903" d="M1012.351,1622.1a1.47,1.47,0,0,0,1.414,1.349c.812,0,1.2-.5,1.422-1.234.473-1.585.976-3.161,1.47-4.752a1.107,1.107,0,0,1,.274.566c.427,1.408.864,2.813,1.291,4.22a1.445,1.445,0,0,0,1.453,1.208c.691-.006,1.2-.538,1.37-1.392q.833-4.139,1.66-8.277c.179-.888-.161-1.525-.883-1.652-.757-.134-1.248.267-1.439,1.192-.307,1.488-.608,2.978-.911,4.468l-.131-.03c-.483-1.554-.974-3.106-1.447-4.664a1.222,1.222,0,0,0-.918-.974c-.693-.151-1.209.182-1.463.986-.5,1.57-.976,3.146-1.528,4.926-.358-1.768-.656-3.315-.988-4.855-.183-.85-.726-1.218-1.455-1.055a1.163,1.163,0,0,0-.841,1.529Q1011.518,1617.876,1012.351,1622.1Z" transform="translate(-969.915 -1599.057)" fill="#fff"/>
        <path id="Trazado_123904" data-name="Trazado 123904" d="M1036.249,1622.194a1.406,1.406,0,0,0,2.786.072c.475-1.585.977-3.162,1.536-4.959.559,1.8,1.064,3.4,1.548,5a1.4,1.4,0,0,0,1.414,1.145,1.449,1.449,0,0,0,1.36-1.306c.245-1.158.475-2.319.709-3.479.332-1.65.67-3.3.988-4.953a1.208,1.208,0,0,0-.894-1.583c-.737-.134-1.263.268-1.442,1.107-.066.309-.1.624-.179.93a28,28,0,0,1-.846,3.667c-.507-1.633-1-3.184-1.467-4.743a1.19,1.19,0,0,0-1.158-1,1.208,1.208,0,0,0-1.229,1.017c-.148.477-.288.956-.437,1.432q-.511,1.641-1.025,3.279c-.411-1.522-.7-3.015-.993-4.508-.125-.639-.391-1.158-1.133-1.22a1.148,1.148,0,0,0-1.22,1.5Q1035.378,1617.9,1036.249,1622.194Z" transform="translate(-980.307 -1599.059)" fill="#fff"/>
        <path id="Trazado_123905" data-name="Trazado 123905" d="M975.848,1661.555q-4.786-.014-9.573,0c-.908,0-1.446.484-1.421,1.229.023.708.54,1.135,1.42,1.14,1.556.009,3.111,0,4.668,0,1.635,0,3.27.008,4.9,0,.883-.006,1.37-.439,1.37-1.176S976.714,1661.557,975.848,1661.555Z" transform="translate(-949.973 -1620.589)" fill="#fff"/>
      </g>
    </g>
  </g>
</svg>
