<svg xmlns="http://www.w3.org/2000/svg" xmlns:xlink="http://www.w3.org/1999/xlink" width="148" height="130.721" viewBox="0 0 148 130.721">
  <defs>
    <filter id="Rectángulo_32715" x="18.5" y="6.5" width="113" height="115.721" filterUnits="userSpaceOnUse">
      <feOffset input="SourceAlpha"/>
      <feGaussianBlur stdDeviation="2.5" result="blur"/>
      <feFlood flood-opacity="0.29"/>
      <feComposite operator="in" in2="blur"/>
      <feComposite in="SourceGraphic"/>
    </filter>
  </defs>
  <g id="Grupo_74247" data-name="Grupo 74247" transform="translate(-172 -7556)">
    <g id="Rectángulo_32714" data-name="Rectángulo 32714" transform="translate(183.887 7556)" fill="none" stroke="#d57700" stroke-linecap="round" stroke-linejoin="round" stroke-width="8">
      <rect width="125" height="123.721" rx="17" stroke="none"/>
      <rect x="4" y="4" width="117" height="115.721" rx="13" fill="none"/>
    </g>
    <rect id="Rectángulo_32716" data-name="Rectángulo 32716" width="148" height="86.721" rx="6" transform="translate(172 7600)" fill="#f6f6f6"/>
    <g transform="matrix(1, 0, 0, 1, 172, 7556)" filter="url(#Rectángulo_32715)">
      <rect id="Rectángulo_32715-2" data-name="Rectángulo 32715" width="98" height="100.721" rx="15" transform="translate(26 14)" fill="#fb8c00"/>
    </g>
    <g id="Grupo_78486" data-name="Grupo 78486" transform="translate(-909.055 5994.306)">
      <path id="Trazado_123906" data-name="Trazado 123906" d="M1170.684,1654.716c.008.668,0,1.336,0,2,0,.647.009,1.294,0,1.94.01-.647,0-1.293,0-1.94C1170.686,1656.052,1170.692,1655.384,1170.684,1654.716Z" transform="translate(-25.649 -30.612)" fill="#fff"/>
      <path id="Trazado_123907" data-name="Trazado 123907" d="M1145.165,1630.137h0Z" transform="translate(-11.629 -17.107)" fill="#fff"/>
      <path id="Trazado_123908" data-name="Trazado 123908" d="M1184.849,1599H1130.27c-1.085,0-2.17-.013-3.255,0a3.019,3.019,0,0,0-2.832,2c-.05.131-.122.252-.183.378v51.089a1.422,1.422,0,0,0,1.258.637q30.795-.02,61.59-.012c.939,0,1.263-.331,1.263-1.284q0-24.786,0-49.572A3.044,3.044,0,0,0,1184.849,1599Zm-53.364,2.047h2.087c-.525.576-.656.943-.384,1.417a2.982,2.982,0,0,0,.407.522h-2.13C1132.208,1602.222,1132.207,1601.806,1131.486,1601.052Zm-3.017.007h2.022a2.732,2.732,0,0,0-.415.971c-.006.316.271.637.436.983h-2.052C1129.2,1602.205,1129.2,1601.791,1128.469,1601.058Zm-.849-.023c-.76.742-.761,1.2.016,1.978h-1.565C1125.846,1601.426,1126.206,1600.964,1127.619,1601.035Zm58.46,50.026h-60.025v-46h60.025Zm-.022-48.076h-51.539c.687-.8.687-1.125-.015-1.976h49.9C1185.942,1601.009,1186.235,1601.35,1186.058,1602.985Z" fill="#fff"/>
      <path id="Trazado_123909" data-name="Trazado 123909" d="M1142.968,1604.97c-.272-.474-.141-.84.384-1.417h0C1142.827,1604.129,1142.7,1604.5,1142.968,1604.97Z" transform="translate(-9.78 -2.501)" fill="#fff"/>
      <path id="Trazado_123910" data-name="Trazado 123910" d="M1136.651,1627.035h51.085c1.173,0,1.471-.3,1.471-1.487q0-2.6,0-5.2c0-.974-.351-1.33-1.316-1.33q-25.731,0-51.461,0c-.964,0-1.311.357-1.314,1.332,0,1.711,0,3.423,0,5.134C1135.115,1626.756,1135.392,1627.035,1136.651,1627.035Zm46.575-5.966h3.939V1625h-3.939Zm-46.076-.014h44v3.936h-44Z" transform="translate(-6.106 -11)" fill="#fff"/>
      <path id="Trazado_123911" data-name="Trazado 123911" d="M1236.288,1645.711a5.5,5.5,0,1,0,5.447,5.563A5.563,5.563,0,0,0,1236.288,1645.711Zm-.111,9a3.5,3.5,0,1,1,3.555-3.463A3.524,3.524,0,0,1,1236.176,1654.715Z" transform="translate(-58.637 -25.664)" fill="#fff"/>
      <path id="Trazado_123912" data-name="Trazado 123912" d="M1236.312,1679.057a5.5,5.5,0,1,0,5.422,5.586A5.557,5.557,0,0,0,1236.312,1679.057Zm-.033,9a3.5,3.5,0,1,1,3.453-3.5A3.523,3.523,0,0,1,1236.279,1688.061Z" transform="translate(-58.638 -43.984)" fill="#fff"/>
      <path id="Trazado_123913" data-name="Trazado 123913" d="M1180.155,1647.938c-.6-.149-.963.2-1.251.7-.623,1.083-1.276,2.147-1.989,3.339-.733-1.231-1.4-2.354-2.07-3.478a1,1,0,0,0-1.2-.549.973.973,0,0,0-.734,1.033c.005,2.587,0,5.175.006,7.761,0,.739.411,1.187,1.017,1.175s.974-.462.98-1.213c.009-1.168,0-2.337.005-3.5,0-.148.03-.3.059-.57.359.6.651,1.083.934,1.568.58,1,1.432,1.008,2.007.022.289-.5.586-.986.879-1.479a1.164,1.164,0,0,1,.126.622c0,1.168-.014,2.337.01,3.505a.993.993,0,0,0,1.012,1.049,1.016,1.016,0,0,0,.977-1.026c.01-.124,0-.25,0-.375,0-2.441-.01-4.882.008-7.323C1180.935,1648.584,1180.786,1648.095,1180.155,1647.938Z" transform="translate(-26.871 -26.868)" fill="#fff"/>
      <path id="Trazado_123914" data-name="Trazado 123914" d="M1146.774,1681.268c-.615.013-.977.477-.984,1.275-.006.647,0,1.294,0,1.941v1.271a1.391,1.391,0,0,1-.394-.518q-.821-1.651-1.638-3.3a1.007,1.007,0,0,0-1.211-.646.983.983,0,0,0-.768,1.07c.009,2.567,0,5.133.007,7.7,0,.815.517,1.334,1.169,1.188a1.037,1.037,0,0,0,.832-1.158c0-1.1,0-2.2,0-3.3l.132-.019c.615,1.229,1.248,2.45,1.837,3.691.262.551.6.9,1.245.795.536-.091.792-.505.792-1.236q0-3.693,0-7.386c0-.021,0-.042,0-.063C1147.783,1681.731,1147.411,1681.255,1146.774,1681.268Z" transform="translate(-9.768 -45.19)" fill="#fff"/>
      <path id="Trazado_123915" data-name="Trazado 123915" d="M1163.35,1652.993c0-.667.006-1.335,0-2a3,3,0,1,0-6.006-.015q-.02,1.971,0,3.943a3,3,0,1,0,6.005.015C1163.359,1654.287,1163.35,1653.64,1163.35,1652.993Zm-2.007,1.809a1.005,1.005,0,1,1-1.995,0c-.014-1.251-.016-2.5,0-3.754a1,1,0,1,1,1.992,0c0,.161.007.323.008.485,0,.485,0,.97,0,1.455C1161.346,1653.592,1161.358,1654.2,1161.343,1654.8Z" transform="translate(-18.314 -26.886)" fill="#fff"/>
      <path id="Trazado_123916" data-name="Trazado 123916" d="M1144.678,1657.939a3.026,3.026,0,0,0,3.091-2.688,1.058,1.058,0,0,0-.875-1.294c-.538-.066-.964.3-1.1.956-.018.082-.02.167-.044.246a.953.953,0,0,1-1.01.763.888.888,0,0,1-.92-.86q-.062-2.125,0-4.252a.887.887,0,0,1,.924-.855.95.95,0,0,1,1.006.77c.058.2.031.469.155.593.249.246.585.579.87.565a1.518,1.518,0,0,0,.905-.6,1.152,1.152,0,0,0,.068-.781,3,3,0,0,0-5.962.347c-.022.688,0,1.376,0,2.065,0,.532-.011,1.064-.007,1.6,0,.177,0,.354.011.531A3.027,3.027,0,0,0,1144.678,1657.939Z" transform="translate(-9.765 -26.887)" fill="#fff"/>
      <path id="Trazado_123917" data-name="Trazado 123917" d="M1141.781,1656.459c0-.688-.019-1.377,0-2.065-.022.688,0,1.376,0,2.065,0,.532-.011,1.064-.007,1.6C1141.77,1657.523,1141.781,1656.991,1141.781,1656.459Z" transform="translate(-9.765 -30.435)" fill="#fff"/>
      <path id="Trazado_123918" data-name="Trazado 123918" d="M1161.274,1683.255a1,1,0,1,0,0-1.989c-.98-.021-1.961-.019-2.941,0a.941.941,0,0,0-.984.988q-.018,4,0,8.01a.954.954,0,0,0,1.027,1.009q1.407.022,2.816,0a1.029,1.029,0,0,0,1.151-.979c.012-.6-.443-1-1.176-1.018-.58-.011-1.161,0-1.791,0v-1.994c.789-.052,1.872.22,1.927-.941.062-1.332-1.146-.99-1.924-1.1v-1.974C1160.033,1683.26,1160.654,1683.277,1161.274,1683.255Z" transform="translate(-18.319 -45.191)" fill="#fff"/>
      <path id="Trazado_123919" data-name="Trazado 123919" d="M1175.714,1681.275q-2-.041-4,0a.987.987,0,0,0-1,1,1.013,1.013,0,0,0,1.016.985c.305.021.614,0,.978,0V1684c0,2.044-.007,4.089,0,6.133a1.022,1.022,0,0,0,.992,1.137c.58,0,.976-.438,1.006-1.126.006-.146,0-.292,0-.438v-6.443c.384,0,.677.016.967,0a1.012,1.012,0,0,0,1.026-.974A.985.985,0,0,0,1175.714,1681.275Z" transform="translate(-25.664 -45.193)" fill="#fff"/>
      <path id="Trazado_123920" data-name="Trazado 123920" d="M1210.6,1685.715q-3.756-.009-7.513,0c-.787,0-1.255.389-1.25,1.007s.47.989,1.265.993c1.252.006,2.5,0,3.756,0s2.5.006,3.757,0c.749-.005,1.2-.379,1.219-.975C1211.849,1686.118,1211.381,1685.717,1210.6,1685.715Z" transform="translate(-42.765 -47.641)" fill="#fff"/>
      <path id="Trazado_123921" data-name="Trazado 123921" d="M1208.4,1690.158c-1.252,0-2.5,0-3.756,0,1.252.006,2.5,0,3.756,0s2.5.006,3.757,0C1210.905,1690.164,1209.653,1690.158,1208.4,1690.158Z" transform="translate(-44.308 -50.084)" fill="#fff"/>
      <path id="Trazado_123922" data-name="Trazado 123922" d="M1203.1,1654.369q.939,0,1.878,0h1.878l1.878,0q.94,0,1.878,0c.755-.005,1.2-.372,1.225-.969.021-.62-.448-1.028-1.228-1.03q-3.757-.01-7.513,0c-.794,0-1.257.383-1.256,1S1202.3,1654.365,1203.1,1654.369Z" transform="translate(-42.766 -29.32)" fill="#fff"/>
      <path id="Trazado_123923" data-name="Trazado 123923" d="M1208.8,1656.818h1.878l1.878,0-1.878,0Z" transform="translate(-46.591 -31.766)" fill="#fff"/>
      <path id="Trazado_123924" data-name="Trazado 123924" d="M1206.695,1692.383q-.235-.005-.469-.007c-.47,0-.939,0-1.409,0-.626,0-1.253-.014-1.878,0a1,1,0,1,0,0,1.993q1.878.025,3.756,0a1.006,1.006,0,1,0,0-2Z" transform="translate(-42.765 -51.303)" fill="#fff"/>
      <path id="Trazado_123925" data-name="Trazado 123925" d="M1206.162,1692.38c.469,0,.939-.007,1.409,0-.47,0-.939,0-1.409,0-.626,0-1.253-.014-1.878,0C1204.91,1692.366,1205.536,1692.38,1206.162,1692.38Z" transform="translate(-44.11 -51.303)" fill="#fff"/>
      <path id="Trazado_123926" data-name="Trazado 123926" d="M1202.97,1661.027q.235.005.469.007c.469,0,.939,0,1.409,0,.626,0,1.253.014,1.878,0a1,1,0,1,0,0-1.992c-1.252-.018-2.5-.017-3.756,0a1.022,1.022,0,0,0-1.131,1C1201.837,1660.617,1202.271,1661.01,1202.97,1661.027Z" transform="translate(-42.765 -32.977)" fill="#fff"/>
      <path id="Trazado_123927" data-name="Trazado 123927" d="M1206.8,1663.475c-.469,0-.939.007-1.409,0,.469,0,.939,0,1.409,0,.626,0,1.253.014,1.878,0C1208.056,1663.489,1207.429,1663.475,1206.8,1663.475Z" transform="translate(-44.72 -35.422)" fill="#fff"/>
      <path id="Trazado_123928" data-name="Trazado 123928" d="M1136.181,1665.727a.992.992,0,1,0,.019,1.985.992.992,0,0,0-.019-1.985Z" transform="translate(-6.151 -36.662)" fill="#fff"/>
      <path id="Trazado_123929" data-name="Trazado 123929" d="M1136.165,1699.076a.993.993,0,1,0,.05,1.986.993.993,0,0,0-.05-1.986Z" transform="translate(-6.15 -54.984)" fill="#fff"/>
      <path id="Trazado_123930" data-name="Trazado 123930" d="M1166.24,1655.92c0,.485,0,.97,0,1.455,0,.6.012,1.21,0,1.814.015-.6,0-1.21,0-1.814C1166.236,1656.89,1166.244,1656.4,1166.24,1655.92Z" transform="translate(-23.204 -31.273)" fill="#fff"/>
      <path id="Trazado_123931" data-name="Trazado 123931" d="M1160.878,1625.7a4.209,4.209,0,0,0-.5-.012q-8.566,0-17.132,0a2.9,2.9,0,0,0-.561.024.987.987,0,0,0,.02,1.959,3.834,3.834,0,0,0,.624.018h15.256c.75,0,1.5.019,2.25-.011a.992.992,0,0,0,.995-1A1.017,1.017,0,0,0,1160.878,1625.7Z" transform="translate(-9.793 -14.663)" fill="#fff"/>
      <path id="Trazado_123932" data-name="Trazado 123932" d="M1240.61,1654.988c-.389.374-.733.794-1.125,1.225-.19-.153-.252-.205-.317-.255-.59-.451-1.1-.457-1.5-.019s-.346.968.152,1.5c.256.273.519.542.79.8a1,1,0,0,0,1.544.035q.946-.91,1.851-1.864a1,1,0,0,0,.1-1.5A.986.986,0,0,0,1240.61,1654.988Z" transform="translate(-62.307 -30.55)" fill="#fff"/>
      <path id="Trazado_123933" data-name="Trazado 123933" d="M1242.023,1686.01c-.947-.936-1.5.263-2.166.7-.679-.461-1.235-1.647-2.181-.689s.27,1.5.705,2.17c-.463.673-1.577,1.156-.708,2.193.465.556.927.381,2.177-.73.683.474,1.244,1.651,2.187.7s-.26-1.5-.709-2.174C1241.8,1687.514,1242.977,1686.952,1242.023,1686.01Z" transform="translate(-62.265 -47.614)" fill="#fff"/>
    </g>
  </g>
</svg>
