<svg xmlns="http://www.w3.org/2000/svg" xmlns:xlink="http://www.w3.org/1999/xlink" width="148" height="130.721" viewBox="0 0 148 130.721">
  <defs>
    <filter id="Rectángulo_32715" x="18.228" y="6.5" width="113" height="115.721" filterUnits="userSpaceOnUse">
      <feOffset input="SourceAlpha"/>
      <feGaussianBlur stdDeviation="2.5" result="blur"/>
      <feFlood flood-opacity="0.29"/>
      <feComposite operator="in" in2="blur"/>
      <feComposite in="SourceGraphic"/>
    </filter>
  </defs>
  <g id="Grupo_74248" data-name="Grupo 74248" transform="translate(-172 -7556)">
    <g id="Rectángulo_32714" data-name="Rectángulo 32714" transform="translate(183.887 7556)" fill="none" stroke="#b2ebf2" stroke-linecap="round" stroke-linejoin="round" stroke-width="8">
      <rect width="125" height="123.721" rx="17" stroke="none"/>
      <rect x="4" y="4" width="117" height="115.721" rx="13" fill="none"/>
    </g>
    <rect id="Rectángulo_32716" data-name="Rectángulo 32716" width="148" height="86.721" rx="6" transform="translate(172 7600)" fill="#f6f6f6"/>
    <g transform="matrix(1, 0, 0, 1, 172, 7556)" filter="url(#Rectángulo_32715)">
      <rect id="Rectángulo_32715-2" data-name="Rectángulo 32715" width="98" height="100.721" rx="15" transform="translate(25.73 14)" fill="#70bdc6"/>
    </g>
    <g id="Grupo_78490" data-name="Grupo 78490" transform="translate(-903.272 5779)">
      <path id="Trazado_123934" data-name="Trazado 123934" d="M1163.684,1868.716c.008.7,0,1.4,0,2.106,0,.68.009,1.36,0,2.04.011-.68,0-1.36,0-2.04C1163.686,1870.12,1163.693,1869.418,1163.684,1868.716Z" transform="translate(-24.568 -29.322)" fill="#fff"/>
      <path id="Trazado_123935" data-name="Trazado 123935" d="M1138.165,1844.137h0Z" transform="translate(-11.139 -16.386)" fill="#fff"/>
      <path id="Trazado_123936" data-name="Trazado 123936" d="M1180.976,1813h-57.384c-1.141,0-2.281-.013-3.422,0a3.174,3.174,0,0,0-2.978,2.1c-.053.137-.128.265-.193.4v53.714a1.5,1.5,0,0,0,1.322.67q32.377-.021,64.755-.012c.988,0,1.328-.348,1.328-1.35q0-26.06,0-52.12A3.2,3.2,0,0,0,1180.976,1813Zm-56.106,2.153h2.194c-.552.606-.69.991-.4,1.489a3.125,3.125,0,0,0,.428.549h-2.24C1125.63,1816.387,1125.629,1815.95,1124.87,1815.157Zm-3.172.007h2.126a2.874,2.874,0,0,0-.436,1.021c-.007.332.285.67.459,1.033h-2.158C1122.472,1816.37,1122.469,1815.934,1121.7,1815.164Zm-.893-.025c-.8.781-.8,1.266.017,2.079h-1.645C1118.941,1815.551,1119.319,1815.065,1120.805,1815.139Zm61.464,52.6h-63.11v-48.364h63.11Zm-.023-50.546H1128.06c.722-.839.722-1.183-.016-2.078H1180.5C1182.125,1815.112,1182.434,1815.471,1182.247,1817.19Z" fill="#fff"/>
      <path id="Trazado_123937" data-name="Trazado 123937" d="M1136.028,1819.042c-.286-.5-.149-.883.4-1.489h0C1135.88,1818.159,1135.742,1818.544,1136.028,1819.042Z" transform="translate(-9.368 -2.396)" fill="#fff"/>
      <path id="Trazado_123938" data-name="Trazado 123938" d="M1129.73,1841.447h53.711c1.233,0,1.546-.317,1.547-1.563q0-2.731,0-5.463c0-1.024-.369-1.4-1.384-1.4q-27.053,0-54.106,0c-1.013,0-1.379.375-1.381,1.4,0,1.8,0,3.6,0,5.4C1128.115,1841.154,1128.406,1841.447,1129.73,1841.447Zm48.968-6.272h4.142v4.131H1178.7Zm-48.444-.015h46.257v4.138h-46.257Z" transform="translate(-5.849 -10.537)" fill="#fff"/>
      <path id="Trazado_123939" data-name="Trazado 123939" d="M1229.574,1859.711a5.787,5.787,0,1,0,5.727,5.849A5.848,5.848,0,0,0,1229.574,1859.711Zm-.117,9.467a3.68,3.68,0,1,1,3.738-3.641A3.706,3.706,0,0,1,1229.457,1869.177Z" transform="translate(-56.166 -24.582)" fill="#fff"/>
      <path id="Trazado_123940" data-name="Trazado 123940" d="M1229.6,1893.057a5.787,5.787,0,1,0,5.7,5.873A5.843,5.843,0,0,0,1229.6,1893.057Zm-.035,9.467a3.682,3.682,0,1,1,3.631-3.683A3.7,3.7,0,0,1,1229.564,1902.524Z" transform="translate(-56.167 -42.131)" fill="#fff"/>
      <path id="Trazado_123941" data-name="Trazado 123941" d="M1156.659,1867.253c0-.7.007-1.4,0-2.106a3.158,3.158,0,1,0-6.315-.016q-.021,2.073,0,4.146a3.157,3.157,0,1,0,6.314.016C1156.668,1868.613,1156.659,1867.933,1156.659,1867.253Zm-2.11,1.9a1.057,1.057,0,1,1-2.1,0c-.015-1.315-.017-2.631,0-3.947a1.053,1.053,0,1,1,2.095,0c0,.17.007.34.009.51,0,.51,0,1.02,0,1.53C1154.552,1867.883,1154.565,1868.519,1154.549,1869.155Z" transform="translate(-17.542 -25.753)" fill="#fff"/>
      <path id="Trazado_123942" data-name="Trazado 123942" d="M1137.828,1872.453a3.181,3.181,0,0,0,3.249-2.826,1.113,1.113,0,0,0-.92-1.36c-.566-.069-1.013.318-1.16,1.005-.018.086-.021.176-.046.259a1,1,0,0,1-1.062.8.934.934,0,0,1-.967-.9q-.065-2.234,0-4.471a.932.932,0,0,1,.972-.9,1,1,0,0,1,1.057.809c.061.209.032.494.163.623.262.258.615.609.915.595a1.6,1.6,0,0,0,.952-.634,1.213,1.213,0,0,0,.072-.821,3.152,3.152,0,0,0-6.268.365c-.023.723,0,1.447,0,2.171,0,.559-.011,1.119-.007,1.678,0,.187.005.373.011.559A3.183,3.183,0,0,0,1137.828,1872.453Z" transform="translate(-9.353 -25.754)" fill="#fff"/>
      <path id="Trazado_123943" data-name="Trazado 123943" d="M1134.781,1870.565c0-.724-.019-1.448,0-2.171-.023.723,0,1.447,0,2.171,0,.559-.012,1.119-.007,1.678C1134.77,1871.684,1134.781,1871.125,1134.781,1870.565Z" transform="translate(-9.353 -29.152)" fill="#fff"/>
      <path id="Trazado_123944" data-name="Trazado 123944" d="M1138.476,1897.358a1.048,1.048,0,1,0,0-2.091c-1.031-.022-2.062-.02-3.092,0a.989.989,0,0,0-1.034,1.039q-.018,4.21,0,8.421a1,1,0,0,0,1.08,1.061q1.479.023,2.96,0a1.083,1.083,0,0,0,1.21-1.029c.013-.632-.466-1.055-1.236-1.071-.61-.012-1.221,0-1.883,0v-2.1c.829-.055,1.968.232,2.026-.989.066-1.4-1.2-1.041-2.022-1.161v-2.076C1137.171,1897.363,1137.824,1897.381,1138.476,1897.358Z" transform="translate(-9.127 -43.286)" fill="#fff"/>
      <path id="Trazado_123945" data-name="Trazado 123945" d="M1204.049,1899.715q-3.949-.009-7.9,0c-.828,0-1.319.409-1.315,1.059s.495,1.039,1.33,1.044c1.316.006,2.633,0,3.949,0s2.633.006,3.95,0c.788-.005,1.265-.4,1.281-1.025C1205.364,1900.138,1204.872,1899.717,1204.049,1899.715Z" transform="translate(-40.963 -45.633)" fill="#fff"/>
      <path id="Trazado_123946" data-name="Trazado 123946" d="M1201.593,1904.158c-1.316,0-2.633,0-3.949,0,1.316.006,2.633,0,3.949,0s2.634.006,3.95,0C1204.227,1904.164,1202.91,1904.158,1201.593,1904.158Z" transform="translate(-42.441 -47.973)" fill="#fff"/>
      <path id="Trazado_123947" data-name="Trazado 123947" d="M1196.161,1868.472q.988.005,1.975,0h1.974l1.975,0q.988,0,1.975,0c.794-.005,1.267-.391,1.288-1.019.022-.652-.471-1.081-1.291-1.083q-3.95-.011-7.9,0c-.835,0-1.322.4-1.32,1.053S1195.324,1868.468,1196.161,1868.472Z" transform="translate(-40.963 -28.084)" fill="#fff"/>
      <path id="Trazado_123948" data-name="Trazado 123948" d="M1201.8,1870.818h1.974l1.975,0-1.975,0Z" transform="translate(-44.628 -30.427)" fill="#fff"/>
      <path id="Trazado_123949" data-name="Trazado 123949" d="M1199.944,1906.383q-.246-.005-.494-.007c-.494,0-.987,0-1.481,0-.658,0-1.317-.015-1.975,0a1.053,1.053,0,1,0,0,2.1q1.974.026,3.949,0a1.057,1.057,0,1,0,0-2.1Z" transform="translate(-40.962 -49.14)" fill="#fff"/>
      <path id="Trazado_123950" data-name="Trazado 123950" d="M1199.259,1906.381c.494,0,.987-.008,1.481,0-.494,0-.987,0-1.481,0-.658,0-1.317-.015-1.975,0C1197.942,1906.365,1198.6,1906.381,1199.259,1906.381Z" transform="translate(-42.251 -49.14)" fill="#fff"/>
      <path id="Trazado_123951" data-name="Trazado 123951" d="M1196.028,1875.13q.247.006.494.007c.494,0,.988,0,1.481,0,.658,0,1.317.015,1.974,0a1.052,1.052,0,1,0,0-2.094c-1.316-.02-2.633-.018-3.949,0a1.074,1.074,0,0,0-1.19,1.051C1194.837,1874.7,1195.294,1875.113,1196.028,1875.13Z" transform="translate(-40.963 -31.587)" fill="#fff"/>
      <path id="Trazado_123952" data-name="Trazado 123952" d="M1199.875,1877.475c-.494,0-.988.008-1.481,0,.494,0,.988,0,1.481,0,.658,0,1.317.015,1.974,0C1201.192,1877.49,1200.533,1877.475,1199.875,1877.475Z" transform="translate(-42.835 -33.929)" fill="#fff"/>
      <path id="Trazado_123953" data-name="Trazado 123953" d="M1129.232,1879.727a1.043,1.043,0,1,0,.02,2.087,1.043,1.043,0,0,0-.02-2.087Z" transform="translate(-5.892 -35.117)" fill="#fff"/>
      <path id="Trazado_123954" data-name="Trazado 123954" d="M1129.215,1913.076a1.044,1.044,0,1,0,.052,2.088,1.044,1.044,0,0,0-.052-2.088Z" transform="translate(-5.891 -52.667)" fill="#fff"/>
      <path id="Trazado_123955" data-name="Trazado 123955" d="M1159.241,1869.92c0,.51,0,1.02,0,1.53,0,.636.013,1.272,0,1.908.016-.636,0-1.272,0-1.908C1159.236,1870.94,1159.244,1870.43,1159.241,1869.92Z" transform="translate(-22.226 -29.955)" fill="#fff"/>
      <path id="Trazado_123956" data-name="Trazado 123956" d="M1154.857,1839.7a4.408,4.408,0,0,0-.526-.012q-9.007,0-18.013,0a3.058,3.058,0,0,0-.59.026,1.037,1.037,0,0,0,.021,2.06,4.034,4.034,0,0,0,.656.019h16.04c.789,0,1.578.02,2.366-.012a1.043,1.043,0,0,0,1.046-1.05A1.07,1.07,0,0,0,1154.857,1839.7Z" transform="translate(-9.38 -14.045)" fill="#fff"/>
      <path id="Trazado_123957" data-name="Trazado 123957" d="M1233.775,1869.008c-.409.393-.771.835-1.182,1.288-.2-.161-.265-.216-.333-.268-.62-.474-1.158-.48-1.578-.02s-.364,1.018.16,1.578c.27.287.546.57.83.843a1.047,1.047,0,0,0,1.623.036q.994-.957,1.946-1.959a1.055,1.055,0,0,0,.107-1.578A1.036,1.036,0,0,0,1233.775,1869.008Z" transform="translate(-59.681 -29.263)" fill="#fff"/>
      <path id="Trazado_123958" data-name="Trazado 123958" d="M1233.775,1901.008c-.409.393-.771.835-1.182,1.288-.2-.161-.265-.216-.333-.268-.62-.474-1.158-.48-1.578-.02s-.364,1.018.16,1.578c.27.287.546.57.83.843a1.047,1.047,0,0,0,1.623.036q.994-.957,1.946-1.959a1.055,1.055,0,0,0,.107-1.578A1.036,1.036,0,0,0,1233.775,1901.008Z" transform="translate(-59.681 -46.103)" fill="#fff"/>
      <g id="Grupo_78487" data-name="Grupo 78487" transform="translate(1131.794 1851.777)">
        <path id="Trazado_123959" data-name="Trazado 123959" d="M1152.835,1897.23v.038a.659.659,0,0,1-.659.659h-.217a.659.659,0,0,1-.659-.659v-.109a.768.768,0,0,0-1.535,0,3.38,3.38,0,0,0,1.535,2.764,3.961,3.961,0,0,1,1.535,3.386,2.3,2.3,0,0,1-2.083,2.285,2.377,2.377,0,0,1-2.074-.924,2.205,2.205,0,0,1-.45-1.37v-.253a.515.515,0,0,1,.515-.515h.505a.515.515,0,0,1,.515.515v.253a.768.768,0,0,0,1.535,0,3.379,3.379,0,0,0-1.535-2.764,3.959,3.959,0,0,1-1.535-3.383,2.3,2.3,0,0,1,4.066-1.478A2.357,2.357,0,0,1,1152.835,1897.23Z" transform="translate(-1148.229 -1894.856)" fill="#fff"/>
      </g>
    </g>
  </g>
</svg>
