<svg xmlns="http://www.w3.org/2000/svg" xmlns:xlink="http://www.w3.org/1999/xlink" width="201" height="178.86" viewBox="0 0 201 178.86">
  <defs>
    <filter id="Trazado_134416" x="18" y="5" width="165" height="162" filterUnits="userSpaceOnUse">
      <feOffset input="SourceAlpha"/>
      <feGaussianBlur stdDeviation="3" result="blur"/>
      <feFlood flood-opacity="0.29"/>
      <feComposite operator="in" in2="blur"/>
      <feComposite in="SourceGraphic"/>
    </filter>
  </defs>
  <g id="Grupo_79541" data-name="Grupo 79541" transform="translate(362 4414.579)">
    <g id="Trazado_134415" data-name="Trazado 134415" transform="translate(-349 -4414.579)" fill="none" stroke-linecap="round">
      <path d="M17.855,0H156.5a17.855,17.855,0,0,1,17.855,17.855V149.145A17.855,17.855,0,0,1,156.5,167H17.855A17.855,17.855,0,0,1,0,149.145V17.855A17.855,17.855,0,0,1,17.855,0Z" stroke="none"/>
      <path d="M 17.85533142089844 8 C 12.42109680175781 8 8 12.42108154296875 8 17.8553466796875 L 8 149.1446533203125 C 8 154.5789184570312 12.42109680175781 159 17.85533142089844 159 L 156.4968566894531 159 C 161.9310913085938 159 166.3521881103516 154.5789184570312 166.3521881103516 149.1446533203125 L 166.3521881103516 17.8553466796875 C 166.3521881103516 12.42108154296875 161.9310913085938 8 156.4968566894531 8 L 17.85533142089844 8 M 17.85533142089844 0 L 156.4968566894531 0 C 166.3580627441406 0 174.3521881103516 7.994110107421875 174.3521881103516 17.8553466796875 L 174.3521881103516 149.1446533203125 C 174.3521881103516 159.0058898925781 166.3580627441406 167 156.4968566894531 167 L 17.85533142089844 167 C 7.994094848632812 167 0 159.0058898925781 0 149.1446533203125 L 0 17.8553466796875 C 0 7.994110107421875 7.994094848632812 0 17.85533142089844 0 Z" stroke="none" fill="#2e74bc"/>
    </g>
    <path id="Trazado_134419" data-name="Trazado 134419" d="M6,0H195a6,6,0,0,1,6,6V112.721a6,6,0,0,1-6,6H6a6,6,0,0,1-6-6V6A6,6,0,0,1,6,0Z" transform="translate(-362 -4354.439)" fill="#f6f6f6"/>
    <g transform="matrix(1, 0, 0, 1, -362, -4414.58)" filter="url(#Trazado_134416)">
      <path id="Trazado_134416-2" data-name="Trazado 134416" d="M15,0H132a15,15,0,0,1,15,15V129a15,15,0,0,1-15,15H15A15,15,0,0,1,0,129V15A15,15,0,0,1,15,0Z" transform="translate(27 14)" fill="#4699ed"/>
    </g>
    <path id="Trazado_134420" data-name="Trazado 134420" d="M-37.782-2.8a1.128,1.128,0,0,0-.439-.956,5.764,5.764,0,0,0-1.582-.7,11.215,11.215,0,0,1-1.809-.729A2.956,2.956,0,0,1-43.429-7.83a2.575,2.575,0,0,1,.487-1.542,3.177,3.177,0,0,1,1.4-1.058,5.265,5.265,0,0,1,2.047-.381,4.793,4.793,0,0,1,2.036.414,3.242,3.242,0,0,1,1.388,1.168,3.057,3.057,0,0,1,.494,1.714h-2.2a1.438,1.438,0,0,0-.461-1.139,1.9,1.9,0,0,0-1.3-.406,2.026,2.026,0,0,0-1.252.341,1.074,1.074,0,0,0-.447.9,1.029,1.029,0,0,0,.524.872,5.916,5.916,0,0,0,1.542.659,6.661,6.661,0,0,1,2.732,1.4,2.786,2.786,0,0,1,.857,2.08A2.566,2.566,0,0,1-36.625-.641a4.585,4.585,0,0,1-2.82.787A5.445,5.445,0,0,1-41.686-.3a3.546,3.546,0,0,1-1.542-1.234,3.161,3.161,0,0,1-.531-1.816h2.2q0,1.765,2.109,1.765a2.052,2.052,0,0,0,1.223-.319A1.037,1.037,0,0,0-37.782-2.8Zm8.3,1.992a2.654,2.654,0,0,1-2.168.952A2.5,2.5,0,0,1-33.6-.586a3.127,3.127,0,0,1-.685-2.146V-7.925h2.117V-2.8q0,1.239,1.128,1.239a1.528,1.528,0,0,0,1.479-.748V-7.925h2.124V0h-1.992ZM-18.7-3.889a4.8,4.8,0,0,1-.813,2.97A2.693,2.693,0,0,1-21.779.146a2.474,2.474,0,0,1-2.058-.989l-.1.842h-1.9V-11.25h2.117v4.036a2.411,2.411,0,0,1,1.926-.857,2.715,2.715,0,0,1,2.274,1.066,4.806,4.806,0,0,1,.824,3Zm-2.117-.161a3.17,3.17,0,0,0-.381-1.76,1.287,1.287,0,0,0-1.135-.555,1.4,1.4,0,0,0-1.392.83V-2.4a1.415,1.415,0,0,0,1.406.837,1.307,1.307,0,0,0,1.348-1.014A5.245,5.245,0,0,0-20.812-4.051Zm3.091.03a4.776,4.776,0,0,1,.831-2.952,2.7,2.7,0,0,1,2.274-1.1,2.427,2.427,0,0,1,1.912.864V-11.25h2.124V0h-1.912l-.1-.842A2.491,2.491,0,0,1-14.63.146a2.69,2.69,0,0,1-2.245-1.1A4.93,4.93,0,0,1-17.721-4.021Zm2.117.151a3.146,3.146,0,0,0,.388,1.714,1.263,1.263,0,0,0,1.128.6A1.416,1.416,0,0,0-12.7-2.391V-5.533a1.4,1.4,0,0,0-1.37-.831Q-15.6-6.365-15.6-3.87Zm6.335-.165a4.7,4.7,0,0,1,.454-2.1A3.324,3.324,0,0,1-7.507-7.566a3.814,3.814,0,0,1,1.981-.505,3.609,3.609,0,0,1,2.618.981A3.939,3.939,0,0,1-1.776-4.424l.015.542A4.142,4.142,0,0,1-2.78-.956,3.539,3.539,0,0,1-5.511.146a3.556,3.556,0,0,1-2.736-1.1A4.215,4.215,0,0,1-9.269-3.94Zm2.117.15a2.962,2.962,0,0,0,.425,1.727,1.4,1.4,0,0,0,1.216.6,1.4,1.4,0,0,0,1.2-.591,3.241,3.241,0,0,0,.432-1.889A2.933,2.933,0,0,0-4.31-5.756a1.4,1.4,0,0,0-1.216-.609,1.382,1.382,0,0,0-1.2.605A3.3,3.3,0,0,0-7.152-3.885ZM1.527-7.925l.066.886A2.785,2.785,0,0,1,3.871-8.071a2.114,2.114,0,0,1,2.1,1.208,2.721,2.721,0,0,1,2.38-1.208,2.364,2.364,0,0,1,1.919.751,3.451,3.451,0,0,1,.63,2.26V0H8.778V-5.065a1.515,1.515,0,0,0-.264-.987,1.167,1.167,0,0,0-.93-.312,1.321,1.321,0,0,0-1.318.91L6.273,0H4.156V-5.058a1.5,1.5,0,0,0-.271-1,1.178,1.178,0,0,0-.923-.308,1.371,1.371,0,0,0-1.3.749V0H-.458V-7.925ZM14.762,0H12.638V-7.925h2.124ZM12.513-9.976a1.042,1.042,0,0,1,.319-.784,1.2,1.2,0,0,1,.868-.308,1.2,1.2,0,0,1,.864.308,1.036,1.036,0,0,1,.322.784,1.039,1.039,0,0,1-.326.791,1.2,1.2,0,0,1-.861.308,1.2,1.2,0,0,1-.861-.308A1.039,1.039,0,0,1,12.513-9.976Zm5.94,2.051.066.916A2.767,2.767,0,0,1,20.8-8.071a2.3,2.3,0,0,1,1.875.74A3.451,3.451,0,0,1,23.3-5.12V0H21.185V-5.08a1.379,1.379,0,0,0-.293-.98,1.31,1.31,0,0,0-.974-.3,1.456,1.456,0,0,0-1.34.763V0H16.461V-7.925ZM27.14,0H25.016V-7.925H27.14ZM24.891-9.976a1.042,1.042,0,0,1,.319-.784,1.2,1.2,0,0,1,.868-.308,1.2,1.2,0,0,1,.864.308,1.036,1.036,0,0,1,.322.784,1.039,1.039,0,0,1-.326.791,1.2,1.2,0,0,1-.861.308,1.2,1.2,0,0,1-.861-.308A1.039,1.039,0,0,1,24.891-9.976Zm3.662,5.94a4.7,4.7,0,0,1,.454-2.1,3.324,3.324,0,0,1,1.307-1.428A3.814,3.814,0,0,1,32.3-8.071a3.609,3.609,0,0,1,2.618.981,3.939,3.939,0,0,1,1.132,2.666l.015.542A4.142,4.142,0,0,1,35.043-.956a3.539,3.539,0,0,1-2.732,1.1,3.556,3.556,0,0,1-2.736-1.1A4.215,4.215,0,0,1,28.553-3.94Zm2.117.15a2.962,2.962,0,0,0,.425,1.727,1.4,1.4,0,0,0,1.216.6,1.4,1.4,0,0,0,1.2-.591,3.241,3.241,0,0,0,.432-1.889,2.933,2.933,0,0,0-.432-1.716A1.4,1.4,0,0,0,32.3-6.365a1.382,1.382,0,0,0-1.2.605A3.3,3.3,0,0,0,30.67-3.885Zm10.986,1.7a.682.682,0,0,0-.385-.612,4.368,4.368,0,0,0-1.234-.4q-2.827-.593-2.827-2.4a2.178,2.178,0,0,1,.875-1.761,3.531,3.531,0,0,1,2.289-.707,3.8,3.8,0,0,1,2.413.71,2.239,2.239,0,0,1,.9,1.846H41.576a1.024,1.024,0,0,0-.293-.751,1.24,1.24,0,0,0-.916-.3,1.267,1.267,0,0,0-.828.242.763.763,0,0,0-.293.615.652.652,0,0,0,.333.568,3.428,3.428,0,0,0,1.124.374,9.183,9.183,0,0,1,1.333.355,2.19,2.19,0,0,1,1.677,2.131,2.067,2.067,0,0,1-.93,1.754,4.013,4.013,0,0,1-2.4.67,4.191,4.191,0,0,1-1.769-.355A2.968,2.968,0,0,1,37.4-1.183a2.263,2.263,0,0,1-.439-1.337h2.007a1.105,1.105,0,0,0,.417.864,1.656,1.656,0,0,0,1.04.3,1.533,1.533,0,0,0,.919-.231A.718.718,0,0,0,41.656-2.19Z" transform="translate(-262 -4288.579)" fill="#fff"/>
    <path id="Trazado_123960" data-name="Trazado 123960" d="M218,1822.836q0-14.123,0-28.245a3.229,3.229,0,0,1,3.56-3.59h56.69a3.218,3.218,0,0,1,3.557,3.526q0,28.379,0,56.757a3.211,3.211,0,0,1-3.493,3.524q-28.412,0-56.822,0A3.215,3.215,0,0,1,218,1851.28Q218,1837.058,218,1822.836Zm56.9,29.845h3.252c1.219,0,1.529-.311,1.529-1.531q0-22.265,0-44.529v-.7H220.126v45.14c0,.2-.011.4.008.6a.985.985,0,0,0,.964,1c1.258.042,2.519.013,3.818.013-1.488-8.064.153-15.357,5.393-21.634a24.546,24.546,0,0,1,20.27-9.162A25.483,25.483,0,0,1,274.9,1852.681Zm4.781-48.942c0-3.123,0-6.176,0-9.23,0-1.031-.358-1.381-1.408-1.381q-28.371,0-56.742,0c-1.048,0-1.4.349-1.4,1.387q0,4.319,0,8.637c0,.191.024.381.038.586Zm-30.886,42.542v-9.517h-9.267a40.913,40.913,0,0,0-1.273,9.517Zm12.767,0a41.268,41.268,0,0,0-1.29-9.51H251.01v9.51Zm1.087-9.55c.411,3.221.813,6.368,1.214,9.517h9.392a23.01,23.01,0,0,0-2.345-9.109.744.744,0,0,0-.5-.391C267.8,1836.722,265.188,1836.73,262.648,1836.73Zm-25.491,0c-2.557,0-5.168-.008-7.779.018a.712.712,0,0,0-.487.406,39.735,39.735,0,0,0-1.558,4.221c-.421,1.582-.612,3.226-.909,4.874h9.514C236.348,1843.051,236.749,1839.919,237.158,1836.73Zm3.051-2.127h8.581v-10.481C244.895,1824.736,241.486,1830.027,240.208,1834.6Zm10.811-10.505v10.484h8.546c.014-.064.04-.114.029-.15a19.78,19.78,0,0,0-4.836-8.285A7.3,7.3,0,0,0,251.019,1824.1Zm18.4,10.484c-2.07-3.912-8.706-8.878-12.694-9.5a23.811,23.811,0,0,1,5.174,9.5Zm-26.307-9.536c-4.695,1.147-11.691,6.461-12.654,9.533h7.453A23.889,23.889,0,0,1,243.111,1825.045Zm-4.606,27.593H248.79v-4.168H238.213Zm12.486,0H261.3l.283-4.167H250.992Zm12.45.012h9.3c.19-1.383.38-2.765.573-4.171h-9.591C263.625,1849.883,263.534,1851.245,263.442,1852.646Zm-27.36-4.169h-9.6l.583,4.168h9.3C236.269,1851.243,236.177,1849.879,236.082,1848.476Z" transform="translate(-511.998 -6171.739)" fill="#fff"/>
    <path id="Trazado_123961" data-name="Trazado 123961" d="M304.428,1837.172c-.506.528-.933,1.008-1.4,1.451a1.045,1.045,0,0,1-1.879-.582q-.763-4.381-1.461-8.773c-.159-1,.4-1.512,1.408-1.347,2.882.472,5.764.942,8.637,1.465a1.343,1.343,0,0,1,.927.7,1.533,1.533,0,0,1-.306,1.179,11.926,11.926,0,0,1-1.42,1.355c.218.241.355.4.5.554q2.278,2.281,4.557,4.559c.724.727.722,1.244-.006,1.978q-1.288,1.3-2.586,2.583a1.121,1.121,0,0,1-1.879-.01C307.853,1840.608,306.183,1838.929,304.428,1837.172Zm-1.52-1.448c.191-.177.288-.262.38-.352,1.019-1,1.346-1,2.352.009q2.183,2.183,4.367,4.365c.15.15.308.292.445.42l1.491-1.451c-.134-.146-.247-.281-.37-.4q-2.344-2.35-4.691-4.7a1.114,1.114,0,0,1,0-1.829c.176-.183.351-.368.609-.639l-5.495-.9Z" transform="translate(-551.299 -6189.492)" fill="#fff"/>
    <path id="Trazado_123962" data-name="Trazado 123962" d="M287.246,1805.581H272.823c-1.219,0-1.526-.308-1.526-1.531,0-1.2-.007-2.393,0-3.589.007-.869.392-1.258,1.263-1.258q14.688-.005,29.376,0c.868,0,1.253.393,1.26,1.262.009,1.263.007,2.526,0,3.789,0,.952-.377,1.326-1.332,1.326Q294.557,1805.585,287.246,1805.581Zm-13.791-2.172h27.565v-2.048H273.455Z" transform="translate(-537.646 -6175.685)" fill="#fff"/>
    <path id="Trazado_123963" data-name="Trazado 123963" d="M232.58,1802.383a3.187,3.187,0,1,1-3.159-3.179A3.2,3.2,0,0,1,232.58,1802.383Zm-2.129-.014a1.059,1.059,0,1,0-1.02,1.082A1.07,1.07,0,0,0,230.452,1802.368Z" transform="translate(-515.949 -6175.688)" fill="#fff"/>
    <path id="Trazado_123964" data-name="Trazado 123964" d="M246.931,1802.389a3.187,3.187,0,1,1-3.152-3.185A3.2,3.2,0,0,1,246.931,1802.389Zm-3.19,1.061a1.06,1.06,0,1,0-1.057-1.044A1.072,1.072,0,0,0,243.741,1803.451Z" transform="translate(-522.854 -6175.688)" fill="#fff"/>
    <path id="Trazado_123965" data-name="Trazado 123965" d="M258.072,1805.578a3.187,3.187,0,1,1,3.209-3.2A3.2,3.2,0,0,1,258.072,1805.578Zm1.08-3.212a1.059,1.059,0,1,0-1.017,1.085A1.07,1.07,0,0,0,259.152,1802.366Z" transform="translate(-529.76 -6175.688)" fill="#fff"/>
  </g>
</svg>
