<svg xmlns="http://www.w3.org/2000/svg" width="129" height="129" viewBox="0 0 129 129">
  <g id="Grupo_79464" data-name="Grupo 79464" transform="translate(-454 -4810)">
    <circle id="Elipse_4673" data-name="Elipse 4673" cx="64.5" cy="64.5" r="64.5" transform="translate(454 4810)" fill="#fff"/>
    <g id="Grupo_76378" data-name="Grupo 76378" transform="translate(486.25 4828.364)">
      <path id="Trazado_112094" data-name="Trazado 112094" d="M-6893-101.917c.163-.163.356-.3.553-.46-.192-.2-.306-.33-.426-.45q-1.969-1.984-3.942-3.967l-17.439-17.568q-6.882-6.937-13.76-13.879-.838-.843-1.673-1.686-3.412-3.453-6.821-6.906c-.226-.228-.465-.443-.7-.664a4.307,4.307,0,0,0-1.075,1.653,8.072,8.072,0,0,0-.5,2.956c.029,16.238-.015,32.475.074,48.713.054,9.9.021,19.794.028,29.691,0,1.178-.007,2.357.033,3.534a6.361,6.361,0,0,0,.78,2.822c.117.215.206.483.537.449q7.736-7.721,15.476-15.442Q-6907.425-87.519-6893-101.917Z" transform="translate(6938.778 148.673)" fill="#23ccf9"/>
      <path id="Trazado_112095" data-name="Trazado 112095" d="M-6906.76-157.037q.836.845,1.674,1.686,6.88,6.94,13.762,13.879,8.716,8.786,17.438,17.568,1.972,1.985,3.944,3.967c.119.12.232.247.423.45l17.1-13.9q-1.206-.688-2.408-1.384c-4.163-2.418-8.376-4.754-12.568-7.121q-9.924-5.6-19.849-11.2-10.342-5.84-20.683-11.683a6.634,6.634,0,0,0-3.861-.986,3.548,3.548,0,0,0-2.487,1.156c.233.221.472.436.7.664Q-6910.167-160.492-6906.76-157.037Z" transform="translate(6915.853 165.782)" fill="#1cbb20"/>
      <path id="Trazado_112096" data-name="Trazado 112096" d="M-6183.369,348.178c-.455-.318-.894-.661-1.378-.935-4.02-2.266-8.047-4.519-12.059-6.8q-2.168-1.231-4.338-2.462l-17.1,13.9,15.146,14.294c1.27-.757,2.575-1.456,3.86-2.187q2.454-1.394,4.9-2.793c2.061-1.175,4.127-2.342,6.18-3.53,1.222-.707,2.479-1.352,3.654-2.137a6.778,6.778,0,0,0,2-2.049A4.022,4.022,0,0,0-6183.369,348.178Z" transform="translate(6264.575 -305.59)" fill="#fede32"/>
      <path id="Trazado_112097" data-name="Trazado 112097" d="M-6871.948,554.647q-14.429,14.4-28.853,28.8-7.736,7.722-15.474,15.442c-.047.2.121.259.23.345a4.391,4.391,0,0,0,2.552.926,6.711,6.711,0,0,0,3.706-1.07q4.267-2.444,8.539-4.878,7.443-4.243,14.887-8.484,8.947-5.1,17.89-10.213c3.987-2.291,8.023-4.494,11.958-6.874.086-.053.176-.1.263-.156l-15.147-14.294C-6871.592,554.349-6871.784,554.483-6871.948,554.647Z" transform="translate(6917.729 -507.891)" fill="#fc0d1c"/>
    </g>
  </g>
</svg>
