<svg xmlns="http://www.w3.org/2000/svg" width="98" height="98" viewBox="0 0 98 98">
  <g id="Grupo_79457" data-name="Grupo 79457" transform="translate(-1170 -9185)">
    <circle id="Elipse_4718" data-name="Elipse 4718" cx="49" cy="49" r="49" transform="translate(1170 9185)" fill="#26aab7"/>
    <g id="Grupo_74598" data-name="Grupo 74598" transform="translate(-670.817 8701.865)">
      <path id="Trazado_110290" data-name="Trazado 110290" d="M1922.217,524.841v39.617a1.534,1.534,0,0,1-1.242,1.242h-26.949a1.841,1.841,0,0,1-1.553-2.111c-.027-2.336,0-4.673-.01-7.01,0-1.491.13-1.361-1.377-1.362q-6.39-.006-12.779,0c-.268,0-.537.007-.806-.009a1.989,1.989,0,0,1-2.039-2.055c-.042-1.012-.01-2.026-.012-3.039,0-1.53,0-3.06,0-4.59,0-.983,0-.986-1.013-.986h-13.089c-.269,0-.538.006-.807-.007a1.767,1.767,0,0,1-1.91-1.555V503.356a1.534,1.534,0,0,1,1.242-1.242h26.949a1.841,1.841,0,0,1,1.553,2.112c.027,2.336,0,4.673.01,7.009,0,1.492-.13,1.361,1.377,1.362q6.389.006,12.778,0c.269,0,.538-.007.807.009a1.989,1.989,0,0,1,2.039,2.056c.041,1.012.01,2.026.012,3.039,0,1.53,0,3.06,0,4.591,0,.983,0,.985,1.013.986H1919.5c.269,0,.538-.006.806.007A1.767,1.767,0,0,1,1922.217,524.841Z" transform="translate(-0.054 -0.054)"/>
      <path id="Trazado_110291" data-name="Trazado 110291" d="M1859.818,502.06a2.9,2.9,0,0,0-1.242,1.242c0-.414-.161-.99.046-1.2S1859.4,502.06,1859.818,502.06Z" transform="translate(0 0)" fill="#f5f5f5"/>
      <path id="Trazado_110292" data-name="Trazado 110292" d="M1977.517,622.243a2.916,2.916,0,0,0,1.242-1.242c0,.414.161.99-.046,1.2S1977.931,622.243,1977.517,622.243Z" transform="translate(-56.597 -56.597)" fill="#f4f4f4"/>
      <path id="Trazado_110293" data-name="Trazado 110293" d="M1860.988,530.26c0-5.629.007-11.259-.012-16.888,0-.5.1-.647.631-.646q12.883.028,25.766,0c.569,0,.666.161.666.689q-.024,16.857-.012,33.714c0,.925-.075,1-.974,1H1861.97c-.934,0-.982-.048-.982-.981Q1860.988,538.7,1860.988,530.26Z" transform="translate(-1.17 -5.101)" fill="#fbdc85"/>
      <path id="Trazado_110294" data-name="Trazado 110294" d="M1920.5,550.757q0,8.381,0,16.762c0,.931-.06.992-.977.992h-25.082c-.927,0-.987-.059-.987-.981,0-2.608.021-5.216-.017-7.823-.008-.577.17-.7.69-.656a11.778,11.778,0,0,0,1.551,0c.306-.014.381.1.377.386-.016.993-.011,1.986-.005,2.98.005.942.426,1.373,1.357,1.378q2.515.01,5.029,0a1.169,1.169,0,0,0,1.31-1.3q.016-1.583,0-3.166a.7.7,0,0,1,.3-.672,1.913,1.913,0,0,0,.665-1.717q-.006-7.543,0-15.086c0-2.711.01-5.422-.01-8.133,0-.456.076-.623.59-.621q7.326.034,14.651,0c.468,0,.576.117.574.578Q1920.487,542.221,1920.5,550.757Z" transform="translate(-16.609 -14.793)" fill="#ecf3fb"/>
      <path id="Trazado_110295" data-name="Trazado 110295" d="M1952.983,571.066q0,8.444,0,16.888c0,.857-.05.9-.927.9h-25.207c-.806,0-.9-.091-.9-.875,0-2.67.013-5.339-.014-8.009,0-.483.139-.573.59-.569a76.269,76.269,0,0,0,8.624-.044c5.017-.536,10.027-.1,15.034-.284a1.232,1.232,0,0,0,1.324-1.375c.01-1.366.007-2.732,0-4.1,0-1.006-.468-1.474-1.49-1.477-2.608-.009-5.216,0-7.823,0-1.49,0-2.982-.038-4.469.018-.627.023-.514-.316-.531-.683-.018-.41-.017-.66.556-.655,4.015.03,8.03.017,12.045.016,1.317,0,1.714-.393,1.715-1.692,0-1.263,0-2.525,0-3.787,0-1.032-.438-1.471-1.475-1.472-4.077-.005-8.154,0-12.231-.009-.2,0-.523.151-.576-.16a2.909,2.909,0,0,1,.029-1.1c.035-.156.337-.065.516-.066q6.022-.006,12.045,0c1.314,0,1.693-.381,1.694-1.7,0-1.263.005-2.525,0-3.788,0-1.012-.465-1.464-1.492-1.465-4.077,0-8.155-.012-12.231.011-.5,0-.646-.142-.589-.613.058-.486-.21-1.156.105-1.418.3-.247.942-.091,1.435-.092,4.553,0,9.106.006,13.659-.014.483,0,.6.116.6.6C1952.977,559.724,1952.983,565.4,1952.983,571.066Z" transform="translate(-32.063 -24.454)" fill="#ecf3fb"/>
      <path id="Trazado_110296" data-name="Trazado 110296" d="M1953.936,591.448c2.007,0,4.014.01,6.02-.008.394,0,.537.087.526.511-.03,1.157-.021,2.317,0,3.475.005.347-.039.506-.458.5q-6.082-.026-12.164,0c-.414,0-.466-.149-.459-.5.019-1.158.026-2.317,0-3.475-.011-.418.122-.518.522-.514C1949.923,591.459,1951.93,591.448,1953.936,591.448Z" transform="translate(-42.27 -42.538)" fill="#9ae4f8"/>
      <path id="Trazado_110297" data-name="Trazado 110297" d="M1953.995,575.7c1.965,0,3.93.013,5.9-.009.434-.005.615.06.6.559-.043,1.157-.026,2.316-.006,3.475.006.352-.1.455-.454.454q-6.082-.016-12.163,0c-.338,0-.472-.073-.466-.442.022-1.179.027-2.359,0-3.537-.01-.415.121-.511.519-.508C1949.94,575.71,1951.967,575.7,1953.995,575.7Z" transform="translate(-42.27 -35.047)" fill="#9ae4f8"/>
      <path id="Trazado_110298" data-name="Trazado 110298" d="M1953.94,564.36c-1.985,0-3.97-.02-5.953.014-.51.008-.606-.157-.593-.619.031-1.115.024-2.232,0-3.349-.007-.377.056-.53.492-.527q6.047.027,12.094,0c.348,0,.512.039.5.457-.032,1.2-.027,2.4,0,3.6.007.373-.134.433-.463.43C1957.992,564.354,1955.966,564.36,1953.94,564.36Z" transform="translate(-42.27 -27.528)" fill="#9ae4f8"/>
      <path id="Trazado_110299" data-name="Trazado 110299" d="M1881.009,507.57c-3.516,0-7.033-.016-10.549.016-.576.005-.7-.171-.667-.7a17.7,17.7,0,0,0,0-1.923c-.015-.366.075-.5.475-.5q10.611.018,21.221,0c.547,0,.74.244.73.753-.012.579-.034,1.16.007,1.737.034.482-.11.628-.611.625C1888.083,507.56,1884.546,507.57,1881.009,507.57Z" transform="translate(-5.361 -1.173)" fill="#528fda"/>
      <path id="Trazado_110300" data-name="Trazado 110300" d="M1922.807,527.95q-3.662,0-7.325,0c-.328,0-.584.034-.583-.458s.266-.46.59-.459q3.879,0,7.759,0h.434c.464,0,.936-.062.925-.653-.009-.557-.462-.592-.9-.59-2.731,0-5.462,0-8.194.007-.372,0-.611-.006-.611-.508s.293-.439.6-.439h14.339c.76,0,.866.106.871.852,0,.58-.025,1.16.009,1.737.025.415-.122.518-.523.516C1927.732,527.942,1925.269,527.95,1922.807,527.95Z" transform="translate(-26.815 -10.867)" fill="#528fda"/>
      <path id="Trazado_110301" data-name="Trazado 110301" d="M1955.268,548.33q-3.6,0-7.2,0c-.32,0-.7.145-.687-.467.011-.575.366-.434.664-.435q3.975-.008,7.948,0a2.907,2.907,0,0,0,.616-.04.563.563,0,0,0,.486-.624.552.552,0,0,0-.549-.562c-.185-.017-.372-.015-.558-.015q-4.005,0-8.01,0c-.318,0-.591.052-.6-.449s.247-.5.61-.5q7.172.01,14.344.005c.756,0,.847.1.85.866,0,.538-.029,1.079.009,1.614.033.468-.088.629-.6.623C1960.153,548.314,1957.71,548.33,1955.268,548.33Z" transform="translate(-42.263 -20.563)" fill="#528fda"/>
      <path id="Trazado_110302" data-name="Trazado 110302" d="M1903.387,586.1c-.724,0-1.447-.009-2.171,0-.287.005-.455-.024-.446-.388.025-.908.018-1.819,0-2.727-.005-.291.079-.394.381-.392q2.232.02,4.464,0c.3,0,.386.1.381.391-.015.909-.022,1.819,0,2.728.01.364-.159.393-.446.388C1904.834,586.089,1904.11,586.1,1903.387,586.1Z" transform="translate(-20.096 -38.331)" fill="#fb657e"/>
      <path id="Trazado_110303" data-name="Trazado 110303" d="M1862.551,507.481c-.511,0-1.191.2-1.491-.052-.357-.3-.11-1-.118-1.528-.026-1.574-.109-1.491,1.457-1.476.615.006,1.436-.207,1.789.1.4.357.117,1.2.127,1.826.021,1.164.006,1.164-1.145,1.164h-.618Z" transform="translate(-1.117 -1.123)" fill="#fb657d"/>
      <path id="Trazado_110304" data-name="Trazado 110304" d="M1939.781,510.695a2.357,2.357,0,1,1,4.713,0,3.064,3.064,0,0,0-2.43,2.352A3.137,3.137,0,0,0,1939.781,510.695Z" transform="translate(-38.65 -3.016)" fill="#f4c74c"/>
      <path id="Trazado_110305" data-name="Trazado 110305" d="M1953.121,536.168a2.1,2.1,0,0,0-1.263,1.36,1.361,1.361,0,0,1,0-2.716A2.107,2.107,0,0,0,1953.121,536.168Z" transform="translate(-43.786 -15.606)" fill="#fb6780"/>
      <path id="Trazado_110306" data-name="Trazado 110306" d="M1953.928,519.4a.789.789,0,0,1-.837-.8.812.812,0,0,1,.8-.848.821.821,0,0,1,.841.811A.8.8,0,0,1,1953.928,519.4Z" transform="translate(-44.98 -7.491)" fill="#87d148"/>
      <path id="Trazado_110307" data-name="Trazado 110307" d="M1880.015,592.067a.67.67,0,0,1,.638.75c0,.377.084.544.506.566.486.025.9.258.855.843a.75.75,0,0,1-.9.716c-.359-.021-.477.121-.451.465a.734.734,0,0,1-.782.89c-.535,0-.762-.361-.731-.865.024-.381-.117-.517-.495-.49a.772.772,0,1,1-.127-1.538c.441-.024.663-.153.637-.656C1879.14,592.325,1879.406,592.064,1880.015,592.067Z" transform="translate(-9.164 -42.836)" fill="#70d5f8"/>
      <path id="Trazado_110308" data-name="Trazado 110308" d="M1871.842,587.293a.818.818,0,0,1-1.635-.069.806.806,0,0,1,.851-.794A.815.815,0,0,1,1871.842,587.293Z" transform="translate(-5.56 -40.155)" fill="#f4c84d"/>
      <path id="Trazado_110309" data-name="Trazado 110309" d="M1876.032,552.022q-4.965,0-9.931,0c-1.417,0-1.893-.48-1.9-1.9,0-.62-.02-1.242.016-1.861a1.375,1.375,0,0,1,1.488-1.409q10.333-.01,20.667,0a1.4,1.4,0,0,1,1.484,1.481q.024,1.085,0,2.172a1.437,1.437,0,0,1-1.527,1.515c-.785.025-1.572.006-2.359.006Z" transform="translate(-2.703 -21.327)"/>
      <path id="Trazado_110310" data-name="Trazado 110310" d="M1876.025,534.529q5.027,0,10.055,0c1.288,0,1.781.5,1.784,1.809,0,.62.011,1.241,0,1.862a1.436,1.436,0,0,1-1.417,1.5c-.164.015-.33.008-.5.008q-9.9,0-19.8,0c-1.472,0-1.941-.464-1.944-1.918,0-.579-.016-1.159.006-1.738a1.417,1.417,0,0,1,1.574-1.52Q1870.9,534.522,1876.025,534.529Z" transform="translate(-2.703 -15.47)"/>
      <path id="Trazado_110311" data-name="Trazado 110311" d="M1882.633,559.689c.7,0,1.407-.009,2.11,0a2.4,2.4,0,0,1,2.448,2.3,2.352,2.352,0,0,1-2.275,2.458c-1.528.065-3.064.066-4.592,0a2.34,2.34,0,0,1-2.262-2.469,2.406,2.406,0,0,1,2.459-2.29C1881.226,559.68,1881.929,559.689,1882.633,559.689Z" transform="translate(-9.295 -27.435)"/>
      <path id="Trazado_110312" data-name="Trazado 110312" d="M1882.866,525.778h-3.159c-.145,0-.29.006-.434-.006-.4-.034-.683-.239-.662-.66a.589.589,0,0,1,.672-.576q3.592,0,7.185,0c.408,0,.688.172.687.615s-.305.616-.7.62c-1.2.012-2.4,0-3.592,0Z" transform="translate(-9.556 -10.718)" fill="#020201"/>
      <path id="Trazado_110313" data-name="Trazado 110313" d="M1923.68,551.843c1.777,0,3.554.005,5.331,0,.466,0,.861.089.848.645-.012.515-.4.6-.833.6q-5.361-.007-10.723,0c-.473,0-.868-.123-.855-.651.011-.488.392-.6.841-.6C1920.085,551.85,1921.883,551.843,1923.68,551.843Z" transform="translate(-28.027 -23.703)"/>
      <path id="Trazado_110314" data-name="Trazado 110314" d="M1923.622,571.56c-1.8,0-3.6,0-5.393,0-.607,0-.937-.37-.762-.821a.646.646,0,0,1,.683-.42q5.486.005,10.971,0c.441,0,.74.176.727.641s-.347.6-.771.6Q1926.349,571.556,1923.622,571.56Z" transform="translate(-28.015 -32.491)"/>
      <path id="Trazado_110315" data-name="Trazado 110315" d="M1923.676,587.842c1.735,0,3.471,0,5.207,0,.474,0,.991-.018.977.635s-.543.61-1.007.61q-5.177,0-10.352,0c-.493,0-1.052.025-1.045-.642.006-.622.539-.608,1.014-.606C1920.2,587.846,1921.94,587.842,1923.676,587.842Z" transform="translate(-28.031 -40.825)"/>
      <path id="Trazado_110316" data-name="Trazado 110316" d="M1923.666,543.3c-1.735,0-3.47,0-5.205,0a2.538,2.538,0,0,1-.611-.061.541.541,0,0,1-.416-.609.548.548,0,0,1,.5-.547,3.876,3.876,0,0,1,.494-.021H1928.9c.1,0,.207,0,.31,0a.615.615,0,1,1,.037,1.228c-.557.025-1.115.013-1.673.013Z" transform="translate(-28.019 -19.052)" fill="#020202"/>
      <path id="Trazado_110317" data-name="Trazado 110317" d="M1923.635,548.157c-1.777,0-3.553-.006-5.33,0-.467,0-.872-.094-.859-.636.01-.492.4-.614.838-.614q5.361,0,10.722,0c.459,0,.865.1.856.653-.009.516-.4.6-.834.595C1927.23,548.153,1925.433,548.157,1923.635,548.157Z" transform="translate(-28.027 -21.361)" fill="#010101"/>
      <path id="Trazado_110318" data-name="Trazado 110318" d="M1923.624,560.529c1.818,0,3.635,0,5.453,0,.569,0,.855.274.775.708s-.41.53-.789.531q-1.488,0-2.974,0-3.781,0-7.56,0a3.244,3.244,0,0,1-.615-.041.557.557,0,0,1-.48-.625.55.55,0,0,1,.552-.561c.433-.018.867-.014,1.3-.014Q1921.455,560.527,1923.624,560.529Z" transform="translate(-28.02 -27.836)" fill="#020202"/>
      <path id="Trazado_110319" data-name="Trazado 110319" d="M1923.671,566.63c-1.756,0-3.512-.006-5.268,0-.463,0-.951-.014-.953-.6,0-.619.5-.647.989-.647q5.206.006,10.412,0c.124,0,.249-.006.371.006.405.04.672.244.642.674-.027.4-.29.564-.678.564q-2.014,0-4.029,0Z" transform="translate(-28.028 -30.146)" fill="#010101"/>
      <path id="Trazado_110320" data-name="Trazado 110320" d="M1923.66,578.052c1.776,0,3.553,0,5.329,0,.452,0,.877.06.869.622s-.436.625-.883.624q-5.33,0-10.659,0c-.457,0-.879-.1-.875-.639s.435-.611.889-.609C1920.107,578.057,1921.884,578.052,1923.66,578.052Z" transform="translate(-28.025 -36.169)" fill="#020202"/>
      <path id="Trazado_110321" data-name="Trazado 110321" d="M1923.616,584.155c-1.777,0-3.554-.007-5.33,0-.444,0-.832-.1-.843-.593-.011-.53.392-.658.858-.657q5.361.005,10.722,0c.464,0,.859.123.837.671-.021.519-.421.578-.852.576C1927.211,584.15,1925.413,584.155,1923.616,584.155Z" transform="translate(-28.025 -38.481)" fill="#010101"/>
      <path id="Trazado_110322" data-name="Trazado 110322" d="M1940.81,611.851h-10.429c-1.177,0-1.621-.438-1.624-1.6q-.005-1.893,0-3.787c0-1.107.449-1.566,1.532-1.566q10.522,0,21.045,0c1.062,0,1.51.448,1.513,1.506q.007,1.986,0,3.973c0,1.018-.46,1.473-1.483,1.474Q1946.086,611.855,1940.81,611.851Z" transform="translate(-33.405 -48.938)"/>
      <path id="Trazado_110323" data-name="Trazado 110323" d="M1880.325,507.455h-6.264c-.166,0-.332,0-.5-.012a.547.547,0,0,1-.544-.564.557.557,0,0,1,.482-.623,3.05,3.05,0,0,1,.616-.042q6.2,0,12.4,0h.186c.462,0,.944.052.947.632,0,.595-.48.615-.943.614C1884.583,507.451,1882.454,507.455,1880.325,507.455Z" transform="translate(-6.898 -2.003)" fill="#010101"/>
      <path id="Trazado_110324" data-name="Trazado 110324" d="M1905.422,507.456c-.371,0-.741,0-1.111,0a.607.607,0,0,1-.056-1.212c.78-.03,1.563-.029,2.342.008a.549.549,0,0,1,.538.632.558.558,0,0,1-.6.568C1906.163,507.464,1905.792,507.455,1905.422,507.456Z" transform="translate(-21.478 -2.008)" fill="#010203"/>
      <path id="Trazado_110325" data-name="Trazado 110325" d="M1937.945,526.665c.37,0,.74-.015,1.109,0a.54.54,0,0,1,.56.541.547.547,0,0,1-.512.65,13.321,13.321,0,0,1-2.4,0,.558.558,0,0,1-.539-.633.566.566,0,0,1,.609-.567c.39-.008.781,0,1.172,0Z" transform="translate(-36.929 -11.728)" fill="#010203"/>
      <path id="Trazado_110326" data-name="Trazado 110326" d="M1970.4,548.278c-.352,0-.7.016-1.055,0-.4-.023-.682-.213-.66-.655.02-.4.283-.574.667-.576q1.055,0,2.11,0a.584.584,0,0,1,.665.584c.017.431-.271.629-.672.649C1971.1,548.292,1970.75,548.278,1970.4,548.278Z" transform="translate(-52.395 -21.421)" fill="#010102"/>
      <path id="Trazado_110327" data-name="Trazado 110327" d="M1883.518,549.2c2.584,0,5.167.012,7.751-.01.471,0,.618.135.584.6a11.33,11.33,0,0,0,0,1.549c.028.434-.122.576-.557.567-1.2-.024-2.4-.008-3.6-.008-3.968,0-7.937-.008-11.9.012-.482,0-.652-.113-.609-.608a9.894,9.894,0,0,0,0-1.61c-.034-.433.14-.5.521-.494C1878.309,549.211,1880.914,549.2,1883.518,549.2Z" transform="translate(-7.924 -22.445)" fill="#ecf3fb"/>
      <path id="Trazado_110328" data-name="Trazado 110328" d="M1868.24,551.9c-.392,0-.783-.01-1.174,0-.323.012-.505-.08-.5-.447.017-.618.01-1.237,0-1.854,0-.284.1-.4.4-.4q1.267.019,2.534,0c.261,0,.364.065.357.343-.017.679-.013,1.36,0,2.039,0,.245-.089.326-.325.32C1869.1,551.894,1868.672,551.9,1868.24,551.9Z" transform="translate(-3.83 -22.45)" fill="#9ae3f7"/>
      <path id="Trazado_110329" data-name="Trazado 110329" d="M1883.449,536.888c2.6,0,5.209.012,7.813-.01.464,0,.625.122.589.59a11.157,11.157,0,0,0,0,1.549c.026.426-.109.587-.552.573-.908-.029-1.819-.009-2.728-.009-4.258,0-8.516-.007-12.773.01-.471,0-.661-.1-.615-.6a9.839,9.839,0,0,0,0-1.61c-.032-.422.124-.5.515-.5C1878.282,536.9,1880.866,536.888,1883.449,536.888Z" transform="translate(-7.923 -16.588)" fill="#ecf3fb"/>
      <path id="Trazado_110330" data-name="Trazado 110330" d="M1868.248,536.889c.512,0,1.2-.2,1.491.052.349.3.1,1,.111,1.531.018,1.08.006,1.08-1.1,1.08-.556,0-1.113-.013-1.669,0-.358.012-.532-.1-.518-.49.023-.6.016-1.195,0-1.792-.007-.323.126-.437.443-.422.411.019.824,0,1.236,0Z" transform="translate(-3.828 -16.557)" fill="#9ae3f7"/>
      <path id="Trazado_110331" data-name="Trazado 110331" d="M1883.776,562.055c.682,0,1.364-.011,2.046,0a1.166,1.166,0,0,1,1.249,1.106,1.123,1.123,0,0,1-1.168,1.181c-1.424.036-2.851.035-4.275,0a1.14,1.14,0,0,1-1.191-1.167,1.159,1.159,0,0,1,1.233-1.124C1882.371,562.042,1883.073,562.055,1883.776,562.055Z" transform="translate(-10.425 -28.56)" fill="#86d047"/>
      <path id="Trazado_110332" data-name="Trazado 110332" d="M1949.88,611.728c-2.463,0-4.926-.008-7.388.009-.391,0-.53-.079-.519-.5.031-1.179.024-2.359,0-3.539-.006-.348.089-.448.443-.448q7.513.017,15.026,0c.336,0,.464.071.457.436-.023,1.179-.026,2.36,0,3.539.009.4-.1.515-.51.512C1954.889,611.719,1952.384,611.728,1949.88,611.728Z" transform="translate(-39.691 -50.057)" fill="#9ae4f8"/>
      <path id="Trazado_110333" data-name="Trazado 110333" d="M1935.578,609.517c0,.62-.01,1.241.005,1.861.007.264-.066.36-.345.357q-1.892-.02-3.784,0c-.289,0-.339-.121-.338-.372.009-1.24.012-2.481,0-3.722,0-.3.088-.391.385-.388,1.241.014,2.481.017,3.722,0,.329-.005.366.135.36.4C1935.568,608.276,1935.578,608.9,1935.578,609.517Z" transform="translate(-34.528 -50.058)" fill="#70d5f8"/>
    </g>
  </g>
</svg>
