<svg xmlns="http://www.w3.org/2000/svg" width="147" height="147" viewBox="0 0 147 147">
  <g id="Grupo_79462" data-name="Grupo 79462" transform="translate(-445 -1483)">
    <circle id="Elipse_4671" data-name="Elipse 4671" cx="73.5" cy="73.5" r="73.5" transform="translate(445 1483)" fill="#fff"/>
    <g id="Grupo_76291" data-name="Grupo 76291" transform="translate(-1174.719 636.721)">
      <path id="Trazado_111979" data-name="Trazado 111979" d="M1716.775,900.318c-8.667.031-17.335.02-26,.02s-17.335.009-26-.017c-.744,0-.982.149-.973.943.045,4.029.02,8.059.02,12.089q0,12.871,0,25.742a6.484,6.484,0,0,0,5.772,6.72,35.966,35.966,0,0,0,3.909.066c1.288.018,1.133-.174,1.135,1.175.008,3.855-.01,7.711.007,11.566.017,3.555,2.038,6.059,5.234,6.54a6.04,6.04,0,0,0,6.86-5.936c.042-4.145.028-8.291,0-12.436-.005-.694.127-.95.885-.93,2.086.056,4.175.051,6.261,0,.721-.018.918.172.912.9-.034,4.2-.042,8.407,0,12.61a5.993,5.993,0,0,0,4.164,5.543,6.062,6.062,0,0,0,6.681-2.108,6.687,6.687,0,0,0,1.246-4.25c0-3.971.013-7.944-.012-11.915,0-.607.168-.805.778-.778,1.042.047,2.087.016,3.13.012a6.557,6.557,0,0,0,6.925-6.935q.007-18.828.019-37.657C1717.723,900.539,1717.561,900.316,1716.775,900.318Z" transform="translate(1.457 3.332)" fill="#a3c539"/>
      <path id="Trazado_111980" data-name="Trazado 111980" d="M1717.29,897.426c-1.5-7.578-5.824-13.121-12.423-16.96-.756-.44-.856-.707-.418-1.454,1.262-2.146,2.442-4.34,3.638-6.524.4-.736.16-1.4-.516-1.481-.56-.063-.81.332-1.044.756-1.231,2.231-2.491,4.447-3.692,6.694-.31.578-.566.687-1.194.439a28.6,28.6,0,0,0-21.755-.01c-.6.238-.882.189-1.2-.414-1.195-2.25-2.459-4.463-3.691-6.694-.248-.449-.507-.876-1.119-.753-.642.129-.845.737-.456,1.448,1.226,2.234,2.449,4.47,3.721,6.678.344.6.321.833-.331,1.214-7.756,4.53-12.3,11.14-12.988,20.227-.055.726.05.991.881.988,8.667-.036,17.335-.022,26-.022h14.262c4,0,8-.013,12,.014.626,0,.819-.178.734-.787C1717.545,899.667,1717.51,898.528,1717.29,897.426Zm-38.93-5.745a2.216,2.216,0,1,1,2.184-2.2A2.166,2.166,0,0,1,1678.361,891.68Zm24.767,0a2.216,2.216,0,1,1,2.275-2.2A2.167,2.167,0,0,1,1703.128,891.679Z" transform="translate(1.458 0)" fill="#a3c539"/>
      <path id="Trazado_111981" data-name="Trazado 111981" d="M1726.26,905.375a5.959,5.959,0,0,0-6.775-5.878,5.867,5.867,0,0,0-5.245,5.839c-.032,4.23-.009,8.459-.008,12.689s-.025,8.459.008,12.689a5.914,5.914,0,0,0,6.023,5.893,5.982,5.982,0,0,0,6-5.94c.019-1.709.006-3.419.006-5.128C1726.27,918.818,1726.286,912.1,1726.26,905.375Z" transform="translate(7.187 3.233)" fill="#a3c539"/>
      <path id="Trazado_111982" data-name="Trazado 111982" d="M1663.016,905.826a6.9,6.9,0,0,0-.111-1.642,6.048,6.048,0,0,0-6.3-4.74,5.975,5.975,0,0,0-5.623,6.143q-.013,12.428,0,24.856a6.2,6.2,0,0,0,.1,1.294,6.017,6.017,0,0,0,11.928-1.229c.018-4.143,0-8.285,0-12.428Q1663.02,911.953,1663.016,905.826Z" transform="translate(0 3.229)" fill="#a3c539"/>
    </g>
  </g>
</svg>
