<svg xmlns="http://www.w3.org/2000/svg" xmlns:xlink="http://www.w3.org/1999/xlink" width="148" height="137.095" viewBox="0 0 148 137.095">
  <defs>
    <filter id="Trazado_134296" x="11.999" y="4.378" width="124.763" height="123.382" filterUnits="userSpaceOnUse">
      <feOffset input="SourceAlpha"/>
      <feGaussianBlur stdDeviation="3" result="blur"/>
      <feFlood flood-opacity="0.29"/>
      <feComposite operator="in" in2="blur"/>
      <feComposite in="SourceGraphic"/>
    </filter>
  </defs>
  <g id="Grupo_79423" data-name="Grupo 79423" transform="translate(13713 9771.424)">
    <path id="Trazado_134295" data-name="Trazado 134295" d="M13,0H135a13,13,0,0,1,13,13V74.659a13,13,0,0,1-13,13H13a13,13,0,0,1-13-13V13A13,13,0,0,1,13,0Z" transform="translate(-13713 -9721.988)" fill="#f6f6f6"/>
    <path id="Trazado_108975" data-name="Trazado 108975" d="M663.348,1786.833c25.292,0,46.859,15.68,54.828,37.5h9.082c-8.291-26.49-33.8-45.833-63.91-45.833s-55.62,19.343-63.911,45.833h9.082C616.489,1802.513,638.055,1786.833,663.348,1786.833Z" transform="translate(-14301.437 -11549.924)" fill="#b2ebf2"/>
    <g transform="matrix(1, 0, 0, 1, -13713, -9771.42)" filter="url(#Trazado_134296)">
      <path id="Trazado_134296-2" data-name="Trazado 134296" d="M53.381,0c29.482,0,53.381,23.591,53.381,52.691s-23.9,52.691-53.381,52.691S0,81.791,0,52.691,23.9,0,53.381,0Z" transform="translate(21 13.38)" fill="#1565c0"/>
    </g>
    <path id="Trazado_108947" data-name="Trazado 108947" d="M746.6,1893.448a.545.545,0,0,0,.084-.206A1.355,1.355,0,0,1,746.6,1893.448Z" transform="translate(-14359.208 -11586.706)" fill="#fff"/>
    <path id="Trazado_108948" data-name="Trazado 108948" d="M715.628,1886.819c0-.68,0-.674-.681-.736a5.652,5.652,0,0,1-5.245-3.875c-1.285-3.465-2.654-6.9-3.986-10.344q-4.5-11.644-8.99-23.293a.61.61,0,0,0-.718-.479,12.8,12.8,0,0,1-1.7,0,.665.665,0,0,0-.787.523q-4.763,12.32-9.564,24.624c-1.207,3.084-2.357,6.193-3.713,9.216a5.658,5.658,0,0,1-3.931,3.342c-.715.181-1.443.259-2.166.382v2.806c.182-.01.365-.028.547-.028q3.459,0,6.916,0c2.59,0,5.179-.01,7.768.01.406,0,.515-.114.492-.5-.032-.549-.008-1.1-.008-1.653,0-.676,0-.678-.7-.719a11.734,11.734,0,0,1-3.848-.808c-1.031-.429-1.213-.764-1.069-1.881.027-.214.047-.432.094-.642a63.353,63.353,0,0,1,2.338-7.162c.108-.305.312-.283.549-.283q6.189,0,12.379-.006a.533.533,0,0,1,.605.419c.943,2.6,1.935,5.177,2.855,7.782.59,1.67.577,1.674-1.165,2.165a16.083,16.083,0,0,1-3.119.431c-.316.026-.422.128-.409.452.028.651.035,1.3,0,1.954-.023.4.122.46.481.458,2.422-.016,4.845-.008,7.267-.008,3.024,0,6.048-.007,9.072.008.35,0,.464-.088.445-.444C715.606,1887.956,715.628,1887.386,715.628,1886.819Zm-17.412-14.845c-3.221-.015-6.443-.011-9.664,0-.308,0-.459,0-.3-.4q2.518-6.488,5-12.989c.023-.06.054-.118.121-.264.745,1.913,1.449,3.725,2.155,5.535,1,2.557,1.987,5.116,3,7.666C698.681,1871.911,698.621,1871.976,698.216,1871.974Z" transform="translate(-14337.893 -11573.421)" fill="#fff"/>
    <path id="Trazado_108949" data-name="Trazado 108949" d="M740.986,1853.248c-1.263-2.057-2.5-4.13-3.785-6.248l-5.263,8.7c1.208,0,2.327.024,3.444-.012.447-.014.547.109.546.549q-.022,11.019-.011,22.037c0,1.22,0,1.22-1.213,1.22h-2.771l5.266,8.7c.367-.6.711-1.171,1.055-1.738l4.028-6.613a1.351,1.351,0,0,0,.084-.206c.01-.11-.083-.155-.306-.152-1.052.016-2.1,0-3.156.012-.313,0-.433-.06-.433-.41q.017-11.5,0-23c0-.36.139-.4.438-.4,1.186.01,2.371,0,3.556-.006v-.1A19.494,19.494,0,0,1,740.986,1853.248Z" transform="translate(-14354.894 -11573.102)" fill="#fff"/>
    <path id="Trazado_108950" data-name="Trazado 108950" d="M741.635,1859.312c-.3,0-.439.037-.438.4q.017,11.5,0,23c0,.35.12.415.433.41,1.052-.016,2.1,0,3.156-.012.222,0,.316.041.306.151.069-.235-.041-.321-.405-.34-.817-.044-1.635-.013-2.453-.016-.888,0-.889,0-.889-.872v-15.968c0-1.985,0-3.971,0-5.957,0-.582.052-.63.627-.635.834-.008,1.669,0,2.5,0a.992.992,0,0,0,.714-.16C744.007,1859.31,742.821,1859.322,741.635,1859.312Z" transform="translate(-14357.619 -11576.722)" fill="#fff"/>
  </g>
</svg>
