<svg xmlns="http://www.w3.org/2000/svg" xmlns:xlink="http://www.w3.org/1999/xlink" width="84" height="84" viewBox="0 0 84 84">
  <defs>
    <linearGradient id="linear-gradient" y1="0.5" x2="1" y2="0.5" gradientUnits="objectBoundingBox">
      <stop offset="0"/>
      <stop offset="0.725" stop-opacity="0"/>
    </linearGradient>
  </defs>
  <g id="Grupo_79473" data-name="Grupo 79473" transform="translate(-511 -6665)">
    <g id="Grupo_79469" data-name="Grupo 79469">
      <circle id="Elipse_4719" data-name="Elipse 4719" cx="42" cy="42" r="42" transform="translate(511 6665)" fill="#fff"/>
      <g id="Grupo_76408" data-name="Grupo 76408" transform="translate(1138.951 5609.463)">
        <path id="Trazado_112125" data-name="Trazado 112125" d="M-567.525,1064.717c-.122.136-.232.27-.355.392q-7.333,7.33-14.669,14.657-13.488,13.484-26.965,26.98c-.412.413-.622.375-1.006-.012q-4.583-4.627-9.209-9.211c-.292-.29-.3-.464-.009-.753q4.668-4.647,9.319-9.312c1.718-1.713,3.456-3.405,5.177-5.115q2.806-2.788,5.594-5.593c2.01-2.022,4.006-4.058,6.019-6.077,1.933-1.939,3.88-3.862,5.82-5.794a1.094,1.094,0,0,1,.83-.337q9.467.015,18.933.013C-567.876,1064.555-567.656,1064.458-567.525,1064.717Z" fill="#6db7f4"/>
        <path id="Trazado_112126" data-name="Trazado 112126" d="M-406.449,1482.668q2.093-2.064,4.185-4.129,2.742-2.722,5.476-5.453c.146-.146.258-.352.507-.354l17.435,17.428c-.165.187-.33.113-.47.113q-9.546.008-19.093.009a.907.907,0,0,1-.728-.254q-3.624-3.639-7.27-7.255C-406.431,1482.749-406.435,1482.7-406.449,1482.668Z" transform="translate(-188.546 -360.482)" fill="#154a9e"/>
        <g id="Grupo_76407" data-name="Grupo 76407" transform="translate(-604.887 1094.614)">
          <path id="Trazado_112127" data-name="Trazado 112127" d="M-484.246,1390.129q-3.2,3.2-6.395,6.4c-.571.571-.572.574-.019,1.127q2.683,2.685,5.369,5.365c1.365,1.357,2.74,2.7,4.11,4.056q2.093-2.064,4.185-4.129,2.742-2.722,5.476-5.453c.132-.131.236-.31.438-.347l-10.168-10.013Z" transform="translate(491.072 -1379.503)" fill="#49a7f3"/>
          <path id="Trazado_112128" data-name="Trazado 112128" d="M-379.949,1321.857q-9.406,0-18.813-.008a1.438,1.438,0,0,0-1.124.463q-3.568,3.592-7.154,7.168l10.168,10.013a.409.409,0,0,1,.069-.008,24.473,24.473,0,0,1,2.372-2.47c1.984-2.048,4.046-4.021,6.067-6.034q4.252-4.237,8.491-8.487a1.213,1.213,0,0,0,.417-.637Z" transform="translate(416.861 -1321.849)" fill="#6db7f4"/>
        </g>
        <path id="Trazado_112129" data-name="Trazado 112129" d="M-396.349,1472.8l-10.1,9.929,17.571-2.536Z" transform="translate(-188.547 -360.542)" fill="url(#linear-gradient)"/>
      </g>
    </g>
  </g>
</svg>
