<svg xmlns="http://www.w3.org/2000/svg" xmlns:xlink="http://www.w3.org/1999/xlink" width="166.031" height="156.134" viewBox="0 0 166.031 156.134">
  <defs>
    <filter id="Trazado_134289" x="15.114" y="8.533" width="134.761" height="134.761" filterUnits="userSpaceOnUse">
      <feOffset input="SourceAlpha"/>
      <feGaussianBlur stdDeviation="2.5" result="blur"/>
      <feFlood flood-opacity="0.29"/>
      <feComposite operator="in" in2="blur"/>
      <feComposite in="SourceGraphic"/>
    </filter>
  </defs>
  <g id="Grupo_79503" data-name="Grupo 79503" transform="translate(14947.421 9625.576)">
    <rect id="Rectángulo_34269" data-name="Rectángulo 34269" width="166.031" height="98.339" rx="13" transform="translate(-14947.421 -9567.781)" fill="#f6f6f6"/>
    <path id="Trazado_108959" data-name="Trazado 108959" d="M1148.62,1788.316a66.208,66.208,0,0,1,62.354,44.174H1221.3a75.919,75.919,0,0,0-145.366,0h10.329A66.208,66.208,0,0,1,1148.62,1788.316Z" transform="translate(-16013.357 -11404.076)" fill="#92e6f0"/>
    <g transform="matrix(1, 0, 0, 1, -14947.42, -9625.58)" filter="url(#Trazado_134289)">
      <path id="Trazado_134289-2" data-name="Trazado 134289" d="M59.88,0A59.88,59.88,0,1,1,0,59.88,59.88,59.88,0,0,1,59.88,0Z" transform="translate(22.61 16.03)" fill="#70bdc6"/>
    </g>
    <path id="Trazado_134290" data-name="Trazado 134290" d="M6.973-2.2H3.12L2.388,0H.051l3.97-10.664H6.057L10.049,0H7.712ZM3.713-3.977H6.379L5.039-7.969ZM12.5-7.925l.066.916a2.767,2.767,0,0,1,2.278-1.062,2.3,2.3,0,0,1,1.875.74,3.451,3.451,0,0,1,.63,2.212V0H15.234V-5.08a1.379,1.379,0,0,0-.293-.98,1.31,1.31,0,0,0-.974-.3,1.456,1.456,0,0,0-1.34.763V0H10.51V-7.925ZM21.189,0H19.065V-7.925h2.124ZM18.94-9.976a1.042,1.042,0,0,1,.319-.784,1.2,1.2,0,0,1,.868-.308,1.2,1.2,0,0,1,.864.308,1.036,1.036,0,0,1,.322.784,1.039,1.039,0,0,1-.326.791,1.2,1.2,0,0,1-.861.308,1.2,1.2,0,0,1-.861-.308A1.039,1.039,0,0,1,18.94-9.976Zm5.977,2.051.066.886a2.785,2.785,0,0,1,2.278-1.033,2.114,2.114,0,0,1,2.1,1.208,2.721,2.721,0,0,1,2.38-1.208,2.364,2.364,0,0,1,1.919.751,3.451,3.451,0,0,1,.63,2.26V0H32.168V-5.065a1.515,1.515,0,0,0-.264-.987,1.167,1.167,0,0,0-.93-.312,1.321,1.321,0,0,0-1.318.91L29.663,0H27.546V-5.058a1.5,1.5,0,0,0-.271-1,1.178,1.178,0,0,0-.923-.308,1.371,1.371,0,0,0-1.3.749V0H22.932V-7.925ZM40.51,0A2.351,2.351,0,0,1,40.3-.71a2.561,2.561,0,0,1-2,.857,2.814,2.814,0,0,1-1.93-.674,2.167,2.167,0,0,1-.765-1.7,2.24,2.24,0,0,1,.934-1.934,4.608,4.608,0,0,1,2.7-.681h.974V-5.3a1.306,1.306,0,0,0-.282-.879,1.109,1.109,0,0,0-.89-.33,1.261,1.261,0,0,0-.839.256.871.871,0,0,0-.3.7H35.779A2.126,2.126,0,0,1,36.2-6.819a2.808,2.808,0,0,1,1.2-.919,4.378,4.378,0,0,1,1.743-.333,3.459,3.459,0,0,1,2.325.736,2.575,2.575,0,0,1,.861,2.069v3.435a3.789,3.789,0,0,0,.315,1.707V0ZM38.76-1.472a1.823,1.823,0,0,0,.864-.209,1.371,1.371,0,0,0,.586-.56V-3.6h-.791q-1.589,0-1.692,1.1l-.007.125A.847.847,0,0,0,38-1.729,1.081,1.081,0,0,0,38.76-1.472Zm8.5-.088a1.388,1.388,0,0,0,.952-.322,1.129,1.129,0,0,0,.381-.857h1.985a2.715,2.715,0,0,1-.439,1.476,2.9,2.9,0,0,1-1.183,1.04,3.7,3.7,0,0,1-1.659.37,3.44,3.44,0,0,1-2.681-1.08,4.275,4.275,0,0,1-.981-2.985v-.139A4.226,4.226,0,0,1,44.6-6.98a3.4,3.4,0,0,1,2.673-1.091,3.333,3.333,0,0,1,2.384.846,3,3,0,0,1,.912,2.252H48.589a1.455,1.455,0,0,0-.381-1.005,1.27,1.27,0,0,0-.967-.387,1.275,1.275,0,0,0-1.117.539,3.125,3.125,0,0,0-.377,1.749v.22A3.164,3.164,0,0,0,46.121-2.1,1.291,1.291,0,0,0,47.256-1.56ZM54.016,0H51.892V-7.925h2.124ZM51.768-9.976a1.042,1.042,0,0,1,.319-.784,1.2,1.2,0,0,1,.868-.308,1.2,1.2,0,0,1,.864.308,1.036,1.036,0,0,1,.322.784,1.039,1.039,0,0,1-.326.791,1.2,1.2,0,0,1-.861.308,1.2,1.2,0,0,1-.861-.308A1.039,1.039,0,0,1,51.768-9.976Zm3.662,5.94a4.7,4.7,0,0,1,.454-2.1,3.324,3.324,0,0,1,1.307-1.428,3.814,3.814,0,0,1,1.981-.505,3.609,3.609,0,0,1,2.618.981,3.939,3.939,0,0,1,1.132,2.666l.015.542A4.142,4.142,0,0,1,61.919-.956a3.539,3.539,0,0,1-2.732,1.1,3.556,3.556,0,0,1-2.736-1.1A4.215,4.215,0,0,1,55.43-3.94Zm2.117.15a2.962,2.962,0,0,0,.425,1.727,1.4,1.4,0,0,0,1.216.6,1.4,1.4,0,0,0,1.2-.591,3.241,3.241,0,0,0,.432-1.889,2.933,2.933,0,0,0-.432-1.716,1.4,1.4,0,0,0-1.216-.609,1.382,1.382,0,0,0-1.2.605A3.3,3.3,0,0,0,57.546-3.885ZM59.59-11.25H61.9L59.868-8.979H58.147Zm6.6,3.325.066.916a2.767,2.767,0,0,1,2.278-1.062,2.3,2.3,0,0,1,1.875.74,3.451,3.451,0,0,1,.63,2.212V0H68.921V-5.08a1.379,1.379,0,0,0-.293-.98,1.31,1.31,0,0,0-.974-.3,1.456,1.456,0,0,0-1.34.763V0H64.2V-7.925Z" transform="translate(-14902.596 -9516.955)" fill="#fff"/>
    <g id="Grupo_73928" data-name="Grupo 73928" transform="translate(-14886.961 -9591.973)">
      <path id="Trazado_108960" data-name="Trazado 108960" d="M1182.866,1905.254a1.171,1.171,0,0,1-.493-1.08c.03-.659-.014-1.321.016-1.979.016-.349-.11-.409-.426-.408-2.47.012-4.941.007-7.412.006-1.382,0-1.92-.547-1.921-1.945,0-.524-.006-1.049,0-1.573a1.537,1.537,0,0,1,1.65-1.648c2.538-.006,5.077-.012,7.615.008.4,0,.531-.1.489-.5-.057-.515.217-1.209-.112-1.5-.286-.254-.964-.076-1.47-.076q-3.2,0-6.4,0a1.575,1.575,0,0,1-1.777-1.781c0-.575-.006-1.15,0-1.726a1.524,1.524,0,0,1,1.645-1.646c2.538,0,5.076,0,7.615-.007.16,0,.452.123.463-.126.015-.323.194-.7-.156-.98-.372-.293-.727-.609-1.117-.875a1.816,1.816,0,0,1-.811-1.74c.037-.743,0-1.489.011-2.233a1.4,1.4,0,0,1,1.55-1.537q1.32-.012,2.64,0a1.4,1.4,0,0,1,1.547,1.536c.006.863,0,1.726,0,2.589a1.319,1.319,0,0,1-.422,1.048,8.045,8.045,0,0,1-1.333,1.087c-.522.292-.323.707-.352,1.094-.01.138.115.142.218.143H1201.5c1.244,0,1.8.548,1.8,1.781,0,.609.01,1.219,0,1.827a1.494,1.494,0,0,1-1.487,1.541c-.371.02-.745,0-1.117,0-5.415,0-10.83.007-16.245-.012-.46,0-.6.123-.546.563a4.415,4.415,0,0,1,0,1.014c-.055.447.132.515.535.512,2.353-.019,4.7-.009,7.057-.009h10c1.238,0,1.8.56,1.807,1.784,0,.61.009,1.219,0,1.828a1.5,1.5,0,0,1-1.529,1.552c-.592.018-1.185,0-1.777,0-5.178,0-10.357.005-15.535-.01-.43,0-.6.076-.559.544.048.588-.015,1.185.02,1.775a1.322,1.322,0,0,1-.438,1.151Zm6.55-14.327c-1.708,0-3.417.008-5.125-.007-.312,0-.413.081-.394.4.028.456.019.914,0,1.37-.009.259.069.353.34.353q5.125-.011,10.25,0c.272,0,.351-.093.341-.353a12.187,12.187,0,0,1,0-1.319c.025-.356-.089-.453-.445-.449C1192.732,1890.938,1191.074,1890.927,1189.416,1890.927Zm7.343,9.343c1.522,0,3.044-.01,4.565.008.338,0,.489-.054.457-.433a7.669,7.669,0,0,1,0-1.266c.03-.366-.1-.441-.448-.439-2.637.016-5.275.007-7.913.01-.539,0-1.287-.193-1.564.082-.349.345-.064,1.089-.115,1.657-.029.323.1.392.4.389C1193.682,1900.261,1195.22,1900.27,1196.759,1900.27Zm-18.46-2.122c-1.252,0-2.5.01-3.754-.007-.309,0-.419.074-.4.394a8.508,8.508,0,0,1,0,1.267c-.031.378.085.482.471.478,2.029-.021,4.058-.008,6.087-.011.538,0,1.279.19,1.563-.083.354-.34.067-1.082.118-1.648.029-.306-.063-.4-.384-.4C1180.767,1898.16,1179.533,1898.148,1178.3,1898.148Zm-.042-5.114c1.252,0,2.5-.008,3.755.006.284,0,.389-.074.375-.369-.022-.472-.014-.947,0-1.42.006-.22-.022-.332-.294-.331q-3.805.016-7.612,0c-.283,0-.339.1-.329.355.017.456.025.914,0,1.37-.02.324.1.4.405.394C1175.787,1893.025,1177.022,1893.034,1178.257,1893.034Zm8.788,7.236c.946,0,1.892-.009,2.837.005.263,0,.357-.071.346-.34-.019-.489-.022-.98,0-1.469.014-.289-.113-.324-.357-.323q-2.811.012-5.624,0c-.255,0-.362.057-.349.335a13.216,13.216,0,0,1,0,1.418c-.021.338.123.384.412.379C1185.221,1900.26,1186.133,1900.27,1187.045,1900.27Zm12.026-9.343c-.794,0-1.589.009-2.383-.005-.257,0-.357.057-.344.333.022.489.011.98,0,1.47,0,.2.027.315.271.314q2.434-.013,4.869,0c.222,0,.294-.079.289-.294-.011-.49-.023-.981,0-1.47.017-.306-.107-.357-.376-.352C1200.626,1890.937,1199.849,1890.927,1199.071,1890.927Zm-14.575-6.156c0-.355-.012-.71,0-1.065.011-.228-.076-.285-.292-.282-.693.012-1.387.021-2.079,0-.3-.01-.331.118-.327.359.011.625,0,1.25,0,1.876a2.222,2.222,0,0,0,1.334,1.34.535.535,0,0,0,.329-.109c.642-.457,1.259-.924,1.029-1.864A1.079,1.079,0,0,1,1184.5,1884.771Z" transform="translate(-1159.18 -1853.26)" fill="#fff"/>
      <path id="Trazado_108961" data-name="Trazado 108961" d="M1191.24,1834.1c.14.187.367.107.549.167a3.609,3.609,0,0,1,2.514,3.547c.01,3.791,0,7.582,0,11.372q0,3.808,0,7.616a3.6,3.6,0,0,1-3.842,3.835q-14.089.007-28.178,0a2.258,2.258,0,0,1-.4-.02.682.682,0,0,1-.615-.693.674.674,0,0,1,.534-.757,2.712,2.712,0,0,1,.654-.052q13.987,0,27.975,0a2.124,2.124,0,0,0,2.283-1.535,2.643,2.643,0,0,0,.068-.754q0-9.444,0-18.887a2.106,2.106,0,0,0-2.334-2.313h-36.4a2.1,2.1,0,0,0-2.322,2.324q0,9.417,0,18.835a2.094,2.094,0,0,0,2.311,2.329c1.506,0,3.012,0,4.519,0a3.5,3.5,0,0,1,.456.011.775.775,0,0,1,.718.78.748.748,0,0,1-.763.726c-.507.02-1.015.008-1.523.008-1.134,0-2.267,0-3.4,0a3.6,3.6,0,0,1-3.841-3.838q-.005-9.393,0-18.786a3.585,3.585,0,0,1,2.911-3.838c.023-.007.035-.051.052-.077Z" transform="translate(-1150.188 -1834.104)" fill="#fff"/>
      <path id="Trazado_108962" data-name="Trazado 108962" d="M1173.5,1853.087a10.583,10.583,0,0,1,4.978-2.939,10.9,10.9,0,0,1,2.3-.331c.64-.028,1,.234,1.021.721s-.3.769-.943.8a8.87,8.87,0,0,0-6.754,3.395c-.576.709-1.123.655-1.554-.165a12.432,12.432,0,0,0-8.162-6.543,11.666,11.666,0,0,0-2.96-.374.761.761,0,0,1-.785-.522.713.713,0,0,1,.189-.788.906.906,0,0,1,.754-.212,13.9,13.9,0,0,1,10.613,5.121A18.258,18.258,0,0,1,1173.5,1853.087Z" transform="translate(-1154.358 -1838.922)" fill="#fff"/>
      <path id="Trazado_108963" data-name="Trazado 108963" d="M1155.446,1906.472c1.2,0,2.4-.006,3.6,0a1.484,1.484,0,0,1,1.631,1.637c0,.66.007,1.32,0,1.98a1.45,1.45,0,0,1-1.471,1.541q-3.781.027-7.563,0a1.437,1.437,0,0,1-1.45-1.507q-.022-1.066,0-2.132a1.454,1.454,0,0,1,1.545-1.517C1152.975,1906.462,1154.21,1906.472,1155.446,1906.472Zm-.011,1.525c-1.117,0-2.234.008-3.351-.006-.274,0-.391.055-.375.356.025.473.017.948,0,1.421-.008.248.04.357.326.355q3.4-.017,6.8,0c.295,0,.327-.122.32-.361a13.147,13.147,0,0,1,0-1.37c.028-.359-.123-.407-.431-.4C1157.635,1908.006,1156.535,1908,1155.435,1908Z" transform="translate(-1150.185 -1863.107)" fill="#fff"/>
      <path id="Trazado_108964" data-name="Trazado 108964" d="M1155.477,1894.42c1.2,0,2.4-.006,3.6,0a1.464,1.464,0,0,1,1.6,1.608c0,.677.009,1.354,0,2.03a1.432,1.432,0,0,1-1.45,1.506q-3.781.034-7.562,0a1.431,1.431,0,0,1-1.47-1.486c-.017-.71-.015-1.421,0-2.132a1.441,1.441,0,0,1,1.527-1.527C1152.973,1894.411,1154.225,1894.42,1155.477,1894.42Zm-.044,1.524c-1.115,0-2.229.007-3.345-.005-.262,0-.4.033-.38.347.028.471.019.946,0,1.418-.009.255.059.354.336.353q3.395-.015,6.791,0c.289,0,.333-.116.326-.36-.014-.456-.025-.913,0-1.368.019-.312-.071-.4-.388-.393C1157.664,1895.956,1156.549,1895.944,1155.433,1895.944Z" transform="translate(-1150.185 -1858.277)" fill="#fff"/>
      <path id="Trazado_108965" data-name="Trazado 108965" d="M1207.43,1852.028a4.279,4.279,0,1,1-4.311-4.25A4.282,4.282,0,0,1,1207.43,1852.028Zm-1.526.024a2.754,2.754,0,0,0-5.507,0,2.778,2.778,0,0,0,2.733,2.759A2.75,2.75,0,0,0,1205.9,1852.052Z" transform="translate(-1169.698 -1839.584)" fill="#fff"/>
      <path id="Trazado_108966" data-name="Trazado 108966" d="M1161.7,1851.417a10.934,10.934,0,0,1,10.328,8.784c.117.62-.079,1.029-.544,1.137s-.836-.2-.955-.8a9.382,9.382,0,0,0-8.862-7.595c-.736-.036-1.09-.283-1.077-.779S1161,1851.4,1161.7,1851.417Z" transform="translate(-1154.356 -1841.042)" fill="#fff"/>
      <path id="Trazado_108967" data-name="Trazado 108967" d="M1190.847,1858.331a.737.737,0,0,1-.76.778,7.521,7.521,0,0,0-1.55.229,5.573,5.573,0,0,0-3.809,3.684,1.141,1.141,0,0,1-.4.683.71.71,0,0,1-.854-.017.748.748,0,0,1-.272-.9,7.113,7.113,0,0,1,3.9-4.544,6.661,6.661,0,0,1,2.892-.647A.745.745,0,0,1,1190.847,1858.331Z" transform="translate(-1163.398 -1843.521)" fill="#fff"/>
    </g>
  </g>
</svg>
