<svg xmlns="http://www.w3.org/2000/svg" width="84" height="84" viewBox="0 0 84 84">
  <g id="Grupo_79472" data-name="Grupo 79472" transform="translate(-1070 -6665)">
    <g id="Grupo_79468" data-name="Grupo 79468">
      <circle id="Elipse_4720" data-name="Elipse 4720" cx="42" cy="42" r="42" transform="translate(1070 6665)" fill="#fff"/>
      <g id="Grupo_76409" data-name="Grupo 76409" transform="translate(1363.258 5694.374)">
        <path id="Trazado_112130" data-name="Trazado 112130" d="M-235.074,980.824a8.186,8.186,0,0,1,1.813.8l.942.77,1.09,1.429.268.491.744,1.936.433,1.9a35.019,35.019,0,0,1,.187,5.769,14.59,14.59,0,0,0-.189,1.922,16.314,16.314,0,0,0-.283,1.922q-.188.962-.375,1.925c-.229.789-.229.79.557,1.046.15.049.305.085.458.127l2.046.734a.1.1,0,0,0,.078.022l1.84.766,1.813.874a1.519,1.519,0,0,0,.555.284l1.478.864c.207.145.411.295.621.436a14.524,14.524,0,0,1,4.514,4.463l.631,1.362.136.562a7.813,7.813,0,0,1,.135,1.913,8.484,8.484,0,0,1-1.71,3.851l-.483.572-1.374,1.337a2.082,2.082,0,0,0-.562.459,38.106,38.106,0,0,1-3.832,2.431l-1.949.941-1.9.786-1.916.69a4.868,4.868,0,0,0-1.157.38c-.093.023-.1.063-.021.116l0,.006a16.338,16.338,0,0,0,.388,1.9l.315,1.917.207,1.925c.025.412.052.824.077,1.237a32.53,32.53,0,0,1-.086,4.529l-.341,1.906-.615,1.939c-.1.2-.2.4-.3.6a6.356,6.356,0,0,1-4.243,3.579,10.343,10.343,0,0,1-1.911.176l-1.924-.218a23.48,23.48,0,0,1-3.839-1.389c-1.323-.691-2.594-1.468-3.846-2.279a2.441,2.441,0,0,0-.664-.473l-1.261-.961-1.157-.955-.771-.667c-.847-.894-.847-.894-1.709-.092-.081.075-.155.157-.232.236a2.35,2.35,0,0,0-.584.512l-1.317,1.078a7.98,7.98,0,0,0-1.093.842,3.985,3.985,0,0,0-.833.592c-1.252.814-2.525,1.591-3.85,2.282a24.351,24.351,0,0,1-3.846,1.359l-1.919.212-1.919-.213a6.5,6.5,0,0,1-3.079-1.983,10.916,10.916,0,0,1-1.354-2.236l-.593-1.919-.359-1.926c-.033-.523-.071-1.047-.1-1.57a39.651,39.651,0,0,1,.082-4.2l.211-1.921.327-1.916.39-1.915c-.357-.363-.855-.365-1.3-.509l-1.911-.695-3.852-1.726a34.406,34.406,0,0,1-3.856-2.454l-.49-.4-1.423-1.366-.479-.565a8.245,8.245,0,0,1-1.691-3.845,7.067,7.067,0,0,1,.121-1.917l.127-.536.639-1.386a12.911,12.911,0,0,1,2.625-3.035c.789-.678,1.655-1.251,2.5-1.851l1.522-.888a1.407,1.407,0,0,0,.516-.266l1.808-.873,1.843-.771a.092.092,0,0,0,.073-.021l1.927-.686c.183-.055.366-.109.548-.165.794-.246.794-.246.517-1.066l-.353-1.929-.271-1.91a25.869,25.869,0,0,1,.411-9.618l.7-1.806.371-.685,1.068-1.35.854-.694a7.672,7.672,0,0,1,5.763-.808l1.926.539,1.921.83.293.129,1.625.9c1.319.839,2.6,1.737,3.851,2.669a.867.867,0,0,0,.366.293l1.564,1.326c1.167,1.056.71,1.038,1.841.045a.783.783,0,0,0,.089-.11l1.517-1.275.413-.341c1.249-.926,2.513-1.832,3.831-2.659l1.518-.846.4-.2,1.937-.815a15.242,15.242,0,0,1,3.008-.7A9.028,9.028,0,0,1-235.074,980.824Zm-28.844,42.323a14.927,14.927,0,0,0,1.665.3l-.464-.694-1.2-1.918-1.115-1.938-.8-1.459a2.373,2.373,0,0,0-.465-.821,23.19,23.19,0,0,0-.833,2.291,11.99,11.99,0,0,0-.641,1.931.046.046,0,0,0-.017.058c-.112.326-.212.657-.339.977-.146.368-.051.538.356.5a9.535,9.535,0,0,0,1.907.411A9.819,9.819,0,0,0-263.918,1023.147Zm25,0a9.048,9.048,0,0,0,1.937-.37,9.951,9.951,0,0,0,1.909-.407c.387.013.57-.11.387-.53a8.436,8.436,0,0,0-.356-1.023l.007-.017a14.5,14.5,0,0,0-.683-2.014c-.169-.477-.348-.951-.5-1.433-.077-.242-.221-.5-.432-.5s-.29.3-.351.512l-.84,1.554-1.077,1.919-1.182,1.918a2.646,2.646,0,0,0-.437.707C-239.961,1023.32-239.426,1023.329-238.921,1023.148Zm-15.38-22.189c-.646-.041-1.285.079-1.928.1-.508.031-1.016.064-1.524.09a.462.462,0,0,0-.393.227q-.7,1.08-1.408,2.157a3.913,3.913,0,0,0-.522.857,5.28,5.28,0,0,0-.66,1.071,16.894,16.894,0,0,0-1.109,1.9l-.156.3a10.427,10.427,0,0,0-.888,1.632,17.875,17.875,0,0,0-1,1.933l-.03.1c-.182.353-.365.706-.546,1.06a.471.471,0,0,0,.026.457c.377.74.748,1.484,1.12,2.226a41.3,41.3,0,0,0,2.186,3.944,12.873,12.873,0,0,0,1.06,1.726l.063.109a17.353,17.353,0,0,0,1.248,1.93,4.329,4.329,0,0,0,.6.87.43.43,0,0,0,.452.344c.493.021.985.052,1.478.078l1.93.094a14.874,14.874,0,0,0,1.918.032h1.924a14.574,14.574,0,0,0,1.918-.033l1.93-.1c.487-.029.975-.052,1.461-.092.181-.015.394-.008.46-.25l.656-.963a20.473,20.473,0,0,0,1.233-1.918.1.1,0,0,0,.037-.085,15.412,15.412,0,0,0,1.122-1.838,41.176,41.176,0,0,0,2.093-3.83,12.294,12.294,0,0,1,.769-1.479,1.736,1.736,0,0,0-.044-2.217c-.028-.038-.056-.075-.084-.113a.043.043,0,0,0-.022-.056,17.76,17.76,0,0,0-.972-1.92,11.78,11.78,0,0,0-.925-1.675l-.129-.248a16.147,16.147,0,0,0-1.135-1.926,5.15,5.15,0,0,0-.671-1.079,3.65,3.65,0,0,0-.521-.846q-.709-1.079-1.416-2.16a.446.446,0,0,0-.385-.236c-.51-.019-1.019-.054-1.529-.083-.643-.016-1.281-.137-1.927-.095l-1.922-.026a14.742,14.742,0,0,0-1.92,0Zm-13.453,24.829c-.06-.017-.119-.035-.18-.049-1.137-.275-1.137-.275-1.346.872a12.738,12.738,0,0,0-.316,1.919.268.268,0,0,0-.047.082,27.981,27.981,0,0,0-.3,6.729,10.45,10.45,0,0,0,.558,2.806,4.688,4.688,0,0,0,.947,1.922,1.888,1.888,0,0,0,.676.649,3.037,3.037,0,0,0,1.918.485,6.251,6.251,0,0,0,1.93-.312,14.25,14.25,0,0,0,3.839-1.7,9.986,9.986,0,0,0,1.639-1.041l.286-.194a28.966,28.966,0,0,0,3.948-3.168c.115-.2.635-.219.3-.606-.537-.614-1.1-1.2-1.656-1.8l-.667-.768-.965-1.156-.947-1.175a3.811,3.811,0,0,0-.579-.753c-.307-.423-.617-.843-.919-1.269a.41.41,0,0,0-.44-.207l-1.915-.237-3.839-.613Zm32.667-.012-1.924.412-3.833.623-1.917.22c-.206-.036-.319.093-.424.239q-.455.632-.912,1.263l-.59.773-.9,1.132-1.032,1.245a2.963,2.963,0,0,0-.593.682l-1.319,1.455c-.115.109-.225.222-.345.325-.163.14-.132.245.021.38a36.213,36.213,0,0,0,4.172,3.327,1.242,1.242,0,0,0,.459.305,8.428,8.428,0,0,0,1.465.931,9.642,9.642,0,0,0,1.921.982,7.862,7.862,0,0,0,1.913.728,5.725,5.725,0,0,0,1.934.317,2.892,2.892,0,0,0,1.919-.392,1.638,1.638,0,0,0,.7-.64,4.3,4.3,0,0,0,.943-1.828,12.2,12.2,0,0,0,.646-3.956,15.714,15.714,0,0,0,0-1.919,21.844,21.844,0,0,0-.381-3.849,10.555,10.555,0,0,0-.358-1.928c-.038-.233-.086-.465-.111-.7-.036-.346-.144-.52-.54-.362A6.889,6.889,0,0,1-235.088,1025.775Zm-48.815-12.629a3.348,3.348,0,0,0,.759,1.533,1.049,1.049,0,0,0,.3.39,7.53,7.53,0,0,0,1.616,1.546,1.413,1.413,0,0,0,.488.377,7.36,7.36,0,0,0,1.437.964,22.923,22.923,0,0,0,3.843,1.979,16.365,16.365,0,0,0,1.914.739,1.219,1.219,0,0,0,.545.183,12.316,12.316,0,0,0,1.381.5c.191.076.252,0,.3-.166.219-.761.446-1.521.67-2.28a16.39,16.39,0,0,0,.671-1.924l1.541-3.844a.88.88,0,0,0,.066-1.084c-.152-.275-.267-.572-.4-.859l-1.5-3.827a17.9,17.9,0,0,0-.659-1.926q-.216-.754-.431-1.507c-.06-.211-.163-.309-.368-.142a11.8,11.8,0,0,0-1.8.609,24.091,24.091,0,0,0-3.958,1.706,17.549,17.549,0,0,0-3.732,2.342,4.742,4.742,0,0,0-.958.844,4.262,4.262,0,0,0-.977,1.133,1.829,1.829,0,0,0-.477.786A2.341,2.341,0,0,0-283.9,1013.147Zm64.972,0a2.32,2.32,0,0,0-.262-1.931,1.928,1.928,0,0,0-.485-.79,4.3,4.3,0,0,0-.975-1.125,4.689,4.689,0,0,0-.967-.851,17.907,17.907,0,0,0-3.725-2.336,23.652,23.652,0,0,0-3.962-1.7,12.947,12.947,0,0,0-1.794-.611c-.228-.149-.36-.108-.434.175-.131.5-.291.991-.439,1.487l-.634,1.911-1.493,3.856c-.082.172-.158.348-.247.517-.244.463-.448.924-.038,1.4l1.6,3.969.62,1.8c.118.378.216.763.361,1.131.175.444.1,1.17.512,1.281s.941-.271,1.419-.437c.014,0,.023-.021.035-.032a.919.919,0,0,0,.534-.218,8.424,8.424,0,0,0,2.023-.757,20.383,20.383,0,0,0,3.749-1.921,7.106,7.106,0,0,0,1.44-.966,1.445,1.445,0,0,0,.487-.373,7.581,7.581,0,0,0,1.619-1.554.955.955,0,0,0,.3-.383A3.215,3.215,0,0,0-218.931,1013.147Zm-19.994-14.6,1.929.351,1.92.39,1.05.273c.156.041.27.034.3-.172a13.439,13.439,0,0,0,.289-1.625,23.163,23.163,0,0,0,.531-3.846c.026-.335.058-.669.077-1a17.055,17.055,0,0,0-.295-4.628l-.028-.14a5.841,5.841,0,0,0-.563-1.927,3.353,3.353,0,0,0-1.36-1.839l-.123-.074a2.792,2.792,0,0,0-1.806-.394,8.822,8.822,0,0,0-3.95,1.053,18.9,18.9,0,0,0-3.755,2.189,8.708,8.708,0,0,0-1.338.988,2.069,2.069,0,0,0-.582.46,13.459,13.459,0,0,0-1.727,1.463l-.194.176c-.625.459-.625.459-.1.983a1,1,0,0,0,.113.085l.645.695,1.267,1.443a1.634,1.634,0,0,0,.393.468l1.519,1.864a.064.064,0,0,0,.036.057q.74,1,1.479,2a.453.453,0,0,0,.344.221c.667.06,1.332.134,2,.2A14.456,14.456,0,0,0-238.926,998.552Zm-24.988,0a13.113,13.113,0,0,0,1.925-.287c.667-.069,1.333-.141,2-.2a.409.409,0,0,0,.313-.187q.733-1.008,1.469-2.013l.067-.091,1.508-1.852.4-.482,1.258-1.435a3.935,3.935,0,0,0,.679-.745c.059-.052.116-.107.179-.154.31-.232.352-.457-.008-.682-.066-.041-.126-.092-.19-.139l-.255-.221a14.221,14.221,0,0,0-1.664-1.412,2.938,2.938,0,0,0-.659-.5,8.135,8.135,0,0,0-1.264-.934,19.756,19.756,0,0,0-3.842-2.217,7.337,7.337,0,0,0-1.922-.7.041.041,0,0,0-.052-.019,5.6,5.6,0,0,0-2.092-.34,2.634,2.634,0,0,0-1.7.456,3.165,3.165,0,0,0-1.352,1.729,4.266,4.266,0,0,0-.2.428,20.167,20.167,0,0,0-.44,9.386l.293,1.825c.038.22.069.44.116.658.283,1.326.283,1.325,1.583.876l1.921-.39Zm13.458,28.939-1.927,0-1.917-.033a3.78,3.78,0,0,0-1.027-.071c.007.078,0,.116.015.136,1.165,1.508,2.427,2.932,3.725,4.326.209.224.3.089.448-.06.96-.988,1.847-2.041,2.731-3.095.341-.406.652-.838,1.032-1.329a6.715,6.715,0,0,0-1.159.1Zm14.31-20.111a13.689,13.689,0,0,0,.679-1.921c.3-.723.5-1.479.741-2.218.12-.36.061-.529-.332-.527A13.932,13.932,0,0,0-237,1002.3a15.327,15.327,0,0,0-1.9-.364,8.237,8.237,0,0,0-1.627-.229l2.288,3.75,1.669,3.11Zm-30.566,0a5.654,5.654,0,0,0,.459,1.188l1.656-3.115,2.293-3.8-1.613.265-1.927.375a14.354,14.354,0,0,0-1.941.411c-.386.009-.525.141-.369.552.275.725.5,1.469.745,2.205A12.378,12.378,0,0,0-266.712,1007.382Zm18.174-9.729h1.063a11.919,11.919,0,0,0-1.066-1.317l-.438-.511a16.325,16.325,0,0,0-1.485-1.7l-.193-.2c-1-1.073-.615-1.076-1.569-.019l-.168.183a14.7,14.7,0,0,0-1.531,1.753,1.424,1.424,0,0,0-.388.465,13.653,13.653,0,0,0-1.131,1.394l1.143-.053a15.033,15.033,0,0,0,1.917-.061,10.453,10.453,0,0,0,1.928,0A14.853,14.853,0,0,0-248.537,997.653Z" fill="#1ea6ce"/>
        <path id="Trazado_112131" data-name="Trazado 112131" d="M-190.529,1074.029a9.767,9.767,0,0,1-1.206-1.935,7.043,7.043,0,0,1-.023-4.881c.111-.3.249-.587.375-.88a7.274,7.274,0,0,1,2.987-2.8,9.327,9.327,0,0,1,1.927-.578,7.982,7.982,0,0,1,1.919,0,9.53,9.53,0,0,1,1.926.58,7.327,7.327,0,0,1,2.977,2.8,7.211,7.211,0,0,1,.776,3.843,9.031,9.031,0,0,1-.433,1.908,9.578,9.578,0,0,1-1.115,1.839l-.281.316a7.317,7.317,0,0,1-3.853,1.983l-1.914,0a7.423,7.423,0,0,1-3.839-1.953Z" transform="translate(-65.91 -57.032)" fill="#1ea6ce"/>
      </g>
    </g>
  </g>
</svg>
