<svg xmlns="http://www.w3.org/2000/svg" width="258" height="209" viewBox="0 0 258 209">
  <g id="Grupo_79603" data-name="Grupo 79603" transform="translate(13699 9409.378)">
    <g id="Grupo_79596" data-name="Grupo 79596">
      <rect id="Rectángulo_34287" data-name="Rectángulo 34287" width="258" height="209" transform="translate(-13699 -9409.378)" fill="#fee2bf"/>
      <g id="Grupo_79592" data-name="Grupo 79592" transform="translate(-13737.884 -9436.409)">
        <path id="Trazado_109636" data-name="Trazado 109636" d="M73.059,398.479c0,1-6.537,1.82-14.6,1.82s-14.6-.815-14.6-1.82,6.537-1.82,14.6-1.82,14.6.815,14.6,1.82" transform="translate(0 -224.06)" fill="#ffcfb3"/>
        <path id="Trazado_109637" data-name="Trazado 109637" d="M88.438,130.647a3.8,3.8,0,0,1-.611-2.8c.151-1.975,1.341-2.2,2.518-2.2s1.893.23,2.637-.446,1.2-1.755,2.437-1.694c1.849.091,2,2.226.9,3.447a4.85,4.85,0,0,1-3.285,1.235Z" transform="translate(-31.703 -27.007)" fill="#242838"/>
        <path id="Trazado_109638" data-name="Trazado 109638" d="M118.575,228.968l-1.782.825-6.1-10.468a2.133,2.133,0,1,1,3.855-1.785Z" transform="translate(-48 -93.818)" fill="#ff6363"/>
        <path id="Trazado_109639" data-name="Trazado 109639" d="M110.456,201.889l.819,5.388-4.087,1.2-1.321-5.539Z" transform="translate(-44.731 -83.555)" fill="#ff6363"/>
        <path id="Trazado_109640" data-name="Trazado 109640" d="M110.456,201.889l-4.589,1.05,1.306,5.479c0,.009.005.018.007.028l.008.032h0a2.128,2.128,0,0,0,.232.584l2.895,4.965c.431-2.163,1.815-4.324,1.384-5.548l-.424-1.2Z" transform="translate(-44.732 -83.555)" fill="#b54646"/>
        <path id="Trazado_109641" data-name="Trazado 109641" d="M132.236,259.55c1-.285,1.635.529,2.016,1.351a5.589,5.589,0,0,1,.224.557.818.818,0,0,1-.421.99l-1.221.6a.675.675,0,0,1-.537.025l-.5-.191a.5.5,0,0,1-.32-.409l-.1-.81.274-.243s-.622-1.525.587-1.868" transform="translate(-63.133 -125.109)" fill="#ff6363"/>
        <path id="Trazado_109642" data-name="Trazado 109642" d="M135.149,262.117l.285,1.142-.765.7.32.32,1.4-.742-.182-.708" transform="translate(-65.51 -127.003)" fill="none" stroke="#b54646" stroke-miterlimit="10" stroke-width="0.653"/>
        <line id="Línea_281" data-name="Línea 281" y1="0.673" x2="0.827" transform="translate(68.516 135.636)" fill="none" stroke="#b54646" stroke-miterlimit="10" stroke-width="0.653"/>
        <path id="Trazado_109643" data-name="Trazado 109643" d="M106.442,178.364,99.873,180l-1.458-7.555a2.978,2.978,0,0,1,5.771-1.437Z" transform="translate(-39.317 -59.759)" fill="#d9953a"/>
        <path id="Trazado_109644" data-name="Trazado 109644" d="M61.79,390.414a2.605,2.605,0,1,0-5,0Z" transform="translate(-9.252 -217.15)" fill="#ff6363"/>
        <path id="Trazado_109645" data-name="Trazado 109645" d="M114.591,390.414a2.605,2.605,0,1,0-5,0Z" transform="translate(-47.342 -217.15)" fill="#ff6363"/>
        <path id="Trazado_109646" data-name="Trazado 109646" d="M61.64,379.972H58.421l1.508-6.164h3.219Z" transform="translate(-10.505 -207.575)" fill="#ff6363"/>
        <path id="Trazado_109647" data-name="Trazado 109647" d="M113.753,379.972h-3.219l-.242-6.164h3.584Z" transform="translate(-47.924 -207.575)" fill="#ff6363"/>
        <path id="Trazado_109648" data-name="Trazado 109648" d="M84.658,230.971l5.363,21.554a3.841,3.841,0,0,0,7.506-1.616l-4.1-22.471Z" transform="translate(-29.432 -102.707)" fill="#405091"/>
        <path id="Trazado_109649" data-name="Trazado 109649" d="M110.564,322.016l-4.7,0-1.321-18.318a3.7,3.7,0,1,1,7.374.007Z" transform="translate(-43.771 -154.137)" fill="#405091"/>
        <path id="Trazado_109650" data-name="Trazado 109650" d="M94.895,236.46l-1.462-8.022-8.774,2.533,4.54,18.245c.566-2.948,2.727-9.958,5.7-12.757" transform="translate(-29.433 -102.707)" fill="#2d3866"/>
        <path id="Trazado_109651" data-name="Trazado 109651" d="M67.611,231.553l-.826,22.2a3.841,3.841,0,0,0,7.659.529l2.3-22.725Z" transform="translate(-16.537 -104.954)" fill="#405091"/>
        <path id="Trazado_109652" data-name="Trazado 109652" d="M65.233,322.552l-4.625-.828,1.911-18.266a3.7,3.7,0,1,1,7.258,1.3Z" transform="translate(-12.082 -154.436)" fill="#405091"/>
        <path id="Trazado_109653" data-name="Trazado 109653" d="M90.93,149.417l-.493,3.774,3.009.344.535-3.6Z" transform="translate(-33.601 -45.703)" fill="#ff6363"/>
        <path id="Trazado_109654" data-name="Trazado 109654" d="M76.618,159.77a9.574,9.574,0,0,1,3.683,2.208,5.385,5.385,0,0,1,1.8,4.006V176.36l.609,7.519H67.79V167.9a7,7,0,0,1,2.61-5.448,19.476,19.476,0,0,1,4.178-2.679Z" transform="translate(-17.263 -53.171)" fill="#ffb34f"/>
        <path id="Trazado_109655" data-name="Trazado 109655" d="M73.288,196.491c1.507-3.972-.183-8.721-.183-8.721l-5.316,1.475v14.833h3.873c-.338-2.775.4-4.345,1.626-7.587" transform="translate(-17.263 -73.37)" fill="#d9953a"/>
        <path id="Trazado_109656" data-name="Trazado 109656" d="M91.372,160.42a6.443,6.443,0,0,0-1.548-.65H87.784a13.711,13.711,0,0,0-1.688.9c2.056,2.4,5.824,2.874,5.276-.246" transform="translate(-30.469 -53.171)" fill="#ff6363"/>
        <path id="Trazado_109657" data-name="Trazado 109657" d="M55.053,399.732H63.2a.685.685,0,0,0,.685-.685H55.053Z" transform="translate(-8.075 -225.782)" fill="#292929"/>
        <path id="Trazado_109658" data-name="Trazado 109658" d="M55.053,391.079a2.55,2.55,0,0,1,.52-1.848l3.327.456-.018-.04a1,1,0,0,1,.443-1.3l.656-.349.882,1.194,3.025,1.13v.754Z" transform="translate(-8.075 -217.814)" fill="#405091"/>
        <path id="Trazado_109659" data-name="Trazado 109659" d="M107.854,399.732H116a.685.685,0,0,0,.685-.685h-8.835Z" transform="translate(-46.165 -225.782)" fill="#292929"/>
        <path id="Trazado_109660" data-name="Trazado 109660" d="M107.854,391.079a2.55,2.55,0,0,1,.52-1.848l3.327.456-.018-.04a1,1,0,0,1,.443-1.3l.656-.349.882,1.194,3.025,1.13v.754Z" transform="translate(-46.165 -217.814)" fill="#405091"/>
        <path id="Trazado_109661" data-name="Trazado 109661" d="M66.317,232.2l-1.914.439-3.808-11.5a2.133,2.133,0,1,1,4.14-.949Z" transform="translate(-11.995 -95.418)" fill="#ff6363"/>
        <path id="Trazado_109662" data-name="Trazado 109662" d="M74.239,264.052c.788-.412,1.793.467,2.352,1.054a.811.811,0,0,1,.193.783L76.5,266.9a.441.441,0,0,1-.345.313l-1.865.34a.31.31,0,0,1-.316-.136l-.23-.353a.443.443,0,0,1,.006-.494l.113-.163s-1.214-1.518.379-2.351" transform="translate(-21.323 -128.322)" fill="#ff6363"/>
        <line id="Línea_282" data-name="Línea 282" y1="1.553" x2="0.325" transform="translate(54.473 137.402)" fill="none" stroke="#b54646" stroke-miterlimit="10" stroke-width="0.653"/>
        <line id="Línea_283" data-name="Línea 283" y1="1.553" x2="0.325" transform="translate(53.767 137.564)" fill="none" stroke="#b54646" stroke-miterlimit="10" stroke-width="0.653"/>
        <line id="Línea_284" data-name="Línea 284" y1="1.553" x2="0.325" transform="translate(53.098 137.619)" fill="none" stroke="#b54646" stroke-miterlimit="10" stroke-width="0.653"/>
        <path id="Trazado_109663" data-name="Trazado 109663" d="M60.663,206.3l4.22.327,1.562-6.756-4.435-.548Z" transform="translate(-12.122 -81.703)" fill="#ff6363"/>
        <path id="Trazado_109664" data-name="Trazado 109664" d="M67.1,203.41l.818-3.54-4.435-.548-.769,3.984a.477.477,0,0,0,.685.518,4.756,4.756,0,0,1,3.7-.415" transform="translate(-13.594 -81.704)" fill="#b54646"/>
        <path id="Trazado_109665" data-name="Trazado 109665" d="M92.672,149.5a3.058,3.058,0,0,0,2.476,3.4L95.58,150Z" transform="translate(-35.2 -45.765)" fill="#b54646"/>
        <path id="Trazado_109666" data-name="Trazado 109666" d="M68.148,184.564l-6.626-1.385,1.974-7.436a2.978,2.978,0,0,1,5.822,1.217Z" transform="translate(-12.742 -63.096)" fill="#ffb34f"/>
        <line id="Línea_285" data-name="Línea 285" y1="8.024" x2="1.201" transform="translate(55.406 113.444)" fill="none" stroke="#b57c30" stroke-miterlimit="10" stroke-width="0.653"/>
        <path id="Trazado_109667" data-name="Trazado 109667" d="M93.141,140.834,93.463,139a6.987,6.987,0,0,1-3.054-.1c-.164,1.3-.535,2.043-1.005,2.283a.868.868,0,0,0-.865-.766,1.017,1.017,0,0,0,.238,1.962.642.642,0,0,0,.339-.156,2.23,2.23,0,0,0,1.528,1.764,1.937,1.937,0,0,0,2.616-1.269,2.979,2.979,0,0,0-.119-1.884" transform="translate(-31.755 -38.117)" fill="#ff6363"/>
        <path id="Trazado_109668" data-name="Trazado 109668" d="M100,145.17c0,.136-.08.247-.179.247s-.178-.11-.178-.247.08-.247.178-.247.179.111.179.247" transform="translate(-40.245 -42.461)" fill="#242838"/>
        <path id="Trazado_109669" data-name="Trazado 109669" d="M104.565,145.307c0,.136-.08.247-.179.247s-.178-.11-.178-.247.08-.247.178-.247.179.111.179.247" transform="translate(-43.535 -42.56)" fill="#242838"/>
        <path id="Trazado_109670" data-name="Trazado 109670" d="M98.059,143.391a1.061,1.061,0,0,1,1.119.291" transform="translate(-39.099 -41.318)" fill="none" stroke="#242838" stroke-miterlimit="10" stroke-width="0.583"/>
        <path id="Trazado_109671" data-name="Trazado 109671" d="M103.929,143.957a.935.935,0,0,1,.835-.177" transform="translate(-43.334 -41.621)" fill="none" stroke="#242838" stroke-miterlimit="10" stroke-width="0.583"/>
        <path id="Trazado_109672" data-name="Trazado 109672" d="M102.36,145.946l.249.693a.216.216,0,0,1-.225.289l-.31-.03" transform="translate(-41.996 -43.199)" fill="none" stroke="#242838" stroke-miterlimit="10" stroke-width="0.583"/>
        <line id="Línea_286" data-name="Línea 286" x1="1.579" y1="0.194" transform="translate(58.945 104.021)" fill="none" stroke="#242838" stroke-miterlimit="10" stroke-width="0.583"/>
        <path id="Trazado_109673" data-name="Trazado 109673" d="M183.634,398.479c0,1-6.537,1.82-14.6,1.82s-14.6-.815-14.6-1.82,6.537-1.82,14.6-1.82,14.6.815,14.6,1.82" transform="translate(-79.767 -224.06)" fill="#ffcfb3"/>
        <path id="Trazado_109674" data-name="Trazado 109674" d="M219.981,231.922l-1.9.506-4.21-11.363a2.133,2.133,0,1,1,4.1-1.094Z" transform="translate(-122.549 -95.314)" fill="#b54646"/>
        <path id="Trazado_109675" data-name="Trazado 109675" d="M228.129,264.039c1.039-.108,1.52.8,1.753,1.678a5.642,5.642,0,0,1,.125.587.818.818,0,0,1-.585.9l-1.306.381a.673.673,0,0,1-.534-.068l-.461-.275a.5.5,0,0,1-.245-.458l.041-.815.312-.193s-.35-1.609.9-1.739" transform="translate(-132.026 -128.383)" fill="#b54646"/>
        <path id="Trazado_109676" data-name="Trazado 109676" d="M230.813,266.775l.084,1.174-.873.554.26.37,1.511-.489-.058-.729" transform="translate(-134.297 -130.363)" fill="none" stroke="#b54646" stroke-miterlimit="10" stroke-width="0.653"/>
        <line id="Línea_287" data-name="Línea 287" y1="0.521" x2="0.93" transform="translate(95.204 136.875)" fill="none" stroke="#b54646" stroke-miterlimit="10" stroke-width="0.653"/>
        <path id="Trazado_109677" data-name="Trazado 109677" d="M217.212,205.026l-.121,5.449-4.233.479-.347-5.683Z" transform="translate(-121.663 -85.818)" fill="#b54646"/>
        <path id="Trazado_109678" data-name="Trazado 109678" d="M216.335,180.329l-6.752.48-.136-7.693a2.978,2.978,0,0,1,5.933-.422Z" transform="translate(-119.453 -60.613)" fill="#d9953a"/>
        <path id="Trazado_109679" data-name="Trazado 109679" d="M225.06,390.414a2.605,2.605,0,1,0-5,0Z" transform="translate(-127.032 -217.15)" fill="#ff6363"/>
        <path id="Trazado_109680" data-name="Trazado 109680" d="M170.55,376.853l-3.206-.287,1.975-7.171,3.282,1.452Z" transform="translate(-89.081 -204.392)" fill="#ff6363"/>
        <path id="Trazado_109681" data-name="Trazado 109681" d="M225.466,379.606l-3.188-.448.618-6.138,3.55.5Z" transform="translate(-128.709 -207.007)" fill="#ff6363"/>
        <path id="Trazado_109682" data-name="Trazado 109682" d="M226.067,319.337l-4.67-.516.682-18.353a3.7,3.7,0,1,1,7.329.809Z" transform="translate(-128.073 -152.101)" fill="#405091"/>
        <path id="Trazado_109683" data-name="Trazado 109683" d="M194.116,229.62l8.268,20.615a3.841,3.841,0,0,0,7.213-2.63l-7.137-21.7Z" transform="translate(-108.393 -100.882)" fill="#405091"/>
        <path id="Trazado_109684" data-name="Trazado 109684" d="M205.008,233.653l-2.548-7.745-8.344,3.712,7,17.45c.156-3,1.336-10.238,3.893-13.417" transform="translate(-108.393 -100.882)" fill="#2d3866"/>
        <path id="Trazado_109685" data-name="Trazado 109685" d="M175.738,226.9l2.955,22.014a3.841,3.841,0,0,0,7.638-.779l-1.593-22.786Z" transform="translate(-95.136 -100.48)" fill="#405091"/>
        <path id="Trazado_109686" data-name="Trazado 109686" d="M182.884,165.1l-2.735.775a4.821,4.821,0,0,0-3.414,3.692l-2.608,13.028.433,6.568h16.256l-1.986-6.986L190,170.381a4.031,4.031,0,0,0-2.749-4.228l-1.542-.508Z" transform="translate(-93.974 -57.015)" fill="#ffb34f"/>
        <path id="Trazado_109687" data-name="Trazado 109687" d="M181.5,194.144c1.05-4.4.2-6.374.2-6.374l-5.788,2.252-1.787,8.926.434,6.568h4.5c-.837-3.93,1.5-7.43,2.441-11.372" transform="translate(-93.974 -73.37)" fill="#d9953a"/>
        <path id="Trazado_109688" data-name="Trazado 109688" d="M174.4,227.8l-1.935.338-3.2-11.688a2.133,2.133,0,1,1,4.184-.731Z" transform="translate(-90.412 -92.111)" fill="#ff6363"/>
        <path id="Trazado_109689" data-name="Trazado 109689" d="M180.766,259.9c.809-.371,1.766.559,2.294,1.175a.811.811,0,0,1,.151.792l-.338.99a.441.441,0,0,1-.361.3l-1.881.242a.31.31,0,0,1-.308-.152l-.211-.364a.444.444,0,0,1,.032-.493l.121-.157s-1.133-1.579.5-2.328" transform="translate(-98.126 -125.343)" fill="#ff6363"/>
        <line id="Línea_288" data-name="Línea 288" y1="1.534" x2="0.406" transform="translate(84.027 136.326)" fill="none" stroke="#b54646" stroke-miterlimit="10" stroke-width="0.653"/>
        <line id="Línea_289" data-name="Línea 289" y1="1.534" x2="0.406" transform="translate(83.313 136.451)" fill="none" stroke="#b54646" stroke-miterlimit="10" stroke-width="0.653"/>
        <line id="Línea_290" data-name="Línea 290" y1="1.534" x2="0.406" transform="translate(82.643 136.471)" fill="none" stroke="#b54646" stroke-miterlimit="10" stroke-width="0.653"/>
        <path id="Trazado_109690" data-name="Trazado 109690" d="M169.816,201.135l4.142.868,2.421-6.5-4.327-1.116Z" transform="translate(-90.864 -78.146)" fill="#ff6363"/>
        <path id="Trazado_109691" data-name="Trazado 109691" d="M174.778,194.389l-1.128,3.4a1.059,1.059,0,0,0,.984,1.4c1.12,0,2.339-.548,3.218-.323l1.254-3.365Z" transform="translate(-93.59 -78.145)" fill="#b54646"/>
        <path id="Trazado_109692" data-name="Trazado 109692" d="M175.8,319.05l-4.7-1.15,4.387-18.134a3.7,3.7,0,1,1,7.04,2.192Z" transform="translate(-91.791 -152.101)" fill="#405091"/>
        <path id="Trazado_109693" data-name="Trazado 109693" d="M179.152,181.654l-6.391-2.229,2.918-7.119a2.978,2.978,0,0,1,5.616,1.958Z" transform="translate(-92.988 -60.88)" fill="#ffb34f"/>
        <path id="Trazado_109694" data-name="Trazado 109694" d="M171.665,390.414a2.605,2.605,0,1,0-5,0Z" transform="translate(-88.514 -217.15)" fill="#ff6363"/>
        <path id="Trazado_109695" data-name="Trazado 109695" d="M164.928,399.732h8.151a.685.685,0,0,0,.685-.685h-8.836Z" transform="translate(-87.338 -225.782)" fill="#292929"/>
        <path id="Trazado_109696" data-name="Trazado 109696" d="M164.928,391.079a2.55,2.55,0,0,1,.52-1.848l3.327.456-.018-.04a1,1,0,0,1,.443-1.3l.656-.349.882,1.194,3.025,1.13v.754Z" transform="translate(-87.338 -217.814)" fill="#405091"/>
        <path id="Trazado_109697" data-name="Trazado 109697" d="M218.323,399.732h8.151a.685.685,0,0,0,.685-.685h-8.835Z" transform="translate(-125.856 -225.782)" fill="#292929"/>
        <path id="Trazado_109698" data-name="Trazado 109698" d="M218.323,391.079a2.55,2.55,0,0,1,.52-1.848l3.327.456-.018-.04a1,1,0,0,1,.443-1.3l.656-.349.882,1.194,3.025,1.13v.754Z" transform="translate(-125.856 -217.814)" fill="#405091"/>
        <path id="Trazado_109699" data-name="Trazado 109699" d="M201.313,165.433c.941,2.267,2.41,2.884,3.818,2.815s1.076-2.312,1.076-2.312l-.882-.291L202.5,165.1Z" transform="translate(-113.585 -57.015)" fill="#ff6363"/>
        <line id="Línea_291" data-name="Línea 291" y1="7.39" x2="2.142" transform="translate(86.164 113.384)" fill="none" stroke="#b57c30" stroke-miterlimit="10" stroke-width="0.653"/>
        <path id="Trazado_109700" data-name="Trazado 109700" d="M206.115,154.133l-1.26,3.591,2.874.957,1.265-3.413Z" transform="translate(-116.14 -49.104)" fill="#ff6363"/>
        <path id="Trazado_109701" data-name="Trazado 109701" d="M209.439,154.323a3.058,3.058,0,0,0,1.722,3.84l1.023-2.758Z" transform="translate(-119.329 -49.242)" fill="#b54646"/>
        <path id="Trazado_109702" data-name="Trazado 109702" d="M204.166,135.191a3.8,3.8,0,0,1-.8-2.752c.017-1.98,1.189-2.29,2.363-2.37s1.9.1,2.6-.624,1.079-1.832,2.317-1.855c1.851-.034,2.144,2.085,1.133,3.378a4.85,4.85,0,0,1-3.194,1.455Z" transform="translate(-115.066 -29.957)" fill="#242838"/>
        <path id="Trazado_109703" data-name="Trazado 109703" d="M209.155,145.639l.2-1.853a6.986,6.986,0,0,1-3.054.109c-.075,1.308-.4,2.075-.848,2.345a.869.869,0,0,0-.915-.706,1.017,1.017,0,0,0,.371,1.941.643.643,0,0,0,.328-.179,2.231,2.231,0,0,0,1.644,1.657,1.938,1.938,0,0,0,2.525-1.443,2.98,2.98,0,0,0-.247-1.872" transform="translate(-115.477 -41.641)" fill="#ff6363"/>
        <path id="Trazado_109704" data-name="Trazado 109704" d="M215.917,150.2c.009.136-.063.252-.161.258s-.186-.1-.195-.234.063-.252.161-.258.186.1.195.234" transform="translate(-123.863 -46.095)" fill="#242838"/>
        <path id="Trazado_109705" data-name="Trazado 109705" d="M220.478,150.022c.009.136-.063.252-.162.258s-.185-.1-.194-.234.063-.252.161-.258.186.1.195.234" transform="translate(-127.153 -45.97)" fill="#242838"/>
        <path id="Trazado_109706" data-name="Trazado 109706" d="M213.825,148.51a1.061,1.061,0,0,1,1.136.215" transform="translate(-122.611 -44.991)" fill="none" stroke="#242838" stroke-miterlimit="10" stroke-width="0.583"/>
        <path id="Trazado_109707" data-name="Trazado 109707" d="M219.746,148.637a.934.934,0,0,1,.821-.233" transform="translate(-126.882 -44.967)" fill="none" stroke="#242838" stroke-miterlimit="10" stroke-width="0.583"/>
        <path id="Trazado_109708" data-name="Trazado 109708" d="M218.446,150.791l.3.675a.217.217,0,0,1-.2.3l-.311-.009" transform="translate(-125.786 -46.694)" fill="none" stroke="#242838" stroke-miterlimit="10" stroke-width="0.583"/>
        <line id="Línea_292" data-name="Línea 292" x1="1.589" y1="0.087" transform="translate(91.331 105.464)" fill="none" stroke="#242838" stroke-miterlimit="10" stroke-width="0.583"/>
        <path id="Trazado_109709" data-name="Trazado 109709" d="M291.454,398.479c0,1-6.537,1.82-14.6,1.82s-14.6-.815-14.6-1.82,6.537-1.82,14.6-1.82,14.6.815,14.6,1.82" transform="translate(-157.547 -224.06)" fill="#ffcfb3"/>
        <path id="Trazado_109710" data-name="Trazado 109710" d="M325.131,390.414a2.605,2.605,0,1,0-5,0Z" transform="translate(-199.222 -217.15)" fill="#ff6363"/>
        <path id="Trazado_109711" data-name="Trazado 109711" d="M323.906,379.606l-3.188-.448,1.958-6.138,3.55.5Z" transform="translate(-199.722 -207.007)" fill="#ff6363"/>
        <path id="Trazado_109712" data-name="Trazado 109712" d="M283.475,390.414a2.605,2.605,0,1,0-5,0Z" transform="translate(-169.172 -217.15)" fill="#ff6363"/>
        <path id="Trazado_109713" data-name="Trazado 109713" d="M282.25,379.606l-3.188-.448,1.958-6.138,3.55.5Z" transform="translate(-169.672 -207.007)" fill="#ff6363"/>
        <path id="Trazado_109714" data-name="Trazado 109714" d="M320.482,141.083a3.8,3.8,0,0,1-1.127-2.634c-.223-1.968.9-2.417,2.058-2.639s1.9-.131,2.506-.935.849-1.95,2.075-2.122c1.834-.259,2.381,1.81,1.535,3.216a4.849,4.849,0,0,1-2.993,1.832Z" transform="translate(-198.719 -33.665)" fill="#242838"/>
        <path id="Trazado_109715" data-name="Trazado 109715" d="M322.035,229.334l-1.611,1.123-7.835-9.245a2.133,2.133,0,1,1,3.485-2.429Z" transform="translate(-193.493 -94.961)" fill="#b54646"/>
        <path id="Trazado_109716" data-name="Trazado 109716" d="M340.662,257.5c.939-.456,1.7.236,2.22.979a5.576,5.576,0,0,1,.318.509.817.817,0,0,1-.242,1.048l-1.1.8a.675.675,0,0,1-.525.118l-.527-.1a.5.5,0,0,1-.386-.347l-.24-.781.227-.288s-.878-1.393.252-1.942" transform="translate(-213.693 -123.564)" fill="#b54646"/>
        <path id="Trazado_109717" data-name="Trazado 109717" d="M345.25,260.431l.3.665-1.253.975-.371-.259.632-.819-.48-1.074" transform="translate(-216.467 -125.417)" fill="#b54646"/>
        <line id="Línea_293" data-name="Línea 293" y1="0.807" x2="0.697" transform="translate(126.717 135.067)" fill="#b54646"/>
        <path id="Trazado_109718" data-name="Trazado 109718" d="M301.24,238.58l10.4,19.624a3.841,3.841,0,0,0,6.894-3.378l-9.393-20.821Z" transform="translate(-185.671 -106.724)" fill="#405091"/>
        <path id="Trazado_109719" data-name="Trazado 109719" d="M309.143,234.006l-7.9,4.574,7.016,13.235c.088-4.606,1.887-10.357,3.923-11.081Z" transform="translate(-185.67 -106.724)" fill="#2d3866"/>
        <path id="Trazado_109720" data-name="Trazado 109720" d="M287.389,235.816l2.071,22.115a3.841,3.841,0,0,0,7.663-.473l-.679-22.831Z" transform="translate(-175.679 -107.172)" fill="#405091"/>
        <path id="Trazado_109721" data-name="Trazado 109721" d="M328.876,325.39l-4.508-1.325,3.883-17.951a3.7,3.7,0,1,1,7.074,2.08Z" transform="translate(-202.355 -156.638)" fill="#405091"/>
        <path id="Trazado_109722" data-name="Trazado 109722" d="M286.662,325.39l-4.507-1.325,3.883-17.951a3.7,3.7,0,1,1,7.074,2.08Z" transform="translate(-171.903 -156.638)" fill="#405091"/>
        <path id="Trazado_109723" data-name="Trazado 109723" d="M321.272,184.074l-6.538-1.753,2.386-7.315a2.978,2.978,0,0,1,5.744,1.54Z" transform="translate(-195.405 -62.68)" fill="#d9953a"/>
        <path id="Trazado_109724" data-name="Trazado 109724" d="M318.606,206.2l-1.9,5.11-4.157-.931,1.529-5.485Z" transform="translate(-193.832 -85.727)" fill="#b54646"/>
        <path id="Trazado_109725" data-name="Trazado 109725" d="M287.206,175.878l-2.523,11.194-.548,8.676h15.8l-2.192-7.306,2.353-13.209a1.994,1.994,0,0,0-1.963-2.343h-7.189a3.831,3.831,0,0,0-3.737,2.988" transform="translate(-173.332 -62.636)" fill="#ffb34f"/>
        <path id="Trazado_109726" data-name="Trazado 109726" d="M314.319,172.881c.731,1.324,1.583,2.809,3.759,2.87s1.416-2.87,1.416-2.87Z" transform="translate(-195.106 -62.629)" fill="#ff6363"/>
        <path id="Trazado_109727" data-name="Trazado 109727" d="M289.067,197.145a24.051,24.051,0,0,0,3.639-10.471l-5.665-.423-2.357,10.46-.548,8.675h6.4c-1.248-1.831-3.267-5.29-1.469-8.242" transform="translate(-173.332 -72.275)" fill="#d9953a"/>
        <path id="Trazado_109728" data-name="Trazado 109728" d="M278.836,224.724l-1.914.439-3.81-11.5a2.133,2.133,0,1,1,4.14-.95Z" transform="translate(-165.3 -90.023)" fill="#ff6363"/>
        <path id="Trazado_109729" data-name="Trazado 109729" d="M286.765,256.572c.788-.413,1.793.466,2.352,1.053a.811.811,0,0,1,.193.783l-.286,1.006a.441.441,0,0,1-.345.313l-1.865.341a.311.311,0,0,1-.316-.136l-.23-.353a.444.444,0,0,1,.006-.494l.113-.163s-1.214-1.517.378-2.351" transform="translate(-174.636 -122.926)" fill="#ff6363"/>
        <line id="Línea_294" data-name="Línea 294" y1="1.553" x2="0.325" transform="translate(113.686 135.318)" fill="none" stroke="#b54646" stroke-miterlimit="10" stroke-width="0.653"/>
        <line id="Línea_295" data-name="Línea 295" y1="1.553" x2="0.325" transform="translate(112.98 135.48)" fill="none" stroke="#b54646" stroke-miterlimit="10" stroke-width="0.653"/>
        <line id="Línea_296" data-name="Línea 296" y1="1.553" x2="0.325" transform="translate(112.311 135.535)" fill="none" stroke="#b54646" stroke-miterlimit="10" stroke-width="0.653"/>
        <path id="Trazado_109730" data-name="Trazado 109730" d="M274.251,198.975l3.83,1.8,3.855-5.764-3.953-2.085Z" transform="translate(-166.201 -77.091)" fill="#ff6363"/>
        <path id="Trazado_109731" data-name="Trazado 109731" d="M285.234,198.078l2.051-3.066-3.953-2.085-1.51,2.447a1.038,1.038,0,0,0,.4,1.468,30.5,30.5,0,0,1,3.015,1.236" transform="translate(-171.55 -77.09)" fill="#b54646"/>
        <path id="Trazado_109732" data-name="Trazado 109732" d="M286.5,184.022l-5.7-3.643,4.482-6.254a2.978,2.978,0,0,1,5.012,3.2Z" transform="translate(-170.924 -62.63)" fill="#ffb34f"/>
        <line id="Línea_297" data-name="Línea 297" y1="7.74" x2="4.406" transform="translate(115.53 113.761)" fill="none" stroke="#b57c30" stroke-miterlimit="10" stroke-width="0.653"/>
        <path id="Trazado_109733" data-name="Trazado 109733" d="M320.039,161.613,317.96,164.8l2.563,1.614,2.041-3.013Z" transform="translate(-197.733 -54.5)" fill="#ff6363"/>
        <path id="Trazado_109734" data-name="Trazado 109734" d="M324.536,161.912a3.058,3.058,0,0,0,.758,4.14l1.65-2.435Z" transform="translate(-202.112 -54.716)" fill="#b54646"/>
        <path id="Trazado_109735" data-name="Trazado 109735" d="M326.055,151.49l-.029-1.863a6.983,6.983,0,0,1-3.018.479c.084,1.308-.141,2.107-.557,2.431a.868.868,0,0,0-.994-.59,1.017,1.017,0,0,0,.6,1.882.642.642,0,0,0,.3-.218,2.231,2.231,0,0,0,1.833,1.446,1.938,1.938,0,0,0,2.331-1.739,2.98,2.98,0,0,0-.472-1.828" transform="translate(-199.897 -45.854)" fill="#ff6363"/>
        <path id="Trazado_109736" data-name="Trazado 109736" d="M332.584,156.838c.026.134-.032.257-.129.276s-.2-.075-.222-.209.032-.257.129-.276.2.075.222.209" transform="translate(-208.025 -50.904)" fill="#242838"/>
        <path id="Trazado_109737" data-name="Trazado 109737" d="M337.09,156.113a.221.221,0,0,1-.129.276c-.1.018-.2-.075-.221-.209a.221.221,0,0,1,.129-.276c.1-.018.2.075.222.209" transform="translate(-211.276 -50.381)" fill="#242838"/>
        <path id="Trazado_109738" data-name="Trazado 109738" d="M330.26,155.312a1.062,1.062,0,0,1,1.154.075" transform="translate(-206.606 -49.852)" fill="none" stroke="#242838" stroke-miterlimit="10" stroke-width="0.583"/>
        <path id="Trazado_109739" data-name="Trazado 109739" d="M336.2,154.645a.935.935,0,0,1,.787-.331" transform="translate(-210.894 -49.235)" fill="none" stroke="#242838" stroke-miterlimit="10" stroke-width="0.583"/>
        <path id="Trazado_109740" data-name="Trazado 109740" d="M335.4,157.11l.376.634a.217.217,0,0,1-.167.326l-.31.029" transform="translate(-210.244 -51.252)" fill="none" stroke="#242838" stroke-miterlimit="10" stroke-width="0.583"/>
        <line id="Línea_298" data-name="Línea 298" x1="1.588" y2="0.107" transform="translate(124.006 107.269)" fill="none" stroke="#242838" stroke-miterlimit="10" stroke-width="0.583"/>
        <path id="Trazado_109741" data-name="Trazado 109741" d="M318.394,399.732h8.151a.685.685,0,0,0,.685-.685h-8.835Z" transform="translate(-198.046 -225.782)" fill="#292929"/>
        <path id="Trazado_109742" data-name="Trazado 109742" d="M318.394,391.079a2.55,2.55,0,0,1,.52-1.848l3.327.456-.018-.04a1,1,0,0,1,.443-1.3l.656-.349.882,1.194,3.025,1.13v.754Z" transform="translate(-198.046 -217.814)" fill="#405091"/>
        <path id="Trazado_109743" data-name="Trazado 109743" d="M276.739,399.732h8.151a.685.685,0,0,0,.685-.685h-8.835Z" transform="translate(-167.996 -225.782)" fill="#292929"/>
        <path id="Trazado_109744" data-name="Trazado 109744" d="M276.739,391.079a2.55,2.55,0,0,1,.52-1.848l3.326.456-.018-.04a1,1,0,0,1,.443-1.3l.656-.349.882,1.194,3.025,1.13v.754Z" transform="translate(-167.996 -217.814)" fill="#405091"/>
        <path id="Trazado_109745" data-name="Trazado 109745" d="M399.506,398.479c0,1-6.537,1.82-14.6,1.82s-14.6-.815-14.6-1.82,6.537-1.82,14.6-1.82,14.6.815,14.6,1.82" transform="translate(-235.494 -224.06)" fill="#ffcfb3"/>
        <path id="Trazado_109746" data-name="Trazado 109746" d="M446.6,180.077a3.8,3.8,0,0,1-.662-2.788c.116-1.977,1.3-2.228,2.478-2.249a3.06,3.06,0,0,0,2.436-.97c.732-.69,1.169-1.776,2.406-1.737,1.851.058,2.038,2.19.964,3.431a6.746,6.746,0,0,1-3.07,1.771Z" transform="translate(-290.043 -62.233)" fill="#242838"/>
        <path id="Trazado_109747" data-name="Trazado 109747" d="M434.754,390.414a2.605,2.605,0,1,0-5,0Z" transform="translate(-278.303 -217.15)" fill="#ff6363"/>
        <path id="Trazado_109748" data-name="Trazado 109748" d="M433.528,379.606l-3.188-.448,2.32-6.138,3.55.5Z" transform="translate(-278.802 -207.007)" fill="#ff6363"/>
        <path id="Trazado_109749" data-name="Trazado 109749" d="M388.425,390.414a2.605,2.605,0,1,0-5,0Z" transform="translate(-244.882 -217.15)" fill="#ff6363"/>
        <path id="Trazado_109750" data-name="Trazado 109750" d="M387.2,379.606l-3.188-.448,2.32-6.138,3.55.5Z" transform="translate(-245.381 -207.007)" fill="#ff6363"/>
        <path id="Trazado_109751" data-name="Trazado 109751" d="M406.133,249.332l14.241,17.045a3.841,3.841,0,0,0,6.045-4.733l-13.5-18.424Z" transform="translate(-261.339 -113.371)" fill="#405091"/>
        <path id="Trazado_109752" data-name="Trazado 109752" d="M412.919,243.22l-6.785,6.112,11.19,13.392c-3.762-7.558.931-10.981,2.778-9.7Z" transform="translate(-261.34 -113.371)" fill="#2d3866"/>
        <path id="Trazado_109753" data-name="Trazado 109753" d="M438.7,325.879l-5-.428,6.142-18.172a3.7,3.7,0,1,1,6.808,2.833Z" transform="translate(-281.23 -157.756)" fill="#405091"/>
        <path id="Trazado_109754" data-name="Trazado 109754" d="M393.3,242.166l4.172,15.843a3.841,3.841,0,0,0,7.483-1.718l-4.4-22.413Z" transform="translate(-252.086 -106.632)" fill="#405091"/>
        <path id="Trazado_109755" data-name="Trazado 109755" d="M392.729,325.879l-5-.428,6.142-18.172a3.7,3.7,0,1,1,6.808,2.833Z" transform="translate(-248.067 -157.756)" fill="#405091"/>
        <path id="Trazado_109756" data-name="Trazado 109756" d="M428.017,399.732h8.151a.685.685,0,0,0,.685-.685h-8.835Z" transform="translate(-277.126 -225.782)" fill="#292929"/>
        <path id="Trazado_109757" data-name="Trazado 109757" d="M428.017,391.079a2.55,2.55,0,0,1,.52-1.848l3.327.456-.018-.04a1,1,0,0,1,.443-1.3l.656-.349.882,1.194,3.025,1.13v.754Z" transform="translate(-277.126 -217.814)" fill="#405091"/>
        <path id="Trazado_109758" data-name="Trazado 109758" d="M381.688,399.732h8.151a.685.685,0,0,0,.685-.685h-8.835Z" transform="translate(-243.705 -225.782)" fill="#292929"/>
        <path id="Trazado_109759" data-name="Trazado 109759" d="M381.688,391.079a2.55,2.55,0,0,1,.52-1.848l3.327.456-.018-.04a1,1,0,0,1,.443-1.3l.656-.349.882,1.194,3.025,1.13v.754Z" transform="translate(-243.705 -217.814)" fill="#405091"/>
        <path id="Trazado_109760" data-name="Trazado 109760" d="M428.844,220.659l-4.891-4.68,5.609-5.267a2.978,2.978,0,0,1,4.3,4.112Z" transform="translate(-274.195 -89.338)" fill="#d9953a"/>
        <path id="Trazado_109761" data-name="Trazado 109761" d="M422.524,249.046l-.3,1.942-12.1-.7a2.133,2.133,0,1,1,.644-4.2Z" transform="translate(-262.772 -115.395)" fill="#ff6363"/>
        <path id="Trazado_109762" data-name="Trazado 109762" d="M455.187,256.25c0-1.044.95-1.432,1.844-1.577a5.616,5.616,0,0,1,.6-.066.817.817,0,0,1,.84.673l.249,1.337a.674.674,0,0,1-.121.524l-.32.431a.5.5,0,0,1-.48.2l-.807-.122-.161-.33s-1.636.188-1.641-1.069" transform="translate(-296.726 -121.585)" fill="#ff6363"/>
        <path id="Trazado_109763" data-name="Trazado 109763" d="M458.034,257.15l1.176.033.464.924.394-.222-.336-1.552-.731-.015" transform="translate(-298.78 -122.82)" fill="none" stroke="#b54646" stroke-miterlimit="10" stroke-width="0.653"/>
        <line id="Línea_299" data-name="Línea 299" x1="0.425" y1="0.978" transform="translate(159.676 134.757)" fill="none" stroke="#b54646" stroke-miterlimit="10" stroke-width="0.653"/>
        <path id="Trazado_109764" data-name="Trazado 109764" d="M420.7,235.14l-4.118,3.57-3.2-2.814,3.978-4.075Z" transform="translate(-266.572 -105.148)" fill="#ff6363"/>
        <path id="Trazado_109765" data-name="Trazado 109765" d="M403.008,200.22c1.919.76,4.762,1.909,6.891,2.866a1.91,1.91,0,0,1,1,2.44L407,216.571l2.218,3.39a111.5,111.5,0,0,1-17.193,1.454l.216-5.6a21.232,21.232,0,0,1,5.787-13.408l1.3-1.37a3.366,3.366,0,0,1,3.683-.814" transform="translate(-251.161 -82.18)" fill="#ffb34f"/>
        <path id="Trazado_109766" data-name="Trazado 109766" d="M403.412,213.8l-5.33-1.868a21.226,21.226,0,0,0-4.864,11.217c2.734.092,2.8-2.1,4.045-3.83s5.114-2.931,6.149-5.519" transform="translate(-252.023 -90.799)" fill="#d9953a"/>
        <path id="Trazado_109767" data-name="Trazado 109767" d="M439.115,207.132c1.491.205,2.3-1.469,2.546-2.088-1.589-.706-3.509-1.5-5.142-2.154-.239,2.707.831,4,2.6,4.241" transform="translate(-283.235 -84.278)" fill="#ff6363"/>
        <path id="Trazado_109768" data-name="Trazado 109768" d="M385.36,230.327l-1.752.889-6.477-10.242a2.133,2.133,0,1,1,3.788-1.922Z" transform="translate(-240.18 -94.961)" fill="#ff6363"/>
        <path id="Trazado_109769" data-name="Trazado 109769" d="M400.489,260.29c.477-.751,1.786-.491,2.564-.261a.811.811,0,0,1,.558.582l.255,1.015a.442.442,0,0,1-.142.444l-1.446,1.226a.311.311,0,0,1-.341.04l-.376-.191a.443.443,0,0,1-.241-.431l.016-.2s-1.809-.709-.846-2.226" transform="translate(-257.064 -125.326)" fill="#ff6363"/>
        <line id="Línea_300" data-name="Línea 300" x1="0.494" y1="1.508" transform="translate(145.891 135.474)" fill="none" stroke="#b54646" stroke-miterlimit="10" stroke-width="0.653"/>
        <line id="Línea_301" data-name="Línea 301" x1="0.494" y1="1.508" transform="translate(145.36 135.967)" fill="none" stroke="#b54646" stroke-miterlimit="10" stroke-width="0.653"/>
        <line id="Línea_302" data-name="Línea 302" x1="0.494" y1="1.508" transform="translate(144.808 136.348)" fill="none" stroke="#b54646" stroke-miterlimit="10" stroke-width="0.653"/>
        <path id="Trazado_109770" data-name="Trazado 109770" d="M381.435,210.9l2.13,3.657L390.012,212l-2.07-3.961Z" transform="translate(-243.523 -87.994)" fill="#ff6363"/>
        <path id="Trazado_109771" data-name="Trazado 109771" d="M391.943,209.614l2.257,3.733L397.592,212l-2.07-3.961Z" transform="translate(-251.103 -87.994)" fill="#b54646"/>
        <path id="Trazado_109772" data-name="Trazado 109772" d="M397.1,209.279l-2.947-6.094,7.1-2.975a2.978,2.978,0,0,1,2.589,5.354Z" transform="translate(-252.699 -82.176)" fill="#ffb34f"/>
        <line id="Línea_303" data-name="Línea 303" y1="4.44" x2="7.99" transform="translate(144.404 122.663)" fill="none" stroke="#b57c30" stroke-miterlimit="10" stroke-width="0.653"/>
        <path id="Trazado_109773" data-name="Trazado 109773" d="M443.659,197.995l-3.347,1.811,1.484,2.641,3.231-1.676Z" transform="translate(-285.996 -80.746)" fill="#ff6363"/>
        <path id="Trazado_109774" data-name="Trazado 109774" d="M448.38,198.46a3.058,3.058,0,0,0-1.307,4l2.611-1.354Z" transform="translate(-290.653 -81.082)" fill="#b54646"/>
        <path id="Trazado_109775" data-name="Trazado 109775" d="M451.372,191.645l.289-1.841a6.984,6.984,0,0,1-3.056-.043c-.14,1.3-.5,2.052-.964,2.3a.869.869,0,0,0-.879-.751,1.017,1.017,0,0,0,.273,1.958.643.643,0,0,0,.336-.162,2.231,2.231,0,0,0,1.559,1.737,1.937,1.937,0,0,0,2.593-1.316,2.98,2.98,0,0,0-.153-1.882" transform="translate(-290.184 -74.807)" fill="#ff6363"/>
        <path id="Trazado_109776" data-name="Trazado 109776" d="M458.21,195.966c0,.136-.076.248-.174.25s-.18-.107-.183-.244.076-.248.174-.25.181.107.183.243" transform="translate(-298.649 -79.107)" fill="#242838"/>
        <path id="Trazado_109777" data-name="Trazado 109777" d="M462.774,196.021c0,.136-.076.248-.174.25s-.18-.107-.183-.244.076-.248.174-.25.18.107.183.243" transform="translate(-301.942 -79.147)" fill="#242838"/>
        <path id="Trazado_109778" data-name="Trazado 109778" d="M456.225,194.214a1.062,1.062,0,0,1,1.124.271" transform="translate(-297.475 -77.976)" fill="none" stroke="#242838" stroke-miterlimit="10" stroke-width="0.583"/>
        <path id="Trazado_109779" data-name="Trazado 109779" d="M462.112,194.662a.935.935,0,0,1,.832-.192" transform="translate(-301.722 -78.192)" fill="none" stroke="#242838" stroke-miterlimit="10" stroke-width="0.583"/>
        <path id="Trazado_109780" data-name="Trazado 109780" d="M460.613,196.7l.262.689a.217.217,0,0,1-.22.293l-.311-.025" transform="translate(-300.447 -79.808)" fill="none" stroke="#242838" stroke-miterlimit="10" stroke-width="0.583"/>
        <line id="Línea_304" data-name="Línea 304" x1="1.583" y1="0.165" transform="translate(158.77 118.186)" fill="none" stroke="#242838" stroke-miterlimit="10" stroke-width="0.583"/>
        <path id="Trazado_109781" data-name="Trazado 109781" d="M507.958,398.479c0,1-6.537,1.82-14.6,1.82s-14.6-.815-14.6-1.82,6.537-1.82,14.6-1.82,14.6.815,14.6,1.82" transform="translate(-313.73 -224.06)" fill="#ffcfb3"/>
        <path id="Trazado_109782" data-name="Trazado 109782" d="M539.73,390.414a2.605,2.605,0,1,0-5,0Z" transform="translate(-354.032 -217.15)" fill="#ff6363"/>
        <path id="Trazado_109783" data-name="Trazado 109783" d="M539.267,379.444l-2.939-1.313,3.928-5.257,3.273,1.462Z" transform="translate(-355.26 -206.902)" fill="#ff6363"/>
        <path id="Trazado_109784" data-name="Trazado 109784" d="M502.494,390.414a2.606,2.606,0,1,0-5,0Z" transform="translate(-327.17 -217.15)" fill="#ff6363"/>
        <path id="Trazado_109785" data-name="Trazado 109785" d="M501.884,379.464l-3.122-.783,2.956-5.858,3.477.872Z" transform="translate(-328.16 -206.865)" fill="#ff6363"/>
        <path id="Trazado_109786" data-name="Trazado 109786" d="M515.422,283.821l19.626,10.4a3.841,3.841,0,0,0,3.808-6.666L519.394,275.6Z" transform="translate(-340.179 -136.728)" fill="#405091"/>
        <path id="Trazado_109787" data-name="Trazado 109787" d="M515.422,283.821l15.013,7.955c-5.191-2.533-4.229-11.993-1.565-10.357l-9.476-5.821Z" transform="translate(-340.179 -136.728)" fill="#2d3866"/>
        <path id="Trazado_109788" data-name="Trazado 109788" d="M569.642,333.839c-.1-.057-.208-.116-.332-.176Z" transform="translate(-379.053 -178.615)" fill="#2d3866"/>
        <path id="Trazado_109789" data-name="Trazado 109789" d="M546.922,336.191l-4.667-1.833,11.063-15.67a3.7,3.7,0,1,1,5.719,4.654Z" transform="translate(-359.537 -166.673)" fill="#405091"/>
        <path id="Trazado_109790" data-name="Trazado 109790" d="M507.307,330.827l-4.914-1,8.178-17.352a3.7,3.7,0,1,1,6.439,3.592Z" transform="translate(-330.78 -161.792)" fill="#405091"/>
        <path id="Trazado_109791" data-name="Trazado 109791" d="M508.77,283.226l-5.652-4.2a6.035,6.035,0,0,1-1.917-7.3l2.489-5.6L515.546,279.8Z" transform="translate(-329.544 -129.9)" fill="#405091"/>
        <path id="Trazado_109792" data-name="Trazado 109792" d="M532.994,399.732h8.151a.685.685,0,0,0,.685-.685h-8.835Z" transform="translate(-352.855 -225.782)" fill="#292929"/>
        <path id="Trazado_109793" data-name="Trazado 109793" d="M532.994,391.019a2.551,2.551,0,0,1,.52-1.848l3.327.456a2.207,2.207,0,0,1,1.732-1.609l.534-.1-.3,1.217,3.025,1.13v.754Z" transform="translate(-352.855 -217.754)" fill="#405091"/>
        <path id="Trazado_109794" data-name="Trazado 109794" d="M495.181,399.732h8.151a.685.685,0,0,0,.685-.685h-8.835Z" transform="translate(-325.577 -225.782)" fill="#292929"/>
        <path id="Trazado_109795" data-name="Trazado 109795" d="M495.181,391.019a2.55,2.55,0,0,1,.52-1.848l3.326.456a2.208,2.208,0,0,1,1.733-1.609l.534-.1-.3,1.217,3.025,1.13v.754Z" transform="translate(-325.577 -217.754)" fill="#405091"/>
        <path id="Trazado_109796" data-name="Trazado 109796" d="M539.159,234.763l-1.868-.608,2.645-11.826a2.133,2.133,0,1,1,4.039,1.313Z" transform="translate(-355.955 -97.097)" fill="#ff6363"/>
        <path id="Trazado_109797" data-name="Trazado 109797" d="M536.114,266.067c1.031.165,1.26,1.169,1.258,2.075a5.553,5.553,0,0,1-.032.6.818.818,0,0,1-.8.72l-1.36.029a.674.674,0,0,1-.5-.2l-.374-.385a.5.5,0,0,1-.118-.506l.251-.777.351-.105S534.873,265.869,536.114,266.067Z" transform="translate(-353.702 -129.84)" fill="none" stroke="#000" stroke-miterlimit="10" stroke-width="0.653"/>
        <path id="Trazado_109798" data-name="Trazado 109798" d="M538.748,269.115l-.223,1.155-.987.309.155.425,1.586-.081.133-.719" transform="translate(-356.134 -132.051)" fill="none" stroke="#000" stroke-miterlimit="10" stroke-width="0.653"/>
        <line id="Línea_305" data-name="Línea 305" y1="0.262" x2="1.034" transform="translate(181.092 137.412)" fill="none" stroke="#000" stroke-miterlimit="10" stroke-width="0.653"/>
        <path id="Trazado_109799" data-name="Trazado 109799" d="M555.6,228.45l-4.442-3.158,1.979-3.772,4.9,2.9Z" transform="translate(-365.956 -97.717)" fill="#ff6363"/>
        <path id="Trazado_109800" data-name="Trazado 109800" d="M521.571,236.716l-5.9,7.163.3,3.11-6.545,2.374-8.158-2.99,3.239-7.73a8.342,8.342,0,0,1,2.55-3.343l5.116-4.006,9.865-.708.483,2a4.744,4.744,0,0,1-.949,4.132" transform="translate(-329.967 -104.257)" fill="#ffb34f"/>
        <path id="Trazado_109801" data-name="Trazado 109801" d="M515.523,244.059a7.523,7.523,0,0,0,4.233-1.585l-2.544-4.685-.848.045-3.4,2.662a8.344,8.344,0,0,0-2.55,3.343l-.958,2.286c.744-1.775,3.45-1.907,6.067-2.065" transform="translate(-335.875 -109.453)" fill="#d9953a"/>
        <path id="Trazado_109802" data-name="Trazado 109802" d="M559.066,232.524c-2.831,0-3.318,1.34-2.009,3.395s3.227,2.146,3.866,1.567.95-2.334,1.111-3.846-2.968-1.116-2.968-1.116" transform="translate(-369.715 -105.621)" fill="#ff6363"/>
        <path id="Trazado_109803" data-name="Trazado 109803" d="M566.823,238.93l1.815-.594-1.541-1.685a2.111,2.111,0,0,0-.274,2.279" transform="translate(-377.13 -108.632)" fill="#b54646"/>
        <path id="Trazado_109804" data-name="Trazado 109804" d="M499.189,237.093l-1.855.644-4.754-9.895a2.133,2.133,0,1,1,4.013-1.393Z" transform="translate(-323.562 -100.099)" fill="#ff6363"/>
        <path id="Trazado_109805" data-name="Trazado 109805" d="M510.124,267.367c.574-.68,1.836-.246,2.576.087a.81.81,0,0,1,.474.652l.115,1.04a.441.441,0,0,1-.2.42l-1.6,1.02a.31.31,0,0,1-.344-.007l-.346-.239a.444.444,0,0,1-.181-.459l.043-.194s-1.7-.946-.537-2.32" transform="translate(-336.065 -130.531)" fill="#ff6363"/>
        <line id="Línea_306" data-name="Línea 306" x1="0.286" y1="1.561" transform="translate(176.434 137.673)" fill="none" stroke="#b54646" stroke-miterlimit="10" stroke-width="0.653"/>
        <line id="Línea_307" data-name="Línea 307" x1="0.286" y1="1.561" transform="translate(175.841 138.09)" fill="none" stroke="#b54646" stroke-miterlimit="10" stroke-width="0.653"/>
        <line id="Línea_308" data-name="Línea 308" x1="0.286" y1="1.561" transform="translate(175.243 138.393)" fill="none" stroke="#b54646" stroke-miterlimit="10" stroke-width="0.653"/>
        <path id="Trazado_109806" data-name="Trazado 109806" d="M501.266,225.118l.987,4.512,6.723,1.7.639-4.423Z" transform="translate(-329.967 -100.312)" fill="#ff6363"/>
        <path id="Trazado_109807" data-name="Trazado 109807" d="M516.371,234.782l1.176-6.666,7.495,1.74a2.978,2.978,0,0,1-1.034,5.857Z" transform="translate(-340.864 -102.475)" fill="#ffb34f"/>
        <line id="Línea_309" data-name="Línea 309" x2="8.639" y2="1.104" transform="translate(176.127 132.382)" fill="none" stroke="#b57c30" stroke-miterlimit="10" stroke-width="0.653"/>
        <path id="Trazado_109808" data-name="Trazado 109808" d="M564.171,214.77a3.8,3.8,0,0,1-.661-2.788c.116-1.977,1.3-2.228,2.478-2.249s2-.953,2.735-1.642,1.169-1.776,2.406-1.737c1.85.058,2.037,2.19.963,3.43a13.584,13.584,0,0,1-3.368,2.443Z" transform="translate(-374.86 -86.775)" fill="#242838"/>
        <path id="Trazado_109809" data-name="Trazado 109809" d="M568.945,228.077l.289-1.841a6.986,6.986,0,0,1-3.056-.043c-.14,1.3-.5,2.052-.964,2.3a.868.868,0,0,0-.879-.751,1.017,1.017,0,0,0,.274,1.958.642.642,0,0,0,.336-.163,2.231,2.231,0,0,0,1.559,1.737,1.938,1.938,0,0,0,2.593-1.316,2.978,2.978,0,0,0-.153-1.882" transform="translate(-375 -101.088)" fill="#ff6363"/>
        <path id="Trazado_109810" data-name="Trazado 109810" d="M575.785,232.4c0,.136-.076.248-.174.25s-.18-.107-.183-.243.075-.248.174-.25.181.107.183.244" transform="translate(-383.466 -105.389)" fill="#242838"/>
        <path id="Trazado_109811" data-name="Trazado 109811" d="M580.348,232.452c0,.136-.076.248-.174.25s-.18-.107-.183-.244.075-.248.174-.25.18.107.183.243" transform="translate(-386.758 -105.428)" fill="#242838"/>
        <path id="Trazado_109812" data-name="Trazado 109812" d="M573.871,230.19a4.415,4.415,0,0,1,1.1.44" transform="translate(-382.343 -103.971)" fill="none" stroke="#242838" stroke-miterlimit="10" stroke-width="0.583"/>
        <path id="Trazado_109813" data-name="Trazado 109813" d="M579.685,231.008a2.864,2.864,0,0,1,.832-.422" transform="translate(-386.537 -104.257)" fill="none" stroke="#242838" stroke-miterlimit="10" stroke-width="0.583"/>
        <path id="Trazado_109814" data-name="Trazado 109814" d="M578.186,233.126l.262.689a.216.216,0,0,1-.22.293l-.31-.025" transform="translate(-385.263 -106.089)" fill="none" stroke="#242838" stroke-miterlimit="10" stroke-width="0.583"/>
        <line id="Línea_310" data-name="Línea 310" x1="1.549" y1="0.331" transform="translate(191.561 128.171)" fill="none" stroke="#242838" stroke-miterlimit="10" stroke-width="0.583"/>
        <path id="Trazado_109815" data-name="Trazado 109815" d="M563.8,233.312c-.252.547-.055,1.564.814,1.524" transform="translate(-375.006 -106.223)" fill="none" stroke="#b54646" stroke-miterlimit="10" stroke-width="0.653"/>
        <path id="Trazado_109816" data-name="Trazado 109816" d="M625.184,398.479c0,1-6.536,1.82-14.6,1.82s-14.6-.815-14.6-1.82,6.537-1.82,14.6-1.82,14.6.815,14.6,1.82" transform="translate(-398.295 -224.06)" fill="#ffcfb3"/>
        <path id="Trazado_109817" data-name="Trazado 109817" d="M591.077,228.292l4.254,1.8,5.269-4.508-3.242-3.075Z" transform="translate(-394.755 -98.43)" fill="#ff6363"/>
        <path id="Trazado_109818" data-name="Trazado 109818" d="M663.446,376.282l-3.188-.448,2.32-6.138,3.549.5Z" transform="translate(-444.662 -204.609)" fill="#ff6363"/>
        <path id="Trazado_109819" data-name="Trazado 109819" d="M664.01,386.372a2.606,2.606,0,1,0-4.828-1.3Z" transform="translate(-443.885 -213.782)" fill="#ff6363"/>
        <path id="Trazado_109820" data-name="Trazado 109820" d="M656.6,392.093l7.87,2.121a.684.684,0,0,0,.839-.483l-8.531-2.3Z" transform="translate(-442.026 -220.289)" fill="#292929"/>
        <path id="Trazado_109821" data-name="Trazado 109821" d="M657.244,387.06a2.549,2.549,0,0,1,.984-1.649l3.093,1.306-.007-.043a1,1,0,0,1,.765-1.136l.725-.167.541,1.382,2.627,1.879-.2.727Z" transform="translate(-442.487 -215.917)" fill="#405091"/>
        <path id="Trazado_109822" data-name="Trazado 109822" d="M625.707,376.282l-3.188-.448,2.319-6.138,3.55.5Z" transform="translate(-417.438 -204.609)" fill="#ff6363"/>
        <path id="Trazado_109823" data-name="Trazado 109823" d="M625.132,258.775l17.8,13.278a3.841,3.841,0,0,0,4.784-6.005l-17.4-14.791Z" transform="translate(-419.322 -119.169)" fill="#405091"/>
        <path id="Trazado_109824" data-name="Trazado 109824" d="M640.431,268.905l-5.8-4.931-6.723-.169-2.773,4.022,14.451,10.777c-.615-4.109-1.18-8.049.847-9.7" transform="translate(-419.323 -128.221)" fill="#2d3866"/>
        <path id="Trazado_109825" data-name="Trazado 109825" d="M668.619,322.555l-5-.428,6.143-18.173a3.7,3.7,0,1,1,6.808,2.833Z" transform="translate(-447.089 -155.359)" fill="#405091"/>
        <path id="Trazado_109826" data-name="Trazado 109826" d="M630.88,322.555l-5-.428,6.143-18.173a3.7,3.7,0,1,1,6.808,2.833Z" transform="translate(-419.865 -155.359)" fill="#405091"/>
        <path id="Trazado_109827" data-name="Trazado 109827" d="M626.27,386.372a2.605,2.605,0,1,0-4.828-1.3Z" transform="translate(-416.66 -213.782)" fill="#ff6363"/>
        <path id="Trazado_109828" data-name="Trazado 109828" d="M618.865,392.093l7.869,2.121a.685.685,0,0,0,.84-.483l-8.531-2.3Z" transform="translate(-414.801 -220.289)" fill="#292929"/>
        <path id="Trazado_109829" data-name="Trazado 109829" d="M619.505,387.06a2.549,2.549,0,0,1,.983-1.649l3.094,1.306-.007-.043a1,1,0,0,1,.765-1.136l.725-.167.541,1.382,2.627,1.879-.2.727Z" transform="translate(-415.263 -215.917)" fill="#405091"/>
        <path id="Trazado_109830" data-name="Trazado 109830" d="M633.2,263.823l-12.149-16.406-2.325,8.31a5.445,5.445,0,0,0,1.226,4.308l7.3,8.647a3.841,3.841,0,0,0,5.639.251,3.926,3.926,0,0,0,.311-5.11" transform="translate(-414.658 -116.399)" fill="#405091"/>
        <path id="Trazado_109831" data-name="Trazado 109831" d="M652.469,234.523l-1.131,1.606-10.523-6.011a2.133,2.133,0,1,1,2.445-3.473Z" transform="translate(-429.86 -101.044)" fill="#ff6363"/>
        <path id="Trazado_109832" data-name="Trazado 109832" d="M679.343,255.448c.461-.937,1.488-.859,2.353-.591a5.607,5.607,0,0,1,.564.206.818.818,0,0,1,.453.976l-.373,1.308a.673.673,0,0,1-.342.416l-.478.244a.5.5,0,0,1-.518-.036l-.668-.469,0-.366s-1.548-.56-.993-1.688" transform="translate(-458.343 -121.637)" fill="#ff6363"/>
        <path id="Trazado_109833" data-name="Trazado 109833" d="M682.739,256.817l1.039.553,0,1.034.451-.023.39-1.539-.648-.339" transform="translate(-460.879 -122.953)" fill="none" stroke="#b54646" stroke-miterlimit="10" stroke-width="0.653"/>
        <line id="Línea_311" data-name="Línea 311" y1="1.065" x2="0.054" transform="translate(221.994 134.434)" fill="none" stroke="#b54646" stroke-miterlimit="10" stroke-width="0.653"/>
        <path id="Trazado_109834" data-name="Trazado 109834" d="M627.625,201.279l1.788.574a5.478,5.478,0,0,1,2.01,1.162l.014.013a6.048,6.048,0,0,1,1.98,4.475v.529a28.272,28.272,0,0,1-.388,4.671l-1.324,7.908,1.012,1.274-6.358,1.184-9.506-.285,3.206-10.933.488-8.587Z" transform="translate(-413.35 -83.115)" fill="#ffb34f"/>
        <path id="Trazado_109835" data-name="Trazado 109835" d="M625.045,218.939l-.25,4.408-1.377,4.7a8.569,8.569,0,0,0,4.713-10.828Z" transform="translate(-418.085 -94.611)" fill="#d9953a"/>
        <path id="Trazado_109836" data-name="Trazado 109836" d="M651.229,202.587a5.48,5.48,0,0,0-1.469-.735l-1.788-.574-2.913.788c1.23.582,3.236,2.448,5.075,2.337,1.8-.109,1.123-1.752,1.1-1.815" transform="translate(-433.697 -83.115)" fill="#ff6363"/>
        <path id="Trazado_109837" data-name="Trazado 109837" d="M652.726,191l-1.557,3.472,2.783,1.195,1.547-3.295Z" transform="translate(-438.105 -75.702)" fill="#ff6363"/>
        <path id="Trazado_109838" data-name="Trazado 109838" d="M656.54,191.233a3.058,3.058,0,0,0,1.393,3.971l1.25-2.662Z" transform="translate(-441.789 -75.868)" fill="#b54646"/>
        <path id="Trazado_109839" data-name="Trazado 109839" d="M650.062,171.041a3.8,3.8,0,0,1-1.131-2.632c-.226-1.967.9-2.419,2.054-2.642s1.9-.134,2.5-.939,1.057-1.714,2.282-1.889c1.833-.261,2.2,2.018,1.355,3.425-.877,1.462-3.017,1.388-3.017,1.388Z" transform="translate(-436.469 -55.442)" fill="#242838"/>
        <path id="Trazado_109840" data-name="Trazado 109840" d="M655.644,180.83l-.032-1.863a6.984,6.984,0,0,1-3.017.484c.086,1.307-.138,2.107-.554,2.432a.868.868,0,0,0-.995-.588,1.017,1.017,0,0,0,.607,1.881.645.645,0,0,0,.3-.218,2.23,2.23,0,0,0,1.835,1.442,1.938,1.938,0,0,0,2.328-1.743,2.979,2.979,0,0,0-.475-1.827" transform="translate(-437.659 -67.02)" fill="#ff6363"/>
        <path id="Trazado_109841" data-name="Trazado 109841" d="M662.159,186.088c.02.135-.043.255-.141.27s-.192-.084-.212-.218.044-.255.141-.27.193.084.212.218" transform="translate(-445.776 -71.998)" fill="#242838"/>
        <path id="Trazado_109842" data-name="Trazado 109842" d="M666.693,185.568c.019.135-.044.255-.141.27s-.193-.084-.212-.219.044-.255.141-.27.193.084.212.218" transform="translate(-449.046 -71.623)" fill="#242838"/>
        <path id="Trazado_109843" data-name="Trazado 109843" d="M664.992,186.455l.377.633a.217.217,0,0,1-.166.326l-.31.029" transform="translate(-448.005 -72.421)" fill="none" stroke="#242838" stroke-miterlimit="10" stroke-width="0.583"/>
        <path id="Trazado_109844" data-name="Trazado 109844" d="M665.409,191.436c-.025.224-.153.394-.286.379s-.22-.208-.2-.432.153-.394.286-.379.22.208.2.432" transform="translate(-448.027 -75.702)" fill="#fff"/>
        <line id="Línea_312" data-name="Línea 312" x2="1.111" y2="0.183" transform="translate(215.494 113.433)" fill="none" stroke="#242838" stroke-miterlimit="10" stroke-width="0.583"/>
        <line id="Línea_313" data-name="Línea 313" y1="0.373" x2="0.685" transform="translate(217.191 113.152)" fill="none" stroke="#242838" stroke-miterlimit="10" stroke-width="0.583"/>
        <path id="Trazado_109845" data-name="Trazado 109845" d="M601.832,245.028l-.545,1.887-10.824-1.83a2.133,2.133,0,1,1,1.179-4.08Z" transform="translate(-393.059 -111.665)" fill="#ff6363"/>
        <path id="Trazado_109846" data-name="Trazado 109846" d="M631.975,254.5c-.224-.861.859-1.641,1.558-2.053a.81.81,0,0,1,.805-.011l.916.506a.442.442,0,0,1,.227.407l-.09,1.894a.311.311,0,0,1-.2.277l-.4.145a.443.443,0,0,1-.479-.118l-.134-.147s-1.753.839-2.2-.9" transform="translate(-424.237 -119.945)" fill="#ff6363"/>
        <line id="Línea_314" data-name="Línea 314" x1="1.439" y1="0.668" transform="translate(209.792 133.098)" fill="none" stroke="#b54646" stroke-miterlimit="10" stroke-width="0.653"/>
        <line id="Línea_315" data-name="Línea 315" x1="1.439" y1="0.668" transform="translate(209.79 133.823)" fill="none" stroke="#b54646" stroke-miterlimit="10" stroke-width="0.653"/>
        <line id="Línea_316" data-name="Línea 316" x1="1.439" y1="0.668" transform="translate(209.693 134.486)" fill="none" stroke="#b54646" stroke-miterlimit="10" stroke-width="0.653"/>
        <path id="Trazado_109847" data-name="Trazado 109847" d="M609.446,218.831l-4.764-4.809,5.747-5.115a2.978,2.978,0,0,1,4.186,4.225Z" transform="translate(-404.57 -88.075)" fill="#ffb34f"/>
        <line id="Línea_317" data-name="Línea 317" y1="4.791" x2="4.377" transform="translate(206.853 123.786)" fill="none" stroke="#b57c30" stroke-miterlimit="10" stroke-width="0.653"/>
        <path id="Trazado_109848" data-name="Trazado 109848" d="M735.1,398.479c0,1-6.536,1.82-14.6,1.82s-14.6-.815-14.6-1.82,6.537-1.82,14.6-1.82,14.6.815,14.6,1.82" transform="translate(-477.588 -224.06)" fill="#ffcfb3"/>
        <path id="Trazado_109849" data-name="Trazado 109849" d="M758.005,369.577l-3.2-.394,2.215-6.176,3.558.438Z" transform="translate(-512.87 -199.784)" fill="#ff6363"/>
        <path id="Trazado_109850" data-name="Trazado 109850" d="M756.255,382.1a2.606,2.606,0,1,0-4.089-2.879Z" transform="translate(-510.963 -210.209)" fill="#ff6363"/>
        <path id="Trazado_109851" data-name="Trazado 109851" d="M749.109,383.187l6.665,4.692a.685.685,0,0,0,.954-.166l-7.225-5.086Z" transform="translate(-508.758 -213.937)" fill="#292929"/>
        <path id="Trazado_109852" data-name="Trazado 109852" d="M750.524,379.49c.788-1.12,1.489-1.212,1.489-1.212l2.458,2.287.008-.042a1,1,0,0,1,1.109-.8l.737.092.034,1.484,1.823,2.665-.434.616Z" transform="translate(-509.778 -210.8)" fill="#405091"/>
        <path id="Trazado_109853" data-name="Trazado 109853" d="M728.477,367.888l-3.195-.394,2.215-6.177,3.557.439Z" transform="translate(-491.57 -198.565)" fill="#ff6363"/>
        <path id="Trazado_109854" data-name="Trazado 109854" d="M726.728,380.411a2.605,2.605,0,1,0-4.089-2.878Z" transform="translate(-489.663 -208.991)" fill="#ff6363"/>
        <path id="Trazado_109855" data-name="Trazado 109855" d="M719.582,381.5l6.665,4.692a.685.685,0,0,0,.954-.166l-7.225-5.086Z" transform="translate(-487.457 -212.72)" fill="#292929"/>
        <path id="Trazado_109856" data-name="Trazado 109856" d="M721,377.8c.788-1.12,1.489-1.212,1.489-1.212l2.458,2.287.008-.042a1,1,0,0,1,1.108-.8l.738.092.034,1.484,1.823,2.665-.434.616Z" transform="translate(-488.478 -209.582)" fill="#405091"/>
        <path id="Trazado_109857" data-name="Trazado 109857" d="M758.3,226.277l4.3,21.79a3.841,3.841,0,0,0,7.576-1.247l-2.993-22.644Z" transform="translate(-515.389 -99.632)" fill="#405091"/>
        <path id="Trazado_109858" data-name="Trazado 109858" d="M762.733,254.14c.36-2.791,1.94-12.769,6.128-12.787l-.805-6.091-9.253-1.015Z" transform="translate(-515.751 -106.898)" fill="#2d3866"/>
        <path id="Trazado_109859" data-name="Trazado 109859" d="M762.32,316.771l-5.013-.087,4.893-18.548a3.7,3.7,0,1,1,6.985,2.364Z" transform="translate(-514.672 -150.987)" fill="#405091"/>
        <path id="Trazado_109860" data-name="Trazado 109860" d="M807.534,261.338c.884-.555,1.718.05,2.313.732a5.61,5.61,0,0,1,.371.472.817.817,0,0,1-.127,1.068l-1,.918a.675.675,0,0,1-.509.174l-.535-.043a.5.5,0,0,1-.422-.3l-.323-.75.195-.311s-1.024-1.29.04-1.958" transform="translate(-550.555 -126.284)" fill="#ff6363"/>
        <path id="Trazado_109861" data-name="Trazado 109861" d="M811.311,263.682l.594,1.016-.539.883.4.217,1.14-1.106-.374-.628" transform="translate(-553.629 -128.132)" fill="none" stroke="#b54646" stroke-miterlimit="10" stroke-width="0.653"/>
        <line id="Línea_318" data-name="Línea 318" y1="0.878" x2="0.605" transform="translate(256.938 136.134)" fill="none" stroke="#b54646" stroke-miterlimit="10" stroke-width="0.653"/>
        <path id="Trazado_109862" data-name="Trazado 109862" d="M790.4,223.4l-3.7-11.539a2.175,2.175,0,0,0-.088-.228l-.98-3.881-4.467,1.487,1.848,5.386.31-.124,5.276,9.673Z" transform="translate(-531.883 -87.784)" fill="#ff6363"/>
        <path id="Trazado_109863" data-name="Trazado 109863" d="M786.311,210.442l-.679-2.69-4.467,1.487,1.848,5.386.31-.125,1.966,3.6a11.72,11.72,0,0,1,1.022-7.662" transform="translate(-531.882 -87.785)" fill="#b54646"/>
        <path id="Trazado_109864" data-name="Trazado 109864" d="M740.336,229.326l.93,17.1a3.841,3.841,0,0,0,7.676-.173l.212-22.84Z" transform="translate(-502.429 -99.085)" fill="#405091"/>
        <path id="Trazado_109865" data-name="Trazado 109865" d="M732.792,315.081l-5.013-.087,4.893-18.548a3.7,3.7,0,0,1,4.763-2.575h0a3.7,3.7,0,0,1,2.221,4.938Z" transform="translate(-493.37 -149.768)" fill="#405091"/>
        <path id="Trazado_109866" data-name="Trazado 109866" d="M779.817,185.087l-6.38,2.26-2.178-7.38a2.978,2.978,0,0,1,5.606-1.986Z" transform="translate(-524.648 -64.985)" fill="#d9953a"/>
        <path id="Trazado_109867" data-name="Trazado 109867" d="M747.74,166.462s-4.621,1.291-7,3.688l-1.97,13.417-.009,6.677s10.594-.5,15.483-.45c0,0-.7-9.066-.2-12.635a10.47,10.47,0,0,0-1.768-8c-1.282-1.567-4.541-2.7-4.541-2.7" transform="translate(-501.293 -57.999)" fill="#ffb34f"/>
        <path id="Trazado_109868" data-name="Trazado 109868" d="M741.2,202.6a22.063,22.063,0,0,0,3.948-11.818l-4.866.051-1.509,10.278-.009,6.677s.552-.026,1.456-.065Z" transform="translate(-501.293 -75.544)" fill="#d9953a"/>
        <path id="Trazado_109869" data-name="Trazado 109869" d="M730.123,228.927l-1.939.315-2.979-10.565A2.133,2.133,0,1,1,729.4,218Z" transform="translate(-491.464 -93.738)" fill="#ff6363"/>
        <path id="Trazado_109870" data-name="Trazado 109870" d="M736.084,260.279c.682-.571,1.851.075,2.522.529a.81.81,0,0,1,.354.724l-.065,1.044a.44.44,0,0,1-.27.379l-1.75.73a.311.311,0,0,1-.337-.066l-.3-.3a.444.444,0,0,1-.1-.484l.076-.183s-1.509-1.225-.13-2.378" transform="translate(-498.942 -125.515)" fill="#ff6363"/>
        <line id="Línea_319" data-name="Línea 319" x1="0.013" y1="1.587" transform="translate(239.336 135.997)" fill="none" stroke="#b54646" stroke-miterlimit="10" stroke-width="0.653"/>
        <line id="Línea_320" data-name="Línea 320" x1="0.013" y1="1.586" transform="translate(238.68 136.306)" fill="none" stroke="#b54646" stroke-miterlimit="10" stroke-width="0.653"/>
        <line id="Línea_321" data-name="Línea 321" x1="0.013" y1="1.586" transform="translate(238.039 136.501)" fill="none" stroke="#b54646" stroke-miterlimit="10" stroke-width="0.653"/>
        <path id="Trazado_109871" data-name="Trazado 109871" d="M726.6,206.057l2.892.064,3.232-6.135-4.149-1.661-2.953,6.139a1.111,1.111,0,0,0,.977,1.593" transform="translate(-491.737 -80.984)" fill="#ff6363"/>
        <path id="Trazado_109872" data-name="Trazado 109872" d="M730.069,204.891c.655.934,3.455.364,4.295,1.059l1.534-2.91-4.559-.787Z" transform="translate(-495.022 -83.817)" fill="#b54646"/>
        <path id="Trazado_109873" data-name="Trazado 109873" d="M765.587,169.791c1.822.135,2.222-1.27,1.674-2.348-.01-.02-.024-.038-.036-.058a17.891,17.891,0,0,0-2.108-.923,19.674,19.674,0,0,0-2.093.739h0c-.68.393.742,2.456,2.563,2.591" transform="translate(-518.671 -57.999)" fill="#ff6363"/>
        <path id="Trazado_109874" data-name="Trazado 109874" d="M736.887,188.514l-6.2-2.71,3.452-6.876a2.978,2.978,0,0,1,5.45,2.381Z" transform="translate(-495.466 -65.806)" fill="#ffb34f"/>
        <line id="Línea_322" data-name="Línea 322" y1="7.444" x2="2.848" transform="translate(241.421 115.263)" fill="none" stroke="#b57c30" stroke-miterlimit="10" stroke-width="0.653"/>
        <path id="Trazado_109875" data-name="Trazado 109875" d="M766.5,157.657l-.47,3.777,3.012.325.512-3.6Z" transform="translate(-520.961 -51.647)" fill="#ff6363"/>
        <path id="Trazado_109876" data-name="Trazado 109876" d="M768.182,157.74a3.058,3.058,0,0,0,2.5,3.387l.414-2.912Z" transform="translate(-522.505 -51.707)" fill="#b54646"/>
        <path id="Trazado_109877" data-name="Trazado 109877" d="M762.506,137.993a3.8,3.8,0,0,1-.979-2.693c-.114-1.977,1.035-2.363,2.2-2.521a5.331,5.331,0,0,0,2.554-.794,5.011,5.011,0,0,1,2.758-1.2c1.863-.046,2.1,2.193.88,3.282a4.386,4.386,0,0,1-3.185.87Z" transform="translate(-517.71 -32.264)" fill="#242838"/>
        <path id="Trazado_109878" data-name="Trazado 109878" d="M767.809,146.32l.075-1.862a6.99,6.99,0,0,1-3.041.311c.011,1.31-.257,2.1-.691,2.4a.868.868,0,0,0-.96-.644,1.017,1.017,0,0,0,.5,1.913.642.642,0,0,0,.315-.2,2.231,2.231,0,0,0,1.75,1.545,1.938,1.938,0,0,0,2.424-1.607,2.979,2.979,0,0,0-.37-1.851" transform="translate(-518.526 -42.125)" fill="#ff6363"/>
        <path id="Trazado_109879" data-name="Trazado 109879" d="M774.452,151.316c.018.135-.046.255-.144.268s-.191-.086-.21-.221.046-.255.144-.268.192.086.21.221" transform="translate(-526.782 -46.912)" fill="#242838"/>
        <path id="Trazado_109880" data-name="Trazado 109880" d="M778.991,150.843c.018.135-.046.255-.144.268s-.191-.086-.21-.221.046-.255.144-.268.192.086.21.221" transform="translate(-530.057 -46.571)" fill="#242838"/>
        <path id="Trazado_109881" data-name="Trazado 109881" d="M772.228,149.72a1.062,1.062,0,0,1,1.148.139" transform="translate(-525.435 -45.84)" fill="none" stroke="#242838" stroke-miterlimit="10" stroke-width="0.583"/>
        <path id="Trazado_109882" data-name="Trazado 109882" d="M778.172,149.416a.934.934,0,0,1,.8-.287" transform="translate(-529.723 -45.494)" fill="none" stroke="#242838" stroke-miterlimit="10" stroke-width="0.583"/>
        <path id="Trazado_109883" data-name="Trazado 109883" d="M777.142,151.736l.34.654a.216.216,0,0,1-.184.316l-.311.011" transform="translate(-528.868 -47.376)" fill="none" stroke="#242838" stroke-miterlimit="10" stroke-width="0.583"/>
        <path id="Trazado_109884" data-name="Trazado 109884" d="M777.136,156.9c-.014.249-.165.443-.337.434s-.3-.22-.285-.469.165-.443.337-.433.3.219.285.469" transform="translate(-528.527 -50.764)" fill="#fff"/>
        <path id="Trazado_109885" data-name="Trazado 109885" d="M845.757,398.479c0,1-6.537,1.82-14.6,1.82s-14.6-.815-14.6-1.82,6.537-1.82,14.6-1.82,14.6.815,14.6,1.82" transform="translate(-557.414 -224.06)" fill="#ffcfb3"/>
        <path id="Trazado_109886" data-name="Trazado 109886" d="M923.357,231.63l.928,1.73-1.862-.034-.966-2.881Z" transform="translate(-633.087 -104.156)" fill="#b54646"/>
        <path id="Trazado_109887" data-name="Trazado 109887" d="M909.637,191.191l1.928-.373-1.172-12.061a2.133,2.133,0,1,0-4.17.807Z" transform="translate(-622.035 -65.477)" fill="#ff6363"/>
        <path id="Trazado_109888" data-name="Trazado 109888" d="M918.7,226.811a7.068,7.068,0,0,0,1.615,2.386l.423-.161-.358-1.26,2.246,1.771.339-.3-1.567-2s-.555-2.029-1.692-1.883a1.047,1.047,0,0,0-1,1.445" transform="translate(-631.056 -100.486)" fill="#ff6363"/>
        <path id="Trazado_109889" data-name="Trazado 109889" d="M906.317,166.059l-4.185.843-1.589-6.75,4.433-.565Z" transform="translate(-618 -53.039)" fill="#ff6363"/>
        <path id="Trazado_109890" data-name="Trazado 109890" d="M905.449,159.586l-.579.074-3.672,1.265L902.6,166.9h0a2.171,2.171,0,0,0,.053.224l1.974,6.725c.075-2.606.407-7.733,1.836-9.329Z" transform="translate(-618.472 -53.038)" fill="#b54646"/>
        <path id="Trazado_109891" data-name="Trazado 109891" d="M844.562,364.079a2.606,2.606,0,1,0-3.18-3.859Z" transform="translate(-575.322 -196.951)" fill="#ff6363"/>
        <path id="Trazado_109892" data-name="Trazado 109892" d="M848.856,351.47h-3.219l1-6.164h3.723Z" transform="translate(-578.392 -187.014)" fill="#ff6363"/>
        <path id="Trazado_109893" data-name="Trazado 109893" d="M838.208,362.055l5.183,6.29a.684.684,0,0,0,.964.093l-5.619-6.819Z" transform="translate(-573.032 -198.783)" fill="#292929"/>
        <path id="Trazado_109894" data-name="Trazado 109894" d="M840.1,359.608a2.548,2.548,0,0,1,1.757-.773l1.764,2.857.019-.039a1,1,0,0,1,1.282-.482l.687.284-.361,1.44,1.051,3.053-.581.479Z" transform="translate(-574.401 -196.771)" fill="#405091"/>
        <path id="Trazado_109895" data-name="Trazado 109895" d="M875.459,364.719a2.606,2.606,0,1,0-3.384-3.681Z" transform="translate(-597.464 -197.456)" fill="#ff6363"/>
        <path id="Trazado_109896" data-name="Trazado 109896" d="M879.769,351.544l-3.214.174.668-6.209,3.718-.2Z" transform="translate(-600.695 -187.015)" fill="#ff6363"/>
        <path id="Trazado_109897" data-name="Trazado 109897" d="M868.96,363.281l5.517,6a.685.685,0,0,0,.968.041l-5.98-6.5Z" transform="translate(-595.217 -199.647)" fill="#292929"/>
        <path id="Trazado_109898" data-name="Trazado 109898" d="M870.716,360.569a2.549,2.549,0,0,1,1.712-.868l1.916,2.757.017-.04a1,1,0,0,1,1.254-.551l.7.247-.282,1.457,1.216,2.992-.554.51Z" transform="translate(-596.483 -197.398)" fill="#405091"/>
        <path id="Trazado_109899" data-name="Trazado 109899" d="M878.762,202.617l-.2,22.21a3.841,3.841,0,0,0,7.671.314l1.661-22.781Z" transform="translate(-602.141 -83.896)" fill="#405091"/>
        <path id="Trazado_109900" data-name="Trazado 109900" d="M882.07,293.727l-4.676-.459.457-18.36a3.7,3.7,0,1,1,7.338.72Z" transform="translate(-601.301 -133.63)" fill="#405091"/>
        <path id="Trazado_109901" data-name="Trazado 109901" d="M878.559,224.827a3.827,3.827,0,0,0,.117.96l-.086,3.449c1.395-5.161,4.465-14.777,8.642-17.837l.659-9.038-9.128.256Z" transform="translate(-602.141 -83.895)" fill="#2d3866"/>
        <path id="Trazado_109902" data-name="Trazado 109902" d="M853.368,202.766l-1.408,22.167a3.841,3.841,0,0,0,7.643.73l2.894-22.657Z" transform="translate(-582.948 -84.188)" fill="#405091"/>
        <path id="Trazado_109903" data-name="Trazado 109903" d="M851.818,293.8l-4.644-.712,1.452-18.309a3.7,3.7,0,1,1,7.289,1.117Z" transform="translate(-579.5 -133.682)" fill="#405091"/>
        <path id="Trazado_109904" data-name="Trazado 109904" d="M893.5,144.888l6.62-1.411-2-7.429a2.978,2.978,0,0,0-5.817,1.24Z" transform="translate(-612.026 -34.469)" fill="#d9953a"/>
        <path id="Trazado_109905" data-name="Trazado 109905" d="M863.195,121.361l-5.228,3.917a1.475,1.475,0,0,0-.578.992l-2.48,19.3s8.844-2.174,15.951,1.023l.53-17.6a6.312,6.312,0,0,0-1.848-4.655l-3.249-3.247Z" transform="translate(-585.08 -25.269)" fill="#ffb34f"/>
        <path id="Trazado_109906" data-name="Trazado 109906" d="M862.416,149.36l-5.365-.269-2.143,16.673s.259-.063.716-.151a20.537,20.537,0,0,0,6.792-16.253" transform="translate(-585.08 -45.468)" fill="#d9953a"/>
        <path id="Trazado_109907" data-name="Trazado 109907" d="M884.866,124.562c1.8-.167,1.254-2.639,1.254-2.639l-.832-.831-3.1.269-.95.712c1.007,1.439,1.829,2.657,3.625,2.489" transform="translate(-604.076 -25.269)" fill="#ff6363"/>
        <path id="Trazado_109908" data-name="Trazado 109908" d="M835.2,229.264l-1.1,1.629,1.857.152,1.248-2.77Z" transform="translate(-570.072 -102.59)" fill="#b54646"/>
        <path id="Trazado_109909" data-name="Trazado 109909" d="M843.326,189.816l-1.881-.564,2.368-11.885a2.133,2.133,0,1,1,4.069,1.219Z" transform="translate(-575.367 -64.627)" fill="#ff6363"/>
        <path id="Trazado_109910" data-name="Trazado 109910" d="M836.214,224.618a7.071,7.071,0,0,1-1.845,2.214l-.4-.2.482-1.218-2.411,1.538-.307-.331,1.759-1.834s.754-1.964,1.871-1.705a1.047,1.047,0,0,1,.856,1.538" transform="translate(-568.358 -98.825)" fill="#ff6363"/>
        <path id="Trazado_109911" data-name="Trazado 109911" d="M849.89,165.068l4.163.762,2.253-6.558-4.354-1Z" transform="translate(-581.46 -52.087)" fill="#ff6363"/>
        <path id="Trazado_109912" data-name="Trazado 109912" d="M858.87,145.123l-6.447-2.064,2.734-7.192a2.978,2.978,0,0,1,5.664,1.814Z" transform="translate(-583.287 -34.543)" fill="#ffb34f"/>
        <line id="Línea_323" data-name="Línea 323" y1="7.977" x2="2.05" transform="translate(275.583 102.604)" fill="none" stroke="#b57c30" stroke-miterlimit="10" stroke-width="0.653"/>
        <path id="Trazado_109913" data-name="Trazado 109913" d="M883.534,112.713l.488,3.774,3-.437-.4-3.617Z" transform="translate(-605.73 -19.023)" fill="#ff6363"/>
        <path id="Trazado_109914" data-name="Trazado 109914" d="M884.05,112.7a3.058,3.058,0,0,0,3.264,2.657l-.327-2.923Z" transform="translate(-606.102 -19.023)" fill="#b54646"/>
        <path id="Trazado_109915" data-name="Trazado 109915" d="M875.2,93.629a3.8,3.8,0,0,1-1.983-2.068c-.9-1.763-.008-2.581,1-3.2s1.471-.952,2.343-1.45c1.065-.609,3.12-1.148,4.262-.67a1.391,1.391,0,0,1-.015,2.633,5.539,5.539,0,0,1-2.967.249Z" transform="translate(-598.022 0)" fill="#242838"/>
        <path id="Trazado_109916" data-name="Trazado 109916" d="M882.441,97.186l-.684-1.733a6.982,6.982,0,0,1-2.655,1.512c.539,1.194.61,2.021.335,2.472a.869.869,0,0,0-1.138-.2,1.017,1.017,0,0,0,1.228,1.549.642.642,0,0,0,.207-.31,2.231,2.231,0,0,0,2.225.707,1.938,1.938,0,0,0,1.568-2.449,2.981,2.981,0,0,0-1.086-1.544" transform="translate(-601.773 -6.774)" fill="#ff6363"/>
        <path id="Trazado_109917" data-name="Trazado 109917" d="M887.907,104.345a.188.188,0,1,1-.281-.117.221.221,0,0,1,.281.117" transform="translate(-608.631 -13.09)" fill="#242838"/>
        <path id="Trazado_109918" data-name="Trazado 109918" d="M891.868,102.078a.188.188,0,1,1-.281-.117.221.221,0,0,1,.281.117" transform="translate(-611.489 -11.454)" fill="#242838"/>
        <path id="Trazado_109919" data-name="Trazado 109919" d="M885.179,103.224a1.062,1.062,0,0,1,1.106-.336" transform="translate(-606.917 -12.094)" fill="none" stroke="#242838" stroke-miterlimit="10" stroke-width="0.583"/>
        <path id="Trazado_109920" data-name="Trazado 109920" d="M890.677,100.467a.934.934,0,0,1,.62-.587" transform="translate(-610.883 -9.967)" fill="none" stroke="#242838" stroke-miterlimit="10" stroke-width="0.583"/>
        <path id="Trazado_109921" data-name="Trazado 109921" d="M890.741,103.681l.575.461a.216.216,0,0,1-.041.364l-.28.136" transform="translate(-610.929 -12.709)" fill="none" stroke="#242838" stroke-miterlimit="10" stroke-width="0.583"/>
        <path id="Trazado_109922" data-name="Trazado 109922" d="M892.866,108.037c.058.342-.058.648-.26.683s-.413-.215-.472-.558.058-.648.26-.683.413.215.472.558" transform="translate(-611.923 -15.447)" fill="#fff"/>
      </g>
    </g>
  </g>
</svg>
