<svg xmlns="http://www.w3.org/2000/svg" xmlns:xlink="http://www.w3.org/1999/xlink" width="129" height="129" viewBox="0 0 129 129">
  <defs>
    <linearGradient id="linear-gradient" x1="0.5" y1="-0.855" x2="0.5" y2="1" gradientUnits="objectBoundingBox">
      <stop offset="0" stop-color="#b2ebf2"/>
      <stop offset="1" stop-color="#2c6ae7"/>
    </linearGradient>
  </defs>
  <g id="Grupo_79465" data-name="Grupo 79465" transform="translate(-1018 -4810)">
    <circle id="Elipse_4674" data-name="Elipse 4674" cx="64.5" cy="64.5" r="64.5" transform="translate(1018 4810)" fill="#fff"/>
    <g id="Grupo_76377" data-name="Grupo 76377" transform="translate(5757.593 4546.78)">
      <path id="Trazado_112098" data-name="Trazado 112098" d="M-4633.326,303.021a16.812,16.812,0,0,0-.621-4.533,17.182,17.182,0,0,0-16.521-12.545h-24.623q-12.311,0-24.623,0a16.746,16.746,0,0,0-4.08.488,16.884,16.884,0,0,0-9.111,5.711,16.562,16.562,0,0,0-3.952,10.828q-.022,24.721-.008,49.443a15.994,15.994,0,0,0,.187,2.5,16.772,16.772,0,0,0,4.576,9.275,16.533,16.533,0,0,0,12.221,5.286q24.819.053,49.639.012a15.269,15.269,0,0,0,2.733-.25,16.8,16.8,0,0,0,8.913-4.54,16.616,16.616,0,0,0,5.262-12.275Q-4633.295,327.723-4633.326,303.021Zm-55.749,43.716c-.679,1.177-1.354,2.356-2.04,3.528a3.97,3.97,0,0,1-3.466,2.087,4.025,4.025,0,0,1-4.053-3.109,3.988,3.988,0,0,1,.421-2.991c.217-.387.463-.76.662-1.156a.435.435,0,0,1,.465-.256c2.224.006,4.447,0,6.671,0h2.425C-4688.377,345.518-4688.725,346.128-4689.075,346.737Zm20.754-5.146q-15.135,0-30.272,0a4.143,4.143,0,0,1-3.51-1.656,4.081,4.081,0,0,1,2.418-6.419,5.165,5.165,0,0,1,1.054-.085c2.473,0,4.946-.006,7.419.009a.6.6,0,0,0,.605-.353q3.82-6.644,7.66-13.278c.987-1.709,1.969-3.42,2.965-5.124a.543.543,0,0,0,.008-.634q-1.419-2.418-2.807-4.853a4.061,4.061,0,0,1,2.074-5.846,4.076,4.076,0,0,1,4.9,1.643c.233.378.449.766.671,1.149.134-.026.151-.142.2-.225.162-.269.314-.543.475-.813a4.083,4.083,0,0,1,4.206-1.971,4.084,4.084,0,0,1,3.317,3.25,4.009,4.009,0,0,1-.489,2.835q-1.55,2.682-3.095,5.366l-5.9,10.219q-2.373,4.108-4.743,8.217a.955.955,0,0,0-.185.41h.476q3.986,0,7.969,0a.459.459,0,0,1,.477.239q2.21,3.861,4.442,7.711c.025.044.045.093.084.173A1.068,1.068,0,0,1-4668.321,341.591Zm17.507-.046a5.632,5.632,0,0,1-.783.048q-1.315,0-2.63,0a.717.717,0,0,0-.409.049l.854,1.49c.6,1.042,1.214,2.076,1.8,3.125a4.061,4.061,0,0,1-2.107,5.837,4.1,4.1,0,0,1-5-1.838c-1.858-3.258-3.745-6.5-5.62-9.748q-4.166-7.215-8.335-14.429a.449.449,0,0,1-.042-.529c1.5-2.575,2.985-5.158,4.477-7.738a1.415,1.415,0,0,1,.091-.126.86.86,0,0,1,.249.348q4.334,7.5,8.657,15.012a.658.658,0,0,0,.664.394c2.526-.017,5.052-.014,7.577-.007a3.9,3.9,0,0,1,3.321,1.7A4.065,4.065,0,0,1-4650.814,341.545Z" transform="translate(0)" fill="url(#linear-gradient)"/>
    </g>
  </g>
</svg>
