<svg xmlns="http://www.w3.org/2000/svg" width="84" height="84" viewBox="0 0 84 84">
  <g id="Grupo_79470" data-name="Grupo 79470" transform="translate(-511 -6211)">
    <g id="Grupo_79466" data-name="Grupo 79466">
      <circle id="Elipse_4721" data-name="Elipse 4721" cx="42" cy="42" r="42" transform="translate(511 6211)" fill="#fff"/>
      <g id="Grupo_76405" data-name="Grupo 76405" transform="translate(1477 5323.313)">
        <path id="Trazado_112120" data-name="Trazado 112120" d="M-891.15,925.413a16.621,16.621,0,0,0,.968,1.73.388.388,0,0,1,.194.43,9.064,9.064,0,0,1,.42,1.751q0,.461-.005.921a9.739,9.739,0,0,1-.416,1.67.787.787,0,0,1-.1.471c-.358.6-.673,1.214-1.029,1.81-.142.266-.314.514-.443.788-.161.3-.346.6-.517.894-.327.562-.623,1.14-.951,1.7-.107.193-.219.384-.332.574-.2.373-.421.738-.628,1.109-.332.6-.682,1.2-1.009,1.806a.8.8,0,0,1-.059.107c-.332.531-.635,1.079-.935,1.629-.255.466-.536.918-.781,1.389-.391.653-.748,1.326-1.124,1.987-.251.371-.426.787-.667,1.164a6.9,6.9,0,0,0-.387.68c-.311.575-.665,1.126-.952,1.714a4.872,4.872,0,0,0-.36.627c-.239.374-.451.763-.662,1.154-.335.556-.628,1.136-.964,1.692-.061.1-.117.212-.174.319-.275.452-.527.918-.79,1.377-.668,1.172-1.3,2.364-2,3.518a7.833,7.833,0,0,1-.629.749,6.665,6.665,0,0,1-1.43,1.054c-.137.068-.272.138-.412.2a6.039,6.039,0,0,1-1.464.367q-8.853.006-17.7,0c-3.9,0-7.808-.007-11.712,0a4.159,4.159,0,0,1-1.075-.093,5.6,5.6,0,0,1-.966-.278c-.14-.059-.274-.131-.411-.2a5.961,5.961,0,0,1-1.429-1.054,6.6,6.6,0,0,1-.626-.753c-.692-1.157-1.344-2.337-2-3.514-.259-.461-.52-.922-.79-1.378a3.914,3.914,0,0,0-.264-.472c-.276-.523-.588-1.025-.881-1.538-.2-.4-.424-.776-.655-1.154a5.175,5.175,0,0,0-.36-.627c-.284-.589-.644-1.136-.953-1.711-.124-.23-.264-.452-.386-.683-.236-.38-.421-.79-.666-1.166-.482-.865-.978-1.723-1.465-2.585-.126-.276-.306-.523-.443-.793-.314-.54-.594-1.1-.93-1.626a.765.765,0,0,1-.061-.106c-.322-.611-.683-1.2-1.01-1.808-.2-.356-.406-.7-.6-1.058-.155-.26-.3-.527-.441-.792q-.439-.764-.867-1.535c-.168-.3-.332-.6-.514-.894-.129-.273-.305-.52-.444-.788-.35-.6-.679-1.21-1.029-1.81a.783.783,0,0,1-.1-.471,9.623,9.623,0,0,1-.417-1.671q0-.46-.005-.92a8.879,8.879,0,0,1,.421-1.752.386.386,0,0,1,.2-.429,18.583,18.583,0,0,0,.969-1.729,3.982,3.982,0,0,0,.5-.875,3.7,3.7,0,0,1,.42-.94c.344-.555.641-1.136.957-1.706.121-.183.229-.375.341-.564.2-.372.42-.736.626-1.106.332-.6.681-1.2,1.008-1.8a.764.764,0,0,1,.059-.107c.332-.527.628-1.074.932-1.617.067-.125.131-.253.2-.378.6-.99,1.133-2.013,1.708-3.015.259-.366.427-.784.669-1.16.1-.173.188-.357.3-.528.382-.648.724-1.319,1.119-1.958.1-.172.185-.358.282-.534q.355-.562.656-1.154.442-.768.88-1.538a4.037,4.037,0,0,0,.264-.473c.28-.472.559-.945.8-1.438.343-.534.624-1.1.941-1.652.359-.6.679-1.219,1.049-1.81a7.682,7.682,0,0,1,.625-.745,5.84,5.84,0,0,1,1.419-1.047,2.464,2.464,0,0,1,.286-.125c.3-.119.6-.234.9-.33.186-.021.366-.072.55-.109.208-.013.416-.008.624-.011,9.836.006,19.671-.01,29.506,0a5.894,5.894,0,0,1,1.469.365c.142.057.276.132.414.2a5.557,5.557,0,0,1,1.431,1.057,7.534,7.534,0,0,1,.628.749c.7,1.127,1.3,2.315,1.985,3.452.241.5.527.966.8,1.442.058.107.112.215.175.32.323.565.651,1.127.972,1.693.2.4.424.776.655,1.153a5.177,5.177,0,0,0,.36.627c.284.589.644,1.137.954,1.712.123.232.269.451.382.688.217.39.438.777.668,1.159.422.777.884,1.53,1.3,2.309.2.358.407.707.605,1.064.317.54.607,1.095.931,1.631a.758.758,0,0,1,.061.106c.321.611.683,1.2,1.01,1.808.194.355.405.7.6,1.056.155.257.288.526.448.78.285.517.57,1.034.874,1.54a3.72,3.72,0,0,1,.421.941A3.856,3.856,0,0,0-891.15,925.413Z" fill="#1b9be2"/>
        <path id="Trazado_112121" data-name="Trazado 112121" d="M-718.046,1084.781c.153-.279.3-.552.452-.827q3.941-7.317,7.875-14.639a.924.924,0,0,1,.926-.558c1.491.018,2.982,0,4.473,0,.805,0,1.084.475.7,1.2q-3.92,7.3-7.85,14.6a.863.863,0,0,0-.008.942c2.627,4.846,5.224,9.708,7.86,14.548.384.7.054,1.317-.753,1.279-1.444-.067-2.894-.034-4.341-.01a1.009,1.009,0,0,1-1.027-.61q-4.034-7.539-8.1-15.059c-.065-.121-.1-.273-.27-.37-.539.992-1.075,1.978-1.609,2.965q-3.362,6.224-6.715,12.454a1.036,1.036,0,0,1-1.064.621c-1.432-.029-2.868-.057-4.3.008-.811.037-1.109-.6-.753-1.25,2.656-4.879,5.276-9.778,7.919-14.665a.688.688,0,0,0,0-.75q-3.884-7.2-7.748-14.411c-.1-.178-.2-.353-.28-.539a.643.643,0,0,1,.585-.948c1.621-.01,3.242,0,4.864-.007.425,0,.6.29.765.6q2.183,4.05,4.371,8.1,1.877,3.475,3.758,6.948A.722.722,0,0,0-718.046,1084.781Z" transform="translate(-205.704 -155.296)" fill="#fefefe"/>
      </g>
    </g>
  </g>
</svg>
