<svg xmlns="http://www.w3.org/2000/svg" xmlns:xlink="http://www.w3.org/1999/xlink" width="166.031" height="156.134" viewBox="0 0 166.031 156.134">
  <defs>
    <filter id="Trazado_134293" x="14.615" y="7.033" width="137.761" height="137.761" filterUnits="userSpaceOnUse">
      <feOffset input="SourceAlpha"/>
      <feGaussianBlur stdDeviation="3" result="blur"/>
      <feFlood flood-opacity="0.29"/>
      <feComposite operator="in" in2="blur"/>
      <feComposite in="SourceGraphic"/>
    </filter>
  </defs>
  <g id="Grupo_79435" data-name="Grupo 79435" transform="translate(15081 9861.576)">
    <g id="Grupo_79430" data-name="Grupo 79430">
      <rect id="Rectángulo_34268" data-name="Rectángulo 34268" width="166.031" height="98.339" rx="13" transform="translate(-15081 -9803.781)" fill="#f6f6f6"/>
      <g id="Grupo_79425" data-name="Grupo 79425" transform="translate(78.797)">
        <path id="Trazado_108952" data-name="Trazado 108952" d="M910.37,1788.316a66.208,66.208,0,0,1,62.354,44.174h10.329a75.919,75.919,0,0,0-145.366,0h10.329A66.208,66.208,0,0,1,910.37,1788.316Z" transform="translate(-15986.484 -11640.076)" fill="#1f8a95"/>
        <g transform="matrix(1, 0, 0, 1, -15159.8, -9861.58)" filter="url(#Trazado_134293)">
          <path id="Trazado_134293-2" data-name="Trazado 134293" d="M59.88,0A59.88,59.88,0,1,1,0,59.88,59.88,59.88,0,0,1,59.88,0Z" transform="translate(23.62 16.03)" fill="#26aab7"/>
        </g>
        <path id="Trazado_134294" data-name="Trazado 134294" d="M9.39-1.348a3.814,3.814,0,0,1-1.677,1.1,7.024,7.024,0,0,1-2.4.392,4.759,4.759,0,0,1-2.428-.6A4.03,4.03,0,0,1,1.271-2.212a6.174,6.174,0,0,1-.582-2.7V-5.64A6.557,6.557,0,0,1,1.227-8.4,3.982,3.982,0,0,1,2.78-10.192a4.473,4.473,0,0,1,2.377-.619,4.454,4.454,0,0,1,2.966.9A3.866,3.866,0,0,1,9.39-7.273H7.251A2.126,2.126,0,0,0,6.6-8.613a2.07,2.07,0,0,0-1.381-.425A1.948,1.948,0,0,0,3.516-8.2a4.429,4.429,0,0,0-.593,2.5v.681A4.216,4.216,0,0,0,3.56-2.476a2.182,2.182,0,0,0,1.868.857,2.437,2.437,0,0,0,1.765-.527V-3.984h-2V-5.6h4.2ZM15.483-5.94A5.751,5.751,0,0,0,14.722-6a1.55,1.55,0,0,0-1.575.813V0H11.03V-7.925h2l.059.945a1.961,1.961,0,0,1,1.765-1.091,2.218,2.218,0,0,1,.659.1ZM20.874,0a2.351,2.351,0,0,1-.212-.71,2.561,2.561,0,0,1-2,.857,2.814,2.814,0,0,1-1.93-.674,2.167,2.167,0,0,1-.765-1.7A2.24,2.24,0,0,1,16.9-4.16a4.608,4.608,0,0,1,2.7-.681h.974V-5.3a1.306,1.306,0,0,0-.282-.879,1.109,1.109,0,0,0-.89-.33,1.261,1.261,0,0,0-.839.256.871.871,0,0,0-.3.7H16.143a2.126,2.126,0,0,1,.425-1.274,2.808,2.808,0,0,1,1.2-.919,4.378,4.378,0,0,1,1.743-.333,3.459,3.459,0,0,1,2.325.736A2.575,2.575,0,0,1,22.7-5.266v3.435a3.789,3.789,0,0,0,.315,1.707V0Zm-1.75-1.472a1.823,1.823,0,0,0,.864-.209,1.371,1.371,0,0,0,.586-.56V-3.6h-.791q-1.589,0-1.692,1.1l-.007.125a.847.847,0,0,0,.278.652A1.081,1.081,0,0,0,19.124-1.472Zm.806-9.778h2.307L20.208-8.979H18.486ZM24.836,0V-6.372H23.657V-7.925h1.179v-.366a2.972,2.972,0,0,1,.919-2.3,3.7,3.7,0,0,1,2.552-.809,8.466,8.466,0,0,1,2.4.432L30.4-9.221A9.373,9.373,0,0,0,29.29-9.5a5.47,5.47,0,0,0-.85-.062q-1.479,0-1.479,1.311v.322h1.56v1.553H26.96V0ZM31.7,0H29.575V-7.925H31.7Zm5.046-1.56a1.388,1.388,0,0,0,.952-.322,1.129,1.129,0,0,0,.381-.857h1.985a2.715,2.715,0,0,1-.439,1.476,2.9,2.9,0,0,1-1.183,1.04,3.7,3.7,0,0,1-1.659.37A3.44,3.44,0,0,1,34.1-.934a4.275,4.275,0,0,1-.981-2.985v-.139a4.226,4.226,0,0,1,.974-2.922,3.4,3.4,0,0,1,2.673-1.091,3.333,3.333,0,0,1,2.384.846,3,3,0,0,1,.912,2.252H38.079A1.455,1.455,0,0,0,37.7-5.978a1.27,1.27,0,0,0-.967-.387,1.275,1.275,0,0,0-1.117.539,3.125,3.125,0,0,0-.377,1.749v.22A3.164,3.164,0,0,0,35.61-2.1,1.291,1.291,0,0,0,36.746-1.56Zm4.2-2.476a4.7,4.7,0,0,1,.454-2.1A3.324,3.324,0,0,1,42.7-7.566a3.814,3.814,0,0,1,1.981-.505A3.609,3.609,0,0,1,47.3-7.09a3.939,3.939,0,0,1,1.132,2.666l.015.542A4.142,4.142,0,0,1,47.432-.956,3.539,3.539,0,0,1,44.7.146a3.556,3.556,0,0,1-2.736-1.1A4.215,4.215,0,0,1,40.942-3.94Zm2.117.15a2.962,2.962,0,0,0,.425,1.727,1.4,1.4,0,0,0,1.216.6,1.4,1.4,0,0,0,1.2-.591,3.241,3.241,0,0,0,.432-1.889A2.933,2.933,0,0,0,45.9-5.756a1.4,1.4,0,0,0-1.216-.609,1.382,1.382,0,0,0-1.2.605A3.3,3.3,0,0,0,43.059-3.885Zm10.986,1.7a.682.682,0,0,0-.385-.612,4.368,4.368,0,0,0-1.234-.4Q49.6-3.794,49.6-5.6a2.178,2.178,0,0,1,.875-1.761,3.531,3.531,0,0,1,2.289-.707,3.8,3.8,0,0,1,2.413.71,2.239,2.239,0,0,1,.9,1.846H53.965a1.024,1.024,0,0,0-.293-.751,1.24,1.24,0,0,0-.916-.3,1.267,1.267,0,0,0-.828.242.763.763,0,0,0-.293.615.652.652,0,0,0,.333.568,3.428,3.428,0,0,0,1.124.374,9.183,9.183,0,0,1,1.333.355A2.19,2.19,0,0,1,56.1-2.278a2.067,2.067,0,0,1-.93,1.754,4.013,4.013,0,0,1-2.4.67A4.191,4.191,0,0,1,51-.209a2.968,2.968,0,0,1-1.212-.974,2.263,2.263,0,0,1-.439-1.337h2.007a1.105,1.105,0,0,0,.417.864,1.656,1.656,0,0,0,1.04.3,1.533,1.533,0,0,0,.919-.231A.718.718,0,0,0,54.045-2.19Z" transform="translate(-15106 -9752.955)" fill="#fff"/>
        <g id="Grupo_73925" data-name="Grupo 73925" transform="translate(-15100.629 -9828.139)">
          <path id="Trazado_108953" data-name="Trazado 108953" d="M970.19,1841.074l.791,1.374a31.45,31.45,0,0,1,1.984,5.113l.373,1.553a29.712,29.712,0,0,1,.436,5.339c-.017.527-.047,1.054-.071,1.582l-.306,2.338a25.373,25.373,0,0,1-2.193,6.544c-.385.766-.768.882-1.519.458-.683-.385-1.37-.766-2.055-1.149a7.151,7.151,0,0,0-1.256-.726c-.377-.231-.751-.468-1.133-.69-.8-.465-.9-.729-.5-1.577a16.313,16.313,0,0,0,1.39-4.539,11.584,11.584,0,0,0,.2-2.236,15.736,15.736,0,0,0-1-6.278,5.89,5.89,0,0,0-.594-1.449,15,15,0,0,0-2.984-4.474,4.579,4.579,0,0,0-.89-.9,15.053,15.053,0,0,0-4.344-2.979,6.162,6.162,0,0,0-1.47-.619,14.788,14.788,0,0,0-4.3-1.013c-.483-.048-.968-.071-1.191-.614l-.067-1.853q.018-1.928.035-3.854c.007-.959.289-1.187,1.26-1.126,1.08.068,2.142.246,3.209.41l1.642.394a29.021,29.021,0,0,1,5.153,2.055l1.234.714a32.45,32.45,0,0,1,4,3.064l1.145,1.152A32.4,32.4,0,0,1,970.19,1841.074Zm-18.978-9.981a4.13,4.13,0,0,0,0,1.127,11.18,11.18,0,0,0,.005,1.962c-.1.908-.1.908.767,1.043.051.008.1.024.151.031a22.688,22.688,0,0,1,4.238,1.189l1.45.695a22.748,22.748,0,0,1,4.121,2.9l1.127,1.138a23.373,23.373,0,0,1,2.958,4.3l.538,1.159a21.951,21.951,0,0,1,1.408,5.882l.053,1.941a20,20,0,0,1-1.2,6.1c-.416,1.1-.409,1.1.678,1.632a.177.177,0,0,0,.05.009,8.681,8.681,0,0,0,1.39.805c.271.168.549.329.813.508.2.138.277.056.36-.141a16.73,16.73,0,0,0,.873-2.323,14.491,14.491,0,0,0,.7-2.679,21.7,21.7,0,0,0,.217-7.512,7.941,7.941,0,0,0-.3-1.648,19.6,19.6,0,0,0-1.866-5.455,6.345,6.345,0,0,0-.677-1.243,18.749,18.749,0,0,0-3.095-4.221,7.44,7.44,0,0,0-1.139-1.145,18.42,18.42,0,0,0-4.123-3.078,4.843,4.843,0,0,0-1.157-.64,19.455,19.455,0,0,0-5.466-1.963,10.59,10.59,0,0,0-1.823-.346l-.926-.107C951.267,1831,951.184,1830.964,951.212,1831.093Z" transform="translate(-924.358 -1829.292)" fill="#fff"/>
          <path id="Trazado_108954" data-name="Trazado 108954" d="M920.462,1900.724a33.132,33.132,0,0,1-4.106-3.127l-1.026-1.03c-.712-.851-1.46-1.671-2.092-2.587-.453-.658-.379-1.08.3-1.475q2.347-1.36,4.7-2.706a.844.844,0,0,1,1.288.241,9.933,9.933,0,0,0,1.136,1.311,5.629,5.629,0,0,0,1.033,1.027,14.974,14.974,0,0,0,4.416,2.918,4.934,4.934,0,0,0,1.245.516,15.9,15.9,0,0,0,6.486,1.073,11.684,11.684,0,0,0,2.268-.214,15.566,15.566,0,0,0,3.887-1.107,17.242,17.242,0,0,0,7.535-6.086c.481-.684.76-.738,1.506-.316.342.193.689.374,1.034.561a9.165,9.165,0,0,0,1.377.8c.691.409,1.379.823,2.072,1.227.752.438.858.833.377,1.541a24.445,24.445,0,0,1-15.64,10.535c-.167.035-.333.079-.5.118l-2.328.3a27.66,27.66,0,0,1-6.831-.351l-1.424-.331a30.929,30.929,0,0,1-5.318-2.043Zm-1.009-8.18c-.23-.274-.468-.543-.688-.826a.268.268,0,0,0-.422-.081c-1.1.649-2.214,1.28-3.36,1.938a15.581,15.581,0,0,0,1.666,1.9,6.275,6.275,0,0,0,1.031,1.026,18.51,18.51,0,0,0,4.221,3.092,6.19,6.19,0,0,0,1.241.68,19.882,19.882,0,0,0,5.454,1.87,8.1,8.1,0,0,0,1.649.3,21.07,21.07,0,0,0,7.63-.258,14.158,14.158,0,0,0,2.63-.676,19.536,19.536,0,0,0,2.992-1.208,22.844,22.844,0,0,0,8.425-7.068c.1-.134.421-.3.032-.5-.6-.32-1.195-.662-1.792-1-.436-.263-.875-.52-1.306-.792-.175-.11-.28-.109-.412.073a20,20,0,0,1-2.978,3.16,25.919,25.919,0,0,1-2.608,1.8,19.43,19.43,0,0,1-9.011,2.586l-1.948-.04a22.325,22.325,0,0,1-5.877-1.41l-1.338-.627a22.766,22.766,0,0,1-4.171-2.9Z" transform="translate(-908.619 -1854.963)" fill="#fff"/>
          <path id="Trazado_108955" data-name="Trazado 108955" d="M930.667,1873.364a3.351,3.351,0,0,1-1.086-3.187.326.326,0,0,0-.172-.377c-.518-.36-1.028-.729-1.542-1.094l-1.127-.831c-.127-.177-.25-.083-.393-.011a3.349,3.349,0,0,1-4.971-1.8,4.759,4.759,0,0,1-.034-1.85,3.184,3.184,0,0,1,2.39-2.4,4.681,4.681,0,0,1,1.847.05c1.85.849,2.68,2.379,2.142,4.085-.138.438-.04.627.321.787l1.123.828c.3.226.613.439.9.683a.389.389,0,0,0,.6.006,3.347,3.347,0,0,1,4.3.041.4.4,0,0,0,.6,0c.7-.528,1.4-1.05,2.113-1.549a.477.477,0,0,0,.219-.656,3.278,3.278,0,0,1,1.8-4.06,3.537,3.537,0,0,1,2.311-.161,5,5,0,0,1,1.375.832,2.89,2.89,0,0,1,.893,2.659c-.312,1.051.2,1.467.923,1.891.146.085.284.183.426.275a7.889,7.889,0,0,1,.757.6c.354.352.649.337.937-.061,2.268-1.186,4.189-.509,5.144,1.814a4.9,4.9,0,0,1-.016,1.956A3.387,3.387,0,0,1,950.3,1874a5.207,5.207,0,0,1-1.957.012c-1.707-.683-2.544-1.854-2.343-3.473a.823.823,0,0,0-.524-1.024l-1.047-.76c-.367-.279-.745-.543-1.095-.841-.208-.178-.356-.141-.581-.021a3.415,3.415,0,0,1-3.343.043.512.512,0,0,0-.639.043c-.8.614-1.619,1.212-2.44,1.8a.545.545,0,0,0-.27.62,3.273,3.273,0,0,1-2.5,3.62,4.17,4.17,0,0,1-1.781-.041Zm9.055-7.372a1.5,1.5,0,0,0,1.65.651,1.554,1.554,0,0,0,1.263-1.264,1.5,1.5,0,0,0-.653-1.65,1.614,1.614,0,0,0-2.261,2.263Zm-7.961,6.05a1.611,1.611,0,0,0,2.272-2.273,1.616,1.616,0,1,0-2.272,2.273Zm-5.557-6.995a1.645,1.645,0,1,0-1.641,1.637A1.657,1.657,0,0,0,926.2,1865.047Zm24.708,5.757a1.645,1.645,0,1,0-1.672,1.646A1.657,1.657,0,0,0,950.911,1870.8Z" transform="translate(-912.2 -1843.27)" fill="#fff"/>
          <path id="Trazado_108956" data-name="Trazado 108956" d="M909.259,1876.231a1.156,1.156,0,0,1-.978-.745,28.322,28.322,0,0,1-2.06-5.151l-.392-1.641a26.692,26.692,0,0,1-.429-6.791l.252-2.256a28.068,28.068,0,0,1,1.446-5.018c.272-.646.558-1.286.864-1.916a.871.871,0,0,1,1.385-.43c.716.4,1.429.8,2.144,1.2a8.987,8.987,0,0,0,1.287.751c.439.261.881.517,1.316.785a.837.837,0,0,1,.4,1.21c-.08.188-.179.368-.258.556a15.245,15.245,0,0,0-1.262,4.508,8.881,8.881,0,0,0-.186,2.163,15.8,15.8,0,0,0,1.074,6.294,6.407,6.407,0,0,0,.63,1.481c.139.292.282.582.418.876a.768.768,0,0,1-.294,1.077C912.832,1874.21,911.095,1875.307,909.259,1876.231Zm1.048-21.468c-.292-.175-.59-.34-.872-.528-.216-.145-.33-.144-.443.13a22.756,22.756,0,0,0-.929,2.487,13.782,13.782,0,0,0-.652,2.694,2.218,2.218,0,0,0-.09.292,22.608,22.608,0,0,0-.088,7.149,11.58,11.58,0,0,0,.318,1.736,22.576,22.576,0,0,0,1.789,5.186c.178.377.333.281.55.082.76-.425,1.522-.845,2.277-1.278.947-.544.944-.549.417-1.546a21.414,21.414,0,0,1-1.418-5.774l-.072-1.936a19.836,19.836,0,0,1,1.2-6.3c.411-1.094.408-1.1-.678-1.621Z" transform="translate(-905.342 -1839.114)" fill="#fff"/>
          <path id="Trazado_108957" data-name="Trazado 108957" d="M931.088,1829.312c1.444-.021,1.512.052,1.518,1.533,0,1.283.02,2.566.031,3.85-.011.355-.019.71-.034,1.065-.026.605-.244.833-.85.942a6.153,6.153,0,0,0-1.258.164,2.99,2.99,0,0,0-.357.018,17.213,17.213,0,0,0-11.331,7.14c-.539.77-.8.817-1.621.345-.326-.187-.657-.364-.985-.545l-1.06-.61-2.427-1.427c-.685-.4-.787-.812-.334-1.476a24.612,24.612,0,0,1,16.181-10.66,2.783,2.783,0,0,0,.29-.089Zm-2.342,2.005a14.215,14.215,0,0,0-2.669.657,21.177,21.177,0,0,0-4.865,2.154,22.948,22.948,0,0,0-6.851,6.206c-.14.189-.324.35.041.534.639.323,1.256.691,1.883,1.04.393.238.789.469,1.176.717.155.1.255.111.376-.057a19.5,19.5,0,0,1,4.025-4,21.542,21.542,0,0,1,3.571-2.008,18.871,18.871,0,0,1,5.029-1.38c.192-.024.506.071.5-.339-.017-1.183-.01-2.366,0-3.549,0-.218-.05-.32-.288-.281A16.227,16.227,0,0,0,928.746,1831.317Z" transform="translate(-908.253 -1829.3)" fill="#fff"/>
        </g>
      </g>
    </g>
  </g>
</svg>
