<svg xmlns="http://www.w3.org/2000/svg" xmlns:xlink="http://www.w3.org/1999/xlink" width="200" height="176.6" viewBox="0 0 200 176.6">
  <defs>
    <filter id="Trazado_134301" x="18" y="5" width="165" height="162" filterUnits="userSpaceOnUse">
      <feOffset input="SourceAlpha"/>
      <feGaussianBlur stdDeviation="3" result="blur"/>
      <feFlood flood-opacity="0.29"/>
      <feComposite operator="in" in2="blur"/>
      <feComposite in="SourceGraphic"/>
    </filter>
  </defs>
  <g id="Grupo_79453" data-name="Grupo 79453" transform="translate(14492 3667.635)">
    <g id="Trazado_134300" data-name="Trazado 134300" transform="translate(-14479 -3667.635)" fill="none" stroke-linecap="round">
      <path d="M17.855,0H156.5a17.855,17.855,0,0,1,17.855,17.855V149.145A17.855,17.855,0,0,1,156.5,167H17.855A17.855,17.855,0,0,1,0,149.145V17.855A17.855,17.855,0,0,1,17.855,0Z" stroke="none"/>
      <path d="M 17.85533142089844 8 C 12.42109680175781 8 8 12.42108154296875 8 17.8553466796875 L 8 149.1446533203125 C 8 154.5789184570312 12.42109680175781 159 17.85533142089844 159 L 156.4968566894531 159 C 161.9310913085938 159 166.3521881103516 154.5789184570312 166.3521881103516 149.1446533203125 L 166.3521881103516 17.8553466796875 C 166.3521881103516 12.42108154296875 161.9310913085938 8 156.4968566894531 8 L 17.85533142089844 8 M 17.85533142089844 0 L 156.4968566894531 0 C 166.3580627441406 0 174.3521881103516 7.994110107421875 174.3521881103516 17.8553466796875 L 174.3521881103516 149.1446533203125 C 174.3521881103516 159.0058898925781 166.3580627441406 167 156.4968566894531 167 L 17.85533142089844 167 C 7.994094848632812 167 0 159.0058898925781 0 149.1446533203125 L 0 17.8553466796875 C 0 7.994110107421875 7.994094848632812 0 17.85533142089844 0 Z" stroke="none" fill="#b2ebf2"/>
    </g>
    <path id="Trazado_134302" data-name="Trazado 134302" d="M6,0H194a6,6,0,0,1,6,6V80.721a6,6,0,0,1-6,6H6a6,6,0,0,1-6-6V6A6,6,0,0,1,6,0Z" transform="translate(-14492 -3577.756)" fill="#f6f6f6"/>
    <g transform="matrix(1, 0, 0, 1, -14492, -3667.64)" filter="url(#Trazado_134301)">
      <path id="Trazado_134301-2" data-name="Trazado 134301" d="M15,0H132a15,15,0,0,1,15,15V129a15,15,0,0,1-15,15H15A15,15,0,0,1,0,129V15A15,15,0,0,1,15,0Z" transform="translate(27 14)" fill="#70bdc6"/>
    </g>
    <path id="Trazado_134303" data-name="Trazado 134303" d="M6.973-2.2H3.12L2.388,0H.051l3.97-10.664H6.057L10.049,0H7.712ZM3.713-3.977H6.379L5.039-7.969Zm1.78-9.543H7.8L5.771-11.25H4.05ZM15.359-5.94A5.751,5.751,0,0,0,14.6-6a1.55,1.55,0,0,0-1.575.813V0H10.906V-7.925h2l.059.945a1.961,1.961,0,0,1,1.765-1.091,2.218,2.218,0,0,1,.659.1ZM19.885.146A3.89,3.89,0,0,1,17.047-.923a3.8,3.8,0,0,1-1.095-2.849v-.205a4.787,4.787,0,0,1,.461-2.135,3.386,3.386,0,0,1,1.307-1.45,3.669,3.669,0,0,1,1.93-.509,3.289,3.289,0,0,1,2.56,1.025,4.167,4.167,0,0,1,.934,2.908v.864H18.1a1.966,1.966,0,0,0,.619,1.245,1.871,1.871,0,0,0,1.307.469,2.285,2.285,0,0,0,1.912-.886l1.04,1.165A3.178,3.178,0,0,1,21.687-.231,4.229,4.229,0,0,1,19.885.146Zm-.242-6.511a1.323,1.323,0,0,0-1.022.427,2.209,2.209,0,0,0-.5,1.221h2.944v-.169a1.576,1.576,0,0,0-.381-1.092A1.365,1.365,0,0,0,19.644-6.365ZM28.938,0a2.351,2.351,0,0,1-.212-.71,2.561,2.561,0,0,1-2,.857A2.814,2.814,0,0,1,24.8-.527a2.167,2.167,0,0,1-.765-1.7,2.24,2.24,0,0,1,.934-1.934,4.608,4.608,0,0,1,2.7-.681h.974V-5.3a1.306,1.306,0,0,0-.282-.879,1.109,1.109,0,0,0-.89-.33,1.261,1.261,0,0,0-.839.256.871.871,0,0,0-.3.7H24.207a2.126,2.126,0,0,1,.425-1.274,2.808,2.808,0,0,1,1.2-.919,4.378,4.378,0,0,1,1.743-.333,3.459,3.459,0,0,1,2.325.736,2.575,2.575,0,0,1,.861,2.069v3.435a3.789,3.789,0,0,0,.315,1.707V0Zm-1.75-1.472a1.823,1.823,0,0,0,.864-.209,1.371,1.371,0,0,0,.586-.56V-3.6h-.791q-1.589,0-1.692,1.1l-.007.125a.847.847,0,0,0,.278.652A1.081,1.081,0,0,0,27.188-1.472ZM36.68-2.19A.682.682,0,0,0,36.3-2.8a4.368,4.368,0,0,0-1.234-.4q-2.827-.593-2.827-2.4a2.178,2.178,0,0,1,.875-1.761A3.531,3.531,0,0,1,35.4-8.071a3.8,3.8,0,0,1,2.413.71,2.239,2.239,0,0,1,.9,1.846H36.6a1.024,1.024,0,0,0-.293-.751,1.24,1.24,0,0,0-.916-.3,1.267,1.267,0,0,0-.828.242.763.763,0,0,0-.293.615.652.652,0,0,0,.333.568,3.428,3.428,0,0,0,1.124.374,9.183,9.183,0,0,1,1.333.355,2.19,2.19,0,0,1,1.677,2.131,2.067,2.067,0,0,1-.93,1.754,4.013,4.013,0,0,1-2.4.67,4.191,4.191,0,0,1-1.769-.355,2.968,2.968,0,0,1-1.212-.974,2.263,2.263,0,0,1-.439-1.337h2.007a1.105,1.105,0,0,0,.417.864,1.656,1.656,0,0,0,1.04.3,1.533,1.533,0,0,0,.919-.231A.718.718,0,0,0,36.68-2.19Zm6.826-1.831a4.776,4.776,0,0,1,.831-2.952,2.7,2.7,0,0,1,2.274-1.1,2.427,2.427,0,0,1,1.912.864V-11.25h2.124V0H48.735l-.1-.842A2.491,2.491,0,0,1,46.6.146a2.69,2.69,0,0,1-2.245-1.1A4.93,4.93,0,0,1,43.506-4.021Zm2.117.151a3.146,3.146,0,0,0,.388,1.714,1.263,1.263,0,0,0,1.128.6,1.416,1.416,0,0,0,1.384-.831V-5.533a1.4,1.4,0,0,0-1.37-.831Q45.623-6.365,45.623-3.87ZM55.935.146A3.89,3.89,0,0,1,53.1-.923,3.8,3.8,0,0,1,52-3.772v-.205a4.787,4.787,0,0,1,.461-2.135,3.386,3.386,0,0,1,1.307-1.45,3.669,3.669,0,0,1,1.93-.509,3.289,3.289,0,0,1,2.56,1.025,4.167,4.167,0,0,1,.934,2.908v.864H54.148a1.966,1.966,0,0,0,.619,1.245,1.871,1.871,0,0,0,1.307.469,2.285,2.285,0,0,0,1.912-.886l1.04,1.165A3.178,3.178,0,0,1,57.737-.231,4.229,4.229,0,0,1,55.935.146Zm-.242-6.511a1.323,1.323,0,0,0-1.022.427,2.209,2.209,0,0,0-.5,1.221h2.944v-.169a1.576,1.576,0,0,0-.381-1.092A1.365,1.365,0,0,0,55.693-6.365ZM63.8-4.021a4.776,4.776,0,0,1,.831-2.952,2.7,2.7,0,0,1,2.274-1.1,2.427,2.427,0,0,1,1.912.864V-11.25h2.124V0H69.031l-.1-.842a2.491,2.491,0,0,1-2.036.989,2.69,2.69,0,0,1-2.245-1.1A4.93,4.93,0,0,1,63.8-4.021Zm2.117.151a3.146,3.146,0,0,0,.388,1.714,1.263,1.263,0,0,0,1.128.6,1.416,1.416,0,0,0,1.384-.831V-5.533a1.4,1.4,0,0,0-1.37-.831Q65.918-6.365,65.918-3.87ZM74.817,0H72.693V-7.925h2.124ZM72.568-9.976a1.042,1.042,0,0,1,.319-.784,1.2,1.2,0,0,1,.868-.308,1.2,1.2,0,0,1,.864.308,1.036,1.036,0,0,1,.322.784,1.039,1.039,0,0,1-.326.791,1.2,1.2,0,0,1-.861.308,1.2,1.2,0,0,1-.861-.308A1.039,1.039,0,0,1,72.568-9.976ZM80.852-2.19a.682.682,0,0,0-.385-.612,4.368,4.368,0,0,0-1.234-.4q-2.827-.593-2.827-2.4a2.178,2.178,0,0,1,.875-1.761,3.531,3.531,0,0,1,2.289-.707,3.8,3.8,0,0,1,2.413.71,2.239,2.239,0,0,1,.9,1.846H80.771a1.024,1.024,0,0,0-.293-.751,1.24,1.24,0,0,0-.916-.3,1.267,1.267,0,0,0-.828.242.763.763,0,0,0-.293.615.652.652,0,0,0,.333.568,3.428,3.428,0,0,0,1.124.374,9.183,9.183,0,0,1,1.333.355A2.19,2.19,0,0,1,82.91-2.278a2.067,2.067,0,0,1-.93,1.754,4.013,4.013,0,0,1-2.4.67,4.191,4.191,0,0,1-1.769-.355A2.968,2.968,0,0,1,76.6-1.183a2.263,2.263,0,0,1-.439-1.337h2.007a1.105,1.105,0,0,0,.417.864,1.656,1.656,0,0,0,1.04.3,1.533,1.533,0,0,0,.919-.231A.718.718,0,0,0,80.852-2.19ZM87.92.146A3.89,3.89,0,0,1,85.082-.923a3.8,3.8,0,0,1-1.095-2.849v-.205a4.787,4.787,0,0,1,.461-2.135,3.386,3.386,0,0,1,1.307-1.45,3.669,3.669,0,0,1,1.93-.509,3.289,3.289,0,0,1,2.56,1.025,4.167,4.167,0,0,1,.934,2.908v.864H86.133a1.966,1.966,0,0,0,.619,1.245,1.871,1.871,0,0,0,1.307.469,2.285,2.285,0,0,0,1.912-.886l1.04,1.165A3.178,3.178,0,0,1,89.722-.231,4.229,4.229,0,0,1,87.92.146Zm-.242-6.511a1.323,1.323,0,0,0-1.022.427,2.209,2.209,0,0,0-.5,1.221H89.1v-.169a1.576,1.576,0,0,0-.381-1.092A1.365,1.365,0,0,0,87.678-6.365Zm6.65-1.56.066.916a2.767,2.767,0,0,1,2.278-1.062,2.3,2.3,0,0,1,1.875.74,3.451,3.451,0,0,1,.63,2.212V0H97.061V-5.08a1.379,1.379,0,0,0-.293-.98,1.31,1.31,0,0,0-.974-.3,1.456,1.456,0,0,0-1.34.763V0H92.336V-7.925Zm4.2-3.23a2.05,2.05,0,0,1-.483,1.388,1.5,1.5,0,0,1-1.179.56,1.789,1.789,0,0,1-.494-.062,3.317,3.317,0,0,1-.6-.267,3.22,3.22,0,0,0-.549-.253,1.343,1.343,0,0,0-.366-.048.587.587,0,0,0-.436.183.712.712,0,0,0-.179.52l-1.23-.073a2.081,2.081,0,0,1,.48-1.384,1.48,1.48,0,0,1,1.176-.571,1.513,1.513,0,0,1,.414.055,4.557,4.557,0,0,1,.634.267,4.118,4.118,0,0,0,.608.256,1.387,1.387,0,0,0,.352.044.618.618,0,0,0,.443-.179.683.683,0,0,0,.187-.516Zm1.919,7.119a4.7,4.7,0,0,1,.454-2.1,3.324,3.324,0,0,1,1.307-1.428,3.814,3.814,0,0,1,1.981-.505,3.609,3.609,0,0,1,2.618.981,3.939,3.939,0,0,1,1.132,2.666l.015.542a4.142,4.142,0,0,1-1.018,2.926,3.539,3.539,0,0,1-2.732,1.1,3.556,3.556,0,0,1-2.736-1.1,4.215,4.215,0,0,1-1.022-2.988Zm2.117.15a2.962,2.962,0,0,0,.425,1.727,1.4,1.4,0,0,0,1.216.6,1.4,1.4,0,0,0,1.2-.591,3.241,3.241,0,0,0,.432-1.889,2.933,2.933,0,0,0-.432-1.716,1.4,1.4,0,0,0-1.216-.609,1.382,1.382,0,0,0-1.2.605A3.3,3.3,0,0,0,102.568-3.885ZM.908,10.664a11.24,11.24,0,0,1,.447-3.193A8.427,8.427,0,0,1,2.673,4.786a4.923,4.923,0,0,1,1.89-1.622l.41,1.143A5.1,5.1,0,0,0,3.3,6.753a11.327,11.327,0,0,0-.6,3.867v.227A11.543,11.543,0,0,0,3.3,14.729a5.2,5.2,0,0,0,1.677,2.483l-.41,1.121a4.925,4.925,0,0,1-1.857-1.578,8.286,8.286,0,0,1-1.315-2.611,11.173,11.173,0,0,1-.483-3.091ZM10.671,15a2.351,2.351,0,0,1-.212-.71,2.561,2.561,0,0,1-2,.857,2.814,2.814,0,0,1-1.93-.674,2.167,2.167,0,0,1-.765-1.7A2.24,2.24,0,0,1,6.7,10.84a4.608,4.608,0,0,1,2.7-.681h.974V9.7a1.306,1.306,0,0,0-.282-.879A1.109,1.109,0,0,0,9.2,8.5a1.261,1.261,0,0,0-.839.256.871.871,0,0,0-.3.7H5.94a2.126,2.126,0,0,1,.425-1.274,2.808,2.808,0,0,1,1.2-.919,4.378,4.378,0,0,1,1.743-.333,3.459,3.459,0,0,1,2.325.736A2.575,2.575,0,0,1,12.5,9.734v3.435a3.789,3.789,0,0,0,.315,1.707V15Zm-1.75-1.472a1.823,1.823,0,0,0,.864-.209,1.371,1.371,0,0,0,.586-.56V11.4H9.58q-1.589,0-1.692,1.1l-.007.125a.847.847,0,0,0,.278.652A1.081,1.081,0,0,0,8.921,13.528ZM9.727,3.75h2.307L10,6.021H8.284Zm8.848,5.31A5.751,5.751,0,0,0,17.813,9a1.55,1.55,0,0,0-1.575.813V15H14.121V7.075h2l.059.945a1.961,1.961,0,0,1,1.765-1.091,2.218,2.218,0,0,1,.659.1ZM23.1,15.146a3.89,3.89,0,0,1-2.838-1.069,3.8,3.8,0,0,1-1.095-2.849v-.205a4.787,4.787,0,0,1,.461-2.135,3.386,3.386,0,0,1,1.307-1.45,3.669,3.669,0,0,1,1.93-.509,3.289,3.289,0,0,1,2.56,1.025,4.167,4.167,0,0,1,.934,2.908v.864H21.313a1.966,1.966,0,0,0,.619,1.245,1.871,1.871,0,0,0,1.307.469,2.285,2.285,0,0,0,1.912-.886l1.04,1.165A3.178,3.178,0,0,1,24.9,14.769,4.229,4.229,0,0,1,23.1,15.146Zm-.242-6.511a1.323,1.323,0,0,0-1.022.427,2.209,2.209,0,0,0-.5,1.221H24.28v-.169A1.576,1.576,0,0,0,23.9,9.021,1.365,1.365,0,0,0,22.859,8.635ZM32.153,15a2.351,2.351,0,0,1-.212-.71,2.561,2.561,0,0,1-2,.857,2.814,2.814,0,0,1-1.93-.674,2.167,2.167,0,0,1-.765-1.7,2.24,2.24,0,0,1,.934-1.934,4.608,4.608,0,0,1,2.7-.681h.974V9.7a1.306,1.306,0,0,0-.282-.879,1.109,1.109,0,0,0-.89-.33,1.261,1.261,0,0,0-.839.256.871.871,0,0,0-.3.7H27.422a2.126,2.126,0,0,1,.425-1.274,2.808,2.808,0,0,1,1.2-.919,4.378,4.378,0,0,1,1.743-.333,3.459,3.459,0,0,1,2.325.736,2.575,2.575,0,0,1,.861,2.069v3.435a3.789,3.789,0,0,0,.315,1.707V15ZM30.4,13.528a1.823,1.823,0,0,0,.864-.209,1.371,1.371,0,0,0,.586-.56V11.4h-.791q-1.589,0-1.692,1.1l-.007.125a.847.847,0,0,0,.278.652A1.081,1.081,0,0,0,30.4,13.528ZM39.9,12.81a.682.682,0,0,0-.385-.612,4.368,4.368,0,0,0-1.234-.4q-2.827-.593-2.827-2.4a2.178,2.178,0,0,1,.875-1.761,3.531,3.531,0,0,1,2.289-.707,3.8,3.8,0,0,1,2.413.71,2.239,2.239,0,0,1,.9,1.846H39.814a1.024,1.024,0,0,0-.293-.751,1.24,1.24,0,0,0-.916-.3,1.267,1.267,0,0,0-.828.242.763.763,0,0,0-.293.615.652.652,0,0,0,.333.568,3.428,3.428,0,0,0,1.124.374,9.183,9.183,0,0,1,1.333.355,2.19,2.19,0,0,1,1.677,2.131,2.067,2.067,0,0,1-.93,1.754,4.013,4.013,0,0,1-2.4.67,4.191,4.191,0,0,1-1.769-.355,2.968,2.968,0,0,1-1.212-.974A2.263,2.263,0,0,1,35.2,12.48h2.007a1.105,1.105,0,0,0,.417.864,1.656,1.656,0,0,0,1.04.3,1.533,1.533,0,0,0,.919-.231A.718.718,0,0,0,39.9,12.81Zm3.97,4.863-1.106-.579.264-.476a3.806,3.806,0,0,0,.505-1.78V13.2h1.787l-.007,1.465A3.805,3.805,0,0,1,44.9,16.3,4.206,4.206,0,0,1,43.865,17.673ZM53.247,5.127V7.075H54.6V8.628H53.247v3.955a.944.944,0,0,0,.168.63.846.846,0,0,0,.645.19,3.376,3.376,0,0,0,.623-.051v1.6a4.358,4.358,0,0,1-1.282.19A2.021,2.021,0,0,1,51.13,12.9V8.628H49.973V7.075H51.13V5.127Zm6.182,10.02a3.89,3.89,0,0,1-2.838-1.069A3.8,3.8,0,0,1,55.5,11.228v-.205a4.787,4.787,0,0,1,.461-2.135,3.386,3.386,0,0,1,1.307-1.45,3.669,3.669,0,0,1,1.93-.509,3.289,3.289,0,0,1,2.56,1.025,4.167,4.167,0,0,1,.934,2.908v.864H57.642a1.966,1.966,0,0,0,.619,1.245,1.871,1.871,0,0,0,1.307.469,2.285,2.285,0,0,0,1.912-.886l1.04,1.165a3.178,3.178,0,0,1-1.289,1.051A4.229,4.229,0,0,1,59.429,15.146Zm-.242-6.511a1.323,1.323,0,0,0-1.022.427,2.209,2.209,0,0,0-.5,1.221h2.944v-.169a1.576,1.576,0,0,0-.381-1.092A1.365,1.365,0,0,0,59.187,8.635Zm.19-4.885h2.307L59.656,6.021H57.935Zm7.808,9.69a1.388,1.388,0,0,0,.952-.322,1.129,1.129,0,0,0,.381-.857H70.5a2.715,2.715,0,0,1-.439,1.476,2.9,2.9,0,0,1-1.183,1.04,3.7,3.7,0,0,1-1.659.37,3.44,3.44,0,0,1-2.681-1.08,4.275,4.275,0,0,1-.981-2.985v-.139a4.226,4.226,0,0,1,.974-2.922,3.4,3.4,0,0,1,2.673-1.091,3.333,3.333,0,0,1,2.384.846,3,3,0,0,1,.912,2.252H68.518a1.455,1.455,0,0,0-.381-1.005,1.416,1.416,0,0,0-2.084.153,3.125,3.125,0,0,0-.377,1.749v.22A3.164,3.164,0,0,0,66.05,12.9,1.291,1.291,0,0,0,67.185,13.44ZM73.66,7.075l.066.916A2.767,2.767,0,0,1,76,6.929a2.3,2.3,0,0,1,1.875.74,3.451,3.451,0,0,1,.63,2.212V15H76.392V9.92a1.379,1.379,0,0,0-.293-.98,1.31,1.31,0,0,0-.974-.3,1.456,1.456,0,0,0-1.34.763V15H71.667V7.075ZM82.346,15H80.222V7.075h2.124ZM80.1,5.024a1.042,1.042,0,0,1,.319-.784,1.373,1.373,0,0,1,1.732,0,1.036,1.036,0,0,1,.322.784,1.039,1.039,0,0,1-.326.791,1.358,1.358,0,0,1-1.721,0A1.039,1.039,0,0,1,80.1,5.024Zm7.288,8.416a1.388,1.388,0,0,0,.952-.322,1.129,1.129,0,0,0,.381-.857H90.7a2.715,2.715,0,0,1-.439,1.476,2.9,2.9,0,0,1-1.183,1.04,3.7,3.7,0,0,1-1.659.37,3.44,3.44,0,0,1-2.681-1.08,4.275,4.275,0,0,1-.981-2.985v-.139a4.226,4.226,0,0,1,.974-2.922,3.4,3.4,0,0,1,2.673-1.091,3.333,3.333,0,0,1,2.384.846,3,3,0,0,1,.912,2.252H88.718a1.455,1.455,0,0,0-.381-1.005,1.416,1.416,0,0,0-2.084.153,3.125,3.125,0,0,0-.377,1.749v.22A3.164,3.164,0,0,0,86.25,12.9,1.291,1.291,0,0,0,87.385,13.44ZM96.5,15a2.351,2.351,0,0,1-.212-.71,2.561,2.561,0,0,1-2,.857,2.814,2.814,0,0,1-1.93-.674,2.167,2.167,0,0,1-.765-1.7,2.24,2.24,0,0,1,.934-1.934,4.608,4.608,0,0,1,2.7-.681H96.2V9.7a1.306,1.306,0,0,0-.282-.879,1.109,1.109,0,0,0-.89-.33,1.261,1.261,0,0,0-.839.256.871.871,0,0,0-.3.7H91.772A2.126,2.126,0,0,1,92.2,8.181a2.808,2.808,0,0,1,1.2-.919,4.378,4.378,0,0,1,1.743-.333,3.459,3.459,0,0,1,2.325.736,2.575,2.575,0,0,1,.861,2.069v3.435a3.789,3.789,0,0,0,.315,1.707V15Zm-1.75-1.472a1.823,1.823,0,0,0,.864-.209,1.371,1.371,0,0,0,.586-.56V11.4h-.791q-1.589,0-1.692,1.1l-.007.125a.847.847,0,0,0,.278.652A1.081,1.081,0,0,0,94.753,13.528Zm9.492-.718a.682.682,0,0,0-.385-.612,4.368,4.368,0,0,0-1.234-.4Q99.8,11.206,99.8,9.4a2.178,2.178,0,0,1,.875-1.761,3.531,3.531,0,0,1,2.289-.707,3.8,3.8,0,0,1,2.413.71,2.239,2.239,0,0,1,.9,1.846h-2.117a1.024,1.024,0,0,0-.293-.751,1.24,1.24,0,0,0-.916-.3,1.267,1.267,0,0,0-.828.242.763.763,0,0,0-.293.615.652.652,0,0,0,.333.568,3.428,3.428,0,0,0,1.124.374,9.183,9.183,0,0,1,1.333.355,2.19,2.19,0,0,1,1.677,2.131,2.067,2.067,0,0,1-.93,1.754,4.013,4.013,0,0,1-2.4.67,4.191,4.191,0,0,1-1.769-.355,2.968,2.968,0,0,1-1.212-.974,2.263,2.263,0,0,1-.439-1.337h2.007a1.105,1.105,0,0,0,.417.864,1.656,1.656,0,0,0,1.04.3,1.533,1.533,0,0,0,.919-.231A.718.718,0,0,0,104.246,12.81ZM3.772,27l1.465-4.929H7.507L4.321,31.23l-.176.417A2.416,2.416,0,0,1,1.8,33.2a3.33,3.33,0,0,1-.937-.139v-1.6l.322.007a1.741,1.741,0,0,0,.9-.183,1.2,1.2,0,0,0,.465-.608l.249-.652L.022,22.075H2.3Zm11.953,3.142a3.89,3.89,0,0,1-2.838-1.069,3.8,3.8,0,0,1-1.095-2.849v-.205a4.787,4.787,0,0,1,.461-2.135,3.386,3.386,0,0,1,1.307-1.45,3.669,3.669,0,0,1,1.93-.509,3.289,3.289,0,0,1,2.56,1.025,4.167,4.167,0,0,1,.934,2.908v.864H13.938a1.966,1.966,0,0,0,.619,1.245,1.871,1.871,0,0,0,1.307.469,2.285,2.285,0,0,0,1.912-.886l1.04,1.165a3.178,3.178,0,0,1-1.289,1.051A4.229,4.229,0,0,1,15.725,30.146Zm-.242-6.511a1.323,1.323,0,0,0-1.022.427,2.209,2.209,0,0,0-.5,1.221H16.9v-.169a1.576,1.576,0,0,0-.381-1.092A1.365,1.365,0,0,0,15.483,23.635Zm8.994,4.175a.682.682,0,0,0-.385-.612,4.368,4.368,0,0,0-1.234-.4q-2.827-.593-2.827-2.4a2.178,2.178,0,0,1,.875-1.761,3.531,3.531,0,0,1,2.289-.707,3.8,3.8,0,0,1,2.413.71,2.239,2.239,0,0,1,.9,1.846H24.4a1.024,1.024,0,0,0-.293-.751,1.24,1.24,0,0,0-.916-.3,1.267,1.267,0,0,0-.828.242.763.763,0,0,0-.293.615.652.652,0,0,0,.333.568,3.428,3.428,0,0,0,1.124.374,9.183,9.183,0,0,1,1.333.355,2.19,2.19,0,0,1,1.677,2.131,2.067,2.067,0,0,1-.93,1.754,4.013,4.013,0,0,1-2.4.67,4.191,4.191,0,0,1-1.769-.355,2.968,2.968,0,0,1-1.212-.974,2.263,2.263,0,0,1-.439-1.337H21.79a1.105,1.105,0,0,0,.417.864,1.656,1.656,0,0,0,1.04.3,1.533,1.533,0,0,0,.919-.231A.718.718,0,0,0,24.478,27.81Zm10.554-1.7a4.753,4.753,0,0,1-.831,2.933,2.665,2.665,0,0,1-2.245,1.1,2.469,2.469,0,0,1-1.941-.835v3.735H27.9V22.075h1.963l.073.776a2.488,2.488,0,0,1,2.007-.923,2.683,2.683,0,0,1,2.278,1.084A4.882,4.882,0,0,1,35.032,26Zm-2.117-.161a3.136,3.136,0,0,0-.392-1.712,1.275,1.275,0,0,0-1.139-.6,1.385,1.385,0,0,0-1.37.764v3.255a1.409,1.409,0,0,0,1.384.786Q32.915,28.44,32.915,25.949Zm7.075,4.2a3.89,3.89,0,0,1-2.838-1.069,3.8,3.8,0,0,1-1.095-2.849v-.205a4.787,4.787,0,0,1,.461-2.135,3.386,3.386,0,0,1,1.307-1.45,3.669,3.669,0,0,1,1.93-.509,3.289,3.289,0,0,1,2.56,1.025,4.167,4.167,0,0,1,.934,2.908v.864H38.2a1.966,1.966,0,0,0,.619,1.245,1.871,1.871,0,0,0,1.307.469,2.285,2.285,0,0,0,1.912-.886l1.04,1.165a3.178,3.178,0,0,1-1.289,1.051A4.229,4.229,0,0,1,39.99,30.146Zm-.242-6.511a1.323,1.323,0,0,0-1.022.427,2.209,2.209,0,0,0-.5,1.221h2.944v-.169a1.576,1.576,0,0,0-.381-1.092A1.365,1.365,0,0,0,39.749,23.635Zm8,4.8a1.388,1.388,0,0,0,.952-.322,1.129,1.129,0,0,0,.381-.857h1.985a2.715,2.715,0,0,1-.439,1.476,2.9,2.9,0,0,1-1.183,1.04,3.7,3.7,0,0,1-1.659.37,3.44,3.44,0,0,1-2.681-1.08,4.275,4.275,0,0,1-.981-2.985v-.139A4.226,4.226,0,0,1,45.1,23.02a3.4,3.4,0,0,1,2.673-1.091,3.333,3.333,0,0,1,2.384.846,3,3,0,0,1,.912,2.252H49.08a1.455,1.455,0,0,0-.381-1.005,1.416,1.416,0,0,0-2.084.153,3.125,3.125,0,0,0-.377,1.749v.22a3.164,3.164,0,0,0,.374,1.761A1.291,1.291,0,0,0,47.747,28.44ZM54.507,30H52.383V22.075h2.124Zm-2.249-9.976a1.042,1.042,0,0,1,.319-.784,1.373,1.373,0,0,1,1.732,0,1.118,1.118,0,0,1,0,1.575,1.358,1.358,0,0,1-1.721,0A1.039,1.039,0,0,1,52.258,20.024ZM60.842,30a2.351,2.351,0,0,1-.212-.71,2.561,2.561,0,0,1-2,.857,2.814,2.814,0,0,1-1.93-.674,2.167,2.167,0,0,1-.765-1.7,2.24,2.24,0,0,1,.934-1.934,4.608,4.608,0,0,1,2.7-.681h.974V24.7a1.306,1.306,0,0,0-.282-.879,1.109,1.109,0,0,0-.89-.33,1.261,1.261,0,0,0-.839.256.871.871,0,0,0-.3.7H56.111a2.126,2.126,0,0,1,.425-1.274,2.808,2.808,0,0,1,1.2-.919,4.378,4.378,0,0,1,1.743-.333,3.459,3.459,0,0,1,2.325.736,2.575,2.575,0,0,1,.861,2.069v3.435a3.789,3.789,0,0,0,.315,1.707V30Zm-1.75-1.472a1.823,1.823,0,0,0,.864-.209,1.371,1.371,0,0,0,.586-.56V26.4h-.791q-1.589,0-1.692,1.1l-.007.125a.847.847,0,0,0,.278.652A1.081,1.081,0,0,0,59.092,28.528ZM66.526,30H64.4V18.75h2.124ZM70.5,30H68.379V22.075H70.5Zm-2.249-9.976a1.042,1.042,0,0,1,.319-.784,1.373,1.373,0,0,1,1.732,0,1.118,1.118,0,0,1,0,1.575,1.358,1.358,0,0,1-1.721,0A1.039,1.039,0,0,1,68.254,20.024Zm3.662,5.955a4.776,4.776,0,0,1,.831-2.952,2.7,2.7,0,0,1,2.274-1.1,2.427,2.427,0,0,1,1.912.864V18.75h2.124V30H77.146l-.1-.842a2.491,2.491,0,0,1-2.036.989,2.69,2.69,0,0,1-2.245-1.1A4.93,4.93,0,0,1,71.917,25.979Zm2.117.151a3.146,3.146,0,0,0,.388,1.714,1.263,1.263,0,0,0,1.128.6,1.416,1.416,0,0,0,1.384-.831V24.467a1.4,1.4,0,0,0-1.37-.831Q74.033,23.635,74.033,26.13ZM85.291,30a2.351,2.351,0,0,1-.212-.71,2.561,2.561,0,0,1-2,.857,2.814,2.814,0,0,1-1.93-.674,2.167,2.167,0,0,1-.765-1.7,2.24,2.24,0,0,1,.934-1.934,4.608,4.608,0,0,1,2.7-.681h.974V24.7a1.306,1.306,0,0,0-.282-.879,1.109,1.109,0,0,0-.89-.33,1.261,1.261,0,0,0-.839.256.871.871,0,0,0-.3.7H80.559a2.126,2.126,0,0,1,.425-1.274,2.808,2.808,0,0,1,1.2-.919,4.378,4.378,0,0,1,1.743-.333,3.459,3.459,0,0,1,2.325.736,2.575,2.575,0,0,1,.861,2.069v3.435a3.789,3.789,0,0,0,.315,1.707V30Zm-1.75-1.472a1.823,1.823,0,0,0,.864-.209,1.371,1.371,0,0,0,.586-.56V26.4H84.2q-1.589,0-1.692,1.1l-.007.125a.847.847,0,0,0,.278.652A1.081,1.081,0,0,0,83.54,28.528Zm4.871-2.549a4.776,4.776,0,0,1,.831-2.952,2.7,2.7,0,0,1,2.274-1.1,2.427,2.427,0,0,1,1.912.864V18.75h2.124V30H93.64l-.1-.842a2.491,2.491,0,0,1-2.036.989,2.69,2.69,0,0,1-2.245-1.1A4.93,4.93,0,0,1,88.411,25.979Zm2.117.151a3.146,3.146,0,0,0,.388,1.714,1.263,1.263,0,0,0,1.128.6,1.416,1.416,0,0,0,1.384-.831V24.467a1.4,1.4,0,0,0-1.37-.831Q90.527,23.635,90.527,26.13Zm10.313,4.017A3.89,3.89,0,0,1,98,29.077a3.8,3.8,0,0,1-1.095-2.849v-.205a4.787,4.787,0,0,1,.461-2.135,3.386,3.386,0,0,1,1.307-1.45,3.669,3.669,0,0,1,1.93-.509,3.289,3.289,0,0,1,2.56,1.025,4.167,4.167,0,0,1,.934,2.908v.864H99.053a1.966,1.966,0,0,0,.619,1.245,1.871,1.871,0,0,0,1.307.469,2.285,2.285,0,0,0,1.912-.886l1.04,1.165a3.178,3.178,0,0,1-1.289,1.051A4.229,4.229,0,0,1,100.84,30.146Zm-.242-6.511a1.323,1.323,0,0,0-1.022.427,2.209,2.209,0,0,0-.5,1.221h2.944v-.169a1.576,1.576,0,0,0-.381-1.092A1.365,1.365,0,0,0,100.6,23.635Zm8.994,4.175a.682.682,0,0,0-.385-.612,4.368,4.368,0,0,0-1.234-.4q-2.827-.593-2.827-2.4a2.178,2.178,0,0,1,.875-1.761,3.531,3.531,0,0,1,2.289-.707,3.8,3.8,0,0,1,2.413.71,2.239,2.239,0,0,1,.9,1.846h-2.117a1.024,1.024,0,0,0-.293-.751,1.24,1.24,0,0,0-.916-.3,1.267,1.267,0,0,0-.828.242.763.763,0,0,0-.293.615.652.652,0,0,0,.333.568,3.428,3.428,0,0,0,1.124.374,9.183,9.183,0,0,1,1.333.355,2.19,2.19,0,0,1,1.677,2.131,2.067,2.067,0,0,1-.93,1.754,4.013,4.013,0,0,1-2.4.67,4.191,4.191,0,0,1-1.769-.355,2.968,2.968,0,0,1-1.212-.974,2.263,2.263,0,0,1-.439-1.337H106.9a1.105,1.105,0,0,0,.417.864,1.656,1.656,0,0,0,1.04.3,1.533,1.533,0,0,0,.919-.231A.718.718,0,0,0,109.592,27.81Zm7.068-1.978a10.666,10.666,0,0,1-.476,3.186,8.648,8.648,0,0,1-1.37,2.7,4.935,4.935,0,0,1-1.912,1.611l-.41-1.121a5.15,5.15,0,0,0,1.641-2.417,11.192,11.192,0,0,0,.623-3.757v-.388a11.445,11.445,0,0,0-.6-3.86,5.369,5.369,0,0,0-1.666-2.5l.41-1.121a4.936,4.936,0,0,1,1.879,1.567,8.537,8.537,0,0,1,1.37,2.644,10.59,10.59,0,0,1,.509,3.127Z" transform="translate(-14450 -3557.657)" fill="#fff"/>
    <g id="Grupo_79450" data-name="Grupo 79450" transform="translate(-14481.971 -5188.109)">
      <path id="Trazado_108989" data-name="Trazado 108989" d="M62.973,1593.972v-6.823q0-11.872,0-23.744c0-2.254,1.169-3.42,3.428-3.42,5.811,0,11.622-.009,17.433.015.555,0,.8-.174.857-.693a3.169,3.169,0,0,1,.087-.428,1.143,1.143,0,0,0-.538-1.526,2.657,2.657,0,0,1-1.1-1.571,12.385,12.385,0,0,1-.13-2.975.888.888,0,0,1,.951-.818c.309-.016.619,0,1.01,0v-.7q0-4,0-8c0-.975.334-1.3,1.323-1.3q3.718,0,7.436,0c.89,0,1.236.355,1.238,1.26q.005,4,0,8v.74c.359,0,.665-.014.97,0a.983.983,0,0,1,1.022,1.029c.021.708.038,1.418-.005,2.124a2.88,2.88,0,0,1-1.579,2.459.532.532,0,0,0-.322.631c.194,1.749.184,1.75,1.894,1.75l16.683,0a3.029,3.029,0,0,1,3.332,3.33q0,14.934,0,29.867v.8c.675,0,1.294-.007,1.913,0a2,2,0,0,1,2.083,2.086c.01,1.125.065,2.255-.029,3.373a4.959,4.959,0,0,1-5.014,4.534c-3.791.017-7.582.005-11.372,0l-40.114,0c-3.38,0-5.45-2.067-5.451-5.442,0-.833-.01-1.666,0-2.5a1.986,1.986,0,0,1,2.048-2.054C61.647,1593.962,62.269,1593.972,62.973,1593.972Zm47.958-27.95H99.547c.59.97.566,1.175-.174,2q-4.159,4.619-8.315,9.242c-.868.965-1.312.967-2.17.012q-4.114-4.576-8.226-9.154a2.274,2.274,0,0,1-.639-.962,3.045,3.045,0,0,1,.266-1.138H69.017v23.925h41.913Zm8.019,30a1.582,1.582,0,0,0-.238-.047q-10.871,0-21.742.013a.833.833,0,0,0-.581.4c-.5.934-.967,1.888-1.427,2.844a1.187,1.187,0,0,1-1.184.739q-3.811-.015-7.622,0a1.18,1.18,0,0,1-1.18-.741c-.431-.9-.914-1.776-1.322-2.686a.867.867,0,0,0-.936-.593q-10.527.029-21.055.013h-.689c0,.921,0,1.752,0,2.583,0,2.242,1.18,3.415,3.435,3.415h39.985q5.717,0,11.433,0a2.98,2.98,0,0,0,3.111-2.785C119,1598.145,118.95,1597.1,118.95,1596.021Zm-53.977-2.084h49.962c.008-.151.021-.272.021-.393q0-15.181,0-30.362c0-.864-.376-1.2-1.3-1.2q-8.371,0-16.743,0c-.176,0-.351.016-.648.03.383.525.714.945,1.008,1.392a1.243,1.243,0,0,0,1.187.589c4.352-.027,8.7-.016,13.057-.013,1.151,0,1.436.292,1.436,1.439q0,12.557,0,25.115c0,1.148-.291,1.44-1.436,1.44H68.417c-1.153,0-1.445-.288-1.445-1.429q0-12.558,0-25.115c0-1.158.285-1.448,1.424-1.449q6.591,0,13.182,0c.22,0,.532.021.643-.1.495-.566.932-1.183,1.474-1.891h-.8l-16.556,0c-1.056,0-1.359.308-1.359,1.384q0,14.9,0,29.8Zm23.994-19.571c0-1.757-.015-3.333.01-4.91a.854.854,0,0,0-.51-.917,2.927,2.927,0,0,1-1.436-3.187,3,3,0,0,1,5.676-.6,2.716,2.716,0,0,1-.8,3.425,2.063,2.063,0,0,0-.949,2.208c.034,1.1.006,2.207.009,3.31,0,.174.02.347.038.631l6.659-7.4c-2.4-2.569-4.416-5.292-4.639-8.913H86.894c-.207,3.655-2.259,6.36-4.623,8.914Zm3.955-22.411v-7.92H87v7.92ZM84.974,1554c0,.366-.017.676,0,.984a.966.966,0,0,0,1,.985q3.99.024,7.979,0a.965.965,0,0,0,1-.979c.022-.323,0-.648,0-.99Zm9.349,42.005H85.607c.307.614.563,1.179.874,1.712a.667.667,0,0,0,.5.237q3,.026,5.991,0a.61.61,0,0,0,.463-.2C93.748,1597.208,94.015,1596.628,94.323,1596.008Zm-4.353-31.027a1,1,0,1,0,.992.984A1,1,0,0,0,89.969,1564.981Z" transform="translate(0)" fill="#fff"/>
      <path id="Trazado_108990" data-name="Trazado 108990" d="M111.253,1626.388c4.084-1.185,6.892-5.1,7.338-10.274h1.985a13.169,13.169,0,0,1-5.987,10.921h5.977c0-.32-.012-.624,0-.928a.976.976,0,0,1,1.013-1.037q2-.029,4,.005a.948.948,0,0,1,.977,1q.031,1.968,0,3.936c-.01.68-.413,1.038-1.134,1.044q-1.844.016-3.687,0c-.807-.007-1.156-.376-1.17-1.2,0-.245,0-.49,0-.792h-1.851c-2.249,0-4.5.008-6.748-.013a.636.636,0,0,0-.714.49,3.924,3.924,0,0,1-3.685,2.516,4.027,4.027,0,0,1-3.709-2.5c-.085-.2-.328-.47-.5-.471-2.894-.029-5.788-.021-8.784-.021,0,.3.006.585,0,.864a1.015,1.015,0,0,1-1.113,1.134c-1.249.013-2.5.01-3.749,0a1,1,0,0,1-1.135-1.109q-.021-1.906,0-3.811a.99.99,0,0,1,1.1-1.073c1.187-.011,2.374,0,3.561,0,1.011,0,1.324.323,1.331,1.355,0,.186,0,.371,0,.6h5.951a13.209,13.209,0,0,1-5.968-10.91h2a11.1,11.1,0,0,0,2.888,7.366,10.518,10.518,0,0,0,4.428,2.916C106.185,1623.231,109.052,1623.228,111.253,1626.388Zm-3.658,3.672a2,2,0,1,0-2.021-1.958A2,2,0,0,0,107.6,1630.06Zm-15.062-1.025v-1.922H90.607v1.922Zm31.99,0v-1.922H122.6v1.922Z" transform="translate(-17.605 -44.091)" fill="#fff"/>
    </g>
  </g>
</svg>
