<svg xmlns="http://www.w3.org/2000/svg" xmlns:xlink="http://www.w3.org/1999/xlink" width="148" height="137.095" viewBox="0 0 148 137.095">
  <defs>
    <filter id="Elipse_4890" x="12.113" y="5.075" width="123.328" height="122.278" filterUnits="userSpaceOnUse">
      <feOffset input="SourceAlpha"/>
      <feGaussianBlur stdDeviation="3" result="blur"/>
      <feFlood flood-opacity="0.29"/>
      <feComposite operator="in" in2="blur"/>
      <feComposite in="SourceGraphic"/>
    </filter>
  </defs>
  <g id="Grupo_79510" data-name="Grupo 79510" transform="translate(14195.168 8717.925)">
    <g id="Grupo_79505" data-name="Grupo 79505">
      <rect id="Rectángulo_34272" data-name="Rectángulo 34272" width="148" height="90.709" rx="13" transform="translate(-14195.168 -8671.539)" fill="#f6f6f6"/>
      <path id="Trazado_134391" data-name="Trazado 134391" d="M663,1787.123a57.916,57.916,0,0,1,54.527,38.8h9.032a66.3,66.3,0,0,0-127.119,0h9.032A57.916,57.916,0,0,1,663,1787.123Z" transform="translate(-14784.439 -10496.425)" fill="#d57700"/>
      <g transform="matrix(1, 0, 0, 1, -14195.17, -8717.92)" filter="url(#Elipse_4890)">
        <ellipse id="Elipse_4890-2" data-name="Elipse 4890" cx="52.664" cy="52.139" rx="52.664" ry="52.139" transform="translate(21.11 14.08)" fill="#fc9d25"/>
      </g>
      <g id="image" transform="translate(-14147.854 -8673.816)">
        <path id="Trazado_134388" data-name="Trazado 134388" d="M48.718,7.189H45.4V5.665A5.671,5.671,0,0,0,39.732,0H5.664A5.671,5.671,0,0,0,0,5.665V30.747a5.671,5.671,0,0,0,5.665,5.665H8.386v1.524A5.671,5.671,0,0,0,14.051,43.6H48.718a5.671,5.671,0,0,0,5.665-5.665V12.854a5.671,5.671,0,0,0-5.665-5.665ZM5.665,2.266H39.732a3.4,3.4,0,0,1,3.4,3.4V24.5l-5.5-7.792a4.976,4.976,0,0,0-4.066-2.13h-.046a4.976,4.976,0,0,0-4.058,2.058l-6.638,9.063a2.76,2.76,0,0,1-3.77.664l-4.962-3.321a5.023,5.023,0,0,0-5.565-.021l-.024.016L2.266,27.372V5.665a3.4,3.4,0,0,1,3.4-3.4Zm-3.4,28.481v-.615L9.784,24.9a2.76,2.76,0,0,1,3.048.019l4.963,3.321a5.02,5.02,0,0,0,6.858-1.209l6.638-9.063a2.736,2.736,0,0,1,2.23-1.132h.026A2.735,2.735,0,0,1,35.78,18.01l7.351,10.415v1.2l.011,1.085a3.4,3.4,0,0,1-3.4,3.435H5.665a3.4,3.4,0,0,1-3.4-3.4Zm49.852,7.189a3.4,3.4,0,0,1-3.4,3.4H14.051a3.4,3.4,0,0,1-3.4-3.4V36.412H39.744a5.665,5.665,0,0,0,5.665-5.725L45.4,29.608V9.455h3.321a3.4,3.4,0,0,1,3.4,3.4Zm0,0" fill="#f6f6f6"/>
        <path id="Trazado_134389" data-name="Trazado 134389" d="M111.876,69.439a6.013,6.013,0,1,0-6.012-6.013A6.012,6.012,0,0,0,111.876,69.439Zm0-9.759a3.747,3.747,0,1,1-3.746,3.746A3.747,3.747,0,0,1,111.876,59.68Zm0,0" transform="translate(-93.87 -50.909)" fill="#f6f6f6"/>
      </g>
    </g>
  </g>
</svg>
