<svg xmlns="http://www.w3.org/2000/svg" xmlns:xlink="http://www.w3.org/1999/xlink" width="505" height="499" viewBox="0 0 505 499">
  <defs>
    <linearGradient id="linear-gradient" x1="-0.114" y1="0.638" x2="1.012" y2="0.385" gradientUnits="objectBoundingBox">
      <stop offset="0" stop-color="#fff"/>
      <stop offset="1" stop-color="#edfdfc"/>
    </linearGradient>
  </defs>
  <g id="Grupo_79461" data-name="Grupo 79461" transform="translate(9851 12602)">
    <path id="Trazado_134332" data-name="Trazado 134332" d="M0,0H505V499H0Z" transform="translate(-9851 -12602)" fill="none"/>
    <g id="Grupo_74588" data-name="Grupo 74588" transform="translate(-9809.999 -12498.184)">
      <rect id="Rectángulo_33041" data-name="Rectángulo 33041" width="200.167" height="395.183" rx="28" transform="translate(0 0)" fill="#afafaf"/>
      <path id="Trazado_110189" data-name="Trazado 110189" d="M309.505,462.743H161.661A26.162,26.162,0,0,0,135.5,488.906V831.765a26.161,26.161,0,0,0,26.161,26.161H309.505a26.162,26.162,0,0,0,26.163-26.161V488.906A26.162,26.162,0,0,0,309.505,462.743Zm25.587,369.022a25.615,25.615,0,0,1-25.585,25.587H161.661a25.617,25.617,0,0,1-25.587-25.587V488.906a25.617,25.617,0,0,1,25.587-25.589H309.507a25.616,25.616,0,0,1,25.585,25.589Z" transform="translate(-135.501 -462.743)" fill="url(#linear-gradient)"/>
      <path id="Trazado_110207" data-name="Trazado 110207" d="M21,0H366.534a21,21,0,0,1,21,21V171.516a21,21,0,0,1-21,21H21a21,21,0,0,1-21-21V21A21,21,0,0,1,21,0Z" transform="translate(196.341 3.825) rotate(90)" fill="#f6f6f6"/>
      <path id="Trazado_110190" data-name="Trazado 110190" d="M245.643,674.261H175.624a10.783,10.783,0,0,1-10.784-10.782h0A10.783,10.783,0,0,1,175.624,652.7h70.019a10.783,10.783,0,0,1,10.784,10.784h0A10.783,10.783,0,0,1,245.643,674.261Z" transform="translate(-110.55 -301.207)" fill="#e8e8e8"/>
      <path id="Trazado_110191" data-name="Trazado 110191" d="M307.749,464.81H159.9a22.363,22.363,0,0,0-22.336,22.338v33.866H330.084V487.148A22.361,22.361,0,0,0,307.749,464.81Z" transform="translate(-133.743 -460.985)" fill="#e8e8e8"/>
      <path id="Trazado_110192" data-name="Trazado 110192" d="M271.873,488.408H163a6.158,6.158,0,0,1-6.158-6.158h0A6.157,6.157,0,0,1,163,476.092H271.873a6.157,6.157,0,0,1,6.158,6.158h0A6.158,6.158,0,0,1,271.873,488.408Z" transform="translate(-117.353 -451.391)" fill="#fff"/>
    </g>
    <path id="Trazado_134333" data-name="Trazado 134333" d="M0,0H94.506V23.283H0Z" transform="translate(-9744 -12424.429)" fill="#fb8c00"/>
    <path id="Trazado_134334" data-name="Trazado 134334" d="M0,0H110.485V23.283H0Z" transform="translate(-9749 -12394)" fill="#fb8c00"/>
    <path id="Trazado_134335" data-name="Trazado 134335" d="M0,0H109.764V23.283H0Z" transform="translate(-9752.629 -12310.1)" fill="#b2ebf2"/>
    <g id="Grupo_74589" data-name="Grupo 74589" transform="translate(-9575.001 -12498.184)">
      <rect id="Rectángulo_33048" data-name="Rectángulo 33048" width="200.167" height="395.183" rx="28" transform="translate(0 0)" fill="#afafaf"/>
      <path id="Trazado_110195" data-name="Trazado 110195" d="M488.174,462.743H340.33a26.162,26.162,0,0,0-26.161,26.163V831.765a26.161,26.161,0,0,0,26.161,26.161H488.174a26.161,26.161,0,0,0,26.161-26.161V488.906A26.162,26.162,0,0,0,488.174,462.743Zm25.587,369.022a25.616,25.616,0,0,1-25.587,25.587H340.33a25.617,25.617,0,0,1-25.587-25.587V488.906a25.617,25.617,0,0,1,25.587-25.589H488.174a25.616,25.616,0,0,1,25.587,25.589Z" transform="translate(-314.168 -462.743)" fill="url(#linear-gradient)"/>
      <path id="Trazado_110206" data-name="Trazado 110206" d="M23,0H364.534a23,23,0,0,1,23,23V169.516a23,23,0,0,1-23,23H23a23,23,0,0,1-23-23V23A23,23,0,0,1,23,0Z" transform="translate(196.342 3.825) rotate(90)" fill="#f6f6f6"/>
      <path id="Trazado_110196" data-name="Trazado 110196" d="M424.312,674.261H354.291a10.783,10.783,0,0,1-10.782-10.782h0A10.783,10.783,0,0,1,354.291,652.7h70.021a10.783,10.783,0,0,1,10.782,10.784h0A10.783,10.783,0,0,1,424.312,674.261Z" transform="translate(-289.218 -301.207)" fill="#e8e8e8"/>
      <path id="Trazado_110197" data-name="Trazado 110197" d="M486.416,464.81H338.572a22.362,22.362,0,0,0-22.336,22.338v33.866H508.753V487.148A22.362,22.362,0,0,0,486.416,464.81Z" transform="translate(-312.411 -460.985)" fill="#e8e8e8"/>
      <path id="Trazado_110198" data-name="Trazado 110198" d="M450.542,488.408H341.667a6.158,6.158,0,0,1-6.158-6.158h0a6.157,6.157,0,0,1,6.158-6.158H450.542a6.157,6.157,0,0,1,6.158,6.158h0A6.158,6.158,0,0,1,450.542,488.408Z" transform="translate(-296.021 -451.391)" fill="#fff"/>
    </g>
    <g id="Grupo_74593" data-name="Grupo 74593" transform="translate(-10750.66 -12905)">
      <path id="Trazado_110194" data-name="Trazado 110194" d="M260.647,478.511H230.912l-20.226,18.859-21.554-18.859H160.726a13.3,13.3,0,0,1-13.3-13.3V406.847a13.3,13.3,0,0,1,13.3-13.294h99.922a13.3,13.3,0,0,1,13.3,13.294v58.368A13.3,13.3,0,0,1,260.647,478.511Z" transform="translate(830.231 -90.553)" fill="#fb8c00"/>
      <text id="App_Híbrida" data-name="App
Híbrida" transform="translate(1041 336)" fill="#fff" font-size="23" font-family="Roboto-Bold, Roboto" font-weight="700" style="isolation: isolate"><tspan x="-20.417" y="0">App</tspan><tspan x="-37.639" y="28">Híbrida</tspan></text>
    </g>
    <path id="Trazado_134336" data-name="Trazado 134336" d="M-12.277,0h-2.49V-5.18h-4.856V0h-2.49V-12.086h2.49v4.9h4.856v-4.9h2.49ZM-1.245-10.069h-3.7V0h-2.49V-10.069H-11.09v-2.017h9.845Zm4.673-2.017,3.1,8.766,3.088-8.766h3.271V0h-2.5V-3.3l.249-5.7L7.379,0H5.669L2.416-9,2.665-3.3V0H.174V-12.086ZM17.556-2h5.288V0H15.066V-12.086h2.49Z" transform="translate(-9697 -12406)" fill="#fff"/>
    <path id="Trazado_134337" data-name="Trazado 134337" d="M-31.9-11.375h2.344V-3.5a3.766,3.766,0,0,1-.48,1.918A3.261,3.261,0,0,1-31.395-.3a4.235,4.235,0,0,1-1.977.453,4.025,4.025,0,0,1-2.812-.918,3.335,3.335,0,0,1-1.008-2.6h2.359a1.829,1.829,0,0,0,.352,1.234,1.407,1.407,0,0,0,1.109.4,1.343,1.343,0,0,0,1.07-.461A1.948,1.948,0,0,0-31.9-3.5ZM-22.8,0a2.507,2.507,0,0,1-.227-.758A2.732,2.732,0,0,1-25.16.156a3,3,0,0,1-2.059-.719,2.312,2.312,0,0,1-.816-1.812,2.389,2.389,0,0,1,1-2.062,4.915,4.915,0,0,1,2.879-.727h1.039v-.484a1.393,1.393,0,0,0-.3-.937,1.183,1.183,0,0,0-.949-.352,1.345,1.345,0,0,0-.895.273.929.929,0,0,0-.324.75h-2.258a2.268,2.268,0,0,1,.453-1.359,3,3,0,0,1,1.281-.98,4.669,4.669,0,0,1,1.859-.355,3.689,3.689,0,0,1,2.48.785,2.747,2.747,0,0,1,.918,2.207v3.664a4.041,4.041,0,0,0,.336,1.82V0Zm-1.867-1.57a1.945,1.945,0,0,0,.922-.223,1.462,1.462,0,0,0,.625-.6V-3.844h-.844q-1.7,0-1.8,1.172l-.008.133a.9.9,0,0,0,.3.7A1.153,1.153,0,0,0-24.668-1.57Zm8.594-1.187,1.57-5.7h2.359L-15,0h-2.156L-20-8.453h2.359ZM-6.371,0A2.507,2.507,0,0,1-6.6-.758,2.732,2.732,0,0,1-8.73.156a3,3,0,0,1-2.059-.719,2.312,2.312,0,0,1-.816-1.812,2.389,2.389,0,0,1,1-2.062A4.915,4.915,0,0,1-7.73-5.164h1.039v-.484a1.393,1.393,0,0,0-.3-.937,1.183,1.183,0,0,0-.949-.352,1.345,1.345,0,0,0-.895.273.929.929,0,0,0-.324.75h-2.258a2.268,2.268,0,0,1,.453-1.359,3,3,0,0,1,1.281-.98,4.669,4.669,0,0,1,1.859-.355,3.689,3.689,0,0,1,2.48.785,2.747,2.747,0,0,1,.918,2.207v3.664A4.041,4.041,0,0,0-4.09-.133V0ZM-8.238-1.57a1.945,1.945,0,0,0,.922-.223,1.462,1.462,0,0,0,.625-.6V-3.844h-.844q-1.7,0-1.8,1.172l-.008.133a.9.9,0,0,0,.3.7A1.153,1.153,0,0,0-8.238-1.57ZM1.887-2.336a.727.727,0,0,0-.41-.652A4.659,4.659,0,0,0,.16-3.414q-3.016-.633-3.016-2.562a2.323,2.323,0,0,1,.934-1.879A3.766,3.766,0,0,1,.52-8.609a4.053,4.053,0,0,1,2.574.758,2.388,2.388,0,0,1,.965,1.969H1.8a1.092,1.092,0,0,0-.312-.8A1.322,1.322,0,0,0,.512-7a1.351,1.351,0,0,0-.883.258.814.814,0,0,0-.312.656.7.7,0,0,0,.355.605,3.657,3.657,0,0,0,1.2.4A9.8,9.8,0,0,1,2.293-4.7,2.336,2.336,0,0,1,4.082-2.43,2.2,2.2,0,0,1,3.09-.559,4.28,4.28,0,0,1,.527.156,4.47,4.47,0,0,1-1.359-.223,3.166,3.166,0,0,1-2.652-1.262a2.414,2.414,0,0,1-.469-1.426H-.98a1.179,1.179,0,0,0,.445.922,1.766,1.766,0,0,0,1.109.32,1.635,1.635,0,0,0,.98-.246A.766.766,0,0,0,1.887-2.336Zm7.164.672a1.481,1.481,0,0,0,1.016-.344,1.2,1.2,0,0,0,.406-.914H12.59a2.9,2.9,0,0,1-.469,1.574A3.093,3.093,0,0,1,10.859-.238,3.949,3.949,0,0,1,9.09.156,3.67,3.67,0,0,1,6.23-1,4.56,4.56,0,0,1,5.184-4.18v-.148A4.508,4.508,0,0,1,6.223-7.445,3.627,3.627,0,0,1,9.074-8.609a3.555,3.555,0,0,1,2.543.9,3.2,3.2,0,0,1,.973,2.4H10.473a1.551,1.551,0,0,0-.406-1.072,1.354,1.354,0,0,0-1.031-.412,1.36,1.36,0,0,0-1.191.575,3.333,3.333,0,0,0-.4,1.866v.235a3.375,3.375,0,0,0,.4,1.878A1.377,1.377,0,0,0,9.051-1.664Zm9.578-4.672a6.134,6.134,0,0,0-.812-.062,1.654,1.654,0,0,0-1.68.867V0H13.879V-8.453h2.133l.063,1.008a2.092,2.092,0,0,1,1.883-1.164,2.366,2.366,0,0,1,.7.1ZM22.1,0H19.832V-8.453H22.1ZM19.7-10.641a1.112,1.112,0,0,1,.34-.836,1.277,1.277,0,0,1,.926-.328,1.28,1.28,0,0,1,.922.328,1.105,1.105,0,0,1,.344.836,1.108,1.108,0,0,1-.348.844,1.283,1.283,0,0,1-.918.328,1.283,1.283,0,0,1-.918-.328A1.108,1.108,0,0,1,19.7-10.641ZM31.566-4.148A5.07,5.07,0,0,1,30.68-1.02,2.843,2.843,0,0,1,28.285.156a2.633,2.633,0,0,1-2.07-.891V3.25H23.957v-11.7h2.094l.078.828a2.654,2.654,0,0,1,2.141-.984A2.862,2.862,0,0,1,30.7-7.453a5.207,5.207,0,0,1,.867,3.188Zm-2.258-.172a3.345,3.345,0,0,0-.418-1.826,1.36,1.36,0,0,0-1.215-.643,1.478,1.478,0,0,0-1.461.815V-2.5a1.5,1.5,0,0,0,1.477.839Q29.309-1.664,29.309-4.321Zm6.359-6.211v2.078h1.445V-6.8H35.668v4.219a1.007,1.007,0,0,0,.18.672.9.9,0,0,0,.688.2,3.6,3.6,0,0,0,.664-.055V-.047a4.648,4.648,0,0,1-1.367.2,2.156,2.156,0,0,1-2.422-2.4V-6.8H32.176V-8.453H33.41v-2.078Z" transform="translate(-9693 -12376)" fill="#fff"/>
    <g id="Grupo_74594" data-name="Grupo 74594" transform="translate(-10747.558 -12905)">
      <path id="Trazado_110193" data-name="Trazado 110193" d="M435.954,478.436H412.383L390.43,496.884l-25.2-18.448H338.113a14.279,14.279,0,0,1-14.279-14.279V407.832a14.278,14.278,0,0,1,14.279-14.279h97.84a14.278,14.278,0,0,1,14.279,14.279v56.324A14.279,14.279,0,0,1,435.954,478.436Z" transform="translate(884.724 -90.553)" fill="#1565c0"/>
      <text id="App_Natavia" data-name="App
Natavia" transform="translate(1270 336)" fill="#fff" font-size="23" font-family="Roboto-Bold, Roboto" font-weight="700" style="isolation: isolate"><tspan x="-20.417" y="0">App</tspan><tspan x="-39.279" y="28">Natavia</tspan></text>
    </g>
    <path id="Trazado_134338" data-name="Trazado 134338" d="M-38.773-3.315A3.522,3.522,0,0,1-39.959-.786a4.165,4.165,0,0,1-2.82.923,3.745,3.745,0,0,1-3.011-1.289,5.284,5.284,0,0,1-1.1-3.538V-5.3a5.966,5.966,0,0,1,.506-2.529,3.791,3.791,0,0,1,1.446-1.678,4.05,4.05,0,0,1,2.184-.584,4.058,4.058,0,0,1,2.775.923A3.785,3.785,0,0,1-38.76-6.576h-2.051a2.079,2.079,0,0,0-.537-1.4,1.987,1.987,0,0,0-1.4-.434,1.742,1.742,0,0,0-1.535.735,4.118,4.118,0,0,0-.523,2.28v.752a4.408,4.408,0,0,0,.489,2.358,1.71,1.71,0,0,0,1.542.745,2.025,2.025,0,0,0,1.418-.434,1.961,1.961,0,0,0,.537-1.343ZM-33.271,0a2.194,2.194,0,0,1-.2-.663,2.39,2.39,0,0,1-1.866.8,2.626,2.626,0,0,1-1.8-.629,2.023,2.023,0,0,1-.714-1.586,2.09,2.09,0,0,1,.872-1.8,4.3,4.3,0,0,1,2.519-.636h.909v-.424a1.219,1.219,0,0,0-.263-.82,1.035,1.035,0,0,0-.831-.308,1.177,1.177,0,0,0-.783.239.813.813,0,0,0-.284.656h-1.976a1.984,1.984,0,0,1,.4-1.189,2.621,2.621,0,0,1,1.121-.858,4.086,4.086,0,0,1,1.627-.311,3.228,3.228,0,0,1,2.17.687,2.4,2.4,0,0,1,.8,1.931v3.206a3.536,3.536,0,0,0,.294,1.593V0ZM-34.9-1.374a1.7,1.7,0,0,0,.807-.195,1.28,1.28,0,0,0,.547-.523V-3.363h-.738q-1.483,0-1.579,1.025l-.007.116a.791.791,0,0,0,.26.608A1.009,1.009,0,0,0-34.9-1.374Zm9.01-4.17a5.367,5.367,0,0,0-.711-.055,1.447,1.447,0,0,0-1.47.759V0h-1.976V-7.4h1.866l.055.882a1.831,1.831,0,0,1,1.647-1.019,2.07,2.07,0,0,1,.615.089ZM-22-1.456a1.3,1.3,0,0,0,.889-.3,1.054,1.054,0,0,0,.355-.8H-18.9a2.534,2.534,0,0,1-.41,1.377,2.706,2.706,0,0,1-1.1.971,3.455,3.455,0,0,1-1.548.345,3.211,3.211,0,0,1-2.5-1.008,3.99,3.99,0,0,1-.916-2.786v-.13a3.944,3.944,0,0,1,.909-2.728,3.174,3.174,0,0,1,2.5-1.019,3.111,3.111,0,0,1,2.225.79,2.8,2.8,0,0,1,.851,2.1h-1.853a1.358,1.358,0,0,0-.355-.938,1.185,1.185,0,0,0-.9-.361,1.19,1.19,0,0,0-1.042.5A2.916,2.916,0,0,0-23.406-3.8V-3.6a2.953,2.953,0,0,0,.349,1.643A1.2,1.2,0,0,0-22-1.456ZM-13.487,0a2.194,2.194,0,0,1-.2-.663,2.39,2.39,0,0,1-1.866.8,2.626,2.626,0,0,1-1.8-.629,2.023,2.023,0,0,1-.714-1.586,2.09,2.09,0,0,1,.872-1.8,4.3,4.3,0,0,1,2.519-.636h.909v-.424a1.219,1.219,0,0,0-.263-.82,1.035,1.035,0,0,0-.831-.308,1.177,1.177,0,0,0-.783.239.813.813,0,0,0-.284.656H-17.9a1.984,1.984,0,0,1,.4-1.189,2.621,2.621,0,0,1,1.121-.858,4.086,4.086,0,0,1,1.627-.311,3.228,3.228,0,0,1,2.17.687,2.4,2.4,0,0,1,.8,1.931v3.206a3.536,3.536,0,0,0,.294,1.593V0Zm-1.634-1.374a1.7,1.7,0,0,0,.807-.195,1.28,1.28,0,0,0,.547-.523V-3.363h-.738q-1.483,0-1.579,1.025l-.007.116a.791.791,0,0,0,.26.608A1.009,1.009,0,0,0-15.121-1.374Zm8.859-.67a.637.637,0,0,0-.359-.571,4.077,4.077,0,0,0-1.152-.373q-2.639-.554-2.639-2.242a2.032,2.032,0,0,1,.817-1.644,3.3,3.3,0,0,1,2.136-.66,3.547,3.547,0,0,1,2.252.663,2.09,2.09,0,0,1,.844,1.723H-6.337a.956.956,0,0,0-.273-.7,1.157,1.157,0,0,0-.854-.277,1.182,1.182,0,0,0-.772.226.712.712,0,0,0-.273.574A.609.609,0,0,0-8.2-4.8a3.2,3.2,0,0,0,1.049.349,8.571,8.571,0,0,1,1.244.332A2.044,2.044,0,0,1-4.341-2.126,1.929,1.929,0,0,1-5.209-.489,3.745,3.745,0,0,1-7.451.137,3.912,3.912,0,0,1-9.1-.195,2.77,2.77,0,0,1-10.233-1.1a2.113,2.113,0,0,1-.41-1.248h1.873a1.031,1.031,0,0,0,.39.807,1.546,1.546,0,0,0,.971.28,1.43,1.43,0,0,0,.858-.215A.67.67,0,0,0-6.262-2.044ZM1.217,0a2.194,2.194,0,0,1-.2-.663,2.39,2.39,0,0,1-1.866.8,2.626,2.626,0,0,1-1.8-.629,2.023,2.023,0,0,1-.714-1.586,2.09,2.09,0,0,1,.872-1.8A4.3,4.3,0,0,1,.027-4.519H.937v-.424a1.219,1.219,0,0,0-.263-.82A1.035,1.035,0,0,0-.157-6.07a1.177,1.177,0,0,0-.783.239.813.813,0,0,0-.284.656H-3.2a1.984,1.984,0,0,1,.4-1.189,2.621,2.621,0,0,1,1.121-.858A4.086,4.086,0,0,1-.055-7.533a3.228,3.228,0,0,1,2.17.687,2.4,2.4,0,0,1,.8,1.931v3.206A3.536,3.536,0,0,0,3.213-.116V0ZM-.417-1.374A1.7,1.7,0,0,0,.39-1.569a1.28,1.28,0,0,0,.547-.523V-3.363H.2q-1.483,0-1.579,1.025l-.007.116a.791.791,0,0,0,.26.608A1.009,1.009,0,0,0-.417-1.374ZM16.146,0H14.1L10.1-6.549V0H8.053V-9.953H10.1l4,6.563V-9.953h2.044Zm5.947,0a2.194,2.194,0,0,1-.2-.663,2.39,2.39,0,0,1-1.866.8,2.626,2.626,0,0,1-1.8-.629,2.023,2.023,0,0,1-.714-1.586,2.09,2.09,0,0,1,.872-1.8A4.3,4.3,0,0,1,20.9-4.519h.909v-.424a1.219,1.219,0,0,0-.263-.82,1.035,1.035,0,0,0-.831-.308,1.177,1.177,0,0,0-.783.239.813.813,0,0,0-.284.656H17.678a1.984,1.984,0,0,1,.4-1.189A2.621,2.621,0,0,1,19.2-7.222a4.086,4.086,0,0,1,1.627-.311,3.228,3.228,0,0,1,2.17.687,2.4,2.4,0,0,1,.8,1.931v3.206A3.536,3.536,0,0,0,24.09-.116V0ZM20.46-1.374a1.7,1.7,0,0,0,.807-.195,1.28,1.28,0,0,0,.547-.523V-3.363h-.738q-1.483,0-1.579,1.025l-.007.116a.791.791,0,0,0,.26.608A1.009,1.009,0,0,0,20.46-1.374Zm7.219-7.841V-7.4h1.265v1.449H27.679v3.691a.881.881,0,0,0,.157.588.79.79,0,0,0,.6.178,3.151,3.151,0,0,0,.581-.048v1.5a4.067,4.067,0,0,1-1.2.178,1.886,1.886,0,0,1-2.119-2.1V-5.947h-1.08V-7.4H25.7V-9.215ZM32.129,0H30.146V-7.4h1.982Zm-2.1-9.311a.973.973,0,0,1,.3-.731,1.117,1.117,0,0,1,.81-.287,1.12,1.12,0,0,1,.807.287.967.967,0,0,1,.3.731.97.97,0,0,1-.3.738,1.122,1.122,0,0,1-.8.287,1.122,1.122,0,0,1-.8-.287A.97.97,0,0,1,30.03-9.311Zm6.494,6.9L37.9-7.4h2.064L37.468,0H35.581l-2.5-7.4H35.15ZM45.015,0a2.194,2.194,0,0,1-.2-.663,2.39,2.39,0,0,1-1.866.8,2.626,2.626,0,0,1-1.8-.629,2.023,2.023,0,0,1-.714-1.586,2.09,2.09,0,0,1,.872-1.8,4.3,4.3,0,0,1,2.519-.636h.909v-.424a1.219,1.219,0,0,0-.263-.82,1.035,1.035,0,0,0-.831-.308,1.177,1.177,0,0,0-.783.239.813.813,0,0,0-.284.656H40.6A1.984,1.984,0,0,1,41-6.364a2.621,2.621,0,0,1,1.121-.858,4.086,4.086,0,0,1,1.627-.311,3.228,3.228,0,0,1,2.17.687,2.4,2.4,0,0,1,.8,1.931v3.206a3.536,3.536,0,0,0,.294,1.593V0ZM43.381-1.374a1.7,1.7,0,0,0,.807-.195,1.28,1.28,0,0,0,.547-.523V-3.363H44q-1.483,0-1.579,1.025l-.007.116a.791.791,0,0,0,.26.608A1.009,1.009,0,0,0,43.381-1.374Z" transform="translate(-9698.353 -12291.718)" fill="#12263f"/>
    <path id="Trazado_134339" data-name="Trazado 134339" d="M-21.075-2.8a1.128,1.128,0,0,0-.439-.956,5.764,5.764,0,0,0-1.582-.7,11.215,11.215,0,0,1-1.809-.729A2.956,2.956,0,0,1-26.722-7.83a2.575,2.575,0,0,1,.487-1.542,3.177,3.177,0,0,1,1.4-1.058,5.265,5.265,0,0,1,2.047-.381,4.793,4.793,0,0,1,2.036.414,3.242,3.242,0,0,1,1.388,1.168,3.057,3.057,0,0,1,.494,1.714h-2.2a1.438,1.438,0,0,0-.461-1.139,1.9,1.9,0,0,0-1.3-.406,2.026,2.026,0,0,0-1.252.341,1.074,1.074,0,0,0-.447.9A1.029,1.029,0,0,0-24-6.951a5.916,5.916,0,0,0,1.542.659,6.661,6.661,0,0,1,2.732,1.4,2.786,2.786,0,0,1,.857,2.08A2.566,2.566,0,0,1-19.918-.641a4.585,4.585,0,0,1-2.82.787A5.445,5.445,0,0,1-24.979-.3a3.546,3.546,0,0,1-1.542-1.234,3.161,3.161,0,0,1-.531-1.816h2.2q0,1.765,2.109,1.765a2.052,2.052,0,0,0,1.223-.319A1.037,1.037,0,0,0-21.075-2.8ZM-15.289,0h-2.124V-7.925h2.124Zm-2.249-9.976a1.042,1.042,0,0,1,.319-.784,1.2,1.2,0,0,1,.868-.308,1.2,1.2,0,0,1,.864.308,1.036,1.036,0,0,1,.322.784,1.039,1.039,0,0,1-.326.791,1.2,1.2,0,0,1-.861.308,1.2,1.2,0,0,1-.861-.308A1.039,1.039,0,0,1-17.538-9.976ZM-9.254-2.19A.682.682,0,0,0-9.639-2.8a4.368,4.368,0,0,0-1.234-.4Q-13.7-3.794-13.7-5.6a2.178,2.178,0,0,1,.875-1.761,3.531,3.531,0,0,1,2.289-.707,3.8,3.8,0,0,1,2.413.71,2.239,2.239,0,0,1,.9,1.846H-9.335a1.024,1.024,0,0,0-.293-.751,1.24,1.24,0,0,0-.916-.3,1.267,1.267,0,0,0-.828.242.763.763,0,0,0-.293.615.652.652,0,0,0,.333.568,3.428,3.428,0,0,0,1.124.374,9.183,9.183,0,0,1,1.333.355A2.19,2.19,0,0,1-7.2-2.278a2.067,2.067,0,0,1-.93,1.754,4.013,4.013,0,0,1-2.4.67A4.191,4.191,0,0,1-12.3-.209a2.968,2.968,0,0,1-1.212-.974,2.263,2.263,0,0,1-.439-1.337h2.007a1.105,1.105,0,0,0,.417.864,1.656,1.656,0,0,0,1.04.3,1.533,1.533,0,0,0,.919-.231A.718.718,0,0,0-9.254-2.19ZM-3.3-9.873v1.948h1.355v1.553H-3.3v3.955a.944.944,0,0,0,.168.63.846.846,0,0,0,.645.19,3.376,3.376,0,0,0,.623-.051v1.6a4.358,4.358,0,0,1-1.282.19A2.021,2.021,0,0,1-5.416-2.1v-4.27H-6.573V-7.925h1.157V-9.873ZM2.882.146A3.89,3.89,0,0,1,.044-.923,3.8,3.8,0,0,1-1.051-3.772v-.205A4.787,4.787,0,0,1-.59-6.112,3.386,3.386,0,0,1,.718-7.562a3.669,3.669,0,0,1,1.93-.509,3.289,3.289,0,0,1,2.56,1.025,4.167,4.167,0,0,1,.934,2.908v.864H1.095a1.966,1.966,0,0,0,.619,1.245,1.871,1.871,0,0,0,1.307.469,2.285,2.285,0,0,0,1.912-.886l1.04,1.165A3.178,3.178,0,0,1,4.684-.231,4.229,4.229,0,0,1,2.882.146ZM2.64-6.365a1.323,1.323,0,0,0-1.022.427,2.209,2.209,0,0,0-.5,1.221H4.061v-.169A1.576,1.576,0,0,0,3.68-5.979,1.365,1.365,0,0,0,2.64-6.365Zm6.687-1.56.066.886a2.785,2.785,0,0,1,2.278-1.033,2.114,2.114,0,0,1,2.1,1.208,2.721,2.721,0,0,1,2.38-1.208,2.364,2.364,0,0,1,1.919.751,3.451,3.451,0,0,1,.63,2.26V0H16.578V-5.065a1.515,1.515,0,0,0-.264-.987,1.167,1.167,0,0,0-.93-.312,1.321,1.321,0,0,0-1.318.91L14.073,0H11.957V-5.058a1.5,1.5,0,0,0-.271-1,1.178,1.178,0,0,0-.923-.308,1.371,1.371,0,0,0-1.3.749V0H7.343V-7.925ZM24.921,0a2.351,2.351,0,0,1-.212-.71,2.561,2.561,0,0,1-2,.857,2.814,2.814,0,0,1-1.93-.674,2.167,2.167,0,0,1-.765-1.7,2.24,2.24,0,0,1,.934-1.934,4.608,4.608,0,0,1,2.7-.681h.974V-5.3a1.306,1.306,0,0,0-.282-.879,1.109,1.109,0,0,0-.89-.33,1.261,1.261,0,0,0-.839.256.871.871,0,0,0-.3.7H20.189a2.126,2.126,0,0,1,.425-1.274,2.808,2.808,0,0,1,1.2-.919,4.378,4.378,0,0,1,1.743-.333,3.459,3.459,0,0,1,2.325.736,2.575,2.575,0,0,1,.861,2.069v3.435a3.789,3.789,0,0,0,.315,1.707V0ZM23.17-1.472a1.823,1.823,0,0,0,.864-.209,1.371,1.371,0,0,0,.586-.56V-3.6h-.791q-1.589,0-1.692,1.1l-.007.125a.847.847,0,0,0,.278.652A1.081,1.081,0,0,0,23.17-1.472ZM-31.179,12.964a4.7,4.7,0,0,1,.454-2.1,3.324,3.324,0,0,1,1.307-1.428,3.814,3.814,0,0,1,1.981-.505,3.609,3.609,0,0,1,2.618.981,3.939,3.939,0,0,1,1.132,2.666l.015.542a4.142,4.142,0,0,1-1.018,2.926,3.539,3.539,0,0,1-2.732,1.1,3.556,3.556,0,0,1-2.736-1.1,4.215,4.215,0,0,1-1.022-2.988Zm2.117.15a2.962,2.962,0,0,0,.425,1.727,1.4,1.4,0,0,0,1.216.6,1.4,1.4,0,0,0,1.2-.591,3.241,3.241,0,0,0,.432-1.889,2.933,2.933,0,0,0-.432-1.716,1.4,1.4,0,0,0-1.216-.609,1.382,1.382,0,0,0-1.2.605A3.3,3.3,0,0,0-29.062,13.115Zm13.828,0a4.753,4.753,0,0,1-.831,2.933,2.665,2.665,0,0,1-2.245,1.1,2.469,2.469,0,0,1-1.941-.835v3.735h-2.117V9.075h1.963l.073.776a2.488,2.488,0,0,1,2.007-.923,2.683,2.683,0,0,1,2.278,1.084A4.882,4.882,0,0,1-15.234,13Zm-2.117-.161a3.136,3.136,0,0,0-.392-1.712,1.275,1.275,0,0,0-1.139-.6,1.385,1.385,0,0,0-1.37.764v3.255a1.409,1.409,0,0,0,1.384.786Q-17.351,15.44-17.351,12.949Zm7.075,4.2a3.89,3.89,0,0,1-2.838-1.069,3.8,3.8,0,0,1-1.095-2.849v-.205a4.787,4.787,0,0,1,.461-2.135,3.386,3.386,0,0,1,1.307-1.45,3.669,3.669,0,0,1,1.93-.509A3.289,3.289,0,0,1-7.95,9.954a4.167,4.167,0,0,1,.934,2.908v.864h-5.046a1.966,1.966,0,0,0,.619,1.245,1.871,1.871,0,0,0,1.307.469,2.285,2.285,0,0,0,1.912-.886l1.04,1.165a3.178,3.178,0,0,1-1.289,1.051A4.229,4.229,0,0,1-10.276,17.146Zm-.242-6.511a1.323,1.323,0,0,0-1.022.427,2.209,2.209,0,0,0-.5,1.221H-9.1v-.169a1.576,1.576,0,0,0-.381-1.092A1.365,1.365,0,0,0-10.518,10.635Zm9.155.425A5.751,5.751,0,0,0-2.124,11a1.55,1.55,0,0,0-1.575.813V17H-5.815V9.075h2l.059.945A1.961,1.961,0,0,1-1.992,8.929a2.218,2.218,0,0,1,.659.1ZM4.028,17a2.351,2.351,0,0,1-.212-.71,2.561,2.561,0,0,1-2,.857,2.814,2.814,0,0,1-1.93-.674,2.167,2.167,0,0,1-.765-1.7A2.24,2.24,0,0,1,.055,12.84a4.608,4.608,0,0,1,2.7-.681h.974V11.7a1.306,1.306,0,0,0-.282-.879,1.109,1.109,0,0,0-.89-.33,1.261,1.261,0,0,0-.839.256.871.871,0,0,0-.3.7H-.7a2.126,2.126,0,0,1,.425-1.274,2.808,2.808,0,0,1,1.2-.919,4.378,4.378,0,0,1,1.743-.333,3.459,3.459,0,0,1,2.325.736,2.575,2.575,0,0,1,.861,2.069v3.435a3.789,3.789,0,0,0,.315,1.707V17Zm-1.75-1.472a1.823,1.823,0,0,0,.864-.209,1.371,1.371,0,0,0,.586-.56V13.4H2.937q-1.589,0-1.692,1.1l-.007.125a.847.847,0,0,0,.278.652A1.081,1.081,0,0,0,2.278,15.528Zm7.734-8.4V9.075h1.355v1.553H10.012v3.955a.944.944,0,0,0,.168.63.846.846,0,0,0,.645.19,3.376,3.376,0,0,0,.623-.051v1.6a4.358,4.358,0,0,1-1.282.19A2.021,2.021,0,0,1,7.9,14.9v-4.27H6.738V9.075H7.9V7.127ZM14.78,17H12.656V9.075H14.78ZM12.532,7.024a1.042,1.042,0,0,1,.319-.784,1.373,1.373,0,0,1,1.732,0,1.118,1.118,0,0,1,0,1.575,1.358,1.358,0,0,1-1.721,0A1.039,1.039,0,0,1,12.532,7.024Zm6.958,7.39,1.472-5.339h2.212L20.5,17H18.479L15.806,9.075h2.212Zm4.175-1.45a4.7,4.7,0,0,1,.454-2.1,3.324,3.324,0,0,1,1.307-1.428,3.814,3.814,0,0,1,1.981-.505,3.609,3.609,0,0,1,2.618.981,3.939,3.939,0,0,1,1.132,2.666l.015.542a4.142,4.142,0,0,1-1.018,2.926,3.539,3.539,0,0,1-2.732,1.1,3.556,3.556,0,0,1-2.736-1.1,4.215,4.215,0,0,1-1.022-2.988Zm2.117.15a2.962,2.962,0,0,0,.425,1.727,1.526,1.526,0,0,0,2.417.007,3.241,3.241,0,0,0,.432-1.889,2.933,2.933,0,0,0-.432-1.716,1.4,1.4,0,0,0-1.216-.609,1.382,1.382,0,0,0-1.2.605A3.3,3.3,0,0,0,25.781,13.115Z" transform="translate(-9508.769 -12230.78)" fill="#12263f"/>
    <path id="Trazado_134340" data-name="Trazado 134340" d="M-21.075-2.8a1.128,1.128,0,0,0-.439-.956,5.764,5.764,0,0,0-1.582-.7,11.215,11.215,0,0,1-1.809-.729A2.956,2.956,0,0,1-26.722-7.83a2.575,2.575,0,0,1,.487-1.542,3.177,3.177,0,0,1,1.4-1.058,5.265,5.265,0,0,1,2.047-.381,4.793,4.793,0,0,1,2.036.414,3.242,3.242,0,0,1,1.388,1.168,3.057,3.057,0,0,1,.494,1.714h-2.2a1.438,1.438,0,0,0-.461-1.139,1.9,1.9,0,0,0-1.3-.406,2.026,2.026,0,0,0-1.252.341,1.074,1.074,0,0,0-.447.9A1.029,1.029,0,0,0-24-6.951a5.916,5.916,0,0,0,1.542.659,6.661,6.661,0,0,1,2.732,1.4,2.786,2.786,0,0,1,.857,2.08A2.566,2.566,0,0,1-19.918-.641a4.585,4.585,0,0,1-2.82.787A5.445,5.445,0,0,1-24.979-.3a3.546,3.546,0,0,1-1.542-1.234,3.161,3.161,0,0,1-.531-1.816h2.2q0,1.765,2.109,1.765a2.052,2.052,0,0,0,1.223-.319A1.037,1.037,0,0,0-21.075-2.8ZM-15.289,0h-2.124V-7.925h2.124Zm-2.249-9.976a1.042,1.042,0,0,1,.319-.784,1.2,1.2,0,0,1,.868-.308,1.2,1.2,0,0,1,.864.308,1.036,1.036,0,0,1,.322.784,1.039,1.039,0,0,1-.326.791,1.2,1.2,0,0,1-.861.308,1.2,1.2,0,0,1-.861-.308A1.039,1.039,0,0,1-17.538-9.976ZM-9.254-2.19A.682.682,0,0,0-9.639-2.8a4.368,4.368,0,0,0-1.234-.4Q-13.7-3.794-13.7-5.6a2.178,2.178,0,0,1,.875-1.761,3.531,3.531,0,0,1,2.289-.707,3.8,3.8,0,0,1,2.413.71,2.239,2.239,0,0,1,.9,1.846H-9.335a1.024,1.024,0,0,0-.293-.751,1.24,1.24,0,0,0-.916-.3,1.267,1.267,0,0,0-.828.242.763.763,0,0,0-.293.615.652.652,0,0,0,.333.568,3.428,3.428,0,0,0,1.124.374,9.183,9.183,0,0,1,1.333.355A2.19,2.19,0,0,1-7.2-2.278a2.067,2.067,0,0,1-.93,1.754,4.013,4.013,0,0,1-2.4.67A4.191,4.191,0,0,1-12.3-.209a2.968,2.968,0,0,1-1.212-.974,2.263,2.263,0,0,1-.439-1.337h2.007a1.105,1.105,0,0,0,.417.864,1.656,1.656,0,0,0,1.04.3,1.533,1.533,0,0,0,.919-.231A.718.718,0,0,0-9.254-2.19ZM-3.3-9.873v1.948h1.355v1.553H-3.3v3.955a.944.944,0,0,0,.168.63.846.846,0,0,0,.645.19,3.376,3.376,0,0,0,.623-.051v1.6a4.358,4.358,0,0,1-1.282.19A2.021,2.021,0,0,1-5.416-2.1v-4.27H-6.573V-7.925h1.157V-9.873ZM2.882.146A3.89,3.89,0,0,1,.044-.923,3.8,3.8,0,0,1-1.051-3.772v-.205A4.787,4.787,0,0,1-.59-6.112,3.386,3.386,0,0,1,.718-7.562a3.669,3.669,0,0,1,1.93-.509,3.289,3.289,0,0,1,2.56,1.025,4.167,4.167,0,0,1,.934,2.908v.864H1.095a1.966,1.966,0,0,0,.619,1.245,1.871,1.871,0,0,0,1.307.469,2.285,2.285,0,0,0,1.912-.886l1.04,1.165A3.178,3.178,0,0,1,4.684-.231,4.229,4.229,0,0,1,2.882.146ZM2.64-6.365a1.323,1.323,0,0,0-1.022.427,2.209,2.209,0,0,0-.5,1.221H4.061v-.169A1.576,1.576,0,0,0,3.68-5.979,1.365,1.365,0,0,0,2.64-6.365Zm6.687-1.56.066.886a2.785,2.785,0,0,1,2.278-1.033,2.114,2.114,0,0,1,2.1,1.208,2.721,2.721,0,0,1,2.38-1.208,2.364,2.364,0,0,1,1.919.751,3.451,3.451,0,0,1,.63,2.26V0H16.578V-5.065a1.515,1.515,0,0,0-.264-.987,1.167,1.167,0,0,0-.93-.312,1.321,1.321,0,0,0-1.318.91L14.073,0H11.957V-5.058a1.5,1.5,0,0,0-.271-1,1.178,1.178,0,0,0-.923-.308,1.371,1.371,0,0,0-1.3.749V0H7.343V-7.925ZM24.921,0a2.351,2.351,0,0,1-.212-.71,2.561,2.561,0,0,1-2,.857,2.814,2.814,0,0,1-1.93-.674,2.167,2.167,0,0,1-.765-1.7,2.24,2.24,0,0,1,.934-1.934,4.608,4.608,0,0,1,2.7-.681h.974V-5.3a1.306,1.306,0,0,0-.282-.879,1.109,1.109,0,0,0-.89-.33,1.261,1.261,0,0,0-.839.256.871.871,0,0,0-.3.7H20.189a2.126,2.126,0,0,1,.425-1.274,2.808,2.808,0,0,1,1.2-.919,4.378,4.378,0,0,1,1.743-.333,3.459,3.459,0,0,1,2.325.736,2.575,2.575,0,0,1,.861,2.069v3.435a3.789,3.789,0,0,0,.315,1.707V0ZM23.17-1.472a1.823,1.823,0,0,0,.864-.209,1.371,1.371,0,0,0,.586-.56V-3.6h-.791q-1.589,0-1.692,1.1l-.007.125a.847.847,0,0,0,.278.652A1.081,1.081,0,0,0,23.17-1.472ZM-31.179,12.964a4.7,4.7,0,0,1,.454-2.1,3.324,3.324,0,0,1,1.307-1.428,3.814,3.814,0,0,1,1.981-.505,3.609,3.609,0,0,1,2.618.981,3.939,3.939,0,0,1,1.132,2.666l.015.542a4.142,4.142,0,0,1-1.018,2.926,3.539,3.539,0,0,1-2.732,1.1,3.556,3.556,0,0,1-2.736-1.1,4.215,4.215,0,0,1-1.022-2.988Zm2.117.15a2.962,2.962,0,0,0,.425,1.727,1.4,1.4,0,0,0,1.216.6,1.4,1.4,0,0,0,1.2-.591,3.241,3.241,0,0,0,.432-1.889,2.933,2.933,0,0,0-.432-1.716,1.4,1.4,0,0,0-1.216-.609,1.382,1.382,0,0,0-1.2.605A3.3,3.3,0,0,0-29.062,13.115Zm13.828,0a4.753,4.753,0,0,1-.831,2.933,2.665,2.665,0,0,1-2.245,1.1,2.469,2.469,0,0,1-1.941-.835v3.735h-2.117V9.075h1.963l.073.776a2.488,2.488,0,0,1,2.007-.923,2.683,2.683,0,0,1,2.278,1.084A4.882,4.882,0,0,1-15.234,13Zm-2.117-.161a3.136,3.136,0,0,0-.392-1.712,1.275,1.275,0,0,0-1.139-.6,1.385,1.385,0,0,0-1.37.764v3.255a1.409,1.409,0,0,0,1.384.786Q-17.351,15.44-17.351,12.949Zm7.075,4.2a3.89,3.89,0,0,1-2.838-1.069,3.8,3.8,0,0,1-1.095-2.849v-.205a4.787,4.787,0,0,1,.461-2.135,3.386,3.386,0,0,1,1.307-1.45,3.669,3.669,0,0,1,1.93-.509A3.289,3.289,0,0,1-7.95,9.954a4.167,4.167,0,0,1,.934,2.908v.864h-5.046a1.966,1.966,0,0,0,.619,1.245,1.871,1.871,0,0,0,1.307.469,2.285,2.285,0,0,0,1.912-.886l1.04,1.165a3.178,3.178,0,0,1-1.289,1.051A4.229,4.229,0,0,1-10.276,17.146Zm-.242-6.511a1.323,1.323,0,0,0-1.022.427,2.209,2.209,0,0,0-.5,1.221H-9.1v-.169a1.576,1.576,0,0,0-.381-1.092A1.365,1.365,0,0,0-10.518,10.635Zm9.155.425A5.751,5.751,0,0,0-2.124,11a1.55,1.55,0,0,0-1.575.813V17H-5.815V9.075h2l.059.945A1.961,1.961,0,0,1-1.992,8.929a2.218,2.218,0,0,1,.659.1ZM4.028,17a2.351,2.351,0,0,1-.212-.71,2.561,2.561,0,0,1-2,.857,2.814,2.814,0,0,1-1.93-.674,2.167,2.167,0,0,1-.765-1.7A2.24,2.24,0,0,1,.055,12.84a4.608,4.608,0,0,1,2.7-.681h.974V11.7a1.306,1.306,0,0,0-.282-.879,1.109,1.109,0,0,0-.89-.33,1.261,1.261,0,0,0-.839.256.871.871,0,0,0-.3.7H-.7a2.126,2.126,0,0,1,.425-1.274,2.808,2.808,0,0,1,1.2-.919,4.378,4.378,0,0,1,1.743-.333,3.459,3.459,0,0,1,2.325.736,2.575,2.575,0,0,1,.861,2.069v3.435a3.789,3.789,0,0,0,.315,1.707V17Zm-1.75-1.472a1.823,1.823,0,0,0,.864-.209,1.371,1.371,0,0,0,.586-.56V13.4H2.937q-1.589,0-1.692,1.1l-.007.125a.847.847,0,0,0,.278.652A1.081,1.081,0,0,0,2.278,15.528Zm7.734-8.4V9.075h1.355v1.553H10.012v3.955a.944.944,0,0,0,.168.63.846.846,0,0,0,.645.19,3.376,3.376,0,0,0,.623-.051v1.6a4.358,4.358,0,0,1-1.282.19A2.021,2.021,0,0,1,7.9,14.9v-4.27H6.738V9.075H7.9V7.127ZM14.78,17H12.656V9.075H14.78ZM12.532,7.024a1.042,1.042,0,0,1,.319-.784,1.373,1.373,0,0,1,1.732,0,1.118,1.118,0,0,1,0,1.575,1.358,1.358,0,0,1-1.721,0A1.039,1.039,0,0,1,12.532,7.024Zm6.958,7.39,1.472-5.339h2.212L20.5,17H18.479L15.806,9.075h2.212Zm4.175-1.45a4.7,4.7,0,0,1,.454-2.1,3.324,3.324,0,0,1,1.307-1.428,3.814,3.814,0,0,1,1.981-.505,3.609,3.609,0,0,1,2.618.981,3.939,3.939,0,0,1,1.132,2.666l.015.542a4.142,4.142,0,0,1-1.018,2.926,3.539,3.539,0,0,1-2.732,1.1,3.556,3.556,0,0,1-2.736-1.1,4.215,4.215,0,0,1-1.022-2.988Zm2.117.15a2.962,2.962,0,0,0,.425,1.727,1.526,1.526,0,0,0,2.417.007,3.241,3.241,0,0,0,.432-1.889,2.933,2.933,0,0,0-.432-1.716,1.4,1.4,0,0,0-1.216-.609,1.382,1.382,0,0,0-1.2.605A3.3,3.3,0,0,0,25.781,13.115Z" transform="translate(-9756.479 -12195.154)" fill="#12263f"/>
    <path id="Trazado_110199" data-name="Trazado 110199" d="M362.086,525.565H296.571v159.6h43.975" transform="translate(-9883.208 -12907.5)" fill="none" stroke="#12263f" stroke-miterlimit="10" stroke-width="1"/>
    <path id="Trazado_110200" data-name="Trazado 110200" d="M379.893,686.858h93.885V523.572H440.24" transform="translate(-9833.688 -12909.195)" fill="none" stroke="#12263f" stroke-miterlimit="10" stroke-width="1"/>
    <path id="Trazado_110201" data-name="Trazado 110201" d="M239.294,599.436H289.4V508.892H235.072" transform="translate(-9891.771 -12921.68)" fill="none" stroke="#12263f" stroke-miterlimit="10" stroke-width="1"/>
    <path id="Trazado_110202" data-name="Trazado 110202" d="M191.086,523.572H147.43v34.78h43.656" transform="translate(-9935.541 -12904.66)" fill="none" stroke="#12263f" stroke-miterlimit="10" stroke-width="1"/>
    <path id="Trazado_110203" data-name="Trazado 110203" d="M244.905,564.388h47.019V693.231H174.641" transform="translate(-9894.291 -12874.487)" fill="none" stroke="#12263f" stroke-miterlimit="10" stroke-width="1"/>
    <path id="Trazado_110204" data-name="Trazado 110204" d="M191,550.291H116.039V705.22h22.582" transform="translate(-9933.627 -12886.474)" fill="none" stroke="#12263f" stroke-miterlimit="10" stroke-width="1"/>
    <path id="Trazado_134341" data-name="Trazado 134341" d="M0,0H94.506V23.283H0Z" transform="translate(-9745 -12356)" fill="#26aab7"/>
    <path id="Trazado_134342" data-name="Trazado 134342" d="M0,0H94.506V23.283H0Z" transform="translate(-9745 -12328)" fill="#26aab7"/>
    <path id="Trazado_134343" data-name="Trazado 134343" d="M-16.614-2.461l1.148-6.07h1.752L-15.606,0h-1.77l-1.389-5.707L-20.153,0h-1.77l-1.893-8.531h1.752l1.154,6.059L-19.5-8.531h1.488ZM-10.14.117A3.112,3.112,0,0,1-12.41-.738a3.041,3.041,0,0,1-.876-2.279v-.164a3.83,3.83,0,0,1,.369-1.708,2.709,2.709,0,0,1,1.046-1.16,2.936,2.936,0,0,1,1.544-.407,2.631,2.631,0,0,1,2.048.82,3.333,3.333,0,0,1,.747,2.326v.691h-4.037a1.573,1.573,0,0,0,.5,1,1.5,1.5,0,0,0,1.046.375A1.828,1.828,0,0,0-8.5-1.957l.832.932A2.542,2.542,0,0,1-8.7-.185,3.383,3.383,0,0,1-10.14.117Zm-.193-5.209a1.058,1.058,0,0,0-.817.341,1.768,1.768,0,0,0-.4.977H-9.2v-.135a1.261,1.261,0,0,0-.3-.874A1.092,1.092,0,0,0-10.333-5.092Zm9.475,1.98a3.839,3.839,0,0,1-.65,2.376A2.154,2.154,0,0,1-3.325.117,1.979,1.979,0,0,1-4.972-.674L-5.048,0H-6.571V-9h1.693v3.229a1.929,1.929,0,0,1,1.541-.686A2.172,2.172,0,0,1-1.518-5.6a3.845,3.845,0,0,1,.659,2.4ZM-2.552-3.24a2.536,2.536,0,0,0-.3-1.408,1.029,1.029,0,0,0-.908-.444,1.117,1.117,0,0,0-1.113.664v2.51a1.132,1.132,0,0,0,1.125.67,1.046,1.046,0,0,0,1.078-.811A4.2,4.2,0,0,0-2.552-3.24ZM2.493-2.068,3.671-6.34H5.44L3.3,0H1.685L-.454-6.34h1.77ZM7.972,0h-1.7V-6.34h1.7Zm-1.8-7.98a.834.834,0,0,1,.255-.627.958.958,0,0,1,.694-.246.96.96,0,0,1,.691.246.829.829,0,0,1,.258.627.831.831,0,0,1-.261.633.962.962,0,0,1-.688.246.962.962,0,0,1-.688-.246A.831.831,0,0,1,6.173-7.98Zm6.111,8.1a3.112,3.112,0,0,1-2.271-.855,3.041,3.041,0,0,1-.876-2.279v-.164A3.83,3.83,0,0,1,9.507-4.89a2.709,2.709,0,0,1,1.046-1.16A2.936,2.936,0,0,1,12.1-6.457a2.631,2.631,0,0,1,2.048.82,3.333,3.333,0,0,1,.747,2.326v.691H10.854a1.573,1.573,0,0,0,.5,1,1.5,1.5,0,0,0,1.046.375,1.828,1.828,0,0,0,1.529-.709l.832.932a2.542,2.542,0,0,1-1.031.841A3.383,3.383,0,0,1,12.284.117Zm-.193-5.209a1.058,1.058,0,0,0-.817.341,1.768,1.768,0,0,0-.4.977h2.355v-.135a1.261,1.261,0,0,0-.3-.874A1.092,1.092,0,0,0,12.091-5.092ZM21.366-2.3,22.2-6.34h1.635L22.216,0H20.8L19.6-3.99,18.4,0H16.983L15.366-6.34H17l.826,4.031,1.16-4.031h1.225Z" transform="translate(-9698 -12340)" fill="#fff"/>
    <path id="Trazado_134344" data-name="Trazado 134344" d="M-14.675-3.006V0h-1.758V-8.531H-13.1a3.85,3.85,0,0,1,1.69.352,2.591,2.591,0,0,1,1.122,1A2.786,2.786,0,0,1-9.9-5.707a2.45,2.45,0,0,1-.858,1.978,3.575,3.575,0,0,1-2.376.724Zm0-1.424h1.57a1.544,1.544,0,0,0,1.063-.328,1.193,1.193,0,0,0,.366-.937,1.407,1.407,0,0,0-.369-1.014,1.379,1.379,0,0,0-1.02-.4h-1.611ZM-7.017,0h-1.7V-9h1.7Zm5.191-.645A2.124,2.124,0,0,1-3.56.117,2,2,0,0,1-5.115-.469a2.5,2.5,0,0,1-.548-1.717V-6.34H-3.97v4.1q0,.991.9.991a1.223,1.223,0,0,0,1.184-.6V-6.34h1.7V0H-1.778ZM.847-3.217a3.716,3.716,0,0,1,.694-2.35,2.25,2.25,0,0,1,1.872-.891,1.973,1.973,0,0,1,1.623.715l.07-.6H6.642V-.211a2.71,2.71,0,0,1-.378,1.447A2.427,2.427,0,0,1,5.2,2.174,3.739,3.739,0,0,1,3.595,2.5a3.476,3.476,0,0,1-1.359-.278,2.413,2.413,0,0,1-1-.718L1.983.469a1.984,1.984,0,0,0,1.535.709A1.452,1.452,0,0,0,4.567.817,1.352,1.352,0,0,0,4.942-.205v-.34A1.959,1.959,0,0,1,3.4.117,2.244,2.244,0,0,1,1.553-.776a3.715,3.715,0,0,1-.706-2.37ZM2.54-3.1A2.326,2.326,0,0,0,2.886-1.74a1.1,1.1,0,0,0,.949.492,1.175,1.175,0,0,0,1.107-.583V-4.509a1.172,1.172,0,0,0-1.1-.583,1.106,1.106,0,0,0-.958.5A2.622,2.622,0,0,0,2.54-3.1ZM9.729,0H8.03V-6.34h1.7Zm-1.8-7.98a.834.834,0,0,1,.255-.627.958.958,0,0,1,.694-.246.96.96,0,0,1,.691.246.829.829,0,0,1,.258.627.831.831,0,0,1-.261.633A.962.962,0,0,1,8.88-7.1a.962.962,0,0,1-.688-.246A.831.831,0,0,1,7.931-7.98ZM12.683-6.34l.053.732a2.213,2.213,0,0,1,1.822-.85,1.84,1.84,0,0,1,1.5.592,2.761,2.761,0,0,1,.5,1.77V0H14.868V-4.064a1.1,1.1,0,0,0-.234-.784,1.048,1.048,0,0,0-.779-.244,1.164,1.164,0,0,0-1.072.611V0H11.089V-6.34Z" transform="translate(-9698 -12313)" fill="#fff"/>
    <path id="Trazado_110209" data-name="Trazado 110209" d="M421.009,523.572a30.232,30.232,0,0,0,8.547-4.756l-1.72,4.756,1.72,4.755A30.153,30.153,0,0,0,421.009,523.572Z" transform="translate(-10074.387 -12833.572)" fill="#12263f"/>
    <path id="Trazado_110211" data-name="Trazado 110211" d="M429.556,523.572a30.232,30.232,0,0,1-8.547-4.756l1.72,4.756-1.72,4.755A30.153,30.153,0,0,1,429.556,523.572Z" transform="translate(-10172.178 -12869.88)" fill="#12263f"/>
    <path id="Trazado_110210" data-name="Trazado 110210" d="M421.009,523.572a30.232,30.232,0,0,0,8.547-4.756l-1.72,4.756,1.72,4.755A30.153,30.153,0,0,0,421.009,523.572Z" transform="translate(-10082.934 -12936.358)" fill="#12263f"/>
    <path id="Trazado_134345" data-name="Trazado 134345" d="M0,0H114V58H0Z" transform="translate(-9516 -12405)" fill="#b2ebf2"/>
    <path id="Trazado_134346" data-name="Trazado 134346" d="M-8.457-2.93h-5.137L-14.57,0h-3.115l5.293-14.219h2.715L-4.355,0H-7.471ZM-12.8-5.3h3.555l-1.787-5.322ZM5.83-5.186A6.337,6.337,0,0,1,4.722-1.274,3.554,3.554,0,0,1,1.729.2,3.292,3.292,0,0,1-.859-.918v4.98H-3.682V-10.566h2.617l.1,1.035a3.317,3.317,0,0,1,2.676-1.23A3.578,3.578,0,0,1,4.746-9.316,6.509,6.509,0,0,1,5.83-5.332ZM3.008-5.4a4.182,4.182,0,0,0-.522-2.282,1.7,1.7,0,0,0-1.519-.8A1.847,1.847,0,0,0-.859-7.468v4.339A1.879,1.879,0,0,0,.986-2.08Q3.008-2.08,3.008-5.4Zm14.082.215a6.337,6.337,0,0,1-1.108,3.911A3.554,3.554,0,0,1,12.988.2,3.292,3.292,0,0,1,10.4-.918v4.98H7.578V-10.566H10.2l.1,1.035a3.317,3.317,0,0,1,2.676-1.23,3.578,3.578,0,0,1,3.037,1.445A6.509,6.509,0,0,1,17.09-5.332ZM14.268-5.4a4.182,4.182,0,0,0-.522-2.282,1.7,1.7,0,0,0-1.519-.8A1.847,1.847,0,0,0,10.4-7.468v4.339A1.879,1.879,0,0,0,12.246-2.08Q14.268-2.08,14.268-5.4ZM-21.323,23h-2.93l-5.7-9.355V23h-2.93V8.781h2.93l5.713,9.375V8.781h2.92Zm8.5,0a3.134,3.134,0,0,1-.283-.947A3.415,3.415,0,0,1-15.776,23.2a3.752,3.752,0,0,1-2.573-.9,2.89,2.89,0,0,1-1.021-2.266,2.986,2.986,0,0,1,1.245-2.578,6.144,6.144,0,0,1,3.6-.908h1.3v-.605a1.741,1.741,0,0,0-.376-1.172,1.479,1.479,0,0,0-1.187-.439,1.682,1.682,0,0,0-1.118.342,1.161,1.161,0,0,0-.405.938h-2.822a2.835,2.835,0,0,1,.566-1.7,3.744,3.744,0,0,1,1.6-1.226,5.837,5.837,0,0,1,2.324-.444,4.611,4.611,0,0,1,3.1.981A3.433,3.433,0,0,1-10.4,15.979v4.58a5.052,5.052,0,0,0,.42,2.275V23Zm-2.334-1.963a2.431,2.431,0,0,0,1.152-.278,1.828,1.828,0,0,0,.781-.747V18.2h-1.055q-2.119,0-2.256,1.465l-.01.166a1.13,1.13,0,0,0,.371.869A1.441,1.441,0,0,0-15.161,21.037Zm10.313-11.2v2.6h1.807V14.5H-4.849v5.273a1.259,1.259,0,0,0,.225.84,1.128,1.128,0,0,0,.859.254,4.5,4.5,0,0,0,.83-.068v2.139a5.81,5.81,0,0,1-1.709.254q-2.969,0-3.027-3V14.5H-9.214v-2.07h1.543v-2.6ZM4.653,23a3.134,3.134,0,0,1-.283-.947A3.415,3.415,0,0,1,1.7,23.2a3.752,3.752,0,0,1-2.573-.9A2.89,2.89,0,0,1-1.89,20.031,2.986,2.986,0,0,1-.645,17.453a6.144,6.144,0,0,1,3.6-.908h1.3v-.605a1.741,1.741,0,0,0-.376-1.172,1.479,1.479,0,0,0-1.187-.439,1.682,1.682,0,0,0-1.118.342,1.161,1.161,0,0,0-.405.938H-1.655a2.835,2.835,0,0,1,.566-1.7,3.744,3.744,0,0,1,1.6-1.226,5.837,5.837,0,0,1,2.324-.444,4.611,4.611,0,0,1,3.1.981,3.433,3.433,0,0,1,1.147,2.759v4.58a5.052,5.052,0,0,0,.42,2.275V23ZM2.319,21.037a2.431,2.431,0,0,0,1.152-.278,1.828,1.828,0,0,0,.781-.747V18.2H3.2Q1.079,18.2.942,19.66l-.01.166A1.13,1.13,0,0,0,1.3,20.7,1.441,1.441,0,0,0,2.319,21.037Zm10.742-1.484,1.963-7.119h2.949L14.409,23h-2.7L8.149,12.434H11.1ZM22.192,23H19.36V12.434h2.832Zm-3-13.3a1.39,1.39,0,0,1,.425-1.045,1.831,1.831,0,0,1,2.31,0,1.491,1.491,0,0,1,0,2.1,1.81,1.81,0,0,1-2.295,0A1.386,1.386,0,0,1,19.194,9.7ZM30.64,23a3.134,3.134,0,0,1-.283-.947A3.415,3.415,0,0,1,27.69,23.2a3.752,3.752,0,0,1-2.573-.9A2.89,2.89,0,0,1,24.1,20.031a2.986,2.986,0,0,1,1.245-2.578,6.144,6.144,0,0,1,3.6-.908h1.3v-.605a1.741,1.741,0,0,0-.376-1.172,1.479,1.479,0,0,0-1.187-.439,1.682,1.682,0,0,0-1.118.342,1.161,1.161,0,0,0-.405.938H24.331a2.835,2.835,0,0,1,.566-1.7,3.744,3.744,0,0,1,1.6-1.226,5.837,5.837,0,0,1,2.324-.444,4.611,4.611,0,0,1,3.1.981,3.433,3.433,0,0,1,1.147,2.759v4.58a5.052,5.052,0,0,0,.42,2.275V23Zm-2.334-1.963a2.431,2.431,0,0,0,1.152-.278,1.828,1.828,0,0,0,.781-.747V18.2H29.185q-2.119,0-2.256,1.465l-.01.166a1.13,1.13,0,0,0,.371.869A1.441,1.441,0,0,0,28.306,21.037Z" transform="translate(-9459 -12380)" fill="#12263f"/>
  </g>
</svg>
