<svg xmlns="http://www.w3.org/2000/svg" xmlns:xlink="http://www.w3.org/1999/xlink" width="258" height="209" viewBox="0 0 258 209">
  <defs>
    <clipPath id="clip-path">
      <rect id="Rect치ngulo_34271" data-name="Rect치ngulo 34271" width="258" height="209" transform="translate(725 2290.622)" fill="#fee2bf"/>
    </clipPath>
  </defs>
  <g id="Grupo_79602" data-name="Grupo 79602" transform="translate(14014 9409.378)">
    <g id="Grupo_79597" data-name="Grupo 79597">
      <rect id="Rect치ngulo_34270" data-name="Rect치ngulo 34270" width="258" height="209" transform="translate(-14014 -9409.378)" fill="#fee2bf"/>
      <g id="Enmascarar_grupo_140" data-name="Enmascarar grupo 140" transform="translate(-14739 -11700)" clip-path="url(#clip-path)">
        <g id="Grupo_79523" data-name="Grupo 79523" transform="translate(585.506 2099.869)">
          <path id="Trazado_134285" data-name="Trazado 134285" d="M454.722,270.659c-100.355-56-262.533-56-362.237,0s-99.18,146.8,1.175,202.8,262.54,56,362.249,0S555.083,326.663,454.722,270.659Z" transform="translate(0 22.314)" fill="#fddaae" opacity="0.999"/>
          <path id="Trazado_134286" data-name="Trazado 134286" d="M396.9,269.948c-18.386-10.615-48.1-10.615-66.364,0s-18.17,27.826.215,38.441,48.1,10.616,66.367,0S415.284,280.564,396.9,269.948Z" transform="translate(31.172 25.79)" fill="#f4d1a5"/>
          <path id="Trazado_134287" data-name="Trazado 134287" d="M181.254,400.521c-20.046-11.574-52.441-11.574-72.357,0s-19.811,30.339.235,41.913,52.442,11.574,72.36,0S201.3,412.1,181.254,400.521Z" transform="translate(7.925 39.335)" fill="#f4d1a5"/>
          <path id="Trazado_134288" data-name="Trazado 134288" d="M358.956,371.066c-14.078-8.128-36.829-8.128-50.815,0s-13.913,21.307.165,29.435,36.83,8.128,50.817,0S373.035,379.195,358.956,371.066Z" transform="translate(29.169 36.532)" fill="#f4d1a5"/>
          <path id="Trazado_134289" data-name="Trazado 134289" d="M52.337,336.13c-1.376.794-1.383,2.081-.017,2.874l11.134,6.47a5.469,5.469,0,0,0,4.964,0l231-133.37c1.376-.794,1.383-2.081.017-2.875l-11.134-6.47a5.47,5.47,0,0,0-4.964,0Z" transform="translate(3.469 19.551)" fill="#f4d1a5"/>
          <path id="Trazado_134290" data-name="Trazado 134290" d="M426.209,404.556c-19.034-10.99-49.8-10.99-68.707,0s-18.812,28.809.223,39.8,49.8,10.991,68.709,0S445.245,415.546,426.209,404.556Z" transform="translate(33.935 39.802)" fill="#f4d1a5"/>
          <path id="Trazado_134291" data-name="Trazado 134291" d="M303.671,270.384,135.906,367.659l-.007,0,68.31,38.563,167.771-96.286Z" transform="translate(12.293 26.666)" fill="#f4d1a5"/>
          <g id="Grupo_79425" data-name="Grupo 79425" transform="translate(359.917 27.738)">
            <g id="Grupo_79423" data-name="Grupo 79423" transform="translate(0 0)">
              <path id="Trazado_134292" data-name="Trazado 134292" d="M335.51,30.745l-7.419-4.236-.465,162.2.019.011,59.814,34.153.024-8.5.441-153.708Z" transform="translate(-327.626 -26.509)" fill="#f0f0f0"/>
              <path id="Trazado_134293" data-name="Trazado 134293" d="M335.069,184.453l.441-153.708-7.419-4.236-.465,162.2.019.011,7.452-4.255Z" transform="translate(-327.626 -26.509)" opacity="0.1"/>
              <path id="Trazado_134294" data-name="Trazado 134294" d="M387.481,199.461l-52.387-29.912-7.452,4.255,59.814,34.153Z" transform="translate(-327.624 -11.589)" opacity="0.2"/>
            </g>
            <g id="Grupo_79424" data-name="Grupo 79424" transform="translate(81.85 46.733)">
              <path id="Trazado_134295" data-name="Trazado 134295" d="M409.629,73.064l-7.419-4.236-.465,162.2.019.011L461.577,265.2l.025-8.5.441-153.708Z" transform="translate(-401.744 -68.828)" fill="#f0f0f0"/>
              <path id="Trazado_134296" data-name="Trazado 134296" d="M409.188,226.772l.441-153.708-7.419-4.236-.465,162.2.019.011,7.452-4.255Z" transform="translate(-401.744 -68.828)" opacity="0.1"/>
              <path id="Trazado_134297" data-name="Trazado 134297" d="M461.6,241.78l-52.387-29.912-7.452,4.255,59.814,34.154Z" transform="translate(-401.742 -53.908)" opacity="0.2"/>
            </g>
          </g>
          <g id="Grupo_79438" data-name="Grupo 79438" transform="translate(53.397 14.73)">
            <g id="Grupo_79427" data-name="Grupo 79427" transform="translate(227.683 0)">
              <g id="Grupo_79426" data-name="Grupo 79426" transform="translate(0 11.555)">
                <path id="Trazado_134298" data-name="Trazado 134298" d="M258.243,25.468a4.4,4.4,0,0,1,2,3.455c0,1.271-.9,1.783-2.009,1.145a4.394,4.394,0,0,1-1.994-3.456C256.238,25.342,257.137,24.83,258.243,25.468Z" transform="translate(-256.235 -25.193)" fill="#e0e0e0"/>
              </g>
              <path id="Trazado_134299" data-name="Trazado 134299" d="M280.046,18.37c0-.032,0-.064,0-.1l0-.044V18.21l0-.034c0-.033-.007-.065-.011-.1s-.009-.066-.014-.1v-.006c0-.032-.01-.064-.016-.1s-.014-.068-.022-.1l-.008-.036-.005-.022-.011-.046c-.009-.035-.018-.071-.028-.106l-.022-.077,0-.014,0-.014-.033-.1c-.011-.034-.023-.068-.035-.1l-.008-.019-.005-.015-.024-.064c-.012-.032-.025-.064-.039-.1l-.03-.07-.005-.012-.006-.013c-.014-.032-.029-.064-.044-.1s-.033-.071-.051-.1l-.009-.017-.01-.02-.043-.084c-.019-.034-.039-.068-.059-.1l-.029-.053-.012-.02c-.018-.03-.036-.059-.055-.088s-.052-.086-.079-.128l-.013-.02c-.041-.062-.083-.121-.126-.18h0c-.029-.04-.058-.078-.088-.117s-.05-.061-.075-.092v0h0c-.026-.031-.052-.061-.077-.091s-.052-.059-.078-.086l-.012-.013-.014-.014c-.019-.02-.036-.04-.055-.059s-.056-.056-.084-.083l-.027-.025-.02-.019L278.6,15.4c-.03-.028-.058-.053-.089-.078l-.039-.032-.021-.017-.029-.024c-.03-.022-.059-.045-.088-.066s-.043-.031-.064-.046l-.012-.008-.011-.008c-.028-.02-.056-.039-.085-.056l-.084-.052-.02-.012-.064-.035-.082-.042-.053-.025-.012-.006-.017-.008-.079-.034-.081-.03-.014,0-.012,0-.054-.018q-.041-.013-.083-.023l-.039-.009-.018,0-.025-.006c-.03-.006-.059-.011-.087-.014l-.053-.006-.019,0-.018,0c-.032,0-.063,0-.094,0h-.041l-.031,0h-.032a.974.974,0,0,0-.116.017h0l-.023.007a.964.964,0,0,0-.114.031l-.009,0a.837.837,0,0,0-.153.071L256.763,26.419a1.076,1.076,0,0,1,.153-.071,1.121,1.121,0,0,1,.123-.035l.024-.007a1.1,1.1,0,0,1,.149-.019h.032a1.179,1.179,0,0,1,.152,0h.018c.054.006.109.014.166.025l.018,0a1.638,1.638,0,0,1,.177.05l.012,0c.062.022.126.047.19.076l.013.007c.065.03.131.064.2.1s.135.082.2.127l.011.009c.062.043.122.088.182.137l.02.015c.057.047.115.1.17.149l.02.019c.056.053.113.108.167.166l.013.014q.086.093.169.192l0,0c.056.067.11.137.163.209h0c.049.065.094.133.139.2.028.042.054.085.081.128s.045.072.066.108l.03.052c.034.062.069.124.1.187l.011.021q.058.114.109.232l0,.012c.034.076.065.153.094.231l.005.015c.029.078.055.158.079.237l0,.014c.023.077.043.153.062.23l0,.022c.018.08.034.158.046.236v0c.013.08.022.158.029.235l0,.02c.005.077.009.155.009.231s0,.149-.01.22l0,.019a1.874,1.874,0,0,1-.028.187l0,.024c-.012.057-.027.114-.043.167l-.01.029c-.017.05-.035.1-.055.144l-.007.015a1.292,1.292,0,0,1-.081.146l-.012.017a1.05,1.05,0,0,1-.078.1l-.03.034q-.036.038-.076.073l-.032.028a.838.838,0,0,1-.116.081h0l19.865-11.555a1,1,0,0,0,.116-.081.347.347,0,0,0,.032-.028.935.935,0,0,0,.075-.073l.031-.033a1.052,1.052,0,0,0,.077-.1l.012-.018,0,0a1.454,1.454,0,0,0,.075-.137l0-.006.007-.015c.013-.03.028-.061.04-.093.006-.017.01-.033.015-.05l.01-.03.009-.027c.01-.033.019-.067.027-.1L280,18.91l.005-.024.007-.036c.006-.031.01-.063.014-.1l.006-.054,0-.02,0-.022c0-.031,0-.062.006-.094s0-.064,0-.1V18.46C280.048,18.431,280.047,18.4,280.046,18.37Z" transform="translate(-256.18 -14.73)" fill="#e6e6e6"/>
            </g>
            <g id="Grupo_79429" data-name="Grupo 79429" transform="translate(221.594 14.11)">
              <g id="Grupo_79428" data-name="Grupo 79428" transform="translate(0 194.237)">
                <path id="Trazado_134300" data-name="Trazado 134300" d="M266.664,212.109a14.536,14.536,0,0,1-13.189,0c-1.827-1.055-2.744-2.437-2.753-3.82h0v5.4c.009,1.381.927,2.764,2.753,3.82a14.535,14.535,0,0,0,13.189,0c1.816-1.056,2.718-2.438,2.71-3.82v-5.4C269.382,209.672,268.479,211.054,266.664,212.109Z" transform="translate(-250.722 -202.887)" fill="#e0e0e0"/>
                <path id="Trazado_134301" data-name="Trazado 134301" d="M253.475,212.619a14.536,14.536,0,0,0,13.189,0c1.815-1.055,2.718-2.437,2.71-3.82s-.925-2.765-2.753-3.82a14.535,14.535,0,0,0-13.189,0c-1.814,1.055-2.718,2.437-2.71,3.82S251.649,211.564,253.475,212.619Z" transform="translate(-250.722 -203.397)" fill="#f0f0f0"/>
              </g>
              <path id="Trazado_134302" data-name="Trazado 134302" d="M256.777,27.507V226.574h0a1.328,1.328,0,0,0,.78,1.081,4.114,4.114,0,0,0,3.733,0,1.308,1.308,0,0,0,.766-1.081V27.507Z" transform="translate(-250.09 -27.507)" fill="#e0e0e0"/>
            </g>
            <g id="Grupo_79433" data-name="Grupo 79433" transform="translate(18.027 6.448)">
              <g id="Grupo_79432" data-name="Grupo 79432">
                <path id="Trazado_134303" data-name="Trazado 134303" d="M66.383,145.407V345.115l210.45-121.289V23.475Z" transform="translate(-66.383 -20.266)" fill="#455a64"/>
                <path id="Trazado_134304" data-name="Trazado 134304" d="M66.383,145.407V345.115l210.45-121.289V23.475Z" transform="translate(-66.383 -20.266)" fill="#fff" opacity="0.1"/>
                <g id="Grupo_79431" data-name="Grupo 79431" transform="translate(0)">
                  <g id="Grupo_79430" data-name="Grupo 79430" transform="translate(0 122.148)">
                    <path id="Trazado_134305" data-name="Trazado 134305" d="M70.618,131.759a9.273,9.273,0,0,1,4.209,7.288c-.008,2.68-1.9,3.76-4.235,2.414a9.273,9.273,0,0,1-4.209-7.288C66.391,131.493,68.287,130.413,70.618,131.759Z" transform="translate(-66.383 -131.18)" fill="#37474f"/>
                  </g>
                  <path id="Trazado_134306" data-name="Trazado 134306" d="M286.014,28.247c0-.068-.005-.136-.01-.2,0-.031,0-.063-.008-.094l0-.04c0-.024,0-.049-.005-.072-.007-.07-.014-.138-.023-.208s-.019-.14-.03-.212v-.012c-.011-.067-.022-.134-.034-.2s-.029-.147-.045-.22c-.006-.027-.012-.052-.018-.078l-.011-.046c-.008-.032-.014-.064-.022-.1-.019-.074-.039-.149-.06-.223-.014-.055-.031-.109-.047-.163l-.009-.031-.009-.029q-.033-.109-.07-.219c-.024-.072-.05-.144-.075-.215l-.014-.039-.012-.033c-.018-.045-.034-.089-.051-.135q-.04-.1-.083-.205c-.02-.049-.042-.1-.063-.147L285.3,25.3l-.012-.029c-.03-.067-.061-.136-.093-.2s-.071-.149-.108-.223l-.017-.034-.023-.043c-.03-.059-.06-.118-.091-.177s-.082-.145-.123-.216c-.02-.036-.04-.074-.061-.11l-.025-.044c-.036-.062-.077-.123-.116-.184-.056-.091-.112-.182-.17-.271l-.026-.043c-.086-.129-.174-.255-.266-.38h0c-.062-.083-.124-.166-.188-.246-.052-.065-.1-.13-.157-.193l0-.006,0,0c-.053-.065-.107-.128-.162-.191s-.109-.123-.164-.182l-.028-.029-.029-.03q-.058-.063-.116-.123c-.059-.06-.118-.118-.178-.176l-.056-.052-.042-.04c-.03-.026-.059-.054-.087-.081-.062-.056-.125-.11-.188-.165-.028-.023-.056-.045-.084-.067l-.042-.035-.063-.051c-.061-.047-.123-.095-.184-.141-.045-.033-.09-.064-.136-.1l-.025-.018-.023-.017c-.06-.041-.119-.081-.179-.118s-.119-.074-.179-.109l-.042-.024c-.044-.027-.089-.052-.134-.075s-.116-.062-.173-.089l-.111-.053-.026-.012-.033-.015c-.056-.025-.113-.05-.169-.072s-.114-.044-.17-.064l-.029-.01-.025-.008c-.039-.013-.077-.027-.115-.038-.059-.019-.117-.034-.174-.049l-.083-.019-.036-.008-.054-.012c-.062-.012-.124-.022-.184-.031l-.112-.011-.039,0-.038,0q-.1-.007-.2-.007c-.029,0-.056,0-.085,0l-.066,0c-.022,0-.045,0-.067,0a2.2,2.2,0,0,0-.244.035h0c-.017,0-.033.01-.05.013a2.151,2.151,0,0,0-.241.066l-.018.009a2,2,0,0,0-.324.149L67.5,143a2,2,0,0,1,.324-.149,2.177,2.177,0,0,1,.258-.075c.017,0,.033-.01.05-.013a2.286,2.286,0,0,1,.316-.04c.022,0,.044,0,.066,0a2.624,2.624,0,0,1,.321.007l.039,0a3.124,3.124,0,0,1,.35.054l.036.008c.121.028.245.062.372.1l.025.009c.131.045.265.1.4.161l.028.012c.138.064.277.136.417.218s.284.172.423.268l.024.018q.2.136.384.288l.042.035q.182.149.359.313l.042.04c.119.113.236.229.35.35l.029.03q.184.2.357.4l0,0q.177.214.344.441v0c.1.137.2.278.293.422.059.088.115.18.17.27s.1.151.141.229c.021.036.041.074.061.11.074.13.146.261.213.393l.023.043c.081.162.158.325.23.489l.011.025c.07.161.136.325.2.487l.012.032q.091.252.168.5l.009.03q.073.242.129.484l.011.046c.038.167.071.334.1.5v.007q.04.25.06.5l0,.04c.013.165.02.328.02.488s-.009.315-.022.464l0,.04c-.013.137-.033.267-.057.394l-.01.05a3.549,3.549,0,0,1-.091.351l-.02.062c-.035.1-.075.205-.118.3l-.014.032a2.568,2.568,0,0,1-.169.308c-.008.012-.018.023-.025.035a2.547,2.547,0,0,1-.165.218c-.021.024-.043.048-.065.071a1.884,1.884,0,0,1-.158.154c-.023.02-.045.041-.068.06a2.143,2.143,0,0,1-.244.17h0L284.785,31.146a2.3,2.3,0,0,0,.244-.17c.023-.019.045-.04.068-.06a1.727,1.727,0,0,0,.158-.153c.022-.023.044-.046.065-.071a2.308,2.308,0,0,0,.163-.216c.009-.012.018-.023.027-.036l.006-.008a2.5,2.5,0,0,0,.159-.289l0-.01.014-.033c.029-.064.057-.128.083-.2.012-.034.023-.07.034-.1l.021-.062c.005-.019.013-.036.019-.055.02-.071.039-.142.056-.216.005-.025.01-.053.015-.08l.01-.05c.006-.027.011-.051.016-.077.012-.065.022-.133.03-.2.006-.038.009-.077.012-.116l0-.04.005-.049c0-.065.009-.131.012-.2s0-.135,0-.2v-.012C286.016,28.374,286.015,28.31,286.014,28.247Z" transform="translate(-66.267 -20.569)" fill="#37474f"/>
                  <path id="Trazado_134307" data-name="Trazado 134307" d="M286.014,28.247c0-.068-.005-.136-.01-.2,0-.031,0-.063-.008-.094l0-.04c0-.024,0-.049-.005-.072-.007-.07-.014-.138-.023-.208s-.019-.14-.03-.212v-.012c-.011-.067-.022-.134-.034-.2s-.029-.147-.045-.22c-.006-.027-.012-.052-.018-.078l-.011-.046c-.008-.032-.014-.064-.022-.1-.019-.074-.039-.149-.06-.223-.014-.055-.031-.109-.047-.163l-.009-.031-.009-.029q-.033-.109-.07-.219c-.024-.072-.05-.144-.075-.215l-.014-.039-.012-.033c-.018-.045-.034-.089-.051-.135q-.04-.1-.083-.205c-.02-.049-.042-.1-.063-.147L285.3,25.3l-.012-.029c-.03-.067-.061-.136-.093-.2s-.071-.149-.108-.223l-.017-.034-.023-.043c-.03-.059-.06-.118-.091-.177s-.082-.145-.123-.216c-.02-.036-.04-.074-.061-.11l-.025-.044c-.036-.062-.077-.123-.116-.184-.056-.091-.112-.182-.17-.271l-.026-.043c-.086-.129-.174-.255-.266-.38h0c-.062-.083-.124-.166-.188-.246-.052-.065-.1-.13-.157-.193l0-.006,0,0c-.053-.065-.107-.128-.162-.191s-.109-.123-.164-.182l-.028-.029-.029-.03q-.058-.063-.116-.123c-.059-.06-.118-.118-.178-.176l-.056-.052-.042-.04c-.03-.026-.059-.054-.087-.081-.062-.056-.125-.11-.188-.165-.028-.023-.056-.045-.084-.067l-.042-.035-.063-.051c-.061-.047-.123-.095-.184-.141-.045-.033-.09-.064-.136-.1l-.025-.018-.023-.017c-.06-.041-.119-.081-.179-.118s-.119-.074-.179-.109l-.042-.024c-.044-.027-.089-.052-.134-.075s-.116-.062-.173-.089l-.111-.053-.026-.012-.033-.015c-.056-.025-.113-.05-.169-.072s-.114-.044-.17-.064l-.029-.01-.025-.008c-.039-.013-.077-.027-.115-.038-.059-.019-.117-.034-.174-.049l-.083-.019-.036-.008-.054-.012c-.062-.012-.124-.022-.184-.031l-.112-.011-.039,0-.038,0q-.1-.007-.2-.007c-.029,0-.056,0-.085,0l-.066,0c-.022,0-.045,0-.067,0a2.2,2.2,0,0,0-.244.035h0c-.017,0-.033.01-.05.013a2.151,2.151,0,0,0-.241.066l-.018.009a2,2,0,0,0-.324.149L67.5,143a2,2,0,0,1,.324-.149,2.177,2.177,0,0,1,.258-.075c.017,0,.033-.01.05-.013a2.286,2.286,0,0,1,.316-.04c.022,0,.044,0,.066,0a2.624,2.624,0,0,1,.321.007l.039,0a3.124,3.124,0,0,1,.35.054l.036.008c.121.028.245.062.372.1l.025.009c.131.045.265.1.4.161l.028.012c.138.064.277.136.417.218s.284.172.423.268l.024.018q.2.136.384.288l.042.035q.182.149.359.313l.042.04c.119.113.236.229.35.35l.029.03q.184.2.357.4l0,0q.177.214.344.441v0c.1.137.2.278.293.422.059.088.115.18.17.27s.1.151.141.229c.021.036.041.074.061.11.074.13.146.261.213.393l.023.043c.081.162.158.325.23.489l.011.025c.07.161.136.325.2.487l.012.032q.091.252.168.5l.009.03q.073.242.129.484l.011.046c.038.167.071.334.1.5v.007q.04.25.06.5l0,.04c.013.165.02.328.02.488s-.009.315-.022.464l0,.04c-.013.137-.033.267-.057.394l-.01.05a3.549,3.549,0,0,1-.091.351l-.02.062c-.035.1-.075.205-.118.3l-.014.032a2.568,2.568,0,0,1-.169.308c-.008.012-.018.023-.025.035a2.547,2.547,0,0,1-.165.218c-.021.024-.043.048-.065.071a1.884,1.884,0,0,1-.158.154c-.023.02-.045.041-.068.06a2.143,2.143,0,0,1-.244.17h0L284.785,31.146a2.3,2.3,0,0,0,.244-.17c.023-.019.045-.04.068-.06a1.727,1.727,0,0,0,.158-.153c.022-.023.044-.046.065-.071a2.308,2.308,0,0,0,.163-.216c.009-.012.018-.023.027-.036l.006-.008a2.5,2.5,0,0,0,.159-.289l0-.01.014-.033c.029-.064.057-.128.083-.2.012-.034.023-.07.034-.1l.021-.062c.005-.019.013-.036.019-.055.02-.071.039-.142.056-.216.005-.025.01-.053.015-.08l.01-.05c.006-.027.011-.051.016-.077.012-.065.022-.133.03-.2.006-.038.009-.077.012-.116l0-.04.005-.049c0-.065.009-.131.012-.2s0-.135,0-.2v-.012C286.016,28.374,286.015,28.31,286.014,28.247Z" transform="translate(-66.267 -20.569)" fill="#fff" opacity="0.1"/>
                </g>
              </g>
            </g>
            <g id="Grupo_79435" data-name="Grupo 79435" transform="translate(8.702 136.953)">
              <g id="Grupo_79434" data-name="Grupo 79434" transform="translate(0 194.237)">
                <path id="Trazado_134308" data-name="Trazado 134308" d="M73.88,323.348a14.532,14.532,0,0,1-13.189,0c-1.827-1.056-2.745-2.437-2.753-3.82h0v5.4c.008,1.383.927,2.765,2.753,3.82a14.536,14.536,0,0,0,13.189,0c1.814-1.055,2.718-2.437,2.71-3.82v-5.4C76.6,320.912,75.694,322.293,73.88,323.348Z" transform="translate(-57.938 -314.127)" fill="#e0e0e0"/>
                <path id="Trazado_134309" data-name="Trazado 134309" d="M60.691,323.859a14.532,14.532,0,0,0,13.189,0c1.814-1.055,2.717-2.436,2.71-3.819s-.927-2.765-2.753-3.82a14.535,14.535,0,0,0-13.189,0c-1.815,1.055-2.718,2.437-2.71,3.82S58.865,322.8,60.691,323.859Z" transform="translate(-57.938 -314.637)" fill="#f0f0f0"/>
              </g>
              <path id="Trazado_134310" data-name="Trazado 134310" d="M63.993,138.747V337.814h0a1.324,1.324,0,0,0,.779,1.08,4.111,4.111,0,0,0,3.733,0,1.306,1.306,0,0,0,.768-1.08V138.747Z" transform="translate(-57.306 -138.747)" fill="#e0e0e0"/>
            </g>
            <g id="Grupo_79437" data-name="Grupo 79437" transform="translate(0 131.567)">
              <g id="Grupo_79436" data-name="Grupo 79436" transform="translate(0 11.555)">
                <path id="Trazado_134311" data-name="Trazado 134311" d="M52.067,144.608a4.395,4.395,0,0,1,1.994,3.457c0,1.27-.9,1.782-2.008,1.144a4.4,4.4,0,0,1-2-3.455C50.061,144.482,50.961,143.97,52.067,144.608Z" transform="translate(-50.058 -144.333)" fill="#e0e0e0"/>
              </g>
              <path id="Trazado_134312" data-name="Trazado 134312" d="M73.87,137.51c0-.032,0-.064,0-.1l0-.044v-.02l0-.034c0-.032-.007-.065-.011-.1s-.009-.067-.014-.1v-.007l-.017-.095c-.007-.034-.013-.07-.021-.1l-.009-.036-.006-.022-.01-.046c-.009-.035-.019-.071-.029-.106s-.014-.051-.022-.077l0-.014,0-.013c-.01-.035-.021-.07-.033-.1s-.023-.068-.035-.1l-.007-.018-.006-.016-.024-.064c-.013-.033-.025-.065-.04-.1s-.02-.046-.03-.07l0-.012-.007-.014-.043-.1c-.017-.035-.034-.071-.052-.106l-.008-.015-.011-.021-.043-.084-.057-.1-.03-.052-.011-.021c-.018-.03-.038-.058-.055-.087s-.053-.086-.081-.128l-.013-.021c-.041-.061-.083-.121-.126-.18h0c-.029-.04-.059-.079-.088-.117l-.074-.092,0,0h0c-.025-.03-.051-.061-.077-.091l-.077-.086-.013-.013-.014-.014c-.018-.02-.036-.039-.055-.057s-.055-.056-.084-.084l-.026-.024-.02-.019-.042-.039c-.029-.027-.059-.052-.088-.077l-.04-.033-.02-.015-.03-.024-.087-.067-.065-.045-.011-.009-.011-.008-.085-.056-.085-.052-.02-.011c-.021-.012-.042-.024-.064-.035s-.054-.03-.082-.043l-.053-.025-.012-.006-.015-.008-.081-.033-.081-.031-.013,0-.012,0-.055-.019-.082-.022-.04-.009-.018,0-.025-.006-.087-.014-.053-.006-.019,0h-.018c-.032,0-.063,0-.094,0l-.04,0h-.064c-.039,0-.077.01-.115.018h0l-.024.007a.967.967,0,0,0-.114.032l-.009,0a1.07,1.07,0,0,0-.153.071L50.587,145.56a.925.925,0,0,1,.153-.071.878.878,0,0,1,.123-.035l.023-.007a1.127,1.127,0,0,1,.15-.019l.031,0a1.42,1.42,0,0,1,.152,0l.019,0a1.515,1.515,0,0,1,.166.025l.017,0c.059.013.117.03.177.05l.012,0a1.779,1.779,0,0,1,.19.076l.013.006c.065.031.131.064.2.1s.134.082.2.128l.012.008c.061.043.121.088.181.137l.021.017q.086.071.169.149l.021.018c.056.054.112.109.166.167l.013.013c.059.063.115.126.17.192v0c.056.067.11.137.163.209h0c.047.065.094.132.139.2.028.042.053.085.08.128s.045.072.067.109l.029.052c.035.062.07.124.1.187l.01.02q.058.116.109.232l.006.012c.033.076.064.153.093.231l.006.015c.03.079.056.159.081.239l0,.014c.023.076.044.153.062.23l0,.022c.019.078.034.158.046.236v0c.012.078.022.157.029.235v.019c.007.078.01.156.009.232s0,.149-.01.219l0,.02c-.007.064-.015.127-.027.187l-.006.023c-.012.059-.027.114-.043.167l-.009.03c-.018.05-.035.1-.056.143l-.007.015a1.152,1.152,0,0,1-.081.146l-.012.018a1.252,1.252,0,0,1-.077.1l-.031.033a.926.926,0,0,1-.075.073l-.032.028a.983.983,0,0,1-.116.081h0l19.864-11.554a.839.839,0,0,0,.116-.081l.032-.028a.94.94,0,0,0,.075-.073l.031-.034a.894.894,0,0,0,.077-.1l.013-.017,0,0a1.083,1.083,0,0,0,.075-.137l0,0,.007-.015c.014-.031.028-.062.04-.094.006-.015.011-.033.017-.05l.01-.029.009-.026c.009-.033.019-.067.026-.1l.008-.038,0-.024.008-.035c0-.032.01-.064.013-.1l.007-.055v-.019l0-.022c0-.031,0-.063.007-.095s0-.064,0-.1V137.6C73.871,137.571,73.871,137.541,73.87,137.51Z" transform="translate(-50.003 -133.87)" fill="#e6e6e6"/>
            </g>
          </g>
          <g id="Grupo_79449" data-name="Grupo 79449" transform="translate(317.231 64.967)">
            <g id="Grupo_79443" data-name="Grupo 79443" transform="translate(38.174 22.691)">
              <g id="Grupo_79439" data-name="Grupo 79439" transform="translate(38.007 187.663)">
                <path id="Trazado_134313" data-name="Trazado 134313" d="M357.957,290.927v9.011a1.584,1.584,0,1,0,3.167,0v-9.011Z" transform="translate(-357.957 -246.513)" fill="#1565c0"/>
                <path id="Trazado_134314" data-name="Trazado 134314" d="M361.124,252.292a1.584,1.584,0,1,0-3.167,0v42.83h3.167Z" transform="translate(-357.957 -250.708)" fill="#455a64"/>
              </g>
              <g id="Grupo_79440" data-name="Grupo 79440" transform="translate(42.362 185.801)">
                <path id="Trazado_134315" data-name="Trazado 134315" d="M364.545,249.431a1.583,1.583,0,1,0-2.121,2.35L390.9,277.5l2.243-2.242Z" transform="translate(-361.9 -249.022)" fill="#455a64"/>
                <path id="Trazado_134316" data-name="Trazado 134316" d="M395.457,277.341l-5.053-4.564-2.243,2.242,5.175,4.673a1.583,1.583,0,1,0,2.121-2.351Z" transform="translate(-359.161 -246.544)" fill="#1565c0"/>
              </g>
              <g id="Grupo_79441" data-name="Grupo 79441" transform="translate(0 185.8)">
                <path id="Trazado_134317" data-name="Trazado 134317" d="M324.062,277.341a1.584,1.584,0,0,0,2.123,2.351l5.175-4.672-2.243-2.243Z" transform="translate(-323.54 -246.543)" fill="#1565c0"/>
                <path id="Trazado_134318" data-name="Trazado 134318" d="M359.424,249.544a1.581,1.581,0,0,0-2.236-.114l-28.6,25.824,2.243,2.243,28.477-25.717A1.583,1.583,0,0,0,359.424,249.544Z" transform="translate(-323.013 -249.021)" fill="#455a64"/>
              </g>
              <path id="Trazado_134319" data-name="Trazado 134319" d="M366.888,252.361a14.536,14.536,0,0,1-13.189,0c-1.826-1.055-2.745-2.437-2.753-3.82h0v5.4c.008,1.383.927,2.765,2.753,3.82a14.535,14.535,0,0,0,13.189,0c1.814-1.055,2.718-2.437,2.71-3.82v-5.4C369.605,249.924,368.7,251.305,366.888,252.361Z" transform="translate(-320.681 -63.271)" fill="#37474f"/>
              <path id="Trazado_134320" data-name="Trazado 134320" d="M353.7,252.871a14.536,14.536,0,0,0,13.189,0c1.814-1.056,2.718-2.437,2.71-3.82s-.927-2.765-2.753-3.82a14.535,14.535,0,0,0-13.189,0c-1.815,1.055-2.718,2.437-2.71,3.82S351.873,251.816,353.7,252.871Z" transform="translate(-320.681 -63.781)" fill="#455a64"/>
              <path id="Trazado_134321" data-name="Trazado 134321" d="M353.7,252.871a14.536,14.536,0,0,0,13.189,0c1.814-1.056,2.718-2.437,2.71-3.82s-.927-2.765-2.753-3.82a14.535,14.535,0,0,0-13.189,0c-1.815,1.055-2.718,2.437-2.71,3.82S351.873,251.816,353.7,252.871Z" transform="translate(-320.681 -63.781)" fill="#fff" opacity="0.2"/>
              <path id="Trazado_134322" data-name="Trazado 134322" d="M357.647,81.781v184h0a.965.965,0,0,0,.569.789,3,3,0,0,0,2.723,0,.954.954,0,0,0,.56-.789v-184Z" transform="translate(-319.982 -80.665)" fill="#455a64"/>
              <g id="Grupo_79442" data-name="Grupo 79442" transform="translate(37.665)">
                <path id="Trazado_134323" data-name="Trazado 134323" d="M358.216,82.675a3,3,0,0,0,2.723,0,.953.953,0,0,0,.56-.788.969.969,0,0,0-.569-.79,3,3,0,0,0-2.723,0,.952.952,0,0,0-.56.79A.966.966,0,0,0,358.216,82.675Z" transform="translate(-357.647 -80.771)" fill="#455a64"/>
                <path id="Trazado_134324" data-name="Trazado 134324" d="M358.216,82.675a3,3,0,0,0,2.723,0,.953.953,0,0,0,.56-.788.969.969,0,0,0-.569-.79,3,3,0,0,0-2.723,0,.952.952,0,0,0-.56.79A.966.966,0,0,0,358.216,82.675Z" transform="translate(-357.647 -80.771)" fill="#fff" opacity="0.2"/>
              </g>
            </g>
            <path id="Trazado_134325" data-name="Trazado 134325" d="M366.695,97.579a4.913,4.913,0,0,0-3.451-1.367l-.007-.019s-15.49,1.406-21.42,3.515c-1.76.637-3.106,2.436-3.623,5.244-1.034,5.618,1.644,13.149,5.982,16.823,2.169,1.836,4.342,2.361,6.1,1.724h0c5.931-2.109,18.83-10.8,18.83-10.8l-.01-.028a4.989,4.989,0,0,0,1.8-3.269A13.83,13.83,0,0,0,366.695,97.579Z" transform="translate(-283.861 -56.47)" fill="#e0e0e0"/>
            <path id="Trazado_134326" data-name="Trazado 134326" d="M366.695,97.579a4.913,4.913,0,0,0-3.451-1.367l-.007-.019s-15.49,1.406-21.42,3.515c-1.76.637-3.106,2.436-3.623,5.244-1.034,5.618,1.644,13.149,5.982,16.823,2.169,1.836,4.342,2.361,6.1,1.724h0c5.931-2.109,18.83-10.8,18.83-10.8l-.01-.028a4.989,4.989,0,0,0,1.8-3.269A13.83,13.83,0,0,0,366.695,97.579Z" transform="translate(-283.861 -56.47)" opacity="0.3"/>
            <g id="Grupo_79448" data-name="Grupo 79448">
              <g id="Grupo_79447" data-name="Grupo 79447">
                <g id="Grupo_79446" data-name="Grupo 79446" style="isolation: isolate">
                  <g id="Grupo_79444" data-name="Grupo 79444" transform="translate(31.193 30.747)">
                    <path id="Trazado_134327" data-name="Trazado 134327" d="M317.219,91.535l18.431-3.087c10.82-1.815,19.289,2.924,21.689,12.14l5.777,22.194c2.4,9.217-1.713,21.219-10.527,30.739l-15.012,16.222Z" transform="translate(-317.219 -88.065)" fill="#263238"/>
                  </g>
                  <path id="Trazado_134328" data-name="Trazado 134328" d="M340.793,91.077c.485-.042.965-.073,1.439-.088.073,0,.147-.009.219-.01.536-.013,1.061-.005,1.581.017.182.008.363.019.544.031.215.014.431.029.644.05.193.018.386.041.577.064.21.025.418.052.626.084.136.02.269.045.4.068.593.1,1.175.224,1.739.374.073.02.141.042.213.063.46.128.911.275,1.351.435.095.035.192.067.286.1q.668.257,1.3.563c.093.044.182.094.274.14q.494.25.964.529c.1.062.209.124.311.188.375.234.742.479,1.094.742l.072.057c.326.246.637.508.942.779.194.173.39.347.575.53L324.757,65.047c-.146-.145-.295-.285-.447-.424-.041-.036-.087-.068-.128-.106-.3-.271-.616-.531-.942-.777-.021-.017-.039-.034-.06-.05l-.012-.009c-.352-.263-.719-.508-1.094-.742-.042-.026-.079-.056-.121-.082-.061-.038-.128-.068-.19-.1q-.472-.28-.966-.531c-.064-.032-.123-.071-.188-.1-.027-.013-.056-.023-.083-.035q-.635-.308-1.3-.564c-.033-.013-.065-.03-.1-.043-.06-.023-.125-.038-.186-.06q-.659-.242-1.35-.436c-.053-.014-.1-.035-.155-.05-.019-.006-.04-.008-.058-.013-.564-.15-1.146-.272-1.739-.374-.06-.01-.116-.028-.176-.038-.075-.012-.154-.02-.23-.031-.206-.031-.415-.059-.625-.084-.192-.023-.383-.045-.578-.064-.212-.02-.427-.035-.643-.05-.129-.008-.255-.022-.385-.029-.053,0-.107,0-.16,0-.519-.021-1.045-.03-1.58-.017-.073,0-.147.008-.219.01-.474.015-.954.046-1.44.089-.078.007-.155.007-.234.014s-.145.021-.216.029c-.575.061-1.155.133-1.745.232l-18.431,3.085,31.193,30.751L338.6,91.352c.59-.1,1.171-.171,1.746-.231C340.492,91.105,340.642,91.091,340.793,91.077Z" transform="translate(-288.972 -60.222)" fill="#37474f"/>
                  <g id="Grupo_79445" data-name="Grupo 79445" transform="translate(0 3.467)">
                    <path id="Trazado_134329" data-name="Trazado 134329" d="M340.523,172.32l-31.194-30.75L288.972,63.361l31.194,30.75Z" transform="translate(-288.972 -63.361)" fill="#fafafa"/>
                  </g>
                </g>
              </g>
            </g>
          </g>
          <g id="Grupo_79454" data-name="Grupo 79454" transform="translate(145.742 207.465)">
            <g id="Grupo_79450" data-name="Grupo 79450" transform="translate(12.108 10.371)">
              <path id="Trazado_134330" data-name="Trazado 134330" d="M202.328,321.906l155.817-89.937-57.683-33.318L144.645,288.589Z" transform="translate(-144.645 -198.652)" fill="#1565c0"/>
              <path id="Trazado_134331" data-name="Trazado 134331" d="M196.879,404.785,352.7,314.663V228.823L196.879,318.759Z" transform="translate(-139.196 -195.505)" fill="#1565c0"/>
              <path id="Trazado_134332" data-name="Trazado 134332" d="M202.328,313.4l-57.683-33.318v86.032l57.683,33.318Z" transform="translate(-144.645 -190.158)" fill="#1565c0"/>
              <path id="Trazado_134333" data-name="Trazado 134333" d="M202.328,313.4l-57.683-33.318v86.032l57.683,33.318Z" transform="translate(-144.645 -190.158)" fill="#fff" opacity="0.1"/>
              <path id="Trazado_134334" data-name="Trazado 134334" d="M196.879,404.785,352.7,314.663V228.823L196.879,318.759Z" transform="translate(-139.196 -195.505)" fill="#fff" opacity="0.2"/>
            </g>
            <g id="Grupo_79451" data-name="Grupo 79451">
              <path id="Trazado_134335" data-name="Trazado 134335" d="M197.906,326.495,371.4,226.357l-64.226-37.1L133.68,289.4Z" transform="translate(-133.68 -189.261)" fill="#1565c0"/>
              <path id="Trazado_134336" data-name="Trazado 134336" d="M191.84,329.894,365.329,229.552v-6.7L191.84,322.991Z" transform="translate(-127.614 -185.757)" fill="#1565c0"/>
              <path id="Trazado_134337" data-name="Trazado 134337" d="M197.906,317.029l-64.226-37.1v6.912l64.226,37.1Z" transform="translate(-133.68 -179.803)" fill="#1565c0"/>
              <path id="Trazado_134338" data-name="Trazado 134338" d="M197.906,326.495,371.4,226.357l-64.226-37.1L133.68,289.4Z" transform="translate(-133.68 -189.261)" fill="#fff" opacity="0.3"/>
              <path id="Trazado_134339" data-name="Trazado 134339" d="M197.906,317.029l-64.226-37.1v6.912l64.226,37.1Z" transform="translate(-133.68 -179.803)" fill="#fff" opacity="0.1"/>
              <path id="Trazado_134340" data-name="Trazado 134340" d="M191.84,329.894,365.329,229.552v-6.7L191.84,322.991Z" transform="translate(-127.614 -185.757)" fill="#fff" opacity="0.2"/>
              <path id="Trazado_134341" data-name="Trazado 134341" d="M307.17,189.261,133.687,289.394l-.007,0V296.3l64.226,37.1L371.4,233.056v-6.7Z" transform="translate(-133.68 -189.261)" fill="#fff" opacity="0.32"/>
            </g>
            <g id="Grupo_79453" data-name="Grupo 79453" transform="translate(117.936 87.819)">
              <path id="Trazado_134342" data-name="Trazado 134342" d="M240.477,308.5v41.545a4.424,4.424,0,0,0,6.639,3.83L301.6,322.355a8.847,8.847,0,0,0,4.418-7.659V273.214a4.423,4.423,0,0,0-6.635-3.831L244.9,300.833A8.846,8.846,0,0,0,240.477,308.5Z" transform="translate(-240.477 -268.784)" fill="#1565c0"/>
              <path id="Trazado_134343" data-name="Trazado 134343" d="M240.477,308.5v41.545a4.424,4.424,0,0,0,6.639,3.83L301.6,322.355a8.847,8.847,0,0,0,4.418-7.659V273.214a4.423,4.423,0,0,0-6.635-3.831L244.9,300.833A8.846,8.846,0,0,0,240.477,308.5Z" transform="translate(-240.477 -268.784)" opacity="0.2"/>
              <g id="Grupo_79452" data-name="Grupo 79452" transform="translate(22.819 30.629)">
                <path id="Trazado_134344" data-name="Trazado 134344" d="M263.589,296.852a2.209,2.209,0,0,1,1.13-.331l22.932.454c1.766.034,1.775,2.932.014,5l-22.855,26.884a4.432,4.432,0,0,1-1.131.976c-1.285.742-2.456.231-2.462-1.406l-.077-27.338A5.4,5.4,0,0,1,263.589,296.852Z" transform="translate(-261.141 -296.521)" fill="#fff"/>
              </g>
            </g>
          </g>
          <g id="Grupo_79462" data-name="Grupo 79462" transform="translate(209.967 253.355)">
            <g id="Grupo_79458" data-name="Grupo 79458" transform="translate(0 24.928)">
              <path id="Trazado_134345" data-name="Trazado 134345" d="M191.911,257.938l8.673.253,8.673-.253c.374,5.857-.77,11.826-2.347,14.741H206.9a3.958,3.958,0,0,1-1.717,1.747,10.179,10.179,0,0,1-9.238,0,3.846,3.846,0,0,1-1.715-1.792C192.67,269.7,191.54,263.767,191.911,257.938Z" transform="translate(-191.84 -252.915)" fill="#fff"/>
              <g id="Grupo_79455" data-name="Grupo 79455" transform="translate(0.072)">
                <path id="Trazado_134346" data-name="Trazado 134346" d="M194.465,254.86c-3.4,1.962-3.416,5.143-.04,7.105a13.521,13.521,0,0,0,12.266,0c3.4-1.962,3.416-5.143.04-7.105A13.52,13.52,0,0,0,194.465,254.86Z" transform="translate(-191.905 -253.389)" fill="#ebebeb"/>
              </g>
              <g id="Grupo_79456" data-name="Grupo 79456" transform="translate(1.978 1.104)">
                <path id="Trazado_134347" data-name="Trazado 134347" d="M195.629,255.536c-2.651,1.531-2.666,4.013-.032,5.544a10.546,10.546,0,0,0,9.57,0c2.652-1.531,2.665-4.012.031-5.544A10.544,10.544,0,0,0,195.629,255.536Z" transform="translate(-193.631 -254.389)" fill="#e0e0e0"/>
              </g>
              <g id="Grupo_79457" data-name="Grupo 79457" transform="translate(1.978 1.104)" opacity="0.15">
                <path id="Trazado_134348" data-name="Trazado 134348" d="M195.629,255.536c-2.651,1.531-2.666,4.013-.032,5.544a10.546,10.546,0,0,0,9.57,0c2.652-1.531,2.665-4.012.031-5.544A10.544,10.544,0,0,0,195.629,255.536Z" transform="translate(-193.631 -254.389)"/>
              </g>
            </g>
            <g id="Grupo_79461" data-name="Grupo 79461" transform="translate(1.978)">
              <path id="Trazado_134349" data-name="Trazado 134349" d="M204.821,243.017c1.411-1.754,3.049-3.324,4.342-5.166a5.475,5.475,0,0,0,1.25-4.285,3.833,3.833,0,0,0-3.037-2.672,5.826,5.826,0,0,0-4.076.909,12.571,12.571,0,0,0-3.081,2.932,30.614,30.614,0,0,0-6.445,21.855,4.58,4.58,0,0,0,.805,2.512,2.513,2.513,0,0,0,2.592.792c2.363-.7,2.05-3.893,2.436-5.77a26.323,26.323,0,0,1,2.713-7.368A25.744,25.744,0,0,1,204.821,243.017Z" transform="translate(-193.631 -230.816)" fill="#1565c0"/>
              <path id="Trazado_134350" data-name="Trazado 134350" d="M204.821,243.017c1.411-1.754,3.049-3.324,4.342-5.166a5.475,5.475,0,0,0,1.25-4.285,3.833,3.833,0,0,0-3.037-2.672,5.826,5.826,0,0,0-4.076.909,12.571,12.571,0,0,0-3.081,2.932,30.614,30.614,0,0,0-6.445,21.855,4.58,4.58,0,0,0,.805,2.512,2.513,2.513,0,0,0,2.592.792c2.363-.7,2.05-3.893,2.436-5.77a26.323,26.323,0,0,1,2.713-7.368A25.744,25.744,0,0,1,204.821,243.017Z" transform="translate(-193.631 -230.816)" fill="#fff" opacity="0.2"/>
              <g id="Grupo_79459" data-name="Grupo 79459" transform="translate(3.147 2.057)">
                <path id="Trazado_134351" data-name="Trazado 134351" d="M196.727,257.322a.206.206,0,0,0,.167-.193c.166-3.793,1.4-16.738,10.32-24.084a.206.206,0,0,0,.029-.29.208.208,0,0,0-.292-.029c-9.053,7.454-10.3,20.549-10.47,24.385a.208.208,0,0,0,.2.215A.237.237,0,0,0,196.727,257.322Z" transform="translate(-196.481 -232.679)" fill="#f0f0f0"/>
              </g>
              <g id="Grupo_79460" data-name="Grupo 79460" transform="translate(1.798 12.294)">
                <path id="Trazado_134352" data-name="Trazado 134352" d="M195.552,256.766a6.333,6.333,0,0,0,2.9,4.018,8.142,8.142,0,0,0,4.384.733,19.2,19.2,0,0,0,4.449-1.055c.716-.241,1.511-.565,1.587-1.452a1.585,1.585,0,0,0-.506-1.248,5.294,5.294,0,0,0-.462-.4.457.457,0,0,1,.244-.82,10.857,10.857,0,0,0,1.268-.157,5.6,5.6,0,0,0,2.662-1.2,4.433,4.433,0,0,0,1.23-1.821,1.715,1.715,0,0,0-.176-1.789,1.952,1.952,0,0,0-.986-.429q-.475-.1-.954-.177a.423.423,0,0,1-.1-.808l1.345-.561a2.526,2.526,0,0,0,1.021-.634,2.232,2.232,0,0,0,.26-1.854c-.165-.841-.456-1.654-.654-2.489a5.34,5.34,0,0,1-.089-2.548,21.423,21.423,0,0,0-7.537.5,5.425,5.425,0,0,0-2.057.9,3.023,3.023,0,0,0-.968,2.771.194.194,0,0,1-.366.1l-.86-1.586a1.021,1.021,0,0,0-1.337-.426,6.183,6.183,0,0,0-1.966,1.546,3.409,3.409,0,0,0-.841,2.517,22.013,22.013,0,0,0,.627,3.694.343.343,0,0,1-.536.362l-.041-.03a1.159,1.159,0,0,0-.811-.236c-.76.095-.954.865-1,1.521A12.731,12.731,0,0,0,195.552,256.766Z" transform="translate(-195.259 -241.948)" fill="#1565c0"/>
                <path id="Trazado_134353" data-name="Trazado 134353" d="M195.552,256.766a6.333,6.333,0,0,0,2.9,4.018,8.142,8.142,0,0,0,4.384.733,19.2,19.2,0,0,0,4.449-1.055c.716-.241,1.511-.565,1.587-1.452a1.585,1.585,0,0,0-.506-1.248,5.294,5.294,0,0,0-.462-.4.457.457,0,0,1,.244-.82,10.857,10.857,0,0,0,1.268-.157,5.6,5.6,0,0,0,2.662-1.2,4.433,4.433,0,0,0,1.23-1.821,1.715,1.715,0,0,0-.176-1.789,1.952,1.952,0,0,0-.986-.429q-.475-.1-.954-.177a.423.423,0,0,1-.1-.808l1.345-.561a2.526,2.526,0,0,0,1.021-.634,2.232,2.232,0,0,0,.26-1.854c-.165-.841-.456-1.654-.654-2.489a5.34,5.34,0,0,1-.089-2.548,21.423,21.423,0,0,0-7.537.5,5.425,5.425,0,0,0-2.057.9,3.023,3.023,0,0,0-.968,2.771.194.194,0,0,1-.366.1l-.86-1.586a1.021,1.021,0,0,0-1.337-.426,6.183,6.183,0,0,0-1.966,1.546,3.409,3.409,0,0,0-.841,2.517,22.013,22.013,0,0,0,.627,3.694.343.343,0,0,1-.536.362l-.041-.03a1.159,1.159,0,0,0-.811-.236c-.76.095-.954.865-1,1.521A12.731,12.731,0,0,0,195.552,256.766Z" transform="translate(-195.259 -241.948)" opacity="0.2"/>
                <path id="Trazado_134354" data-name="Trazado 134354" d="M195.552,256.766a6.333,6.333,0,0,0,2.9,4.018,8.142,8.142,0,0,0,4.384.733,19.2,19.2,0,0,0,4.449-1.055c.716-.241,1.511-.565,1.587-1.452a1.585,1.585,0,0,0-.506-1.248,5.294,5.294,0,0,0-.462-.4.457.457,0,0,1,.244-.82,10.857,10.857,0,0,0,1.268-.157,5.6,5.6,0,0,0,2.662-1.2,4.433,4.433,0,0,0,1.23-1.821,1.715,1.715,0,0,0-.176-1.789,1.952,1.952,0,0,0-.986-.429q-.475-.1-.954-.177a.423.423,0,0,1-.1-.808l1.345-.561a2.526,2.526,0,0,0,1.021-.634,2.232,2.232,0,0,0,.26-1.854c-.165-.841-.456-1.654-.654-2.489a5.34,5.34,0,0,1-.089-2.548,21.423,21.423,0,0,0-7.537.5,5.425,5.425,0,0,0-2.057.9,3.023,3.023,0,0,0-.968,2.771.194.194,0,0,1-.366.1l-.86-1.586a1.021,1.021,0,0,0-1.337-.426,6.183,6.183,0,0,0-1.966,1.546,3.409,3.409,0,0,0-.841,2.517,22.013,22.013,0,0,0,.627,3.694.343.343,0,0,1-.536.362l-.041-.03a1.159,1.159,0,0,0-.811-.236c-.76.095-.954.865-1,1.521A12.731,12.731,0,0,0,195.552,256.766Z" transform="translate(-195.259 -241.948)" fill="#fff" opacity="0.2"/>
                <path id="Trazado_134355" data-name="Trazado 134355" d="M199.143,260.466a30.586,30.586,0,0,1,2.028-5.876.2.2,0,0,1,.072-.154c.046-.1.093-.2.141-.308a19,19,0,0,0-2.008-6.726.206.206,0,1,1,.358-.205,19.269,19.269,0,0,1,1.98,6.253,27.528,27.528,0,0,1,8.679-10.407.207.207,0,1,1,.236.339,27.362,27.362,0,0,0-8.781,10.728,12.66,12.66,0,0,1,7.185-.973.207.207,0,0,1,0,.406.238.238,0,0,1-.079,0,12.272,12.272,0,0,0-7.394,1.183,30.12,30.12,0,0,0-2.011,5.82.208.208,0,0,1-.163.162.2.2,0,0,1-.079,0A.206.206,0,0,1,199.143,260.466Z" transform="translate(-194.855 -241.838)" fill="#f0f0f0"/>
              </g>
            </g>
          </g>
          <g id="Grupo_79470" data-name="Grupo 79470" transform="translate(267.177 219.902)">
            <g id="Grupo_79466" data-name="Grupo 79466" transform="translate(0 24.928)">
              <path id="Trazado_134356" data-name="Trazado 134356" d="M243.717,227.645l8.673.252,8.673-.252c.373,5.856-.77,11.826-2.347,14.741h-.007a3.945,3.945,0,0,1-1.716,1.747,10.18,10.18,0,0,1-9.238,0,3.84,3.84,0,0,1-1.716-1.792C244.475,239.409,243.345,233.472,243.717,227.645Z" transform="translate(-243.645 -222.621)" fill="#fff"/>
              <g id="Grupo_79463" data-name="Grupo 79463" transform="translate(0.071)">
                <path id="Trazado_134357" data-name="Trazado 134357" d="M246.271,224.567c-3.4,1.961-3.417,5.143-.041,7.1a13.516,13.516,0,0,0,12.267,0c3.4-1.961,3.415-5.143.039-7.1A13.511,13.511,0,0,0,246.271,224.567Z" transform="translate(-243.71 -223.095)" fill="#ebebeb"/>
              </g>
              <g id="Grupo_79464" data-name="Grupo 79464" transform="translate(1.978 1.105)">
                <path id="Trazado_134358" data-name="Trazado 134358" d="M247.434,225.243c-2.65,1.531-2.665,4.012-.031,5.542a10.547,10.547,0,0,0,9.57,0c2.65-1.531,2.665-4.012.031-5.542A10.547,10.547,0,0,0,247.434,225.243Z" transform="translate(-245.437 -224.096)" fill="#e0e0e0"/>
              </g>
              <g id="Grupo_79465" data-name="Grupo 79465" transform="translate(1.978 1.105)" opacity="0.15">
                <path id="Trazado_134359" data-name="Trazado 134359" d="M247.434,225.243c-2.65,1.531-2.665,4.012-.031,5.542a10.547,10.547,0,0,0,9.57,0c2.65-1.531,2.665-4.012.031-5.542A10.547,10.547,0,0,0,247.434,225.243Z" transform="translate(-245.437 -224.096)"/>
              </g>
            </g>
            <g id="Grupo_79469" data-name="Grupo 79469" transform="translate(1.978)">
              <path id="Trazado_134360" data-name="Trazado 134360" d="M256.627,212.725c1.41-1.754,3.049-3.325,4.342-5.167a5.469,5.469,0,0,0,1.249-4.285,3.835,3.835,0,0,0-3.037-2.672,5.823,5.823,0,0,0-4.075.91,12.531,12.531,0,0,0-3.081,2.932,30.614,30.614,0,0,0-6.445,21.855,4.578,4.578,0,0,0,.8,2.511,2.518,2.518,0,0,0,2.593.793c2.362-.7,2.05-3.893,2.435-5.771a26.371,26.371,0,0,1,2.714-7.368A25.8,25.8,0,0,1,256.627,212.725Z" transform="translate(-245.437 -200.522)" fill="#1565c0"/>
              <path id="Trazado_134361" data-name="Trazado 134361" d="M256.627,212.725c1.41-1.754,3.049-3.325,4.342-5.167a5.469,5.469,0,0,0,1.249-4.285,3.835,3.835,0,0,0-3.037-2.672,5.823,5.823,0,0,0-4.075.91,12.531,12.531,0,0,0-3.081,2.932,30.614,30.614,0,0,0-6.445,21.855,4.578,4.578,0,0,0,.8,2.511,2.518,2.518,0,0,0,2.593.793c2.362-.7,2.05-3.893,2.435-5.771a26.371,26.371,0,0,1,2.714-7.368A25.8,25.8,0,0,1,256.627,212.725Z" transform="translate(-245.437 -200.522)" fill="#fff" opacity="0.2"/>
              <g id="Grupo_79467" data-name="Grupo 79467" transform="translate(3.147 2.057)">
                <path id="Trazado_134362" data-name="Trazado 134362" d="M248.533,227.029a.207.207,0,0,0,.167-.194c.166-3.792,1.4-16.738,10.32-24.083a.207.207,0,0,0-.263-.319c-9.053,7.454-10.3,20.548-10.47,24.384a.206.206,0,0,0,.2.215A.178.178,0,0,0,248.533,227.029Z" transform="translate(-248.287 -202.385)" fill="#f0f0f0"/>
              </g>
              <g id="Grupo_79468" data-name="Grupo 79468" transform="translate(1.798 12.293)">
                <path id="Trazado_134363" data-name="Trazado 134363" d="M247.357,226.473a6.341,6.341,0,0,0,2.9,4.017,8.159,8.159,0,0,0,4.383.733,19.222,19.222,0,0,0,4.45-1.056c.716-.241,1.511-.565,1.587-1.451a1.579,1.579,0,0,0-.507-1.248,4.811,4.811,0,0,0-.462-.4.458.458,0,0,1,.244-.822,10.41,10.41,0,0,0,1.269-.157,5.589,5.589,0,0,0,2.663-1.2,4.426,4.426,0,0,0,1.229-1.821,1.711,1.711,0,0,0-.176-1.788,1.949,1.949,0,0,0-.986-.43c-.317-.068-.635-.126-.954-.176a.423.423,0,0,1-.1-.809l1.346-.56a2.549,2.549,0,0,0,1.022-.635,2.226,2.226,0,0,0,.258-1.853c-.165-.843-.455-1.655-.654-2.49a5.34,5.34,0,0,1-.088-2.548,21.419,21.419,0,0,0-7.537.5,5.419,5.419,0,0,0-2.057.9,3.017,3.017,0,0,0-.969,2.771.2.2,0,0,1-.367.1l-.859-1.586a1.021,1.021,0,0,0-1.337-.427,6.16,6.16,0,0,0-1.966,1.546,3.412,3.412,0,0,0-.841,2.517,22.009,22.009,0,0,0,.626,3.7.341.341,0,0,1-.534.361l-.041-.03a1.156,1.156,0,0,0-.811-.235c-.76.094-.954.864-1,1.519A12.733,12.733,0,0,0,247.357,226.473Z" transform="translate(-247.065 -211.654)" fill="#1565c0"/>
                <path id="Trazado_134364" data-name="Trazado 134364" d="M247.357,226.473a6.341,6.341,0,0,0,2.9,4.017,8.159,8.159,0,0,0,4.383.733,19.222,19.222,0,0,0,4.45-1.056c.716-.241,1.511-.565,1.587-1.451a1.579,1.579,0,0,0-.507-1.248,4.811,4.811,0,0,0-.462-.4.458.458,0,0,1,.244-.822,10.41,10.41,0,0,0,1.269-.157,5.589,5.589,0,0,0,2.663-1.2,4.426,4.426,0,0,0,1.229-1.821,1.711,1.711,0,0,0-.176-1.788,1.949,1.949,0,0,0-.986-.43c-.317-.068-.635-.126-.954-.176a.423.423,0,0,1-.1-.809l1.346-.56a2.549,2.549,0,0,0,1.022-.635,2.226,2.226,0,0,0,.258-1.853c-.165-.843-.455-1.655-.654-2.49a5.34,5.34,0,0,1-.088-2.548,21.419,21.419,0,0,0-7.537.5,5.419,5.419,0,0,0-2.057.9,3.017,3.017,0,0,0-.969,2.771.2.2,0,0,1-.367.1l-.859-1.586a1.021,1.021,0,0,0-1.337-.427,6.16,6.16,0,0,0-1.966,1.546,3.412,3.412,0,0,0-.841,2.517,22.009,22.009,0,0,0,.626,3.7.341.341,0,0,1-.534.361l-.041-.03a1.156,1.156,0,0,0-.811-.235c-.76.094-.954.864-1,1.519A12.733,12.733,0,0,0,247.357,226.473Z" transform="translate(-247.065 -211.654)" opacity="0.2"/>
                <path id="Trazado_134365" data-name="Trazado 134365" d="M247.357,226.473a6.341,6.341,0,0,0,2.9,4.017,8.159,8.159,0,0,0,4.383.733,19.222,19.222,0,0,0,4.45-1.056c.716-.241,1.511-.565,1.587-1.451a1.579,1.579,0,0,0-.507-1.248,4.811,4.811,0,0,0-.462-.4.458.458,0,0,1,.244-.822,10.41,10.41,0,0,0,1.269-.157,5.589,5.589,0,0,0,2.663-1.2,4.426,4.426,0,0,0,1.229-1.821,1.711,1.711,0,0,0-.176-1.788,1.949,1.949,0,0,0-.986-.43c-.317-.068-.635-.126-.954-.176a.423.423,0,0,1-.1-.809l1.346-.56a2.549,2.549,0,0,0,1.022-.635,2.226,2.226,0,0,0,.258-1.853c-.165-.843-.455-1.655-.654-2.49a5.34,5.34,0,0,1-.088-2.548,21.419,21.419,0,0,0-7.537.5,5.419,5.419,0,0,0-2.057.9,3.017,3.017,0,0,0-.969,2.771.2.2,0,0,1-.367.1l-.859-1.586a1.021,1.021,0,0,0-1.337-.427,6.16,6.16,0,0,0-1.966,1.546,3.412,3.412,0,0,0-.841,2.517,22.009,22.009,0,0,0,.626,3.7.341.341,0,0,1-.534.361l-.041-.03a1.156,1.156,0,0,0-.811-.235c-.76.094-.954.864-1,1.519A12.733,12.733,0,0,0,247.357,226.473Z" transform="translate(-247.065 -211.654)" fill="#fff" opacity="0.2"/>
                <path id="Trazado_134366" data-name="Trazado 134366" d="M250.949,230.172a30.468,30.468,0,0,1,2.028-5.875.2.2,0,0,1,.071-.155c.047-.1.093-.2.142-.307a19.012,19.012,0,0,0-2.009-6.726.207.207,0,1,1,.358-.207,19.273,19.273,0,0,1,1.98,6.253,27.537,27.537,0,0,1,8.679-10.407.207.207,0,1,1,.236.34,27.339,27.339,0,0,0-8.78,10.727,12.653,12.653,0,0,1,7.185-.972.206.206,0,0,1,0,.405.187.187,0,0,1-.078,0,12.28,12.28,0,0,0-7.394,1.183,30.085,30.085,0,0,0-2.012,5.82.206.206,0,0,1-.162.163.219.219,0,0,1-.081,0A.207.207,0,0,1,250.949,230.172Z" transform="translate(-246.66 -211.544)" fill="#f0f0f0"/>
              </g>
            </g>
          </g>
          <g id="Grupo_79478" data-name="Grupo 79478" transform="translate(320.949 195.216)">
            <g id="Grupo_79474" data-name="Grupo 79474" transform="translate(0 24.928)">
              <path id="Trazado_134367" data-name="Trazado 134367" d="M292.41,205.291l8.673.252,8.673-.252c.373,5.857-.77,11.826-2.347,14.741H307.4a3.94,3.94,0,0,1-1.716,1.747,10.179,10.179,0,0,1-9.238,0,3.845,3.845,0,0,1-1.716-1.792C293.169,217.055,292.038,211.118,292.41,205.291Z" transform="translate(-292.338 -200.267)" fill="#fff"/>
              <g id="Grupo_79471" data-name="Grupo 79471" transform="translate(0.071)">
                <path id="Trazado_134368" data-name="Trazado 134368" d="M294.964,202.213c-3.4,1.961-3.417,5.143-.041,7.1a13.516,13.516,0,0,0,12.267,0c3.4-1.961,3.416-5.142.04-7.1A13.513,13.513,0,0,0,294.964,202.213Z" transform="translate(-292.403 -200.741)" fill="#ebebeb"/>
              </g>
              <g id="Grupo_79472" data-name="Grupo 79472" transform="translate(1.978 1.105)">
                <path id="Trazado_134369" data-name="Trazado 134369" d="M296.128,202.889c-2.651,1.531-2.666,4.012-.032,5.542a10.546,10.546,0,0,0,9.57,0c2.65-1.531,2.665-4.012.031-5.542A10.544,10.544,0,0,0,296.128,202.889Z" transform="translate(-294.13 -201.742)" fill="#e0e0e0"/>
              </g>
              <g id="Grupo_79473" data-name="Grupo 79473" transform="translate(1.978 1.105)" opacity="0.15">
                <path id="Trazado_134370" data-name="Trazado 134370" d="M296.128,202.889c-2.651,1.531-2.666,4.012-.032,5.542a10.546,10.546,0,0,0,9.57,0c2.65-1.531,2.665-4.012.031-5.542A10.544,10.544,0,0,0,296.128,202.889Z" transform="translate(-294.13 -201.742)"/>
              </g>
            </g>
            <g id="Grupo_79477" data-name="Grupo 79477" transform="translate(1.978)">
              <path id="Trazado_134371" data-name="Trazado 134371" d="M305.32,190.371c1.41-1.754,3.049-3.325,4.342-5.167a5.467,5.467,0,0,0,1.249-4.284,3.835,3.835,0,0,0-3.036-2.674,5.826,5.826,0,0,0-4.076.91,12.529,12.529,0,0,0-3.081,2.932,30.614,30.614,0,0,0-6.445,21.855,4.576,4.576,0,0,0,.8,2.511,2.514,2.514,0,0,0,2.593.793c2.363-.7,2.05-3.893,2.436-5.771a26.332,26.332,0,0,1,2.713-7.368A25.8,25.8,0,0,1,305.32,190.371Z" transform="translate(-294.13 -178.168)" fill="#1565c0"/>
              <path id="Trazado_134372" data-name="Trazado 134372" d="M305.32,190.371c1.41-1.754,3.049-3.325,4.342-5.167a5.467,5.467,0,0,0,1.249-4.284,3.835,3.835,0,0,0-3.036-2.674,5.826,5.826,0,0,0-4.076.91,12.529,12.529,0,0,0-3.081,2.932,30.614,30.614,0,0,0-6.445,21.855,4.576,4.576,0,0,0,.8,2.511,2.514,2.514,0,0,0,2.593.793c2.363-.7,2.05-3.893,2.436-5.771a26.332,26.332,0,0,1,2.713-7.368A25.8,25.8,0,0,1,305.32,190.371Z" transform="translate(-294.13 -178.168)" fill="#fff" opacity="0.2"/>
              <g id="Grupo_79475" data-name="Grupo 79475" transform="translate(3.147 2.058)">
                <path id="Trazado_134373" data-name="Trazado 134373" d="M297.226,204.675a.206.206,0,0,0,.167-.193c.166-3.793,1.4-16.739,10.32-24.084a.207.207,0,1,0-.263-.319c-9.053,7.454-10.3,20.548-10.47,24.384a.208.208,0,0,0,.2.216A.237.237,0,0,0,297.226,204.675Z" transform="translate(-296.98 -180.032)" fill="#f0f0f0"/>
              </g>
              <g id="Grupo_79476" data-name="Grupo 79476" transform="translate(1.798 12.294)">
                <path id="Trazado_134374" data-name="Trazado 134374" d="M296.05,204.119a6.341,6.341,0,0,0,2.9,4.017,8.148,8.148,0,0,0,4.383.733,19.219,19.219,0,0,0,4.45-1.055c.716-.242,1.511-.566,1.587-1.452a1.582,1.582,0,0,0-.506-1.248,4.948,4.948,0,0,0-.463-.4.458.458,0,0,1,.244-.822,10.422,10.422,0,0,0,1.269-.157,5.6,5.6,0,0,0,2.663-1.2,4.425,4.425,0,0,0,1.229-1.822,1.709,1.709,0,0,0-.176-1.788,1.939,1.939,0,0,0-.986-.428q-.475-.1-.953-.177a.423.423,0,0,1-.1-.809l1.345-.56a2.525,2.525,0,0,0,1.022-.635,2.225,2.225,0,0,0,.258-1.853c-.164-.843-.455-1.654-.654-2.49a5.35,5.35,0,0,1-.088-2.547,21.394,21.394,0,0,0-7.537.5,5.42,5.42,0,0,0-2.057.9,3.019,3.019,0,0,0-.968,2.771.2.2,0,0,1-.367.1l-.859-1.586a1.021,1.021,0,0,0-1.337-.427,6.187,6.187,0,0,0-1.966,1.546,3.412,3.412,0,0,0-.841,2.517,22.032,22.032,0,0,0,.627,3.695.342.342,0,0,1-.536.361l-.041-.03a1.156,1.156,0,0,0-.811-.235c-.76.094-.954.864-1,1.52A12.733,12.733,0,0,0,296.05,204.119Z" transform="translate(-295.758 -189.301)" fill="#1565c0"/>
                <path id="Trazado_134375" data-name="Trazado 134375" d="M296.05,204.119a6.341,6.341,0,0,0,2.9,4.017,8.148,8.148,0,0,0,4.383.733,19.219,19.219,0,0,0,4.45-1.055c.716-.242,1.511-.566,1.587-1.452a1.582,1.582,0,0,0-.506-1.248,4.948,4.948,0,0,0-.463-.4.458.458,0,0,1,.244-.822,10.422,10.422,0,0,0,1.269-.157,5.6,5.6,0,0,0,2.663-1.2,4.425,4.425,0,0,0,1.229-1.822,1.709,1.709,0,0,0-.176-1.788,1.939,1.939,0,0,0-.986-.428q-.475-.1-.953-.177a.423.423,0,0,1-.1-.809l1.345-.56a2.525,2.525,0,0,0,1.022-.635,2.225,2.225,0,0,0,.258-1.853c-.164-.843-.455-1.654-.654-2.49a5.35,5.35,0,0,1-.088-2.547,21.394,21.394,0,0,0-7.537.5,5.42,5.42,0,0,0-2.057.9,3.019,3.019,0,0,0-.968,2.771.2.2,0,0,1-.367.1l-.859-1.586a1.021,1.021,0,0,0-1.337-.427,6.187,6.187,0,0,0-1.966,1.546,3.412,3.412,0,0,0-.841,2.517,22.032,22.032,0,0,0,.627,3.695.342.342,0,0,1-.536.361l-.041-.03a1.156,1.156,0,0,0-.811-.235c-.76.094-.954.864-1,1.52A12.733,12.733,0,0,0,296.05,204.119Z" transform="translate(-295.758 -189.301)" opacity="0.2"/>
                <path id="Trazado_134376" data-name="Trazado 134376" d="M296.05,204.119a6.341,6.341,0,0,0,2.9,4.017,8.148,8.148,0,0,0,4.383.733,19.219,19.219,0,0,0,4.45-1.055c.716-.242,1.511-.566,1.587-1.452a1.582,1.582,0,0,0-.506-1.248,4.948,4.948,0,0,0-.463-.4.458.458,0,0,1,.244-.822,10.422,10.422,0,0,0,1.269-.157,5.6,5.6,0,0,0,2.663-1.2,4.425,4.425,0,0,0,1.229-1.822,1.709,1.709,0,0,0-.176-1.788,1.939,1.939,0,0,0-.986-.428q-.475-.1-.953-.177a.423.423,0,0,1-.1-.809l1.345-.56a2.525,2.525,0,0,0,1.022-.635,2.225,2.225,0,0,0,.258-1.853c-.164-.843-.455-1.654-.654-2.49a5.35,5.35,0,0,1-.088-2.547,21.394,21.394,0,0,0-7.537.5,5.42,5.42,0,0,0-2.057.9,3.019,3.019,0,0,0-.968,2.771.2.2,0,0,1-.367.1l-.859-1.586a1.021,1.021,0,0,0-1.337-.427,6.187,6.187,0,0,0-1.966,1.546,3.412,3.412,0,0,0-.841,2.517,22.032,22.032,0,0,0,.627,3.695.342.342,0,0,1-.536.361l-.041-.03a1.156,1.156,0,0,0-.811-.235c-.76.094-.954.864-1,1.52A12.733,12.733,0,0,0,296.05,204.119Z" transform="translate(-295.758 -189.301)" fill="#fff" opacity="0.2"/>
                <path id="Trazado_134377" data-name="Trazado 134377" d="M299.642,207.818a30.455,30.455,0,0,1,2.028-5.875.2.2,0,0,1,.071-.155c.047-.1.093-.2.143-.307a18.99,18.99,0,0,0-2.009-6.726.207.207,0,1,1,.359-.206,19.282,19.282,0,0,1,1.979,6.253,27.531,27.531,0,0,1,8.68-10.407.207.207,0,0,1,.236.34,27.351,27.351,0,0,0-8.781,10.727,12.654,12.654,0,0,1,7.185-.972.207.207,0,0,1-.077.406,12.266,12.266,0,0,0-7.394,1.182,30.183,30.183,0,0,0-2.012,5.82.206.206,0,0,1-.162.163.221.221,0,0,1-.081,0A.207.207,0,0,1,299.642,207.818Z" transform="translate(-295.354 -189.19)" fill="#f0f0f0"/>
              </g>
            </g>
          </g>
          <path id="Trazado_134378" data-name="Trazado 134378" d="M185.989,300.688l44.681-25.842v-63.82l-44.681,25.79Z" transform="translate(17.517 20.475)" fill="#fff" opacity="0.2"/>
          <path id="Trazado_134379" data-name="Trazado 134379" d="M230.1,276.419l44.681-25.842v-63.82L230.1,212.546Z" transform="translate(22.119 17.943)" fill="#fff" opacity="0.2"/>
          <path id="Trazado_134380" data-name="Trazado 134380" d="M273.551,251.326l44.681-25.842v-63.82l-44.681,25.79Z" transform="translate(26.651 15.326)" fill="#fff" opacity="0.2"/>
          <path id="Trazado_134381" data-name="Trazado 134381" d="M197.381,230.34l-9.527,5.4v9.714" transform="translate(17.712 22.489)" fill="none" stroke="#fff" stroke-linecap="round" stroke-linejoin="round" stroke-width="1"/>
          <path id="Trazado_134382" data-name="Trazado 134382" d="M216.761,274.035l9.527-5.4v-9.714" transform="translate(20.727 25.471)" fill="none" stroke="#fff" stroke-linecap="round" stroke-linejoin="round" stroke-width="1"/>
          <g id="Grupo_79479" data-name="Grupo 79479" transform="translate(205.566 252.829)">
            <path id="Trazado_134383" data-name="Trazado 134383" d="M197.381,230.34l-9.527,5.4v9.714" transform="translate(-187.854 -230.34)" fill="none" stroke="#fff" stroke-linecap="round" stroke-linejoin="round" stroke-width="1"/>
            <path id="Trazado_134384" data-name="Trazado 134384" d="M216.761,274.035l9.527-5.4v-9.714" transform="translate(-184.839 -227.359)" fill="none" stroke="#fff" stroke-linecap="round" stroke-linejoin="round" stroke-width="1"/>
          </g>
          <path id="Trazado_134385" data-name="Trazado 134385" d="M217.7,218.514l8.487-4.675v9.5" transform="translate(20.825 20.768)" fill="none" stroke="#fff" stroke-linecap="round" stroke-linejoin="round" stroke-width="1"/>
          <path id="Trazado_134386" data-name="Trazado 134386" d="M261.333,194.232l8.487-4.675v9.5" transform="translate(25.376 18.236)" fill="none" stroke="#fff" stroke-linecap="round" stroke-linejoin="round" stroke-width="1"/>
          <path id="Trazado_134387" data-name="Trazado 134387" d="M302.542,172.068l8.487-4.675v9.5" transform="translate(29.675 15.924)" fill="none" stroke="#fff" stroke-linecap="round" stroke-linejoin="round" stroke-width="1"/>
          <g id="Grupo_79480" data-name="Grupo 79480" transform="translate(254.268 225.738)">
            <path id="Trazado_134388" data-name="Trazado 134388" d="M241.482,205.807l-9.527,5.4v9.714" transform="translate(-231.956 -205.807)" fill="none" stroke="#fff" stroke-linecap="round" stroke-linejoin="round" stroke-width="1"/>
            <path id="Trazado_134389" data-name="Trazado 134389" d="M260.862,249.5l9.527-5.4v-9.714" transform="translate(-228.941 -202.826)" fill="none" stroke="#fff" stroke-linecap="round" stroke-linejoin="round" stroke-width="1"/>
          </g>
          <g id="Grupo_79481" data-name="Grupo 79481" transform="translate(302.359 197.429)">
            <path id="Trazado_134390" data-name="Trazado 134390" d="M285.031,180.172l-9.527,5.4v9.714" transform="translate(-275.504 -180.172)" fill="none" stroke="#fff" stroke-linecap="round" stroke-linejoin="round" stroke-width="1"/>
            <path id="Trazado_134391" data-name="Trazado 134391" d="M304.411,223.867l9.527-5.4v-9.714" transform="translate(-272.489 -177.191)" fill="none" stroke="#fff" stroke-linecap="round" stroke-linejoin="round" stroke-width="1"/>
          </g>
          <path id="Trazado_134392" data-name="Trazado 134392" d="M187.854,281.04v8.268l6.38-3.206" transform="translate(17.712 27.778)" fill="none" stroke="#fff" stroke-linecap="round" stroke-linejoin="round" stroke-width="1"/>
          <path id="Trazado_134393" data-name="Trazado 134393" d="M231.956,256.784v8.269l6.38-3.207" transform="translate(22.312 25.248)" fill="none" stroke="#fff" stroke-linecap="round" stroke-linejoin="round" stroke-width="1"/>
          <path id="Trazado_134394" data-name="Trazado 134394" d="M275.144,232.044v8.268l6.38-3.206" transform="translate(26.817 22.667)" fill="none" stroke="#fff" stroke-linecap="round" stroke-linejoin="round" stroke-width="1"/>
          <g id="Grupo_79490" data-name="Grupo 79490" transform="translate(111.945 204.865)">
            <g id="Grupo_79482" data-name="Grupo 79482" transform="translate(9.399)">
              <path id="Trazado_134395" data-name="Trazado 134395" d="M161.846,274.487h0c.11-.633.23-1.278.356-1.93h0Q162.013,273.537,161.846,274.487Z" transform="translate(-106.345 -177.972)" fill="none"/>
              <path id="Trazado_134396" data-name="Trazado 134396" d="M161.333,277.794v0q.073-.565.158-1.144v0C161.435,277.041,161.382,277.421,161.333,277.794Z" transform="translate(-106.398 -177.545)" fill="none"/>
              <path id="Trazado_134397" data-name="Trazado 134397" d="M160.981,281.109h0c.019-.243.042-.494.064-.743v0C161.023,280.618,161,280.866,160.981,281.109Z" transform="translate(-106.435 -177.157)" fill="none"/>
              <path id="Trazado_134398" data-name="Trazado 134398" d="M161.168,279.13c.024-.219.049-.436.075-.658v0C161.217,278.7,161.192,278.913,161.168,279.13Z" transform="translate(-106.415 -177.355)" fill="none"/>
              <path id="Trazado_134399" data-name="Trazado 134399" d="M162.651,270.4c.145-.668.295-1.342.456-2.025-.161.682-.31,1.356-.455,2.023Z" transform="translate(-106.261 -178.409)" fill="none"/>
              <path id="Trazado_134400" data-name="Trazado 134400" d="M169.349,241.809c.16-.685.329-1.369.5-2.053v0C169.678,240.442,169.509,241.125,169.349,241.809Z" transform="translate(-105.562 -181.393)" fill="none"/>
              <path id="Trazado_134401" data-name="Trazado 134401" d="M162.258,272.245h0q.149-.757.313-1.528v0Q162.407,271.49,162.258,272.245Z" transform="translate(-106.302 -178.164)" fill="none"/>
              <path id="Trazado_134402" data-name="Trazado 134402" d="M162.219,291.273a4.472,4.472,0,0,1-.4-.66h0A4.472,4.472,0,0,0,162.219,291.273Z" transform="translate(-106.347 -176.089)" fill="none"/>
              <path id="Trazado_134403" data-name="Trazado 134403" d="M160.847,284.776c0-.136-.007-.263-.007-.4h0C160.84,284.513,160.844,284.644,160.847,284.776Z" transform="translate(-106.45 -176.739)" fill="none"/>
              <path id="Trazado_134404" data-name="Trazado 134404" d="M161.745,290.423v0c-.077-.177-.157-.349-.225-.547h0C161.589,290.077,161.668,290.248,161.745,290.423Z" transform="translate(-106.379 -176.165)" fill="none"/>
              <path id="Trazado_134405" data-name="Trazado 134405" d="M161.025,287.561c-.013-.1-.027-.209-.039-.317.013.1.025.205.038.307Z" transform="translate(-106.434 -176.44)" fill="none"/>
              <path id="Trazado_134406" data-name="Trazado 134406" d="M161.189,288.58c-.035-.183-.075-.357-.106-.551h0C161.114,288.223,161.153,288.4,161.189,288.58Z" transform="translate(-106.424 -176.358)" fill="none"/>
              <path id="Trazado_134407" data-name="Trazado 134407" d="M161.431,289.568c-.03-.1-.06-.2-.088-.31.03.1.057.2.087.3Z" transform="translate(-106.397 -176.23)" fill="none"/>
              <path id="Trazado_134408" data-name="Trazado 134408" d="M176.426,220.566v0h0Z" transform="translate(-104.824 -183.395)" fill="none"/>
              <path id="Trazado_134409" data-name="Trazado 134409" d="M179.259,215.047q.169-.295.339-.583-.171.288-.339.583Z" transform="translate(-104.528 -184.032)" fill="none"/>
              <path id="Trazado_134410" data-name="Trazado 134410" d="M178.233,216.864c.022-.042.045-.081.067-.124-.022.041-.045.082-.067.124Z" transform="translate(-104.635 -183.794)" fill="none"/>
              <path id="Trazado_134411" data-name="Trazado 134411" d="M180.134,213.609c.173-.277.347-.561.519-.824-.172.263-.346.547-.519.824Z" transform="translate(-104.437 -184.207)" fill="none"/>
              <path id="Trazado_134412" data-name="Trazado 134412" d="M172.323,231.282q.288-.866.585-1.722v0Q172.611,230.416,172.323,231.282Z" transform="translate(-105.252 -182.457)" fill="none"/>
              <path id="Trazado_134413" data-name="Trazado 134413" d="M171.039,235.4q.265-.906.543-1.8-.277.9-.543,1.8Z" transform="translate(-105.386 -182.036)" fill="none"/>
              <path id="Trazado_134414" data-name="Trazado 134414" d="M170.878,235.807l.06-.213h0Z" transform="translate(-105.403 -181.828)" fill="none"/>
              <path id="Trazado_134415" data-name="Trazado 134415" d="M173.191,228.668l.245-.68v0C173.353,228.215,173.273,228.443,173.191,228.668Z" transform="translate(-105.161 -182.621)" fill="none"/>
              <path id="Trazado_134416" data-name="Trazado 134416" d="M171.672,233.323l0,0q.3-.966.616-1.922l0,.007Q171.973,232.361,171.672,233.323Z" transform="translate(-105.32 -182.264)" fill="none"/>
              <path id="Trazado_134417" data-name="Trazado 134417" d="M169.92,239.489v0q.262-1.02.537-2.036v0C170.271,238.133,170.094,238.811,169.92,239.489Z" transform="translate(-105.503 -181.633)" fill="none"/>
              <path id="Trazado_134418" data-name="Trazado 134418" d="M182.666,213.935c-.172.263-.346.547-.519.824-.209.335-.417.676-.626,1.029h0q-.171.288-.339.583c-.348.605-.695,1.229-1.04,1.884l-.025.046c-.022.043-.045.082-.067.124-.415.791-.827,1.624-1.236,2.478-.113.234-.225.468-.338.707q-.212.452-.422.914v0q-.217.475-.432.96c-.138.313-.276.63-.413.948-.117.274-.235.551-.352.83-.391.931-.777,1.88-1.155,2.853-.065.167-.128.337-.192.5q-.4,1.037-.783,2.1l-.245.68c-.046.131-.094.262-.14.393-.078.221-.157.441-.233.663q-.3.855-.585,1.722l-.06.177-.045.139q-.315.954-.616,1.921c-.034.113-.07.223-.1.336-.017.053-.032.107-.049.161q-.277.9-.543,1.8l-.118.4-.06.213c-.176.606-.349,1.213-.516,1.822l-.005.02q-.277,1.015-.537,2.036c-.043.168-.086.336-.128.5q-.26,1.025-.5,2.053L163.3,275.318c-.161.684-.311,1.357-.456,2.025-.041.19-.081.379-.121.568q-.162.772-.313,1.528c-.033.168-.067.337-.1.5-.126.653-.245,1.3-.356,1.93-.02.12-.038.235-.058.353-.087.518-.17,1.03-.247,1.534-.036.238-.07.47-.1.7q-.084.578-.158,1.144-.058.437-.107.866c-.026.222-.051.44-.075.658-.01.094-.022.189-.032.283-.041.391-.077.773-.11,1.152-.022.25-.045.5-.064.743-.056.729-.1,1.439-.125,2.115-.011.29-.013.564-.018.845,0,.241-.013.489-.013.722,0,.139.006.266.007.4s.005.263.008.393c.006.223.006.456.014.671.011.253.031.485.047.726.014.208.023.424.042.623.012.124.029.238.043.355s.025.212.039.317c.023.183.042.375.068.55.031.194.071.368.106.551l.012.063c.032.158.058.328.094.477.022.1.05.178.075.266.029.106.059.209.088.31.036.124.068.26.108.377.068.2.148.37.225.547.038.085.07.183.109.263a4.484,4.484,0,0,0,.4.66l3.9,5.3,24.45-104.086Z" transform="translate(-106.45 -185.357)" fill="#263238"/>
              <path id="Trazado_134419" data-name="Trazado 134419" d="M167.064,301.43h0c-.04-.08-.072-.178-.109-.263v0c-.077-.176-.156-.347-.224-.543h0c-.04-.117-.072-.253-.108-.377v-.007c-.03-.1-.057-.2-.087-.3s-.053-.171-.075-.266c-.035-.149-.062-.319-.094-.477l-.012-.063c-.036-.181-.075-.357-.106-.551h0c-.026-.174-.045-.367-.068-.55v-.01c-.012-.1-.024-.207-.038-.307-.014-.117-.031-.231-.043-.354-.019-.2-.028-.415-.042-.623-.017-.241-.036-.473-.048-.726-.009-.215-.009-.448-.014-.671,0-.13,0-.264-.008-.393s-.007-.263-.007-.4h0c0-.233.009-.481.013-.722,0-.281.007-.554.018-.845.024-.676.068-1.386.125-2.115h0c.019-.243.042-.491.064-.74v0c.033-.379.07-.761.11-1.152.01-.094.022-.189.032-.283.024-.218.049-.435.074-.656v0q.05-.429.107-.866v0c.049-.373.1-.753.157-1.137v0c.033-.233.066-.466.1-.7.077-.5.16-1.016.247-1.534.021-.118.039-.233.059-.353h0q.166-.949.354-1.929h0c.032-.167.066-.336.1-.5h0q.149-.754.313-1.525v0c.041-.189.081-.378.122-.568v0c.145-.667.294-1.341.455-2.023l6.941-29.546c.16-.684.329-1.367.5-2.05v0c.042-.169.085-.337.128-.5v0c.174-.678.351-1.356.537-2.032v0l.006-.02c.167-.61.34-1.216.516-1.822l.06-.212h0l.118-.4v0q.267-.9.543-1.8c.017-.054.032-.108.049-.161.035-.113.071-.223.1-.336l0,0q.3-.962.612-1.912l0-.007.045-.139.06-.177q.288-.865.584-1.718v0c.076-.222.155-.442.233-.663.046-.131.094-.262.14-.393.082-.225.162-.453.244-.678v0q.386-1.063.783-2.1c.064-.168.127-.338.192-.5.378-.974.764-1.923,1.155-2.853.117-.279.235-.557.352-.83.137-.318.275-.635.413-.948s.287-.643.432-.96v0h0q.21-.462.422-.914c.113-.239.225-.473.338-.707.409-.854.821-1.687,1.236-2.478h0c.022-.042.045-.083.067-.124l.025-.046c.346-.655.692-1.279,1.04-1.884h0q.169-.295.339-.583h0c.209-.353.417-.695.626-1.029h0c.173-.277.347-.561.519-.824l8.006-12.177-54.39-16.4-8.006,12.177q-.142.215-.285.44c-.077.121-.157.259-.234.385-.209.334-.416.674-.625,1.026-.063.107-.126.2-.189.31-.052.088-.1.188-.152.276-.348.606-.7,1.231-1.042,1.887-.024.046-.049.086-.074.134l-.015.032c-.415.791-.828,1.626-1.238,2.48-.047.1-.095.186-.142.285-.065.136-.128.281-.193.419q-.212.454-.423.919c-.145.316-.288.634-.431.957s-.276.631-.414.951c-.076.177-.154.347-.229.525-.042.1-.082.205-.124.3-.391.932-.777,1.882-1.156,2.857-.014.035-.029.067-.042.1-.049.126-.095.258-.144.385q-.4,1.045-.791,2.119c-.047.131-.1.258-.146.391-.079.222-.157.447-.235.67l-.239.677c-.044.127-.089.252-.133.379q-.248.722-.49,1.453l-.019.059c-.015.049-.031.1-.047.146q-.19.58-.379,1.165c-.078.246-.155.495-.232.742-.036.115-.073.23-.108.345l-.079.254q-.207.671-.406,1.345c-.035.119-.068.237-.1.356-.041.139-.081.279-.121.419-.06.206-.121.412-.18.618q-.2.7-.392,1.4l-.008.029,0,.01q-.2.747-.4,1.5c-.045.173-.088.348-.133.521s-.088.346-.133.519-.086.334-.127.5q-.192.772-.373,1.545l-6.941,29.546-.008.033q-.189.807-.364,1.6c-.029.131-.055.261-.083.392-.042.191-.082.381-.123.571-.045.213-.093.43-.137.642-.061.3-.117.591-.176.886-.033.168-.067.337-.1.5-.014.074-.031.151-.045.225-.1.552-.2,1.1-.3,1.637l-.011.067c-.021.119-.039.235-.059.354-.072.421-.144.843-.208,1.255-.014.095-.026.184-.041.279-.036.238-.07.473-.1.708s-.076.5-.109.75c-.018.133-.031.257-.047.388-.039.294-.073.582-.107.869-.023.191-.051.39-.072.578-.014.124-.022.238-.035.361-.041.392-.077.775-.11,1.154-.015.173-.038.358-.051.529-.007.073-.008.139-.013.212-.056.73-.1,1.44-.125,2.117l0,.052c-.01.268-.01.518-.014.777s-.013.5-.013.737c0,.271.009.522.014.781,0,.23.006.467.014.687.011.248.031.476.046.712.014.212.024.433.043.635.022.232.054.443.082.663.023.186.041.382.068.559.034.216.078.411.119.614.031.158.057.327.093.477.048.2.107.383.162.57.038.126.07.265.11.383.067.2.146.368.223.543.038.086.071.186.11.266a4.41,4.41,0,0,0,.4.659l3.9,5.3,54.39,16.4-3.9-5.3A4.485,4.485,0,0,1,167.064,301.43Z" transform="translate(-111.587 -186.906)" fill="#37474f"/>
            </g>
            <g id="Grupo_79487" data-name="Grupo 79487" transform="translate(0 31.056)">
              <g id="Grupo_79483" data-name="Grupo 79483" transform="translate(38.006 187.663)">
                <path id="Trazado_134420" data-name="Trazado 134420" d="M137.492,425.185V434.2a1.584,1.584,0,1,0,3.167,0v-9.011Z" transform="translate(-137.492 -380.771)" fill="#1565c0"/>
                <path id="Trazado_134421" data-name="Trazado 134421" d="M140.659,386.55a1.584,1.584,0,0,0-3.167,0V429.38h3.167Z" transform="translate(-137.492 -384.966)" fill="#455a64"/>
              </g>
              <g id="Grupo_79484" data-name="Grupo 79484" transform="translate(42.361 185.8)">
                <path id="Trazado_134422" data-name="Trazado 134422" d="M144.081,383.688a1.584,1.584,0,0,0-2.122,2.351l28.478,25.716,2.242-2.242Z" transform="translate(-141.436 -383.279)" fill="#455a64"/>
                <path id="Trazado_134423" data-name="Trazado 134423" d="M174.993,411.6l-5.054-4.564-2.242,2.242,5.174,4.672a1.583,1.583,0,1,0,2.122-2.35Z" transform="translate(-138.696 -380.801)" fill="#1565c0"/>
              </g>
              <g id="Grupo_79485" data-name="Grupo 79485" transform="translate(0 185.8)">
                <path id="Trazado_134424" data-name="Trazado 134424" d="M103.6,411.6a1.583,1.583,0,1,0,2.122,2.35l5.174-4.672-2.243-2.242Z" transform="translate(-103.076 -380.801)" fill="#1565c0"/>
                <path id="Trazado_134425" data-name="Trazado 134425" d="M138.959,383.8a1.582,1.582,0,0,0-2.236-.115l-28.6,25.825,2.243,2.242,28.478-25.716A1.583,1.583,0,0,0,138.959,383.8Z" transform="translate(-102.549 -383.279)" fill="#455a64"/>
              </g>
              <path id="Trazado_134426" data-name="Trazado 134426" d="M146.423,386.618a14.532,14.532,0,0,1-13.188,0c-1.828-1.054-2.745-2.437-2.753-3.819h0v5.4c.008,1.383.925,2.765,2.753,3.82a14.532,14.532,0,0,0,13.188,0c1.816-1.055,2.718-2.437,2.71-3.82v-5.4C149.14,384.18,148.238,385.563,146.423,386.618Z" transform="translate(-100.217 -197.529)" fill="#37474f"/>
              <path id="Trazado_134427" data-name="Trazado 134427" d="M133.235,387.128a14.533,14.533,0,0,0,13.188,0c1.816-1.055,2.718-2.437,2.71-3.819s-.925-2.765-2.753-3.82a14.528,14.528,0,0,0-13.189,0c-1.814,1.055-2.717,2.437-2.709,3.82S131.407,386.073,133.235,387.128Z" transform="translate(-100.217 -198.039)" fill="#455a64"/>
              <path id="Trazado_134428" data-name="Trazado 134428" d="M133.235,387.128a14.533,14.533,0,0,0,13.188,0c1.816-1.055,2.718-2.437,2.71-3.819s-.925-2.765-2.753-3.82a14.528,14.528,0,0,0-13.189,0c-1.814,1.055-2.717,2.437-2.709,3.82S131.407,386.073,133.235,387.128Z" transform="translate(-100.217 -198.039)" fill="#fff" opacity="0.2"/>
              <path id="Trazado_134429" data-name="Trazado 134429" d="M137.182,216.038V400.033h0a.971.971,0,0,0,.569.79,3.006,3.006,0,0,0,2.724,0,.953.953,0,0,0,.559-.79V216.038Z" transform="translate(-99.518 -214.923)" fill="#455a64"/>
              <g id="Grupo_79486" data-name="Grupo 79486" transform="translate(37.664)">
                <path id="Trazado_134430" data-name="Trazado 134430" d="M137.751,216.933a3.006,3.006,0,0,0,2.724,0,.953.953,0,0,0,.559-.79.966.966,0,0,0-.568-.788,3.006,3.006,0,0,0-2.724,0,.955.955,0,0,0-.56.788A.967.967,0,0,0,137.751,216.933Z" transform="translate(-137.182 -215.029)" fill="#455a64"/>
                <path id="Trazado_134431" data-name="Trazado 134431" d="M137.751,216.933a3.006,3.006,0,0,0,2.724,0,.953.953,0,0,0,.559-.79.966.966,0,0,0-.568-.788,3.006,3.006,0,0,0-2.724,0,.955.955,0,0,0-.56.788A.967.967,0,0,0,137.751,216.933Z" transform="translate(-137.182 -215.029)" fill="#fff" opacity="0.2"/>
              </g>
            </g>
            <g id="Grupo_79489" data-name="Grupo 79489" transform="translate(23.856 48.775)">
              <g id="Grupo_79488" data-name="Grupo 79488">
                <path id="Trazado_134432" data-name="Trazado 134432" d="M140.244,231.074a11.664,11.664,0,0,0-2.148.207v-.007a30.553,30.553,0,0,0-9.493,3.857l.147,5.824a11.174,11.174,0,0,0,.1,4.165l.136,5.395a33.951,33.951,0,0,0,8.736,3.559c.088.02.177.041.266.059.034.007.068.015.1.023v-.008a11.637,11.637,0,1,0,2.148-23.074Z" transform="translate(-124.269 -231.074)" fill="#f0f0f0"/>
                <circle id="Elipse_4890" data-name="Elipse 4890" cx="8.803" cy="8.803" r="8.803" transform="translate(0 2.837)" fill="#f0f0f0"/>
                <circle id="Elipse_4891" data-name="Elipse 4891" cx="8.803" cy="8.803" r="8.803" transform="translate(0 2.837)" fill="#e0e0e0"/>
              </g>
              <path id="Trazado_134433" data-name="Trazado 134433" d="M140.654,231.074a11.664,11.664,0,0,0-2.148.207v-.007a30.386,30.386,0,0,0-9.213,3.7l-.027.015c-.083.05-.17.095-.253.146v.008a8.792,8.792,0,0,0,.388,15.372v0a33.953,33.953,0,0,0,8.736,3.559c.088.02.177.041.266.059.034.007.068.015.1.023v-.008a11.637,11.637,0,1,0,2.148-23.074Z" transform="translate(-124.679 -231.074)" opacity="0.1"/>
            </g>
          </g>
          <g id="Grupo_79521" data-name="Grupo 79521" transform="translate(332.987 266.21)">
            <g id="Grupo_79498" data-name="Grupo 79498" transform="translate(1.19 10.908)">
              <g id="Grupo_79491" data-name="Grupo 79491" transform="translate(24.336 101.746)">
                <path id="Trazado_134434" data-name="Trazado 134434" d="M326.355,385.828v9.266a1.628,1.628,0,1,0,3.257,0v-9.266Z" transform="translate(-326.355 -340.155)" fill="#1565c0"/>
                <path id="Trazado_134435" data-name="Trazado 134435" d="M329.612,346.1a1.628,1.628,0,0,0-3.257,0v44.045h3.257Z" transform="translate(-326.355 -344.469)" fill="#455a64"/>
              </g>
              <g id="Grupo_79492" data-name="Grupo 79492" transform="translate(0 99.284)">
                <path id="Trazado_134436" data-name="Trazado 134436" d="M304.5,381.049a1.629,1.629,0,0,0,2.888,1.507l3.317-6.355-2.964-1.361Z" transform="translate(-304.317 -338.839)" fill="#1565c0"/>
                <path id="Trazado_134437" data-name="Trazado 134437" d="M327.955,342.426a1.625,1.625,0,0,0-2.2.69L307.42,378.242l2.964,1.361,18.26-34.979A1.628,1.628,0,0,0,327.955,342.426Z" transform="translate(-303.994 -342.24)" fill="#455a64"/>
              </g>
              <g id="Grupo_79493" data-name="Grupo 79493" transform="translate(27.093 99.284)">
                <path id="Trazado_134438" data-name="Trazado 134438" d="M351.76,381.049a1.629,1.629,0,0,1-2.888,1.507l-3.317-6.355,2.964-1.361Z" transform="translate(-327.109 -338.839)" fill="#1565c0"/>
                <path id="Trazado_134439" data-name="Trazado 134439" d="M329.727,342.426a1.625,1.625,0,0,1,2.2.69l18.338,35.126L347.3,379.6l-18.26-34.979A1.628,1.628,0,0,1,329.727,342.426Z" transform="translate(-328.852 -342.24)" fill="#455a64"/>
              </g>
              <g id="Grupo_79494" data-name="Grupo 79494" transform="translate(18.291 95.556)">
                <path id="Trazado_134440" data-name="Trazado 134440" d="M334,346.031a11.953,11.953,0,0,1-10.85,0,3.852,3.852,0,0,1-2.265-3.143h0v4.445a3.855,3.855,0,0,0,2.266,3.143,11.959,11.959,0,0,0,10.85,0,3.8,3.8,0,0,0,2.23-3.143v-4.445A3.8,3.8,0,0,1,334,346.031Z" transform="translate(-320.881 -338.444)" fill="#263238"/>
                <path id="Trazado_134441" data-name="Trazado 134441" d="M323.147,346.451a11.953,11.953,0,0,0,10.85,0,3.8,3.8,0,0,0,2.23-3.143,3.846,3.846,0,0,0-2.265-3.142,11.959,11.959,0,0,0-10.851,0,3.8,3.8,0,0,0-2.229,3.143A3.852,3.852,0,0,0,323.147,346.451Z" transform="translate(-320.881 -338.864)" fill="#455a64"/>
                <path id="Trazado_134442" data-name="Trazado 134442" d="M323.147,346.451a11.953,11.953,0,0,0,10.85,0,3.8,3.8,0,0,0,2.23-3.143,3.846,3.846,0,0,0-2.265-3.142,11.959,11.959,0,0,0-10.851,0,3.8,3.8,0,0,0-2.229,3.143A3.852,3.852,0,0,0,323.147,346.451Z" transform="translate(-320.881 -338.864)" fill="#37474f"/>
              </g>
              <path id="Trazado_134443" data-name="Trazado 134443" d="M326.036,253.372v97.974h0a.993.993,0,0,0,.584.811,3.086,3.086,0,0,0,2.8,0,.978.978,0,0,0,.575-.811V253.372Z" transform="translate(-302.052 -252.225)" fill="#455a64"/>
              <g id="Grupo_79495" data-name="Grupo 79495" transform="translate(23.984)">
                <path id="Trazado_134444" data-name="Trazado 134444" d="M326.62,254.292a3.093,3.093,0,0,0,2.8,0,.982.982,0,0,0,.575-.812.993.993,0,0,0-.584-.811,3.086,3.086,0,0,0-2.8,0,.977.977,0,0,0-.575.811A.994.994,0,0,0,326.62,254.292Z" transform="translate(-326.036 -252.334)" fill="#455a64"/>
                <path id="Trazado_134445" data-name="Trazado 134445" d="M326.62,254.292a3.093,3.093,0,0,0,2.8,0,.982.982,0,0,0,.575-.812.993.993,0,0,0-.584-.811,3.086,3.086,0,0,0-2.8,0,.977.977,0,0,0-.575.811A.994.994,0,0,0,326.62,254.292Z" transform="translate(-326.036 -252.334)" fill="#fff" opacity="0.2"/>
              </g>
              <g id="Grupo_79496" data-name="Grupo 79496" transform="translate(7 131.376)">
                <path id="Trazado_134446" data-name="Trazado 134446" d="M312.331,372.111l15.661,4.376v2.935l-17.337-4.368Z" transform="translate(-310.656 -371.216)" fill="#263238"/>
                <path id="Trazado_134447" data-name="Trazado 134447" d="M312.173,372.2l15.662,4.376v-.952L312.64,371.3Z" transform="translate(-310.497 -371.3)" fill="#37474f"/>
                <path id="Trazado_134448" data-name="Trazado 134448" d="M312.173,372.2l15.662,4.376v-.952L312.64,371.3Z" transform="translate(-310.497 -371.3)" fill="#37474f"/>
              </g>
              <g id="Grupo_79497" data-name="Grupo 79497" transform="translate(27.593 131.376)">
                <path id="Trazado_134449" data-name="Trazado 134449" d="M344.966,372.111,329.3,376.486v2.935l17.337-4.368Z" transform="translate(-329.304 -371.216)" fill="#263238"/>
                <path id="Trazado_134450" data-name="Trazado 134450" d="M344.966,372.2,329.3,376.571v-.952L344.5,371.3Z" transform="translate(-329.304 -371.3)" fill="#37474f"/>
                <path id="Trazado_134451" data-name="Trazado 134451" d="M344.966,372.2,329.3,376.571v-.952L344.5,371.3Z" transform="translate(-329.304 -371.3)" fill="#37474f"/>
              </g>
            </g>
            <g id="Grupo_79499" data-name="Grupo 79499" transform="translate(19.481 20.491)">
              <path id="Trazado_134452" data-name="Trazado 134452" d="M334,268.179a11.959,11.959,0,0,1-10.85,0,3.853,3.853,0,0,1-2.266-3.143h0v8.056a3.855,3.855,0,0,0,2.266,3.143,11.956,11.956,0,0,0,10.85,0,3.8,3.8,0,0,0,2.23-3.143v-8.056A3.8,3.8,0,0,1,334,268.179Z" transform="translate(-320.881 -260.592)" fill="#263238"/>
              <path id="Trazado_134453" data-name="Trazado 134453" d="M323.147,268.6a11.959,11.959,0,0,0,10.85,0,3.8,3.8,0,0,0,2.229-3.143,3.849,3.849,0,0,0-2.265-3.143,11.962,11.962,0,0,0-10.851,0,3.8,3.8,0,0,0-2.23,3.143A3.853,3.853,0,0,0,323.147,268.6Z" transform="translate(-320.881 -261.012)" fill="#455a64"/>
              <path id="Trazado_134454" data-name="Trazado 134454" d="M323.147,268.6a11.959,11.959,0,0,0,10.85,0,3.8,3.8,0,0,0,2.229-3.143,3.849,3.849,0,0,0-2.265-3.143,11.962,11.962,0,0,0-10.851,0,3.8,3.8,0,0,0-2.23,3.143A3.853,3.853,0,0,0,323.147,268.6Z" transform="translate(-320.881 -261.012)" fill="#fff" opacity="0.2"/>
            </g>
            <g id="Grupo_79519" data-name="Grupo 79519">
              <g id="Grupo_79501" data-name="Grupo 79501">
                <path id="Trazado_134455" data-name="Trazado 134455" d="M311.682,259.928a14.928,14.928,0,0,1,6.776-11.731c1.862-1.074,3.549-1.186,4.78-.5h0l-8.088-4.583,0,.006c-1.249-.928-3.084-.915-5.133.267a14.925,14.925,0,0,0-6.775,11.73c.006,2.148.766,3.656,1.992,4.363h0l.006,0,.019.011,8.34,4.8.024-.041C312.428,263.533,311.688,262.042,311.682,259.928Z" transform="translate(-303.24 -242.456)" fill="#37474f"/>
                <path id="Trazado_134456" data-name="Trazado 134456" d="M322.44,247.242c-1.23-.685-2.918-.573-4.779.5a14.928,14.928,0,0,0-6.776,11.731c.006,2.114.745,3.6,1.937,4.326,1.24.75,2.969.666,4.883-.438a14.928,14.928,0,0,0,6.77-11.734C324.47,249.455,323.692,247.937,322.44,247.242Z" transform="translate(-302.443 -242.002)" fill="#263238"/>
                <g id="Grupo_79500" data-name="Grupo 79500" transform="translate(1.059 0.798)">
                  <path id="Trazado_134457" data-name="Trazado 134457" d="M304.2,249.734l8.423,4.863a16.566,16.566,0,0,1,.906-1.85l-8.417-4.859A16.452,16.452,0,0,0,304.2,249.734Z" transform="translate(-304.199 -242.688)" fill="#455a64"/>
                  <path id="Trazado_134458" data-name="Trazado 134458" d="M318.12,248.122c.066-.038.13-.066.2-.1l-8.385-4.841c-.085.045-.168.081-.254.13a12.284,12.284,0,0,0-3.2,2.765l8.407,4.855A12.3,12.3,0,0,1,318.12,248.122Z" transform="translate(-303.961 -243.179)" fill="#455a64"/>
                </g>
              </g>
              <path id="Trazado_134459" data-name="Trazado 134459" d="M320.488,278l-.039-13.723a4.511,4.511,0,0,1,2.042-3.545l2.634-1.52a2.964,2.964,0,0,0,1.173-1.442l1.248-3.135a2.942,2.942,0,0,1,1.167-1.447l8.042-4.642c.48-.277.93-.246,1.177.093l1.256,1.69c.247.331.7.362,1.177.085l3.649-2.107a1.45,1.45,0,0,1,1.434-.149h0l-9.72-5.507v0a1.424,1.424,0,0,0-1.472.126L331,244.654,328,242.95a.621.621,0,0,0-.092-.052l-.039-.022v.011a1.015,1.015,0,0,0-.87.129l-8.042,4.642a2.941,2.941,0,0,0-1.166,1.445l-1.249,3.135a2.952,2.952,0,0,1-1.173,1.442l-2.633,1.521a4.512,4.512,0,0,0-2.043,3.545l.039,13.722a1.453,1.453,0,0,0,.579,1.3h0l.012.007.039.022,9.674,5.48v-.01A1.472,1.472,0,0,1,320.488,278Z" transform="translate(-302.463 -242.452)" fill="#37474f"/>
              <path id="Trazado_134460" data-name="Trazado 134460" d="M345.148,248.961a1.422,1.422,0,0,0-.622-1.327,1.45,1.45,0,0,0-1.434.149l-3.649,2.107c-.479.277-.93.246-1.177-.085l-1.256-1.69c-.247-.339-.7-.37-1.177-.093l-8.042,4.643a2.941,2.941,0,0,0-1.167,1.447l-1.248,3.135a2.964,2.964,0,0,1-1.173,1.442l-2.634,1.52a4.511,4.511,0,0,0-2.042,3.545l.039,13.723a1.472,1.472,0,0,0,.543,1.271,1.388,1.388,0,0,0,1.512-.093l21.523-12.427a4.51,4.51,0,0,0,2.042-3.544Z" transform="translate(-301.541 -241.93)" fill="#263238"/>
              <g id="Grupo_79511" data-name="Grupo 79511" transform="translate(38.122 12.179)">
                <g id="Grupo_79502" data-name="Grupo 79502" transform="translate(1.275 1.649)">
                  <path id="Trazado_134461" data-name="Trazado 134461" d="M339.868,255.109c.53-.306.961-.06.963.549a2.107,2.107,0,0,1-.956,1.656c-.526.3-.956.059-.958-.551A2.106,2.106,0,0,1,339.868,255.109Z" transform="translate(-338.916 -254.978)" fill="#bdbdbd"/>
                </g>
                <g id="Grupo_79503" data-name="Grupo 79503" transform="translate(0.001 3.967)">
                  <path id="Trazado_134462" data-name="Trazado 134462" d="M338.542,257.077a.83.83,0,0,0,1.244.7l0,.9a1.3,1.3,0,0,1-2.026-1.15Z" transform="translate(-337.762 -257.077)" fill="#bdbdbd"/>
                </g>
                <g id="Grupo_79504" data-name="Grupo 79504" transform="translate(0 0.442)">
                  <path id="Trazado_134463" data-name="Trazado 134463" d="M339.774,253.885l0,.9a3.338,3.338,0,0,0-1.236,2.136l-.78.451A5.032,5.032,0,0,1,339.774,253.885Z" transform="translate(-337.761 -253.885)" fill="#bdbdbd"/>
                </g>
                <g id="Grupo_79505" data-name="Grupo 79505" transform="translate(2.456 4.93)">
                  <path id="Trazado_134464" data-name="Trazado 134464" d="M341.512,258.017c.272-.157.491-.032.492.275a1.078,1.078,0,0,1-.489.843l-1.044.6c-.267.155-.487.029-.487-.278a1.073,1.073,0,0,1,.485-.839Z" transform="translate(-339.985 -257.95)" fill="#bdbdbd"/>
                </g>
                <g id="Grupo_79506" data-name="Grupo 79506" transform="translate(2.449 1.84)">
                  <path id="Trazado_134465" data-name="Trazado 134465" d="M342,255.151a5.043,5.043,0,0,1-2.013,3.482l0-.9a3.344,3.344,0,0,0,1.237-2.136Z" transform="translate(-339.979 -255.151)" fill="#bdbdbd"/>
                </g>
                <g id="Grupo_79507" data-name="Grupo 79507" transform="translate(2.438)">
                  <path id="Trazado_134466" data-name="Trazado 134466" d="M339.969,253.682a1.3,1.3,0,0,1,2.026,1.15l-.781.451a.83.83,0,0,0-1.243-.7Z" transform="translate(-339.969 -253.485)" fill="#bdbdbd"/>
                </g>
                <g id="Grupo_79508" data-name="Grupo 79508" transform="translate(0.015 7.947)">
                  <path id="Trazado_134467" data-name="Trazado 134467" d="M339.307,260.747c.267-.155.487-.029.488.278a1.072,1.072,0,0,1-.485.844l-1.042.6c-.272.157-.491.031-.493-.28a1.075,1.075,0,0,1,.489-.843Z" transform="translate(-337.775 -260.681)" fill="#bdbdbd"/>
                </g>
                <g id="Grupo_79509" data-name="Grupo 79509" transform="translate(0.011 6.341)">
                  <path id="Trazado_134468" data-name="Trazado 134468" d="M339.3,259.293c.267-.155.487-.03.488.277a1.072,1.072,0,0,1-.485.84l-1.042.6c-.272.157-.491.031-.493-.276a1.073,1.073,0,0,1,.489-.842Z" transform="translate(-337.771 -259.227)" fill="#bdbdbd"/>
                </g>
                <g id="Grupo_79510" data-name="Grupo 79510" transform="translate(2.46 6.536)">
                  <path id="Trazado_134469" data-name="Trazado 134469" d="M341.516,259.471c.272-.157.491-.032.492.276a1.076,1.076,0,0,1-.489.847l-1.042.6c-.267.154-.487.029-.488-.283a1.073,1.073,0,0,1,.485-.84Z" transform="translate(-339.989 -259.404)" fill="#bdbdbd"/>
                </g>
              </g>
              <g id="Grupo_79514" data-name="Grupo 79514" transform="translate(20.23 11.521)">
                <g id="Grupo_79512" data-name="Grupo 79512">
                  <path id="Trazado_134470" data-name="Trazado 134470" d="M338.848,252.889l.04,14.218L321.6,277.088l-.04-14.218Z" transform="translate(-321.559 -252.889)" fill="#455a64"/>
                </g>
                <g id="Grupo_79513" data-name="Grupo 79513" transform="translate(1.37 2.358)">
                  <path id="Trazado_134471" data-name="Trazado 134471" d="M337.357,255.024l.031,11.079-14.557,8.4-.031-11.078Z" transform="translate(-322.8 -255.024)" fill="#37474f"/>
                </g>
              </g>
              <path id="Trazado_134472" data-name="Trazado 134472" d="M320.685,262.289l.966.643,17.289-9.982-.966-.642Z" transform="translate(-301.42 -241.429)" fill="#455a64"/>
              <path id="Trazado_134473" data-name="Trazado 134473" d="M320.725,275.564l.965.643-.04-14.218-.966-.643Z" transform="translate(-301.42 -240.486)" fill="#455a64"/>
              <path id="Trazado_134474" data-name="Trazado 134474" d="M320.685,262.289l.966.643,17.289-9.982-.966-.642Z" transform="translate(-301.42 -241.429)" fill="#fff" opacity="0.3"/>
              <path id="Trazado_134475" data-name="Trazado 134475" d="M320.725,275.564l.965.643-.04-14.218-.966-.643Z" transform="translate(-301.42 -240.486)" fill="#fff" opacity="0.2"/>
              <g id="Grupo_79517" data-name="Grupo 79517" transform="translate(26.683 7.617)">
                <g id="Grupo_79515" data-name="Grupo 79515">
                  <path id="Trazado_134476" data-name="Trazado 134476" d="M328.578,257.222v0l-.011,0Z" transform="translate(-327.282 -248.534)" fill="#455a64"/>
                  <path id="Trazado_134477" data-name="Trazado 134477" d="M334.9,250.035l-.019-.012c.007,0,.01.013.015.018Z" transform="translate(-326.623 -249.284)" fill="#455a64"/>
                  <path id="Trazado_134478" data-name="Trazado 134478" d="M328.472,254.794a1.5,1.5,0,0,1,.68-1.179l6.024-3.477a.487.487,0,0,1,.48-.049L334.6,249.4v0a.467.467,0,0,0-.494.035l-6.024,3.477a1.5,1.5,0,0,0-.68,1.179l.008,2.8a.482.482,0,0,0,.188.425v0l.009.007.008,0,1.057.684a.486.486,0,0,1-.192-.432Z" transform="translate(-327.403 -249.354)" fill="#455a64"/>
                  <path id="Trazado_134479" data-name="Trazado 134479" d="M335.76,250.463a.48.48,0,0,0-.183-.417c-.006,0-.009-.014-.016-.018l-.005,0a.487.487,0,0,0-.48.049l-6.024,3.477a1.5,1.5,0,0,0-.68,1.179l.008,2.8a.486.486,0,0,0,.192.432l.016.01.011,0a.488.488,0,0,0,.466-.053l6.023-3.477a1.507,1.507,0,0,0,.681-1.179Z" transform="translate(-327.302 -249.289)" fill="#263238"/>
                </g>
                <g id="Grupo_79516" data-name="Grupo 79516" transform="translate(1.752 1.568)">
                  <path id="Trazado_134480" data-name="Trazado 134480" d="M335.013,250.774l.008,2.8L329,257.051l-.008-2.8Z" transform="translate(-328.989 -250.774)" fill="#37474f"/>
                </g>
              </g>
              <path id="Trazado_134481" data-name="Trazado 134481" d="M315.333,252.633l-2.633,1.521a4.389,4.389,0,0,0-1.682,1.994l9.72,5.62a4.425,4.425,0,0,1,1.718-2.086l2.634-1.519c.011-.007.021-.017.032-.023l-9.67-5.592C315.412,252.575,315.374,252.61,315.333,252.633Z" transform="translate(-302.428 -241.404)" fill="#455a64"/>
              <path id="Trazado_134482" data-name="Trazado 134482" d="M318.5,247.19a2.942,2.942,0,0,0-1.166,1.446l-1.249,3.135a3.01,3.01,0,0,1-1.053,1.356l9.67,5.592a2.978,2.978,0,0,0,1.141-1.419l1.248-3.135a2.943,2.943,0,0,1,1.167-1.447l.257-.148-9.659-5.586Z" transform="translate(-302.01 -241.984)" fill="#37474f"/>
              <path id="Trazado_134483" data-name="Trazado 134483" d="M333.811,242.647v0a1.424,1.424,0,0,0-1.472.126l-3.252,1.877,6.676,3.771v.007a.655.655,0,0,1,.251.205l1.256,1.69c.247.331.7.362,1.177.085l3.649-2.107a1.45,1.45,0,0,1,1.434-.149h0Z" transform="translate(-300.544 -242.452)" fill="#37474f"/>
              <path id="Trazado_134484" data-name="Trazado 134484" d="M330.19,244.622l-3.008-1.7a.63.63,0,0,0-.092-.052l-.039-.022v.011a1.015,1.015,0,0,0-.87.129l-7.686,4.437,9.659,5.586,7.784-4.495a.992.992,0,0,1,.927-.113v-.007Z" transform="translate(-301.649 -242.42)" fill="#455a64"/>
              <g id="Grupo_79518" data-name="Grupo 79518" transform="translate(20.233 0.784)">
                <path id="Trazado_134485" data-name="Trazado 134485" d="M327.817,243.166l-6.253,3.634,0,.786,6.294,3.634,6.253-3.634,0-.786Z" transform="translate(-321.562 -243.166)" fill="#e0e0e0"/>
                <path id="Trazado_134486" data-name="Trazado 134486" d="M327.264,250.091l0,.785,6.253-3.634,0-.786Z" transform="translate(-320.967 -242.823)" opacity="0.2"/>
                <path id="Trazado_134487" data-name="Trazado 134487" d="M321.564,246.457l0,.786,6.294,3.634,0-.785Z" transform="translate(-321.562 -242.823)" opacity="0.3"/>
              </g>
              <path id="Trazado_134488" data-name="Trazado 134488" d="M327.817,243.166l-6.253,3.634,0,.786,6.294,3.634,6.253-3.634,0-.786Z" transform="translate(-301.329 -242.382)" opacity="0.3"/>
            </g>
            <g id="Grupo_79520" data-name="Grupo 79520" transform="translate(30.404 31.651)">
              <path id="Trazado_134489" data-name="Trazado 134489" d="M333.492,271.539a1.628,1.628,0,1,0-2.182,2.417l21.139,19.086,2.306-2.306Z" transform="translate(-330.772 -271.118)" fill="#455a64"/>
              <path id="Trazado_134490" data-name="Trazado 134490" d="M368.7,302.891l-14.836-13.4s-.544-.5-1.086-.981c-.726-.648-3.487,2.117-2.751,2.751.847.73,1.2,1.088,1.2,1.088L366.1,305.775a1.943,1.943,0,1,0,2.6-2.885Z" transform="translate(-328.776 -269.314)" fill="#263238"/>
            </g>
          </g>
          <g id="Grupo_79522" data-name="Grupo 79522" transform="translate(408.984 168.007)">
            <path id="Trazado_134491" data-name="Trazado 134491" d="M403.92,173.667l0,0Z" transform="translate(-368.735 -151.429)" fill="none"/>
            <path id="Trazado_134492" data-name="Trazado 134492" d="M379.988,168.736a6.324,6.324,0,0,1,2.882,4.973c-.006,1.833-1.305,2.557-2.9,1.634a6.317,6.317,0,0,1-2.866-4.964C377.109,168.546,378.409,167.824,379.988,168.736Z" transform="translate(-371.532 -151.984)" fill="#fff"/>
            <path id="Trazado_134493" data-name="Trazado 134493" d="M389.23,174.071a6.326,6.326,0,0,1,2.882,4.974c-.005,1.833-1.305,2.555-2.9,1.634a6.315,6.315,0,0,1-2.866-4.964C386.35,173.882,387.65,173.159,389.23,174.071Z" transform="translate(-370.568 -151.428)" fill="#fff"/>
            <path id="Trazado_134494" data-name="Trazado 134494" d="M398.454,186.016a6.288,6.288,0,0,1-2.866-4.964c0-1.834,1.289-2.565,2.884-1.644a6.288,6.288,0,0,1,2.866,4.964C401.333,186.2,400.049,186.937,398.454,186.016Z" transform="translate(-369.604 -150.871)" fill="#fff"/>
            <path id="Trazado_134495" data-name="Trazado 134495" d="M372.058,159.025v18.1a6.125,6.125,0,0,0,3.086,5.318l24.214,13.837h0l-4.182-2.39,2.008,5.693a.335.335,0,0,0,.417.205l-.009.023c.356-.182,1.934-1.029,2.831-1.623l.016-.01c.019-.013.042-.027.06-.039l0-.012a.273.273,0,0,0,.079-.072l.494-.8,5.454,3.116a6.05,6.05,0,0,0,9.253-4.982V177.364a6.193,6.193,0,0,0-3.078-5.314l-31.385-18C378.565,152.469,372.058,154.607,372.058,159.025Zm25.984,24.685c0-1.834,1.289-2.565,2.884-1.644a6.288,6.288,0,0,1,2.866,4.964c-.006,1.833-1.289,2.565-2.885,1.644A6.288,6.288,0,0,1,398.042,183.71Zm-10.206-5.893c0-1.833,1.3-2.557,2.884-1.644a6.326,6.326,0,0,1,2.882,4.974c-.005,1.833-1.305,2.555-2.9,1.634A6.315,6.315,0,0,1,387.836,177.817Zm-10.206-5.893c.006-1.833,1.305-2.555,2.884-1.643a6.324,6.324,0,0,1,2.882,4.973c-.005,1.833-1.305,2.556-2.9,1.634A6.317,6.317,0,0,1,377.63,171.925Z" transform="translate(-372.058 -153.529)" fill="#1565c0"/>
            <path id="Trazado_134496" data-name="Trazado 134496" d="M398.164,194.022a.273.273,0,0,1-.079.072l0,.012c-.018.012-.041.025-.06.039l-.016.01c-.9.594-2.476,1.441-2.831,1.623l.009-.023a.321.321,0,0,0,.2-.139l1.945-3.149-.385-.22h0l1.711.977Z" transform="translate(-369.646 -149.491)" fill="#fff" opacity="0.2"/>
            <path id="Trazado_134497" data-name="Trazado 134497" d="M408.888,177.826a6.251,6.251,0,0,0-1.64-2.054l0,0a5.724,5.724,0,0,0-.743-.508l-31.384-18.006a2.042,2.042,0,0,0-3.058,1.771c0-4.418,6.507-6.556,9.255-4.979l31.385,18a6.11,6.11,0,0,1,2.282,2.315Z" transform="translate(-372.058 -153.529)" fill="#fff" opacity="0.4"/>
            <path id="Trazado_134498" data-name="Trazado 134498" d="M406.323,196.636V178.605a5.39,5.39,0,0,0-.049-.724,6.322,6.322,0,0,0-.642-2.023l6.092-3.461a6.106,6.106,0,0,1,.8,3v18.032a6.05,6.05,0,0,1-9.253,4.982A2.042,2.042,0,0,0,406.323,196.636Z" transform="translate(-368.803 -151.561)" fill="#fff" opacity="0.2"/>
          </g>
        </g>
      </g>
    </g>
  </g>
</svg>
