<svg xmlns="http://www.w3.org/2000/svg" xmlns:xlink="http://www.w3.org/1999/xlink" width="838" height="164.7" viewBox="0 0 838 164.7">
  <defs>
    <filter id="Trazado_108976" x="0" y="41.991" width="838" height="122.709" filterUnits="userSpaceOnUse">
      <feOffset dy="-3" input="SourceAlpha"/>
      <feGaussianBlur stdDeviation="3" result="blur"/>
      <feFlood flood-opacity="0.11"/>
      <feComposite operator="in" in2="blur"/>
      <feComposite in="SourceGraphic"/>
    </filter>
    <filter id="Trazado_134285" x="37.846" y="7.274" width="138.559" height="137.315" filterUnits="userSpaceOnUse">
      <feOffset input="SourceAlpha"/>
      <feGaussianBlur stdDeviation="3" result="blur-2"/>
      <feFlood flood-opacity="0.29"/>
      <feComposite operator="in" in2="blur-2"/>
      <feComposite in="SourceGraphic"/>
    </filter>
    <filter id="Trazado_134287" x="193.818" y="7.033" width="137.761" height="137.761" filterUnits="userSpaceOnUse">
      <feOffset input="SourceAlpha"/>
      <feGaussianBlur stdDeviation="3" result="blur-3"/>
      <feFlood flood-opacity="0.29"/>
      <feComposite operator="in" in2="blur-3"/>
      <feComposite in="SourceGraphic"/>
    </filter>
    <filter id="Trazado_134289" x="351.29" y="8.533" width="134.761" height="134.761" filterUnits="userSpaceOnUse">
      <feOffset input="SourceAlpha"/>
      <feGaussianBlur stdDeviation="2.5" result="blur-4"/>
      <feFlood flood-opacity="0.29"/>
      <feComposite operator="in" in2="blur-4"/>
      <feComposite in="SourceGraphic"/>
    </filter>
    <filter id="Trazado_134291" x="507.263" y="8.533" width="134.761" height="134.761" filterUnits="userSpaceOnUse">
      <feOffset input="SourceAlpha"/>
      <feGaussianBlur stdDeviation="2.5" result="blur-5"/>
      <feFlood flood-opacity="0.29"/>
      <feComposite operator="in" in2="blur-5"/>
      <feComposite in="SourceGraphic"/>
    </filter>
    <filter id="Trazado_134293" x="664.381" y="8.774" width="134.315" height="134.315" filterUnits="userSpaceOnUse">
      <feOffset input="SourceAlpha"/>
      <feGaussianBlur stdDeviation="2.5" result="blur-6"/>
      <feFlood flood-color="#3c3939" flood-opacity="0.294"/>
      <feComposite operator="in" in2="blur-6"/>
      <feComposite in="SourceGraphic"/>
    </filter>
  </defs>
  <g id="Grupo_79422" data-name="Grupo 79422" transform="translate(14629 9530.728)">
    <path id="Trazado_108946" data-name="Trazado 108946" d="M672.12,1788.316a66.208,66.208,0,0,1,62.354,44.174H744.8a75.919,75.919,0,0,0-145.366,0h10.329A66.208,66.208,0,0,1,672.12,1788.316Z" transform="translate(-15194.206 -11309.228)" fill="#b2ebf2"/>
    <path id="Trazado_108952" data-name="Trazado 108952" d="M910.37,1788.316a66.208,66.208,0,0,1,62.354,44.174h10.329a75.919,75.919,0,0,0-145.366,0h10.329A66.208,66.208,0,0,1,910.37,1788.316Z" transform="translate(-15276.484 -11309.228)" fill="#1f8a95"/>
    <path id="Trazado_108959" data-name="Trazado 108959" d="M1148.62,1788.316a66.208,66.208,0,0,1,62.354,44.174H1221.3a75.919,75.919,0,0,0-145.366,0h10.329A66.208,66.208,0,0,1,1148.62,1788.316Z" transform="translate(-15358.762 -11309.228)" fill="#d57700"/>
    <path id="Trazado_108969" data-name="Trazado 108969" d="M1386.87,1788.316a66.207,66.207,0,0,1,62.354,44.174h10.329a75.919,75.919,0,0,0-145.366,0h10.329A66.208,66.208,0,0,1,1386.87,1788.316Z" transform="translate(-15441.04 -11309.228)" fill="#92e6f0"/>
    <path id="Trazado_108971" data-name="Trazado 108971" d="M1625.12,1788.316a66.208,66.208,0,0,1,62.354,44.174H1697.8a75.919,75.919,0,0,0-145.366,0h10.329A66.208,66.208,0,0,1,1625.12,1788.316Z" transform="translate(-15522.171 -11309.228)" fill="#2e74bc"/>
    <g transform="matrix(1, 0, 0, 1, -14629, -9530.73)" filter="url(#Trazado_108976)">
      <path id="Trazado_108976-2" data-name="Trazado 108976" d="M1358.582,1861H583.418A22.418,22.418,0,0,0,561,1883.418v59.873a22.418,22.418,0,0,0,22.418,22.418h775.164A22.418,22.418,0,0,0,1381,1943.291v-59.873A22.418,22.418,0,0,0,1358.582,1861Z" transform="translate(-552 -1807.01)" fill="#f6f6f6"/>
    </g>
    <g transform="matrix(1, 0, 0, 1, -14629, -9530.73)" filter="url(#Trazado_134285)">
      <path id="Trazado_134285-2" data-name="Trazado 134285" d="M60.279,0c33.291,0,60.279,26.71,60.279,59.658s-26.988,59.658-60.279,59.658S0,92.606,0,59.658,26.988,0,60.279,0Z" transform="translate(46.85 16.27)" fill="#1565c0"/>
    </g>
    <g id="Grupo_73923" data-name="Grupo 73923" transform="translate(-14545.455 -9486.558)">
      <path id="Trazado_108947" data-name="Trazado 108947" d="M746.6,1893.433a.5.5,0,0,0,.078-.191A1.238,1.238,0,0,1,746.6,1893.433Z" transform="translate(-699.181 -1862.98)" fill="#fff"/>
      <path id="Trazado_108948" data-name="Trazado 108948" d="M712.608,1884c0-.631,0-.625-.631-.683a5.241,5.241,0,0,1-4.863-3.593c-1.191-3.213-2.461-6.4-3.7-9.591q-4.174-10.8-8.336-21.6a.566.566,0,0,0-.666-.444,11.783,11.783,0,0,1-1.578,0,.617.617,0,0,0-.73.485q-4.417,11.423-8.868,22.832c-1.119,2.86-2.186,5.742-3.443,8.546a5.246,5.246,0,0,1-3.645,3.1c-.663.168-1.338.24-2.008.354v2.6c.169-.009.338-.026.507-.026q3.207,0,6.413,0c2.4,0,4.8-.009,7.2.009.377,0,.477-.106.456-.467-.03-.509-.008-1.021-.008-1.532,0-.627,0-.628-.647-.667a10.88,10.88,0,0,1-3.568-.749c-.956-.4-1.124-.708-.991-1.745.026-.2.043-.4.088-.6a58.746,58.746,0,0,1,2.168-6.641c.1-.283.289-.263.508-.263q5.739,0,11.478-.006a.494.494,0,0,1,.561.389c.874,2.408,1.794,4.8,2.647,7.216.547,1.548.535,1.552-1.08,2.007a14.906,14.906,0,0,1-2.892.4c-.293.023-.391.119-.379.419.026.6.032,1.209,0,1.812-.021.368.113.427.446.425,2.246-.014,4.492-.007,6.738-.007,2.8,0,5.608-.006,8.411.007.325,0,.43-.082.413-.412C712.588,1885.054,712.608,1884.525,712.608,1884Zm-16.145-13.764c-2.987-.014-5.974-.01-8.96,0-.285,0-.426,0-.283-.367q2.334-6.015,4.64-12.043c.022-.056.05-.109.112-.244.69,1.774,1.344,3.454,2,5.132.924,2.371,1.842,4.744,2.782,7.108C696.9,1870.177,696.84,1870.237,696.464,1870.235Z" transform="translate(-674.143 -1847.375)" fill="#fff"/>
      <path id="Trazado_108949" data-name="Trazado 108949" d="M740.327,1852.793c-1.171-1.907-2.321-3.829-3.509-5.794l-4.88,8.065c1.12,0,2.158.022,3.193-.011.415-.013.507.1.506.509q-.021,10.217-.01,20.433c0,1.131,0,1.131-1.124,1.131h-2.569l4.883,8.069.978-1.611,3.735-6.131a1.25,1.25,0,0,0,.078-.191c.009-.1-.077-.144-.284-.141-.975.015-1.951,0-2.926.011-.29,0-.4-.056-.4-.38q.016-10.663,0-21.326c0-.334.129-.37.406-.368,1.1.009,2.2,0,3.3-.006v-.093A18.077,18.077,0,0,1,740.327,1852.793Z" transform="translate(-694.114 -1847)" fill="#fff"/>
      <path id="Trazado_108950" data-name="Trazado 108950" d="M741.6,1859.312c-.277,0-.407.034-.406.368q.016,10.663,0,21.325c0,.324.111.385.4.38.976-.015,1.952,0,2.927-.011.206,0,.292.039.283.141.064-.218-.038-.3-.376-.315-.757-.041-1.516-.012-2.274-.015-.823,0-.825,0-.825-.808V1865.57c0-1.841,0-3.682,0-5.523,0-.54.048-.584.582-.588.773-.007,1.547,0,2.321,0a.922.922,0,0,0,.662-.148C743.8,1859.31,742.7,1859.321,741.6,1859.312Z" transform="translate(-697.315 -1851.253)" fill="#fff"/>
    </g>
    <path id="Trazado_134286" data-name="Trazado 134286" d="M9.177-8.679h-3.2V0H3.406V-8.679H.264v-1.985H9.177ZM13.33.146A4.074,4.074,0,0,1,10.378-.941,3.756,3.756,0,0,1,9.25-3.772v-.205A4.867,4.867,0,0,1,9.7-6.123a3.3,3.3,0,0,1,1.315-1.439,3.969,3.969,0,0,1,2.051-.509A3.43,3.43,0,0,1,15.7-7.035a4.073,4.073,0,0,1,.967,2.889v.959H11.763a1.779,1.779,0,0,0,.579,1.047,1.722,1.722,0,0,0,1.157.381,2.218,2.218,0,0,0,1.831-.82l1.128,1.333A3.153,3.153,0,0,1,15.15-.231,4.418,4.418,0,0,1,13.33.146Zm-.278-6.313q-1.084,0-1.289,1.436h2.49v-.19a1.223,1.223,0,0,0-.3-.919A1.2,1.2,0,0,0,13.052-6.167Zm7.822.425,1.15-2.183h2.563L22.5-4.065,24.69,0H22.112L20.867-2.344,19.644,0H17.051l2.2-4.065-2.08-3.86h2.593ZM28.257-9.9v1.97h1.3v1.714h-1.3v3.625a.926.926,0,0,0,.161.623.864.864,0,0,0,.637.176,3.621,3.621,0,0,0,.615-.044V-.066a4.555,4.555,0,0,1-1.392.212,2.586,2.586,0,0,1-1.882-.6,2.462,2.462,0,0,1-.608-1.824V-6.211H24.778V-7.925h1.011V-9.9ZM30-4.036a4.677,4.677,0,0,1,.461-2.113,3.3,3.3,0,0,1,1.326-1.425,3.993,3.993,0,0,1,2.029-.5,3.644,3.644,0,0,1,2.805,1.1,4.23,4.23,0,0,1,1.025,3v.088A4.1,4.1,0,0,1,36.617-.941,3.654,3.654,0,0,1,33.831.146,3.7,3.7,0,0,1,31.113-.868a3.968,3.968,0,0,1-1.106-2.75Zm2.468.154a2.949,2.949,0,0,0,.344,1.611,1.147,1.147,0,0,0,1.018.513q1.318,0,1.348-2.029v-.249q0-2.131-1.362-2.131-1.238,0-1.34,1.838Z" transform="translate(-14542 -9422.105)" fill="#fff"/>
    <g transform="matrix(1, 0, 0, 1, -14629, -9530.73)" filter="url(#Trazado_134287)">
      <path id="Trazado_134287-2" data-name="Trazado 134287" d="M59.88,0A59.88,59.88,0,1,1,0,59.88,59.88,59.88,0,0,1,59.88,0Z" transform="translate(202.82 16.03)" fill="#26aab7"/>
    </g>
    <path id="Trazado_134288" data-name="Trazado 134288" d="M9.39-1.348a3.814,3.814,0,0,1-1.677,1.1,7.024,7.024,0,0,1-2.4.392,4.759,4.759,0,0,1-2.428-.6A4.03,4.03,0,0,1,1.271-2.212a6.174,6.174,0,0,1-.582-2.7V-5.64A6.557,6.557,0,0,1,1.227-8.4,3.982,3.982,0,0,1,2.78-10.192a4.473,4.473,0,0,1,2.377-.619,4.454,4.454,0,0,1,2.966.9A3.866,3.866,0,0,1,9.39-7.273H7.251A2.126,2.126,0,0,0,6.6-8.613a2.07,2.07,0,0,0-1.381-.425A1.948,1.948,0,0,0,3.516-8.2a4.429,4.429,0,0,0-.593,2.5v.681A4.216,4.216,0,0,0,3.56-2.476a2.182,2.182,0,0,0,1.868.857,2.437,2.437,0,0,0,1.765-.527V-3.984h-2V-5.6h4.2ZM15.483-5.94A5.751,5.751,0,0,0,14.722-6a1.55,1.55,0,0,0-1.575.813V0H11.03V-7.925h2l.059.945a1.961,1.961,0,0,1,1.765-1.091,2.218,2.218,0,0,1,.659.1ZM20.874,0a2.351,2.351,0,0,1-.212-.71,2.561,2.561,0,0,1-2,.857,2.814,2.814,0,0,1-1.93-.674,2.167,2.167,0,0,1-.765-1.7A2.24,2.24,0,0,1,16.9-4.16a4.608,4.608,0,0,1,2.7-.681h.974V-5.3a1.306,1.306,0,0,0-.282-.879,1.109,1.109,0,0,0-.89-.33,1.261,1.261,0,0,0-.839.256.871.871,0,0,0-.3.7H16.143a2.126,2.126,0,0,1,.425-1.274,2.808,2.808,0,0,1,1.2-.919,4.378,4.378,0,0,1,1.743-.333,3.459,3.459,0,0,1,2.325.736A2.575,2.575,0,0,1,22.7-5.266v3.435a3.789,3.789,0,0,0,.315,1.707V0Zm-1.75-1.472a1.823,1.823,0,0,0,.864-.209,1.371,1.371,0,0,0,.586-.56V-3.6h-.791q-1.589,0-1.692,1.1l-.007.125a.847.847,0,0,0,.278.652A1.081,1.081,0,0,0,19.124-1.472Zm.806-9.778h2.307L20.208-8.979H18.486ZM24.836,0V-6.372H23.657V-7.925h1.179v-.366a2.972,2.972,0,0,1,.919-2.3,3.7,3.7,0,0,1,2.552-.809,8.466,8.466,0,0,1,2.4.432L30.4-9.221A9.373,9.373,0,0,0,29.29-9.5a5.47,5.47,0,0,0-.85-.062q-1.479,0-1.479,1.311v.322h1.56v1.553H26.96V0ZM31.7,0H29.575V-7.925H31.7Zm5.046-1.56a1.388,1.388,0,0,0,.952-.322,1.129,1.129,0,0,0,.381-.857h1.985a2.715,2.715,0,0,1-.439,1.476,2.9,2.9,0,0,1-1.183,1.04,3.7,3.7,0,0,1-1.659.37A3.44,3.44,0,0,1,34.1-.934a4.275,4.275,0,0,1-.981-2.985v-.139a4.226,4.226,0,0,1,.974-2.922,3.4,3.4,0,0,1,2.673-1.091,3.333,3.333,0,0,1,2.384.846,3,3,0,0,1,.912,2.252H38.079A1.455,1.455,0,0,0,37.7-5.978a1.27,1.27,0,0,0-.967-.387,1.275,1.275,0,0,0-1.117.539,3.125,3.125,0,0,0-.377,1.749v.22A3.164,3.164,0,0,0,35.61-2.1,1.291,1.291,0,0,0,36.746-1.56Zm4.2-2.476a4.7,4.7,0,0,1,.454-2.1A3.324,3.324,0,0,1,42.7-7.566a3.814,3.814,0,0,1,1.981-.505A3.609,3.609,0,0,1,47.3-7.09a3.939,3.939,0,0,1,1.132,2.666l.015.542A4.142,4.142,0,0,1,47.432-.956,3.539,3.539,0,0,1,44.7.146a3.556,3.556,0,0,1-2.736-1.1A4.215,4.215,0,0,1,40.942-3.94Zm2.117.15a2.962,2.962,0,0,0,.425,1.727,1.4,1.4,0,0,0,1.216.6,1.4,1.4,0,0,0,1.2-.591,3.241,3.241,0,0,0,.432-1.889A2.933,2.933,0,0,0,45.9-5.756a1.4,1.4,0,0,0-1.216-.609,1.382,1.382,0,0,0-1.2.605A3.3,3.3,0,0,0,43.059-3.885Zm10.986,1.7a.682.682,0,0,0-.385-.612,4.368,4.368,0,0,0-1.234-.4Q49.6-3.794,49.6-5.6a2.178,2.178,0,0,1,.875-1.761,3.531,3.531,0,0,1,2.289-.707,3.8,3.8,0,0,1,2.413.71,2.239,2.239,0,0,1,.9,1.846H53.965a1.024,1.024,0,0,0-.293-.751,1.24,1.24,0,0,0-.916-.3,1.267,1.267,0,0,0-.828.242.763.763,0,0,0-.293.615.652.652,0,0,0,.333.568,3.428,3.428,0,0,0,1.124.374,9.183,9.183,0,0,1,1.333.355A2.19,2.19,0,0,1,56.1-2.278a2.067,2.067,0,0,1-.93,1.754,4.013,4.013,0,0,1-2.4.67A4.191,4.191,0,0,1,51-.209a2.968,2.968,0,0,1-1.212-.974,2.263,2.263,0,0,1-.439-1.337h2.007a1.105,1.105,0,0,0,.417.864,1.656,1.656,0,0,0,1.04.3,1.533,1.533,0,0,0,.919-.231A.718.718,0,0,0,54.045-2.19Z" transform="translate(-14396 -9422.106)" fill="#fff"/>
    <g id="Grupo_73925" data-name="Grupo 73925" transform="translate(-14390.629 -9497.29)">
      <path id="Trazado_108953" data-name="Trazado 108953" d="M970.19,1841.074l.791,1.374a31.45,31.45,0,0,1,1.984,5.113l.373,1.553a29.712,29.712,0,0,1,.436,5.339c-.017.527-.047,1.054-.071,1.582l-.306,2.338a25.373,25.373,0,0,1-2.193,6.544c-.385.766-.768.882-1.519.458-.683-.385-1.37-.766-2.055-1.149a7.151,7.151,0,0,0-1.256-.726c-.377-.231-.751-.468-1.133-.69-.8-.465-.9-.729-.5-1.577a16.313,16.313,0,0,0,1.39-4.539,11.584,11.584,0,0,0,.2-2.236,15.736,15.736,0,0,0-1-6.278,5.89,5.89,0,0,0-.594-1.449,15,15,0,0,0-2.984-4.474,4.579,4.579,0,0,0-.89-.9,15.053,15.053,0,0,0-4.344-2.979,6.162,6.162,0,0,0-1.47-.619,14.788,14.788,0,0,0-4.3-1.013c-.483-.048-.968-.071-1.191-.614l-.067-1.853q.018-1.928.035-3.854c.007-.959.289-1.187,1.26-1.126,1.08.068,2.142.246,3.209.41l1.642.394a29.021,29.021,0,0,1,5.153,2.055l1.234.714a32.45,32.45,0,0,1,4,3.064l1.145,1.152A32.4,32.4,0,0,1,970.19,1841.074Zm-18.978-9.981a4.13,4.13,0,0,0,0,1.127,11.18,11.18,0,0,0,.005,1.962c-.1.908-.1.908.767,1.043.051.008.1.024.151.031a22.688,22.688,0,0,1,4.238,1.189l1.45.695a22.748,22.748,0,0,1,4.121,2.9l1.127,1.138a23.373,23.373,0,0,1,2.958,4.3l.538,1.159a21.951,21.951,0,0,1,1.408,5.882l.053,1.941a20,20,0,0,1-1.2,6.1c-.416,1.1-.409,1.1.678,1.632a.177.177,0,0,0,.05.009,8.681,8.681,0,0,0,1.39.805c.271.168.549.329.813.508.2.138.277.056.36-.141a16.73,16.73,0,0,0,.873-2.323,14.491,14.491,0,0,0,.7-2.679,21.7,21.7,0,0,0,.217-7.512,7.941,7.941,0,0,0-.3-1.648,19.6,19.6,0,0,0-1.866-5.455,6.345,6.345,0,0,0-.677-1.243,18.749,18.749,0,0,0-3.095-4.221,7.44,7.44,0,0,0-1.139-1.145,18.42,18.42,0,0,0-4.123-3.078,4.843,4.843,0,0,0-1.157-.64,19.455,19.455,0,0,0-5.466-1.963,10.59,10.59,0,0,0-1.823-.346l-.926-.107C951.267,1831,951.184,1830.964,951.212,1831.093Z" transform="translate(-924.358 -1829.292)" fill="#fff"/>
      <path id="Trazado_108954" data-name="Trazado 108954" d="M920.462,1900.724a33.132,33.132,0,0,1-4.106-3.127l-1.026-1.03c-.712-.851-1.46-1.671-2.092-2.587-.453-.658-.379-1.08.3-1.475q2.347-1.36,4.7-2.706a.844.844,0,0,1,1.288.241,9.933,9.933,0,0,0,1.136,1.311,5.629,5.629,0,0,0,1.033,1.027,14.974,14.974,0,0,0,4.416,2.918,4.934,4.934,0,0,0,1.245.516,15.9,15.9,0,0,0,6.486,1.073,11.684,11.684,0,0,0,2.268-.214,15.566,15.566,0,0,0,3.887-1.107,17.242,17.242,0,0,0,7.535-6.086c.481-.684.76-.738,1.506-.316.342.193.689.374,1.034.561a9.165,9.165,0,0,0,1.377.8c.691.409,1.379.823,2.072,1.227.752.438.858.833.377,1.541a24.445,24.445,0,0,1-15.64,10.535c-.167.035-.333.079-.5.118l-2.328.3a27.66,27.66,0,0,1-6.831-.351l-1.424-.331a30.929,30.929,0,0,1-5.318-2.043Zm-1.009-8.18c-.23-.274-.468-.543-.688-.826a.268.268,0,0,0-.422-.081c-1.1.649-2.214,1.28-3.36,1.938a15.581,15.581,0,0,0,1.666,1.9,6.275,6.275,0,0,0,1.031,1.026,18.51,18.51,0,0,0,4.221,3.092,6.19,6.19,0,0,0,1.241.68,19.882,19.882,0,0,0,5.454,1.87,8.1,8.1,0,0,0,1.649.3,21.07,21.07,0,0,0,7.63-.258,14.158,14.158,0,0,0,2.63-.676,19.536,19.536,0,0,0,2.992-1.208,22.844,22.844,0,0,0,8.425-7.068c.1-.134.421-.3.032-.5-.6-.32-1.195-.662-1.792-1-.436-.263-.875-.52-1.306-.792-.175-.11-.28-.109-.412.073a20,20,0,0,1-2.978,3.16,25.919,25.919,0,0,1-2.608,1.8,19.43,19.43,0,0,1-9.011,2.586l-1.948-.04a22.325,22.325,0,0,1-5.877-1.41l-1.338-.627a22.766,22.766,0,0,1-4.171-2.9Z" transform="translate(-908.619 -1854.963)" fill="#fff"/>
      <path id="Trazado_108955" data-name="Trazado 108955" d="M930.667,1873.364a3.351,3.351,0,0,1-1.086-3.187.326.326,0,0,0-.172-.377c-.518-.36-1.028-.729-1.542-1.094l-1.127-.831c-.127-.177-.25-.083-.393-.011a3.349,3.349,0,0,1-4.971-1.8,4.759,4.759,0,0,1-.034-1.85,3.184,3.184,0,0,1,2.39-2.4,4.681,4.681,0,0,1,1.847.05c1.85.849,2.68,2.379,2.142,4.085-.138.438-.04.627.321.787l1.123.828c.3.226.613.439.9.683a.389.389,0,0,0,.6.006,3.347,3.347,0,0,1,4.3.041.4.4,0,0,0,.6,0c.7-.528,1.4-1.05,2.113-1.549a.477.477,0,0,0,.219-.656,3.278,3.278,0,0,1,1.8-4.06,3.537,3.537,0,0,1,2.311-.161,5,5,0,0,1,1.375.832,2.89,2.89,0,0,1,.893,2.659c-.312,1.051.2,1.467.923,1.891.146.085.284.183.426.275a7.889,7.889,0,0,1,.757.6c.354.352.649.337.937-.061,2.268-1.186,4.189-.509,5.144,1.814a4.9,4.9,0,0,1-.016,1.956A3.387,3.387,0,0,1,950.3,1874a5.207,5.207,0,0,1-1.957.012c-1.707-.683-2.544-1.854-2.343-3.473a.823.823,0,0,0-.524-1.024l-1.047-.76c-.367-.279-.745-.543-1.095-.841-.208-.178-.356-.141-.581-.021a3.415,3.415,0,0,1-3.343.043.512.512,0,0,0-.639.043c-.8.614-1.619,1.212-2.44,1.8a.545.545,0,0,0-.27.62,3.273,3.273,0,0,1-2.5,3.62,4.17,4.17,0,0,1-1.781-.041Zm9.055-7.372a1.5,1.5,0,0,0,1.65.651,1.554,1.554,0,0,0,1.263-1.264,1.5,1.5,0,0,0-.653-1.65,1.614,1.614,0,0,0-2.261,2.263Zm-7.961,6.05a1.611,1.611,0,0,0,2.272-2.273,1.616,1.616,0,1,0-2.272,2.273Zm-5.557-6.995a1.645,1.645,0,1,0-1.641,1.637A1.657,1.657,0,0,0,926.2,1865.047Zm24.708,5.757a1.645,1.645,0,1,0-1.672,1.646A1.657,1.657,0,0,0,950.911,1870.8Z" transform="translate(-912.2 -1843.27)" fill="#fff"/>
      <path id="Trazado_108956" data-name="Trazado 108956" d="M909.259,1876.231a1.156,1.156,0,0,1-.978-.745,28.322,28.322,0,0,1-2.06-5.151l-.392-1.641a26.692,26.692,0,0,1-.429-6.791l.252-2.256a28.068,28.068,0,0,1,1.446-5.018c.272-.646.558-1.286.864-1.916a.871.871,0,0,1,1.385-.43c.716.4,1.429.8,2.144,1.2a8.987,8.987,0,0,0,1.287.751c.439.261.881.517,1.316.785a.837.837,0,0,1,.4,1.21c-.08.188-.179.368-.258.556a15.245,15.245,0,0,0-1.262,4.508,8.881,8.881,0,0,0-.186,2.163,15.8,15.8,0,0,0,1.074,6.294,6.407,6.407,0,0,0,.63,1.481c.139.292.282.582.418.876a.768.768,0,0,1-.294,1.077C912.832,1874.21,911.095,1875.307,909.259,1876.231Zm1.048-21.468c-.292-.175-.59-.34-.872-.528-.216-.145-.33-.144-.443.13a22.756,22.756,0,0,0-.929,2.487,13.782,13.782,0,0,0-.652,2.694,2.218,2.218,0,0,0-.09.292,22.608,22.608,0,0,0-.088,7.149,11.58,11.58,0,0,0,.318,1.736,22.576,22.576,0,0,0,1.789,5.186c.178.377.333.281.55.082.76-.425,1.522-.845,2.277-1.278.947-.544.944-.549.417-1.546a21.414,21.414,0,0,1-1.418-5.774l-.072-1.936a19.836,19.836,0,0,1,1.2-6.3c.411-1.094.408-1.1-.678-1.621Z" transform="translate(-905.342 -1839.114)" fill="#fff"/>
      <path id="Trazado_108957" data-name="Trazado 108957" d="M931.088,1829.312c1.444-.021,1.512.052,1.518,1.533,0,1.283.02,2.566.031,3.85-.011.355-.019.71-.034,1.065-.026.605-.244.833-.85.942a6.153,6.153,0,0,0-1.258.164,2.99,2.99,0,0,0-.357.018,17.213,17.213,0,0,0-11.331,7.14c-.539.77-.8.817-1.621.345-.326-.187-.657-.364-.985-.545l-1.06-.61-2.427-1.427c-.685-.4-.787-.812-.334-1.476a24.612,24.612,0,0,1,16.181-10.66,2.783,2.783,0,0,0,.29-.089Zm-2.342,2.005a14.215,14.215,0,0,0-2.669.657,21.177,21.177,0,0,0-4.865,2.154,22.948,22.948,0,0,0-6.851,6.206c-.14.189-.324.35.041.534.639.323,1.256.691,1.883,1.04.393.238.789.469,1.176.717.155.1.255.111.376-.057a19.5,19.5,0,0,1,4.025-4,21.542,21.542,0,0,1,3.571-2.008,18.871,18.871,0,0,1,5.029-1.38c.192-.024.506.071.5-.339-.017-1.183-.01-2.366,0-3.549,0-.218-.05-.32-.288-.281A16.227,16.227,0,0,0,928.746,1831.317Z" transform="translate(-908.253 -1829.3)" fill="#fff"/>
    </g>
    <g transform="matrix(1, 0, 0, 1, -14629, -9530.73)" filter="url(#Trazado_134289)">
      <path id="Trazado_134289-2" data-name="Trazado 134289" d="M59.88,0A59.88,59.88,0,1,1,0,59.88,59.88,59.88,0,0,1,59.88,0Z" transform="translate(358.79 16.03)" fill="#fb8c00"/>
    </g>
    <path id="Trazado_134290" data-name="Trazado 134290" d="M6.973-2.2H3.12L2.388,0H.051l3.97-10.664H6.057L10.049,0H7.712ZM3.713-3.977H6.379L5.039-7.969ZM12.5-7.925l.066.916a2.767,2.767,0,0,1,2.278-1.062,2.3,2.3,0,0,1,1.875.74,3.451,3.451,0,0,1,.63,2.212V0H15.234V-5.08a1.379,1.379,0,0,0-.293-.98,1.31,1.31,0,0,0-.974-.3,1.456,1.456,0,0,0-1.34.763V0H10.51V-7.925ZM21.189,0H19.065V-7.925h2.124ZM18.94-9.976a1.042,1.042,0,0,1,.319-.784,1.2,1.2,0,0,1,.868-.308,1.2,1.2,0,0,1,.864.308,1.036,1.036,0,0,1,.322.784,1.039,1.039,0,0,1-.326.791,1.2,1.2,0,0,1-.861.308,1.2,1.2,0,0,1-.861-.308A1.039,1.039,0,0,1,18.94-9.976Zm5.977,2.051.066.886a2.785,2.785,0,0,1,2.278-1.033,2.114,2.114,0,0,1,2.1,1.208,2.721,2.721,0,0,1,2.38-1.208,2.364,2.364,0,0,1,1.919.751,3.451,3.451,0,0,1,.63,2.26V0H32.168V-5.065a1.515,1.515,0,0,0-.264-.987,1.167,1.167,0,0,0-.93-.312,1.321,1.321,0,0,0-1.318.91L29.663,0H27.546V-5.058a1.5,1.5,0,0,0-.271-1,1.178,1.178,0,0,0-.923-.308,1.371,1.371,0,0,0-1.3.749V0H22.932V-7.925ZM40.51,0A2.351,2.351,0,0,1,40.3-.71a2.561,2.561,0,0,1-2,.857,2.814,2.814,0,0,1-1.93-.674,2.167,2.167,0,0,1-.765-1.7,2.24,2.24,0,0,1,.934-1.934,4.608,4.608,0,0,1,2.7-.681h.974V-5.3a1.306,1.306,0,0,0-.282-.879,1.109,1.109,0,0,0-.89-.33,1.261,1.261,0,0,0-.839.256.871.871,0,0,0-.3.7H35.779A2.126,2.126,0,0,1,36.2-6.819a2.808,2.808,0,0,1,1.2-.919,4.378,4.378,0,0,1,1.743-.333,3.459,3.459,0,0,1,2.325.736,2.575,2.575,0,0,1,.861,2.069v3.435a3.789,3.789,0,0,0,.315,1.707V0ZM38.76-1.472a1.823,1.823,0,0,0,.864-.209,1.371,1.371,0,0,0,.586-.56V-3.6h-.791q-1.589,0-1.692,1.1l-.007.125A.847.847,0,0,0,38-1.729,1.081,1.081,0,0,0,38.76-1.472Zm8.5-.088a1.388,1.388,0,0,0,.952-.322,1.129,1.129,0,0,0,.381-.857h1.985a2.715,2.715,0,0,1-.439,1.476,2.9,2.9,0,0,1-1.183,1.04,3.7,3.7,0,0,1-1.659.37,3.44,3.44,0,0,1-2.681-1.08,4.275,4.275,0,0,1-.981-2.985v-.139A4.226,4.226,0,0,1,44.6-6.98a3.4,3.4,0,0,1,2.673-1.091,3.333,3.333,0,0,1,2.384.846,3,3,0,0,1,.912,2.252H48.589a1.455,1.455,0,0,0-.381-1.005,1.27,1.27,0,0,0-.967-.387,1.275,1.275,0,0,0-1.117.539,3.125,3.125,0,0,0-.377,1.749v.22A3.164,3.164,0,0,0,46.121-2.1,1.291,1.291,0,0,0,47.256-1.56ZM54.016,0H51.892V-7.925h2.124ZM51.768-9.976a1.042,1.042,0,0,1,.319-.784,1.2,1.2,0,0,1,.868-.308,1.2,1.2,0,0,1,.864.308,1.036,1.036,0,0,1,.322.784,1.039,1.039,0,0,1-.326.791,1.2,1.2,0,0,1-.861.308,1.2,1.2,0,0,1-.861-.308A1.039,1.039,0,0,1,51.768-9.976Zm3.662,5.94a4.7,4.7,0,0,1,.454-2.1,3.324,3.324,0,0,1,1.307-1.428,3.814,3.814,0,0,1,1.981-.505,3.609,3.609,0,0,1,2.618.981,3.939,3.939,0,0,1,1.132,2.666l.015.542A4.142,4.142,0,0,1,61.919-.956a3.539,3.539,0,0,1-2.732,1.1,3.556,3.556,0,0,1-2.736-1.1A4.215,4.215,0,0,1,55.43-3.94Zm2.117.15a2.962,2.962,0,0,0,.425,1.727,1.4,1.4,0,0,0,1.216.6,1.4,1.4,0,0,0,1.2-.591,3.241,3.241,0,0,0,.432-1.889,2.933,2.933,0,0,0-.432-1.716,1.4,1.4,0,0,0-1.216-.609,1.382,1.382,0,0,0-1.2.605A3.3,3.3,0,0,0,57.546-3.885ZM59.59-11.25H61.9L59.868-8.979H58.147Zm6.6,3.325.066.916a2.767,2.767,0,0,1,2.278-1.062,2.3,2.3,0,0,1,1.875.74,3.451,3.451,0,0,1,.63,2.212V0H68.921V-5.08a1.379,1.379,0,0,0-.293-.98,1.31,1.31,0,0,0-.974-.3,1.456,1.456,0,0,0-1.34.763V0H64.2V-7.925Z" transform="translate(-14248 -9422.106)" fill="#fff"/>
    <g id="Grupo_73928" data-name="Grupo 73928" transform="translate(-14232.364 -9497.124)">
      <path id="Trazado_108960" data-name="Trazado 108960" d="M1182.866,1905.254a1.171,1.171,0,0,1-.493-1.08c.03-.659-.014-1.321.016-1.979.016-.349-.11-.409-.426-.408-2.47.012-4.941.007-7.412.006-1.382,0-1.92-.547-1.921-1.945,0-.524-.006-1.049,0-1.573a1.537,1.537,0,0,1,1.65-1.648c2.538-.006,5.077-.012,7.615.008.4,0,.531-.1.489-.5-.057-.515.217-1.209-.112-1.5-.286-.254-.964-.076-1.47-.076q-3.2,0-6.4,0a1.575,1.575,0,0,1-1.777-1.781c0-.575-.006-1.15,0-1.726a1.524,1.524,0,0,1,1.645-1.646c2.538,0,5.076,0,7.615-.007.16,0,.452.123.463-.126.015-.323.194-.7-.156-.98-.372-.293-.727-.609-1.117-.875a1.816,1.816,0,0,1-.811-1.74c.037-.743,0-1.489.011-2.233a1.4,1.4,0,0,1,1.55-1.537q1.32-.012,2.64,0a1.4,1.4,0,0,1,1.547,1.536c.006.863,0,1.726,0,2.589a1.319,1.319,0,0,1-.422,1.048,8.045,8.045,0,0,1-1.333,1.087c-.522.292-.323.707-.352,1.094-.01.138.115.142.218.143H1201.5c1.244,0,1.8.548,1.8,1.781,0,.609.01,1.219,0,1.827a1.494,1.494,0,0,1-1.487,1.541c-.371.02-.745,0-1.117,0-5.415,0-10.83.007-16.245-.012-.46,0-.6.123-.546.563a4.415,4.415,0,0,1,0,1.014c-.055.447.132.515.535.512,2.353-.019,4.7-.009,7.057-.009h10c1.238,0,1.8.56,1.807,1.784,0,.61.009,1.219,0,1.828a1.5,1.5,0,0,1-1.529,1.552c-.592.018-1.185,0-1.777,0-5.178,0-10.357.005-15.535-.01-.43,0-.6.076-.559.544.048.588-.015,1.185.02,1.775a1.322,1.322,0,0,1-.438,1.151Zm6.55-14.327c-1.708,0-3.417.008-5.125-.007-.312,0-.413.081-.394.4.028.456.019.914,0,1.37-.009.259.069.353.34.353q5.125-.011,10.25,0c.272,0,.351-.093.341-.353a12.187,12.187,0,0,1,0-1.319c.025-.356-.089-.453-.445-.449C1192.732,1890.938,1191.074,1890.927,1189.416,1890.927Zm7.343,9.343c1.522,0,3.044-.01,4.565.008.338,0,.489-.054.457-.433a7.669,7.669,0,0,1,0-1.266c.03-.366-.1-.441-.448-.439-2.637.016-5.275.007-7.913.01-.539,0-1.287-.193-1.564.082-.349.345-.064,1.089-.115,1.657-.029.323.1.392.4.389C1193.682,1900.261,1195.22,1900.27,1196.759,1900.27Zm-18.46-2.122c-1.252,0-2.5.01-3.754-.007-.309,0-.419.074-.4.394a8.508,8.508,0,0,1,0,1.267c-.031.378.085.482.471.478,2.029-.021,4.058-.008,6.087-.011.538,0,1.279.19,1.563-.083.354-.34.067-1.082.118-1.648.029-.306-.063-.4-.384-.4C1180.767,1898.16,1179.533,1898.148,1178.3,1898.148Zm-.042-5.114c1.252,0,2.5-.008,3.755.006.284,0,.389-.074.375-.369-.022-.472-.014-.947,0-1.42.006-.22-.022-.332-.294-.331q-3.805.016-7.612,0c-.283,0-.339.1-.329.355.017.456.025.914,0,1.37-.02.324.1.4.405.394C1175.787,1893.025,1177.022,1893.034,1178.257,1893.034Zm8.788,7.236c.946,0,1.892-.009,2.837.005.263,0,.357-.071.346-.34-.019-.489-.022-.98,0-1.469.014-.289-.113-.324-.357-.323q-2.811.012-5.624,0c-.255,0-.362.057-.349.335a13.216,13.216,0,0,1,0,1.418c-.021.338.123.384.412.379C1185.221,1900.26,1186.133,1900.27,1187.045,1900.27Zm12.026-9.343c-.794,0-1.589.009-2.383-.005-.257,0-.357.057-.344.333.022.489.011.98,0,1.47,0,.2.027.315.271.314q2.434-.013,4.869,0c.222,0,.294-.079.289-.294-.011-.49-.023-.981,0-1.47.017-.306-.107-.357-.376-.352C1200.626,1890.937,1199.849,1890.927,1199.071,1890.927Zm-14.575-6.156c0-.355-.012-.71,0-1.065.011-.228-.076-.285-.292-.282-.693.012-1.387.021-2.079,0-.3-.01-.331.118-.327.359.011.625,0,1.25,0,1.876a2.222,2.222,0,0,0,1.334,1.34.535.535,0,0,0,.329-.109c.642-.457,1.259-.924,1.029-1.864A1.079,1.079,0,0,1,1184.5,1884.771Z" transform="translate(-1159.18 -1853.26)" fill="#fff"/>
      <path id="Trazado_108961" data-name="Trazado 108961" d="M1191.24,1834.1c.14.187.367.107.549.167a3.609,3.609,0,0,1,2.514,3.547c.01,3.791,0,7.582,0,11.372q0,3.808,0,7.616a3.6,3.6,0,0,1-3.842,3.835q-14.089.007-28.178,0a2.258,2.258,0,0,1-.4-.02.682.682,0,0,1-.615-.693.674.674,0,0,1,.534-.757,2.712,2.712,0,0,1,.654-.052q13.987,0,27.975,0a2.124,2.124,0,0,0,2.283-1.535,2.643,2.643,0,0,0,.068-.754q0-9.444,0-18.887a2.106,2.106,0,0,0-2.334-2.313h-36.4a2.1,2.1,0,0,0-2.322,2.324q0,9.417,0,18.835a2.094,2.094,0,0,0,2.311,2.329c1.506,0,3.012,0,4.519,0a3.5,3.5,0,0,1,.456.011.775.775,0,0,1,.718.78.748.748,0,0,1-.763.726c-.507.02-1.015.008-1.523.008-1.134,0-2.267,0-3.4,0a3.6,3.6,0,0,1-3.841-3.838q-.005-9.393,0-18.786a3.585,3.585,0,0,1,2.911-3.838c.023-.007.035-.051.052-.077Z" transform="translate(-1150.188 -1834.104)" fill="#fff"/>
      <path id="Trazado_108962" data-name="Trazado 108962" d="M1173.5,1853.087a10.583,10.583,0,0,1,4.978-2.939,10.9,10.9,0,0,1,2.3-.331c.64-.028,1,.234,1.021.721s-.3.769-.943.8a8.87,8.87,0,0,0-6.754,3.395c-.576.709-1.123.655-1.554-.165a12.432,12.432,0,0,0-8.162-6.543,11.666,11.666,0,0,0-2.96-.374.761.761,0,0,1-.785-.522.713.713,0,0,1,.189-.788.906.906,0,0,1,.754-.212,13.9,13.9,0,0,1,10.613,5.121A18.258,18.258,0,0,1,1173.5,1853.087Z" transform="translate(-1154.358 -1838.922)" fill="#fff"/>
      <path id="Trazado_108963" data-name="Trazado 108963" d="M1155.446,1906.472c1.2,0,2.4-.006,3.6,0a1.484,1.484,0,0,1,1.631,1.637c0,.66.007,1.32,0,1.98a1.45,1.45,0,0,1-1.471,1.541q-3.781.027-7.563,0a1.437,1.437,0,0,1-1.45-1.507q-.022-1.066,0-2.132a1.454,1.454,0,0,1,1.545-1.517C1152.975,1906.462,1154.21,1906.472,1155.446,1906.472Zm-.011,1.525c-1.117,0-2.234.008-3.351-.006-.274,0-.391.055-.375.356.025.473.017.948,0,1.421-.008.248.04.357.326.355q3.4-.017,6.8,0c.295,0,.327-.122.32-.361a13.147,13.147,0,0,1,0-1.37c.028-.359-.123-.407-.431-.4C1157.635,1908.006,1156.535,1908,1155.435,1908Z" transform="translate(-1150.185 -1863.107)" fill="#fff"/>
      <path id="Trazado_108964" data-name="Trazado 108964" d="M1155.477,1894.42c1.2,0,2.4-.006,3.6,0a1.464,1.464,0,0,1,1.6,1.608c0,.677.009,1.354,0,2.03a1.432,1.432,0,0,1-1.45,1.506q-3.781.034-7.562,0a1.431,1.431,0,0,1-1.47-1.486c-.017-.71-.015-1.421,0-2.132a1.441,1.441,0,0,1,1.527-1.527C1152.973,1894.411,1154.225,1894.42,1155.477,1894.42Zm-.044,1.524c-1.115,0-2.229.007-3.345-.005-.262,0-.4.033-.38.347.028.471.019.946,0,1.418-.009.255.059.354.336.353q3.395-.015,6.791,0c.289,0,.333-.116.326-.36-.014-.456-.025-.913,0-1.368.019-.312-.071-.4-.388-.393C1157.664,1895.956,1156.549,1895.944,1155.433,1895.944Z" transform="translate(-1150.185 -1858.277)" fill="#fff"/>
      <path id="Trazado_108965" data-name="Trazado 108965" d="M1207.43,1852.028a4.279,4.279,0,1,1-4.311-4.25A4.282,4.282,0,0,1,1207.43,1852.028Zm-1.526.024a2.754,2.754,0,0,0-5.507,0,2.778,2.778,0,0,0,2.733,2.759A2.75,2.75,0,0,0,1205.9,1852.052Z" transform="translate(-1169.698 -1839.584)" fill="#fff"/>
      <path id="Trazado_108966" data-name="Trazado 108966" d="M1161.7,1851.417a10.934,10.934,0,0,1,10.328,8.784c.117.62-.079,1.029-.544,1.137s-.836-.2-.955-.8a9.382,9.382,0,0,0-8.862-7.595c-.736-.036-1.09-.283-1.077-.779S1161,1851.4,1161.7,1851.417Z" transform="translate(-1154.356 -1841.042)" fill="#fff"/>
      <path id="Trazado_108967" data-name="Trazado 108967" d="M1190.847,1858.331a.737.737,0,0,1-.76.778,7.521,7.521,0,0,0-1.55.229,5.573,5.573,0,0,0-3.809,3.684,1.141,1.141,0,0,1-.4.683.71.71,0,0,1-.854-.017.748.748,0,0,1-.272-.9,7.113,7.113,0,0,1,3.9-4.544,6.661,6.661,0,0,1,2.892-.647A.745.745,0,0,1,1190.847,1858.331Z" transform="translate(-1163.398 -1843.521)" fill="#fff"/>
    </g>
    <g transform="matrix(1, 0, 0, 1, -14629, -9530.73)" filter="url(#Trazado_134291)">
      <path id="Trazado_134291-2" data-name="Trazado 134291" d="M59.88,0A59.88,59.88,0,1,1,0,59.88,59.88,59.88,0,0,1,59.88,0Z" transform="translate(514.76 16.03)" fill="#70bdc6"/>
    </g>
    <path id="Trazado_134292" data-name="Trazado 134292" d="M4.893-2.644l2.417-8.02H9.756L6.042,0H3.75L.051-10.664H2.49ZM12.854,0H10.73V-7.925h2.124ZM10.605-9.976a1.042,1.042,0,0,1,.319-.784,1.2,1.2,0,0,1,.868-.308,1.2,1.2,0,0,1,.864.308,1.036,1.036,0,0,1,.322.784,1.039,1.039,0,0,1-.326.791,1.2,1.2,0,0,1-.861.308,1.2,1.2,0,0,1-.861-.308A1.039,1.039,0,0,1,10.605-9.976Zm3.662,5.955A4.776,4.776,0,0,1,15.1-6.973a2.7,2.7,0,0,1,2.274-1.1,2.427,2.427,0,0,1,1.912.864V-11.25h2.124V0H19.5l-.1-.842a2.491,2.491,0,0,1-2.036.989,2.69,2.69,0,0,1-2.245-1.1A4.93,4.93,0,0,1,14.268-4.021Zm2.117.151a3.146,3.146,0,0,0,.388,1.714,1.263,1.263,0,0,0,1.128.6,1.416,1.416,0,0,0,1.384-.831V-5.533a1.4,1.4,0,0,0-1.37-.831Q16.384-6.365,16.384-3.87ZM26.7.146A3.89,3.89,0,0,1,23.859-.923a3.8,3.8,0,0,1-1.095-2.849v-.205a4.787,4.787,0,0,1,.461-2.135,3.386,3.386,0,0,1,1.307-1.45,3.669,3.669,0,0,1,1.93-.509,3.289,3.289,0,0,1,2.56,1.025,4.167,4.167,0,0,1,.934,2.908v.864H24.91a1.966,1.966,0,0,0,.619,1.245,1.871,1.871,0,0,0,1.307.469,2.285,2.285,0,0,0,1.912-.886l1.04,1.165A3.178,3.178,0,0,1,28.5-.231,4.229,4.229,0,0,1,26.7.146Zm-.242-6.511a1.323,1.323,0,0,0-1.022.427,2.209,2.209,0,0,0-.5,1.221h2.944v-.169A1.576,1.576,0,0,0,27.5-5.979,1.365,1.365,0,0,0,26.455-6.365Zm4.373,2.329a4.7,4.7,0,0,1,.454-2.1,3.324,3.324,0,0,1,1.307-1.428,3.814,3.814,0,0,1,1.981-.505,3.609,3.609,0,0,1,2.618.981A3.939,3.939,0,0,1,38.32-4.424l.015.542A4.142,4.142,0,0,1,37.317-.956a3.539,3.539,0,0,1-2.732,1.1,3.556,3.556,0,0,1-2.736-1.1A4.215,4.215,0,0,1,30.828-3.94Zm2.117.15a2.962,2.962,0,0,0,.425,1.727,1.4,1.4,0,0,0,1.216.6,1.4,1.4,0,0,0,1.2-.591,3.241,3.241,0,0,0,.432-1.889,2.933,2.933,0,0,0-.432-1.716,1.4,1.4,0,0,0-1.216-.609,1.382,1.382,0,0,0-1.2.605A3.3,3.3,0,0,0,32.944-3.885Z" transform="translate(-14074.999 -9422.106)" fill="#fff"/>
    <g id="Grupo_62196" data-name="Grupo 62196" transform="translate(-14080.979 -9489.097)">
      <g id="Grupo_60258" data-name="Grupo 60258">
        <path id="Trazado_130838" data-name="Trazado 130838" d="M1434.413,1850.977q-23.73.05-47.458.02a2.851,2.851,0,0,0-3.2,3.2v25.669a2.759,2.759,0,0,0,1.518,2.6,3.454,3.454,0,0,0,1.7.32h47.938a3.125,3.125,0,0,0,2.442-.929,6.761,6.761,0,0,0,.717-1.267v-27.369C1437.471,1851.453,1436.17,1850.974,1434.413,1850.977Zm.415,29.547H1387c-.929,0-1.006-.077-1.006-.989v-25.3c0-.9.1-1,1-1h47.832c.9,0,1.006.1,1.006,1v25.294c0,.918-.076.994-1,.994Z" transform="translate(-1383.75 -1850.977)" fill="#fff"/>
        <path id="Trazado_130839" data-name="Trazado 130839" d="M1436.455,1907.51c-6.786.016-13.573.006-20.359.018-.384,0-.587-.076-.728-.475a4.391,4.391,0,0,0-8.223-.009.618.618,0,0,1-.718.483q-10.5-.017-21-.007a4.845,4.845,0,0,0-.736.044,1.083,1.083,0,0,0-.073,2.129,3.986,3.986,0,0,0,.788.068q10.5.005,21-.006c.4,0,.606.077.756.5a4.39,4.39,0,0,0,8.2-.011.623.623,0,0,1,.711-.49c6.733.014,13.467,0,20.2.019a1.938,1.938,0,0,0,1.8-.721v-.743A1.588,1.588,0,0,0,1436.455,1907.51Zm-25.194,3.323a2.192,2.192,0,1,1,2.188-2.2,2.227,2.227,0,0,1-2.189,2.2Z" transform="translate(-1383.758 -1869.369)" fill="#fff"/>
        <path id="Trazado_130840" data-name="Trazado 130840" d="M1427.517,1869.634l-10.013-7.125a1.318,1.318,0,0,0-1.419-.276c-.571.276-.632.786-.63,1.344.008,2.39,0,4.773,0,7.159,0,2.405,0,4.808,0,7.213a1.183,1.183,0,0,0,2.034,1.041q5-3.572,10.011-7.127C1428.528,1871.128,1428.535,1870.357,1427.517,1869.634Zm-9.79,6.428v-10.639l7.478,5.316Z" transform="translate(-1394.697 -1854.833)" fill="#fff"/>
        <path id="Trazado_130841" data-name="Trazado 130841" d="M1415.475,1871.493c0-2.39,0-4.773,0-7.16.008,2.39,0,4.773,0,7.16,0,2.4,0,4.808,0,7.212C1415.48,1876.3,1415.475,1873.9,1415.475,1871.493Z" transform="translate(-1394.714 -1855.592)" fill="#fff"/>
      </g>
    </g>
    <g transform="matrix(1, 0, 0, 1, -14629, -9530.73)" filter="url(#Trazado_134293)">
      <path id="Trazado_134293-2" data-name="Trazado 134293" d="M59.658,0A59.658,59.658,0,1,1,0,59.658,59.658,59.658,0,0,1,59.658,0Z" transform="translate(671.88 16.27)" fill="#4699ed"/>
    </g>
    <path id="Trazado_134294" data-name="Trazado 134294" d="M6.482-2.8a1.128,1.128,0,0,0-.439-.956,5.764,5.764,0,0,0-1.582-.7,11.215,11.215,0,0,1-1.809-.729A2.956,2.956,0,0,1,.835-7.83a2.575,2.575,0,0,1,.487-1.542,3.177,3.177,0,0,1,1.4-1.058,5.265,5.265,0,0,1,2.047-.381A4.793,4.793,0,0,1,6.8-10.4,3.242,3.242,0,0,1,8.192-9.229a3.057,3.057,0,0,1,.494,1.714h-2.2a1.438,1.438,0,0,0-.461-1.139,1.9,1.9,0,0,0-1.3-.406,2.026,2.026,0,0,0-1.252.341,1.074,1.074,0,0,0-.447.9,1.029,1.029,0,0,0,.524.872A5.916,5.916,0,0,0,5.1-6.292a6.661,6.661,0,0,1,2.732,1.4,2.786,2.786,0,0,1,.857,2.08A2.566,2.566,0,0,1,7.639-.641a4.585,4.585,0,0,1-2.82.787A5.445,5.445,0,0,1,2.578-.3,3.546,3.546,0,0,1,1.036-1.538,3.161,3.161,0,0,1,.505-3.354h2.2q0,1.765,2.109,1.765a2.052,2.052,0,0,0,1.223-.319A1.037,1.037,0,0,0,6.482-2.8ZM9.7-4.036a4.7,4.7,0,0,1,.454-2.1,3.324,3.324,0,0,1,1.307-1.428,3.814,3.814,0,0,1,1.981-.505,3.609,3.609,0,0,1,2.618.981A3.939,3.939,0,0,1,17.2-4.424l.015.542A4.142,4.142,0,0,1,16.194-.956a3.539,3.539,0,0,1-2.732,1.1,3.556,3.556,0,0,1-2.736-1.1A4.215,4.215,0,0,1,9.7-3.94Zm2.117.15a2.962,2.962,0,0,0,.425,1.727,1.4,1.4,0,0,0,1.216.6,1.4,1.4,0,0,0,1.2-.591A3.241,3.241,0,0,0,15.1-4.039a2.933,2.933,0,0,0-.432-1.716,1.4,1.4,0,0,0-1.216-.609,1.382,1.382,0,0,0-1.2.605A3.3,3.3,0,0,0,11.821-3.885Zm8.643-4.039.066.916a2.767,2.767,0,0,1,2.278-1.062,2.3,2.3,0,0,1,1.875.74,3.451,3.451,0,0,1,.63,2.212V0H23.2V-5.08a1.379,1.379,0,0,0-.293-.98,1.31,1.31,0,0,0-.974-.3,1.456,1.456,0,0,0-1.34.763V0H18.472V-7.925ZM29.15,0H27.026V-7.925H29.15ZM26.9-9.976a1.042,1.042,0,0,1,.319-.784,1.2,1.2,0,0,1,.868-.308,1.2,1.2,0,0,1,.864.308,1.036,1.036,0,0,1,.322.784,1.039,1.039,0,0,1-.326.791,1.2,1.2,0,0,1-.861.308,1.2,1.2,0,0,1-.861-.308A1.039,1.039,0,0,1,26.9-9.976Zm3.662,5.955A4.776,4.776,0,0,1,31.4-6.973a2.7,2.7,0,0,1,2.274-1.1,2.427,2.427,0,0,1,1.912.864V-11.25h2.124V0H35.793l-.1-.842a2.491,2.491,0,0,1-2.036.989,2.69,2.69,0,0,1-2.245-1.1A4.93,4.93,0,0,1,30.564-4.021Zm2.117.151a3.146,3.146,0,0,0,.388,1.714,1.263,1.263,0,0,0,1.128.6,1.416,1.416,0,0,0,1.384-.831V-5.533a1.4,1.4,0,0,0-1.37-.831Q32.681-6.365,32.681-3.87Zm6.335-.165a4.7,4.7,0,0,1,.454-2.1,3.324,3.324,0,0,1,1.307-1.428,3.814,3.814,0,0,1,1.981-.505,3.609,3.609,0,0,1,2.618.981,3.939,3.939,0,0,1,1.132,2.666l.015.542A4.142,4.142,0,0,1,45.505-.956a3.539,3.539,0,0,1-2.732,1.1,3.556,3.556,0,0,1-2.736-1.1A4.215,4.215,0,0,1,39.016-3.94Zm2.117.15a2.962,2.962,0,0,0,.425,1.727,1.4,1.4,0,0,0,1.216.6,1.4,1.4,0,0,0,1.2-.591,3.241,3.241,0,0,0,.432-1.889,2.933,2.933,0,0,0-.432-1.716,1.4,1.4,0,0,0-1.216-.609,1.382,1.382,0,0,0-1.2.605A3.3,3.3,0,0,0,41.133-3.885Z" transform="translate(-13923 -9422.105)" fill="#fff"/>
    <g id="Grupo_73933" data-name="Grupo 73933" transform="translate(-13916.979 -9489.096)">
      <path id="Trazado_108972" data-name="Trazado 108972" d="M1647.157,1848a8.839,8.839,0,0,1,1.194.438,4.624,4.624,0,0,1,2.443,4.425q.01,5.994,0,11.989,0,5.161,0,10.321a1.564,1.564,0,0,1-.991,1.623,1.4,1.4,0,0,1-1.747-1.367c-.012-.167-.007-.336-.007-.5q0-11.02,0-22.038c0-1.007-.431-1.621-1.227-1.754a1.213,1.213,0,0,0-1.214.55c-2.584,3.39-5.175,6.772-7.742,10.177a1.9,1.9,0,0,1-1.719.9c-.833-.045-1.67-.014-2.5-.01a2.821,2.821,0,0,0-2.853,2.889,36.889,36.889,0,0,0,0,4.457,2.83,2.83,0,0,0,2.851,2.895c.881.006,1.762.024,2.642-.007a1.694,1.694,0,0,1,1.49.774q3.873,5.113,7.767,10.2a1.256,1.256,0,0,0,1.58.572,1.55,1.55,0,0,0,.938-1.513,1.428,1.428,0,0,1,1.459-1.488,1.5,1.5,0,0,1,1.275,1.66,4.481,4.481,0,0,1-3.48,4.478.775.775,0,0,0-.154.069h-1.03c-.028-.02-.054-.052-.085-.058a4.134,4.134,0,0,1-2.6-1.713q-3.661-4.829-7.346-9.634a.659.659,0,0,0-.457-.23c-.789-.026-1.58.028-2.367-.029a5.337,5.337,0,0,1-4.7-3.514,14.709,14.709,0,0,1-.569-2.051v-5.278a3.374,3.374,0,0,0,.073-.33,5.819,5.819,0,0,1,4.645-5.17,24.327,24.327,0,0,1,2.842-.083.653.653,0,0,0,.583-.292q3.7-4.888,7.433-9.752a3.291,3.291,0,0,1,.912-.864,15.607,15.607,0,0,1,1.707-.74Z" transform="translate(-1628 -1848)" fill="#fff"/>
      <path id="Trazado_108973" data-name="Trazado 108973" d="M1691.992,1875.431c-.09.761-.157,1.527-.273,2.282a19.407,19.407,0,0,1-4.229,9.631,1.209,1.209,0,0,1-1.943.055,1.845,1.845,0,0,1-.049-2.3,18.463,18.463,0,0,0,2.113-3.346,17.308,17.308,0,0,0,1.6-8.123,16.575,16.575,0,0,0-2.7-8.621c-.312-.474-.667-.907-1-1.365a1.878,1.878,0,0,1,.035-2.337,1.22,1.22,0,0,1,1.968.091,19.691,19.691,0,0,1,4.347,10.7c.041.394.085.788.128,1.182Z" transform="translate(-1652.254 -1854.486)" fill="#fff"/>
      <path id="Trazado_108974" data-name="Trazado 108974" d="M1684.193,1878.772a7.634,7.634,0,0,1-1,3.808,1.384,1.384,0,0,1-1.911.655,1.365,1.365,0,0,1-.517-1.922,5.167,5.167,0,0,0-.007-5.17,1.361,1.361,0,0,1,.542-1.914,1.378,1.378,0,0,1,1.87.62A7.679,7.679,0,0,1,1684.193,1878.772Z" transform="translate(-1650.756 -1858.871)" fill="#fff"/>
    </g>
  </g>
</svg>
