<svg xmlns="http://www.w3.org/2000/svg" xmlns:xlink="http://www.w3.org/1999/xlink" width="1030" height="493.882" viewBox="0 0 1030 493.882">
  <defs>
    <clipPath id="clip-path">
      <rect id="Rectángulo_33655" data-name="Rectángulo 33655" width="1030" height="493" transform="translate(-5366 -11083)" fill="#b2ebf2"/>
    </clipPath>
  </defs>
  <g id="Grupo_77560" data-name="Grupo 77560" transform="translate(6155 11083)">
    <path id="Trazado_107856" data-name="Trazado 107856" d="M41.187,342.723c9.7-5.6,25.379-5.6,35.015,0s9.587,14.682-.113,20.283-25.379,5.6-35.017,0S31.485,348.325,41.187,342.723Z" transform="translate(-6039.79 -10956.324)" fill="#e0e0e0" opacity="0.475"/>
    <g id="Enmascarar_grupo_111" data-name="Enmascarar grupo 111" transform="translate(-789)" clip-path="url(#clip-path)">
      <rect id="Rectángulo_33542" data-name="Rectángulo 33542" width="1030" height="493" transform="translate(-5366 -11083)" fill="#b2ebf2"/>
      <rect id="Rectángulo_31425" data-name="Rectángulo 31425" width="651" height="777" transform="translate(-5252 -11110)" fill="none"/>
      <path id="Trazado_107859" data-name="Trazado 107859" d="M467.446,253.765,444.992,240.82a22.7,22.7,0,0,0-22.695.012l-124.577,72.2L286.73,306.7l-90.179,52.761,10.409,6L59.5,450.6a7.568,7.568,0,0,0,0,13.107l22.693,13.1a22.7,22.7,0,0,0,22.716-.01l147.378-85.233,17.224,9.92a45.406,45.406,0,0,0,45.364-.023l52.976-30.587a10.09,10.09,0,0,0-.01-17.483L343,339.094l20.915-12.136,7.251-4.208,96.287-55.878A7.567,7.567,0,0,0,467.446,253.765Z" transform="translate(-5340.525 -11031.186)" fill="#1565c0" opacity="0.311"/>
      <g id="Grupo_73055" data-name="Grupo 73055" transform="translate(-5356 -10957.867)">
        <g id="Grupo_73051" data-name="Grupo 73051" transform="translate(33.387 172.451)">
          <path id="Trazado_107903" data-name="Trazado 107903" d="M547.682,294.354l-60,1.749-60-1.749c-2.584,40.52,5.327,81.817,16.233,101.985l.043,0c1.951,4.423,5.879,8.622,11.878,12.084,17.7,10.223,46.313,10.223,63.9,0,6.1-3.545,10.021-7.856,11.871-12.4C542.431,375.741,550.255,334.675,547.682,294.354Z" transform="translate(-427.188 -259.601)" fill="#fff"/>
          <g id="Grupo_73048" data-name="Grupo 73048" transform="translate(0.492)">
            <path id="Trazado_107904" data-name="Trazado 107904" d="M529.613,294.914c23.51,13.573,23.633,35.58.278,49.153s-61.346,13.573-84.856,0-23.63-35.576-.274-49.153S506.106,281.344,529.613,294.914Z" transform="translate(-427.324 -284.737)" fill="#ebebeb"/>
          </g>
          <g id="Grupo_73049" data-name="Grupo 73049" transform="translate(13.682 7.638)">
            <path id="Trazado_107905" data-name="Trazado 107905" d="M510.778,294.791c18.339,10.591,18.437,27.757.217,38.348s-47.863,10.588-66.2,0-18.437-27.757-.217-38.348S492.435,284.2,510.778,294.791Z" transform="translate(-430.974 -286.85)" fill="#e0e0e0"/>
          </g>
          <g id="Grupo_73050" data-name="Grupo 73050" transform="translate(13.682 7.638)" opacity="0.15">
            <path id="Trazado_107906" data-name="Trazado 107906" d="M510.778,294.791c18.339,10.591,18.437,27.757.217,38.348s-47.863,10.588-66.2,0-18.437-27.757-.217-38.348S492.435,284.2,510.778,294.791Z" transform="translate(-430.974 -286.85)"/>
          </g>
        </g>
        <g id="Grupo_73054" data-name="Grupo 73054" transform="translate(0)">
          <path id="Trazado_107907" data-name="Trazado 107907" d="M470.334,321.427c-9.76-12.131-21.093-23-30.04-35.739-6.1-8.694-11.206-19.333-8.641-29.643,2.382-9.562,11.318-16.677,21.006-18.488s19.828,1.081,28.2,6.288,15.166,12.579,21.31,20.287a211.786,211.786,0,0,1,44.589,151.2c-.61,6.147-1.641,12.612-5.568,17.378a17.4,17.4,0,0,1-17.935,5.482c-16.344-4.853-14.177-26.932-16.847-39.924a182.336,182.336,0,0,0-18.777-50.974A178.464,178.464,0,0,0,470.334,321.427Z" transform="translate(-407.057 -237.015)" fill="#1565c0"/>
          <path id="Trazado_107908" data-name="Trazado 107908" d="M470.334,321.427c-9.76-12.131-21.093-23-30.04-35.739-6.1-8.694-11.206-19.333-8.641-29.643,2.382-9.562,11.318-16.677,21.006-18.488s19.828,1.081,28.2,6.288,15.166,12.579,21.31,20.287a211.786,211.786,0,0,1,44.589,151.2c-.61,6.147-1.641,12.612-5.568,17.378a17.4,17.4,0,0,1-17.935,5.482c-16.344-4.853-14.177-26.932-16.847-39.924a182.336,182.336,0,0,0-18.777-50.974A178.464,178.464,0,0,0,470.334,321.427Z" transform="translate(-407.057 -237.015)" fill="#fff" opacity="0.2"/>
          <g id="Grupo_73052" data-name="Grupo 73052" transform="translate(44.145 14.231)">
            <path id="Trazado_107909" data-name="Trazado 107909" d="M510.065,411.438a1.437,1.437,0,0,1-1.153-1.341c-1.142-26.239-9.674-115.8-71.392-166.611a1.43,1.43,0,1,1,1.818-2.208c62.632,51.567,71.276,142.158,72.436,168.693a1.439,1.439,0,0,1-1.37,1.5A1.775,1.775,0,0,1,510.065,411.438Z" transform="translate(-436.999 -240.953)" fill="#f0f0f0"/>
          </g>
          <g id="Grupo_73053" data-name="Grupo 73053" transform="translate(0 85.046)">
            <path id="Trazado_107910" data-name="Trazado 107910" d="M560.648,363.06c-1.868,10.3-10.715,23.044-20.041,27.793-9.247,4.705-19.98,5.962-30.326,5.073-10.534-.9-20.764-3.924-30.785-7.3-4.947-1.666-10.451-3.914-10.975-10.042a10.943,10.943,0,0,1,3.5-8.633,35.678,35.678,0,0,1,3.195-2.75,3.162,3.162,0,0,0-1.687-5.681,73.75,73.75,0,0,1-8.774-1.084c-6.7-1.279-13.295-3.834-18.419-8.333a30.613,30.613,0,0,1-8.507-12.6c-1.492-4.123-1.908-9.294,1.214-12.373,1.789-1.764,4.365-2.436,6.822-2.963,2.194-.477,4.395-.878,6.6-1.221a2.927,2.927,0,0,0,.68-5.6l-9.309-3.877c-2.584-1.077-5.276-2.233-7.065-4.387-2.848-3.437-2.645-8.442-1.789-12.821,1.138-5.829,3.148-11.448,4.521-17.226s2.093-11.874.614-17.624c17.382-1.76,35.24-.932,52.142,3.484,5.048,1.315,10.158,2.97,14.231,6.23,5.8,4.643,7.314,11.614,6.7,19.167a1.351,1.351,0,0,0,2.537.712l5.948-10.971a7.06,7.06,0,0,1,9.247-2.956,42.81,42.81,0,0,1,13.6,10.7,23.586,23.586,0,0,1,5.818,17.407A152.125,152.125,0,0,1,546,330.743a2.367,2.367,0,0,0,3.7,2.5l.282-.2a8.018,8.018,0,0,1,5.608-1.634c5.258.654,6.6,5.981,6.949,10.516C563.051,348.486,561.887,356.223,560.648,363.06Z" transform="translate(-434.417 -260.549)" fill="#1565c0"/>
            <path id="Trazado_107911" data-name="Trazado 107911" d="M560.648,363.06c-1.868,10.3-10.715,23.044-20.041,27.793-9.247,4.705-19.98,5.962-30.326,5.073-10.534-.9-20.764-3.924-30.785-7.3-4.947-1.666-10.451-3.914-10.975-10.042a10.943,10.943,0,0,1,3.5-8.633,35.678,35.678,0,0,1,3.195-2.75,3.162,3.162,0,0,0-1.687-5.681,73.75,73.75,0,0,1-8.774-1.084c-6.7-1.279-13.295-3.834-18.419-8.333a30.613,30.613,0,0,1-8.507-12.6c-1.492-4.123-1.908-9.294,1.214-12.373,1.789-1.764,4.365-2.436,6.822-2.963,2.194-.477,4.395-.878,6.6-1.221a2.927,2.927,0,0,0,.68-5.6l-9.309-3.877c-2.584-1.077-5.276-2.233-7.065-4.387-2.848-3.437-2.645-8.442-1.789-12.821,1.138-5.829,3.148-11.448,4.521-17.226s2.093-11.874.614-17.624c17.382-1.76,35.24-.932,52.142,3.484,5.048,1.315,10.158,2.97,14.231,6.23,5.8,4.643,7.314,11.614,6.7,19.167a1.351,1.351,0,0,0,2.537.712l5.948-10.971a7.06,7.06,0,0,1,9.247-2.956,42.81,42.81,0,0,1,13.6,10.7,23.586,23.586,0,0,1,5.818,17.407A152.125,152.125,0,0,1,546,330.743a2.367,2.367,0,0,0,3.7,2.5l.282-.2a8.018,8.018,0,0,1,5.608-1.634c5.258.654,6.6,5.981,6.949,10.516C563.051,348.486,561.887,356.223,560.648,363.06Z" transform="translate(-434.417 -260.549)" opacity="0.2"/>
            <path id="Trazado_107912" data-name="Trazado 107912" d="M560.648,363.06c-1.868,10.3-10.715,23.044-20.041,27.793-9.247,4.705-19.98,5.962-30.326,5.073-10.534-.9-20.764-3.924-30.785-7.3-4.947-1.666-10.451-3.914-10.975-10.042a10.943,10.943,0,0,1,3.5-8.633,35.678,35.678,0,0,1,3.195-2.75,3.162,3.162,0,0,0-1.687-5.681,73.75,73.75,0,0,1-8.774-1.084c-6.7-1.279-13.295-3.834-18.419-8.333a30.613,30.613,0,0,1-8.507-12.6c-1.492-4.123-1.908-9.294,1.214-12.373,1.789-1.764,4.365-2.436,6.822-2.963,2.194-.477,4.395-.878,6.6-1.221a2.927,2.927,0,0,0,.68-5.6l-9.309-3.877c-2.584-1.077-5.276-2.233-7.065-4.387-2.848-3.437-2.645-8.442-1.789-12.821,1.138-5.829,3.148-11.448,4.521-17.226s2.093-11.874.614-17.624c17.382-1.76,35.24-.932,52.142,3.484,5.048,1.315,10.158,2.97,14.231,6.23,5.8,4.643,7.314,11.614,6.7,19.167a1.351,1.351,0,0,0,2.537.712l5.948-10.971a7.06,7.06,0,0,1,9.247-2.956,42.81,42.81,0,0,1,13.6,10.7,23.586,23.586,0,0,1,5.818,17.407A152.125,152.125,0,0,1,546,330.743a2.367,2.367,0,0,0,3.7,2.5l.282-.2a8.018,8.018,0,0,1,5.608-1.634c5.258.654,6.6,5.981,6.949,10.516C563.051,348.486,561.887,356.223,560.648,363.06Z" transform="translate(-434.417 -260.549)" fill="#fff" opacity="0.2"/>
            <path id="Trazado_107913" data-name="Trazado 107913" d="M522.689,383.575c-.072-.365-3.672-17.811-14.025-40.643a1.4,1.4,0,0,0-.491-1.07c-.325-.7-.643-1.406-.983-2.125,2.974-27.3,13.786-46.345,13.891-46.533a1.429,1.429,0,0,0-2.475-1.427c-.1.184-10.053,17.7-13.7,43.259-11.871-23.807-30.806-51.65-60.041-72a1.432,1.432,0,0,0-1.637,2.349c30.156,20.984,49.185,50.074,60.749,74.217-23.561-11.47-48.593-6.935-49.706-6.725a1.428,1.428,0,0,0-.007,2.8,1.445,1.445,0,0,0,.542,0c.274-.051,27.561-5.012,51.158,8.178,10.27,22.6,13.844,39.9,13.917,40.264a1.431,1.431,0,0,0,1.127,1.127,1.408,1.408,0,0,0,.55,0A1.43,1.43,0,0,0,522.689,383.575Z" transform="translate(-424.11 -254.706)" fill="#f0f0f0"/>
          </g>
        </g>
      </g>
      <g id="Grupo_73102" data-name="Grupo 73102" transform="translate(-5244.246 -11079.277)">
        <g id="Grupo_73061" data-name="Grupo 73061" transform="translate(0 0)">
          <g id="Grupo_73060" data-name="Grupo 73060">
            <g id="Grupo_73058" data-name="Grupo 73058" transform="translate(134.249 344.53)">
              <g id="Grupo_73056" data-name="Grupo 73056">
                <path id="Trazado_107914" data-name="Trazado 107914" d="M273.552,318.082l-39.659,22.692a37.6,37.6,0,0,1-37.446-.059l-29.428-16.959A11.281,11.281,0,0,1,161.372,314l-.027-20.074-6.139,3.547V314.92a13.16,13.16,0,0,0,6.589,11.4l34.94,20.137a37.018,37.018,0,0,0,36.869.058l39.948-22.857a14.951,14.951,0,0,0,7.284-15.842A14.815,14.815,0,0,1,273.552,318.082Z" transform="translate(-155.206 -251.408)" fill="#1565c0"/>
                <path id="Trazado_107915" data-name="Trazado 107915" d="M273.552,318.082l-39.659,22.692a37.6,37.6,0,0,1-37.446-.059l-29.428-16.959A11.281,11.281,0,0,1,161.372,314l-.027-20.074-6.139,3.547V314.92a13.16,13.16,0,0,0,6.589,11.4l34.94,20.137a37.018,37.018,0,0,0,36.869.058l39.948-22.857a14.951,14.951,0,0,0,7.284-15.842A14.815,14.815,0,0,1,273.552,318.082Z" transform="translate(-155.206 -251.408)" opacity="0.1"/>
                <path id="Trazado_107916" data-name="Trazado 107916" d="M164.914,338.332l29.428,16.959a37.6,37.6,0,0,0,37.446.059l39.659-22.692a14.815,14.815,0,0,0,7.284-10.265,14.805,14.805,0,0,0-7.018-10.107l-32.537-19.516a13.16,13.16,0,0,1-6.39-11.285v-15.5L159.24,308.5l.027,20.074A11.281,11.281,0,0,0,164.914,338.332Z" transform="translate(-153.101 -265.984)" fill="#1565c0"/>
              </g>
              <g id="Grupo_73057" data-name="Grupo 73057">
                <path id="Trazado_107917" data-name="Trazado 107917" d="M167.019,323.755A11.281,11.281,0,0,1,161.372,314l-.027-20.074-6.139,3.547V314.92a13.16,13.16,0,0,0,6.589,11.4l12.4,7.143v-5.577Z" transform="translate(-155.206 -251.408)" opacity="0.4"/>
                <path id="Trazado_107918" data-name="Trazado 107918" d="M164.914,338.332l7.172,4.133h0l76.78-43.883-9.69-5.811a13.16,13.16,0,0,1-6.39-11.285v-15.5L159.24,308.5l.027,20.074A11.281,11.281,0,0,0,164.914,338.332Z" transform="translate(-153.101 -265.984)" opacity="0.3"/>
              </g>
            </g>
            <g id="Grupo_73059" data-name="Grupo 73059">
              <path id="Trazado_107919" data-name="Trazado 107919" d="M77.574,346.384v-.009c-.029-.014-.058-.024-.085-.04Z" transform="translate(-61.502 120.465)" fill="#ffa8a7"/>
              <path id="Trazado_107920" data-name="Trazado 107920" d="M79.564,499.091,79,247.564c-.02-7.137,5-15.844,11.221-19.435L402.874,48.079c3.089-1.783,5.892-1.965,7.933-.82l-11.772-6.822v.009c-2.059-1.306-4.961-1.2-8.178.66L78.2,221.156c-6.222,3.593-11.242,12.3-11.221,19.437l.565,251.528c.011,3.368,1.149,5.775,2.995,7.017h0l.012.008a5.39,5.39,0,0,0,.63.364l11.611,6.761C80.808,505.081,79.575,502.6,79.564,499.091Z" transform="translate(-66.983 -39.573)" fill="#1565c0"/>
              <path id="Trazado_107921" data-name="Trazado 107921" d="M398.135,40.437v.009c-2.059-1.306-4.961-1.2-8.178.66L77.3,221.156a23.583,23.583,0,0,0-8.6,9.582l12.028,6.954a23.538,23.538,0,0,1,8.587-9.564L401.975,48.079c3.089-1.783,5.892-1.965,7.933-.82Z" transform="translate(-66.084 -39.573)" fill="#fff" opacity="0.3"/>
              <path id="Trazado_107922" data-name="Trazado 107922" d="M66.983,175.054l.565,251.528c.011,3.368,1.149,5.775,2.995,7.017h0l.012.008a5.41,5.41,0,0,0,.63.364l11.611,6.761c-1.986-1.188-3.218-3.666-3.229-7.178L79,182.024a22.093,22.093,0,0,1,2.634-9.871L69.606,165.2A22.1,22.1,0,0,0,66.983,175.054Z" transform="translate(-66.983 25.966)" opacity="0.2"/>
              <path id="Trazado_107923" data-name="Trazado 107923" d="M293.038,44.685l-.058-.033c.018.011.035.026.053.037Z" transform="translate(50.92 -36.923)" fill="#ffa8a7"/>
              <path id="Trazado_107924" data-name="Trazado 107924" d="M410.048,52.126c-.009-3.512-1.245-5.986-3.232-7.176-.018-.011-.035-.026-.053-.037l-.076-.043c-2.041-1.144-4.844-.963-7.933.82L86.1,225.74c-6.222,3.591-11.241,12.3-11.221,19.435L75.445,496.7c.011,3.512,1.243,5.99,3.229,7.178.059.036.116.072.177.1.027.015.056.026.085.04,2.028,1.067,4.775.866,7.8-.884L399.393,323.091c6.212-3.587,11.241-12.3,11.221-19.437ZM393.838,313.469,86.538,490.428,85.99,245.143c-.009-3.159,2.9-8.187,5.665-9.782L398.957,58.4l.548,245.284C399.514,306.845,396.6,311.874,393.838,313.469Z" transform="translate(-62.863 -37.185)" fill="#1565c0"/>
              <path id="Trazado_107925" data-name="Trazado 107925" d="M394.966,53.516,387.012,58.1l.53,236.814c.009,3.159-2.9,8.188-5.667,9.783L82.529,477.073l.018,8.468,307.3-176.958c2.763-1.595,5.676-6.624,5.667-9.783Z" transform="translate(-58.873 -32.299)" fill="#1565c0"/>
              <path id="Trazado_107926" data-name="Trazado 107926" d="M394.966,53.516,387.012,58.1l.53,236.814c.009,3.159-2.9,8.188-5.667,9.783L82.529,477.073l.018,8.468,307.3-176.958c2.763-1.595,5.676-6.624,5.667-9.783Z" transform="translate(-58.873 -32.299)" opacity="0.3"/>
              <path id="Trazado_107927" data-name="Trazado 107927" d="M387.723,293.345l-.53-236.814L87.846,228.9c-2.762,1.595-5.674,6.622-5.665,9.781l.53,236.816L382.056,303.129C384.821,301.534,387.732,296.5,387.723,293.345Z" transform="translate(-59.054 -30.726)" fill="#263238"/>
            </g>
          </g>
        </g>
        <g id="Grupo_73101" data-name="Grupo 73101" transform="translate(113.275 0)">
          <g id="Grupo_73063" data-name="Grupo 73063">
            <g id="Grupo_73062" data-name="Grupo 73062" transform="translate(0)">
              <path id="Trazado_107928" data-name="Trazado 107928" d="M110.46,498.81l-.534-237.74c-.018-6.746,4.726-14.975,10.606-18.37L416.045,72.521c2.919-1.685,5.569-1.856,7.5-.775L412.416,65.3v.009c-1.948-1.236-4.69-1.132-7.73.624L109.174,236.11c-5.881,3.395-10.626,11.624-10.606,18.371L99.1,492.22c.009,3.183,1.086,5.458,2.83,6.632h0l.012.008a5.013,5.013,0,0,0,.595.342l10.974,6.391C111.635,504.469,110.471,502.129,110.46,498.81Z" transform="translate(-98.568 -64.482)" fill="#455a64"/>
              <path id="Trazado_107929" data-name="Trazado 107929" d="M411.565,65.3v.009c-1.948-1.236-4.69-1.132-7.73.624L108.324,236.11a22.28,22.28,0,0,0-8.126,9.057l11.369,6.572a22.266,22.266,0,0,1,8.115-9.039L415.195,72.521c2.919-1.685,5.569-1.856,7.5-.775Z" transform="translate(-97.718 -64.482)" fill="#fff" opacity="0.2"/>
            </g>
            <path id="Trazado_107930" data-name="Trazado 107930" d="M98.568,192.535,99.1,430.273c.009,3.183,1.086,5.458,2.83,6.632l0,0,.012.008a5.019,5.019,0,0,0,.595.342l10.975,6.391c-1.878-1.125-3.042-3.465-3.053-6.784l-.534-237.74a20.9,20.9,0,0,1,2.491-9.331l-11.369-6.572A20.879,20.879,0,0,0,98.568,192.535Z" transform="translate(-98.568 -2.536)" fill="#fff" opacity="0.1"/>
          </g>
          <path id="Trazado_107931" data-name="Trazado 107931" d="M106.052,265.413l.5,223.958c.011,3.319,1.175,5.659,3.053,6.784.055.033.11.065.166.1.026.014.055.023.081.036,1.917,1.009,4.513.819,7.377-.834L412.745,325.275c5.871-3.389,10.625-11.624,10.606-18.371l-.505-224.329Z" transform="translate(-94.664 -55.043)" fill="#455a64"/>
          <path id="Trazado_107932" data-name="Trazado 107932" d="M116.066,265.168l286.4-165.3.444,198.046a9.2,9.2,0,0,1-3.008,5.165L116.516,466.275Z" transform="translate(-89.439 -46.02)" fill="#455a64"/>
          <path id="Trazado_107933" data-name="Trazado 107933" d="M106.052,265.413l.5,223.958c.011,3.319,1.175,5.659,3.053,6.784.055.033.11.065.166.1.026.014.055.023.081.036,1.917,1.009,4.513.819,7.377-.834L412.745,325.275c5.871-3.389,10.625-11.624,10.606-18.371l-.505-224.329Z" transform="translate(-94.664 -55.043)" fill="#fff" opacity="0.2"/>
          <g id="Grupo_73076" data-name="Grupo 73076" transform="translate(22.536 41.759)">
            <g id="Grupo_73066" data-name="Grupo 73066" transform="translate(35.125)">
              <g id="Grupo_73064" data-name="Grupo 73064">
                <path id="Trazado_107934" data-name="Trazado 107934" d="M394.724,92.6c2.738-1.579,4.973-.315,4.982,2.84a10.913,10.913,0,0,1-4.95,8.573L141.443,250.45c-2.737,1.581-4.973.315-4.982-2.838a10.914,10.914,0,0,1,4.949-8.573Z" transform="translate(-136.461 -91.924)" fill="#455a64"/>
              </g>
              <g id="Grupo_73065" data-name="Grupo 73065" opacity="0.8">
                <path id="Trazado_107935" data-name="Trazado 107935" d="M394.724,92.6c2.738-1.579,4.973-.315,4.982,2.84a10.913,10.913,0,0,1-4.95,8.573L141.443,250.45c-2.737,1.581-4.973.315-4.982-2.838a10.914,10.914,0,0,1,4.949-8.573Z" transform="translate(-136.461 -91.924)" fill="#fff"/>
              </g>
            </g>
            <g id="Grupo_73075" data-name="Grupo 73075" transform="translate(0 156.285)">
              <g id="Grupo_73070" data-name="Grupo 73070">
                <g id="Grupo_73067" data-name="Grupo 73067" transform="translate(0 14.819)">
                  <path id="Trazado_107936" data-name="Trazado 107936" d="M116.242,204.434a.372.372,0,0,1,.336-.044c.2.1.221.452.032.794l-1.6,2.941,5.4-3.119c.275-.158.5-.03.5.286a1.107,1.107,0,0,1-.5.863l-5.4,3.118,1.611,1.088c.189.125.175.5-.027.828a1.009,1.009,0,0,1-.335.344.336.336,0,0,1-.368.027l-2.384-1.605a.3.3,0,0,1-.1-.123.507.507,0,0,1-.037-.189.854.854,0,0,1,.03-.21,1.072,1.072,0,0,1,.094-.237l2.372-4.364A1.017,1.017,0,0,1,116.242,204.434Z" transform="translate(-113.378 -204.367)" fill="#455a64"/>
                </g>
                <g id="Grupo_73068" data-name="Grupo 73068" transform="translate(11.854 6.943)">
                  <path id="Trazado_107937" data-name="Trazado 107937" d="M125.818,199.26a.352.352,0,0,1,.368-.029l2.383,1.605a.4.4,0,0,1,.1.125.633.633,0,0,1,.033.19.863.863,0,0,1-.03.21,1.173,1.173,0,0,1-.091.234l-2.372,4.366a1.02,1.02,0,0,1-.368.4.369.369,0,0,1-.338.044c-.2-.1-.218-.452-.032-.793l1.6-2.943-5.4,3.118c-.274.158-.5.03-.5-.286a1.1,1.1,0,0,1,.5-.861l5.4-3.119-1.615-1.085c-.186-.126-.172-.5.027-.828A.994.994,0,0,1,125.818,199.26Z" transform="translate(-121.168 -199.191)" fill="#455a64"/>
                </g>
                <g id="Grupo_73069" data-name="Grupo 73069" transform="translate(23.402)">
                  <path id="Trazado_107938" data-name="Trazado 107938" d="M131.837,195.877a2.573,2.573,0,0,1,1.659-.4,1.1,1.1,0,0,1,.49-.779l.024-.012c.274-.146.487,0,.476.32l-.041,1.277a1.1,1.1,0,0,1-.476.823l-1.09.683-.021.012c-.266.154-.484.043-.5-.26a1.087,1.087,0,0,1,.379-.8,1.938,1.938,0,0,0-.9.283,4.6,4.6,0,0,0-2.088,3.613c0,1.327.946,1.86,2.1,1.193a4.579,4.579,0,0,0,1.837-2.316,1.085,1.085,0,0,1,.438-.554.449.449,0,0,1,.237-.067c.242.011.333.306.2.66a6.763,6.763,0,0,1-2.71,3.424c-1.706.985-3.1.19-3.1-1.765A6.8,6.8,0,0,1,131.837,195.877Z" transform="translate(-128.757 -194.628)" fill="#455a64"/>
                </g>
              </g>
              <g id="Grupo_73074" data-name="Grupo 73074" opacity="0.7">
                <g id="Grupo_73071" data-name="Grupo 73071" transform="translate(0 14.819)">
                  <path id="Trazado_107939" data-name="Trazado 107939" d="M116.242,204.434a.372.372,0,0,1,.336-.044c.2.1.221.452.032.794l-1.6,2.941,5.4-3.119c.275-.158.5-.03.5.286a1.107,1.107,0,0,1-.5.863l-5.4,3.118,1.611,1.088c.189.125.175.5-.027.828a1.009,1.009,0,0,1-.335.344.336.336,0,0,1-.368.027l-2.384-1.605a.3.3,0,0,1-.1-.123.507.507,0,0,1-.037-.189.854.854,0,0,1,.03-.21,1.072,1.072,0,0,1,.094-.237l2.372-4.364A1.017,1.017,0,0,1,116.242,204.434Z" transform="translate(-113.378 -204.367)" fill="#fff"/>
                </g>
                <g id="Grupo_73072" data-name="Grupo 73072" transform="translate(11.854 6.943)">
                  <path id="Trazado_107940" data-name="Trazado 107940" d="M125.818,199.26a.352.352,0,0,1,.368-.029l2.383,1.605a.4.4,0,0,1,.1.125.633.633,0,0,1,.033.19.863.863,0,0,1-.03.21,1.173,1.173,0,0,1-.091.234l-2.372,4.366a1.02,1.02,0,0,1-.368.4.369.369,0,0,1-.338.044c-.2-.1-.218-.452-.032-.793l1.6-2.943-5.4,3.118c-.274.158-.5.03-.5-.286a1.1,1.1,0,0,1,.5-.861l5.4-3.119-1.615-1.085c-.186-.126-.172-.5.027-.828A.994.994,0,0,1,125.818,199.26Z" transform="translate(-121.168 -199.191)" fill="#fff"/>
                </g>
                <g id="Grupo_73073" data-name="Grupo 73073" transform="translate(23.402)">
                  <path id="Trazado_107941" data-name="Trazado 107941" d="M131.837,195.877a2.573,2.573,0,0,1,1.659-.4,1.1,1.1,0,0,1,.49-.779l.024-.012c.274-.146.487,0,.476.32l-.041,1.277a1.1,1.1,0,0,1-.476.823l-1.09.683-.021.012c-.266.154-.484.043-.5-.26a1.087,1.087,0,0,1,.379-.8,1.938,1.938,0,0,0-.9.283,4.6,4.6,0,0,0-2.088,3.613c0,1.327.946,1.86,2.1,1.193a4.579,4.579,0,0,0,1.837-2.316,1.085,1.085,0,0,1,.438-.554.449.449,0,0,1,.237-.067c.242.011.333.306.2.66a6.763,6.763,0,0,1-2.71,3.424c-1.706.985-3.1.19-3.1-1.765A6.8,6.8,0,0,1,131.837,195.877Z" transform="translate(-128.757 -194.628)" fill="#fff"/>
                </g>
              </g>
            </g>
          </g>
          <path id="Trazado_107942" data-name="Trazado 107942" d="M422.827,76.348c-.009-3.319-1.178-5.659-3.056-6.782-.018-.011-.034-.026-.052-.035l-.07-.041c-1.93-1.082-4.58-.91-7.5.775L116.638,240.443c-5.88,3.395-10.625,11.624-10.606,18.37l.03,13.782L422.856,89.757Z" transform="translate(-94.674 -62.224)" fill="#455a64"/>
          <path id="Trazado_107943" data-name="Trazado 107943" d="M422.827,76.348c-.009-3.319-1.178-5.659-3.056-6.782-.018-.011-.034-.026-.052-.035l-.07-.041c-1.93-1.082-4.58-.91-7.5.775L116.638,240.443c-5.88,3.395-10.625,11.624-10.606,18.37l.03,13.782L422.856,89.757Z" transform="translate(-94.674 -62.224)" opacity="0.3"/>
          <g id="Grupo_73080" data-name="Grupo 73080" transform="translate(22.536 178.303)" opacity="0.5">
            <g id="Grupo_73077" data-name="Grupo 73077" transform="translate(0 9.151)">
              <path id="Trazado_107944" data-name="Trazado 107944" d="M116.271,188.067c1.6-.925,2.9-.183,2.911,1.66a6.377,6.377,0,0,1-2.893,5.009c-1.6.925-2.9.181-2.911-1.66A6.377,6.377,0,0,1,116.271,188.067Z" transform="translate(-113.378 -187.669)" fill="#fff"/>
            </g>
            <g id="Grupo_73078" data-name="Grupo 73078" transform="translate(7.925 4.576)">
              <path id="Trazado_107945" data-name="Trazado 107945" d="M121.479,185.06c1.6-.925,2.906-.181,2.911,1.66a6.371,6.371,0,0,1-2.891,5.009c-1.6.925-2.906.181-2.913-1.66A6.377,6.377,0,0,1,121.479,185.06Z" transform="translate(-118.586 -184.663)" fill="#fff"/>
            </g>
            <g id="Grupo_73079" data-name="Grupo 73079" transform="translate(15.852)">
              <path id="Trazado_107946" data-name="Trazado 107946" d="M126.686,182.053c1.6-.925,2.906-.181,2.911,1.66a6.371,6.371,0,0,1-2.891,5.009c-1.6.925-2.906.181-2.911-1.66A6.372,6.372,0,0,1,126.686,182.053Z" transform="translate(-123.795 -181.656)" fill="#fff"/>
            </g>
          </g>
          <g id="Grupo_73084" data-name="Grupo 73084" transform="translate(22.536 178.303)">
            <g id="Grupo_73081" data-name="Grupo 73081" transform="translate(0 9.151)">
              <path id="Trazado_107947" data-name="Trazado 107947" d="M116.271,188.067c1.6-.925,2.9-.183,2.911,1.66a6.377,6.377,0,0,1-2.893,5.009c-1.6.925-2.9.181-2.911-1.66A6.377,6.377,0,0,1,116.271,188.067Z" transform="translate(-113.378 -187.669)" fill="#455a64"/>
            </g>
            <g id="Grupo_73082" data-name="Grupo 73082" transform="translate(7.925 4.576)">
              <path id="Trazado_107948" data-name="Trazado 107948" d="M121.479,185.06c1.6-.925,2.906-.181,2.911,1.66a6.371,6.371,0,0,1-2.891,5.009c-1.6.925-2.906.181-2.913-1.66A6.377,6.377,0,0,1,121.479,185.06Z" transform="translate(-118.586 -184.663)" fill="#455a64"/>
            </g>
            <g id="Grupo_73083" data-name="Grupo 73083" transform="translate(15.852)">
              <path id="Trazado_107949" data-name="Trazado 107949" d="M126.686,182.053c1.6-.925,2.906-.181,2.911,1.66a6.371,6.371,0,0,1-2.891,5.009c-1.6.925-2.906.181-2.911-1.66A6.372,6.372,0,0,1,126.686,182.053Z" transform="translate(-123.795 -181.656)" fill="#455a64"/>
            </g>
          </g>
          <g id="Grupo_73085" data-name="Grupo 73085" transform="translate(26.663 68.236)">
            <path id="Trazado_107950" data-name="Trazado 107950" d="M349.722,193.394l-.181-81.029a3.044,3.044,0,0,0-4.562-2.631L221.4,180.9a7.61,7.61,0,0,0-3.812,6.594v81.145a3.044,3.044,0,0,0,4.562,2.637L345.911,200A7.605,7.605,0,0,0,349.722,193.394Z" transform="translate(-63.139 -109.324)" fill="#37474f"/>
            <path id="Trazado_107951" data-name="Trazado 107951" d="M257.549,162.861,119.9,242.129a7.606,7.606,0,0,0-3.81,6.61l.181,81.027a3.044,3.044,0,0,0,4.562,2.631L258.3,253.234a7.608,7.608,0,0,0,3.812-6.593V165.5A3.043,3.043,0,0,0,257.549,162.861Z" transform="translate(-116.09 -81.607)" fill="#37474f"/>
            <path id="Trazado_107952" data-name="Trazado 107952" d="M257.549,162.861,119.9,242.129a7.606,7.606,0,0,0-3.81,6.61l.181,81.027a3.044,3.044,0,0,0,4.562,2.631L258.3,253.234a7.608,7.608,0,0,0,3.812-6.593V165.5A3.043,3.043,0,0,0,257.549,162.861Z" transform="translate(-116.09 -81.607)" fill="#fff" opacity="0.1"/>
            <path id="Trazado_107953" data-name="Trazado 107953" d="M217.587,249.414v83.43a3.043,3.043,0,0,0,4.562,2.637l124.789-71.862a9.2,9.2,0,0,0,3.008-5.165l-.18-79.9a3.043,3.043,0,0,0-4.562-2.631Z" transform="translate(-63.139 -74.794)" fill="#37474f"/>
            <path id="Trazado_107954" data-name="Trazado 107954" d="M217.587,249.414v83.43a3.043,3.043,0,0,0,4.562,2.637l124.789-71.862a9.2,9.2,0,0,0,3.008-5.165l-.18-79.9a3.043,3.043,0,0,0-4.562-2.631Z" transform="translate(-63.139 -74.794)" fill="#fff" opacity="0.1"/>
            <path id="Trazado_107955" data-name="Trazado 107955" d="M116.238,314.882l.178,78.92a3.043,3.043,0,0,0,4.562,2.631L258.222,317.4a7.61,7.61,0,0,0,3.812-6.594V231.771a3.043,3.043,0,0,0-4.562-2.637L120.05,308.271A7.611,7.611,0,0,0,116.238,314.882Z" transform="translate(-116.013 -47.033)" fill="#37474f"/>
          </g>
          <g id="Grupo_73088" data-name="Grupo 73088" transform="translate(57.662 195.966)">
            <path id="Trazado_107956" data-name="Trazado 107956" d="M166.979,229.55l-14.712,11.075a36.526,36.526,0,0,0-14.455,26.485l-1.351,18.3,80.982-46.635-4.389-6.513a19.783,19.783,0,0,0-20.786-8.232l-8.277,1.879Z" transform="translate(-136.461 -177.469)" fill="#fff"/>
            <g id="Grupo_73087" data-name="Grupo 73087" transform="translate(21.036)">
              <path id="Trazado_107957" data-name="Trazado 107957" d="M150.883,214.286a4.8,4.8,0,0,1,2.368-2.476,3.5,3.5,0,0,1,.7-.265,4.43,4.43,0,0,1,3.938,1.316,7.662,7.662,0,0,1,1.919,3.816,30.535,30.535,0,0,1,.478,4.3,51.849,51.849,0,0,0,1.184,7.573,9.645,9.645,0,0,0,4.9,6.408l.169.088A29.742,29.742,0,0,0,178,238.09l-.018,3.4v.95c3.159,4.3,4.04,12.514-4.282,10.061s-13.747-7.993-13.747-13.435c-.047-2.3-.111-5.25-.169-7.89-.079-3.552-.148-6.527-.148-6.527a4.634,4.634,0,0,1-3.039,1.589,4.1,4.1,0,0,1-1.6-.081,6.008,6.008,0,0,1-3.555-3.037,11.111,11.111,0,0,1-1.137-4.631A9.292,9.292,0,0,1,150.883,214.286Z" transform="translate(-150.285 -183.766)" fill="#8c5c5b"/>
              <path id="Trazado_107958" data-name="Trazado 107958" d="M152.842,204.632a10.289,10.289,0,0,1,6.546-3.472l34.19,3.173c3.941,8.354.793,13.876.793,13.876.533,12.743.974,20.843-4.629,23.526-3.051,1.461-7.7,2.086-12.486,1.732a29.739,29.739,0,0,1-11.452-3.043l-.181-.1a9.662,9.662,0,0,1-4.9-6.435,51.93,51.93,0,0,1-1.175-7.539,30.527,30.527,0,0,0-.478-4.3,7.661,7.661,0,0,0-1.919-3.816,4.43,4.43,0,0,0-3.938-1.316,3.51,3.51,0,0,0-.7.265C151.533,211.526,151.247,206.62,152.842,204.632Z" transform="translate(-149.541 -189.143)" fill="#263238"/>
              <path id="Trazado_107959" data-name="Trazado 107959" d="M161.643,204.226a11.81,11.81,0,0,1-.45,7.161,51.3,51.3,0,0,0-2.173,6.956,11.316,11.316,0,0,0,.94,7.021,8.248,8.248,0,0,0,5.449,4.349c3.672.779,7.262-1.363,10.946-2.077a15.31,15.31,0,0,1,10.29,1.82,1.783,1.783,0,0,0,2.689-1.423c.438-7.333.432-18.825-.654-24.224Z" transform="translate(-145.822 -187.761)" fill="#8c5c5b"/>
              <path id="Trazado_107960" data-name="Trazado 107960" d="M189.312,203.086l4.25-2.952a9,9,0,0,1-1.625,8.366,13.491,13.491,0,0,1-7.491,4.411,28.5,28.5,0,0,1-8.811.4,65.1,65.1,0,0,1-12.721-2.324,10.188,10.188,0,0,1-5-2.623,6.612,6.612,0,0,1-.262-7.79,9.918,9.918,0,0,1,7.027-4.069,26.88,26.88,0,0,1,8.459.666,25.756,25.756,0,0,0,8.461.609c2.811-.422,5.613-1.948,6.823-4.519C190.82,197.146,189.312,203.086,189.312,203.086Z" transform="translate(-147.034 -193.263)" fill="#263238"/>
              <g id="Grupo_73086" data-name="Grupo 73086" transform="translate(20.198 22.338)">
                <path id="Trazado_107961" data-name="Trazado 107961" d="M171.02,212.628l6.235,7.551-5.721,2.022Z" transform="translate(-159.666 -205.498)" fill="#f28f8f"/>
                <path id="Trazado_107962" data-name="Trazado 107962" d="M171.02,212.628l6.235,7.551-5.721,2.022Z" transform="translate(-159.666 -205.498)" fill="#7d4b4a"/>
                <path id="Trazado_107963" data-name="Trazado 107963" d="M167.926,221.383l4.816,1.482a2.966,2.966,0,0,1-3.246,1.493A2.673,2.673,0,0,1,167.926,221.383Z" transform="translate(-161.292 -200.931)" fill="#f28f8f"/>
                <path id="Trazado_107964" data-name="Trazado 107964" d="M167.926,221.383l4.816,1.482a2.966,2.966,0,0,1-3.246,1.493A2.673,2.673,0,0,1,167.926,221.383Z" transform="translate(-161.292 -200.931)" fill="#7d4b4a"/>
                <path id="Trazado_107965" data-name="Trazado 107965" d="M171.064,224a2.721,2.721,0,0,1-1.578.1,2.413,2.413,0,0,1-1.564-2.174A2.747,2.747,0,0,1,171.064,224Z" transform="translate(-161.282 -200.668)" fill="#f28f8f"/>
                <path id="Trazado_107966" data-name="Trazado 107966" d="M165.447,214.336a1.713,1.713,0,1,0,1.619-1.8A1.711,1.711,0,0,0,165.447,214.336Z" transform="translate(-162.574 -205.549)" fill="#263238"/>
                <path id="Trazado_107967" data-name="Trazado 107967" d="M174.863,213.465a1.713,1.713,0,1,0,1.619-1.8A1.711,1.711,0,0,0,174.863,213.465Z" transform="translate(-157.662 -206.003)" fill="#263238"/>
                <path id="Trazado_107968" data-name="Trazado 107968" d="M175.715,208.508l3.932,2.418a2.441,2.441,0,0,0-.884-2.643A2.894,2.894,0,0,0,175.715,208.508Z" transform="translate(-157.216 -207.943)" fill="#263238"/>
                <path id="Trazado_107969" data-name="Trazado 107969" d="M167.4,208.827l-3.651,2.826a2.442,2.442,0,0,1,.6-2.724A2.9,2.9,0,0,1,167.4,208.827Z" transform="translate(-163.558 -207.681)" fill="#263238"/>
              </g>
              <path id="Trazado_107970" data-name="Trazado 107970" d="M160.14,228.23a10.881,10.881,0,0,1-1.993-4.142,9.617,9.617,0,0,0,4.13,4.285l.169.088A29.74,29.74,0,0,0,173.9,231.5l-.015,2.929a29.142,29.142,0,0,1-6.767-1.42A15.28,15.28,0,0,1,160.14,228.23Z" transform="translate(-146.183 -177.182)" fill="#7d4b4a"/>
            </g>
          </g>
          <g id="Grupo_73094" data-name="Grupo 73094" transform="translate(217.343 205.462)">
            <g id="Grupo_73089" data-name="Grupo 73089" transform="translate(0 46.904)">
              <path id="Trazado_107971" data-name="Trazado 107971" d="M266.987,235.6l-15.282,11.506a22.827,22.827,0,0,0-9.066,17.079L241.4,288.646l74.312-42.795L304.8,235.13a16.738,16.738,0,0,0-15.444-4.387L284,231.96Z" transform="translate(-241.397 -230.326)" fill="#1565c0"/>
              <path id="Trazado_107972" data-name="Trazado 107972" d="M266.987,235.6l-15.282,11.506a22.827,22.827,0,0,0-9.066,17.079L241.4,288.646l74.312-42.795L304.8,235.13a16.738,16.738,0,0,0-15.444-4.387L284,231.96Z" transform="translate(-241.397 -230.326)" opacity="0.2"/>
            </g>
            <g id="Grupo_73093" data-name="Grupo 73093" transform="translate(13.77)">
              <path id="Trazado_107973" data-name="Trazado 107973" d="M292.9,232.988a12.789,12.789,0,0,0,3.562-16.871,6.952,6.952,0,0,0,3.366-3.176,3.72,3.72,0,0,0-4.83-4.958,5.228,5.228,0,0,0-2.083-6.1,4.928,4.928,0,0,0-6.13,1.134,3.335,3.335,0,0,0-2.278-3.279,6.75,6.75,0,0,0-4.247.266c-1.366.469-2.655,1.147-4.031,1.584a31.139,31.139,0,0,1-7.24.922,14.631,14.631,0,0,0-6.992,1.866c-2.048,1.325-3.856,4.424-2.751,7.091a4.011,4.011,0,0,0-2.9-1.54,3.892,3.892,0,0,0-2.979,1.265c1.523.943,3,1.958,4.519,2.9-1.532-.689-3.818.393-4.647,1.853a9.315,9.315,0,0,0-.82,4.907,65.739,65.739,0,0,0,3.368,18.782c1.042,3.132,2.547,6.451,5.513,7.895Z" transform="translate(-249.429 -199.503)" fill="#263238"/>
              <g id="Grupo_73090" data-name="Grupo 73090" transform="translate(9.713 37.403)">
                <path id="Trazado_107974" data-name="Trazado 107974" d="M274.435,235.242l-.67,7.488a2.83,2.83,0,0,0,.423,1.651,4.235,4.235,0,0,1-.66,4.892,5.635,5.635,0,0,1-3.345,1.134,16.192,16.192,0,0,1-12.373-4.774,3.536,3.536,0,0,1-.98-2.563l.492-18.988Z" transform="translate(-256.829 -224.083)" fill="#ffa8a7"/>
                <path id="Trazado_107975" data-name="Trazado 107975" d="M258.191,224.729,273.8,234.9l-.593,6.641c-3.628-.851-7.278-1.9-10.15-4.233A13.91,13.91,0,0,1,258.191,224.729Z" transform="translate(-256.192 -223.746)" fill="#f28f8f"/>
              </g>
              <g id="Grupo_73092" data-name="Grupo 73092" transform="translate(0 16.817)">
                <path id="Trazado_107976" data-name="Trazado 107976" d="M294.779,211.794a66.963,66.963,0,0,1-1.68,25.969,20.382,20.382,0,0,1-2.062,5.334,8.636,8.636,0,0,1-4.209,3.74c-2.2.823-4.652.426-6.968.018-4.237-.747-8.584-1.534-12.263-3.762s-6.6-6.253-6.244-10.539a7.361,7.361,0,0,1-7.035.388,7.47,7.47,0,0,1-3.859-5.964c-.164-2.4,1.223-5.076,3.582-5.551a5.155,5.155,0,0,1,4.1,1.2A15.356,15.356,0,0,1,261,225.964a5.071,5.071,0,0,0,1.424,1.523,1.734,1.734,0,0,0,1.968-.023,2.584,2.584,0,0,0,.558-2.143l-.248-5.434a2.168,2.168,0,0,1,1.205-2.024,5.327,5.327,0,0,0,2.435-2.8,11.067,11.067,0,0,0,.688-3.272,1.337,1.337,0,0,1,1.832-1.14C278.161,213.6,287.256,213.728,294.779,211.794Z" transform="translate(-250.446 -210.554)" fill="#ffa8a7"/>
                <g id="Grupo_73091" data-name="Grupo 73091" transform="translate(21.993 6.877)">
                  <path id="Trazado_107977" data-name="Trazado 107977" d="M272.045,220.031l4.888,8.227-5.827,1.094Z" transform="translate(-261.661 -212.488)" fill="#f28f8f"/>
                  <path id="Trazado_107978" data-name="Trazado 107978" d="M267.456,228.02q2.214,1.077,4.43,2.153a2.9,2.9,0,0,1-3.358.956A2.613,2.613,0,0,1,267.456,228.02Z" transform="translate(-263.629 -208.32)" fill="#f28f8f"/>
                  <path id="Trazado_107979" data-name="Trazado 107979" d="M267.456,228.02q2.214,1.077,4.43,2.153a2.9,2.9,0,0,1-3.358.956A2.613,2.613,0,0,1,267.456,228.02Z" transform="translate(-263.629 -208.32)" opacity="0.3"/>
                  <path id="Trazado_107980" data-name="Trazado 107980" d="M270.062,231.008a2.669,2.669,0,0,1-1.537-.145,2.357,2.357,0,0,1-1.184-2.334,2.684,2.684,0,0,1,2.721,2.479Z" transform="translate(-263.627 -208.054)" fill="#f28f8f"/>
                  <path id="Trazado_107981" data-name="Trazado 107981" d="M266.18,220.762a1.674,1.674,0,1,0,1.834-1.5A1.674,1.674,0,0,0,266.18,220.762Z" transform="translate(-264.236 -212.892)" fill="#263238"/>
                  <path id="Trazado_107982" data-name="Trazado 107982" d="M275.4,221.334a1.674,1.674,0,1,0,1.834-1.5A1.675,1.675,0,0,0,275.4,221.334Z" transform="translate(-259.423 -212.593)" fill="#263238"/>
                  <path id="Trazado_107983" data-name="Trazado 107983" d="M276.905,216.676l3.434,2.925a2.388,2.388,0,0,0-.458-2.686A2.826,2.826,0,0,0,276.905,216.676Z" transform="translate(-258.636 -214.399)" fill="#263238"/>
                  <path id="Trazado_107984" data-name="Trazado 107984" d="M268.928,215.713l-3.949,2.181a2.388,2.388,0,0,1,.985-2.541A2.825,2.825,0,0,1,268.928,215.713Z" transform="translate(-264.899 -215.074)" fill="#263238"/>
                </g>
              </g>
            </g>
          </g>
          <g id="Grupo_73096" data-name="Grupo 73096" transform="translate(66.657 290.575)">
            <path id="Trazado_107985" data-name="Trazado 107985" d="M207.587,282.866c-.653,1.526-2.447,2.254-3.31,3.672a3.546,3.546,0,1,0,6.213,3.4,10,10,0,0,1,.02,4.061,3.945,3.945,0,0,1-2.535,2.967,7.193,7.193,0,0,1-4.538,12.21c.522,3.707-1.893,7.715-4.949,9.876a16.026,16.026,0,0,1-10.708,2.492,35.064,35.064,0,0,1-10.726-3.148,38.666,38.666,0,0,1-16.3,2.432c-3.514-.336-7.19-1.28-9.625-3.836s-3-7.111-.4-9.5c-1.427,1.164-3.909.924-5.534.056a4.7,4.7,0,0,1,.819-8.64,4.106,4.106,0,0,1-1.878-3.716,3.839,3.839,0,0,1,2.622-3.045,3.345,3.345,0,0,0,.908,3.439,3.122,3.122,0,0,0,3.424.158,4.189,4.189,0,0,0,1.756-2.957,14.28,14.28,0,0,0-.065-3.538c-.377-4.069-.335-8.289,1.172-12.087s4.72-7.117,8.745-7.82a20.145,20.145,0,0,1,23.5-13.444c4.052.9,8,3.326,9.629,7.146a21.926,21.926,0,0,1,5.326-.451,7.048,7.048,0,0,1,4.793,1.774A4.3,4.3,0,0,1,207,269.162c-.533,1.1-1.671,2.083-1.4,3.272.233,1.023,1.4,1.522,1.957,2.407a3.108,3.108,0,0,1,.061,2.844,9.653,9.653,0,0,1-1.707,2.4c-.6.685-1.222,1.581-.889,2.426C205.376,283.394,207.122,283.691,207.587,282.866Z" transform="translate(-142.194 -255.436)" fill="#263238"/>
            <path id="Trazado_107986" data-name="Trazado 107986" d="M184.011,309.278a7.421,7.421,0,0,1-4.79,1.275,26.857,26.857,0,0,1-21.391-10.611l4.754-.412V284.24l16.521,6.377v8.831h4.227a12.181,12.181,0,0,1,2.027,3.587C186.07,305.183,185.758,307.838,184.011,309.278Z" transform="translate(-134.307 -240.409)" fill="#f28f8f"/>
            <path id="Trazado_107987" data-name="Trazado 107987" d="M161.715,284.534c4.95,9.606,8.03,9.814,15.363,10.672v-4.742Z" transform="translate(-132.281 -240.256)" fill="#d96e6e"/>
            <path id="Trazado_107988" data-name="Trazado 107988" d="M194.937,271.445a59.874,59.874,0,0,1,.262,21.969c-.478,2.734-1.272,5.641-3.436,7.379-2.669,2.142-6.484,1.823-9.879,1.392-3.7-.47-7.458-.954-10.877-2.444s-6.513-4.153-7.633-7.709a4.794,4.794,0,0,1-5.8-.937,8.518,8.518,0,0,1-2.136-5.825c-.05-1.922.45-4.093,2.1-5.084a4.376,4.376,0,0,1,3.791-.161,9.349,9.349,0,0,1,3.162,2.284A6.51,6.51,0,0,0,166,283.6a1.859,1.859,0,0,0,1.893.012,2.757,2.757,0,0,0,.806-2.228c.163-3.339.5-6.8,2.21-9.674s5.157-4.971,8.382-4.1c1.479.4,2.814,1.376,4.343,1.418a6.95,6.95,0,0,0,3.445-1.131l.061-.034C190.62,265.939,194.162,267.546,194.937,271.445Z" transform="translate(-135.556 -249.377)" fill="#f28f8f"/>
            <g id="Grupo_73095" data-name="Grupo 73095" transform="translate(39.633 24.289)">
              <path id="Trazado_107989" data-name="Trazado 107989" d="M174.842,275.855l4.395,7.4-5.239.984Z" transform="translate(-165.506 -269.073)" fill="#f28f8f"/>
              <path id="Trazado_107990" data-name="Trazado 107990" d="M174.842,275.855l4.395,7.4-5.239.984Z" transform="translate(-165.506 -269.073)" fill="#d96e6e"/>
              <path id="Trazado_107991" data-name="Trazado 107991" d="M170.717,283.038q1.99.97,3.981,1.937a2.605,2.605,0,0,1-3.019.858A2.346,2.346,0,0,1,170.717,283.038Z" transform="translate(-167.276 -265.326)" fill="#f28f8f"/>
              <path id="Trazado_107992" data-name="Trazado 107992" d="M170.717,283.038q1.99.97,3.981,1.937a2.605,2.605,0,0,1-3.019.858A2.346,2.346,0,0,1,170.717,283.038Z" transform="translate(-167.276 -265.326)" fill="#d96e6e"/>
              <path id="Trazado_107993" data-name="Trazado 107993" d="M173.06,285.724a2.393,2.393,0,0,1-1.383-.129,2.121,2.121,0,0,1-1.065-2.1,2.413,2.413,0,0,1,2.448,2.228Z" transform="translate(-167.274 -265.087)" fill="#f28f8f"/>
              <path id="Trazado_107994" data-name="Trazado 107994" d="M173.06,285.724a2.393,2.393,0,0,1-1.383-.129,2.121,2.121,0,0,1-1.065-2.1,2.413,2.413,0,0,1,2.448,2.228Z" transform="translate(-167.274 -265.087)" fill="#c75555"/>
              <path id="Trazado_107995" data-name="Trazado 107995" d="M169.569,276.512a1.5,1.5,0,1,0,1.648-1.345A1.5,1.5,0,0,0,169.569,276.512Z" transform="translate(-167.821 -269.436)" fill="#263238"/>
              <path id="Trazado_107996" data-name="Trazado 107996" d="M177.862,277.026a1.5,1.5,0,1,0,1.649-1.347A1.5,1.5,0,0,0,177.862,277.026Z" transform="translate(-163.494 -269.168)" fill="#263238"/>
              <path id="Trazado_107997" data-name="Trazado 107997" d="M179.212,272.838l3.088,2.63a2.143,2.143,0,0,0-.412-2.415A2.537,2.537,0,0,0,179.212,272.838Z" transform="translate(-162.786 -270.792)" fill="#263238"/>
              <path id="Trazado_107998" data-name="Trazado 107998" d="M172.04,271.972q-1.776.982-3.55,1.962a2.146,2.146,0,0,1,.884-2.284A2.543,2.543,0,0,1,172.04,271.972Z" transform="translate(-168.417 -271.398)" fill="#263238"/>
            </g>
            <path id="Trazado_107999" data-name="Trazado 107999" d="M177.291,294.234l1.316,16.492,11.2-6.447C187.444,298.291,183.772,294.234,177.291,294.234Z" transform="translate(-124.155 -235.195)" fill="#f28f8f"/>
            <path id="Trazado_108000" data-name="Trazado 108000" d="M192.283,294.234h-4.112a12.181,12.181,0,0,1,2.027,3.587c.711,2.149.4,4.8-1.348,6.244a7.421,7.421,0,0,1-4.79,1.275,26.857,26.857,0,0,1-21.391-10.611l-14.115,1.222s.316,29.758.236,34.057a29.478,29.478,0,0,0,.47,6.251l52.278-30.105A43.336,43.336,0,0,0,192.283,294.234Z" transform="translate(-139.147 -235.195)" fill="#1565c0"/>
            <path id="Trazado_108001" data-name="Trazado 108001" d="M192.283,294.234h-4.112a12.181,12.181,0,0,1,2.027,3.587c.711,2.149.4,4.8-1.348,6.244a7.421,7.421,0,0,1-4.79,1.275,26.857,26.857,0,0,1-21.391-10.611l-14.115,1.222s.316,29.758.236,34.057a29.478,29.478,0,0,0,.47,6.251l52.278-30.105A43.336,43.336,0,0,0,192.283,294.234Z" transform="translate(-139.147 -235.195)" fill="#fff" opacity="0.6"/>
            <path id="Trazado_108002" data-name="Trazado 108002" d="M151.779,295.362c-13.545,4.588-10.38,16.113-3.482,28.463,1.723,3.083,3.8,6.88,5.936,10.839l14.579-8.4C163.583,313.437,156.4,297.705,151.779,295.362Z" transform="translate(-142.372 -234.607)" fill="#f28f8f"/>
          </g>
          <g id="Grupo_73100" data-name="Grupo 73100" transform="translate(216.406 114.08)">
            <path id="Trazado_108003" data-name="Trazado 108003" d="M278.188,179.182a64.307,64.307,0,0,1,4.454,9.133l5.407-3.115-4.938-9.634a9.128,9.128,0,0,0-10.04-4.763l-1.709.367A31.108,31.108,0,0,1,278.188,179.182Z" transform="translate(-224.827 -123.2)" fill="#455a64"/>
            <path id="Trazado_108004" data-name="Trazado 108004" d="M256.677,188.1a7.226,7.226,0,0,0-4.06-4.127A7.041,7.041,0,0,0,246.646,185a11.732,11.732,0,0,0-1.838,1.531,22.821,22.821,0,0,0-3.407,12v15.713l17.845-10.276q-.639-5.028-1.277-10.058A21.411,21.411,0,0,0,256.677,188.1Z" transform="translate(-240.458 -116.374)" fill="#455a64"/>
            <path id="Trazado_108005" data-name="Trazado 108005" d="M292.651,178.987a31.106,31.106,0,0,0-6.826-8.012l-11.868,2.546-12.126,5.044-11.408,7.584a22.808,22.808,0,0,0-6.782,7.012,11.73,11.73,0,0,1,1.838-1.531,7.041,7.041,0,0,1,5.971-1.024,7.226,7.226,0,0,1,4.06,4.127,21.409,21.409,0,0,1,1.292,5.8q.637,5.028,1.277,10.058L297.1,188.12A64.274,64.274,0,0,0,292.651,178.987Z" transform="translate(-239.289 -123.004)" fill="#455a64"/>
            <path id="Trazado_108006" data-name="Trazado 108006" d="M278.188,179.182a64.307,64.307,0,0,1,4.454,9.133l5.407-3.115-4.938-9.634a9.128,9.128,0,0,0-10.04-4.763l-1.709.367A31.108,31.108,0,0,1,278.188,179.182Z" transform="translate(-224.827 -123.2)" fill="#fff" opacity="0.3"/>
            <path id="Trazado_108007" data-name="Trazado 108007" d="M256.677,188.1a7.226,7.226,0,0,0-4.06-4.127A7.041,7.041,0,0,0,246.646,185a11.732,11.732,0,0,0-1.838,1.531,22.821,22.821,0,0,0-3.407,12v15.713l17.845-10.276q-.639-5.028-1.277-10.058A21.411,21.411,0,0,0,256.677,188.1Z" transform="translate(-240.458 -116.374)" fill="#fff" opacity="0.3"/>
            <path id="Trazado_108008" data-name="Trazado 108008" d="M292.651,178.987a31.106,31.106,0,0,0-6.826-8.012l-11.868,2.546-12.126,5.044-11.408,7.584a22.808,22.808,0,0,0-6.782,7.012,11.73,11.73,0,0,1,1.838-1.531,7.041,7.041,0,0,1,5.971-1.024,7.226,7.226,0,0,1,4.06,4.127,21.409,21.409,0,0,1,1.292,5.8q.637,5.028,1.277,10.058L297.1,188.12A64.274,64.274,0,0,0,292.651,178.987Z" transform="translate(-239.289 -123.004)" fill="#fff" opacity="0.4"/>
            <g id="Grupo_73099" data-name="Grupo 73099">
              <path id="Trazado_108009" data-name="Trazado 108009" d="M293.564,168.8a15.08,15.08,0,0,0,1.817-18.938,5.092,5.092,0,0,0-.913-9.749c-1.834-.323-3.669.382-5.489.778a26.667,26.667,0,0,1-9.441-.006c-3.132-.453-6.234-1.131-9.39-1.36a19.12,19.12,0,0,0-9.3,1.321,10.4,10.4,0,0,0-6.012,6.9c-2.432-.653-5.329.908-6.889,2.884a12.123,12.123,0,0,0-2.264,7.074c-.1,2.515.248,5.025.376,7.539a17.064,17.064,0,0,1-.95,7.429c-1.132,2.719-3.381,4.935-4.1,7.791a7.828,7.828,0,0,0,9.591,9.486,20.81,20.81,0,0,1-.729-6.114c.239,2.768,3,4.932,5.62,5.863s5.475.832,8.252.723q4.889-.192,9.777-.385l11.387-.447a15.522,15.522,0,0,0,5.956-1.026c3.253-1.5,5.1-5.174,5.3-8.751S294.969,172.1,293.564,168.8Z" transform="translate(-240.781 -139.45)" fill="#263238"/>
              <g id="Grupo_73097" data-name="Grupo 73097" transform="translate(22.541 38.259)">
                <path id="Trazado_108010" data-name="Trazado 108010" d="M271.888,171.556v10.4s8.5,5.432,4.92,8.307c-6.749,5.422-21.214-8.365-21.214-8.365v-17.3Z" transform="translate(-255.594 -164.593)" fill="#ffa8a7"/>
                <path id="Trazado_108011" data-name="Trazado 108011" d="M255.594,164.593c2.5,7.447,11.615,13.094,16.294,14.223v-7.26Z" transform="translate(-255.594 -164.593)" fill="#f28f8f"/>
              </g>
              <path id="Trazado_108012" data-name="Trazado 108012" d="M261.626,163.453a15.667,15.667,0,0,1,.183,3.917,4.611,4.611,0,0,1-1.3,2.616,2.914,2.914,0,0,1-2.637.778,5.107,5.107,0,0,0-9.912-2.424,6.407,6.407,0,0,0,1.068,5.315,12.026,12.026,0,0,0,4.267,3.556,4.326,4.326,0,0,0,5.151-2.021c4.967,6.3,13.628,11.022,21.744,10.343a11.608,11.608,0,0,0,6.172-2.176c3.069-2.377,3.3-5.961,3.685-9.5a50.286,50.286,0,0,0-.1-13.5c-1-6.167-3.74-12.23-8.529-16.241C278.633,157.532,266.333,162.465,261.626,163.453Z" transform="translate(-237.141 -137.014)" fill="#ffa8a7"/>
              <g id="Grupo_73098" data-name="Grupo 73098" transform="translate(31.189 18.562)">
                <path id="Trazado_108013" data-name="Trazado 108013" d="M267.977,155.823l5.556,6.849-5.168,1.776Z" transform="translate(-257.782 -149.471)" fill="#f28f8f"/>
                <path id="Trazado_108014" data-name="Trazado 108014" d="M265.124,163.683l4.325,1.373a2.671,2.671,0,0,1-2.934,1.319A2.406,2.406,0,0,1,265.124,163.683Z" transform="translate(-259.283 -145.371)" fill="#f28f8f"/>
                <path id="Trazado_108015" data-name="Trazado 108015" d="M265.124,163.683l4.325,1.373a2.671,2.671,0,0,1-2.934,1.319A2.406,2.406,0,0,1,265.124,163.683Z" transform="translate(-259.283 -145.371)" opacity="0.3"/>
                <path id="Trazado_108016" data-name="Trazado 108016" d="M267.928,166.064a2.464,2.464,0,0,1-1.421.073,2.174,2.174,0,0,1-1.392-1.971,2.475,2.475,0,0,1,2.813,1.9Z" transform="translate(-259.275 -145.132)" fill="#f28f8f"/>
                <path id="Trazado_108017" data-name="Trazado 108017" d="M262.95,157.313a1.542,1.542,0,1,0,1.471-1.611A1.543,1.543,0,0,0,262.95,157.313Z" transform="translate(-260.406 -149.535)" fill="#263238"/>
                <path id="Trazado_108018" data-name="Trazado 108018" d="M271.437,156.6a1.543,1.543,0,1,0,1.471-1.61A1.543,1.543,0,0,0,271.437,156.6Z" transform="translate(-255.978 -149.906)" fill="#263238"/>
                <path id="Trazado_108019" data-name="Trazado 108019" d="M272.24,152.144l3.523,2.208a2.2,2.2,0,0,0-.776-2.388A2.606,2.606,0,0,0,272.24,152.144Z" transform="translate(-255.558 -151.649)" fill="#263238"/>
                <path id="Trazado_108020" data-name="Trazado 108020" d="M264.755,152.366l-3.31,2.515a2.2,2.2,0,0,1,.559-2.448A2.606,2.606,0,0,1,264.755,152.366Z" transform="translate(-261.277 -151.462)" fill="#263238"/>
              </g>
            </g>
          </g>
        </g>
      </g>
      <g id="Grupo_73104" data-name="Grupo 73104" transform="translate(-5201.625 -10845.531)">
        <g id="Grupo_73103" data-name="Grupo 73103">
          <path id="Trazado_108021" data-name="Trazado 108021" d="M341.637,159.781l-.008.008Z" transform="translate(-324.68 -95.12)" fill="none"/>
          <path id="Trazado_108022" data-name="Trazado 108022" d="M336.916,197.643a12.109,12.109,0,0,1,4.535-4.6L440.632,136.8c5.464-3.134,18.395,1.118,18.395,9.9v71.33a12.173,12.173,0,0,1-6.134,10.569l-46.2,26.4,6.385-3.649-3.991,11.315a.667.667,0,0,1-.829.409l.016.046c-.706-.364-3.843-2.047-5.625-3.229l-.032-.019-.118-.078.008-.022a.613.613,0,0,1-.159-.143l-.98-1.589-47.647,26.656a12.024,12.024,0,0,1-18.389-9.9V203.6A12.124,12.124,0,0,1,336.916,197.643Z" transform="translate(-335.335 -135.769)" fill="#1565c0"/>
          <path id="Trazado_108023" data-name="Trazado 108023" d="M360.838,183.982a.61.61,0,0,0,.159.143l-.008.022.118.078.032.019c1.783,1.182,4.92,2.865,5.625,3.229l-.016-.046a.64.64,0,0,1-.393-.277l-3.864-6.261.765-.436h0l-3.4,1.942Z" transform="translate(-293.822 -60.128)" fill="#fff" opacity="0.2"/>
          <path id="Trazado_108024" data-name="Trazado 108024" d="M348.029,204.519a12.386,12.386,0,0,1,3.261-4.082l.008-.008a11.239,11.239,0,0,1,1.476-1.01l99.182-56.245a4.058,4.058,0,0,1,6.078,3.52c0-8.781-12.931-13.031-18.395-9.9l-99.182,56.245a12.107,12.107,0,0,0-4.535,4.6Z" transform="translate(-334.341 -135.767)" fill="#fff" opacity="0.4"/>
          <path id="Trazado_108025" data-name="Trazado 108025" d="M347.652,242.272v-71.19a10.626,10.626,0,0,1,.1-1.438,12.593,12.593,0,0,1,1.274-4.02l-12.107-6.877a12.124,12.124,0,0,0-1.581,5.959v71.188a12.024,12.024,0,0,0,18.389,9.9A4.058,4.058,0,0,1,347.652,242.272Z" transform="translate(-335.335 -96.872)" fill="#fff" opacity="0.2"/>
        </g>
      </g>
      <g id="Grupo_73111" data-name="Grupo 73111" transform="translate(-4737.909 -10972.867)">
        <path id="Trazado_108026" data-name="Trazado 108026" d="M370.349,294.964l29.212,56.42-26.527,44.432,29.33,46.4,44.3-68.767a38.638,38.638,0,0,0,4.528-31.762c-14.015-48.086-28.78-78.333-28.78-78.333Z" transform="translate(-94.696 -30.854)" fill="#ffbfa7"/>
        <path id="Trazado_108027" data-name="Trazado 108027" d="M394,267.306l-23.65,14.359,22.188,42.856q.661-25.207,1.318-50.413Q393.947,270.716,394,267.306Z" transform="translate(-94.696 -17.556)" opacity="0.2"/>
        <path id="Trazado_108028" data-name="Trazado 108028" d="M365.034,246.769c33.608-6.252,52.818,4.951,81.227,80.978-11.6,26.008-60.821,35.612-60.821,35.612Z" transform="translate(-112.586 -91.645)" fill="#1565c0"/>
        <path id="Trazado_108029" data-name="Trazado 108029" d="M406.631,297.525c-6.745-20.677-23.79-35.774-41.14-49.282L383.9,353.434a154.9,154.9,0,0,0,26.121-8.081q.092-3.536.183-7.082C410.565,324.572,410.879,310.557,406.631,297.525Z" transform="translate(-111.047 -81.719)" opacity="0.2"/>
        <g id="Grupo_73106" data-name="Grupo 73106" transform="translate(46.244 887.002)">
          <path id="Trazado_108030" data-name="Trazado 108030" d="M472.178,437.636c-2.746,5.763-11.46,11.089-21,12.661s-19.241-.493-28.815-1.829a190.951,190.951,0,0,0-43-1.1c-8.915.782-17.813,2.2-26.759,1.912s-18.135-2.414-25.152-7.968a25.625,25.625,0,0,1-9.443-16.049c-1.166,8.077,2.969,16.525,9.443,21.646,7.016,5.553,16.211,7.688,25.152,7.968s17.844-1.127,26.759-1.912a190.97,190.97,0,0,1,43,1.1c9.574,1.336,19.961,4.082,29.5,2.51s18.249-6.9,21-12.665Z" transform="translate(-317.78 -372.894)" fill="#263238"/>
          <g id="Grupo_73105" data-name="Grupo 73105" transform="translate(0 12.355)">
            <path id="Trazado_108031" data-name="Trazado 108031" d="M331.672,439.488c8.029,0,5.077-11.875,12.713-19.83-3.109.179-6.226.232-9.347.223C328.18,429.765,326.254,439.488,331.672,439.488Z" transform="translate(-281.662 -404.115)" fill="#fff"/>
            <path id="Trazado_108032" data-name="Trazado 108032" d="M335.491,441.335c8.072,0,5.955-14.154,13.883-22.41a53.264,53.264,0,0,1-5.492,1.585c-1.58.354-3.174.624-4.772.86C332.042,431.376,330.008,441.335,335.491,441.335Z" transform="translate(-268.812 -406.583)" fill="#fff"/>
            <path id="Trazado_108033" data-name="Trazado 108033" d="M444.04,423.716a10.906,10.906,0,0,0-4.174-6.536L396.5,416.1c-4.436,5.92-10.954,9.919-18,12.342-7.929,8.256-5.811,22.41-13.884,22.41-5.483,0-3.449-9.959,3.619-19.965-2.51.367-5.038.611-7.575.756-7.636,7.954-4.685,19.83-12.714,19.83-5.418,0-3.493-9.723,3.366-19.607-2.026,0-4.052-.031-6.073-.062-1.838-.026-3.689-.152-5.545-.3-15.944,12.609-17.306,26.291-15.246,47.758a57.51,57.51,0,0,0,8.308.869c8.946.284,17.843-1.131,26.758-1.913a190.963,190.963,0,0,1,43,1.1c9.575,1.336,19.28,3.4,28.815,1.829s18.254-6.9,21-12.661Z" transform="translate(-297.936 -416.098)" fill="#455a64"/>
            <path id="Trazado_108034" data-name="Trazado 108034" d="M359.562,420.331c-7.3-.6-14.669-1.716-21.681,0-8.8,2.148-17.219,8.221-19.511,16.983a19.227,19.227,0,0,0-.34,7.632,25.625,25.625,0,0,0,9.443,16.049,37.424,37.424,0,0,0,16.843,7.1C342.256,446.622,343.618,432.94,359.562,420.331Z" transform="translate(-317.803 -404.928)" fill="#fff"/>
          </g>
          <path id="Trazado_108035" data-name="Trazado 108035" d="M340.1,413.268v20.895a8.582,8.582,0,0,0,8.583,8.584h21.86a14.087,14.087,0,0,0,14.08-13.626l.519-15.852Z" transform="translate(-242.768 -413.268)" fill="#ffa8a7"/>
        </g>
        <g id="Grupo_73108" data-name="Grupo 73108" transform="translate(204.931 796.022)">
          <path id="Trazado_108036" data-name="Trazado 108036" d="M437.29,456.714a16.07,16.07,0,0,1-13.154,9.212,27.674,27.674,0,0,1-16.647-4.1c-7.523-4.776-10.456-12.294-15.586-19.066-5.117-6.754-11.67-12.268-18.132-17.708-6.828-5.745-13.674-11.95-17.328-20.092a26.752,26.752,0,0,1-2.056-7.365,26.2,26.2,0,0,0,2.056,14.137c3.654,8.138,10.5,14.346,17.328,20.092,6.462,5.435,13.015,10.954,18.132,17.708,5.13,6.771,8.063,14.29,15.586,19.066a27.674,27.674,0,0,0,16.647,4.091,16.066,16.066,0,0,0,13.154-9.207c.9-1.795.938-7.117.79-11.648A14.478,14.478,0,0,1,437.29,456.714Z" transform="translate(-354.147 -375.025)" fill="#263238"/>
          <g id="Grupo_73107" data-name="Grupo 73107">
            <path id="Trazado_108037" data-name="Trazado 108037" d="M362.767,411.1c-.62,1.087-1.314,2.349-1.057,3.571a3.7,3.7,0,0,0,2.366,2.7,5.208,5.208,0,0,0,4.877-1.262,25.416,25.416,0,0,0,3.383-4.025,25.205,25.205,0,0,1,17.826-9.614q-2.712-2.475-5.422-4.947A26.732,26.732,0,0,0,362.767,411.1Z" transform="translate(-328.889 -375.27)" fill="#fff"/>
            <path id="Trazado_108038" data-name="Trazado 108038" d="M372.35,398.6a27.4,27.4,0,0,0-12.089,11.15c-.62,1.087-1.31,2.349-1.057,3.571a3.706,3.706,0,0,0,2.371,2.7,5.2,5.2,0,0,0,4.872-1.261,25.4,25.4,0,0,0,3.384-4.026,25.179,25.179,0,0,1,22.118-9.587l-5.362-4.89A27.356,27.356,0,0,0,372.35,398.6Z" transform="translate(-337.319 -380.005)" fill="#fff"/>
            <path id="Trazado_108039" data-name="Trazado 108039" d="M400,405.6c-5.16-4.593-10.6-8.932-17.023-11.373-7.771-2.951-17.407-2.532-23.4,3.231-4.61,4.427-6.055,11.115-5.187,17.546a26.775,26.775,0,0,0,2.056,7.366,38.281,38.281,0,0,0,5.374,8.522C363.9,412.215,380.117,403.474,400,405.6Z" transform="translate(-354.15 -392.429)" fill="#fff"/>
            <path id="Trazado_108040" data-name="Trazado 108040" d="M431.816,445.89c-.485-6.693-.843-12.473-4.244-18.258l-10.543-11.059q-3.759-3.425-7.518-6.854a25.2,25.2,0,0,0-17.826,9.614,25.453,25.453,0,0,1-3.384,4.025,5.208,5.208,0,0,1-4.876,1.261,3.7,3.7,0,0,1-2.366-2.7c-.257-1.223.437-2.485,1.057-3.572a26.732,26.732,0,0,1,21.973-13.578c-.406-.371-.816-.742-1.222-1.113a25.177,25.177,0,0,0-22.118,9.587,25.425,25.425,0,0,1-3.383,4.026,5.2,5.2,0,0,1-4.873,1.262,3.708,3.708,0,0,1-2.371-2.7c-.253-1.223.436-2.484,1.057-3.571A26.917,26.917,0,0,1,397.5,398.769l-.2-.179q-1.6-1.46-3.222-2.9c-19.878-2.126-36.092,6.614-38.175,25.292a89.722,89.722,0,0,0,11.953,11.57c6.462,5.44,13.015,10.954,18.132,17.708,5.13,6.772,8.064,14.289,15.586,19.066a27.673,27.673,0,0,0,16.647,4.1,16.069,16.069,0,0,0,13.154-9.212,14.451,14.451,0,0,0,.79-4.877A130.479,130.479,0,0,0,431.816,445.89Z" transform="translate(-348.237 -382.516)" fill="#455a64"/>
          </g>
          <path id="Trazado_108041" data-name="Trazado 108041" d="M364.579,399.381l1.236,22.419c14.154,8.16,29.033,3.72,33.989-1.45l.93-20.969Z" transform="translate(-319.048 -369.03)" fill="#ffa8a7"/>
        </g>
        <path id="Trazado_108042" data-name="Trazado 108042" d="M483.448,309.163a20.247,20.247,0,0,1-2.144-7.719L480.1,282.2,342.985,291.01c-1.812,9.618-3.65,21.4-5.44,34.739A203.95,203.95,0,0,0,483.448,309.163Z" transform="translate(-205.11 32.589)" fill="#ffbfa7"/>
        <path id="Trazado_108043" data-name="Trazado 108043" d="M406.993,254.558l-36.686,7.212c-8.112,14.84-16.376,28.776-24.484,43.615-6.108,11.177-12.395,23.061-11.932,35.8a36.572,36.572,0,0,0,14.464,27.286,16.2,16.2,0,0,1,6.68,14.2l-3.405,40.227c57.621,17.608,128.047,2.135,143.519-11.2,4.549-21,8.575-43.323,13.128-64.322,4.846-22.371,9.731-45.021,2.746-68.426a48.393,48.393,0,0,0-5.514-11.919h0a45.839,45.839,0,0,0-45.968-20.816Z" transform="translate(-217.492 -90.492)" fill="#1565c0"/>
        <path id="Trazado_108044" data-name="Trazado 108044" d="M346.783,258.926c-.319.581-.642,1.148-.961,1.729-6.108,11.177-12.395,23.061-11.932,35.8a36.573,36.573,0,0,0,14.464,27.287,16.2,16.2,0,0,1,6.68,14.2l-1.135,13.43c11.482-22.62,27.012-55.49,33.561-79.725Z" transform="translate(-217.492 -45.761)" opacity="0.2"/>
        <path id="Trazado_108045" data-name="Trazado 108045" d="M497.467,291.889a22,22,0,0,1-2.126-3.51,203.95,203.95,0,0,1-145.9,16.586c-10.343,76.923-19.223,207.174-13.766,293.107C340.2,698.1,358.615,839.754,358.615,839.754c24.008,7.2,42.013,2.8,48.815-2.4,8-99.237,25.606-167.257,12-232.88,9.073-45.881,14.94-103.5,14.94-103.5l6.937,101.367L464.78,780.531c22.943,11.74,42.148-2.13,42.148-2.13C524,676.5,530.4,607.45,515.468,556.876,538.262,389.659,539.423,346.877,497.467,291.889Z" transform="translate(-217.003 53.374)" fill="#455a64"/>
        <path id="Trazado_108046" data-name="Trazado 108046" d="M367.1,397.957l12.578-52.792c14.67-2.4,37.612-12,49.666-32.133-17.245,13.364-39.057,21.463-60.873,21.463L357,417.992l2.441,35.682.986-12.984A273.377,273.377,0,0,1,367.1,397.957Z" transform="translate(-139.63 136.352)" opacity="0.3"/>
        <g id="Grupo_73109" data-name="Grupo 73109" transform="translate(129.925 0)">
          <path id="Trazado_108047" data-name="Trazado 108047" d="M346.112,275.546c-5.082-10.5-8.383-22.187-7.191-33.792s7.431-23.065,17.716-28.566,24.563-3.659,31.714,5.553c18.926-9.413,42.633-9.57,60.227,2.144a61.7,61.7,0,0,1,26.828,54.281c-.8,12.142-5.247,24.1-3.877,36.185.808,7.112,3.61,14.311,1.742,21.218-1.558,5.772-6.234,10.3-11.539,13.063s-17.7,2.043-23.554,3.261c-17.879,16.254-40.354,10.168-54.635-4.349S346.112,275.546,346.112,275.546Z" transform="translate(-331.225 -210.101)" fill="#37474f"/>
          <path id="Trazado_108048" data-name="Trazado 108048" d="M348.141,228.789,336.97,248.2l12.234,4.521Z" transform="translate(-336.97 -147.2)" fill="#ff9192"/>
          <path id="Trazado_108049" data-name="Trazado 108049" d="M339.882,258.6c1.794-17.036,6.78-33.094,17.87-41.24-3.842,22.327,3.842,47.868,12.77,60.952a26.7,26.7,0,0,1,8.256-14.6c4.226-3.846,10.613-5.628,15.87-3.388a15.652,15.652,0,0,1,7.981,8.692,20.684,20.684,0,0,1-25.855,27.326c2.51,15.206,15.494,27.6,30.544,30.937,9.858,2.183,20.166.873,29.609-2.816l4.62,22.956c-18.691,19.935-50.618,6.54-50.618,6.54l-4.209-22.585c-36.756,2.183-40.183,1.559-44.231-18.69C340.261,301.56,337.694,279.355,339.882,258.6Z" transform="translate(-329.972 -185.667)" fill="#ffbfa7"/>
          <path id="Trazado_108050" data-name="Trazado 108050" d="M361.5,248.087c5.248-14.63,15.678-27.641,29.256-34.949,15.612,12.093,24.912,32.063,23.619,51.805-.8,12.142-5.248,24.1-3.877,36.184.808,7.112,3.611,14.311,1.742,21.218-1.559,5.772-6.234,10.3-11.539,13.063s-17.7,2.043-23.55,3.261c-.773.7-1.563,1.305-2.349,1.925-6.069-11.962-11.3-24.335-14.547-37.324C355.724,285.162,355.2,265.664,361.5,248.087Z" transform="translate(-270.193 -199.878)" opacity="0.3"/>
          <path id="Trazado_108051" data-name="Trazado 108051" d="M364.64,243.857c5.724-18.891,24.51-33.01,44.248-33.25s38.865,13.4,45.056,32.146C465.029,276.317,436.629,312,442.837,346.8c2.236,12.53,8.867,23.947,11.138,36.472a54.037,54.037,0,0,1-46.636,63.3c7.985-8.793,8.129-22.388,3.58-33.359s-12.657-20-19.655-29.605C363.055,344.9,350.748,289.69,364.64,243.857Z" transform="translate(-263.134 -208.41)" fill="#37474f"/>
        </g>
        <g id="Grupo_73110" data-name="Grupo 73110" transform="translate(0 100.842)">
          <path id="Trazado_108052" data-name="Trazado 108052" d="M460.026,303.635c-39.206,7.933-78.909,108.217-78.909,108.217l-37.433-104.82,8.033-39.236a12.533,12.533,0,0,0-.5-6.789L342.322,236.6a5.178,5.178,0,0,0-6-3.275h0a5.179,5.179,0,0,0-3.82,6.523l6.649,22.375-10.592-20.1a6.931,6.931,0,0,0-9.5-2.829l-8.278,4.6a6.934,6.934,0,0,0-2.759,9.308l9.295,17.533c-10.491,30.059-1.135,38.848-1.135,38.848L333.94,420.955A51.011,51.011,0,0,0,375.9,463.234h0a51.069,51.069,0,0,0,51.325-22.724C484.959,350.879,517.014,293.323,460.026,303.635Z" transform="translate(-307.211 -233.198)" fill="#ffbfa7"/>
          <path id="Trazado_108053" data-name="Trazado 108053" d="M325.447,305.044s2.838-15.031,5.955-21.087L326.849,271.2A36.812,36.812,0,0,0,325.447,305.044Z" transform="translate(-257.496 -105.304)" opacity="0.2"/>
          <path id="Trazado_108054" data-name="Trazado 108054" d="M391.1,250.636c-17.372,4.811-36.437,13.914-63.405,66.881,3.025,38.188,59.363,28.575,59.363,28.575,14.888-28.356,30.919-57.94,34.071-71.854C426.385,251.051,415.832,245.681,391.1,250.636Z" transform="translate(-238.281 -180.199)" fill="#1565c0"/>
        </g>
      </g>
    </g>
  </g>
</svg>
