<svg xmlns="http://www.w3.org/2000/svg" width="43" height="46.779" viewBox="0 0 43 46.779">
  <g id="Grupo_79478" data-name="Grupo 79478" transform="translate(7137.5 12589)">
    <g id="Grupo_77449" data-name="Grupo 77449" transform="translate(-7558.5 -14875)">
      <g id="Grupo_77443" data-name="Grupo 77443" transform="translate(177)">
        <rect id="Rect치ngulo_32442" data-name="Rect치ngulo 32442" width="31" height="31" transform="translate(256 2286)" fill="#fee2bf"/>
      </g>
      <rect id="Rect치ngulo_33680" data-name="Rect치ngulo 33680" width="43" height="46" transform="translate(421 2286)" fill="none"/>
      <g id="Grupo_62196" data-name="Grupo 62196" transform="translate(376.588 1454.885)">
        <g id="Grupo_60258" data-name="Grupo 60258" transform="translate(44.412 847.688)">
          <path id="Trazado_130838" data-name="Trazado 130838" d="M79.428,847.688q-16.4.034-32.8.013a1.971,1.971,0,0,0-2.212,2.21v17.742a1.906,1.906,0,0,0,1.049,1.8,2.384,2.384,0,0,0,1.173.221H79.768a2.161,2.161,0,0,0,1.687-.642,4.7,4.7,0,0,0,.5-.875V849.236A2.272,2.272,0,0,0,79.428,847.688Zm.286,20.421H46.655c-.642,0-.7-.053-.7-.684V849.942c0-.623.07-.694.691-.694H79.71c.624,0,.7.071.7.69v17.482c0,.635-.053.688-.691.688Z" transform="translate(-44.412 -847.688)"/>
          <path id="Trazado_130839" data-name="Trazado 130839" d="M80.859,935.727c-4.69.011-9.381,0-14.071.013-.266,0-.406-.053-.5-.328a3.035,3.035,0,0,0-5.684-.006.427.427,0,0,1-.5.334q-7.256-.012-14.511,0a3.366,3.366,0,0,0-.508.03.749.749,0,0,0-.05,1.472,2.75,2.75,0,0,0,.544.047q7.256,0,14.511,0c.278,0,.419.053.523.345a3.034,3.034,0,0,0,5.669-.008.431.431,0,0,1,.492-.339c4.654.01,9.308,0,13.961.014a1.34,1.34,0,0,0,1.243-.5v-.513A1.1,1.1,0,0,0,80.859,935.727Zm-17.412,2.3a1.515,1.515,0,1,1,1.513-1.52,1.539,1.539,0,0,1-1.513,1.52Z" transform="translate(-44.437 -909.366)"/>
          <path id="Trazado_130840" data-name="Trazado 130840" d="M103.808,870.848l-6.92-4.924a.91.91,0,0,0-.981-.19c-.394.19-.437.543-.435.929.006,1.652,0,3.3,0,4.948s0,3.323,0,4.985a.818.818,0,0,0,1.406.719q3.456-2.468,6.919-4.926C104.507,871.881,104.511,871.348,103.808,870.848Zm-6.767,4.442v-7.353l5.168,3.674Z" transform="translate(-81.125 -860.619)"/>
          <path id="Trazado_130841" data-name="Trazado 130841" d="M95.527,874.155c0-1.652,0-3.3,0-4.948.006,1.652,0,3.3,0,4.948s0,3.323,0,4.985C95.531,877.479,95.527,875.817,95.527,874.155Z" transform="translate(-81.178 -863.166)"/>
        </g>
      </g>
    </g>
  </g>
</svg>
