<svg xmlns="http://www.w3.org/2000/svg" width="43" height="46.158" viewBox="0 0 43 46.158">
  <g id="Grupo_79475" data-name="Grupo 79475" transform="translate(7672 12589)">
    <g id="Grupo_77445" data-name="Grupo 77445" transform="translate(-8093 -14875)">
      <g id="Grupo_77443" data-name="Grupo 77443" transform="translate(177)">
        <rect id="Rectángulo_32442" data-name="Rectángulo 32442" width="31" height="31" transform="translate(256 2286)" fill="#fee2bf"/>
      </g>
      <g id="Grupo_77442" data-name="Grupo 77442" transform="translate(1198 773.89)">
        <path id="Trazado_112847" data-name="Trazado 112847" d="M-724.973,1660.862h-35.065c-.007.124-.018.232-.018.339q0,9.262,0,18.524a2.928,2.928,0,0,0,3.086,3.087q14.453,0,28.905,0a3.507,3.507,0,0,0,.906-.107,2.909,2.909,0,0,0,2.185-3.01q0-9.225,0-18.451Zm-21.05,13.935a.552.552,0,0,1-.759.125,5.776,5.776,0,0,1-.6-.478q-1.663-1.413-3.322-2.829c-.535-.456-.541-.8-.006-1.259q1.825-1.562,3.657-3.115a1.513,1.513,0,0,1,.33-.228.556.556,0,0,1,.7.146.572.572,0,0,1,.049.742,1.464,1.464,0,0,1-.28.286c-1.077.921-2.156,1.84-3.276,2.794,1.088.927,2.139,1.82,3.188,2.715a2.2,2.2,0,0,1,.344.328A.566.566,0,0,1-746.023,1674.8Zm4.8-7.706q-1.018,4.837-2.037,9.673c-.02.1-.04.191-.066.286a.634.634,0,0,1-.724.519.625.625,0,0,1-.484-.779c.175-.874.364-1.744.547-2.616q.954-4.532,1.91-9.064c.108-.512.454-.747.852-.591a.632.632,0,0,1,.4.657C-740.948,1665.778-741.083,1666.435-741.221,1667.091Zm6.964,4.464q-1.88,1.609-3.769,3.209c-.38.322-.745.327-1,.024a.659.659,0,0,1,.186-.959q1.517-1.3,3.042-2.592c.091-.077.177-.16.289-.262l-2.862-2.44c-.167-.143-.339-.281-.5-.429a.647.647,0,0,1-.147-.935.629.629,0,0,1,.943-.009c.927.778,1.845,1.566,2.766,2.35.354.3.711.6,1.059.906A.655.655,0,0,1-734.257,1671.555Z" transform="translate(-15.698 -125.79)" fill="none"/>
        <path id="Trazado_112848" data-name="Trazado 112848" d="M-725.049,1549.463c0-1.606.016-3.183-.013-4.759a2.463,2.463,0,0,0-.279-1.014,2.941,2.941,0,0,0-2.87-1.659q-14.364,0-28.728,0c-.073,0-.147,0-.22,0a2.862,2.862,0,0,0-2.923,2.672c-.078,1.573-.017,3.152-.017,4.756Zm-19.689-5.6a1.955,1.955,0,0,1,1.96,1.949,1.945,1.945,0,0,1-1.946,1.958,1.949,1.949,0,0,1-1.962-1.944A1.958,1.958,0,0,1-744.737,1543.859Zm-6.034-.015a1.949,1.949,0,0,1,1.965,1.942,1.96,1.96,0,0,1-1.945,1.967,1.953,1.953,0,0,1-1.962-1.948A1.944,1.944,0,0,1-750.771,1543.844Zm-6.037-.028a1.983,1.983,0,0,1,1.976,1.909,1.984,1.984,0,0,1-1.908,2.015,1.966,1.966,0,0,1-2-1.911A1.959,1.959,0,0,1-756.808,1543.816Z" transform="translate(-15.64 -15.679)" fill="none"/>
        <path id="Trazado_112849" data-name="Trazado 112849" d="M-739.785,1527.625a4.1,4.1,0,0,0-3.632-2.505c-.122-.01-.244-.009-.366-.009q-14.43,0-28.86,0a4.181,4.181,0,0,0-4.158,2.922c-.077.243-.133.492-.2.739V1554.6c.056.224.1.449.169.67a4.19,4.19,0,0,0,3.778,2.987c.134.007.269.008.4.008q14.436,0,28.872,0a4.177,4.177,0,0,0,4.155-2.926c.077-.243.131-.493.2-.739v-25.831A9.009,9.009,0,0,0-739.785,1527.625Zm-35.936,1.4a2.862,2.862,0,0,1,2.923-2.672c.073,0,.147,0,.22,0q14.364,0,28.728,0a2.941,2.941,0,0,1,2.87,1.659,2.463,2.463,0,0,1,.279,1.014c.029,1.576.013,3.153.013,4.759h-35.05C-775.739,1532.179-775.8,1530.6-775.722,1529.027Zm35.05,24.876a2.909,2.909,0,0,1-2.185,3.01,3.507,3.507,0,0,1-.906.107q-14.453.008-28.905,0a2.928,2.928,0,0,1-3.086-3.087q-.006-9.262,0-18.524c0-.107.011-.214.018-.339h35.065v.379Q-740.672,1544.677-740.672,1553.9Z"/>
        <path id="Trazado_112850" data-name="Trazado 112850" d="M-545.37,1710.1c-.4-.156-.743.078-.852.591q-.957,4.531-1.91,9.064c-.184.872-.373,1.742-.547,2.616a.625.625,0,0,0,.484.779.634.634,0,0,0,.724-.519c.026-.094.046-.19.066-.286q1.019-4.837,2.037-9.673c.138-.656.273-1.313.4-1.915A.632.632,0,0,0-545.37,1710.1Z" transform="translate(-211.551 -171.366)"/>
        <path id="Trazado_112851" data-name="Trazado 112851" d="M-633.34,1750.569c-1.049-.9-2.1-1.789-3.188-2.715,1.12-.955,2.2-1.873,3.276-2.794a1.468,1.468,0,0,0,.28-.287.572.572,0,0,0-.049-.742.556.556,0,0,0-.7-.146,1.509,1.509,0,0,0-.33.228q-1.831,1.555-3.657,3.115c-.535.458-.529.8.006,1.259q1.661,1.415,3.322,2.829a5.776,5.776,0,0,0,.6.478.552.552,0,0,0,.759-.125.566.566,0,0,0,.021-.771A2.2,2.2,0,0,0-633.34,1750.569Z" transform="translate(-128.704 -202.661)"/>
        <path id="Trazado_112852" data-name="Trazado 112852" d="M-470.391,1747.353c-.348-.308-.705-.6-1.059-.906-.921-.784-1.84-1.572-2.766-2.35a.629.629,0,0,0-.943.009.647.647,0,0,0,.147.935c.163.147.334.286.5.429l2.862,2.44c-.112.1-.2.184-.289.262q-1.521,1.3-3.042,2.592a.659.659,0,0,0-.186.959c.254.3.619.3,1-.024q1.887-1.6,3.769-3.209A.655.655,0,0,0-470.391,1747.353Z" transform="translate(-279.559 -202.726)"/>
        <path id="Trazado_112853" data-name="Trazado 112853" d="M-739.353,1570.281a1.984,1.984,0,0,0,1.908-2.015,1.983,1.983,0,0,0-1.976-1.909,1.959,1.959,0,0,0-1.935,2.013A1.966,1.966,0,0,0-739.353,1570.281Zm-.052-2.679a.736.736,0,0,1,.714.7.74.74,0,0,1-.715.736.728.728,0,0,1-.71-.7A.724.724,0,0,1-739.4,1567.6Z" transform="translate(-33.027 -38.22)"/>
        <path id="Trazado_112854" data-name="Trazado 112854" d="M-575.072,1570.852a1.945,1.945,0,0,0,1.946-1.958,1.955,1.955,0,0,0-1.96-1.949,1.958,1.958,0,0,0-1.948,1.963A1.949,1.949,0,0,0-575.072,1570.852Zm-.025-2.662a.71.71,0,0,1,.727.71.7.7,0,0,1-.727.706.7.7,0,0,1-.692-.707A.712.712,0,0,1-575.1,1568.191Z" transform="translate(-185.292 -38.765)"/>
        <path id="Trazado_112855" data-name="Trazado 112855" d="M-657.21,1570.651a1.96,1.96,0,0,0,1.945-1.967,1.949,1.949,0,0,0-1.965-1.942,1.944,1.944,0,0,0-1.942,1.962A1.953,1.953,0,0,0-657.21,1570.651Zm-.022-2.665a.706.706,0,0,1,.723.713.713.713,0,0,1-.7.705.7.7,0,0,1-.718-.681A.7.7,0,0,1-657.233,1567.987Z" transform="translate(-109.181 -38.576)"/>
      </g>
      <rect id="Rectángulo_33680" data-name="Rectángulo 33680" width="43" height="46" transform="translate(421 2286)" fill="none"/>
    </g>
    <g id="Grupo_77446" data-name="Grupo 77446" transform="translate(-8093 -14875)">
      <g id="Grupo_77443-2" data-name="Grupo 77443" transform="translate(177)">
        <rect id="Rectángulo_32442-2" data-name="Rectángulo 32442" width="31" height="31" transform="translate(256 2286)" fill="#fee2bf"/>
      </g>
      <g id="Grupo_77442-2" data-name="Grupo 77442" transform="translate(1198 773.89)">
        <path id="Trazado_112847-2" data-name="Trazado 112847" d="M-724.973,1660.862h-35.065c-.007.124-.018.232-.018.339q0,9.262,0,18.524a2.928,2.928,0,0,0,3.086,3.087q14.453,0,28.905,0a3.507,3.507,0,0,0,.906-.107,2.909,2.909,0,0,0,2.185-3.01q0-9.225,0-18.451Zm-21.05,13.935a.552.552,0,0,1-.759.125,5.776,5.776,0,0,1-.6-.478q-1.663-1.413-3.322-2.829c-.535-.456-.541-.8-.006-1.259q1.825-1.562,3.657-3.115a1.513,1.513,0,0,1,.33-.228.556.556,0,0,1,.7.146.572.572,0,0,1,.049.742,1.464,1.464,0,0,1-.28.286c-1.077.921-2.156,1.84-3.276,2.794,1.088.927,2.139,1.82,3.188,2.715a2.2,2.2,0,0,1,.344.328A.566.566,0,0,1-746.023,1674.8Zm4.8-7.706q-1.018,4.837-2.037,9.673c-.02.1-.04.191-.066.286a.634.634,0,0,1-.724.519.625.625,0,0,1-.484-.779c.175-.874.364-1.744.547-2.616q.954-4.532,1.91-9.064c.108-.512.454-.747.852-.591a.632.632,0,0,1,.4.657C-740.948,1665.778-741.083,1666.435-741.221,1667.091Zm6.964,4.464q-1.88,1.609-3.769,3.209c-.38.322-.745.327-1,.024a.659.659,0,0,1,.186-.959q1.517-1.3,3.042-2.592c.091-.077.177-.16.289-.262l-2.862-2.44c-.167-.143-.339-.281-.5-.429a.647.647,0,0,1-.147-.935.629.629,0,0,1,.943-.009c.927.778,1.845,1.566,2.766,2.35.354.3.711.6,1.059.906A.655.655,0,0,1-734.257,1671.555Z" transform="translate(-15.698 -125.79)" fill="none"/>
        <path id="Trazado_112848-2" data-name="Trazado 112848" d="M-725.049,1549.463c0-1.606.016-3.183-.013-4.759a2.463,2.463,0,0,0-.279-1.014,2.941,2.941,0,0,0-2.87-1.659q-14.364,0-28.728,0c-.073,0-.147,0-.22,0a2.862,2.862,0,0,0-2.923,2.672c-.078,1.573-.017,3.152-.017,4.756Zm-19.689-5.6a1.955,1.955,0,0,1,1.96,1.949,1.945,1.945,0,0,1-1.946,1.958,1.949,1.949,0,0,1-1.962-1.944A1.958,1.958,0,0,1-744.737,1543.859Zm-6.034-.015a1.949,1.949,0,0,1,1.965,1.942,1.96,1.96,0,0,1-1.945,1.967,1.953,1.953,0,0,1-1.962-1.948A1.944,1.944,0,0,1-750.771,1543.844Zm-6.037-.028a1.983,1.983,0,0,1,1.976,1.909,1.984,1.984,0,0,1-1.908,2.015,1.966,1.966,0,0,1-2-1.911A1.959,1.959,0,0,1-756.808,1543.816Z" transform="translate(-15.64 -15.679)" fill="none"/>
        <path id="Trazado_112849-2" data-name="Trazado 112849" d="M-739.785,1527.625a4.1,4.1,0,0,0-3.632-2.505c-.122-.01-.244-.009-.366-.009q-14.43,0-28.86,0a4.181,4.181,0,0,0-4.158,2.922c-.077.243-.133.492-.2.739V1554.6c.056.224.1.449.169.67a4.19,4.19,0,0,0,3.778,2.987c.134.007.269.008.4.008q14.436,0,28.872,0a4.177,4.177,0,0,0,4.155-2.926c.077-.243.131-.493.2-.739v-25.831A9.009,9.009,0,0,0-739.785,1527.625Zm-35.936,1.4a2.862,2.862,0,0,1,2.923-2.672c.073,0,.147,0,.22,0q14.364,0,28.728,0a2.941,2.941,0,0,1,2.87,1.659,2.463,2.463,0,0,1,.279,1.014c.029,1.576.013,3.153.013,4.759h-35.05C-775.739,1532.179-775.8,1530.6-775.722,1529.027Zm35.05,24.876a2.909,2.909,0,0,1-2.185,3.01,3.507,3.507,0,0,1-.906.107q-14.453.008-28.905,0a2.928,2.928,0,0,1-3.086-3.087q-.006-9.262,0-18.524c0-.107.011-.214.018-.339h35.065v.379Q-740.672,1544.677-740.672,1553.9Z"/>
        <path id="Trazado_112850-2" data-name="Trazado 112850" d="M-545.37,1710.1c-.4-.156-.743.078-.852.591q-.957,4.531-1.91,9.064c-.184.872-.373,1.742-.547,2.616a.625.625,0,0,0,.484.779.634.634,0,0,0,.724-.519c.026-.094.046-.19.066-.286q1.019-4.837,2.037-9.673c.138-.656.273-1.313.4-1.915A.632.632,0,0,0-545.37,1710.1Z" transform="translate(-211.551 -171.366)"/>
        <path id="Trazado_112851-2" data-name="Trazado 112851" d="M-633.34,1750.569c-1.049-.9-2.1-1.789-3.188-2.715,1.12-.955,2.2-1.873,3.276-2.794a1.468,1.468,0,0,0,.28-.287.572.572,0,0,0-.049-.742.556.556,0,0,0-.7-.146,1.509,1.509,0,0,0-.33.228q-1.831,1.555-3.657,3.115c-.535.458-.529.8.006,1.259q1.661,1.415,3.322,2.829a5.776,5.776,0,0,0,.6.478.552.552,0,0,0,.759-.125.566.566,0,0,0,.021-.771A2.2,2.2,0,0,0-633.34,1750.569Z" transform="translate(-128.704 -202.661)"/>
        <path id="Trazado_112852-2" data-name="Trazado 112852" d="M-470.391,1747.353c-.348-.308-.705-.6-1.059-.906-.921-.784-1.84-1.572-2.766-2.35a.629.629,0,0,0-.943.009.647.647,0,0,0,.147.935c.163.147.334.286.5.429l2.862,2.44c-.112.1-.2.184-.289.262q-1.521,1.3-3.042,2.592a.659.659,0,0,0-.186.959c.254.3.619.3,1-.024q1.887-1.6,3.769-3.209A.655.655,0,0,0-470.391,1747.353Z" transform="translate(-279.559 -202.726)"/>
        <path id="Trazado_112853-2" data-name="Trazado 112853" d="M-739.353,1570.281a1.984,1.984,0,0,0,1.908-2.015,1.983,1.983,0,0,0-1.976-1.909,1.959,1.959,0,0,0-1.935,2.013A1.966,1.966,0,0,0-739.353,1570.281Zm-.052-2.679a.736.736,0,0,1,.714.7.74.74,0,0,1-.715.736.728.728,0,0,1-.71-.7A.724.724,0,0,1-739.4,1567.6Z" transform="translate(-33.027 -38.22)"/>
        <path id="Trazado_112854-2" data-name="Trazado 112854" d="M-575.072,1570.852a1.945,1.945,0,0,0,1.946-1.958,1.955,1.955,0,0,0-1.96-1.949,1.958,1.958,0,0,0-1.948,1.963A1.949,1.949,0,0,0-575.072,1570.852Zm-.025-2.662a.71.71,0,0,1,.727.71.7.7,0,0,1-.727.706.7.7,0,0,1-.692-.707A.712.712,0,0,1-575.1,1568.191Z" transform="translate(-185.292 -38.765)"/>
        <path id="Trazado_112855-2" data-name="Trazado 112855" d="M-657.21,1570.651a1.96,1.96,0,0,0,1.945-1.967,1.949,1.949,0,0,0-1.965-1.942,1.944,1.944,0,0,0-1.942,1.962A1.953,1.953,0,0,0-657.21,1570.651Zm-.022-2.665a.706.706,0,0,1,.723.713.713.713,0,0,1-.7.705.7.7,0,0,1-.718-.681A.7.7,0,0,1-657.233,1567.987Z" transform="translate(-109.181 -38.576)"/>
      </g>
      <rect id="Rectángulo_33680-2" data-name="Rectángulo 33680" width="43" height="46" transform="translate(421 2286)" fill="none"/>
    </g>
  </g>
</svg>
