<svg xmlns="http://www.w3.org/2000/svg" width="43" height="46.159" viewBox="0 0 43 46.159">
  <g id="Grupo_79479" data-name="Grupo 79479" transform="translate(6957 12589)">
    <g id="Grupo_77450" data-name="Grupo 77450" transform="translate(-7378 -14875)">
      <g id="Grupo_77443" data-name="Grupo 77443" transform="translate(177)">
        <rect id="Rect치ngulo_32442" data-name="Rect치ngulo 32442" width="31" height="31" transform="translate(256 2286)" fill="#fee2bf"/>
      </g>
      <rect id="Rect치ngulo_33680" data-name="Rect치ngulo 33680" width="43" height="46" transform="translate(421 2286)" fill="none"/>
      <g id="Grupo_77453" data-name="Grupo 77453" transform="translate(-118.148 721.024)">
        <path id="Trazado_112875" data-name="Trazado 112875" d="M574.67,1580.4a4.107,4.107,0,0,0-3.768-2.573q-13.878,0-27.756-.008a4.106,4.106,0,0,0-4,3.989c.031,8.427.012,16.856.013,25.283a3.829,3.829,0,0,0,2.159,3.514,5.078,5.078,0,0,0,2.563.526q12.659.009,25.318,0a17.969,17.969,0,0,0,1.982-.065,4.114,4.114,0,0,0,2.927-1.618,3.471,3.471,0,0,0,.753-1.908v-26.125A7.1,7.1,0,0,0,574.67,1580.4Zm-.857,26.374a3.01,3.01,0,0,1-2.413,3.1,3.832,3.832,0,0,1-.8.061q-13.583,0-27.165,0a3.011,3.011,0,0,1-3.195-3.21q0-10.361-.009-20.722c0-.319.091-.373.384-.371,2.345.012,4.69.007,7.035.007.1,0,.209,0,.313,0a.526.526,0,1,0,0-1.051c-.1-.01-.209,0-.313,0-2.333,0-4.667-.01-7,.01-.369,0-.438-.107-.42-.441a26.522,26.522,0,0,1,.067-2.711,2.954,2.954,0,0,1,2.758-2.464c.51-.024,1.021-.013,1.532-.014h12.433q6.809,0,13.617,0a3,3,0,0,1,3.071,2.269,3.253,3.253,0,0,1,.1.827c0,.731-.016,1.463.007,2.194.009.288-.089.368-.349.331a1.451,1.451,0,0,0-.209,0H550.73a2.378,2.378,0,0,0-.45.029.512.512,0,0,0,.014,1.006,2.587,2.587,0,0,0,.45.024q11.336,0,22.672-.005c.3,0,.406.049.405.385Q573.8,1596.394,573.813,1606.773Z"/>
        <path id="Trazado_112883" data-name="Trazado 112883" d="M683.727,1594.709a1.651,1.651,0,0,0,1.648-1.629,1.64,1.64,0,1,0-1.648,1.629Zm-.011-2.228a.59.59,0,0,1,.609.575.611.611,0,0,1-.591.6.605.605,0,0,1-.588-.6A.581.581,0,0,1,683.716,1592.481Z" transform="translate(-119.151 -11.346)"/>
        <path id="Trazado_112885" data-name="Trazado 112885" d="M655.2,1594.71a1.661,1.661,0,0,0,1.651-1.631,1.638,1.638,0,0,0-1.659-1.648,1.621,1.621,0,0,0-1.624,1.639A1.639,1.639,0,0,0,655.2,1594.71Zm.009-2.228a.6.6,0,0,1,.589.6.613.613,0,0,1-.616.578.592.592,0,0,1-.56-.623A.571.571,0,0,1,655.213,1592.482Z" transform="translate(-95.374 -11.347)"/>
        <path id="Trazado_112886" data-name="Trazado 112886" d="M712.227,1594.71a1.64,1.64,0,0,0,1.643-1.63,1.641,1.641,0,1,0-3.282-.011A1.657,1.657,0,0,0,712.227,1594.71Zm-.021-2.228a.579.579,0,0,1,.613.567.6.6,0,0,1-.578.61.612.612,0,0,1-.6-.593A.594.594,0,0,1,712.206,1592.482Z" transform="translate(-142.9 -11.347)"/>
        <g id="Grupo_77455" data-name="Grupo 77455" transform="translate(-183.987 7.732)">
          <path id="Trazado_112889" data-name="Trazado 112889" d="M751.578,1580.866a2.011,2.011,0,0,0-1.792-.866H741.01q-4.409,0-8.819,0a2.006,2.006,0,0,0-1.972,1.184,2.275,2.275,0,0,0-.207.929q-.018,7.714-.007,15.428a2.032,2.032,0,0,0,1.571,2.042,2.294,2.294,0,0,0,.594.068q8.819.005,17.638.005a2.083,2.083,0,0,0,2.147-1.787.209.209,0,0,1,.027-.058v-15.969A5.227,5.227,0,0,0,751.578,1580.866Zm-.632,16.613a1.045,1.045,0,0,1-1.135,1.138q-8.83,0-17.661,0a1.039,1.039,0,0,1-1.129-1.141q0-1.942,0-3.884a.443.443,0,0,1,.109-.28q2.765-2.833,5.541-5.657c.04-.04.083-.077.137-.126l1.187,1.364q1.964,2.258,3.929,4.516a.593.593,0,0,0,.961.113l3.854-2.723.235-.163.943.68q1.436,1.035,2.873,2.067a.321.321,0,0,1,.156.3C750.944,1594.947,750.948,1596.213,750.946,1597.479Zm.018-5.462c0,.061-.008.122-.014.21-.086-.058-.151-.1-.212-.143l-3.345-2.4a.56.56,0,0,0-.829,0l-3.829,2.722c-.064.045-.129.088-.211.145l-.691-.79-4.5-5.163c-.355-.408-.618-.417-1-.031l-5.1,5.188c-.055.056-.1.118-.155.178l-.062-.022v-.226c0-3.148.011-6.3-.008-9.443a1.115,1.115,0,0,1,1.207-1.2q8.778.013,17.557.005a1.048,1.048,0,0,1,1.146.767,1.482,1.482,0,0,1,.04.381Q750.966,1587.1,750.964,1592.016Z"/>
          <path id="Trazado_112890" data-name="Trazado 112890" d="M810.882,1600.99a2.648,2.648,0,1,0,2.654,2.643A2.648,2.648,0,0,0,810.882,1600.99Zm.01,4.278a1.635,1.635,0,1,1-.008-3.27,1.635,1.635,0,0,1,.008,3.27Z" transform="translate(-66.765 -17.914)"/>
        </g>
      </g>
    </g>
  </g>
</svg>
