<svg xmlns="http://www.w3.org/2000/svg" xmlns:xlink="http://www.w3.org/1999/xlink" width="400" height="218.072" viewBox="0 0 400 218.072">
  <defs>
    <linearGradient id="linear-gradient" x1="0.092" y1="0.879" x2="0.8" y2="0.222" gradientUnits="objectBoundingBox">
      <stop offset="0.333" stop-color="#555e63" stop-opacity="0.902"/>
      <stop offset="0.44" stop-color="#525b60" stop-opacity="0.906"/>
      <stop offset="0.479" stop-color="#495358" stop-opacity="0.933"/>
      <stop offset="0.507" stop-color="#3a444a" stop-opacity="0.976"/>
      <stop offset="0.516" stop-color="#323d43"/>
      <stop offset="0.517" stop-color="#394349"/>
      <stop offset="0.525" stop-color="#626a6f"/>
      <stop offset="0.534" stop-color="#878e91"/>
      <stop offset="0.544" stop-color="#a8adaf"/>
      <stop offset="0.554" stop-color="#c3c6c8"/>
      <stop offset="0.567" stop-color="#d9dbdc"/>
      <stop offset="0.581" stop-color="#eaebec"/>
      <stop offset="0.598" stop-color="#f6f6f7"/>
      <stop offset="0.622" stop-color="#fdfdfd"/>
      <stop offset="0.69" stop-color="#fff"/>
    </linearGradient>
    <linearGradient id="linear-gradient-2" x1="0.083" y1="1.005" x2="0.97" y2="0.186" gradientUnits="objectBoundingBox">
      <stop offset="0" stop-color="#a4ddf4"/>
      <stop offset="0.057" stop-color="#62c3ed" stop-opacity="0.902"/>
      <stop offset="0.106" stop-color="#5abbeb" stop-opacity="0.902"/>
      <stop offset="0.256" stop-color="#49aae6" stop-opacity="0.902"/>
      <stop offset="0.374" stop-color="#43a4e5" stop-opacity="0.902"/>
      <stop offset="0.626" stop-color="#46a7e5" stop-opacity="0.902"/>
      <stop offset="0.801" stop-color="#50b1e8" stop-opacity="0.902"/>
      <stop offset="0.952" stop-color="#61c2ec" stop-opacity="0.902"/>
      <stop offset="0.957" stop-color="#62c3ed" stop-opacity="0.902"/>
      <stop offset="0.986" stop-color="#8dd3f1" stop-opacity="0.965"/>
      <stop offset="1" stop-color="#a4ddf4"/>
    </linearGradient>
    <linearGradient id="linear-gradient-3" x1="0.638" y1="0.926" x2="0.428" y2="0.277" gradientUnits="objectBoundingBox">
      <stop offset="0.059" stop-color="#62c3ed" stop-opacity="0.902"/>
      <stop offset="0.686" stop-color="#8dd3f1" stop-opacity="0.965"/>
      <stop offset="1" stop-color="#a4ddf4"/>
    </linearGradient>
    <linearGradient id="linear-gradient-4" x1="0.608" y1="0.836" x2="0.399" y2="0.186" xlink:href="#linear-gradient"/>
  </defs>
  <g id="Grupo_77526" data-name="Grupo 77526" transform="translate(-915 -5431)">
    <rect id="Rectángulo_32498" data-name="Rectángulo 32498" width="400" height="210" transform="translate(915 5431)" fill="#b2ebf2"/>
    <g id="Grupo_77525" data-name="Grupo 77525" transform="translate(152.045 4228.628)">
      <g id="Grupo_77515" data-name="Grupo 77515" transform="translate(1000.083 1210.038)">
        <rect id="Rectángulo_33736" data-name="Rectángulo 33736" width="102.796" height="110.603" rx="4" transform="translate(2.803 2.803)" fill="#1370a1" opacity="0.2" style="mix-blend-mode: multiply;isolation: isolate"/>
        <rect id="Rectángulo_33737" data-name="Rectángulo 33737" width="102.796" height="110.603" rx="4" transform="translate(0 0)" fill="#f0f7fa"/>
        <path id="Trazado_112947" data-name="Trazado 112947" d="M1074.91,1210.038H981.154a4.52,4.52,0,0,0-4.52,4.52v101.565a4.52,4.52,0,0,0,4.52,4.519h93.757a4.519,4.519,0,0,0,4.519-4.519V1214.557A4.519,4.519,0,0,0,1074.91,1210.038Zm4.182,106.083a4.186,4.186,0,0,1-4.18,4.182H981.154a4.186,4.186,0,0,1-4.18-4.182V1214.559a4.186,4.186,0,0,1,4.18-4.181h93.758a4.185,4.185,0,0,1,4.18,4.181Z" transform="translate(-976.634 -1210.038)" opacity="0.5" fill="url(#linear-gradient)" style="mix-blend-mode: overlay;isolation: isolate"/>
        <rect id="Rectángulo_33738" data-name="Rectángulo 33738" width="78.387" height="84.718" transform="translate(93.758 23.177) rotate(90)" fill="#395795"/>
        <g id="Grupo_77514" data-name="Grupo 77514" transform="translate(28.343 40.945)">
          <path id="Trazado_112948" data-name="Trazado 112948" d="M1024.774,1283.7l-6.55-4.235a78.318,78.318,0,0,1-6.613-4.855c-4.605-3.792-9.892-9.067-9.892-16.267a12.068,12.068,0,0,1,23.055-4.988,12.068,12.068,0,0,1,23.055,4.988c0,7.2-5.287,12.475-9.892,16.267a78.333,78.333,0,0,1-6.613,4.855Z" transform="translate(-1001.719 -1246.276)" fill="#a4ddf4"/>
        </g>
        <path id="Trazado_112949" data-name="Trazado 112949" d="M994.288,1220.85a4.827,4.827,0,1,0-4.827,4.827A4.826,4.826,0,0,0,994.288,1220.85Z" transform="translate(-975.595 -1209.261)" fill="#daeaf2"/>
      </g>
      <g id="Grupo_77516" data-name="Grupo 77516" transform="translate(802.643 1210.038)">
        <rect id="Rectángulo_33739" data-name="Rectángulo 33739" width="119.522" height="101.039" rx="5" transform="translate(4.129 4.129)" fill="#667c9a" opacity="0.4" style="mix-blend-mode: multiply;isolation: isolate"/>
        <rect id="Rectángulo_33740" data-name="Rectángulo 33740" width="119.522" height="101.039" rx="5" fill="#fff"/>
        <rect id="Rectángulo_33741" data-name="Rectángulo 33741" width="85.862" height="104.344" rx="1" transform="translate(111.933 7.589) rotate(90)" fill="#e8f2f7"/>
        <path id="Trazado_112950" data-name="Trazado 112950" d="M815.323,1294.155s2.377-11.595,7.369-12.626,5.969,10.885,14.111-9.676c7.221-18.234,12.945,3.786,20.493-4.68s14.609-43.7,27.919-43.7c16.361,0,19.274,70.683,19.274,70.683Z" transform="translate(-800.145 -1208.293)" fill="#395795"/>
        <path id="Trazado_112951" data-name="Trazado 112951" d="M815.323,1289.758h89.166s-2.635-10.99-7.141-11.983c-4.633-1.019-5.823,9.031-13.615-7.6s-13.384-17.786-21.68.481-12.814,10.629-20.476,5.982-7.978,6.612-13.5,9.866S822.653,1278.026,815.323,1289.758Z" transform="translate(-800.145 -1203.896)" fill="#fb8c00"/>
        <circle id="Elipse_4805" data-name="Elipse 4805" cx="5.679" cy="5.679" r="5.679" transform="translate(15.178 15.178)" fill="#fff"/>
        <path id="Trazado_112952" data-name="Trazado 112952" d="M849.741,1231.35H833.107a1.945,1.945,0,0,1-1.945-1.946h0a1.944,1.944,0,0,1,1.945-1.945h16.634a1.945,1.945,0,0,1,1.946,1.945h0A1.946,1.946,0,0,1,849.741,1231.35Z" transform="translate(-798.088 -1207.776)" fill="#fff"/>
      </g>
      <g id="Grupo_77518" data-name="Grupo 77518" transform="translate(1095.495 1238.849)">
        <path id="Trazado_112953" data-name="Trazado 112953" d="M1086.762,1236.687h-20.015a4.52,4.52,0,0,0-4.52,4.52v11.05a4.52,4.52,0,0,0,4.52,4.52h7.276l2.88,2.879,2.879-2.879h6.979a4.52,4.52,0,0,0,4.52-4.52v-11.05A4.52,4.52,0,0,0,1086.762,1236.687Z" transform="translate(-1060.929 -1235.388)" fill="#667c9a" opacity="0.4" style="mix-blend-mode: multiply;isolation: isolate"/>
        <path id="Trazado_112954" data-name="Trazado 112954" d="M1085.612,1235.537H1065.6a4.52,4.52,0,0,0-4.52,4.52v11.05a4.52,4.52,0,0,0,4.52,4.52h7.276l2.88,2.879,2.879-2.879h6.979a4.52,4.52,0,0,0,4.52-4.52v-11.05A4.52,4.52,0,0,0,1085.612,1235.537Z" transform="translate(-1061.078 -1235.537)" fill="#395795"/>
        <g id="Grupo_77517" data-name="Grupo 77517" transform="translate(8.218 5.479)">
          <path id="Trazado_112955" data-name="Trazado 112955" d="M1074.809,1250.868l-1.835-1.186a21.843,21.843,0,0,1-1.853-1.36c-1.289-1.061-2.77-2.539-2.77-4.556a14.4,14.4,0,0,0,9.536-3.379,3.379,3.379,0,0,1,3.379,3.379c0,2.017-1.481,3.495-2.77,4.556a21.808,21.808,0,0,1-1.853,1.36Z" transform="translate(-1068.351 -1240.386)" fill="#f4f7fc"/>
        </g>
      </g>
      <g id="Grupo_77519" data-name="Grupo 77519" transform="translate(827.116 1314.67)">
        <path id="Trazado_112956" data-name="Trazado 112956" d="M911.973,1378.832H825.482a1.931,1.931,0,0,1-1.932-1.932v-72.326a1.932,1.932,0,0,1,1.932-1.932h86.491a1.933,1.933,0,0,1,1.932,1.932V1376.9A1.932,1.932,0,0,1,911.973,1378.832Zm-84.56-3.864h82.628v-68.462H827.413Z" transform="translate(-823.55 -1302.642)" fill="#fff"/>
      </g>
      <g id="Grupo_77520" data-name="Grupo 77520" transform="translate(796.092 1348.962)">
        <path id="Trazado_112957" data-name="Trazado 112957" d="M805.644,1352.094a9.551,9.551,0,1,1,9.551-9.551A9.562,9.562,0,0,1,805.644,1352.094Zm0-15.238a5.687,5.687,0,1,0,5.687,5.687A5.693,5.693,0,0,0,805.644,1336.856Z" transform="translate(-796.092 -1332.992)" fill="#fff"/>
      </g>
      <circle id="Elipse_4806" data-name="Elipse 4806" cx="10.607" cy="10.607" r="10.607" transform="translate(837.738 1389.705) rotate(-45)" fill="#fff"/>
      <path id="Trazado_112958" data-name="Trazado 112958" d="M857.067,1353.117l-6.323-4.52-6.322,4.52v-14.832h12.645Z" transform="translate(6.277 16.657)" fill="#fff"/>
      <g id="Grupo_77521" data-name="Grupo 77521" transform="translate(1055.215 1348.676)" style="isolation: isolate">
        <path id="Trazado_112959" data-name="Trazado 112959" d="M1076.365,1341.336c0-.051.006-.1,0-.154a5.143,5.143,0,0,0-.039-.518c0-.027-.01-.052-.015-.078s-.016-.08-.022-.12c-.017-.1-.032-.2-.055-.3-.031-.123-.071-.242-.113-.359-.008-.024-.014-.049-.023-.072l-.01-.034a3.748,3.748,0,0,0-.208-.448c-.038-.069-.079-.137-.121-.2l-2.771-4.344a3.6,3.6,0,0,1,.34.687c.009.024.014.048.023.072a4.094,4.094,0,0,1,.168.655c.007.041.016.079.023.12a5.065,5.065,0,0,1,.05.748c0,.055,0,.111,0,.165a6.439,6.439,0,0,1-.074.829c0,.016-.007.033-.009.048-.045.272-.112.556-.19.844-.019.071-.038.142-.06.214-.091.306-.194.617-.321.938-.018.047-.043.1-.063.148-.113.277-.24.561-.378.848-.057.116-.117.235-.176.353-.117.229-.246.463-.38.7-.085.15-.17.3-.261.453-.122.2-.254.407-.387.612s-.277.428-.426.646c-.119.172-.246.346-.371.52q-.356.491-.749.994c-.162.206-.32.409-.49.617-.1.121-.2.242-.3.364-.263.312-.539.627-.824.945-.078.087-.152.173-.231.26q-.576.632-1.206,1.273c-.048.049-.1.1-.15.147q-.558.563-1.156,1.132c-.213.2-.437.4-.658.606-.272.251-.542.5-.827.754-.234.207-.479.413-.72.622-.348.3-.69.6-1.054.9-.662.546-1.338,1.077-2.021,1.6-.08.062-.162.125-.243.186q-1.046.793-2.118,1.549l-.041.028q-1.076.754-2.171,1.468l-.143.094q-1.091.708-2.2,1.373l-.144.087q-1.056.632-2.115,1.22l-.246.136q-1.032.569-2.06,1.093l-.254.129q-1.024.517-2.039.987l-.274.127q-1,.456-1.978.864l-.354.146c-.655.268-1.3.521-1.943.755-.118.043-.233.081-.349.123-.525.188-1.041.359-1.552.522-.2.066-.406.13-.606.191-.391.119-.772.22-1.153.324-.307.083-.616.169-.915.242-.552.135-1.1.257-1.625.356l-.276.047c-.549.1-1.086.18-1.6.237l-.1.012c-.53.057-1.036.085-1.528.1-.094,0-.188.006-.28.006a13.2,13.2,0,0,1-1.358-.054c-.078-.007-.154-.018-.232-.026a9.649,9.649,0,0,1-1.265-.218,4.728,4.728,0,0,1-2.979-1.921l2.77,4.346a4.73,4.73,0,0,0,2.98,1.92,9.625,9.625,0,0,0,1.266.218c.077.009.152.019.231.027.432.039.886.056,1.358.054.091,0,.185,0,.279-.007.492-.012,1-.041,1.528-.1l.1-.012c.516-.058,1.053-.139,1.6-.236l.276-.049c.443-.083.893-.176,1.354-.284.088-.021.182-.051.271-.072.3-.072.608-.159.915-.242.258-.07.507-.128.77-.2.125-.037.256-.083.383-.121.2-.061.4-.125.606-.19s.418-.128.632-.2c.3-.1.614-.214.923-.325.115-.041.229-.079.347-.122l.167-.059q.655-.241,1.32-.507c.151-.06.305-.127.457-.189l.354-.146c.152-.063.3-.122.454-.188q.607-.259,1.222-.537c.1-.045.2-.094.3-.14l.274-.126c.194-.09.389-.179.583-.271.381-.18.761-.366,1.143-.556.105-.052.21-.107.315-.161l.251-.129c.184-.094.368-.185.553-.281q.54-.281,1.083-.575c.141-.077.284-.158.426-.236l.244-.136c.133-.073.266-.146.4-.22q.507-.286,1.014-.582c.234-.137.467-.277.7-.417l.149-.088.145-.087q.468-.283.934-.574t.917-.582c.066-.043.132-.088.2-.131l.141-.093c.175-.114.351-.227.526-.344.288-.191.575-.385.861-.581q.4-.27.786-.546l.037-.025.037-.027q.43-.3.855-.61.5-.366,1-.739l.226-.174c.082-.061.163-.124.244-.186.213-.163.428-.324.639-.49q.7-.546,1.381-1.108c.123-.1.244-.2.365-.3.237-.2.459-.4.689-.6s.487-.414.72-.62c.284-.251.552-.5.824-.75.221-.2.448-.408.662-.61l.112-.1c.36-.344.7-.686,1.043-1.026.049-.05.1-.1.15-.148q.59-.6,1.132-1.191c.026-.028.049-.055.075-.084.078-.086.15-.172.227-.257q.428-.478.826-.948c.1-.122.2-.243.3-.364s.182-.214.267-.32.145-.2.224-.3q.393-.5.749-.994c.071-.1.157-.2.226-.3.052-.075.094-.146.145-.219.15-.218.288-.432.426-.644.084-.13.18-.264.26-.393.046-.076.084-.148.128-.223.092-.153.177-.3.262-.451.069-.123.148-.249.212-.37s.108-.218.165-.329.122-.237.179-.355c.035-.073.078-.15.112-.224.1-.211.183-.417.267-.623.019-.049.044-.1.063-.148l.017-.042c.095-.244.179-.485.254-.72.019-.06.032-.117.05-.176s.039-.142.059-.212c.025-.094.057-.191.078-.283.046-.192.081-.378.112-.563,0-.016.007-.033.009-.047l0-.018c.031-.2.053-.39.067-.579.006-.079,0-.156.006-.233C1076.363,1341.444,1076.365,1341.39,1076.365,1341.336Z" transform="translate(-1025.358 -1332.483)" fill="url(#linear-gradient-2)"/>
        <path id="Trazado_112960" data-name="Trazado 112960" d="M1070.082,1333.044c-6.986-1.773-21.842,4.359-33.188,13.705s-14.864,18.348-7.878,20.121,21.842-4.359,33.181-13.7S1077.068,1334.817,1070.082,1333.044Z" transform="translate(-1025.428 -1332.739)" fill="url(#linear-gradient-3)"/>
        <path id="Trazado_112961" data-name="Trazado 112961" d="M1070.082,1333.044c-6.986-1.773-21.842,4.359-33.188,13.705s-14.864,18.348-7.878,20.121,21.842-4.359,33.181-13.7S1077.068,1334.817,1070.082,1333.044Zm-8.1,19.864c-9.8,8.071-22.511,13.927-30.23,13.927h0a10.874,10.874,0,0,1-2.652-.294,3.911,3.911,0,0,1-3.23-2.878c-.849-3.793,3.563-10.329,11.239-16.652,9.8-8.074,22.519-13.934,30.239-13.934a10.839,10.839,0,0,1,2.65.3,3.908,3.908,0,0,1,3.231,2.878C1074.078,1340.044,1069.663,1346.582,1061.983,1352.908Z" transform="translate(-1025.428 -1332.739)" opacity="0.5" fill="url(#linear-gradient-4)" style="mix-blend-mode: overlay;isolation: isolate"/>
      </g>
      <g id="Grupo_77524" data-name="Grupo 77524" transform="translate(870.434 1266.742)">
        <g id="Grupo_77522" data-name="Grupo 77522" transform="translate(0 20.202)">
          <rect id="Rectángulo_33742" data-name="Rectángulo 33742" width="158.983" height="104.701" rx="3.689" opacity="0.4" style="mix-blend-mode: multiply;isolation: isolate"/>
        </g>
        <g id="Grupo_77523" data-name="Grupo 77523" transform="translate(15.652)">
          <rect id="Rectángulo_33743" data-name="Rectángulo 33743" width="158.983" height="104.701" rx="3.689" fill="#fff"/>
          <rect id="Rectángulo_33744" data-name="Rectángulo 33744" width="92.672" height="146.954" transform="translate(152.969 6.014) rotate(90)" fill="#26aab7"/>
          <path id="Trazado_112962" data-name="Trazado 112962" d="M993.6,1307.128l-17.208,24.414-7.829,11.107-16.345-23.189-25.724-36.5-45.433,64.459v8.533h146.954Z" transform="translate(-875.049 -1257.27)" fill="#1565c0"/>
          <path id="Trazado_112963" data-name="Trazado 112963" d="M971.034,1290.5A11.236,11.236,0,1,1,959.8,1279.26,11.235,11.235,0,0,1,971.034,1290.5Z" transform="translate(-866.282 -1257.751)" fill="#fff"/>
        </g>
      </g>
    </g>
  </g>
</svg>
