<svg xmlns="http://www.w3.org/2000/svg" width="146.184" height="146.184" viewBox="0 0 146.184 146.184">
  <g id="Grupo_79481" data-name="Grupo 79481" transform="translate(-1006.697 -3721)">
    <g id="Grupo_79013" data-name="Grupo 79013" transform="translate(1006.697 3721)">
      <path id="Trazado_133654" data-name="Trazado 133654" d="M179.858,110.559A25.043,25.043,0,0,0,204.081,92.1c.017-.065.035-.131.052-.2A73.1,73.1,0,0,0,87.711,16.106l-.033.026a8.524,8.524,0,0,0-3.152,6.645V38.789a71.77,71.77,0,0,0,71.77,71.77Z" transform="translate(-60.393)" fill="#1565c0"/>
      <path id="Trazado_133655" data-name="Trazado 133655" d="M140.585,134.613v.008l-.358.251q-2.52,1.789-5.193,3.367v0l-.263.156v0a73.125,73.125,0,0,1-68.038,2.949h0c-1.942-.918-4.115-2.069-6.082-3.239h0a73.316,73.316,0,0,1-19.7-17.129v0l-.175-.22v0A73.029,73.029,0,0,1,27.321,56.426,73.114,73.114,0,0,0,9.856,150.085l.007.008c1.8,3.1,15.224,18.827,20.624,22.708l0,0q2.567,1.844,5.293,3.466h0c1.812,1.078,94.751-17.668,94.751-17.662V158.6a72.737,72.737,0,0,0,13.2-26.385q-1.542,1.24-3.152,2.4Z" transform="translate(0 -40.316)" fill="#064791"/>
      <path id="Trazado_133656" data-name="Trazado 133656" d="M214.109,156.471H159.458v-68.7a15.753,15.753,0,0,1,15.753-15.753h23.145a15.753,15.753,0,0,1,15.753,15.753Z" transform="translate(-113.93 -51.456)" fill="#783c28"/>
      <path id="Trazado_133657" data-name="Trazado 133657" d="M192.352,323.973h-41.6q-.276,0-.55.009a12.772,12.772,0,0,0-12.215,12.835V368.76c.656.581,1.326,1.14,2,1.688a73.194,73.194,0,0,0,68.767-2.885V340.375a16.4,16.4,0,0,0-16.4-16.4Z" transform="translate(-98.587 -231.474)" fill="#ffc305"/>
      <path id="Trazado_133658" data-name="Trazado 133658" d="M215.551,294.348a15.983,15.983,0,0,0-8.088,29.77l8.181-8.181,8.113,8.113a15.985,15.985,0,0,0-8.207-29.7Z" transform="translate(-142.588 -210.307)" fill="#fa870a"/>
      <path id="Trazado_133659" data-name="Trazado 133659" d="M125.247,340.374V367.4l.023.024q2.955,1.758,6.083,3.24V340.374a16.4,16.4,0,0,1,16.4-16.4h-6.106A16.4,16.4,0,0,0,125.247,340.374Z" transform="translate(-89.487 -231.473)" fill="#fa870a"/>
      <path id="Trazado_133660" data-name="Trazado 133660" d="M261.982,400.1q2.277-.052,4.517-.245V355.413h-4.517Z" transform="translate(-187.182 -253.937)" fill="#fa870a"/>
      <path id="Trazado_133661" data-name="Trazado 133661" d="M248.048,400.082c.754.023,1.51.039,2.27.039s1.5-.015,2.247-.038v-44.67h-4.517Z" transform="translate(-177.227 -253.937)" fill="#fff"/>
      <g id="Grupo_78975" data-name="Grupo 78975" transform="translate(71.617 136.18)">
        <g id="Grupo_78974" data-name="Grupo 78974">
          <path id="Trazado_133662" data-name="Trazado 133662" d="M252.31,479.912a1.475,1.475,0,1,1,1.475-1.475A1.475,1.475,0,0,1,252.31,479.912Z" transform="translate(-250.835 -476.963)" fill="#ffc305"/>
        </g>
      </g>
      <g id="Grupo_78977" data-name="Grupo 78977" transform="translate(71.617 124.653)">
        <g id="Grupo_78976" data-name="Grupo 78976">
          <path id="Trazado_133663" data-name="Trazado 133663" d="M252.31,439.539a1.475,1.475,0,1,1,1.475-1.475A1.475,1.475,0,0,1,252.31,439.539Z" transform="translate(-250.835 -436.59)" fill="#ffc305"/>
        </g>
      </g>
      <g id="Grupo_78979" data-name="Grupo 78979" transform="translate(71.617 113.126)">
        <g id="Grupo_78978" data-name="Grupo 78978">
          <path id="Trazado_133664" data-name="Trazado 133664" d="M252.31,399.165a1.475,1.475,0,1,1,1.475-1.475A1.475,1.475,0,0,1,252.31,399.165Z" transform="translate(-250.835 -396.216)" fill="#ffc305"/>
        </g>
      </g>
      <path id="Trazado_133665" data-name="Trazado 133665" d="M215.551,281.486a15.983,15.983,0,0,0-8.088,29.77l8.181-8.181,8.113,8.113a15.985,15.985,0,0,0-8.207-29.7Z" transform="translate(-142.588 -201.118)" fill="#fff"/>
      <g id="Grupo_78981" data-name="Grupo 78981" transform="translate(52.176 14.3)">
        <g id="Grupo_78980" data-name="Grupo 78980">
          <path id="Trazado_133666" data-name="Trazado 133666" d="M214.833,80.411H192.009c-5.118,0-9.267-1.007-9.267-6.125V59.352a9.267,9.267,0,0,1,9.267-9.267h22.824a9.267,9.267,0,0,1,9.267,9.267V74.286C224.1,79.4,219.951,80.411,214.833,80.411Z" transform="translate(-182.742 -50.085)" fill="#783c28"/>
        </g>
      </g>
      <circle id="Elipse_4870" data-name="Elipse 4870" cx="2.031" cy="2.031" r="2.031" transform="translate(93.897 60.092)" fill="#fff"/>
      <g id="Grupo_78983" data-name="Grupo 78983" transform="translate(50.699 20.562)">
        <g id="Grupo_78982" data-name="Grupo 78982">
          <path id="Trazado_133667" data-name="Trazado 133667" d="M181.855,84.084V81.947a9.929,9.929,0,0,1,9.928-9.928H187.5a9.929,9.929,0,0,0-9.928,9.928v2.138Z" transform="translate(-177.571 -72.018)" fill="#a55a3c"/>
        </g>
      </g>
      <g id="Grupo_78985" data-name="Grupo 78985" transform="translate(65.198 76.317)">
        <g id="Grupo_78984" data-name="Grupo 78984">
          <path id="Trazado_133668" data-name="Trazado 133668" d="M236.118,292.455a7.765,7.765,0,0,1-7.765-7.765V267.3h15.531v17.393A7.765,7.765,0,0,1,236.118,292.455Z" transform="translate(-228.353 -267.296)" fill="#ff965a"/>
        </g>
      </g>
      <g id="Grupo_78987" data-name="Grupo 78987" transform="translate(57.958 33.544)">
        <g id="Grupo_78986" data-name="Grupo 78986">
          <path id="Trazado_133669" data-name="Trazado 133669" d="M239.885,132.082a14.743,14.743,0,0,0-14.743-14.6h-5.922a23.362,23.362,0,0,0-14.148,4.746,5.289,5.289,0,0,0-2.078,4.222v29.277a14.809,14.809,0,0,0,14.617,14.852h.17a22.265,22.265,0,0,0,22.264-22.264Z" transform="translate(-202.995 -117.485)" fill="#ffbe82"/>
        </g>
      </g>
      <g id="Grupo_78989" data-name="Grupo 78989" transform="translate(95.01 48.539)">
        <g id="Grupo_78988" data-name="Grupo 78988">
          <path id="Trazado_133670" data-name="Trazado 133670" d="M332.767,183.11v-13.1a5.169,5.169,0,0,1,5.169,5.169v2.766a5.169,5.169,0,0,1-5.169,5.169Z" transform="translate(-332.767 -170.006)" fill="#ff965a"/>
        </g>
      </g>
      <g id="Grupo_78991" data-name="Grupo 78991" transform="translate(45.53 48.539)">
        <g id="Grupo_78990" data-name="Grupo 78990">
          <path id="Trazado_133671" data-name="Trazado 133671" d="M164.636,183.11v-13.1a5.169,5.169,0,0,0-5.169,5.169v2.766a5.169,5.169,0,0,0,5.169,5.169Z" transform="translate(-159.467 -170.006)" fill="#ff965a"/>
        </g>
      </g>
      <g id="Grupo_78993" data-name="Grupo 78993" transform="translate(63.438 51.113)">
        <g id="Grupo_78992" data-name="Grupo 78992">
          <path id="Trazado_133672" data-name="Trazado 133672" d="M224.025,187.713a1.836,1.836,0,0,1-1.836-1.836v-5.022a1.836,1.836,0,0,1,3.672,0v5.022a1.836,1.836,0,0,1-1.836,1.836Z" transform="translate(-222.189 -179.019)" fill="#ff965a"/>
        </g>
      </g>
      <g id="Grupo_78995" data-name="Grupo 78995" transform="translate(78.434 51.113)">
        <g id="Grupo_78994" data-name="Grupo 78994">
          <path id="Trazado_133673" data-name="Trazado 133673" d="M276.546,187.713a1.836,1.836,0,0,1-1.836-1.836v-5.022a1.836,1.836,0,0,1,3.672,0v5.022a1.837,1.837,0,0,1-1.836,1.836Z" transform="translate(-274.71 -179.019)" fill="#ff965a"/>
        </g>
      </g>
      <g id="Grupo_78997" data-name="Grupo 78997" transform="translate(63.438 49.583)">
        <g id="Grupo_78996" data-name="Grupo 78996">
          <path id="Trazado_133674" data-name="Trazado 133674" d="M224.025,182.354a1.836,1.836,0,0,1-1.836-1.836V175.5a1.836,1.836,0,1,1,3.672,0v5.022A1.836,1.836,0,0,1,224.025,182.354Z" transform="translate(-222.189 -173.66)" fill="#373c41"/>
        </g>
      </g>
      <g id="Grupo_78999" data-name="Grupo 78999" transform="translate(78.434 49.583)">
        <g id="Grupo_78998" data-name="Grupo 78998">
          <path id="Trazado_133675" data-name="Trazado 133675" d="M276.546,182.354a1.836,1.836,0,0,1-1.836-1.836V175.5a1.836,1.836,0,0,1,3.672,0v5.022A1.836,1.836,0,0,1,276.546,182.354Z" transform="translate(-274.71 -173.66)" fill="#373c41"/>
        </g>
      </g>
      <g id="Grupo_79002" data-name="Grupo 79002" transform="translate(60.502 44.992)">
        <g id="Grupo_79001" data-name="Grupo 79001">
          <g id="Grupo_79000" data-name="Grupo 79000">
            <path id="Trazado_133676" data-name="Trazado 133676" d="M219.1,161.254h-5.355a1.836,1.836,0,1,1,0-3.672H219.1a1.836,1.836,0,1,1,0,3.672Z" transform="translate(-211.906 -157.582)" fill="#783c28"/>
          </g>
        </g>
      </g>
      <g id="Grupo_79005" data-name="Grupo 79005" transform="translate(75.804 44.992)">
        <g id="Grupo_79004" data-name="Grupo 79004">
          <g id="Grupo_79003" data-name="Grupo 79003">
            <path id="Trazado_133677" data-name="Trazado 133677" d="M272.691,161.254h-5.355a1.836,1.836,0,1,1,0-3.672h5.355a1.836,1.836,0,1,1,0,3.672Z" transform="translate(-265.5 -157.582)" fill="#783c28"/>
          </g>
        </g>
      </g>
      <g id="Grupo_79007" data-name="Grupo 79007" transform="translate(69.864 53.012)">
        <g id="Grupo_79006" data-name="Grupo 79006">
          <path id="Trazado_133678" data-name="Trazado 133678" d="M244.818,194.084a3.169,3.169,0,0,0,1.959,3.889,3.228,3.228,0,0,0,2.031,0,3.169,3.169,0,0,0,1.96-3.889l-2.226-7.845a.778.778,0,0,0-1.5,0Z" transform="translate(-244.693 -185.673)" fill="#ff965a"/>
        </g>
      </g>
      <circle id="Elipse_4871" data-name="Elipse 4871" cx="2.031" cy="2.031" r="2.031" transform="translate(48.114 60.092)" fill="#fff"/>
      <path id="Trazado_133679" data-name="Trazado 133679" d="M201.67,117.622a24.054,24.054,0,0,0-24.1,24.052v6.96a22.049,22.049,0,0,0,25.787,21.727,22.048,22.048,0,0,1-18.324-21.727c.006-9.763,0-14.294,0-16.5a3.194,3.194,0,0,1,3.177-3.185H198.9a11.26,11.26,0,0,0,11.26-11.26S208.532,117.635,201.67,117.622Z" transform="translate(-126.872 -84.039)" fill="#ff965a"/>
      <path id="Trazado_133680" data-name="Trazado 133680" d="M177.571,112.491v25.517a2.953,2.953,0,0,0,2.953-2.953v-3.617a7.687,7.687,0,0,1,7.687-7.687H198.9a11.26,11.26,0,0,0,11.26-11.26Z" transform="translate(-126.872 -80.373)" fill="#783c28"/>
      <path id="Trazado_133681" data-name="Trazado 133681" d="M290.3,115.3a9.361,9.361,0,0,1,9.171,9.349v11.79a2.953,2.953,0,0,0,2.953,2.953V114.426Z" transform="translate(-207.418 -81.756)" fill="#783c28"/>
      <path id="Trazado_133682" data-name="Trazado 133682" d="M243.232,240.239H241.3l-7.095.636-3.063-.636H229.44a.953.953,0,0,0-.953,1.067,7.874,7.874,0,0,0,1.051,3l10.284,3.048a7.928,7.928,0,0,0,4.364-6.047.953.953,0,0,0-.953-1.067Z" transform="translate(-163.244 -171.647)" fill="#e0248b"/>
      <path id="Trazado_133683" data-name="Trazado 133683" d="M232.192,249.582a7.922,7.922,0,0,0,10.283,3.047,5.948,5.948,0,0,0-10.283-3.047Z" transform="translate(-165.898 -176.924)" fill="#f73c9a"/>
      <path id="Trazado_133684" data-name="Trazado 133684" d="M246.863,242.348h-7.923a1.117,1.117,0,0,1-1.117-1.117v-.992H247.98v.992A1.117,1.117,0,0,1,246.863,242.348Z" transform="translate(-169.92 -171.647)" fill="#fff"/>
      <path id="Trazado_133685" data-name="Trazado 133685" d="M222.926,186.288a.737.737,0,0,1-.737-.737v-2.214a.737.737,0,0,1,1.474,0v2.214A.737.737,0,0,1,222.926,186.288Z" transform="translate(-158.751 -130.465)" fill="#fff"/>
      <path id="Trazado_133686" data-name="Trazado 133686" d="M275.447,185.015a.737.737,0,0,1-.737-.737v-2.214a.737.737,0,1,1,1.474,0v2.214A.737.737,0,0,1,275.447,185.015Z" transform="translate(-196.276 -129.555)" fill="#fff"/>
      <g id="Grupo_79008" data-name="Grupo 79008" transform="translate(101.61 66.746)">
        <path id="Trazado_133687" data-name="Trazado 133687" d="M390.281,253.85v20.469h-5.348V253.85a2.674,2.674,0,0,1,5.348,0Z" transform="translate(-376.639 -246.207)" fill="#ffbe82"/>
        <path id="Trazado_133688" data-name="Trazado 133688" d="M388.624,263.479v-12.1a2.673,2.673,0,0,0-3.691,2.473v20.469h5.348v-8.981A1.805,1.805,0,0,1,388.624,263.479Z" transform="translate(-376.639 -246.207)" fill="#ffbe82"/>
        <path id="Trazado_133689" data-name="Trazado 133689" d="M360.447,291.592l14.474,14.474-3.781,3.781-14.474-14.474a2.674,2.674,0,1,1,3.781-3.781Z" transform="translate(-355.882 -274.524)" fill="#ffbe82"/>
        <path id="Trazado_133690" data-name="Trazado 133690" d="M407.271,250.945v-16.95a2.673,2.673,0,0,0-3.737,2.453v20.469h5.348V252.8a1.8,1.8,0,0,1-1.611-1.852Z" transform="translate(-389.929 -233.774)" fill="#ffbe82"/>
        <path id="Trazado_133691" data-name="Trazado 133691" d="M425.918,260.505v-13.39a2.67,2.67,0,0,0-3.783,2.431v20.469h5.348V262.35a1.8,1.8,0,0,1-1.565-1.845Z" transform="translate(-403.219 -243.132)" fill="#ffbe82"/>
        <path id="Trazado_133692" data-name="Trazado 133692" d="M444.768,260.22a2.67,2.67,0,0,0-4.031,2.3v17.344h4.031V260.22Z" transform="translate(-416.51 -252.403)" fill="#ffbe82"/>
        <path id="Trazado_133693" data-name="Trazado 133693" d="M404.9,298.124V283.712H384.933v12.731a10.73,10.73,0,0,0,.133,1.68Z" transform="translate(-376.639 -269.454)" fill="#ffbe82"/>
        <path id="Trazado_133694" data-name="Trazado 133694" d="M395.266,351.612V337.05h15.343v14.562Z" transform="translate(-384.021 -307.563)" fill="#ffbe82"/>
      </g>
      <path id="Trazado_133695" data-name="Trazado 133695" d="M388.182,290.073h15.343v-2.682a10.6,10.6,0,0,0,2.975-6.915h.012V263.132a2.672,2.672,0,0,0-1.562-2.43v12.093a8.79,8.79,0,0,1-8.79,8.78H385.351a10.6,10.6,0,0,0,2.831,5.778Z" transform="translate(-275.328 -186.268)" fill="#ff965a"/>
      <path id="Trazado_133696" data-name="Trazado 133696" d="M395.265,369.833v-7.281h15.343v7.281Z" transform="translate(-282.411 -259.038)" fill="#fff"/>
      <path id="Trazado_133697" data-name="Trazado 133697" d="M414.615,380.575h-6.35a4.222,4.222,0,0,0-4.222,4.222v19.838a73.471,73.471,0,0,0,15.175-14.43v-5.028a4.6,4.6,0,0,0-4.6-4.6Z" transform="translate(-288.683 -271.915)" fill="#ffc305"/>
      <path id="Trazado_133698" data-name="Trazado 133698" d="M384.933,385.179v22.983q3-1.753,5.815-3.776V385.179a4.6,4.6,0,0,1,4.6-4.6h-5.815A4.6,4.6,0,0,0,384.933,385.179Z" transform="translate(-275.029 -271.916)" fill="#fa870a"/>
      <path id="Trazado_133699" data-name="Trazado 133699" d="M435.06,247.855h-.24v13.69a1.726,1.726,0,0,0,1.726,1.726V250.248a2.672,2.672,0,0,0-1.487-2.393Z" transform="translate(-310.672 -177.089)" fill="#ff965a"/>
      <path id="Trazado_133700" data-name="Trazado 133700" d="M416.219,234.39v17.534a1.726,1.726,0,0,0,1.726,1.726V236.888a2.673,2.673,0,0,0-1.726-2.5Z" transform="translate(-297.382 -167.468)" fill="#ff965a"/>
      <path id="Trazado_133701" data-name="Trazado 133701" d="M399.116,266.025V253.652a2.675,2.675,0,0,0-1.726-1.941V264.3a1.726,1.726,0,0,0,1.726,1.726Z" transform="translate(-283.929 -179.843)" fill="#ff965a"/>
      <path id="Trazado_133702" data-name="Trazado 133702" d="M88.057,169.7V190.17H93.4V169.7a2.674,2.674,0,0,0-5.348,0Z" transform="translate(-62.915 -119.339)" fill="#ffbe82"/>
      <path id="Trazado_133703" data-name="Trazado 133703" d="M90.731,167.028a2.66,2.66,0,0,0-1.027.205v12.624a1.231,1.231,0,0,1-1.647,1.155v9.158H93.4V169.7a2.674,2.674,0,0,0-2.674-2.674Z" transform="translate(-62.915 -119.339)" fill="#ffbe82"/>
      <path id="Trazado_133704" data-name="Trazado 133704" d="M83.631,207.443,69.157,221.917l3.781,3.781,14.474-14.474a2.674,2.674,0,0,0-3.781-3.781Z" transform="translate(-49.412 -147.656)" fill="#ffbe82"/>
      <path id="Trazado_133705" data-name="Trazado 133705" d="M72.129,149.625a2.662,2.662,0,0,0-1.091.234,1.368,1.368,0,0,1,.018.179v17.385a1.225,1.225,0,0,1-1.6,1.167v4.177H74.8V152.3A2.674,2.674,0,0,0,72.129,149.625Z" transform="translate(-49.625 -106.905)" fill="#ffbe82"/>
      <path id="Trazado_133706" data-name="Trazado 133706" d="M53.528,162.724a2.665,2.665,0,0,0-1.087.232,1.344,1.344,0,0,1,.018.181v13.544a1.225,1.225,0,0,1-1.605,1.166v8.02H56.2V165.4a2.674,2.674,0,0,0-2.674-2.674Z" transform="translate(-36.334 -116.264)" fill="#ffbe82"/>
      <path id="Trazado_133707" data-name="Trazado 133707" d="M38.211,175.7a2.658,2.658,0,0,0-1.361.375v19.643h4.035V178.372a2.674,2.674,0,0,0-2.674-2.674Z" transform="translate(-26.329 -125.534)" fill="#ffbe82"/>
      <path id="Trazado_133708" data-name="Trazado 133708" d="M56.632,214.272a10.7,10.7,0,0,0,.186-1.978V199.563H36.851v14.709Z" transform="translate(-26.329 -142.585)" fill="#ffbe82"/>
      <path id="Trazado_133709" data-name="Trazado 133709" d="M42.715,267.464V252.9H58.058v14.562Z" transform="translate(-30.519 -180.695)" fill="#ffbe82"/>
      <path id="Trazado_133710" data-name="Trazado 133710" d="M35.24,203.243v2.676H50.583V203.2a10.6,10.6,0,0,0,2.831-5.778H42.605a8.79,8.79,0,0,1-8.79-8.78V176.554a2.672,2.672,0,0,0-1.562,2.43v17.344h.012a10.6,10.6,0,0,0,2.975,6.915Z" transform="translate(-23.044 -126.145)" fill="#ff965a"/>
      <path id="Trazado_133711" data-name="Trazado 133711" d="M42.715,285.684V278.4H58.058v7.281Z" transform="translate(-30.519 -198.915)" fill="#fff"/>
      <path id="Trazado_133712" data-name="Trazado 133712" d="M65.7,296.427H59.891a4.164,4.164,0,0,0-4.164,4.164V330.4A73.509,73.509,0,0,0,70.305,344.28V301.03a4.6,4.6,0,0,0-4.6-4.6Z" transform="translate(-39.816 -211.793)" fill="#ffc305"/>
      <g id="Grupo_79009" data-name="Grupo 79009" transform="translate(9.858 84.634)">
        <path id="Trazado_133713" data-name="Trazado 133713" d="M40.755,301.03a4.6,4.6,0,0,1,4.6-4.6H39.13a4.6,4.6,0,0,0-4.6,4.6v20.531a73.233,73.233,0,0,0,6.228,9.06Z" transform="translate(-34.527 -296.427)" fill="#fa870a"/>
        <path id="Trazado_133714" data-name="Trazado 133714" d="M106.263,463.64v-.018l-.21-.137C106.123,463.536,106.192,463.589,106.263,463.64Z" transform="translate(-85.631 -415.787)" fill="#fa870a"/>
      </g>
      <path id="Trazado_133715" data-name="Trazado 133715" d="M52.341,163.707h.24V177.4a1.726,1.726,0,0,1-1.726,1.726V166.1A2.671,2.671,0,0,1,52.341,163.707Z" transform="translate(-36.334 -116.966)" fill="#ff965a"/>
      <path id="Trazado_133716" data-name="Trazado 133716" d="M71.181,150.242v17.534a1.726,1.726,0,0,1-1.726,1.726V152.74A2.672,2.672,0,0,1,71.181,150.242Z" transform="translate(-49.625 -107.346)" fill="#ff965a"/>
      <path id="Trazado_133717" data-name="Trazado 133717" d="M88.284,181.876V169.5a2.675,2.675,0,0,1,1.726-1.942V180.15A1.726,1.726,0,0,1,88.284,181.876Z" transform="translate(-63.078 -119.72)" fill="#ff965a"/>
      <g id="Grupo_79010" data-name="Grupo 79010" transform="translate(44.12 41.4)">
        <path id="Trazado_133718" data-name="Trazado 133718" d="M211.692,170.121a1.559,1.559,0,0,1-1.559,1.559H156.087a1.559,1.559,0,0,1-1.559-1.559V158.239a1.559,1.559,0,0,1,1.559-1.559h54.046a1.559,1.559,0,0,1,1.559,1.559v11.882Z" transform="translate(-154.528 -153.346)" fill="#453d49"/>
        <path id="Trazado_133719" data-name="Trazado 133719" d="M209.946,166.141H174.657a7.372,7.372,0,0,1-7.372-7.372v-4.794a7.372,7.372,0,0,1,7.372-7.372h35.288a7.372,7.372,0,0,1,7.372,7.372v4.794a7.372,7.372,0,0,1-7.372,7.372Z" transform="translate(-163.643 -146.145)" fill="#453d49"/>
        <path id="Trazado_133720" data-name="Trazado 133720" d="M186.167,152.365H177.4L170.759,169.9h8.765Z" transform="translate(-166.125 -150.263)" fill="#fff"/>
        <path id="Trazado_133721" data-name="Trazado 133721" d="M219.92,151.938h-3.229l-6.643,17.539h3.229Z" transform="translate(-194.196 -149.958)" fill="#fff"/>
        <path id="Trazado_133722" data-name="Trazado 133722" d="M209.845,145H168.907a5.717,5.717,0,0,0-5.717,5.717v10.066a5.717,5.717,0,0,0,5.717,5.717h40.938a5.717,5.717,0,0,0,5.717-5.717V150.719A5.716,5.716,0,0,0,209.845,145Zm2.4,15.783a2.4,2.4,0,0,1-2.4,2.4H194.259a1.855,1.855,0,0,1-1.829-1.546,1.855,1.855,0,0,0-1.829-1.546h-2.2a1.855,1.855,0,0,0-1.829,1.546,1.855,1.855,0,0,1-1.829,1.546H168.907a2.4,2.4,0,0,1-2.4-2.4V150.719a2.4,2.4,0,0,1,2.4-2.4h40.938a2.4,2.4,0,0,1,2.4,2.4Z" transform="translate(-160.717 -145.002)" fill="#b4d7dc"/>
      </g>
    </g>
  </g>
</svg>
