<svg xmlns="http://www.w3.org/2000/svg" width="63" height="60" viewBox="0 0 63 60">
  <g id="Grupo_79487" data-name="Grupo 79487" transform="translate(-297.303 -7907)">
    <g id="Grupo_71691" data-name="Grupo 71691" transform="translate(297.802 7906.647)">
      <g id="Grupo_71690" data-name="Grupo 71690" transform="translate(6.661 5.264)">
        <path id="Trazado_105952" data-name="Trazado 105952" d="M223.166,92.85c.217-.465.617-.531,1.076-.53q5.281.01,10.563,0h.587V90.689c-.718,0-1.43,0-2.141,0-.319,0-.637,0-.956-.014a.7.7,0,0,1-.023-1.392c.763-.037,1.528-.022,2.292-.028.267,0,.534,0,.827,0V87.621h-.466c-1.8,0-3.6.008-5.4-.007a.6.6,0,0,0-.621.373,2.2,2.2,0,0,1-2.517,1.1,2.243,2.243,0,0,1-.034-4.336,2.2,2.2,0,0,1,2.533,1.058.638.638,0,0,0,.662.389c1.784-.014,3.569-.006,5.353-.008.155,0,.31-.014.519-.024,0-.466-.013-.909,0-1.349a6.662,6.662,0,0,1,.107-1.044.711.711,0,1,1,1.409.185q-.049,8.648-.083,17.3a2.356,2.356,0,0,0,1.67,2.449,3.458,3.458,0,0,0,.942.124q8.149.01,16.3,0c.3,0,.6-.058.9-.075.5-.029.816.2.866.614a.716.716,0,0,1-.7.8c-.615.068-1.238.068-1.858.1l-.448.02c0,.833-.043,1.643.022,2.444a1.567,1.567,0,0,0,.47.855c1.459,1.492,2.951,2.953,4.411,4.443.227.231.4.15.636.087a2.237,2.237,0,1,1,1.187,4.314,2.183,2.183,0,0,1-2.731-1.591,2.827,2.827,0,0,1,.026-1.216.6.6,0,0,0-.182-.657c-1.406-1.388-2.786-2.8-4.2-4.181a3.388,3.388,0,0,1-1.107-2.687c.024-.586,0-1.173,0-1.794h-1.634c0,.892,0,1.764,0,2.636,0,.779-.223,1.136-.71,1.145s-.723-.351-.724-1.122c0-.874,0-1.748,0-2.658h-1.635v.624q0,5.21,0,10.42a3.619,3.619,0,0,1-.034.571.644.644,0,0,1-.7.585.635.635,0,0,1-.663-.569,3.833,3.833,0,0,1-.037-.618q0-5.186,0-10.372v-.645h-1.635c0,.195,0,.393,0,.591,0,.8.009,1.593-.006,2.389a.714.714,0,1,1-1.418.008c-.022-.8-.009-1.593-.009-2.389,0-.188,0-.377,0-.6h-1.633v1.114c0,1.577.007,3.155-.006,4.732a.6.6,0,0,0,.357.63,2.2,2.2,0,0,1,1.115,2.509,2.243,2.243,0,0,1-4.336.064,2.206,2.206,0,0,1,1.08-2.565.571.571,0,0,0,.362-.58c-.014-1.832-.006-3.664-.008-5.5,0-.125-.013-.25-.026-.475-.61,0-1.21.028-1.807,0a3.791,3.791,0,0,1-3.533-3.958c0-.429,0-.858,0-1.3-.892,0-1.76-.037-2.621.022a1.432,1.432,0,0,0-.748.473q-2.2,2.164-4.356,4.363a.641.641,0,0,0-.147.518,2.262,2.262,0,0,1-1.418,2.851,2.239,2.239,0,0,1-2.859-1.467,1.881,1.881,0,0,0-.1-.206v-.956a.727.727,0,0,0,.1-.145,2.254,2.254,0,0,1,2.9-1.473.642.642,0,0,0,.51-.167c1.352-1.328,2.718-2.644,4.019-4.022a3.762,3.762,0,0,1,3.184-1.3c.5.038,1,.006,1.507.006V96.828h-.544c-.78,0-1.561.008-2.341,0-.569-.009-.9-.28-.9-.712s.324-.7.887-.717c.366-.009.732,0,1.1,0h1.8V93.759H234.8q-5.28,0-10.56,0c-.459,0-.859-.065-1.075-.53Zm2.241,12.42a.816.816,0,0,0-.8.784.807.807,0,1,0,1.615.03A.811.811,0,0,0,225.407,105.27Zm35.268,9.189a.808.808,0,0,0-.013,1.616.808.808,0,1,0,.013-1.616ZM226.935,87.707a.8.8,0,0,0,.818-.807.82.82,0,0,0-.791-.795.829.829,0,0,0-.822.815A.81.81,0,0,0,226.935,87.707Zm15.37,26.019a.8.8,0,0,0-.78-.8.819.819,0,0,0-.824.811.835.835,0,0,0,.789.8A.809.809,0,0,0,242.305,113.726Z" transform="translate(-223.166 -68.568)" fill="#fb8c00"/>
        <path id="Trazado_105953" data-name="Trazado 105953" d="M261.332,47.181a1.019,1.019,0,0,1,.53,1.075q-.012,5.282,0,10.563v.586h1.635c0-.718,0-1.429,0-2.141,0-.319,0-.637.014-.955a.7.7,0,0,1,1.392-.024c.037.763.023,1.529.028,2.293,0,.266,0,.533,0,.826h1.633V58.94c0-1.8-.008-3.6.008-5.4a.6.6,0,0,0-.373-.621,2.2,2.2,0,0,1-1.1-2.517,2.242,2.242,0,0,1,4.335-.035,2.2,2.2,0,0,1-1.057,2.532.638.638,0,0,0-.389.662c.014,1.784.006,3.569.008,5.353,0,.156.013.311.023.522,1.525-.039,3.029-.068,4.212,1.109s1.174,2.68,1.122,4.21c.881,0,1.72.041,2.552-.023a1.5,1.5,0,0,0,.8-.477c1.477-1.451,2.932-2.926,4.4-4.383a.489.489,0,0,0,.124-.585,2.21,2.21,0,0,1,1-2.6,2.244,2.244,0,0,1,3.057,3.088,2.2,2.2,0,0,1-2.606.965.512.512,0,0,0-.612.182c-1.393,1.4-2.805,2.783-4.185,4.2a3.391,3.391,0,0,1-2.684,1.115c-.586-.024-1.174,0-1.8,0v1.633c.863,0,1.718,0,2.573,0a4.029,4.029,0,0,1,.618.039.639.639,0,0,1,.574.706.627.627,0,0,1-.624.662c-.748.026-1.5.02-2.245.025-.3,0-.6,0-.911,0v1.635h.58q5.233,0,10.467,0c.222,0,.5-.046.653.064.219.154.485.434.483.658s-.273.5-.494.648c-.159.108-.432.061-.654.062q-5.186,0-10.372,0H273.4v1.635h2.442c.207,0,.415-.007.621.011a.717.717,0,0,1,.717.688.7.7,0,0,1-.691.712c-.747.034-1.5.019-2.245.023-.269,0-.539,0-.844,0v1.606c.153.01.293.026.432.026,1.816,0,3.633,0,5.449.007a.561.561,0,0,0,.587-.35,2.2,2.2,0,0,1,2.5-1.126,2.243,2.243,0,0,1,.082,4.336,2.2,2.2,0,0,1-2.569-1.069.605.605,0,0,0-.624-.37c-1.942.015-3.884.007-5.9.007,0,.423.013.815,0,1.205a9.526,9.526,0,0,1-.1,1.188.721.721,0,0,1-.8.651.729.729,0,0,1-.61-.83q.044-8.672.078-17.345a2.361,2.361,0,0,0-2.532-2.507q-8.245-.013-16.49,0c-.269,0-.537.061-.807.075a.712.712,0,1,1-.171-1.409c.646-.073,1.3-.073,1.952-.1l.341-.015c0-.877.037-1.745-.023-2.605a1.429,1.429,0,0,0-.473-.748q-2.163-2.2-4.362-4.358a.641.641,0,0,0-.519-.148,2.245,2.245,0,1,1-1.337-4.285.931.931,0,0,0,.158-.092h.86a.63.63,0,0,0,.122.073,2.243,2.243,0,0,1,1.593,2.947.645.645,0,0,0,.177.505q2.111,2.144,4.251,4.259a3.3,3.3,0,0,1,1.059,2.56c-.019.616,0,1.234,0,1.874h1.633c0-.221,0-.41,0-.6,0-.8-.013-1.593.009-2.388a.714.714,0,1,1,1.419,0c.017.7.006,1.4.006,2.1q0,.442,0,.884h1.635V58.81q0-5.278,0-10.555a1.02,1.02,0,0,1,.531-1.074Zm-13.2,3.056a.809.809,0,0,0,.78-.848.818.818,0,0,0-.816-.768.853.853,0,0,0-.795.8A.835.835,0,0,0,248.131,50.237Zm36.042,8.405a.808.808,0,1,0-1.615-.03.808.808,0,0,0,1.615.03Zm-16.921-6.874a.82.82,0,0,0,.827-.808.838.838,0,0,0-.787-.805.807.807,0,0,0-.04,1.613ZM282.641,77.78a.807.807,0,0,0-1.613.013.815.815,0,0,0,.834.8A.828.828,0,0,0,282.641,77.78Z" transform="translate(-236.667 -47.181)" fill="#fb8c00"/>
        <path id="Trazado_105954" data-name="Trazado 105954" d="M272.4,102.5a3.623,3.623,0,0,1-2.346,1.116,3.206,3.206,0,0,1-3.522-2.705.669.669,0,0,0-.24-.429,3.571,3.571,0,0,1-.907-4.886.448.448,0,0,0-.006-.408,3.269,3.269,0,0,1,1.715-4.977c.1-.039.2-.083.325-.134a2.526,2.526,0,0,1,1.48-2.865,2.946,2.946,0,0,1,3.351.426,11.264,11.264,0,0,1,2.006-.7,2.662,2.662,0,0,1,3.116,2.881c-.052.3.154.323.346.4a3.339,3.339,0,0,1,2.264,2.924,2.885,2.885,0,0,1-.7,2.164c-.195.229-.238.378-.025.639a3.119,3.119,0,0,1-.518,4.525,1.438,1.438,0,0,0-.57.865,3.251,3.251,0,0,1-3.354,2.286A3.6,3.6,0,0,1,272.4,102.5Zm5.537-3.231a1.743,1.743,0,0,0-.311-2.878c-.721-.5-.732-.991-.012-1.478a1.782,1.782,0,0,0,.919-1.8,1.93,1.93,0,0,0-1.415-1.583,2.954,2.954,0,0,0-1.919.058.7.7,0,0,1-.887-.439.7.7,0,0,1,.435-.894,3.927,3.927,0,0,1,.636-.2c.632-.152.8-.637.369-1.168a1.463,1.463,0,0,0-1.587-.512,1.239,1.239,0,0,0-1.05,1.089c-.051.42-.235.738-.712.744-.506.006-.689-.332-.739-.768a1.179,1.179,0,0,0-.712-.945,1.621,1.621,0,0,0-1.819.261c-.395.385-.4.8-.03,1.512a.708.708,0,0,1-.54,1.1,5.209,5.209,0,0,0-1.319.365,1.713,1.713,0,0,0-.642,2.638c.436-.154.86-.332,1.3-.451a.587.587,0,0,1,.783.364,1.2,1.2,0,0,1-.118.784c-.075.147-.337.219-.529.28a2.713,2.713,0,0,0-1.476,1.074,1.976,1.976,0,0,0,.4,2.658,3.476,3.476,0,0,1,.336-.389c.127-.111.3-.279.426-.26a1.31,1.31,0,0,1,.731.3.617.617,0,0,1-.077.866,1.437,1.437,0,0,0-.362,1.455,1.869,1.869,0,0,0,1.959,1.137,1.666,1.666,0,0,0,1.681-1.516,15.446,15.446,0,0,0-.009-1.67,1.463,1.463,0,0,0-.853-1.237c-.139-.077-.291-.131-.428-.211a.7.7,0,0,1-.331-.932.685.685,0,0,1,.884-.364c.237.073.462.18.756.3v-.526c0-1.083-.007-2.167,0-3.25.006-.537.277-.851.694-.862.434-.012.713.315.734.872.008.215,0,.43,0,.708a3.162,3.162,0,0,1,.472-.195,10.672,10.672,0,0,1,1.443-.26.6.6,0,0,1,.646.628.645.645,0,0,1-.537.733,3.693,3.693,0,0,1-.376.065,1.674,1.674,0,0,0-1.645,1.847q-.008,2.007,0,4.015a1.729,1.729,0,0,0,1.785,1.869,1.671,1.671,0,0,0,1.89-1.893,1.754,1.754,0,0,0-1.157-1.173.711.711,0,0,1-.43-.973.746.746,0,0,1,1.018-.323A3.41,3.41,0,0,1,277.935,99.269Z" transform="translate(-247.916 -70.789)" fill="#fb8c00"/>
      </g>
      <rect id="Rectángulo_32114" data-name="Rectángulo 32114" width="63" height="60" transform="translate(-0.499 0.352)" fill="none"/>
    </g>
  </g>
</svg>
