<svg xmlns="http://www.w3.org/2000/svg" width="62" height="60" viewBox="0 0 62 60">
  <g id="Grupo_79488" data-name="Grupo 79488" transform="translate(-613.303 -7906)">
    <g id="Grupo_78805" data-name="Grupo 78805" transform="translate(613.313 7905.796)">
      <rect id="Rectángulo_32116" data-name="Rectángulo 32116" width="62" height="60" transform="translate(-0.01 0.204)" fill="none"/>
      <g id="Grupo_71693" data-name="Grupo 71693" transform="translate(1.967 6.574)">
        <path id="Trazado_105966" data-name="Trazado 105966" d="M602.784,80.65a5.573,5.573,0,0,1-2.1,2.693.536.536,0,0,0-.189.7,3.267,3.267,0,0,1-3.193,4.466c-2.751.01-5.5,0-8.254,0h-.657c.084.425.187.8.229,1.182a5.818,5.818,0,0,1-.314,2.65.806.806,0,0,0,.087.638,5.423,5.423,0,0,1-2.476,8.316.935.935,0,0,0-.454.526,3.356,3.356,0,0,1-2.009,2.2.844.844,0,1,1-.667-1.541,1.626,1.626,0,0,0,.873-2.358,9.58,9.58,0,0,0-3.448-4.188.707.707,0,0,0-.76-.088,14.5,14.5,0,0,1-10.89,0,.814.814,0,0,0-.644.075,9.233,9.233,0,0,0-3.466,4.095c-.645,1.48.045,2.543,1.651,2.544q6.232.005,12.465,0a2.584,2.584,0,0,1,.613.034.83.83,0,0,1-.089,1.637,3.5,3.5,0,0,1-.449.013q-6.261,0-12.522,0a3.317,3.317,0,0,1-3.549-2.566.734.734,0,0,0-.4-.376,5.409,5.409,0,0,1-2.479-8.34c.086-.125.193-.329.148-.436a5.792,5.792,0,0,1-.137-4.014h-.655q-2.807,0-5.615,0c-.688,0-1.088-.328-1.07-.863.016-.513.4-.818,1.065-.819q3.285-.006,6.57,0h.7a11.878,11.878,0,0,1,.217-5.705c-1.058,0-2.064.031-3.066-.007a13.843,13.843,0,0,1-4.414-.982.878.878,0,0,0-.693.066,9.224,9.224,0,0,0-3.46,4.1,1.659,1.659,0,0,0,.442,2.26.847.847,0,0,1,.146,1.2.859.859,0,0,1-1.251.068A3.3,3.3,0,0,1,547.585,84a10.982,10.982,0,0,1,3.258-4.494c.143-.119.287-.237.493-.407-.185-.131-.342-.244-.5-.355a12.051,12.051,0,0,1-5.312-7.822,11.535,11.535,0,0,1,4.111-11.4A14.265,14.265,0,0,1,570,61.505a11.455,11.455,0,0,1,2.1,10.021c-.033.14-.062.282-.091.415h4.038c-.106-.569-.254-1.158-.321-1.756a11.731,11.731,0,0,1,4.82-11.14,14.278,14.278,0,0,1,19.8,2.468,11.552,11.552,0,0,1,2.348,5.685,1.757,1.757,0,0,0,.1.312v2.246c-.128.619-.232,1.245-.389,1.857a12.19,12.19,0,0,1-2.477,4.732,14.824,14.824,0,0,0,1.322,1.236,3.92,3.92,0,0,1,1.543,2.059ZM569.509,63.8c-.424.148-.789.293-1.164.4a14.156,14.156,0,0,1-11.692-1.146,1.485,1.485,0,0,0-1.49-.018,12.881,12.881,0,0,1-6.938,1.424c-.341-.041-.406.166-.5.4a9.724,9.724,0,0,0-.369,6.537c1.676,5.793,8.092,9.07,14.025,7.827a.768.768,0,0,0,.45-.345,13.379,13.379,0,0,1,7.828-6.338.807.807,0,0,0,.463-.406A9.854,9.854,0,0,0,569.509,63.8Zm16.32,19.159a.609.609,0,0,0-.151-.06,6.756,6.756,0,0,1-5.343-2.525.663.663,0,0,0-.527-.157,7.68,7.68,0,0,1-5.355-1.2.686.686,0,0,0-.848.005,7.735,7.735,0,0,1-5.357,1.2.769.769,0,0,0-.592.249,5.86,5.86,0,0,1-2.507,1.84c-.918.329-1.891.507-2.929.775a9.494,9.494,0,0,0,1.517,6.707,11.607,11.607,0,0,0,9.376,5.371A11.9,11.9,0,0,0,583.75,90.61,9.691,9.691,0,0,0,585.829,82.962Zm-2.974-18.873c-1.6.491-3.122.975-4.659,1.421a.708.708,0,0,0-.565.578,10.066,10.066,0,0,0,.215,5.853.924.924,0,0,0,.668.651,12.416,12.416,0,0,1,7.033,5.264,3.028,3.028,0,0,0,2.8,1.612,12.182,12.182,0,0,0,10.431-4.424,9.654,9.654,0,0,0,1.965-8.948.8.8,0,0,0-.391-.512c-1.588-.518-3.189-1-4.8-1.49-.573,1.38-1.165,1.869-2.459,1.875-2.6.013-5.2,0-7.8.005A2.341,2.341,0,0,1,583.04,64.6,3.586,3.586,0,0,1,582.856,64.089Zm16.712-.321.089-.189a12,12,0,0,0-11.53-5.7c-4.036.335-8.669,3.218-9.406,5.947,1.323-.586,2.552-1.071,3.724-1.668,1.1-.559,2.023-.087,2.056,1.142.023.822.183.988,1,.989q3.706,0,7.412,0c.782,0,.965-.184.984-.945.032-1.3.942-1.752,2.114-1.148C597.158,62.789,598.378,63.249,599.567,63.768ZM585.362,81.219c-1.08-3.706-5.5-8.01-12.191-7.632-4.757.269-10.01,4.091-10.423,7.629a4.8,4.8,0,0,0,3.619-1.871,1.8,1.8,0,0,1,1.973-.83,5.811,5.811,0,0,0,4.476-.994,1.94,1.94,0,0,1,2.419-.009,5.854,5.854,0,0,0,4.529,1,1.8,1.8,0,0,1,1.958.865A4.81,4.81,0,0,0,585.362,81.219Zm2.013,5.582c.183.013.311.03.439.03q4.745,0,9.489,0a1.6,1.6,0,0,0,1.556-2.341,9.536,9.536,0,0,0-3.493-4.288.7.7,0,0,0-.763-.072,12.742,12.742,0,0,1-4.353.989c-1.018.039-2.038.007-3.107.007A11.706,11.706,0,0,1,587.375,86.8Zm-18.8-24.429a12.4,12.4,0,0,0-10.865-4.482c-4.162.307-7.626,2.855-8.758,4.956.256,0,.495.012.733,0a11.723,11.723,0,0,0,4.518-1.221,3.619,3.619,0,0,1,3.66.176C561.273,63.7,564.83,63.6,568.579,62.372Zm-2.154,32.389a13.113,13.113,0,0,1-5.059-5.814,3.681,3.681,0,0,0,.012,2.843,1.859,1.859,0,0,1-.271,2.131,3.56,3.56,0,0,0-.776,2.781,3.49,3.49,0,0,0,2.345,2.924,29.087,29.087,0,0,1,1.6-2.568C564.9,96.25,565.671,95.556,566.425,94.761ZM585.3,99.669a3.637,3.637,0,0,0,1.76-5.593,2.172,2.172,0,0,1-.327-2.429,3.3,3.3,0,0,0-.052-2.673,13.212,13.212,0,0,1-5.134,5.856A11.341,11.341,0,0,1,585.3,99.669Zm11.538-20.632,2.9,3.11c.332-.387.7-.809,1.06-1.237a1.035,1.035,0,0,0,.016-1.469c-.668-.638-1.383-1.225-2.074-1.83Z" transform="translate(-545.289 -56.139)" fill="#fb8c00"/>
        <path id="Trazado_105967" data-name="Trazado 105967" d="M572.838,88.768a3.211,3.211,0,0,1-2.246-1.034.834.834,0,0,1-.051-1.245.849.849,0,0,1,1.208.027,1.6,1.6,0,0,0,2.469-.013.846.846,0,0,1,1.208,0,.834.834,0,0,1-.038,1.206A3.429,3.429,0,0,1,572.838,88.768Z" transform="translate(-559.397 -73.133)" fill="#fb8c00"/>
        <path id="Trazado_105968" data-name="Trazado 105968" d="M560.087,84.795c0,.224.016.449,0,.672a.83.83,0,0,1-.836.81.794.794,0,0,1-.824-.759,8.652,8.652,0,0,1,0-1.509.763.763,0,0,1,.826-.743.779.779,0,0,1,.825.747,5.862,5.862,0,0,1,.006.783Z" transform="translate(-552.684 -71.448)" fill="#fb8c00"/>
        <path id="Trazado_105969" data-name="Trazado 105969" d="M590.639,84.719a6.393,6.393,0,0,1,0-.671.782.782,0,0,1,.792-.782.756.756,0,0,1,.857.706,7.588,7.588,0,0,1,0,1.564.769.769,0,0,1-.84.734.785.785,0,0,1-.812-.768C590.617,85.244,590.639,84.981,590.639,84.719Z" transform="translate(-570.879 -71.448)" fill="#fb8c00"/>
        <path id="Trazado_105970" data-name="Trazado 105970" d="M607.769,124.89a3.263,3.263,0,0,1-2.388-1.054.82.82,0,0,1-.049-1.2.848.848,0,0,1,1.206-.011c.981.8,1.5.8,2.511-.016a.856.856,0,0,1,1.167,0,.815.815,0,0,1-.005,1.2A3.26,3.26,0,0,1,607.769,124.89Z" transform="translate(-579.041 -93.522)" fill="#fb8c00"/>
        <path id="Trazado_105971" data-name="Trazado 105971" d="M594.889,120.863a6.081,6.081,0,0,1-.006.783.78.78,0,0,1-.784.735.764.764,0,0,1-.859-.709,7.727,7.727,0,0,1,0-1.564.76.76,0,0,1,.836-.733.782.782,0,0,1,.815.761,5.953,5.953,0,0,1,.005.727Z" transform="translate(-572.328 -91.828)" fill="#fb8c00"/>
        <path id="Trazado_105972" data-name="Trazado 105972" d="M627.115,120.9c0,.224.017.45,0,.672a.851.851,0,0,1-.842.811.833.833,0,0,1-.826-.82,13.63,13.63,0,0,1,0-1.4.818.818,0,0,1,.836-.8.834.834,0,0,1,.833.812C627.132,120.415,627.115,120.659,627.115,120.9Z" transform="translate(-590.516 -91.821)" fill="#fb8c00"/>
        <path id="Trazado_105973" data-name="Trazado 105973" d="M642.436,88.765a3.22,3.22,0,0,1-2.2-1.012.837.837,0,0,1-.092-1.244.852.852,0,0,1,1.247.024,1.594,1.594,0,0,0,2.429-.011.843.843,0,1,1,1.173,1.2A3.43,3.43,0,0,1,642.436,88.765Z" transform="translate(-598.688 -73.132)" fill="#fb8c00"/>
        <path id="Trazado_105974" data-name="Trazado 105974" d="M629.7,84.764c0,.243.019.487,0,.727a.787.787,0,0,1-.8.778.764.764,0,0,1-.849-.721,7.666,7.666,0,0,1,0-1.564.757.757,0,0,1,.848-.718.78.78,0,0,1,.8.771A6.637,6.637,0,0,1,629.7,84.764Z" transform="translate(-591.973 -71.448)" fill="#fb8c00"/>
        <path id="Trazado_105975" data-name="Trazado 105975" d="M661.916,84.758a7.245,7.245,0,0,1,0,.727.83.83,0,0,1-.859.787.8.8,0,0,1-.8-.779,10.593,10.593,0,0,1,0-1.455.776.776,0,0,1,.8-.778.811.811,0,0,1,.865.77A7.2,7.2,0,0,1,661.916,84.758Z" transform="translate(-610.156 -71.445)" fill="#fb8c00"/>
      </g>
    </g>
  </g>
</svg>
