<svg xmlns="http://www.w3.org/2000/svg" xmlns:xlink="http://www.w3.org/1999/xlink" width="400" height="250" viewBox="0 0 400 250">
  <defs>
    <clipPath id="clip-path">
      <rect id="Rectángulo_34136" data-name="Rectángulo 34136" width="400" height="250" fill="#fb8c00"/>
    </clipPath>
  </defs>
  <g id="Enmascarar_grupo_138" data-name="Enmascarar grupo 138" clip-path="url(#clip-path)">
    <g id="Grupo_78792" data-name="Grupo 78792" transform="translate(32 18.596)">
      <g id="Grupo_78776" data-name="Grupo 78776" transform="translate(155.328 8.37)">
        <path id="Trazado_133251" data-name="Trazado 133251" d="M92.208,279.811l164.05-1.6V111.486H92.208Z" transform="translate(-92.208 -111.486)" fill="#fff"/>
        <g id="Grupo_78794" data-name="Grupo 78794" transform="translate(-59.011 -137.496)">
          <path id="Trazado_133298" data-name="Trazado 133298" d="M69.316,288.28c-1.124,2.278-3.812,5.084-10.179,6.619a42.4,42.4,0,0,1-7.739,1.049v.069c-.58,0-1.144-.006-1.695-.014-.55.008-1.112.014-1.692.014v-.069c-10-.57-14.5-3.824-16.517-6.679a9.959,9.959,0,0,1-.617-1,7.781,7.781,0,0,1-1.025-3.534V245.612c0-11.544.767-18.471,3.075-23.857,1.392-3.247,4.468-11.334,6.691-17.24,1.455-3.882,2.545-6.824,2.545-6.824v-6.336l.67,0h.147l4.15-.038.881,0v-.032l1.692.016,1.695-.016v.032l.447,0,5.4.043v6.336s1.264,3.4,2.891,7.726c2.183,5.8,5.023,13.251,6.345,16.338,2.309,5.386,3.077,12.313,3.077,23.857s.536,39.125.536,39.125A6.778,6.778,0,0,1,69.316,288.28Z" fill="#99573a"/>
          <path id="Trazado_133299" data-name="Trazado 133299" d="M69.316,288.28c-1.124,2.278-3.812,5.084-10.179,6.619a42.4,42.4,0,0,1-7.739,1.049v.069c-.58,0-1.144-.006-1.695-.014-.55.008-1.112.014-1.692.014v-.069c-10-.57-14.5-3.824-16.517-6.679a9.959,9.959,0,0,1-.617-1,7.781,7.781,0,0,1-1.025-3.534V245.612c0-11.544.767-18.471,3.075-23.857,1.332-3.1,4.2-10.629,6.39-16.445.1-.268.2-.532.3-.795l20.518.9c.2.532.4,1.074.61,1.626,2.079,5.5,4.53,11.911,5.735,14.712,2.309,5.386,3.077,12.313,3.077,23.857s.536,39.125.536,39.125A6.778,6.778,0,0,1,69.316,288.28Z" fill="#4a5622" opacity="0.33" style="mix-blend-mode: multiply;isolation: isolate"/>
          <path id="Trazado_133300" data-name="Trazado 133300" d="M40.867,222.154c-2.856.918-6.621,5.727-7.515,11.1a54.563,54.563,0,0,0,32.929-1.433s-2.325-6.98-5.726-8.947C56.13,220.307,45.88,220.542,40.867,222.154Z" fill="#a05c44" opacity="0.24" style="mix-blend-mode: screen;isolation: isolate"/>
          <path id="Trazado_133301" data-name="Trazado 133301" d="M59.137,294.9c2.335-17.255,2.995-61.776,2.995-61.776L52.5,198.168l-.654-6.856,5.4.043v6.336s6.928,18.681,9.236,24.064,3.077,12.313,3.077,23.857.536,39.125.536,39.125S71.017,292.038,59.137,294.9Z" fill="#99573a" opacity="0.29" style="mix-blend-mode: multiply;isolation: isolate"/>
          <path id="Trazado_133302" data-name="Trazado 133302" d="M42.833,191.35v9.96S32.1,221.256,31.558,232.891c-.418,9.027-.187,42.018-.064,56.378a8.259,8.259,0,0,1-1.642-4.532V245.612c0-11.544.767-18.471,3.075-23.857s9.236-24.064,9.236-24.064v-6.336Z" fill="#99573a" opacity="0.35" style="mix-blend-mode: multiply;isolation: isolate"/>
          <path id="Trazado_133303" data-name="Trazado 133303" d="M69.316,288.28c-1.124,2.278-3.812,5.084-10.179,6.619a42.4,42.4,0,0,1-7.739,1.049v.069c-.58,0-1.144-.006-1.695-.014-.55.008-1.112.014-1.692.014v-.069c-10-.57-14.5-3.824-16.517-6.679a9.959,9.959,0,0,1-.617-1c4.161-1.53,11.04-3.122,21.622-3.122C60.549,285.149,65.847,286.569,69.316,288.28Z" fill="#99573a" opacity="0.35" style="mix-blend-mode: multiply;isolation: isolate"/>
          <path id="Trazado_133304" data-name="Trazado 133304" d="M47.13,198.528s-1.253,28.635,0,34.542v60.714s-7.556,2.281-14.6-6.074V231.641s4.988-16.107,7.3-22.551,3.9-7.78,3.9-7.78l-.751-9.96,4.15-.038Z" fill="#99573a" opacity="0.17" style="mix-blend-mode: multiply;isolation: isolate"/>
          <path id="Trazado_133305" data-name="Trazado 133305" d="M39.83,234.607c-.779.369,10.7,2.759,26.451-2.789C66.281,231.818,51.322,229.164,39.83,234.607Z" fill="#99573a" opacity="0.22" style="mix-blend-mode: screen;isolation: isolate"/>
          <path id="Trazado_133306" data-name="Trazado 133306" d="M57.245,191.355v5.091l-15.082-1.381v-3.71l.67,0h.146l4.15-.038.881,0v-.032l1.692.016,1.7-.016v.032l.446,0Z" fill="#99573a" opacity="0.29" style="mix-blend-mode: multiply;isolation: isolate"/>
          <g id="Grupo_78793" data-name="Grupo 78793">
            <path id="Trazado_133307" data-name="Trazado 133307" d="M58.588,192.981h-17.5s-2.054-4.295,7.835-4.295c.316,0,.629.006.924.012C59.894,188.928,58.588,192.981,58.588,192.981Z" fill="#4a5622"/>
            <path id="Trazado_133308" data-name="Trazado 133308" d="M58.588,192.981H49.6a28.681,28.681,0,0,1,.247-4.283C59.894,188.928,58.588,192.981,58.588,192.981Z" fill="#4a5622" opacity="0.32" style="mix-blend-mode: multiply;isolation: isolate"/>
          </g>
          <path id="Trazado_133309" data-name="Trazado 133309" d="M60.746,207.043c-7.394,1.472-17.707.147-21.429-1.733.1-.268.2-.532.3-.795l20.518.9C60.333,205.949,60.539,206.491,60.746,207.043Z" fill="#4a5622" opacity="0.33" style="mix-blend-mode: multiply;isolation: isolate"/>
          <path id="Trazado_133310" data-name="Trazado 133310" d="M50.89,199.96l4.3,26.132H52.643L48.922,199.96Z" fill="#99573a" opacity="0.38" style="mix-blend-mode: screen;isolation: isolate"/>
          <path id="Trazado_133311" data-name="Trazado 133311" d="M50.1,236.831h5.091v56.555l-3.343.684Z" fill="#99573a" opacity="0.38" style="mix-blend-mode: screen;isolation: isolate"/>
        </g>
      </g>
      <path id="Trazado_133263" data-name="Trazado 133263" d="M218.414,417.111l1.664.231c-.261-2.766-.671-5.82-1.269-9.227l.008,0a31.934,31.934,0,0,1-1.2-9.722l.1-3.4c-.392-9.775.62-21.421.7-34.283a9.743,9.743,0,0,1,.359-2.764l.979-34.347c.153-7.828,4.153-10.8,9.414-13.909.035-.028.065-.059.1-.087,0,0,13.521-8.913,29.15-21.86V145.41a9.939,9.939,0,0,1,9.939-9.939h76.668a9.939,9.939,0,0,1,9.939,9.939V309.879a9.939,9.939,0,0,1-9.939,9.939H320.032c.48,1.657-.308,3.427-2.208,5.995a10.315,10.315,0,0,1-14.127,2.365l-.674,1.509-.457,1.58,5.438,8.3c3.654,4.044,3.408,5.987-.637,9.642a9.852,9.852,0,0,1-9.241,2.184l2.859,5.217c2.884,3.744,2.538,5.407-1.206,8.29a8.514,8.514,0,0,1-5.806,1.749c-.933,5.264-1.969,11.609-3.06,19.15a44.731,44.731,0,0,1-13.158,26.368l.021.006a86.89,86.89,0,0,0-7.846,12.12l.2.028.9,17.9H209.327Z" transform="translate(-155.976 -93.865)" fill="#010202" opacity="0.2"/>
      <g id="Grupo_78791" data-name="Grupo 78791" transform="translate(0)">
        <g id="Grupo_78787" data-name="Grupo 78787" transform="translate(8.434)">
          <path id="Trazado_133264" data-name="Trazado 133264" d="M320.385,313.7a11.723,11.723,0,0,1-16.4,2.452l-14.949-11.06a11.724,11.724,0,0,1-2.451-16.4h0a11.723,11.723,0,0,1,16.4-2.451l15.878,16.081c5.2,3.851,5.373,6.172,1.521,11.376Z" transform="translate(-205.605 -97.537)" fill="#edc48c"/>
          <path id="Trazado_133265" data-name="Trazado 133265" d="M285.709,290.647a11.722,11.722,0,0,0,4.174,13.034l14.948,11.059a11.723,11.723,0,0,0,16.4-2.451,21.732,21.732,0,0,0,1.82-2.823,14.57,14.57,0,0,1-2.461,4.395,11.723,11.723,0,0,1-16.4,2.452l-14.949-11.061A11.721,11.721,0,0,1,285.709,290.647Z" transform="translate(-205.807 -97.703)" fill="#dfa871"/>
          <g id="Grupo_78777" data-name="Grupo 78777" transform="translate(69.235 230.912)">
            <path id="Trazado_133266" data-name="Trazado 133266" d="M329.45,359.21a9.717,9.717,0,0,1-13.628-1.77l-9.4-12.213a9.717,9.717,0,0,1,1.77-13.628h0a9.717,9.717,0,0,1,13.628,1.77l9.006,16.427c3.274,4.252,2.881,6.14-1.371,9.414Z" transform="translate(-304.398 -329.579)" fill="#edc48c"/>
            <path id="Trazado_133267" data-name="Trazado 133267" d="M306.915,333.208a9.7,9.7,0,0,0,.882,10.443l9.4,12.213a9.717,9.717,0,0,0,13.628,1.77A16.772,16.772,0,0,0,333,355.691a9.509,9.509,0,0,1-3.268,3.608,9.717,9.717,0,0,1-13.628-1.77l-9.4-12.213A9.708,9.708,0,0,1,306.915,333.208Z" transform="translate(-304.677 -329.669)" fill="#dfa871"/>
          </g>
          <path id="Trazado_133268" data-name="Trazado 133268" d="M326.1,340.862a11.209,11.209,0,0,1-15.83-.8l-11.921-13.191a11.209,11.209,0,0,1,.8-15.83h0a11.208,11.208,0,0,1,15.831.8l11.843,18.073c4.151,4.594,3.87,6.8-.724,10.95Z" transform="translate(-223.194 -98.136)" fill="#edc48c"/>
          <path id="Trazado_133269" data-name="Trazado 133269" d="M296.725,314.505a11.194,11.194,0,0,0,2.344,10.95l11.92,13.191a11.209,11.209,0,0,0,15.831.8,15.5,15.5,0,0,0,2.926-3.276c-.3,1.485-1.485,2.967-3.567,4.847a11.208,11.208,0,0,1-15.831-.8l-11.921-13.191A11.2,11.2,0,0,1,296.725,314.505Z" transform="translate(-223.274 -98.294)" fill="#dfa871"/>
          <path id="Trazado_133270" data-name="Trazado 133270" d="M305.81,308.167s41.8,4.289,45.68,4.851,25.158-24.451,15.062-32.233C349.178,267.391,305.81,308.167,305.81,308.167Z" transform="translate(-272.787 -97.393)" fill="#e5b073"/>
          <path id="Trazado_133271" data-name="Trazado 133271" d="M327.787,308.93s41.8,4.289,45.68,4.851-43.12,56.564-47.993,35.175A75.767,75.767,0,0,1,327.787,308.93Z" transform="translate(-294.765 -98.156)" fill="#edc48c"/>
          <path id="Trazado_133272" data-name="Trazado 133272" d="M276.223,395.582l2.42-84.944c.175-8.892,4.716-12.266,10.692-15.8.04-.031.074-.067.115-.1A425.491,425.491,0,0,0,327.9,265.405a13.538,13.538,0,0,1,11.721-2.872c5.815.419,19.691,1.29,33.248,1.169a11.014,11.014,0,0,1,6.849,2.322c.036.023.073.042.108.066l.109.1a11.593,11.593,0,0,1,1.382,1.316l14.879,14.16c5.321,3.688,5.561,6,1.874,11.323a11.724,11.724,0,0,1-16.313,2.96l-12.911-8.946-20.626-.792c-.018.02-.032.04-.051.06-5.987,6.8-11.669,13.2-19.556,14.98a29.073,29.073,0,0,1-8.455,14.383l.017.011c21.821,11.781,11.86,57.612,11.86,57.612,3.2,15.583-4.924,36.187-20.591,45.31C292.926,429.358,275.714,418.241,276.223,395.582Z" transform="translate(-275.237 -97)" fill="#f5daac"/>
          <path id="Trazado_133273" data-name="Trazado 133273" d="M294.594,376.7s10.427-47.976-12.416-60.308l-.017-.012a30.431,30.431,0,0,0,8.85-15.056c8.257-1.86,14.2-8.558,20.472-15.681.019-.021.034-.043.053-.064l21.591.83,13.515,9.364a12.259,12.259,0,0,0,12.243.994,11.726,11.726,0,0,1-13-.238l-12.911-8.946-20.626-.792c-.018.02-.032.04-.051.06-5.987,6.8-11.669,13.2-19.556,14.98a29.072,29.072,0,0,1-8.455,14.383l.017.011c21.821,11.781,11.86,57.612,11.86,57.612,1.7,8.288.173,17.985-3.963,26.631C295.175,392.536,296.108,384.085,294.594,376.7Z" transform="translate(-239.364 -97.578)" fill="#dfa871"/>
          <g id="Grupo_78778" data-name="Grupo 78778" transform="translate(78.86 170.281)">
            <path id="Trazado_133274" data-name="Trazado 133274" d="M318.807,296.623a12.177,12.177,0,0,1-2.467-1.3l-13.515-9.365-14.9-.572,3.656-8.183a16.391,16.391,0,0,1,21.593-8.4l.125.056a16.436,16.436,0,0,1,8.291,21.544Z" transform="translate(-287.922 -267.41)" fill="#dec29b"/>
          </g>
          <g id="Grupo_78786" data-name="Grupo 78786" transform="translate(47.315)">
            <g id="Grupo_78780" data-name="Grupo 78780" transform="translate(0 0)">
              <g id="Grupo_78779" data-name="Grupo 78779">
                <rect id="Rectángulo_34128" data-name="Rectángulo 34128" width="109.64" height="209.35" rx="11.573" fill="#010202"/>
                <path id="Trazado_133327" data-name="Trazado 133327" d="M0,0H100.478V163.485H0Z" transform="translate(4.188 23.053)" fill="#1565c0"/>
                <path id="Trazado_133275" data-name="Trazado 133275" d="M281.637,102.735A1.161,1.161,0,0,0,282.8,103.9h35.3a1.161,1.161,0,0,0,1.161-1.161h0a1.161,1.161,0,0,0-1.161-1.162H282.8a1.161,1.161,0,0,0-1.161,1.162Z" transform="translate(-246.54 -93.027)" fill="#c2cacc"/>
              </g>
            </g>
            <g id="Grupo_78785" data-name="Grupo 78785" transform="translate(4.17 55.385)">
              <g id="Grupo_78800" data-name="Grupo 78800" transform="translate(-227.16 -284.441)">
                <g id="Grupo_78798" data-name="Grupo 78798" transform="translate(342.253 236.252)">
                  <path id="Trazado_133312" data-name="Trazado 133312" d="M449.776,258.307V409.843l-6.358,6.484c-5.269,1.1-10.374,1.981-15.268,2.7-1.289.188-2.557.364-3.831.54a219.544,219.544,0,0,1-56.535.492,113.476,113.476,0,0,1-18.648-3.733l-6.883-5.976V256.815L353.17,242.2l2.855-3.816h79.453l.761,1.065Z" transform="translate(-342.253 -232.027)" fill="#004a33"/>
                  <path id="Trazado_133313" data-name="Trazado 133313" d="M449.776,246.387v148.37l-6.358,6.484c-5.269,1.1-10.374,1.981-15.268,2.7-1.289.188-2.557.364-3.831.54a219.544,219.544,0,0,1-56.535.492,113.476,113.476,0,0,1-18.648-3.733l-6.883-5.976V245.987c7.053,4.276,22.151,9.676,52.447,8.023C419.632,252.647,437.925,249.311,449.776,246.387Z" transform="translate(-342.253 -216.941)" fill="#004a33" opacity="0.27" style="mix-blend-mode: multiply;isolation: isolate"/>
                  <g id="Grupo_78795" data-name="Grupo 78795" transform="translate(0 175.304)">
                    <path id="Trazado_133314" data-name="Trazado 133314" d="M449.776,297.518v6.749s-8.31,10.091-38.135,12.824c-4.658.433-9.867.686-15.634.686a153.582,153.582,0,0,1-25.045-1.874c-22.2-3.721-28.709-11.636-28.709-11.636v-9.261s6.689,3.306,18.717,6.069a150.931,150.931,0,0,0,33.984,3.736c7.456,0,14.352-.379,20.552-.955C436.633,301.871,449.776,297.518,449.776,297.518Z" transform="translate(-342.253 -295.006)" fill="#8d8d8e"/>
                    <path id="Trazado_133315" data-name="Trazado 133315" d="M403.643,295.848V302.6s-8.31,10.091-38.134,12.824a88.418,88.418,0,0,0,3.864-13.236C390.5,300.2,403.643,295.848,403.643,295.848Z" transform="translate(-296.12 -293.336)" fill="#a5a5a5" opacity="0.41" style="mix-blend-mode: multiply;isolation: isolate"/>
                    <path id="Trazado_133316" data-name="Trazado 133316" d="M370.962,315.9c-22.2-3.721-28.709-11.636-28.709-11.636v-9.261s6.689,3.306,18.717,6.069C364.034,306.225,367.564,311.309,370.962,315.9Z" transform="translate(-342.253 -295.006)" fill="#a5a5a5" opacity="0.32" style="mix-blend-mode: multiply;isolation: isolate"/>
                  </g>
                  <path id="Trazado_133317" data-name="Trazado 133317" d="M424.319,363.176a219.544,219.544,0,0,1-56.535.492,113.476,113.476,0,0,1-18.648-3.733l-6.883-5.976V266.809Z" transform="translate(-342.253 -175.636)" fill="#e43025" opacity="0.8" style="mix-blend-mode: screen;isolation: isolate"/>
                  <path id="Trazado_133318" data-name="Trazado 133318" d="M379.227,238.382l14.3,19.925V409.843l-6.358,6.484c-5.269,1.1-10.374,1.981-15.268,2.7,3.085-43.108,8.644-159.463,8.644-159.463l-9.933-21.181Z" transform="translate(-286.001 -232.027)" fill="#004a33" opacity="0.34" style="mix-blend-mode: multiply;isolation: isolate"/>
                  <path id="Trazado_133319" data-name="Trazado 133319" d="M428.981,239.447c-15.464,2.256-53.772,6.88-83.069,2.751l2.855-3.816H428.22Z" transform="translate(-334.995 -232.027)" fill="#004a33" opacity="0.34" style="mix-blend-mode: multiply;isolation: isolate"/>
                  <path id="Trazado_133320" data-name="Trazado 133320" d="M367.784,420.059a113.476,113.476,0,0,1-18.648-3.733l-6.883-5.976V256.815l13.773-18.433H365.9l-.209.528-12.839,21.45Z" transform="translate(-342.253 -232.027)" fill="#004a33" opacity="0.34" style="mix-blend-mode: multiply;isolation: isolate"/>
                  <path id="Trazado_133321" data-name="Trazado 133321" d="M352.436,242.464s33.632,2.646,62.631,0l6.227,9s-41.846,5.827-73.094,0Z" transform="translate(-330.458 -223.929)" fill="#004a33" opacity="0.25" style="mix-blend-mode: screen;isolation: isolate"/>
                  <path id="Trazado_133322" data-name="Trazado 133322" d="M351.31,250.291a50.012,50.012,0,0,0,27.262,0V386.219s-15.825,6.49-24.592-2.512Z" transform="translate(-324.287 -208.403)" fill="#66bc9f" opacity="0.23" style="mix-blend-mode: screen;isolation: isolate"/>
                  <g id="Grupo_78797" data-name="Grupo 78797" transform="translate(10.598)">
                    <g id="Grupo_78796" data-name="Grupo 78796">
                      <path id="Trazado_133323" data-name="Trazado 133323" d="M432.132,239.433a3.12,3.12,0,0,1-3.064,3.175H348.875a3.125,3.125,0,0,1-3.07-3.175,3.367,3.367,0,0,1,.51-1.781,3.115,3.115,0,0,1,.376-.477,3.032,3.032,0,0,1,2.184-.922h80.193a3.082,3.082,0,0,1,2.8,1.862A3.226,3.226,0,0,1,432.132,239.433Z" transform="translate(-345.805 -236.252)" fill="#a5a5a5"/>
                      <path id="Trazado_133324" data-name="Trazado 133324" d="M396.156,239.433a3.121,3.121,0,0,1-3.064,3.175H363.941l3.118-6.355h26.033A3.114,3.114,0,0,1,396.156,239.433Z" transform="translate(-309.829 -236.252)" fill="#a5a5a5" opacity="0.45" style="mix-blend-mode: multiply;isolation: isolate"/>
                    </g>
                    <path id="Trazado_133325" data-name="Trazado 133325" d="M432.132,238.5a3.121,3.121,0,0,1-3.064,3.175H348.875a3.125,3.125,0,0,1-3.07-3.175,3.367,3.367,0,0,1,.51-1.781c6.024.713,16.491,1.51,34.178,1.781,27.372.4,44.821-.767,51.37-1.319A3.226,3.226,0,0,1,432.132,238.5Z" transform="translate(-345.805 -235.322)" fill="#a5a5a5" opacity="0.45" style="mix-blend-mode: multiply;isolation: isolate"/>
                  </g>
                </g>
                <text id="BEER" transform="translate(357.514 352.81)" fill="#fff" font-size="32" font-family="SegoeUI, Segoe UI"><tspan x="0" y="0">BEER</tspan></text>
              </g>
              <g id="Grupo_78784" data-name="Grupo 78784" transform="translate(0 25.823)">
                <rect id="Rectángulo_34135" data-name="Rectángulo 34135" width="64.129" height="6.156" transform="translate(18.469 79.52)" fill="#fff"/>
                <path id="Trazado_133288" data-name="Trazado 133288" d="M267.229,257.614h30.46v6.156h-24.3Z" transform="translate(-215.091 -178.094)" fill="#3ab54a"/>
                <g id="Grupo_78801" data-name="Grupo 78801" transform="translate(-315.799 -261.709)">
                  <g id="Grupo_78798-2" data-name="Grupo 78798" transform="translate(342.253 236.252)">
                    <path id="Trazado_133312-2" data-name="Trazado 133312" d="M389.784,247.19v66.987l-2.811,2.866c-2.329.484-4.586.876-6.749,1.194-.57.083-1.13.161-1.694.239a97.051,97.051,0,0,1-24.992.218,50.16,50.16,0,0,1-8.243-1.65l-3.043-2.642V246.53l4.826-6.462,1.262-1.687h35.122l.336.471Z" transform="translate(-342.253 -235.573)" fill="#004a33"/>
                    <path id="Trazado_133313-2" data-name="Trazado 133313" d="M389.784,246.164v65.588l-2.811,2.866c-2.329.484-4.586.876-6.749,1.194-.57.083-1.13.161-1.694.239a97.05,97.05,0,0,1-24.992.218,50.16,50.16,0,0,1-8.243-1.65l-3.043-2.642V245.987c3.118,1.89,9.792,4.277,23.185,3.547A132.688,132.688,0,0,0,389.784,246.164Z" transform="translate(-342.253 -233.147)" fill="#004a33" opacity="0.27" style="mix-blend-mode: multiply;isolation: isolate"/>
                    <g id="Grupo_78795-2" data-name="Grupo 78795" transform="translate(0 77.494)">
                      <path id="Trazado_133314-2" data-name="Trazado 133314" d="M389.784,296.117V299.1s-3.673,4.461-16.858,5.669c-2.059.191-4.362.3-6.911.3a67.891,67.891,0,0,1-11.071-.828c-9.813-1.645-12.691-5.144-12.691-5.144v-4.094a41.307,41.307,0,0,0,8.274,2.683,66.718,66.718,0,0,0,15.023,1.651c3.3,0,6.344-.168,9.085-.422A75.315,75.315,0,0,0,389.784,296.117Z" transform="translate(-342.253 -295.006)" fill="#8d8d8e"/>
                      <path id="Trazado_133315-2" data-name="Trazado 133315" d="M382.367,295.848v2.983s-3.673,4.461-16.858,5.669a39.086,39.086,0,0,0,1.708-5.851A75.314,75.314,0,0,0,382.367,295.848Z" transform="translate(-334.835 -294.737)" fill="#a5a5a5" opacity="0.41" style="mix-blend-mode: multiply;isolation: isolate"/>
                      <path id="Trazado_133316-2" data-name="Trazado 133316" d="M354.944,304.244c-9.813-1.645-12.691-5.144-12.691-5.144v-4.094a41.307,41.307,0,0,0,8.274,2.683C351.881,299.965,353.442,302.213,354.944,304.244Z" transform="translate(-342.253 -295.006)" fill="#a5a5a5" opacity="0.32" style="mix-blend-mode: multiply;isolation: isolate"/>
                    </g>
                    <path id="Trazado_133317-2" data-name="Trazado 133317" d="M378.531,309.409a97.052,97.052,0,0,1-24.992.218,50.164,50.164,0,0,1-8.243-1.65l-3.043-2.642V266.809Z" transform="translate(-342.253 -226.506)" fill="#e43025" opacity="0.8" style="mix-blend-mode: screen;isolation: isolate"/>
                    <path id="Trazado_133318-2" data-name="Trazado 133318" d="M374.419,238.382l6.32,8.808v66.987l-2.811,2.866c-2.329.484-4.586.876-6.749,1.194,1.364-19.056,3.821-70.492,3.821-70.492l-4.391-9.363Z" transform="translate(-333.208 -235.573)" fill="#004a33" opacity="0.34" style="mix-blend-mode: multiply;isolation: isolate"/>
                    <path id="Trazado_133319-2" data-name="Trazado 133319" d="M382.633,238.853c-6.836,1-23.77,3.041-36.721,1.216l1.262-1.687H382.3Z" transform="translate(-341.086 -235.573)" fill="#004a33" opacity="0.34" style="mix-blend-mode: multiply;isolation: isolate"/>
                    <path id="Trazado_133320-2" data-name="Trazado 133320" d="M353.539,318.693a50.16,50.16,0,0,1-8.243-1.65l-3.043-2.642V246.53l6.088-8.148h4.364l-.092.233-5.675,9.482Z" transform="translate(-342.253 -235.573)" fill="#004a33" opacity="0.34" style="mix-blend-mode: multiply;isolation: isolate"/>
                    <path id="Trazado_133321-2" data-name="Trazado 133321" d="M350.072,242.464a192.346,192.346,0,0,0,27.686,0l2.753,3.979s-18.5,2.576-32.312,0Z" transform="translate(-340.356 -234.271)" fill="#004a33" opacity="0.25" style="mix-blend-mode: screen;isolation: isolate"/>
                    <path id="Trazado_133322-2" data-name="Trazado 133322" d="M351.31,250.291a22.108,22.108,0,0,0,12.051,0v60.088s-7,2.869-10.871-1.111Z" transform="translate(-339.364 -231.774)" fill="#66bc9f" opacity="0.23" style="mix-blend-mode: screen;isolation: isolate"/>
                    <g id="Grupo_78797-2" data-name="Grupo 78797" transform="translate(4.685)">
                      <g id="Grupo_78796-2" data-name="Grupo 78796">
                        <path id="Trazado_133323-2" data-name="Trazado 133323" d="M383.966,237.658a1.379,1.379,0,0,1-1.355,1.4h-35.45a1.382,1.382,0,0,1-1.357-1.4,1.488,1.488,0,0,1,.226-.787,1.375,1.375,0,0,1,.166-.211,1.34,1.34,0,0,1,.966-.408h35.45a1.362,1.362,0,0,1,1.236.823A1.426,1.426,0,0,1,383.966,237.658Z" transform="translate(-345.805 -236.252)" fill="#a5a5a5"/>
                        <path id="Trazado_133324-2" data-name="Trazado 133324" d="M378.182,237.658a1.379,1.379,0,0,1-1.355,1.4H363.941l1.378-2.809h11.508A1.377,1.377,0,0,1,378.182,237.658Z" transform="translate(-340.02 -236.252)" fill="#a5a5a5" opacity="0.45" style="mix-blend-mode: multiply;isolation: isolate"/>
                      </g>
                      <path id="Trazado_133325-2" data-name="Trazado 133325" d="M383.966,237.508a1.379,1.379,0,0,1-1.355,1.4h-35.45a1.382,1.382,0,0,1-1.357-1.4,1.488,1.488,0,0,1,.226-.787c2.663.315,7.29.667,15.109.787,12.1.175,19.813-.339,22.708-.583A1.426,1.426,0,0,1,383.966,237.508Z" transform="translate(-345.805 -236.102)" fill="#a5a5a5" opacity="0.45" style="mix-blend-mode: multiply;isolation: isolate"/>
                    </g>
                  </g>
                  <text id="CERVEZA" transform="translate(336.938 287.515)" fill="#fff" font-size="14" font-family="SegoeUI, Segoe UI"><tspan x="0" y="0">CERVEZA</tspan></text>
                </g>
                <path id="Trazado_133326" data-name="Trazado 133326" d="M0,0H101.238V4.1H0Z" fill="#eb1f22"/>
              </g>
            </g>
            <path id="Trazado_133289" data-name="Trazado 133289" d="M243.777,94.6a11.221,11.221,0,0,1,6.085-1.791h87.067A11.288,11.288,0,0,1,348.215,104.1v94.941Z" transform="translate(-238.575 -92.81)" fill="#fff" opacity="0.4"/>
          </g>
          <path id="Trazado_133290" data-name="Trazado 133290" d="M287.061,306.388l9.018-26.422c2.69-8.044,10.874-11.7,18.278-8.168s11.227,12.917,8.536,20.961l-4.709,13.794H286.98Z" transform="translate(-208.934 -97.204)" fill="#010202" opacity="0.4"/>
          <path id="Trazado_133291" data-name="Trazado 133291" d="M374.341,381.46A50.8,50.8,0,0,1,359.4,411.405l.023.007a89.417,89.417,0,0,0-16.656,34.126H290.122c3.088-6.832,6.313-16.084,2.334-38.731,0,0,.307-.085.874-.218-3.957-13.148-1.451-31.865-1.322-53.625.111-18.715,28.962,11.821,56.6-25.833l15.438-25.349,10.564-23.642a14.234,14.234,0,1,1,26.066,11.448l-12.58,28.153-5.336,18.453C382.7,336.385,378.951,349.6,374.341,381.46Z" transform="translate(-290.122 -97.183)" fill="#f5daac"/>
        </g>
        <path id="Trazado_133292" data-name="Trazado 133292" d="M324.128,381.46a50.8,50.8,0,0,1-14.944,29.946l.023.007a89.417,89.417,0,0,0-16.656,34.127h-2.429c2.233-10.13,7.073-22.449,17.029-35.336l-.023-.007a50.914,50.914,0,0,0,14.954-29.657c4.806-31.568,8.61-44.657,8.664-44.847l5.406-18.279,12.614-27.884a14.063,14.063,0,0,0-7.03-18.6,13.763,13.763,0,0,0-6.114-1.175,14.212,14.212,0,0,1,14.838,19.829l-12.58,28.153-5.336,18.453C332.49,336.385,328.738,349.6,324.128,381.46Z" transform="translate(-231.475 -97.184)" fill="#d3af85"/>
        <g id="Grupo_78788" data-name="Grupo 78788" transform="translate(0 319.84)">
          <path id="Trazado_133293" data-name="Trazado 133293" d="M341.509,449.277l10.319-28.515,58.734,8.184,1.022,20.332Z" transform="translate(-341.509 -420.762)" fill="#f3b840"/>
        </g>
        <g id="Grupo_78789" data-name="Grupo 78789" transform="translate(41.049 326.19)">
          <path id="Trazado_133294" data-name="Trazado 133294" d="M356.356,427.273l13.156,1.833,1.021,20.331H341.509A124.221,124.221,0,0,0,356.356,427.273Z" transform="translate(-341.509 -427.273)" fill="#e09a28"/>
        </g>
        <g id="Grupo_78790" data-name="Grupo 78790" transform="translate(92.362 172.888)">
          <path id="Trazado_133295" data-name="Trazado 133295" d="M318.045,280.859s-2.654,6.98-5.134,9.091c-3.894,4.389-20.18-2.051-18.875-8.448,2.426-5.632,6.861-10.43,8.747-11.394A14.953,14.953,0,0,1,318.045,280.859Z" transform="translate(-293.962 -270.082)" fill="#f4e5ce"/>
          <path id="Trazado_133296" data-name="Trazado 133296" d="M318.215,291.349c-5.518,1.643-17.419-3.655-17.018-9.118a6,6,0,0,1,1.86-.948A11.694,11.694,0,0,1,318.215,291.349Z" transform="translate(-301.178 -270.347)" fill="#f9f0e4"/>
          <path id="Trazado_133297" data-name="Trazado 133297" d="M312.067,289.638c2.364-2.1,4.553-9.213,4.553-9.213-.726-4.543-4.359-6.9-6.929-8.785,3.08,1.577,7.2,4,7.684,9.258,0,0-2.654,6.98-5.134,9.091-3.274,3.69-15.3-.274-18.278-5.432C298.234,289.439,309.227,293.074,312.067,289.638Z" transform="translate(-293.291 -270.121)" fill="#d3af85"/>
        </g>
      </g>
    </g>
  </g>
</svg>
