<svg xmlns="http://www.w3.org/2000/svg" width="93" height="93" viewBox="0 0 93 93">
  <g id="Grupo_79486" data-name="Grupo 79486" transform="translate(-439.303 -6242)">
    <circle id="Elipse_4754" data-name="Elipse 4754" cx="46.5" cy="46.5" r="46.5" transform="translate(439.303 6242)" fill="#b2ebf2"/>
    <g id="Grupo_78802" data-name="Grupo 78802" transform="translate(-102.716 4465.19)">
      <path id="Trazado_133328" data-name="Trazado 133328" d="M551.754,2085.255a.1.1,0,0,1,.121-.031c.053.265.113.53-.121.749Z" transform="translate(0 -244.562)" fill="#444"/>
      <path id="Trazado_133329" data-name="Trazado 133329" d="M551.754,2093.125a.859.859,0,0,1,.128.734.282.282,0,0,0-.128-.016Z" transform="translate(0 -250.995)" fill="#686868"/>
      <path id="Trazado_133330" data-name="Trazado 133330" d="M585.641,2020.116c-.774-.962-1.285-1.053-2.4-.458a10.355,10.355,0,0,0-2.126,1.445c-2.433,2.211-2.322,5.056.274,7.092a18.065,18.065,0,0,0,7.016,3.1,53.781,53.781,0,0,0,14.94,1.374,45.779,45.779,0,0,0,12.49-1.928,13.669,13.669,0,0,0,5.618-3.029,4.172,4.172,0,0,0-.2-6.563,16.82,16.82,0,0,0-7-3.281,43.331,43.331,0,0,0-5.992-1.133l2.92-3.661,3.713.579c.237.116.2.357.246.556a1.137,1.137,0,0,0,.884.919,1.183,1.183,0,0,0,1.276-.41c.151-.177.247-.412.5-.485l3.574.994c-.032,1.17.177,1.5,1.312,1.9a30.088,30.088,0,0,1,8.76,4.473,8.743,8.743,0,0,1,3.451,4.791,5.682,5.682,0,0,1-1.446,5.04,17.111,17.111,0,0,1-5.984,4.472,49.2,49.2,0,0,1-14.64,4.31,77.756,77.756,0,0,1-18.537.57c-6.651-.582-13.151-1.838-19.222-4.767a18.086,18.086,0,0,1-6.006-4.33c-2.415-2.791-2.365-5.826.143-8.547a20.217,20.217,0,0,1,6.849-4.61,54.665,54.665,0,0,1,15.471-4.019,1.006,1.006,0,0,1,1.088.443c.765,1.066,1.582,2.095,2.378,3.138-.047.053-.093.117-.164.13-1.419.258-2.836.529-4.273.673a.533.533,0,0,1-.272-.067,1.817,1.817,0,0,1-.444-.461,1.2,1.2,0,0,0-2.141.615.983.983,0,0,1-.171.611A3.509,3.509,0,0,1,585.641,2020.116Z" transform="translate(-12.637 -185.879)" fill="#c8f2fe"/>
      <path id="Trazado_133331" data-name="Trazado 133331" d="M825.293,2011.781c-.526,1.071-1.283,1.419-2.139.976a1.5,1.5,0,0,1-.767-1.555c.4-.874.973-1.251,1.683-1.112C824.82,2010.235,825.224,2010.793,825.293,2011.781Z" transform="translate(-220.125 -183.433)" fill="#010101"/>
      <path id="Trazado_133332" data-name="Trazado 133332" d="M650.807,2041.993a12.606,12.606,0,0,1,1.852-.589c.211.033.305.217.441.346a1.246,1.246,0,0,0,1.3.4,1.14,1.14,0,0,0,.827-1.061c.02-.185.013-.39.209-.506,1.293.02,2.519-.46,3.8-.516.308-.013.615-.063.923-.1l4.4,5.562c.178.225.346.458.529.679a1.429,1.429,0,0,0,2.422-.011c1.078-1.342,2.152-2.689,3.172-4.076a1.579,1.579,0,0,1,1.7-.753,38.739,38.739,0,0,1,8.722,1.915,12.206,12.206,0,0,1,3.159,1.657c1.275.958,1.309,1.833.076,2.841a14.283,14.283,0,0,1-5.718,2.528,50.559,50.559,0,0,1-14.369,1.374,44.1,44.1,0,0,1-11.653-1.786,13.7,13.7,0,0,1-3.946-1.828c-1.646-1.175-1.662-2.076-.054-3.271a11.8,11.8,0,0,1,1.15-.723C650.8,2043.465,650.968,2043.148,650.807,2041.993Z" transform="translate(-77.804 -207.757)" fill="#72d7fe"/>
      <path id="Trazado_133333" data-name="Trazado 133333" d="M678.319,2038.749c.048,1.021-.254,1.547-1.019,1.78-.665.2-1.264-.123-1.758-.954-.01-1.427.9-2.206,2-1.707A1.58,1.58,0,0,1,678.319,2038.749Z" transform="translate(-100.687 -205.927)" fill="#010101"/>
      <path id="Trazado_133334" data-name="Trazado 133334" d="M624.77,1838.865a12.619,12.619,0,0,0-4.6-5.732,32.814,32.814,0,0,0-9.514-4.7c-.834-.285-1.386.006-1.917.913a1.3,1.3,0,0,0,.578,1.767,7.463,7.463,0,0,0,1.385.591,31.084,31.084,0,0,1,5.919,2.735,14.243,14.243,0,0,1,4.45,3.894,5.317,5.317,0,0,1,.079,6.426,14,14,0,0,1-4.69,4.148,39.87,39.87,0,0,1-11.646,4.366,75.86,75.86,0,0,1-23.529,1.421,65.27,65.27,0,0,1-11.849-2.132,33.458,33.458,0,0,1-10.308-4.594,11.708,11.708,0,0,1-3.438-3.513,5.057,5.057,0,0,1-.578-4.4,8.751,8.751,0,0,1,2.914-3.92,28.853,28.853,0,0,1,9.737-4.933,59.154,59.154,0,0,1,10.859-2.332,1.325,1.325,0,0,1,1.374.546c.724.982,1.5,1.927,2.238,2.9q2.27,2.823,4.452,5.714c1.416,1.882,2.536,1.456,3.625-.019.937-1.27,1.951-2.481,2.907-3.737a1,1,0,0,1,.963-.477,37.275,37.275,0,0,1,8.421,1.683,12.647,12.647,0,0,1,3.7,1.866c1.193.909,1.207,1.648.046,2.581a11.189,11.189,0,0,1-3.219,1.705c-4.415,1.619-9.035,1.979-13.675,2.168a49.315,49.315,0,0,1-6.223-.273,34.633,34.633,0,0,1-9.585-2,8.24,8.24,0,0,1-3.508-2.155,1.013,1.013,0,0,1-.021-1.425,4.618,4.618,0,0,1,.776-.74c.466-.382,1.029-.608,1.511-.963a1.671,1.671,0,0,0,.713-2.052,1.579,1.579,0,0,0-2.307-.717,8.924,8.924,0,0,0-2.806,1.963,4.62,4.62,0,0,0-1.331,2.178,4.543,4.543,0,0,0,1.832,4.741,15.9,15.9,0,0,0,5.618,2.8,51.08,51.08,0,0,0,13.6,1.893,58.152,58.152,0,0,0,7.442-.4,36.365,36.365,0,0,0,9.565-2.144,13.689,13.689,0,0,0,3.911-2.234,4.415,4.415,0,0,0,.342-6.9,12.731,12.731,0,0,0-4.927-2.849,37.635,37.635,0,0,0-7.253-1.718c-.785-.125-.787-.149-.28-.787.565-.712,1.111-1.44,1.686-2.144a1.091,1.091,0,0,0,.338-.694c.649-.854,1.3-1.7,1.947-2.563,2.061-2.751,4.455-5.266,6.177-8.254a20.315,20.315,0,0,0,1.161-19.107,20.584,20.584,0,0,0-14.628-12.178,17.578,17.578,0,0,1-2.677-.545H590.1c-.144.225-.287.186-.431,0h-2.154c-.053.15-.169.146-.293.12-.118.017-.241.046-.281-.12h-.574c-.858.2-1.747.134-2.61.346a21.329,21.329,0,0,0-11.906,7.531,21.256,21.256,0,0,0-.284,26.176c1.662,2.193,3.393,4.332,5.065,6.517.492.642.488.656-.286.779a56.312,56.312,0,0,0-13.8,3.8,22.874,22.874,0,0,0-8.514,5.827,7.61,7.61,0,0,0-2.2,5.156c-.034.245.076.5-.074.738v.718c.173.222-.013.506.128.734a9.091,9.091,0,0,0,2.352,4.818,23.6,23.6,0,0,0,8.928,5.936,60.287,60.287,0,0,0,18.217,4.147,81.126,81.126,0,0,0,19.03-.563,52.013,52.013,0,0,0,15.913-4.721,20.34,20.34,0,0,0,6.513-4.842C625.023,1845.071,625.944,1842.178,624.77,1838.865ZM573.9,1816.58a17.894,17.894,0,0,1-3.635-10.957,18.227,18.227,0,0,1,35.291-6.381c2.383,6.616,1.221,12.686-3.085,18.2q-6.779,8.678-13.545,17.367c-.276.355-.42.563-.8.067C583.386,1828.769,578.619,1822.692,573.9,1816.58Z"/>
      <path id="Trazado_133335" data-name="Trazado 133335" d="M755.341,1784.543h-.431C755.054,1784.729,755.2,1784.768,755.341,1784.543Z" transform="translate(-165.244)" fill="#7a7a7a"/>
      <path id="Trazado_133336" data-name="Trazado 133336" d="M740.57,1784.663c0-.04.005-.08.006-.12h-.287C740.329,1784.709,740.452,1784.68,740.57,1784.663Z" transform="translate(-153.351)" fill="#7d7d7d"/>
      <path id="Trazado_133337" data-name="Trazado 133337" d="M741.8,1784.663c.125.026.241.03.293-.12H741.8C741.8,1784.583,741.8,1784.623,741.8,1784.663Z" transform="translate(-154.577)" fill="#646464"/>
      <path id="Trazado_133338" data-name="Trazado 133338" d="M669.582,1847.3q6.763-8.691,13.545-17.367c4.306-5.512,5.467-11.583,3.085-18.2a18.227,18.227,0,0,0-35.291,6.381,17.9,17.9,0,0,0,3.635,10.957c4.723,6.112,9.491,12.189,14.222,18.295C669.162,1847.859,669.306,1847.651,669.582,1847.3Zm-13.2-27a12.91,12.91,0,0,1,15.923-14.343c1.234.3,1.587.75,1.483,2.011a12.794,12.794,0,0,1,2.4,1.432h0a1.45,1.45,0,0,1,1.9-.191,1.379,1.379,0,0,1,.572,1.566,2.33,2.33,0,0,1-.434.727,9.258,9.258,0,0,1,1.439,2.345c1.359-.07,1.687.227,2.032,1.639a12.9,12.9,0,1,1-25.315,4.814Z" transform="translate(-80.66 -12.489)" fill="#fe5d5d"/>
      <path id="Trazado_133339" data-name="Trazado 133339" d="M697.731,1854.959a12.991,12.991,0,0,0,7.3-14.813c-.346-1.412-.674-1.708-2.032-1.639a1.6,1.6,0,0,0-.781,2.132,9.788,9.788,0,0,1-.034,5.1,10.05,10.05,0,0,1-19.532-.52,10.087,10.087,0,0,1,4.087-10.3,9.98,9.98,0,0,1,8.185-1.507c1.179.277,1.59.128,2.2-.778.1-1.262-.249-1.711-1.483-2.011a12.917,12.917,0,1,0,2.1,24.342Z" transform="translate(-103.987 -37.157)"/>
      <path id="Trazado_133340" data-name="Trazado 133340" d="M785.052,1850.7a1.54,1.54,0,0,0,1.959.142,2.33,2.33,0,0,0,.434-.727,1.379,1.379,0,0,0-.572-1.566,1.45,1.45,0,0,0-1.9.191h0A1.521,1.521,0,0,0,785.052,1850.7Z" transform="translate(-189.442 -51.84)" fill="#010101"/>
    </g>
  </g>
</svg>
