<svg xmlns="http://www.w3.org/2000/svg" width="93" height="93" viewBox="0 0 93 93">
  <g id="Grupo_79485" data-name="Grupo 79485" transform="translate(-439.303 -5664)">
    <circle id="Elipse_4753" data-name="Elipse 4753" cx="46.5" cy="46.5" r="46.5" transform="translate(439.303 5664)" fill="#b2ebf2"/>
    <g id="Grupo_78803" data-name="Grupo 78803" transform="translate(-1271.263 4919.527)">
      <path id="Trazado_133341" data-name="Trazado 133341" d="M1792.006,813.086c-.39,5.318-4.856,10.251-10.292,11.366a13.152,13.152,0,0,1-15.674-10.246c-.121-.58-.452-.458-.792-.458q-14.008,0-28.017,0c-2.495,0-4.99,0-7.485,0a5.492,5.492,0,0,1-5.753-5.726q-.007-20.635,0-41.269a5.491,5.491,0,0,1,5.731-5.748q1.957-.006,3.915,0c.941,0,1.337.395,1.339,1.331.006,2.243.024,4.487-.013,6.729-.01.586.113.747.73.746q19.982-.032,39.965-.016h12.566c1.418,0,1.7.273,1.7,1.665q0,16.068-.007,32.137a2.211,2.211,0,0,0,.332,1.219,12.453,12.453,0,0,1,1.754,5.072c.013.107-.016.233.12.29v2.06C1791.95,812.5,1792.13,812.815,1792.006,813.086Z" transform="translate(0 0)"/>
      <path id="Trazado_133342" data-name="Trazado 133342" d="M1869.09,871.184a1.074,1.074,0,0,1,.114-.85v.824l-.05.043Z" transform="translate(-77.085 -58.098)" fill="#5a5a5a"/>
      <path id="Trazado_133343" data-name="Trazado 133343" d="M1766.962,824.583c-1.392,0-2.672-.014-3.953.008-.373.007-.436-.162-.5-.476-.442-2.288-.911-4.571-1.361-6.857-.25-1.271-.474-1.465-1.778-1.465-3.777,0-7.555-.012-11.332.013-.515,0-.643-.122-.633-.634.031-1.576.007-1.576,1.6-1.576q4.841,0,9.683,0c1.209,0,1.609-.477,1.376-1.669q-.591-3.027-1.214-6.048c-.169-.816-.5-1.07-1.329-1.071-3.159,0-6.318-.014-9.477.011-.5,0-.663-.1-.64-.628.047-1.074.036-2.152,0-3.227-.014-.447.109-.568.56-.565,2.7.023,5.4.013,8.1.01,1.181,0,1.588-.47,1.368-1.629-.31-1.637-.65-3.269-.988-4.963,1.37,0,2.694.011,4.018-.007.372-.005.373.218.424.476q1.15,5.78,2.316,11.559c.176.876.507,1.156,1.405,1.157q2.782.006,5.563,0c1.034,0,1.412-.374,1.413-1.4,0-3.709.012-7.417-.011-11.126,0-.521.106-.691.659-.677,1.55.038,1.55.01,1.55,1.558q0,5.082,0,10.164c0,1.126.35,1.477,1.47,1.478q2.953,0,5.907,0c1.033,0,1.411-.374,1.412-1.4,0-3.709.012-7.417-.011-11.126,0-.522.108-.69.66-.676,1.549.038,1.55.011,1.55,1.559,0,.527-.008,1.053,0,1.58.015.876.42,1.268,1.333,1.269,3,0,6,.016,9-.011.53,0,.685.12.672.665-.037,1.545-.01,1.546-1.562,1.546q-4.017,0-8.035,0c-1.032,0-1.4.373-1.4,1.4q-.006,1.923,0,3.846c0,.942.395,1.338,1.331,1.34,3.022.005,6.044.013,9.065-.01.474,0,.621.1.6.593-.041,1.1-.034,2.2,0,3.3.013.424-.1.532-.527.529-3-.02-6-.012-9-.01-1.125,0-1.473.348-1.475,1.472,0,1.4-.014,2.793.009,4.189a.769.769,0,0,1-.414.768c-.594.37-1.148.8-1.793,1.262v-.844q0-2.609,0-5.219c0-1.322-.3-1.628-1.6-1.628h-12.019c-1.007,0-2.015,0-3.022,0-1.109.006-1.529.535-1.306,1.63q.388,1.914.773,3.829c.169.838.508,1.129,1.36,1.131,2.152,0,4.3.012,6.455-.007.425,0,.581.076.577.548-.011,1.659.01,1.659-1.655,1.659-1.465,0-2.93,0-4.4,0-1.16,0-1.577.509-1.355,1.651C1766.578,822.736,1766.767,823.629,1766.962,824.583Z" transform="translate(-12.443 -17.429)" fill="#e8edf1"/>
      <path id="Trazado_133344" data-name="Trazado 133344" d="M1828.823,845.425a10.987,10.987,0,1,1-11.031,11.028A11,11,0,0,1,1828.823,845.425Z" transform="translate(-49.844 -44.862)" fill="#ea423f"/>
      <path id="Trazado_133345" data-name="Trazado 133345" d="M1728.682,806.351v-.791q0-18.091,0-36.183a3.336,3.336,0,0,1,3.7-3.689c.824,0,1.648.013,2.472-.007.326-.007.468.094.425.426a2.7,2.7,0,0,0,0,.343q0,19.019.016,38.037c0,.634-.167.847-.786.768-.36-.046-.731,0-1.1-.01A6.868,6.868,0,0,0,1728.682,806.351Z" transform="translate(-2.493 -2.488)" fill="#3396e7"/>
      <path id="Trazado_133346" data-name="Trazado 133346" d="M1800.164,814.083c-.727-.5-1.378-.953-2.026-1.4-.287-.2-.166-.5-.166-.761q-.009-11.808-.005-23.616c0-1.4-.276-1.67-1.691-1.67q-24.028,0-48.055.016c-.667,0-.844-.162-.818-.823.054-1.389.016-1.391,1.4-1.391q25.263,0,50.526-.017c.7,0,.854.172.852.858q-.038,14.039-.017,28.078Z" transform="translate(-12.44 -12.443)" fill="#2978b7"/>
      <path id="Trazado_133347" data-name="Trazado 133347" d="M1749.734,861.721q-8.825,0-17.65,0a3.287,3.287,0,0,1-3.138-4.565,3.362,3.362,0,0,1,1.435-1.609c.378-.228.531-.156.5.3a3.347,3.347,0,0,0,.527,2.159,3.408,3.408,0,0,0,3.042,1.529q16.482-.016,32.965-.006c1,0,1.013,0,.865.968-.061.4.16.961-.171,1.158s-.843.07-1.276.071Q1758.284,861.722,1749.734,861.721Z" transform="translate(-2.493 -50.171)" fill="#2978b7"/>
      <path id="Trazado_133348" data-name="Trazado 133348" d="M1746.969,852q-3.808,0-7.616,0a1.442,1.442,0,0,1-1.408-2.021c.094-.272.292-.168.448-.171.892-.011,1.784,0,2.676-.008a1.122,1.122,0,0,0,1.268-1.264c.011-.892.018-1.785-.005-2.676-.01-.358.1-.462.458-.46q5.352.019,10.7,0c.365,0,.5.1.568.471q.543,2.859,1.155,5.705c.114.53-.212.425-.493.425Z" transform="translate(-7.36 -44.85)" fill="#6ed1ef"/>
      <path id="Trazado_133349" data-name="Trazado 133349" d="M1796,836.029c2.036,0,4.072.014,6.108-.011.451-.006.568.12.564.567-.022,2.356-.016,4.713,0,7.069a1.548,1.548,0,0,1-.259.9,8.43,8.43,0,0,0-.977,1.956c-.14.424-.365.527-.793.523q-4.289-.031-8.579,0c-.44,0-.669-.078-.7-.57-.032-.535-.477-1.2-.182-1.545.225-.266.988-.088,1.511-.09,1.4-.006,2.791,0,4.186,0,1,0,1.383-.38,1.388-1.353q.009-1.956,0-3.912c-.006-.934-.4-1.322-1.346-1.325-2.219-.005-4.438-.014-6.657.009-.429,0-.619-.111-.66-.548a6.435,6.435,0,0,0-.234-1.139c-.122-.436.023-.536.457-.531C1791.886,836.041,1793.945,836.029,1796,836.029Z" transform="translate(-34.72 -39.863)" fill="#6ed1ef"/>
      <path id="Trazado_133350" data-name="Trazado 133350" d="M1787.19,799.306c0,1.67-.01,3.34.008,5.01,0,.374-.081.515-.485.5-1.074-.028-2.151-.021-3.225,0-.333.006-.483-.088-.55-.431q-1-5.075-2.03-10.144c-.07-.344.02-.429.361-.427,1.83.014,3.66.018,5.491,0,.391,0,.44.151.437.481C1787.183,795.965,1787.19,797.635,1787.19,799.306Z" transform="translate(-30.233 -17.437)" fill="#6ed1ef"/>
      <path id="Trazado_133351" data-name="Trazado 133351" d="M1808.395,799.242c0-1.623.017-3.247-.011-4.87-.008-.452.121-.575.567-.563,1.119.032,2.24.028,3.36,0,.4-.009.489.123.487.5q-.02,5.007,0,10.013c0,.39-.111.5-.5.492q-1.714-.036-3.428,0c-.4.009-.491-.123-.487-.5C1808.405,802.626,1808.395,800.934,1808.395,799.242Z" transform="translate(-44.845 -17.434)" fill="#6ed1ef"/>
      <path id="Trazado_133352" data-name="Trazado 133352" d="M1757.736,826.354h-1.062c-2.88,0-5.761-.009-8.641.01-.45,0-.642-.065-.622-.579.043-1.1.03-2.195,0-3.291-.009-.4.061-.551.512-.547,2.812.023,5.624.017,8.436.005.347,0,.513.059.582.452C1757.176,823.706,1757.46,825,1757.736,826.354Z" transform="translate(-12.445 -32.386)" fill="#6ed1ef"/>
      <path id="Trazado_133353" data-name="Trazado 133353" d="M1755.1,798.224c-2.472,0-4.893,0-7.314,0-.264,0-.357-.081-.354-.35q.016-1.851,0-3.7c0-.269.091-.351.355-.35q3.052.012,6.1,0c.246,0,.364.075.412.333C1754.555,795.5,1754.825,796.834,1755.1,798.224Z" transform="translate(-12.457 -17.443)" fill="#6ed1ef"/>
      <path id="Trazado_133354" data-name="Trazado 133354" d="M1840.641,838.915c-3.45-.8-4.181-1.06-8.791,0,0-.852.009-1.693,0-2.533,0-.273.1-.347.358-.347q4.045.011,8.09,0c.267,0,.355.088.351.353C1840.633,837.224,1840.641,838.063,1840.641,838.915Z" transform="translate(-57.312 -39.871)" fill="#6ed1ef"/>
      <path id="Trazado_133355" data-name="Trazado 133355" d="M1836.309,793.824c1.279,0,2.559.014,3.839-.009.386-.007.491.106.5.493.026,1.714.04,1.713-1.666,1.713-2.194,0-4.387-.013-6.581.011-.446,0-.568-.114-.566-.563.006-1.645-.012-1.645,1.6-1.645Z" transform="translate(-57.304 -17.437)" fill="#6ed1ef"/>
      <path id="Trazado_133356" data-name="Trazado 133356" d="M1836.233,812.583c1.3,0,2.6.014,3.907-.008.378-.006.5.091.5.486.028,1.72.042,1.719-1.661,1.719-2.193,0-4.387-.012-6.58.01-.436,0-.575-.1-.573-.557.006-1.65-.013-1.651,1.662-1.651Z" transform="translate(-57.304 -27.406)" fill="#6ed1ef"/>
      <path id="Trazado_133357" data-name="Trazado 133357" d="M1832.666,857.921c0-.641-.012-1.282,0-1.923a1.1,1.1,0,1,1,2.189.01c.015,1.213.038,2.428-.01,3.639-.023.568.177.678.692.663,1.167-.036,2.334-.016,3.5-.009.817.005,1.3.415,1.31,1.084s-.48,1.1-1.286,1.109c-1.236.009-2.473.016-3.708-.006-.387-.007-.512.1-.5.5.024,1.235.015,2.472.006,3.708-.006.809-.433,1.3-1.1,1.292s-1.085-.491-1.09-1.3c-.008-1.167-.039-2.336.013-3.5.027-.6-.179-.717-.73-.7-1.142.043-2.288.017-3.433.011-.856,0-1.358-.43-1.342-1.121.015-.667.5-1.068,1.32-1.073,1.214-.007,2.427-.02,3.64.007.419.009.565-.1.539-.534C1832.638,859.159,1832.666,858.539,1832.666,857.921Z" transform="translate(-54.831 -49.848)"/>
    </g>
  </g>
</svg>
