<?xml version="1.0" encoding="utf-8"?>
<!-- Generator: Adobe Illustrator 25.3.1, SVG Export Plug-In . SVG Version: 6.00 Build 0)  -->
<svg version="1.1" id="Layer_1" xmlns="http://www.w3.org/2000/svg" xmlns:xlink="http://www.w3.org/1999/xlink" x="0px" y="0px"
	 viewBox="0 0 1080 1080" style="enable-background:new 0 0 1080 1080;" xml:space="preserve">
<style type="text/css">
	.st0{fill:#1F62AE;}
	.st1{fill:#3C9BD5;}
	.st2{fill:#231F20;}
	.st3{fill:#FFFFFF;}
	.st4{fill:url(#SVGID_1_);}
	.st5{fill:url(#SVGID_2_);}
	.st6{fill:url(#SVGID_3_);}
	.st7{opacity:5.000000e-02;}
	.st8{fill:url(#SVGID_4_);}
	.st9{opacity:5.000000e-02;fill:#231F20;}
</style>
<g>
	<polygon class="st0" points="824,953.2 540,1029.7 256,953.2 190.4,243.2 889.6,243.2 	"/>
	<polygon class="st1" points="540,300.7 540,968.7 540.6,968.8 770.5,907 823.5,300.7 	"/>
	<g>
		<polygon class="st2" points="378.8,138.8 378.8,96.6 440.5,96.6 440.5,50.3 332.6,50.3 332.6,181 440.5,181 440.5,138.8 		"/>
		<path class="st2" d="M551.4,96.6h43.1V50.3H486.6c0,0,0,23.2,0,46.2c14.4,14.4,22,21.3,42.8,42.2c-12.2,0-42.8,0-42.8,0V181h107.9
			v-42.2L551.4,96.6z"/>
		<path class="st2" d="M704.3,96.6h43.1V50.3H639.5c0,0,0,23.2,0,46.2c14.4,14.4,22,21.3,42.9,42.2c-12.2,0-42.9,0-42.9,0V181h107.9
			v-42.2L704.3,96.6z"/>
	</g>
	<g>
		<polygon class="st3" points="539.7,478.2 336.5,562.9 343.2,646.7 539.7,562.7 748.8,473.3 757.5,387.5 		"/>
		<linearGradient id="SVGID_1_" gradientUnits="userSpaceOnUse" x1="438.102" y1="646.6864" x2="438.102" y2="478.2058">
			<stop  offset="0.3865" style="stop-color:#D0D2D3;stop-opacity:0"/>
			<stop  offset="1" style="stop-color:#D0D2D3"/>
		</linearGradient>
		<polygon class="st4" points="336.5,562.9 343.2,646.7 539.7,562.7 539.7,478.2 		"/>
		<linearGradient id="SVGID_2_" gradientUnits="userSpaceOnUse" x1="648.6087" y1="562.6544" x2="648.6087" y2="387.5274">
			<stop  offset="0.3865" style="stop-color:#D0D2D3;stop-opacity:0"/>
			<stop  offset="1" style="stop-color:#D0D2D3"/>
		</linearGradient>
		<polygon class="st5" points="757.5,387.5 539.7,478.2 539.7,562.7 748.8,473.3 		"/>
		<linearGradient id="SVGID_3_" gradientUnits="userSpaceOnUse" x1="336.774" y1="721.8323" x2="741.421" y2="721.8323">
			<stop  offset="0" style="stop-color:#E7E6E5"/>
			<stop  offset="1" style="stop-color:#FFFFFF"/>
		</linearGradient>
		<polygon class="st6" points="336.8,562.9 343.5,646.7 645.1,647.6 638.3,759.4 539.1,787.3 443.7,763.3 437.9,693.9 349.3,693.9 
			360.9,827.8 540.1,880.8 718.3,828.8 741.4,562.9 		"/>
		<g class="st7">
			<polygon class="st2" points="539.7,562.9 336.5,562.9 343.2,646.7 539.7,647.3 			"/>
			<polygon class="st2" points="539.7,787.1 538.8,787.3 443.4,763.3 437.6,693.9 349,693.9 360.5,827.8 539.7,880.8 			"/>
		</g>
		<linearGradient id="SVGID_4_" gradientUnits="userSpaceOnUse" x1="318.1566" y1="430.3992" x2="757.4749" y2="430.3992">
			<stop  offset="0" style="stop-color:#E7E6E5"/>
			<stop  offset="1" style="stop-color:#FFFFFF"/>
		</linearGradient>
		<polygon class="st8" points="318.2,387.5 757.5,387.5 748.8,473.3 328.8,473.3 		"/>
		<polygon class="st9" points="539.7,387.5 318.2,387.5 328.8,473.3 539.7,473.3 		"/>
	</g>
</g>
</svg>
