<svg xmlns="http://www.w3.org/2000/svg" xmlns:xlink="http://www.w3.org/1999/xlink" width="166.031" height="156.134" viewBox="0 0 166.031 156.134">
  <defs>
    <filter id="Trazado_134285" x="16.116" y="8.533" width="134.761" height="134.761" filterUnits="userSpaceOnUse">
      <feOffset input="SourceAlpha"/>
      <feGaussianBlur stdDeviation="2.5" result="blur"/>
      <feFlood flood-opacity="0.29"/>
      <feComposite operator="in" in2="blur"/>
      <feComposite in="SourceGraphic"/>
    </filter>
  </defs>
  <g id="Grupo_79502" data-name="Grupo 79502" transform="translate(14690.517 9635.576)">
    <rect id="Rectángulo_34270" data-name="Rectángulo 34270" width="166.031" height="98.339" rx="13" transform="translate(-14690.517 -9577.781)" fill="#f6f6f6"/>
    <path id="Trazado_108969" data-name="Trazado 108969" d="M1386.87,1788.316a66.207,66.207,0,0,1,62.354,44.174h10.329a75.919,75.919,0,0,0-145.366,0h10.329A66.208,66.208,0,0,1,1386.87,1788.316Z" transform="translate(-15993.703 -11414.076)" fill="#ffa83a"/>
    <g transform="matrix(1, 0, 0, 1, -14690.52, -9635.58)" filter="url(#Trazado_134285)">
      <path id="Trazado_134285-2" data-name="Trazado 134285" d="M59.88,0A59.88,59.88,0,1,1,0,59.88,59.88,59.88,0,0,1,59.88,0Z" transform="translate(23.62 16.03)" fill="#fb8c00"/>
    </g>
    <path id="Trazado_134286" data-name="Trazado 134286" d="M4.893-2.644l2.417-8.02H9.756L6.042,0H3.75L.051-10.664H2.49ZM12.854,0H10.73V-7.925h2.124ZM10.605-9.976a1.042,1.042,0,0,1,.319-.784,1.2,1.2,0,0,1,.868-.308,1.2,1.2,0,0,1,.864.308,1.036,1.036,0,0,1,.322.784,1.039,1.039,0,0,1-.326.791,1.2,1.2,0,0,1-.861.308,1.2,1.2,0,0,1-.861-.308A1.039,1.039,0,0,1,10.605-9.976Zm3.662,5.955A4.776,4.776,0,0,1,15.1-6.973a2.7,2.7,0,0,1,2.274-1.1,2.427,2.427,0,0,1,1.912.864V-11.25h2.124V0H19.5l-.1-.842a2.491,2.491,0,0,1-2.036.989,2.69,2.69,0,0,1-2.245-1.1A4.93,4.93,0,0,1,14.268-4.021Zm2.117.151a3.146,3.146,0,0,0,.388,1.714,1.263,1.263,0,0,0,1.128.6,1.416,1.416,0,0,0,1.384-.831V-5.533a1.4,1.4,0,0,0-1.37-.831Q16.384-6.365,16.384-3.87ZM26.7.146A3.89,3.89,0,0,1,23.859-.923a3.8,3.8,0,0,1-1.095-2.849v-.205a4.787,4.787,0,0,1,.461-2.135,3.386,3.386,0,0,1,1.307-1.45,3.669,3.669,0,0,1,1.93-.509,3.289,3.289,0,0,1,2.56,1.025,4.167,4.167,0,0,1,.934,2.908v.864H24.91a1.966,1.966,0,0,0,.619,1.245,1.871,1.871,0,0,0,1.307.469,2.285,2.285,0,0,0,1.912-.886l1.04,1.165A3.178,3.178,0,0,1,28.5-.231,4.229,4.229,0,0,1,26.7.146Zm-.242-6.511a1.323,1.323,0,0,0-1.022.427,2.209,2.209,0,0,0-.5,1.221h2.944v-.169A1.576,1.576,0,0,0,27.5-5.979,1.365,1.365,0,0,0,26.455-6.365Zm4.373,2.329a4.7,4.7,0,0,1,.454-2.1,3.324,3.324,0,0,1,1.307-1.428,3.814,3.814,0,0,1,1.981-.505,3.609,3.609,0,0,1,2.618.981A3.939,3.939,0,0,1,38.32-4.424l.015.542A4.142,4.142,0,0,1,37.317-.956a3.539,3.539,0,0,1-2.732,1.1,3.556,3.556,0,0,1-2.736-1.1A4.215,4.215,0,0,1,30.828-3.94Zm2.117.15a2.962,2.962,0,0,0,.425,1.727,1.4,1.4,0,0,0,1.216.6,1.4,1.4,0,0,0,1.2-.591,3.241,3.241,0,0,0,.432-1.889,2.933,2.933,0,0,0-.432-1.716,1.4,1.4,0,0,0-1.216-.609,1.382,1.382,0,0,0-1.2.605A3.3,3.3,0,0,0,32.944-3.885Z" transform="translate(-14627.662 -9526.955)" fill="#fff"/>
    <g id="Grupo_62196" data-name="Grupo 62196" transform="translate(-14633.642 -9593.945)">
      <g id="Grupo_60258" data-name="Grupo 60258">
        <path id="Trazado_130838" data-name="Trazado 130838" d="M1434.413,1850.977q-23.73.05-47.458.02a2.851,2.851,0,0,0-3.2,3.2v25.669a2.759,2.759,0,0,0,1.518,2.6,3.454,3.454,0,0,0,1.7.32h47.938a3.125,3.125,0,0,0,2.442-.929,6.761,6.761,0,0,0,.717-1.267v-27.369C1437.471,1851.453,1436.17,1850.974,1434.413,1850.977Zm.415,29.547H1387c-.929,0-1.006-.077-1.006-.989v-25.3c0-.9.1-1,1-1h47.832c.9,0,1.006.1,1.006,1v25.294c0,.918-.076.994-1,.994Z" transform="translate(-1383.75 -1850.977)" fill="#fff"/>
        <path id="Trazado_130839" data-name="Trazado 130839" d="M1436.455,1907.51c-6.786.016-13.573.006-20.359.018-.384,0-.587-.076-.728-.475a4.391,4.391,0,0,0-8.223-.009.618.618,0,0,1-.718.483q-10.5-.017-21-.007a4.845,4.845,0,0,0-.736.044,1.083,1.083,0,0,0-.073,2.129,3.986,3.986,0,0,0,.788.068q10.5.005,21-.006c.4,0,.606.077.756.5a4.39,4.39,0,0,0,8.2-.011.623.623,0,0,1,.711-.49c6.733.014,13.467,0,20.2.019a1.938,1.938,0,0,0,1.8-.721v-.743A1.588,1.588,0,0,0,1436.455,1907.51Zm-25.194,3.323a2.192,2.192,0,1,1,2.188-2.2,2.227,2.227,0,0,1-2.189,2.2Z" transform="translate(-1383.758 -1869.369)" fill="#fff"/>
        <path id="Trazado_130840" data-name="Trazado 130840" d="M1427.517,1869.634l-10.013-7.125a1.318,1.318,0,0,0-1.419-.276c-.571.276-.632.786-.63,1.344.008,2.39,0,4.773,0,7.159,0,2.405,0,4.808,0,7.213a1.183,1.183,0,0,0,2.034,1.041q5-3.572,10.011-7.127C1428.528,1871.128,1428.535,1870.357,1427.517,1869.634Zm-9.79,6.428v-10.639l7.478,5.316Z" transform="translate(-1394.697 -1854.833)" fill="#fff"/>
        <path id="Trazado_130841" data-name="Trazado 130841" d="M1415.475,1871.493c0-2.39,0-4.773,0-7.16.008,2.39,0,4.773,0,7.16,0,2.4,0,4.808,0,7.212C1415.48,1876.3,1415.475,1873.9,1415.475,1871.493Z" transform="translate(-1394.714 -1855.592)" fill="#fff"/>
      </g>
    </g>
  </g>
</svg>
