<svg xmlns="http://www.w3.org/2000/svg" width="98" height="98" viewBox="0 0 98 98">
  <g id="Grupo_79456" data-name="Grupo 79456" transform="translate(-751 -9185)">
    <circle id="Elipse_4717" data-name="Elipse 4717" cx="49" cy="49" r="49" transform="translate(751 9185)" fill="#26aab7"/>
    <g id="y3ZViV" transform="translate(-926.78 8692.408)">
      <g id="Grupo_74597" data-name="Grupo 74597" transform="translate(1698.78 508.592)">
        <path id="Trazado_110238" data-name="Trazado 110238" d="M1699.588,508.592h53.776a.945.945,0,0,1,.8,1.135c-.021.3,0,.605,0,.908q0,31.23,0,62.459c0,.411.008.822-.023,1.233a.793.793,0,0,1-.715.792,3.4,3.4,0,0,1-.645.042q-26.3,0-52.591,0c-1.17,0-1.4-.22-1.406-1.4-.015-3.4-.006-6.8-.006-10.193q0-26.36,0-52.721c0-.368.019-.737,0-1.1A.981.981,0,0,1,1699.588,508.592Z" transform="translate(-1698.78 -508.592)"/>
        <path id="Trazado_110239" data-name="Trazado 110239" d="M1752.7,558.213c-1.276,1.292-2.558,2.578-3.823,3.882a1,1,0,0,1-.84.215q-8.183,0-16.366,0c-.195,0-.39,0-.584,0a.817.817,0,1,0,.015,1.633c1.039.014,2.078.008,3.117.008h12.58c.055.271-.142.343-.249.451q-4.586,4.6-9.18,9.188a.864.864,0,0,1-.655.343c-2.424-.022-4.848-.024-7.272-.032a.781.781,0,0,1-.276-.63c-.005-.238-.011-.475-.011-.713q0-17.742.006-35.484c0-.457-.143-.966.281-1.344.431-.008.862-.023,1.293-.023q10.59,0,21.18,0c.258,0,.516.018.775.027.323.249.281.611.283.952.011,1.9,0,3.8,0,5.7q0,7.19,0,14.382A2.623,2.623,0,0,1,1752.7,558.213Z" transform="translate(-1713.308 -521.568)" fill="#fefefe"/>
        <path id="Trazado_110240" data-name="Trazado 110240" d="M1707,511.812c2.358-.008,4.716-.009,7.074-.032.426,0,.431.227.43.535q-.008,2.888,0,5.777c0,.93.22,1.153,1.148,1.153q14.637,0,29.275,0c.906,0,1.158-.255,1.16-1.155,0-1.882.015-3.765-.008-5.647-.006-.473.072-.68.622-.671,2.271.041,4.543.029,6.814.037.07.082.181.151.189.257a7.481,7.481,0,0,1-.088,2.994,1.063,1.063,0,0,1-.9.266c-1.166.015-2.332-.01-3.5.012-.932.018-1.14.23-1.147,1.162-.01,1.317-.015,2.635,0,3.952.01.806.236,1.037,1.05,1.059,1.187.032,2.375,0,3.563.016a1.137,1.137,0,0,1,.91.244,1.47,1.47,0,0,1,.18,1.05,6.155,6.155,0,0,1-.151,2.216.992.992,0,0,1-.883.288c-1.207.015-2.414-.009-3.62.011-.883.015-1.047.184-1.053,1.079q-.013,2.036,0,4.072c0,.409.065.784.546.906a13.435,13.435,0,0,0,3.591.214c.3.013.6,0,.9.011a.6.6,0,0,1,.64.591,18.435,18.435,0,0,1,.005,2.386.648.648,0,0,1-.247.438c-1.558.006-3.116.009-4.674.019-.822.005-1.078.261-1.083,1.092-.007,1.342-.031,2.685.011,4.025a1.6,1.6,0,0,1-.577,1.415,9.763,9.763,0,0,0-.925,1.019c-.269-.288-.172-.536-.172-.754q-.01-8.959-.005-17.919c0-1.146-.207-1.349-1.365-1.349h-28.891c-1.147,0-1.33.177-1.33,1.3q0,19.477,0,38.954c0,1.132.18,1.309,1.324,1.309,3.008,0,6.016.014,9.025-.013.528,0,.665.161.636.657a16.432,16.432,0,0,0,0,2.011c.035.536-.134.7-.682.693-3.008-.026-6.016-.014-9.024-.012-1.117,0-1.278.163-1.279,1.282,0,1.84-.014,3.679.009,5.518.006.479-.082.683-.63.673-2.292-.041-4.586-.031-6.88-.04-.073-.078-.185-.145-.2-.251a7.429,7.429,0,0,1,.08-2.993,1.056,1.056,0,0,1,.9-.27c1.167-.014,2.334.009,3.5-.011,1.024-.018,1.27-.264,1.279-1.268q.016-1.816,0-3.631c-.009-1.059-.229-1.272-1.315-1.283-1.146-.011-2.291.005-3.436-.008a1.118,1.118,0,0,1-.909-.249,6.414,6.414,0,0,1-.014-3.277,1.026,1.026,0,0,1,.892-.274c1.188-.015,2.376.007,3.563-.01.962-.015,1.2-.247,1.215-1.183.017-1.252.014-2.5,0-3.757-.009-.94-.17-1.1-1.092-1.112-1.274-.013-2.548,0-3.822-.008-.318,0-.657.044-.915-.224a11.259,11.259,0,0,1,.194-3.48,1.175,1.175,0,0,1,.917-.227c1.191-.014,2.381.007,3.572-.01.927-.013,1.139-.228,1.147-1.167.011-1.3.018-2.6,0-3.9-.013-.763-.214-.966-.973-.983-1.255-.028-2.511,0-3.767-.015a1.1,1.1,0,0,1-.909-.25,1.794,1.794,0,0,1-.183-1.185,5.763,5.763,0,0,1,.165-2.221c.235-.293.571-.27.893-.274,1.231-.015,2.463.007,3.695-.012.878-.013,1.071-.2,1.081-1.072.015-1.318.019-2.636,0-3.954-.014-.785-.234-1-1.013-1.021-1.231-.026-2.463,0-3.694-.014a1.2,1.2,0,0,1-.919-.222.905.905,0,0,1-.2-.595,15.663,15.663,0,0,1,.079-2.861c.243-.288.582-.25.9-.253,1.255-.014,2.509,0,3.764-.009.9-.01,1.071-.17,1.082-1.06q.024-1.914,0-3.829c-.012-.9-.26-1.147-1.174-1.162-1.19-.02-2.38,0-3.569-.012a1.1,1.1,0,0,1-.908-.249,1.747,1.747,0,0,1-.182-1.184,5.3,5.3,0,0,1,.156-2.093,1.044,1.044,0,0,1,.893-.275c1.145-.013,2.29.006,3.434-.009,1.11-.015,1.346-.247,1.353-1.326.008-1.231.015-2.463,0-3.693-.012-.859-.268-1.13-1.123-1.156-1.209-.037-2.419,0-3.629-.017a1.115,1.115,0,0,1-.907-.251A4.917,4.917,0,0,1,1707,511.812Z" transform="translate(-1702.556 -510.113)" fill="#59c2ef"/>
        <path id="Trazado_110241" data-name="Trazado 110241" d="M1729.456,511.823c.517-.008,1.035-.023,1.552-.023q10.46,0,20.92,0c.258,0,.516.017.775.027a.81.81,0,0,1,.277.691c.015,1.463.018,2.926,0,4.389a.754.754,0,0,1-.245.638,1.831,1.831,0,0,1-.706.047q-10.928,0-21.856,0c-.924,0-.988-.055-1-.991-.014-1.3-.011-2.594,0-3.891A1,1,0,0,1,1729.456,511.823Z" transform="translate(-1713.319 -510.126)" fill="#fefefe"/>
        <path id="Trazado_110242" data-name="Trazado 110242" d="M1752.7,627.545c-.108.009-.214.027-.322.027q-11.334,0-22.669,0c-.085,0-.172-.015-.257-.023a.822.822,0,0,1-.277-.695c-.016-1.447-.027-2.894.005-4.34.014-.634.139-.734.786-.736,1.533,0,3.067-.006,4.6.006.172,0,.462-.153.489.217.038.41.156.765.607.895a.972.972,0,0,0,1.025-.388c.223-.232.471-.44.707-.659a1.034,1.034,0,0,1,.632-.07q7.008-.006,14.016,0c.849,0,.926.065.938.921.017,1.341.012,2.682,0,4.023A.923.923,0,0,1,1752.7,627.545Z" transform="translate(-1713.318 -562.74)" fill="#fefefe"/>
        <path id="Trazado_110243" data-name="Trazado 110243" d="M1777.885,611.534c-2.314.008-4.628.006-6.942.032-.425.005-.494-.164-.491-.534.014-1.9.008-3.807.006-5.711,0-1-.225-1.223-1.219-1.224q-5.8,0-11.607,0c-.106-.253.106-.327.212-.434.835-.847,1.689-1.677,2.515-2.532a1.138,1.138,0,0,1,.907-.378c2.574.015,5.148.008,7.722.008,1.311,0,1.471-.164,1.471-1.5,0-2.553.009-5.105-.009-7.658a1.2,1.2,0,0,1,.4-.964c.691-.654,1.356-1.336,2.022-2.016a.928.928,0,0,1,.728-.336c1.427.022,2.854.019,4.282.026a.773.773,0,0,1,.264.632c.015.646.025,1.293,0,1.938-.029.674-.193.836-.86.848-.84.016-1.681.018-2.521,0a5.465,5.465,0,0,0-1.784.225.707.707,0,0,0-.531.786c-.017,1.489-.027,2.979,0,4.469.012.587.224.772.871.791,1.252.036,2.5,0,3.757.018a1.061,1.061,0,0,1,.9.265,6.526,6.526,0,0,1,.009,3.266,1.058,1.058,0,0,1-.9.269c-1.167.015-2.333-.01-3.5.012-.933.018-1.141.23-1.149,1.161-.01,1.318-.015,2.636,0,3.954.01.8.236,1.036,1.052,1.058,1.187.032,2.376,0,3.564.016a1.126,1.126,0,0,1,.909.247A5.024,5.024,0,0,1,1777.885,611.534Z" transform="translate(-1726.927 -546.724)" fill="#59c2ef"/>
        <path id="Trazado_110244" data-name="Trazado 110244" d="M1705.017,521.782l0,3.249a3,3,0,0,0-.5,2.243c.009.711.013,1.422,0,2.133a4.055,4.055,0,0,0,.4,2.3,20.2,20.2,0,0,1,.107,3.31,3.149,3.149,0,0,0-.5,2.37c0,.8.021,1.594-.007,2.389a2.575,2.575,0,0,0,.507,1.925V545a2.8,2.8,0,0,0-.5,2.119c.014.882.031,1.766-.005,2.647a2.661,2.661,0,0,0,.51,1.918c0,.879,0,1.758,0,2.638,0,.262.008.519-.237.693-.52,1.839-.153,3.72-.268,5.578-.03.48.418.684.5,1.081l0,3.249a3.159,3.159,0,0,0-.5,2.367c-.006.644,0,1.289,0,1.933a3.308,3.308,0,0,0,.5,2.433q0,1.625,0,3.248c-.692.009-1.383.007-2.074.031-.308.011-.44-.095-.406-.406a3.564,3.564,0,0,0,0-.389q0-30.789-.016-61.579c0-.657.154-.878.811-.8.555.064,1.122.029,1.684.038q0,1.624,0,3.247a3.556,3.556,0,0,0-.5,2.562c-.007.579,0,1.16,0,1.739A3.308,3.308,0,0,0,1705.017,521.782Z" transform="translate(-1700.569 -510.103)" fill="#95dbf9"/>
        <path id="Trazado_110245" data-name="Trazado 110245" d="M1727.375,535.716v38.172c-.714.008-1.427.005-2.141.029-.315.011-.437-.109-.406-.414.01-.107,0-.216,0-.325q0-18.376-.013-36.753c0-.589.139-.8.744-.745S1726.77,535.708,1727.375,535.716Z" transform="translate(-1711.239 -521.549)" fill="#e5e6e7"/>
        <path id="Trazado_110246" data-name="Trazado 110246" d="M1791.859,594.958l0-3.254c.775-.783.612-1.778.616-2.734q.005-1.168,0-2.336c-.007-1.158-.12-1.273-1.254-1.28-1.212-.006-2.423.009-3.635-.009-.295,0-.623.034-.785-.317a30.3,30.3,0,0,1,3.737-.08c1.51-.036,1.3.19,1.318-1.294.007-.647,0-1.294,0-1.94.664-.087.9-.5.892-1.129-.014-1.233.024-2.467-.017-3.7a1.52,1.52,0,0,1,.543-1.3,11.3,11.3,0,0,0,.952-1.085,1,1,0,0,1,.183.778q.006,14.437.019,28.874c0,.653-.154.893-.821.82-.577-.063-1.166-.026-1.749-.034q0-1.626,0-3.253c.8-.771.609-1.767.617-2.717.005-.647-.036-1.3.01-1.942A2.564,2.564,0,0,0,1791.859,594.958Z" transform="translate(-1740.896 -540.129)" fill="#219fd5"/>
        <path id="Trazado_110247" data-name="Trazado 110247" d="M1791.853,535.043c0-.819-.039-1.641.014-2.457.041-.647-.21-.808-.815-.786-1.185.042-2.372.015-3.558.01a1.3,1.3,0,0,1-.7-.081c.181-.377.537-.313.85-.318,1.233-.018,2.466,0,3.7-.01.951-.008,1.111-.159,1.121-1.083.014-1.255-.038-2.512.021-3.763.031-.645-.4-1.013-.634-1.5l0-3.254c.795-.771.611-1.766.617-2.716,0-.648-.037-1.3.01-1.942a2.57,2.57,0,0,0-.627-2.07q0-1.626,0-3.253c.692-.007,1.383,0,2.074-.028.369-.014.5.126.486.489-.019.67,0,1.34,0,2.01q0,12.645,0,25.291a1.323,1.323,0,0,1-.142.836c-.5-.543-.967-1.041-1.426-1.545-.147-.161-.094-.37-.1-.56-.005-.713-.014-1.427,0-2.14C1792.758,535.537,1792.519,535.127,1791.853,535.043Z" transform="translate(-1740.896 -510.121)" fill="#219fd5"/>
        <path id="Trazado_110248" data-name="Trazado 110248" d="M1774.311,558.2q0-11.238-.009-22.475c.647-.009,1.3,0,1.941-.036.42-.026.547.1.542.532-.023,1.944-.01,3.889-.01,5.833,0,4.3-.014,8.6.016,12.9a1.74,1.74,0,0,1-.621,1.453C1775.526,556.979,1774.929,557.6,1774.311,558.2Z" transform="translate(-1734.917 -521.558)" fill="#e5e6e7"/>
        <path id="Trazado_110249" data-name="Trazado 110249" d="M1770.042,583.228c-.116.126-.227.256-.348.376l-13.311,13.311c-1.163,1.162-2.336,2.315-3.481,3.5-.315.325-.5.412-.855.027-.74-.8-.766-.777-.009-1.533q8.193-8.193,16.374-16.4c.437-.44.692-.424,1.031.026C1769.621,582.771,1769.906,582.922,1770.042,583.228Z" transform="translate(-1723.997 -543.807)" fill="#e5e6e7"/>
        <path id="Trazado_110250" data-name="Trazado 110250" d="M1747.83,596.28a10.188,10.188,0,0,1-1.036-1.064c-.189-.256.18-.386.324-.53q8.362-8.382,16.728-16.76c.4-.4.619-.4.925.025a1.7,1.7,0,0,0,.366.366c.337.246.276.429,0,.707q-8.476,8.451-16.934,16.921C1748.1,596.049,1747.981,596.144,1747.83,596.28Z" transform="translate(-1721.73 -541.627)" fill="#fefefe"/>
        <path id="Trazado_110251" data-name="Trazado 110251" d="M1727.375,511.812c0,1.688.01,3.376-.013,5.063-.007.48.151.636.633.635q11.295-.022,22.59-.018a2.572,2.572,0,0,1,2.467.028,13.849,13.849,0,0,1-2.826.09c-8.241.012-16.483,0-24.724.009-.542,0-.7-.148-.684-.687.035-1.535.025-3.071,0-4.607-.006-.419.109-.574.545-.546C1726.034,511.82,1726.706,511.8,1727.375,511.812Z" transform="translate(-1711.238 -510.115)" fill="#e5e6e7"/>
        <path id="Trazado_110252" data-name="Trazado 110252" d="M1760.259,627.533c0-1.667-.019-3.334.011-5,.01-.544-.172-.7-.705-.7-4.87.015-9.741,0-14.611,0,.186-.167.412-.092.62-.093,5.508,0,11.017,0,16.525-.013.5,0,.659.121.647.64-.036,1.554-.029,3.11,0,4.665.007.431-.123.559-.543.532C1761.554,627.529,1760.906,627.542,1760.259,627.533Z" transform="translate(-1720.874 -562.728)" fill="#e5e6e7"/>
        <path id="Trazado_110253" data-name="Trazado 110253" d="M1732.986,621.974a.77.77,0,0,0-.61-.141c-1.422,0-2.845.022-4.268-.013-.557-.014-.756.139-.742.722.037,1.659.016,3.319.017,4.979-.711.008-1.423.006-2.133.029-.3.01-.419-.091-.417-.4q.016-2.492,0-4.984c0-.345.132-.441.459-.44,2.459.005,4.918-.006,7.378,0C1732.8,621.721,1733.136,621.576,1732.986,621.974Z" transform="translate(-1711.246 -562.712)" fill="#e5e6e7"/>
        <path id="Trazado_110254" data-name="Trazado 110254" d="M1776.695,517.528l-2.467-.027q.019-2.839.039-5.677c.709-.009,1.418-.014,2.127-.03.234-.005.353.055.35.321C1776.721,513.919,1776.709,515.723,1776.695,517.528Z" transform="translate(-1734.882 -510.124)" fill="#e5e6e7"/>
        <path id="Trazado_110255" data-name="Trazado 110255" d="M1794.005,567.165c.511.495,1.015,1,1.537,1.482.224.209.232.361.008.581q-1.5,1.476-2.978,2.979c-.227.231-.376.2-.578-.02-.485-.52-.987-1.025-1.483-1.535a.792.792,0,0,1,.317-.612q1.273-1.291,2.565-2.564A.759.759,0,0,1,1794.005,567.165Z" transform="translate(-1742.673 -536.618)" fill="#d8383c"/>
        <path id="Trazado_110256" data-name="Trazado 110256" d="M1792.508,565.666c-1.123,1.2-2.279,2.374-3.494,3.486-.493-.479-.981-.964-1.482-1.434-.2-.192-.2-.332,0-.528q1.517-1.5,3.012-3.013c.2-.2.339-.193.527.006C1791.544,564.684,1792.029,565.173,1792.508,565.666Z" transform="translate(-1741.176 -535.119)" fill="#ef5458"/>
        <path id="Trazado_110257" data-name="Trazado 110257" d="M1774.011,599.477l2.479-2.348c.073.024,0,.178,0,.29,0,1.792-.01,3.585.014,5.377.006.432-.124.558-.543.532-.645-.039-1.293-.026-1.94-.035-.107-.107-.236-.213-.237-.373A8.288,8.288,0,0,1,1774.011,599.477Z" transform="translate(-1734.637 -550.957)" fill="#e5e6e7"/>
        <path id="Trazado_110258" data-name="Trazado 110258" d="M1770.86,601.632l.011,3.815h-3.74Z" transform="translate(-1731.486 -553.112)" fill="#fefefe"/>
        <path id="Trazado_110259" data-name="Trazado 110259" d="M1784.495,575.847c-.495-.481-.986-.966-1.488-1.44-.167-.158-.208-.261-.034-.472.864-1.051.858-1.06,1.789-.123.318.321.623.656.934.984C1785.487,575.366,1785.2,575.843,1784.495,575.847Z" transform="translate(-1739.012 -539.472)" fill="#fdfdfd"/>
        <path id="Trazado_110260" data-name="Trazado 110260" d="M1785.994,577.378l1.2-1.051c.507.49,1.011.982,1.522,1.467.165.157.2.269.033.477-.837,1.048-.85,1.058-1.78.123C1786.638,578.062,1786.319,577.717,1785.994,577.378Z" transform="translate(-1740.512 -541.003)" fill="#e5e6e7"/>
        <path id="Trazado_110261" data-name="Trazado 110261" d="M1788.6,562.041c0-.684.008-1.368,0-2.053,0-.274.089-.381.371-.378.882.012,1.765,0,2.647.006.142,0,.351-.038.3.2-.044.2-.208.063-.309.033a.913.913,0,0,0-.966.361l-1.866,1.95Z" transform="translate(-1741.757 -533.005)" fill="#fbfbfb"/>
        <path id="Trazado_110262" data-name="Trazado 110262" d="M1793.125,581.265c0,.515-.008,1.089,0,1.661.006.247-.076.343-.33.337-.573-.014-1.146,0-1.7,0Z" transform="translate(-1742.954 -543.366)" fill="#fefefe"/>
        <path id="Trazado_110263" data-name="Trazado 110263" d="M1746.745,616.107l.825.768c-.149.21-.313.136-.449.138-1.374.017-1.635-.345-1.262-1.733,0,0,.03-.008.042,0a.29.29,0,0,1,.052.037,1.762,1.762,0,0,1,.186,1.4c.029.08.117-.044.034-.019C1746.123,616.271,1746.412,616.168,1746.745,616.107Z" transform="translate(-1721.233 -559.639)" fill="#dbdadd"/>
        <path id="Trazado_110264" data-name="Trazado 110264" d="M1746.954,616.144l-.691.786a4.6,4.6,0,0,1-.1-1.579Z" transform="translate(-1721.443 -559.677)" fill="#fefefe"/>
        <path id="Trazado_110265" data-name="Trazado 110265" d="M1745.124,538.9q3.149,0,6.3,0c.9,0,1.155.254,1.159,1.152,0,.931.009,1.861,0,2.792-.008.725-.308,1.031-1.025,1.032q-6.459.008-12.918,0c-.731,0-1-.283-1.013-1.028-.01-.952-.008-1.9,0-2.856.006-.84.245-1.087,1.076-1.09C1740.84,538.891,1742.983,538.9,1745.124,538.9Z" transform="translate(-1717.363 -523.091)"/>
        <path id="Trazado_110266" data-name="Trazado 110266" d="M1742.016,578.788h-9.472a3.376,3.376,0,0,1-.583-.016.824.824,0,0,1-.048-1.627,2.386,2.386,0,0,1,.58-.028h19.073a3.119,3.119,0,0,1,.518.013.829.829,0,0,1-.014,1.65,3.817,3.817,0,0,1-.518.01Z" transform="translate(-1714.313 -541.378)"/>
        <path id="Trazado_110267" data-name="Trazado 110267" d="M1742,559.652q-4.833,0-9.665,0c-.432,0-.825-.038-1.031-.494a.786.786,0,0,1,.546-1.112,2.847,2.847,0,0,1,.707-.057q9.47,0,18.941,0c.129,0,.26-.006.389,0,.61.041.942.345.935.852s-.347.8-.963.8Q1746.933,559.658,1742,559.652Z" transform="translate(-1714.308 -532.228)"/>
        <path id="Trazado_110268" data-name="Trazado 110268" d="M1742.02,569.252q-4.7,0-9.406,0a3.658,3.658,0,0,1-.646-.028.817.817,0,0,1,.071-1.628c.129-.009.259-.005.389-.005h19.2a3.164,3.164,0,0,1,.518.016.75.75,0,0,1,.68.745.731.731,0,0,1-.566.832,2.789,2.789,0,0,1-.7.066Q1746.787,569.256,1742.02,569.252Z" transform="translate(-1714.315 -536.821)"/>
        <path id="Trazado_110269" data-name="Trazado 110269" d="M1706.552,620.455a.99.99,0,0,1-.825-1.13q.038-2.236,0-4.474a.985.985,0,0,1,.825-1.129q2.3.015,4.6.031c.975.007,1.23.259,1.232,1.228q0,2.139,0,4.277c0,.885-.273,1.156-1.166,1.166C1709.661,620.439,1708.106,620.445,1706.552,620.455Z" transform="translate(-1702.104 -558.897)"/>
        <path id="Trazado_110270" data-name="Trazado 110270" d="M1706.552,524.809a.99.99,0,0,1-.825-1.13q.038-2.237,0-4.475a.988.988,0,0,1,.825-1.13q2.3.016,4.6.032c.978.008,1.23.258,1.232,1.229,0,1.447.006,2.894,0,4.341,0,.8-.288,1.088-1.1,1.1C1709.7,524.8,1708.128,524.8,1706.552,524.809Z" transform="translate(-1702.104 -513.13)"/>
        <path id="Trazado_110271" data-name="Trazado 110271" d="M1791.212,518.081a1.036,1.036,0,0,1,.89,1.2q-.038,2.159,0,4.319a1.039,1.039,0,0,1-.891,1.2q-2.271-.014-4.541-.028c-.99-.007-1.22-.236-1.222-1.228,0-1.45-.006-2.9,0-4.348,0-.822.266-1.085,1.092-1.094C1788.1,518.094,1789.655,518.09,1791.212,518.081Z" transform="translate(-1740.249 -513.133)"/>
        <path id="Trazado_110272" data-name="Trazado 110272" d="M1706.551,563.06a.906.906,0,0,1-.817-1.045q.021-2.3,0-4.591a.911.911,0,0,1,.817-1.047c1.577.007,3.154.011,4.731.021.807.005,1.1.285,1.1,1.086q.011,2.236,0,4.473c0,.806-.283,1.074-1.1,1.08C1709.705,563.047,1708.128,563.052,1706.551,563.06Z" transform="translate(-1702.107 -531.457)"/>
        <path id="Trazado_110273" data-name="Trazado 110273" d="M1706.552,582.2a.916.916,0,0,1-.818-1.049q.022-2.3,0-4.591a.9.9,0,0,1,.816-1.045q2.365.012,4.731.024c.823.006,1.1.269,1.1,1.076q.012,2.236,0,4.473c0,.8-.3,1.084-1.1,1.089C1709.706,582.192,1708.129,582.2,1706.552,582.2Z" transform="translate(-1702.107 -540.616)"/>
        <path id="Trazado_110274" data-name="Trazado 110274" d="M1706.441,543.9a.9.9,0,0,1-.709-1.012c.011-1.514.019-3.028,0-4.542a.973.973,0,0,1,.821-1.126q2.33.013,4.659.026c.887.006,1.17.28,1.173,1.153q.008,2.2,0,4.4c0,.816-.271,1.087-1.086,1.092C1709.677,543.9,1708.059,543.9,1706.441,543.9Z" transform="translate(-1702.105 -522.29)"/>
        <path id="Trazado_110275" data-name="Trazado 110275" d="M1791.207,537.223a1,1,0,0,1,.892,1.144c-.017,1.471,0,2.942-.007,4.413,0,.856-.26,1.095-1.141,1.1l-4.8.02a.9.9,0,0,1-.707-1.013c.01-1.514,0-3.029.006-4.543,0-.822.27-1.088,1.086-1.095C1788.092,537.234,1789.649,537.231,1791.207,537.223Z" transform="translate(-1740.248 -522.292)"/>
        <path id="Trazado_110276" data-name="Trazado 110276" d="M1706.55,601.37a.979.979,0,0,1-.822-1.129c.023-1.493.016-2.986,0-4.479a.977.977,0,0,1,.583-1.051c1.683,0,3.365-.017,5.048-.011.733,0,1.013.287,1.018,1.025q.015,2.3,0,4.595c-.006.709-.32,1.014-1.042,1.022C1709.741,601.36,1708.145,601.362,1706.55,601.37Z" transform="translate(-1702.104 -549.794)"/>
        <path id="Trazado_110277" data-name="Trazado 110277" d="M1791.212,613.728a1.038,1.038,0,0,1,.891,1.205q-.038,2.159,0,4.319a1.037,1.037,0,0,1-.891,1.2l-4.541-.029c-.991-.007-1.221-.235-1.223-1.226,0-1.449-.006-2.9,0-4.348,0-.822.265-1.086,1.092-1.1C1788.1,613.741,1789.655,613.737,1791.212,613.728Z" transform="translate(-1740.249 -558.9)"/>
        <path id="Trazado_110278" data-name="Trazado 110278" d="M1786.15,594.688l4.8.02c.88,0,1.136.242,1.141,1.1.007,1.471-.009,2.943.007,4.413a1,1,0,0,1-.892,1.144q-2.3-.011-4.606-.023c-.9-.006-1.15-.257-1.153-1.161,0-1.493.006-2.985,0-4.478A.9.9,0,0,1,1786.15,594.688Z" transform="translate(-1740.248 -549.789)"/>
        <path id="Trazado_110279" data-name="Trazado 110279" d="M1746.564,543.7c-1.753,0-3.507-.016-5.26.011-.442.007-.542-.136-.539-.55.007-1.123-.011-1.123,1.136-1.123,3.291,0,6.581.009,9.871-.01.486,0,.679.087.658.628-.043,1.044-.008,1.045-1.06,1.045Z" transform="translate(-1718.87 -524.592)" fill="#fdfdfd"/>
        <path id="Trazado_110280" data-name="Trazado 110280" d="M1712.12,618.622c0,.515.2,1.2-.052,1.5-.3.361-1.013.105-1.544.113s-1.237.237-1.564-.088c-.359-.357-.113-1.068-.118-1.624-.016-1.624-.006-1.633,1.583-1.62.556,0,1.274-.238,1.626.1S1712.106,618.069,1712.12,618.622Z" transform="translate(-1703.557 -560.382)" fill="#fdfdfd"/>
        <path id="Trazado_110281" data-name="Trazado 110281" d="M1712.176,522.98c-.081.53.231,1.235-.137,1.545-.307.26-.987.092-1.5.093-.538,0-1.25.181-1.57-.089-.378-.32-.125-1.058-.124-1.612,0-.532-.247-1.24.121-1.549.309-.26.99-.09,1.507-.089.536,0,1.245-.177,1.564.094C1712.415,521.7,1712.095,522.429,1712.176,522.98Z" transform="translate(-1703.556 -514.636)" fill="#fdfdfd"/>
        <path id="Trazado_110282" data-name="Trazado 110282" d="M1791.877,522.932c-.057.534.22,1.224-.11,1.563s-1.025.1-1.558.1-1.22.24-1.558-.1-.1-1.031-.1-1.565-.239-1.224.1-1.564,1.027-.1,1.56-.1,1.227-.242,1.557.1S1791.823,522.4,1791.877,522.932Z" transform="translate(-1741.695 -514.617)" fill="#fdfdfd"/>
        <path id="Trazado_110283" data-name="Trazado 110283" d="M1710.589,562.864c-1.754,0-1.765,0-1.749-1.6.006-.556-.246-1.293.119-1.614.311-.273,1.031-.106,1.569-.089s1.235-.246,1.543.115c.26.3.089.987.088,1.5,0,.537.174,1.247-.1,1.564C1711.739,563.12,1711,562.788,1710.589,562.864Z" transform="translate(-1703.556 -532.945)" fill="#fefefe"/>
        <path id="Trazado_110284" data-name="Trazado 110284" d="M1712.218,580.555c-.047.417.227,1.113-.108,1.39-.314.259-.984.09-1.5.1-.389.008-.78-.02-1.167.008s-.587-.064-.563-.522c.038-.755.026-1.513,0-2.269-.012-.377.077-.547.5-.531.8.03,1.6.022,2.4,0,.331-.008.466.081.443.431C1712.2,579.6,1712.218,580.029,1712.218,580.555Z" transform="translate(-1703.612 -542.153)" fill="#fefefe"/>
        <path id="Trazado_110285" data-name="Trazado 110285" d="M1710.471,543.768c-1.638-.023-1.645-.023-1.634-1.669,0-.536-.23-1.235.09-1.566.349-.361,1.059-.1,1.611-.117.514-.016,1.2-.178,1.5.081.359.307.109,1.012.11,1.542,0,.551.253,1.282-.117,1.6C1711.716,543.918,1711.007,543.743,1710.471,543.768Z" transform="translate(-1703.555 -523.783)" fill="#fdfdfd"/>
        <path id="Trazado_110286" data-name="Trazado 110286" d="M1791.876,542.066c-.055.534.219,1.224-.109,1.563s-1.025.1-1.559.1c-1.669.015-1.679.006-1.664-1.673,0-.534-.237-1.231.1-1.559s1.028-.092,1.563-.089,1.229-.238,1.557.095S1791.823,541.533,1791.876,542.066Z" transform="translate(-1741.694 -523.779)" fill="#fdfdfd"/>
        <path id="Trazado_110287" data-name="Trazado 110287" d="M1708.826,599.511c.093-.578-.233-1.289.156-1.642.347-.316,1.034-.086,1.57-.087.514,0,1.181-.223,1.5.087.353.341.095,1.021.113,1.551s.19,1.252-.08,1.565c-.316.365-1.052.12-1.6.115-.529,0-1.23.25-1.539-.115C1708.68,600.675,1708.848,600,1708.826,599.511Z" transform="translate(-1703.568 -551.231)" fill="#fdfdfd"/>
        <path id="Trazado_110288" data-name="Trazado 110288" d="M1790.175,620.224c-.516,0-1.2.2-1.506-.052-.369-.305-.12-1.015-.121-1.548,0-.554-.254-1.292.124-1.612.32-.271,1.031-.09,1.57-.089.515,0,1.2-.169,1.5.092.361.31.111,1.014.112,1.545,0,.552.254,1.291-.116,1.606-.311.264-1.026.054-1.563.054Z" transform="translate(-1741.694 -560.4)" fill="#fdfdfd"/>
        <path id="Trazado_110289" data-name="Trazado 110289" d="M1791.886,599.37c-.067.617.211,1.314-.122,1.641s-1.025.092-1.559.091-1.226.235-1.56-.094-.1-1.027-.1-1.561c-.014-1.671-.005-1.681,1.67-1.666.534.005,1.256-.244,1.548.11C1792.035,598.222,1791.865,598.919,1791.886,599.37Z" transform="translate(-1741.694 -551.231)" fill="#fdfdfd"/>
      </g>
    </g>
  </g>
</svg>
