<svg xmlns="http://www.w3.org/2000/svg" width="93" height="93" viewBox="0 0 93 93">
  <g id="Grupo_79484" data-name="Grupo 79484" transform="translate(-439.303 -5062)">
    <circle id="Elipse_4752" data-name="Elipse 4752" cx="46.5" cy="46.5" r="46.5" transform="translate(439.303 5062)" fill="#b2ebf2"/>
    <g id="Grupo_78804" data-name="Grupo 78804" transform="translate(-1155.634 4108.204)">
      <path id="Trazado_133358" data-name="Trazado 133358" d="M1607.825,973.137a1.513,1.513,0,0,1,1.549-.837q33.259.02,66.518.012c1.165,0,1.527.37,1.527,1.552q0,21.742,0,43.485a16.224,16.224,0,0,1-31.926,4.3c-.132-.528-.338-.651-.855-.65q-17.564.024-35.128.025a1.865,1.865,0,0,1-1.685-.717Z" fill="#231f20"/>
      <path id="Trazado_133359" data-name="Trazado 133359" d="M1682.818,1016.957a17.352,17.352,0,0,0-3.3-3.9,15.767,15.767,0,0,0-9.206-3.906,1.121,1.121,0,0,1-.958-.6q-4.246-6.828-8.523-13.637c-.76-1.214-1.685-1.212-2.445,0q-5.267,8.43-10.531,16.863c-.5.807-.5.807-1,.035q-1.726-2.682-3.451-5.364c-.731-1.132-1.647-1.129-2.378.007q-4.774,7.419-9.532,14.847a.956.956,0,0,1-.973.526c-.677-.037-1.359-.016-2.038-.007a1.2,1.2,0,0,0-1.347,1.132c-.021.7.521,1.18,1.358,1.181q11.688,0,23.377-.013c.632,0,.907.1.8.794-.076.482.154,1.158-.1,1.429-.3.328-.981.105-1.494.106q-16.208.008-32.416.019c-.623,0-.825-.1-.824-.786q.036-21.27,0-42.541c0-.628.167-.763.774-.763q31.736.025,63.472,0c.567,0,.751.093.75.719q-.035,16.582-.017,33.163Z" transform="translate(-7.713 -7.766)" fill="#c8f2fe"/>
      <path id="Trazado_133360" data-name="Trazado 133360" d="M1793.505,1136.553a13.923,13.923,0,1,1,13.962-13.872A13.9,13.9,0,0,1,1793.505,1136.553Z" transform="translate(-132.365 -105.098)" fill="#ea423f"/>
      <path id="Trazado_133361" data-name="Trazado 133361" d="M1748.493,1047.548c2.459,3.93,4.859,7.764,7.256,11.6a.833.833,0,0,1,.052.228,16.58,16.58,0,0,0-6.075,2.04,15.947,15.947,0,0,0-7.625,9.968c-.138.509-.325.672-.853.667-2.644-.028-5.287-.013-8.056-.013Z" transform="translate(-96.591 -57.976)" fill="#bedda6"/>
      <path id="Trazado_133362" data-name="Trazado 133362" d="M1696.163,1097.9c1.242,1.927,2.433,3.786,3.637,5.635.147.225.054.373-.055.547q-2.014,3.218-4.022,6.439a.562.562,0,0,1-.538.312c-2.4-.009-4.793-.005-7.329-.005Z" transform="translate(-61.662 -96.768)" fill="#bedda6"/>
      <path id="Trazado_133363" data-name="Trazado 133363" d="M1663.458,1022.508a4.63,4.63,0,1,1,4.615,4.622A4.6,4.6,0,0,1,1663.458,1022.508Z" transform="translate(-42.864 -35.107)" fill="#231f20"/>
      <path id="Trazado_133364" data-name="Trazado 133364" d="M1680.854,994.85a12.259,12.259,0,0,1-.009,1.289,1.1,1.1,0,0,1-1.134,1.036,1.076,1.076,0,0,1-1.129-1.037,21.473,21.473,0,0,1,.007-2.578,1.045,1.045,0,0,1,1.09-1,1.123,1.123,0,0,1,1.169,1,1.232,1.232,0,0,1,.025.2c0,.362,0,.725,0,1.087Z" transform="translate(-54.49 -15.605)" fill="#242021"/>
      <path id="Trazado_133365" data-name="Trazado 133365" d="M1680.859,1065.668a11.966,11.966,0,0,1-.008,1.221,1.13,1.13,0,0,1-1.118,1.064,1.1,1.1,0,0,1-1.145-1.026,21.542,21.542,0,0,1,0-2.576,1.077,1.077,0,0,1,1.142-1.022,1.11,1.11,0,0,1,1.122,1.051C1680.893,1064.805,1680.859,1065.239,1680.859,1065.668Z" transform="translate(-54.491 -70.135)" fill="#242021"/>
      <path id="Trazado_133366" data-name="Trazado 133366" d="M1706.05,1048.111a1.066,1.066,0,0,1,.539.175c.646.368,1.3.728,1.932,1.118a1.153,1.153,0,1,1-1.139,2q-1.042-.56-2.047-1.187a1.066,1.066,0,0,1-.454-1.305A1.136,1.136,0,0,1,1706.05,1048.111Z" transform="translate(-74.728 -58.409)" fill="#231f20"/>
      <path id="Trazado_133367" data-name="Trazado 133367" d="M1661.8,1000.813a1.255,1.255,0,0,1-.783,1.214.989.989,0,0,1-1.223-.3,12.541,12.541,0,0,1-1.418-2.448,1,1,0,0,1,.343-1.213.964.964,0,0,1,1.306-.111A8.823,8.823,0,0,1,1661.8,1000.813Z" transform="translate(-38.879 -19.606)" fill="#231f20"/>
      <path id="Trazado_133368" data-name="Trazado 133368" d="M1709.16,1013.924a1.244,1.244,0,0,1-.653,1.041c-.626.358-1.241.736-1.876,1.077a1.156,1.156,0,1,1-1.156-2c.655-.4,1.312-.8,2-1.14A1.153,1.153,0,0,1,1709.16,1013.924Z" transform="translate(-74.731 -31.184)" fill="#231f20"/>
      <path id="Trazado_133369" data-name="Trazado 133369" d="M1643.508,1050.408a1.211,1.211,0,0,1,.575-.946c.682-.394,1.355-.808,2.052-1.175a1.147,1.147,0,0,1,1.141,1.989c-.665.422-1.346.825-2.05,1.179A1.156,1.156,0,0,1,1643.508,1050.408Z" transform="translate(-27.491 -58.427)" fill="#231f20"/>
      <path id="Trazado_133370" data-name="Trazado 133370" d="M1644.829,1012.7a2.4,2.4,0,0,1,.469.158c.687.385,1.377.767,2.043,1.186a1.148,1.148,0,0,1-1.128,2c-.717-.376-1.421-.782-2.1-1.221a1.069,1.069,0,0,1-.433-1.365A1.184,1.184,0,0,1,1644.829,1012.7Z" transform="translate(-27.556 -31.128)" fill="#231f20"/>
      <path id="Trazado_133371" data-name="Trazado 133371" d="M1661.864,1060.488a2.717,2.717,0,0,1-.177.5c-.373.669-.745,1.339-1.153,1.986a1.146,1.146,0,0,1-1.579.434,1.126,1.126,0,0,1-.413-1.579q.555-1.043,1.182-2.048a1.091,1.091,0,0,1,1.363-.457A1.168,1.168,0,0,1,1661.864,1060.488Z" transform="translate(-38.95 -66.99)" fill="#231f20"/>
      <path id="Trazado_133372" data-name="Trazado 133372" d="M1697.134,1062.333a1.145,1.145,0,0,1-.749,1.053,1.026,1.026,0,0,1-1.281-.332,23.256,23.256,0,0,1-1.38-2.4,1.131,1.131,0,0,1,1.8-1.235,9.74,9.74,0,0,1,1.59,2.728A.7.7,0,0,1,1697.134,1062.333Z" transform="translate(-66.102 -66.888)" fill="#231f20"/>
      <path id="Trazado_133373" data-name="Trazado 133373" d="M1697.235,999.186a2.533,2.533,0,0,1-.17.518c-.382.688-.761,1.38-1.186,2.042a1.113,1.113,0,0,1-1.534.4,1.136,1.136,0,0,1-.436-1.576q.555-1.041,1.187-2.04a1.061,1.061,0,0,1,1.281-.5A1.186,1.186,0,0,1,1697.235,999.186Z" transform="translate(-66.206 -19.78)" fill="#231f20"/>
      <path id="Trazado_133374" data-name="Trazado 133374" d="M1630.353,1156.489c-.406,0-.812.021-1.216,0a1.155,1.155,0,0,1-1.109-1.139,1.137,1.137,0,0,1,1.033-1.145,23.561,23.561,0,0,1,2.567,0,1.146,1.146,0,0,1-.058,2.284C1631.165,1156.51,1630.758,1156.489,1630.353,1156.489Z" transform="translate(-15.565 -140.122)" fill="#231f20"/>
      <path id="Trazado_133375" data-name="Trazado 133375" d="M1640.484,1035.069c-.43,0-.863.028-1.29-.007a1.1,1.1,0,0,1-1.03-1.072,1.04,1.04,0,0,1,.855-1.148,8.88,8.88,0,0,1,2.9,0,1.021,1.021,0,0,1,.851,1.206,1.1,1.1,0,0,1-1.066,1.029c-.045,0-.09.008-.135.008h-1.087Z" transform="translate(-23.375 -46.553)" fill="#241f20"/>
      <path id="Trazado_133376" data-name="Trazado 133376" d="M1711.252,1035.213c-.385,0-.771.018-1.155,0a1.1,1.1,0,0,1-1.115-1.051,1.064,1.064,0,0,1,.938-1.21,18.4,18.4,0,0,1,2.711,0,1.112,1.112,0,0,1,.969,1.2,1.142,1.142,0,0,1-1.125,1.059C1712.068,1035.232,1711.659,1035.212,1711.252,1035.213Z" transform="translate(-77.936 -46.689)" fill="#241f20"/>
      <path id="Trazado_133377" data-name="Trazado 133377" d="M1806.454,1139.82c0,1.222.006,2.445,0,3.667-.005.826-.427,1.313-1.126,1.329-.724.016-1.183-.489-1.186-1.34-.006-2.422-.017-4.845.01-7.267.006-.516-.106-.687-.658-.679-2.376.034-4.754.016-7.131.014-.991,0-1.5-.4-1.485-1.169s.528-1.146,1.522-1.147c2.377,0,4.754-.019,7.131.013.524.007.627-.147.621-.64-.026-2.4-.014-4.8-.011-7.2,0-.923.424-1.438,1.163-1.435s1.15.512,1.151,1.444c0,2.422.013,4.844-.01,7.267,0,.449.124.563.564.559,2.445-.021,4.89-.005,7.335-.013a1.254,1.254,0,0,1,1.285.7,1.154,1.154,0,0,1-1.2,1.618c-2.4.011-4.8.022-7.2-.009-.588-.008-.826.1-.792.757C1806.5,1137.464,1806.454,1138.643,1806.454,1139.82Z" transform="translate(-144.117 -116.856)" fill="#231f20"/>
      <path id="Trazado_133378" data-name="Trazado 133378" d="M1678.173,1030.29a2.313,2.313,0,1,1-4.626-.061,2.313,2.313,0,0,1,4.626.061Z" transform="translate(-50.637 -42.894)" fill="#feabb8"/>
    </g>
  </g>
</svg>
