<svg xmlns="http://www.w3.org/2000/svg" xmlns:xlink="http://www.w3.org/1999/xlink" width="166.031" height="156.134" viewBox="0 0 166.031 156.134">
  <defs>
    <filter id="Trazado_134287" x="15.115" y="8.774" width="134.315" height="134.315" filterUnits="userSpaceOnUse">
      <feOffset input="SourceAlpha"/>
      <feGaussianBlur stdDeviation="2.5" result="blur"/>
      <feFlood flood-color="#3c3939" flood-opacity="0.294"/>
      <feComposite operator="in" in2="blur"/>
      <feComposite in="SourceGraphic"/>
    </filter>
  </defs>
  <g id="Grupo_79432" data-name="Grupo 79432" transform="translate(14374 9861.576)">
    <g id="Grupo_79427" data-name="Grupo 79427">
      <rect id="Rectángulo_34271" data-name="Rectángulo 34271" width="166.031" height="98.339" rx="13" transform="translate(-14374 -9803.781)" fill="#f6f6f6"/>
      <g id="Grupo_79422" data-name="Grupo 79422" transform="translate(315.734)">
        <path id="Trazado_108971" data-name="Trazado 108971" d="M1625.12,1788.316a66.208,66.208,0,0,1,62.354,44.174H1697.8a75.919,75.919,0,0,0-145.366,0h10.329A66.208,66.208,0,0,1,1625.12,1788.316Z" transform="translate(-16232.171 -11640.076)" fill="#2e74bc"/>
        <g transform="matrix(1, 0, 0, 1, -14689.73, -9861.58)" filter="url(#Trazado_134287)">
          <path id="Trazado_134287-2" data-name="Trazado 134287" d="M59.658,0A59.658,59.658,0,1,1,0,59.658,59.658,59.658,0,0,1,59.658,0Z" transform="translate(22.61 16.27)" fill="#4699ed"/>
        </g>
        <path id="Trazado_134288" data-name="Trazado 134288" d="M6.482-2.8a1.128,1.128,0,0,0-.439-.956,5.764,5.764,0,0,0-1.582-.7,11.215,11.215,0,0,1-1.809-.729A2.956,2.956,0,0,1,.835-7.83a2.575,2.575,0,0,1,.487-1.542,3.177,3.177,0,0,1,1.4-1.058,5.265,5.265,0,0,1,2.047-.381A4.793,4.793,0,0,1,6.8-10.4,3.242,3.242,0,0,1,8.192-9.229a3.057,3.057,0,0,1,.494,1.714h-2.2a1.438,1.438,0,0,0-.461-1.139,1.9,1.9,0,0,0-1.3-.406,2.026,2.026,0,0,0-1.252.341,1.074,1.074,0,0,0-.447.9,1.029,1.029,0,0,0,.524.872A5.916,5.916,0,0,0,5.1-6.292a6.661,6.661,0,0,1,2.732,1.4,2.786,2.786,0,0,1,.857,2.08A2.566,2.566,0,0,1,7.639-.641a4.585,4.585,0,0,1-2.82.787A5.445,5.445,0,0,1,2.578-.3,3.546,3.546,0,0,1,1.036-1.538,3.161,3.161,0,0,1,.505-3.354h2.2q0,1.765,2.109,1.765a2.052,2.052,0,0,0,1.223-.319A1.037,1.037,0,0,0,6.482-2.8ZM9.7-4.036a4.7,4.7,0,0,1,.454-2.1,3.324,3.324,0,0,1,1.307-1.428,3.814,3.814,0,0,1,1.981-.505,3.609,3.609,0,0,1,2.618.981A3.939,3.939,0,0,1,17.2-4.424l.015.542A4.142,4.142,0,0,1,16.194-.956a3.539,3.539,0,0,1-2.732,1.1,3.556,3.556,0,0,1-2.736-1.1A4.215,4.215,0,0,1,9.7-3.94Zm2.117.15a2.962,2.962,0,0,0,.425,1.727,1.4,1.4,0,0,0,1.216.6,1.4,1.4,0,0,0,1.2-.591A3.241,3.241,0,0,0,15.1-4.039a2.933,2.933,0,0,0-.432-1.716,1.4,1.4,0,0,0-1.216-.609,1.382,1.382,0,0,0-1.2.605A3.3,3.3,0,0,0,11.821-3.885Zm8.643-4.039.066.916a2.767,2.767,0,0,1,2.278-1.062,2.3,2.3,0,0,1,1.875.74,3.451,3.451,0,0,1,.63,2.212V0H23.2V-5.08a1.379,1.379,0,0,0-.293-.98,1.31,1.31,0,0,0-.974-.3,1.456,1.456,0,0,0-1.34.763V0H18.472V-7.925ZM29.15,0H27.026V-7.925H29.15ZM26.9-9.976a1.042,1.042,0,0,1,.319-.784,1.2,1.2,0,0,1,.868-.308,1.2,1.2,0,0,1,.864.308,1.036,1.036,0,0,1,.322.784,1.039,1.039,0,0,1-.326.791,1.2,1.2,0,0,1-.861.308,1.2,1.2,0,0,1-.861-.308A1.039,1.039,0,0,1,26.9-9.976Zm3.662,5.955A4.776,4.776,0,0,1,31.4-6.973a2.7,2.7,0,0,1,2.274-1.1,2.427,2.427,0,0,1,1.912.864V-11.25h2.124V0H35.793l-.1-.842a2.491,2.491,0,0,1-2.036.989,2.69,2.69,0,0,1-2.245-1.1A4.93,4.93,0,0,1,30.564-4.021Zm2.117.151a3.146,3.146,0,0,0,.388,1.714,1.263,1.263,0,0,0,1.128.6,1.416,1.416,0,0,0,1.384-.831V-5.533a1.4,1.4,0,0,0-1.37-.831Q32.681-6.365,32.681-3.87Zm6.335-.165a4.7,4.7,0,0,1,.454-2.1,3.324,3.324,0,0,1,1.307-1.428,3.814,3.814,0,0,1,1.981-.505,3.609,3.609,0,0,1,2.618.981,3.939,3.939,0,0,1,1.132,2.666l.015.542A4.142,4.142,0,0,1,45.505-.956a3.539,3.539,0,0,1-2.732,1.1,3.556,3.556,0,0,1-2.736-1.1A4.215,4.215,0,0,1,39.016-3.94Zm2.117.15a2.962,2.962,0,0,0,.425,1.727,1.4,1.4,0,0,0,1.216.6,1.4,1.4,0,0,0,1.2-.591,3.241,3.241,0,0,0,.432-1.889,2.933,2.933,0,0,0-.432-1.716,1.4,1.4,0,0,0-1.216-.609,1.382,1.382,0,0,0-1.2.605A3.3,3.3,0,0,0,41.133-3.885Z" transform="translate(-14633 -9752.954)" fill="#fff"/>
        <g id="Grupo_73933" data-name="Grupo 73933" transform="translate(-14626.979 -9819.944)">
          <path id="Trazado_108972" data-name="Trazado 108972" d="M1647.157,1848a8.839,8.839,0,0,1,1.194.438,4.624,4.624,0,0,1,2.443,4.425q.01,5.994,0,11.989,0,5.161,0,10.321a1.564,1.564,0,0,1-.991,1.623,1.4,1.4,0,0,1-1.747-1.367c-.012-.167-.007-.336-.007-.5q0-11.02,0-22.038c0-1.007-.431-1.621-1.227-1.754a1.213,1.213,0,0,0-1.214.55c-2.584,3.39-5.175,6.772-7.742,10.177a1.9,1.9,0,0,1-1.719.9c-.833-.045-1.67-.014-2.5-.01a2.821,2.821,0,0,0-2.853,2.889,36.889,36.889,0,0,0,0,4.457,2.83,2.83,0,0,0,2.851,2.895c.881.006,1.762.024,2.642-.007a1.694,1.694,0,0,1,1.49.774q3.873,5.113,7.767,10.2a1.256,1.256,0,0,0,1.58.572,1.55,1.55,0,0,0,.938-1.513,1.428,1.428,0,0,1,1.459-1.488,1.5,1.5,0,0,1,1.275,1.66,4.481,4.481,0,0,1-3.48,4.478.775.775,0,0,0-.154.069h-1.03c-.028-.02-.054-.052-.085-.058a4.134,4.134,0,0,1-2.6-1.713q-3.661-4.829-7.346-9.634a.659.659,0,0,0-.457-.23c-.789-.026-1.58.028-2.367-.029a5.337,5.337,0,0,1-4.7-3.514,14.709,14.709,0,0,1-.569-2.051v-5.278a3.374,3.374,0,0,0,.073-.33,5.819,5.819,0,0,1,4.645-5.17,24.327,24.327,0,0,1,2.842-.083.653.653,0,0,0,.583-.292q3.7-4.888,7.433-9.752a3.291,3.291,0,0,1,.912-.864,15.607,15.607,0,0,1,1.707-.74Z" transform="translate(-1628 -1848)" fill="#fff"/>
          <path id="Trazado_108973" data-name="Trazado 108973" d="M1691.992,1875.431c-.09.761-.157,1.527-.273,2.282a19.407,19.407,0,0,1-4.229,9.631,1.209,1.209,0,0,1-1.943.055,1.845,1.845,0,0,1-.049-2.3,18.463,18.463,0,0,0,2.113-3.346,17.308,17.308,0,0,0,1.6-8.123,16.575,16.575,0,0,0-2.7-8.621c-.312-.474-.667-.907-1-1.365a1.878,1.878,0,0,1,.035-2.337,1.22,1.22,0,0,1,1.968.091,19.691,19.691,0,0,1,4.347,10.7c.041.394.085.788.128,1.182Z" transform="translate(-1652.254 -1854.486)" fill="#fff"/>
          <path id="Trazado_108974" data-name="Trazado 108974" d="M1684.193,1878.772a7.634,7.634,0,0,1-1,3.808,1.384,1.384,0,0,1-1.911.655,1.365,1.365,0,0,1-.517-1.922,5.167,5.167,0,0,0-.007-5.17,1.361,1.361,0,0,1,.542-1.914,1.378,1.378,0,0,1,1.87.62A7.679,7.679,0,0,1,1684.193,1878.772Z" transform="translate(-1650.756 -1858.871)" fill="#fff"/>
        </g>
      </g>
    </g>
  </g>
</svg>
