<svg xmlns="http://www.w3.org/2000/svg" xmlns:xlink="http://www.w3.org/1999/xlink" width="200" height="176.6" viewBox="0 0 200 176.6">
  <defs>
    <filter id="Trazado_134306" x="17" y="5" width="165" height="162" filterUnits="userSpaceOnUse">
      <feOffset input="SourceAlpha"/>
      <feGaussianBlur stdDeviation="3" result="blur"/>
      <feFlood flood-opacity="0.29"/>
      <feComposite operator="in" in2="blur"/>
      <feComposite in="SourceGraphic"/>
    </filter>
  </defs>
  <g id="Grupo_79452" data-name="Grupo 79452" transform="translate(14756 3667.635)">
    <g id="Trazado_134304" data-name="Trazado 134304" transform="translate(-14744 -3667.635)" fill="none" stroke-linecap="round">
      <path d="M17,0H157.352a17,17,0,0,1,17,17V150a17,17,0,0,1-17,17H17A17,17,0,0,1,0,150V17A17,17,0,0,1,17,0Z" stroke="none"/>
      <path d="M 16.99998474121094 8 C 12.03736877441406 8 7.999984741210938 12.03738403320312 7.999984741210938 17 L 7.999984741210938 150 C 7.999984741210938 154.9626159667969 12.03736877441406 159 16.99998474121094 159 L 157.3521881103516 159 C 162.3148040771484 159 166.3521881103516 154.9626159667969 166.3521881103516 150 L 166.3521881103516 17 C 166.3521881103516 12.03738403320312 162.3148040771484 8 157.3521881103516 8 L 16.99998474121094 8 M 16.99998474121094 0 L 157.3521881103516 0 C 166.7410430908203 0 174.3521881103516 7.61114501953125 174.3521881103516 17 L 174.3521881103516 150 C 174.3521881103516 159.3888244628906 166.7410430908203 167 157.3521881103516 167 L 16.99998474121094 167 C 7.611160278320312 167 -1.52587890625e-05 159.3888244628906 -1.52587890625e-05 150 L -1.52587890625e-05 17 C -1.52587890625e-05 7.61114501953125 7.611160278320312 0 16.99998474121094 0 Z" stroke="none" fill="#d57700"/>
    </g>
    <path id="Trazado_134305" data-name="Trazado 134305" d="M6,0H194a6,6,0,0,1,6,6V80.721a6,6,0,0,1-6,6H6a6,6,0,0,1-6-6V6A6,6,0,0,1,6,0Z" transform="translate(-14756 -3577.756)" fill="#f6f6f6"/>
    <g transform="matrix(1, 0, 0, 1, -14756, -3667.64)" filter="url(#Trazado_134306)">
      <path id="Trazado_134306-2" data-name="Trazado 134306" d="M15,0H132a15,15,0,0,1,15,15V129a15,15,0,0,1-15,15H15A15,15,0,0,1,0,129V15A15,15,0,0,1,15,0Z" transform="translate(26 14)" fill="#fb8c00"/>
    </g>
    <path id="Trazado_134307" data-name="Trazado 134307" d="M3.149-3.757V0H.952V-10.664h4.16a4.813,4.813,0,0,1,2.113.439,3.238,3.238,0,0,1,1.4,1.249,3.482,3.482,0,0,1,.491,1.842A3.062,3.062,0,0,1,8.046-4.662a4.469,4.469,0,0,1-2.97.9Zm0-1.78H5.112a1.93,1.93,0,0,0,1.329-.41A1.492,1.492,0,0,0,6.9-7.119a1.759,1.759,0,0,0-.461-1.267,1.724,1.724,0,0,0-1.274-.5H3.149Zm11.792-.4A5.751,5.751,0,0,0,14.18-6a1.55,1.55,0,0,0-1.575.813V0H10.488V-7.925h2l.059.945a1.961,1.961,0,0,1,1.765-1.091,2.218,2.218,0,0,1,.659.1Zm.425,1.9a4.7,4.7,0,0,1,.454-2.1,3.324,3.324,0,0,1,1.307-1.428,3.814,3.814,0,0,1,1.981-.505,3.609,3.609,0,0,1,2.618.981,3.939,3.939,0,0,1,1.132,2.666l.015.542A4.142,4.142,0,0,1,21.855-.956a3.539,3.539,0,0,1-2.732,1.1,3.556,3.556,0,0,1-2.736-1.1A4.215,4.215,0,0,1,15.366-3.94Zm2.117.15a2.962,2.962,0,0,0,.425,1.727,1.4,1.4,0,0,0,1.216.6,1.4,1.4,0,0,0,1.2-.591,3.241,3.241,0,0,0,.432-1.889,2.933,2.933,0,0,0-.432-1.716,1.4,1.4,0,0,0-1.216-.609,1.382,1.382,0,0,0-1.2.605A3.3,3.3,0,0,0,17.483-3.885Zm6.365-.136a4.776,4.776,0,0,1,.831-2.952,2.7,2.7,0,0,1,2.274-1.1,2.427,2.427,0,0,1,1.912.864V-11.25h2.124V0H29.077l-.1-.842a2.491,2.491,0,0,1-2.036.989,2.69,2.69,0,0,1-2.245-1.1A4.93,4.93,0,0,1,23.848-4.021Zm2.117.151a3.146,3.146,0,0,0,.388,1.714,1.263,1.263,0,0,0,1.128.6,1.416,1.416,0,0,0,1.384-.831V-5.533a1.4,1.4,0,0,0-1.37-.831Q25.964-6.365,25.964-3.87ZM37.375-.806a2.654,2.654,0,0,1-2.168.952,2.5,2.5,0,0,1-1.945-.732,3.127,3.127,0,0,1-.685-2.146V-7.925h2.117V-2.8q0,1.239,1.128,1.239A1.528,1.528,0,0,0,37.3-2.308V-7.925h2.124V0H37.434Zm6.943-.754a1.388,1.388,0,0,0,.952-.322,1.129,1.129,0,0,0,.381-.857h1.985A2.715,2.715,0,0,1,47.2-1.263a2.9,2.9,0,0,1-1.183,1.04,3.7,3.7,0,0,1-1.659.37,3.44,3.44,0,0,1-2.681-1.08,4.275,4.275,0,0,1-.981-2.985v-.139a4.226,4.226,0,0,1,.974-2.922,3.4,3.4,0,0,1,2.673-1.091,3.333,3.333,0,0,1,2.384.846,3,3,0,0,1,.912,2.252H45.652a1.455,1.455,0,0,0-.381-1.005,1.27,1.27,0,0,0-.967-.387,1.275,1.275,0,0,0-1.117.539,3.125,3.125,0,0,0-.377,1.749v.22A3.164,3.164,0,0,0,43.184-2.1,1.291,1.291,0,0,0,44.319-1.56Zm7.822,0a1.388,1.388,0,0,0,.952-.322,1.129,1.129,0,0,0,.381-.857h1.985a2.715,2.715,0,0,1-.439,1.476,2.9,2.9,0,0,1-1.183,1.04,3.7,3.7,0,0,1-1.659.37A3.44,3.44,0,0,1,49.5-.934a4.275,4.275,0,0,1-.981-2.985v-.139A4.226,4.226,0,0,1,49.49-6.98a3.4,3.4,0,0,1,2.673-1.091,3.333,3.333,0,0,1,2.384.846,3,3,0,0,1,.912,2.252H53.474a1.455,1.455,0,0,0-.381-1.005,1.27,1.27,0,0,0-.967-.387,1.275,1.275,0,0,0-1.117.539,3.125,3.125,0,0,0-.377,1.749v.22A3.164,3.164,0,0,0,51.006-2.1,1.291,1.291,0,0,0,52.141-1.56ZM58.9,0H56.777V-7.925H58.9ZM56.653-9.976a1.042,1.042,0,0,1,.319-.784,1.2,1.2,0,0,1,.868-.308,1.2,1.2,0,0,1,.864.308,1.036,1.036,0,0,1,.322.784,1.039,1.039,0,0,1-.326.791,1.2,1.2,0,0,1-.861.308,1.2,1.2,0,0,1-.861-.308A1.039,1.039,0,0,1,56.653-9.976Zm3.662,5.94a4.7,4.7,0,0,1,.454-2.1,3.324,3.324,0,0,1,1.307-1.428,3.814,3.814,0,0,1,1.981-.505,3.609,3.609,0,0,1,2.618.981,3.939,3.939,0,0,1,1.132,2.666l.015.542A4.142,4.142,0,0,1,66.8-.956a3.539,3.539,0,0,1-2.732,1.1,3.556,3.556,0,0,1-2.736-1.1A4.215,4.215,0,0,1,60.315-3.94Zm2.117.15a2.962,2.962,0,0,0,.425,1.727,1.4,1.4,0,0,0,1.216.6,1.4,1.4,0,0,0,1.2-.591,3.241,3.241,0,0,0,.432-1.889,2.933,2.933,0,0,0-.432-1.716,1.4,1.4,0,0,0-1.216-.609,1.382,1.382,0,0,0-1.2.605A3.3,3.3,0,0,0,62.432-3.885Zm2.043-7.365h2.307L64.753-8.979H63.032Zm6.6,3.325.066.916a2.767,2.767,0,0,1,2.278-1.062,2.3,2.3,0,0,1,1.875.74,3.451,3.451,0,0,1,.63,2.212V0H73.806V-5.08a1.379,1.379,0,0,0-.293-.98,1.31,1.31,0,0,0-.974-.3A1.456,1.456,0,0,0,71.2-5.6V0H69.082V-7.925ZM2.8,7.075l.066.886A2.785,2.785,0,0,1,5.142,6.929a2.114,2.114,0,0,1,2.1,1.208,2.721,2.721,0,0,1,2.38-1.208,2.364,2.364,0,0,1,1.919.751,3.451,3.451,0,0,1,.63,2.26V15H10.049V9.935a1.515,1.515,0,0,0-.264-.987,1.167,1.167,0,0,0-.93-.312,1.321,1.321,0,0,0-1.318.91L7.544,15H5.427V9.942a1.5,1.5,0,0,0-.271-1,1.178,1.178,0,0,0-.923-.308,1.371,1.371,0,0,0-1.3.749V15H.813V7.075Zm15.747,7.119a2.654,2.654,0,0,1-2.168.952,2.5,2.5,0,0,1-1.945-.732,3.127,3.127,0,0,1-.685-2.146V7.075h2.117V12.2q0,1.239,1.128,1.239a1.528,1.528,0,0,0,1.479-.748V7.075H20.6V15H18.6ZM24.426,15H22.3V3.75h2.124ZM28.7,5.127V7.075h1.355V8.628H28.7v3.955a.944.944,0,0,0,.168.63.846.846,0,0,0,.645.19,3.376,3.376,0,0,0,.623-.051v1.6a4.358,4.358,0,0,1-1.282.19A2.021,2.021,0,0,1,26.587,12.9V8.628H25.43V7.075h1.157V5.127ZM33.472,15H31.348V7.075h2.124ZM31.223,5.024a1.042,1.042,0,0,1,.319-.784,1.373,1.373,0,0,1,1.732,0,1.036,1.036,0,0,1,.322.784,1.039,1.039,0,0,1-.326.791,1.358,1.358,0,0,1-1.721,0A1.039,1.039,0,0,1,31.223,5.024ZM37.2,7.075l.066.886a2.785,2.785,0,0,1,2.278-1.033,2.114,2.114,0,0,1,2.1,1.208,2.721,2.721,0,0,1,2.38-1.208,2.364,2.364,0,0,1,1.919.751,3.451,3.451,0,0,1,.63,2.26V15H44.451V9.935a1.515,1.515,0,0,0-.264-.987,1.167,1.167,0,0,0-.93-.312,1.321,1.321,0,0,0-1.318.91L41.946,15H39.829V9.942a1.5,1.5,0,0,0-.271-1,1.178,1.178,0,0,0-.923-.308,1.371,1.371,0,0,0-1.3.749V15H35.215V7.075Zm14.648,8.071a3.89,3.89,0,0,1-2.838-1.069,3.8,3.8,0,0,1-1.095-2.849v-.205a4.787,4.787,0,0,1,.461-2.135,3.386,3.386,0,0,1,1.307-1.45,3.669,3.669,0,0,1,1.93-.509,3.289,3.289,0,0,1,2.56,1.025,4.167,4.167,0,0,1,.934,2.908v.864H50.061a1.966,1.966,0,0,0,.619,1.245,1.871,1.871,0,0,0,1.307.469,2.285,2.285,0,0,0,1.912-.886l1.04,1.165a3.178,3.178,0,0,1-1.289,1.051A4.229,4.229,0,0,1,51.848,15.146Zm-.242-6.511a1.323,1.323,0,0,0-1.022.427,2.209,2.209,0,0,0-.5,1.221h2.944v-.169a1.576,1.576,0,0,0-.381-1.092A1.365,1.365,0,0,0,51.606,8.635Zm4.373,2.344a4.776,4.776,0,0,1,.831-2.952,2.7,2.7,0,0,1,2.274-1.1A2.427,2.427,0,0,1,61,7.793V3.75H63.12V15H61.208l-.1-.842a2.491,2.491,0,0,1-2.036.989,2.69,2.69,0,0,1-2.245-1.1A4.93,4.93,0,0,1,55.979,10.979Zm2.117.151a3.146,3.146,0,0,0,.388,1.714,1.263,1.263,0,0,0,1.128.6A1.416,1.416,0,0,0,61,12.609V9.467a1.4,1.4,0,0,0-1.37-.831Q58.1,8.635,58.1,11.13Zm8.9,3.87H64.871V7.075h2.124ZM64.746,5.024a1.042,1.042,0,0,1,.319-.784,1.373,1.373,0,0,1,1.732,0,1.036,1.036,0,0,1,.322.784,1.039,1.039,0,0,1-.326.791,1.358,1.358,0,0,1-1.721,0A1.039,1.039,0,0,1,64.746,5.024ZM73.33,15a2.351,2.351,0,0,1-.212-.71,2.561,2.561,0,0,1-2,.857,2.814,2.814,0,0,1-1.93-.674,2.167,2.167,0,0,1-.765-1.7,2.24,2.24,0,0,1,.934-1.934,4.608,4.608,0,0,1,2.7-.681h.974V9.7a1.306,1.306,0,0,0-.282-.879,1.109,1.109,0,0,0-.89-.33,1.261,1.261,0,0,0-.839.256.871.871,0,0,0-.3.7H68.6a2.126,2.126,0,0,1,.425-1.274,2.808,2.808,0,0,1,1.2-.919,4.378,4.378,0,0,1,1.743-.333,3.459,3.459,0,0,1,2.325.736,2.575,2.575,0,0,1,.861,2.069v3.435a3.789,3.789,0,0,0,.315,1.707V15Zm-1.75-1.472a1.823,1.823,0,0,0,.864-.209,1.371,1.371,0,0,0,.586-.56V11.4h-.791q-1.589,0-1.692,1.1l-.007.125a.847.847,0,0,0,.278.652A1.081,1.081,0,0,0,71.58,13.528Z" transform="translate(-14696 -3549.657)" fill="#fff"/>
    <g id="Grupo_79449" data-name="Grupo 79449" transform="translate(-15754.222 -5019.291)">
      <path id="Trazado_108986" data-name="Trazado 108986" d="M1114.787,1381.634a7.361,7.361,0,0,1,3.484,1.54,6.64,6.64,0,0,1,2.072,3.256q.912,3.124,1.819,6.249c.336,1.161.074,1.643-1.075,1.975q-9.211,2.669-18.424,5.333-9.046,2.619-18.091,5.24a1.146,1.146,0,0,0-.5.272h38.344a6.344,6.344,0,0,1,.748.022,1.039,1.039,0,0,1,.983.9,3.781,3.781,0,0,1,.062.686q0,13.445,0,26.89a6.46,6.46,0,0,1-6.3,6.7c-4.6.058-9.194.032-13.791.027-.841,0-1.356-.469-1.341-1.176s.53-1.127,1.392-1.127c4.462,0,8.925,0,13.387,0a4.086,4.086,0,0,0,4.189-3.109,5.117,5.117,0,0,0,.151-1.311q.015-7.415.005-14.83c0-.169-.02-.338-.033-.543H1076.7v.645q0,7.328,0,14.656a4.157,4.157,0,0,0,4.5,4.493q6.434,0,12.868,0c.154,0,.308,0,.462,0a1.2,1.2,0,0,1,1.3,1.173,1.178,1.178,0,0,1-1.283,1.129c-4.693.005-9.387.052-14.079-.023a6.322,6.322,0,0,1-6.067-6.342c-.028-4.751-.008-9.5-.008-14.253q0-6.377-.007-12.753a4.028,4.028,0,0,0-.151-1.074c-.563-2-1.153-3.983-1.721-5.978a6.392,6.392,0,0,1,4.492-8.169q17.561-5.1,35.131-10.178c.384-.111.769-.214,1.154-.32Zm4.892,11.019a.986.986,0,0,0,0-.215c-.537-1.861-1.03-3.736-1.628-5.577a4.058,4.058,0,0,0-5.171-2.716c-1.884.526-3.759,1.084-5.637,1.631-.135.039-.263.1-.451.17,2.764,2.659,5.475,5.268,8.193,7.87a.429.429,0,0,0,.348.083C1116.786,1393.492,1118.237,1393.069,1119.679,1392.653Zm-33.229,9.628a.948.948,0,0,0-.089-.172q-4.012-3.857-8.03-7.706a.516.516,0,0,0-.388-.142,4.075,4.075,0,0,0-3.34,4.753c.473,1.956,1.073,3.882,1.621,5.82a3.094,3.094,0,0,0,.155.363Zm35.427,5.528c-1.617,0-3.172.012-4.727-.009a.756.756,0,0,0-.771.44c-1.435,2.52-2.893,5.026-4.342,7.539-.082.142-.145.3-.221.453h10.061Zm-45.164,8.47c1.627,0,3.2-.012,4.771.01a.713.713,0,0,0,.716-.427c1.438-2.516,2.892-5.023,4.339-7.535.082-.142.145-.293.232-.471h-10.058Zm21.455-27.875-.1.181a3.8,3.8,0,0,1,.517.355q3.209,3.067,6.407,6.145c.484.464.92,1.147,1.491,1.3.545.144,1.242-.266,1.867-.446,1.374-.395,2.744-.8,4.174-1.215-.108-.133-.158-.211-.223-.273q-3.929-3.774-7.87-7.534a.8.8,0,0,0-.647-.132c-.947.243-1.882.534-2.821.807Zm5.628,8.846.088-.167a3.472,3.472,0,0,1-.473-.324c-2.362-2.26-4.746-4.5-7.059-6.805a1.663,1.663,0,0,0-1.988-.482c-1.6.55-3.253.971-4.908,1.453a1.1,1.1,0,0,0,.115.194q3.988,3.841,7.988,7.669a.692.692,0,0,0,.557.1c.817-.211,1.624-.461,2.435-.7Zm-8.508,2.466c-.249-.191-.413-.294-.549-.425q-3.124-2.991-6.242-5.99c-.554-.531-1.048-1.348-1.694-1.5-.671-.156-1.493.337-2.248.545-.056.016-.114.023-.169.039l-3.8,1.114a6.6,6.6,0,0,1,.589.431c2.29,2.195,4.616,4.354,6.841,6.614a1.99,1.99,0,0,0,2.424.614C1091.965,1400.6,1093.557,1400.219,1095.288,1399.715Zm9.618,8.094c-2.089,0-4.066-.011-6.042.017a.811.811,0,0,0-.538.391c-1.483,2.533-2.946,5.078-4.411,7.621a4.755,4.755,0,0,0-.192.441c2.05,0,4.026.011,6-.017a.814.814,0,0,0,.535-.4c1.426-2.432,2.833-4.877,4.244-7.318C1104.626,1408.336,1104.738,1408.119,1104.907,1407.809Zm9.029,0h-.632c-1.712,0-3.424.014-5.135-.01a.84.84,0,0,0-.86.484c-1.415,2.489-2.855,4.963-4.286,7.443-.091.157-.174.319-.3.553,2.029,0,3.951-.013,5.871.011a.755.755,0,0,0,.758-.457c1.428-2.5,2.874-5,4.312-7.494C1113.747,1408.194,1113.817,1408.042,1113.936,1407.808Zm-18.077,0c-2.01,0-3.91.01-5.81-.008a.8.8,0,0,0-.815.462c-1.423,2.5-2.872,4.989-4.312,7.482-.089.154-.168.313-.286.534,2.007,0,3.908-.014,5.809.011a.836.836,0,0,0,.845-.506c1.4-2.469,2.832-4.924,4.25-7.385C1095.634,1408.237,1095.718,1408.071,1095.859,1407.808Z" fill="#fff"/>
      <path id="Trazado_108987" data-name="Trazado 108987" d="M1115.16,1464.112c0-1.827,0-3.654,0-5.481,0-1.3.866-1.8,1.994-1.151q4.822,2.774,9.636,5.56c1.092.633,1.1,1.645.022,2.272q-4.837,2.8-9.686,5.588c-1.1.631-1.961.13-1.965-1.133C1115.155,1467.882,1115.16,1466,1115.16,1464.112Zm8.991.074-6.651-3.839v7.671Z" transform="translate(-20.337 -35.791)" fill="#fff"/>
      <path id="Trazado_108988" data-name="Trazado 108988" d="M1123.784,1490.71a1.189,1.189,0,0,1-1.171,1.123,1.146,1.146,0,0,1,.047-2.291A1.185,1.185,0,0,1,1123.784,1490.71Z" transform="translate(-23.342 -51.111)" fill="#fff"/>
    </g>
  </g>
</svg>
