<svg xmlns="http://www.w3.org/2000/svg" xmlns:xlink="http://www.w3.org/1999/xlink" width="1022" height="727" viewBox="0 0 1022 727">
  <defs>
    <linearGradient id="linear-gradient" x1="0.5" x2="0.5" y2="1" gradientUnits="objectBoundingBox">
      <stop offset="0" stop-color="#1556ba"/>
      <stop offset="0.435" stop-color="#1543b2"/>
      <stop offset="1" stop-color="#152fab"/>
    </linearGradient>
    <linearGradient id="linear-gradient-2" x1="0.511" y1="0.892" x2="0.463" y2="0.149" gradientUnits="objectBoundingBox">
      <stop offset="0" stop-color="#f7c9bc"/>
      <stop offset="1" stop-color="#f7c1a8"/>
    </linearGradient>
    <linearGradient id="linear-gradient-3" x1="0.511" y1="-0.354" x2="0.476" y2="0.783" gradientUnits="objectBoundingBox">
      <stop offset="0" stop-color="#00f4c4"/>
      <stop offset="1" stop-color="#00f5f5" stop-opacity="0"/>
    </linearGradient>
    <clipPath id="clip-path">
      <path id="Trazado_134222" data-name="Trazado 134222" d="M512.692,390.561c-2.9-10.834-5.775-20.912-8.31-29.8-4.6-16.137-8.232-28.883-9.676-37.7l-.014-.09a38.786,38.786,0,0,1-.632-8.411c.566-9.059.01-15.248-.672-17.613-2.253-.22-6.661-.36-10.308-.36a4.223,4.223,0,0,1-3.943-2.716l-6.922-18.1c-1.145.577-2.489,1.25-3.974,2a4.222,4.222,0,0,1-5.792-2.137c-9.5-22.634-17.9-40.849-20.256-43.953-3.314-1.882-17.444-9.142-26.917-13.486a4.223,4.223,0,0,1-2.348-4.809c.442-1.876,10.568-46.29-12.935-77.793a4.221,4.221,0,0,1,.257-5.361c6.89-7.6,11.474-18.258,12.908-30,1.955-16.023-2.386-31.923-11.61-42.533-10.278-11.821-27.525-18.4-46.174-17.607-12.119.518-22.91,3.913-31.21,9.82-15.181,10.8-22.384,31.788-17.128,49.91a4.222,4.222,0,0,1-3.631,5.377c-28.8,2.907-49.993,13.521-63,31.548-22.843,31.651-13.263,76.05-12.843,77.925a4.223,4.223,0,0,1-2.32,4.74c-9.5,4.479-21.444,10.661-24.3,12.269-2.356,3.11-10.753,21.321-20.254,43.951a4.22,4.22,0,0,1-5.791,2.137l-3.974-2L164,293.869a4.225,4.225,0,0,1-3.945,2.716c-3.631,0-8.018.138-10.279.356a28.018,28.018,0,0,0-.781,5.58c-.022.36-.046.716-.063,1.087a102.786,102.786,0,0,0,.146,10.949,38.935,38.935,0,0,1-.632,8.411l-.014.09c-.261,1.6-.594,3.322-1.016,5.276l-.32,1.447c-.917,4.064-2.182,9-3.981,15.523l-.374,1.355c-1.214,4.37-2.559,9.085-3.993,14.121l-2.061,7.242-.013.043c-1.7,5.994-3.945,13.966-6.23,22.495-1.881,7.027-3.489,14.069-4.78,20.931l-.01.059-.25,1.318a197.674,197.674,0,0,0-3.074,25.524l-.025.512c-.8,17.42,1.632,30.711,7.225,39.5.265.415.543.813.824,1.212a25.378,25.378,0,0,0,14.338,10.162c22.688,6.426,43.321-7.938,53.6-17.071.461-.409.9-.8,1.309-1.182a73.281,73.281,0,0,0,5.464-5.528,4.223,4.223,0,0,1,7.2,4.116c-.5,1.481-11.921,36.8,24.863,61.029.029.017.059.038.086.057s.063.038.093.059l.971.634a4.236,4.236,0,0,1,1.665,2.012l25.365,64.051H377.16l25.182-63.583v0c.008-.019.016-.036.022-.054l.166-.418a4.217,4.217,0,0,1,1.659-2c38.178-24.241,26.527-60.27,26.012-61.791a4.269,4.269,0,0,1-.2-1.83l.055-.507a4.224,4.224,0,0,1,6.96-2.728c.271.236.444.374.472.4a4.178,4.178,0,0,1,.583.564,73.547,73.547,0,0,0,5.422,5.485,4.193,4.193,0,0,1,.358.374c.176.162.358.326.543.491a4.264,4.264,0,0,1,.4.317c10.287,9.15,30.946,23.543,53.646,17.111C532.694,480.084,519.818,417.162,512.692,390.561ZM285.165,359.081A4.224,4.224,0,0,1,282.5,363l-5.837,2.324a4.309,4.309,0,0,1-1.8.293l-12.024,4.509a4.231,4.231,0,0,1-1.857,1.447l-59.3,23.626-.071.027-.065.027-.288.114a4.223,4.223,0,0,1-5.6-5.157s.677-2.21,1.784-5.867l.063-.208c1.356-4.474,3.333-11.035,5.514-18.391,10.9-36.774,13.142-46.889,13.56-49.658a24.39,24.39,0,0,0-6.157-3.512,5.022,5.022,0,0,1-3.061-6.67c2.421-4.824,3.33-8.522,3.262-9.858a4.222,4.222,0,0,1,1.055-6.8c3.322-1.662-.577-14.323-2.044-19.09l-.1-.334c-2.73-8.874-4.7-27.1-4.786-27.875a4.232,4.232,0,0,1,.783-2.934l5.285-7.266a4.193,4.193,0,0,1,1.32-1.182c1.179-.675,2.4-1.456,3.623-2.321a4.223,4.223,0,0,1,6.659,3.449v11.786a38.792,38.792,0,0,0,28.458,37.33,4.222,4.222,0,0,1,2.351,1.662,130.141,130.141,0,0,0,30.217,30.664,4.222,4.222,0,0,1,1.729,3.408Zm161.951,34.458-.158.277-.032.055c-.019.036-.038.073-.059.109l-.555,1a4.224,4.224,0,0,1-7.67-.634L376.785,369.7l-10.648-4.355a4.189,4.189,0,0,1-.909-.249L359.97,363a4.225,4.225,0,0,1-2.66-3.923v-42.6a4.222,4.222,0,0,1,1.665-3.359A134.126,134.126,0,0,0,388.838,281.6a4.216,4.216,0,0,1,2.091-1.613,38.776,38.776,0,0,0,25.833-36.511V228.623a4.222,4.222,0,0,1,6.943-3.23,50,50,0,0,0,7.3,5.173,4.193,4.193,0,0,1,1.32,1.182l5.285,7.266a4.231,4.231,0,0,1,.784,2.934c-.084.772-2.058,19-4.788,27.875l-.1.341c-1.466,4.764-5.361,17.423-2.042,19.083a4.222,4.222,0,0,1,1.057,6.8c-.07,1.336.841,5.035,3.261,9.861a6,6,0,0,1-3.059,6.669,24.529,24.529,0,0,0-6.152,3.506c.2,1.267.8,4.281,2.622,11.233a4.182,4.182,0,0,1,.112.615l.04.147a4.332,4.332,0,0,1,.2.586c1.6,6.03,3.809,13.907,6.564,23.41a4.264,4.264,0,0,1,.132.612l.044.155a4.167,4.167,0,0,1,.217.581c1.082,3.722,2.171,7.421,3.218,10.962a4.212,4.212,0,0,1,.135.621l.043.146a4.064,4.064,0,0,1,.223.586c2,6.746,3.829,12.828,5.163,17.242a4.1,4.1,0,0,1,.136.608l.051.168a3.907,3.907,0,0,1,.227.581c1.109,3.661,1.786,5.873,1.787,5.875A4.23,4.23,0,0,1,447.116,393.539Z" transform="translate(-122.156 -40.023)" fill="none"/>
    </clipPath>
    <linearGradient id="linear-gradient-4" x1="0.5" y1="0.768" x2="0.5" y2="-0.932" gradientUnits="objectBoundingBox">
      <stop offset="0" stop-color="#300068"/>
      <stop offset="1" stop-color="#10002f"/>
    </linearGradient>
    <clipPath id="clip-path-2">
      <path id="Trazado_134226" data-name="Trazado 134226" d="M422.509,356.483c-1.767-17.046-.759-35.18,4.273-51.514.046-.2.089-.393.135-.589a110.739,110.739,0,0,1,4.224-20.56c-3.173-3.322-6.3-6.691-9.318-10.164a10.177,10.177,0,0,1-1.325-1.966l-63.442-25.655s-18.491,25.6-57.605,23.469-58.109-18.548-61-22.88L182.461,269.5l.58-2.407c-.425.323-.843.661-1.274.976a115.484,115.484,0,0,1-21.728,17.048,8.23,8.23,0,0,1-2.468,1.051v80.761a179.4,179.4,0,0,0,28.447-16.352s-7.824,41.958,28.447,64.717l27.736,66.85,115.212.711,27.736-66.14s39.826-25.6,29.87-66.85C415.018,349.869,417.845,352.676,422.509,356.483Z" transform="translate(-157.571 -246.035)" fill="none"/>
    </clipPath>
    <linearGradient id="linear-gradient-5" x1="0" y1="0.5" x2="1" y2="0.5" xlink:href="#linear-gradient-4"/>
    <linearGradient id="linear-gradient-6" x1="-2.078" y1="0.5" x2="-1.078" y2="0.5" xlink:href="#linear-gradient-4"/>
    <linearGradient id="linear-gradient-7" x1="0.153" y1="1.317" x2="0.783" y2="-0.14" xlink:href="#linear-gradient-4"/>
    <linearGradient id="linear-gradient-8" x1="0.5" y1="0" x2="0.5" y2="1" xlink:href="#linear-gradient-4"/>
    <linearGradient id="linear-gradient-11" x1="0.456" y1="5.065" x2="0.491" y2="1.609" xlink:href="#linear-gradient-3"/>
    <linearGradient id="linear-gradient-12" x1="0.471" y1="5.907" x2="0.506" y2="-1.293" xlink:href="#linear-gradient-3"/>
    <linearGradient id="linear-gradient-13" x1="0.477" y1="7.21" x2="0.515" y2="-4.788" xlink:href="#linear-gradient-3"/>
    <linearGradient id="linear-gradient-14" x1="0.48" y1="2.447" x2="0.52" y2="-2.535" xlink:href="#linear-gradient-3"/>
    <linearGradient id="linear-gradient-15" x1="0.5" y1="1.02" x2="0.5" y2="-0.344" xlink:href="#linear-gradient-4"/>
    <linearGradient id="linear-gradient-16" x1="0.5" y1="1.115" x2="0.5" y2="-0.2" xlink:href="#linear-gradient-2"/>
    <linearGradient id="linear-gradient-17" x1="0.5" y1="1.089" x2="0.5" y2="-0.165" xlink:href="#linear-gradient-2"/>
    <linearGradient id="linear-gradient-18" x1="0.5" y1="-0.15" x2="0.5" y2="1.142" xlink:href="#linear-gradient-4"/>
    <linearGradient id="linear-gradient-19" x1="0.5" y1="-32.068" x2="0.5" y2="16.861" xlink:href="#linear-gradient-4"/>
    <radialGradient id="radial-gradient" cx="0.5" cy="0.5" r="1.848" gradientTransform="translate(0.207 -0.036) scale(0.271 0.271)" gradientUnits="objectBoundingBox">
      <stop offset="0" stop-color="#5ff7f7"/>
      <stop offset="0.085" stop-color="#56d7e3" stop-opacity="0.871"/>
      <stop offset="0.274" stop-color="#4597bc" stop-opacity="0.612"/>
      <stop offset="0.454" stop-color="#36629c" stop-opacity="0.392"/>
      <stop offset="0.62" stop-color="#2b3883" stop-opacity="0.224"/>
      <stop offset="0.77" stop-color="#231a71" stop-opacity="0.102"/>
      <stop offset="0.898" stop-color="#1e0865" stop-opacity="0.027"/>
      <stop offset="0.989" stop-color="#1d0262" stop-opacity="0"/>
    </radialGradient>
    <radialGradient id="radial-gradient-2" cx="0.486" cy="1.009" r="0.584" gradientTransform="matrix(0.002, -1, 1.677, 0.005, -1.206, 1.49)" gradientUnits="objectBoundingBox">
      <stop offset="0.117" stop-color="#5ff7f7"/>
      <stop offset="0.173" stop-color="#54cfdf" stop-opacity="0.839"/>
      <stop offset="0.253" stop-color="#47a0c2" stop-opacity="0.647"/>
      <stop offset="0.337" stop-color="#3c75a8" stop-opacity="0.471"/>
      <stop offset="0.424" stop-color="#325192" stop-opacity="0.325"/>
      <stop offset="0.515" stop-color="#2a3480" stop-opacity="0.208"/>
      <stop offset="0.611" stop-color="#241e73" stop-opacity="0.114"/>
      <stop offset="0.715" stop-color="#200e69" stop-opacity="0.051"/>
      <stop offset="0.832" stop-color="#1d0463" stop-opacity="0.012"/>
      <stop offset="0.989" stop-color="#1d0262" stop-opacity="0"/>
    </radialGradient>
    <radialGradient id="radial-gradient-3" cx="0.5" cy="0.5" r="2.015" gradientTransform="translate(0.293 0.812) scale(0.248 0.248)" gradientUnits="objectBoundingBox">
      <stop offset="0" stop-color="#5ff7f7"/>
      <stop offset="0.128" stop-color="#5df1f3" stop-opacity="0.98"/>
      <stop offset="0.265" stop-color="#5deef2" stop-opacity="0.969"/>
      <stop offset="0.273" stop-color="#5cecf1" stop-opacity="0.941"/>
      <stop offset="0.377" stop-color="#59e0ea" stop-opacity="0.62"/>
      <stop offset="0.547" stop-color="#4495bc" stop-opacity="0.412"/>
      <stop offset="0.751" stop-color="#2f468b" stop-opacity="0.192"/>
      <stop offset="0.904" stop-color="#22146d" stop-opacity="0.051"/>
      <stop offset="0.989" stop-color="#1d0262" stop-opacity="0"/>
    </radialGradient>
    <radialGradient id="radial-gradient-4" cx="0.5" cy="0.5" r="2.015" gradientTransform="translate(0.2 0.812) scale(0.248 0.248)" xlink:href="#radial-gradient-3"/>
    <linearGradient id="linear-gradient-20" x1="-0.059" y1="1.373" x2="0.942" y2="0.211" xlink:href="#linear-gradient-3"/>
    <linearGradient id="linear-gradient-21" x1="-1.729" y1="1.373" x2="-0.728" y2="0.211" xlink:href="#linear-gradient-3"/>
    <radialGradient id="radial-gradient-5" cx="0.5" cy="0.5" r="2.015" gradientTransform="translate(-0.101 1.307) scale(0.248 0.248)" gradientUnits="objectBoundingBox">
      <stop offset="0" stop-color="#fff"/>
      <stop offset="0.141" stop-color="#cec8dd" stop-opacity="0.784"/>
      <stop offset="0.312" stop-color="#988cb8" stop-opacity="0.549"/>
      <stop offset="0.477" stop-color="#6c5b99" stop-opacity="0.353"/>
      <stop offset="0.632" stop-color="#4a3481" stop-opacity="0.2"/>
      <stop offset="0.773" stop-color="#311870" stop-opacity="0.09"/>
      <stop offset="0.896" stop-color="#220765" stop-opacity="0.024"/>
      <stop offset="0.989" stop-color="#1d0262" stop-opacity="0"/>
    </radialGradient>
    <radialGradient id="radial-gradient-6" cx="0.5" cy="0.5" r="2.015" gradientTransform="matrix(0.248, 0, 0, 0.248, -0.711, 1.286)" gradientUnits="objectBoundingBox">
      <stop offset="0" stop-color="#fff"/>
      <stop offset="0.052" stop-color="#e4e1ec" stop-opacity="0.882"/>
      <stop offset="0.153" stop-color="#b6adcc" stop-opacity="0.678"/>
      <stop offset="0.258" stop-color="#8d7faf" stop-opacity="0.494"/>
      <stop offset="0.366" stop-color="#6a5897" stop-opacity="0.345"/>
      <stop offset="0.476" stop-color="#4e3984" stop-opacity="0.22"/>
      <stop offset="0.59" stop-color="#382075" stop-opacity="0.122"/>
      <stop offset="0.709" stop-color="#290f6a" stop-opacity="0.055"/>
      <stop offset="0.837" stop-color="#1f0564" stop-opacity="0.012"/>
      <stop offset="0.989" stop-color="#1d0262" stop-opacity="0"/>
    </radialGradient>
    <radialGradient id="radial-gradient-7" cx="0.5" cy="0.5" r="0.5" gradientTransform="matrix(0, -1, -1, 0, 0.653, 0.653)" xlink:href="#radial-gradient-6"/>
    <linearGradient id="linear-gradient-22" x1="0.5" y1="-0.2" x2="0.5" y2="0.839" xlink:href="#linear-gradient-3"/>
    <linearGradient id="linear-gradient-23" x1="-0.387" y1="-0.345" x2="0.557" y2="0.585" xlink:href="#linear-gradient-3"/>
    <linearGradient id="linear-gradient-25" x1="0.156" y1="-0.35" x2="0.505" y2="0.593" xlink:href="#linear-gradient-3"/>
    <linearGradient id="linear-gradient-26" x1="0.537" y1="1.858" x2="0.491" y2="0.169" xlink:href="#linear-gradient-3"/>
    <radialGradient id="radial-gradient-11" cx="0.5" cy="0.5" r="2.015" gradientTransform="translate(-0.154 0.839) scale(0.248 0.248)" xlink:href="#radial-gradient-5"/>
    <radialGradient id="radial-gradient-12" cx="0.5" cy="0.5" r="2.015" gradientTransform="matrix(0.248, 0, 0, 0.248, -0.746, 0.708)" xlink:href="#radial-gradient-6"/>
    <radialGradient id="radial-gradient-13" cx="0.5" cy="0.5" r="0.5" gradientTransform="matrix(0, -1, -1, 0, -0.213, -0.213)" xlink:href="#radial-gradient-6"/>
  </defs>
  <g id="Grupo_79483" data-name="Grupo 79483" transform="translate(-6715 13083)">
    <path id="Trazado_134347" data-name="Trazado 134347" d="M0,0H1022V727H0Z" transform="translate(6715 -13083)" fill="url(#linear-gradient)"/>
    <g id="OBJECTS" transform="translate(6850.248 -13030.788)">
      <g id="Grupo_79399" data-name="Grupo 79399" transform="translate(59.726)">
        <ellipse id="Elipse_4876" data-name="Elipse 4876" cx="150.948" cy="20.269" rx="150.948" ry="20.269" transform="translate(172.817 541.839)" fill="#c9d5f5"/>
        <g id="Grupo_79398" data-name="Grupo 79398" transform="translate(66.312)">
          <g id="Grupo_79394" data-name="Grupo 79394" transform="translate(47.23)">
            <path id="Trazado_134212" data-name="Trazado 134212" d="M512.692,390.561c-2.9-10.834-5.775-20.912-8.31-29.8-4.6-16.137-8.232-28.883-9.676-37.7l-.014-.09a38.786,38.786,0,0,1-.632-8.411c.566-9.059.01-15.248-.672-17.613-2.253-.22-6.661-.36-10.308-.36a4.223,4.223,0,0,1-3.943-2.716l-6.922-18.1c-1.145.577-2.489,1.25-3.974,2a4.222,4.222,0,0,1-5.792-2.137c-9.5-22.634-17.9-40.849-20.256-43.953-3.314-1.882-17.444-9.142-26.917-13.486a4.223,4.223,0,0,1-2.348-4.809c.442-1.876,10.568-46.29-12.935-77.793a4.221,4.221,0,0,1,.257-5.361c6.89-7.6,11.474-18.258,12.908-30,1.955-16.023-2.386-31.923-11.61-42.533-10.278-11.821-27.525-18.4-46.174-17.607-12.119.518-22.91,3.913-31.21,9.82-15.181,10.8-22.384,31.788-17.128,49.91a4.222,4.222,0,0,1-3.631,5.377c-28.8,2.907-49.993,13.521-63,31.548-22.843,31.651-13.263,76.05-12.843,77.925a4.223,4.223,0,0,1-2.32,4.74c-9.5,4.479-21.444,10.661-24.3,12.269-2.356,3.11-10.753,21.321-20.254,43.951a4.22,4.22,0,0,1-5.791,2.137l-3.974-2L164,293.869a4.225,4.225,0,0,1-3.945,2.716c-3.631,0-8.018.138-10.279.356a28.018,28.018,0,0,0-.781,5.58c-.022.36-.046.716-.063,1.087a102.786,102.786,0,0,0,.146,10.949,38.935,38.935,0,0,1-.632,8.411l-.014.09c-.261,1.6-.594,3.322-1.016,5.276l-.32,1.447c-.917,4.064-2.182,9-3.981,15.523l-.374,1.355c-1.214,4.37-2.559,9.085-3.993,14.121l-2.061,7.242-.013.043c-1.7,5.994-3.945,13.966-6.23,22.495-1.881,7.027-3.489,14.069-4.78,20.931l-.01.059-.25,1.318a197.674,197.674,0,0,0-3.074,25.524l-.025.512c-.8,17.42,1.632,30.711,7.225,39.5.265.415.543.813.824,1.212a25.378,25.378,0,0,0,14.338,10.162c22.688,6.426,43.321-7.938,53.6-17.071.461-.409.9-.8,1.309-1.182a73.281,73.281,0,0,0,5.464-5.528,4.223,4.223,0,0,1,7.2,4.116c-.5,1.481-11.921,36.8,24.863,61.029.029.017.059.038.086.057s.063.038.093.059l.971.634a4.236,4.236,0,0,1,1.665,2.012l25.365,64.051H377.16l25.182-63.583v0c.008-.019.016-.036.022-.054l.166-.418a4.217,4.217,0,0,1,1.659-2c38.178-24.241,26.527-60.27,26.012-61.791a4.269,4.269,0,0,1-.2-1.83l.055-.507a4.224,4.224,0,0,1,6.96-2.728c.271.236.444.374.472.4a4.178,4.178,0,0,1,.583.564,73.547,73.547,0,0,0,5.422,5.485,4.193,4.193,0,0,1,.358.374c.176.162.358.326.543.491a4.264,4.264,0,0,1,.4.317c10.287,9.15,30.946,23.543,53.646,17.111C532.694,480.084,519.818,417.162,512.692,390.561ZM285.165,359.081A4.224,4.224,0,0,1,282.5,363l-5.837,2.324a4.309,4.309,0,0,1-1.8.293l-12.024,4.509a4.231,4.231,0,0,1-1.857,1.447l-59.3,23.626-.071.027-.065.027-.288.114a4.223,4.223,0,0,1-5.6-5.157s.677-2.21,1.784-5.867l.063-.208c1.356-4.474,3.333-11.035,5.514-18.391,10.9-36.774,13.142-46.889,13.56-49.658a24.39,24.39,0,0,0-6.157-3.512,5.022,5.022,0,0,1-3.061-6.67c2.421-4.824,3.33-8.522,3.262-9.858a4.222,4.222,0,0,1,1.055-6.8c3.322-1.662-.577-14.323-2.044-19.09l-.1-.334c-2.73-8.874-4.7-27.1-4.786-27.875a4.232,4.232,0,0,1,.783-2.934l5.285-7.266a4.193,4.193,0,0,1,1.32-1.182c1.179-.675,2.4-1.456,3.623-2.321a4.223,4.223,0,0,1,6.659,3.449v11.786a38.792,38.792,0,0,0,28.458,37.33,4.222,4.222,0,0,1,2.351,1.662,130.141,130.141,0,0,0,30.217,30.664,4.222,4.222,0,0,1,1.729,3.408Zm161.951,34.458-.158.277-.032.055c-.019.036-.038.073-.059.109l-.555,1a4.224,4.224,0,0,1-7.67-.634L376.785,369.7l-10.648-4.355a4.189,4.189,0,0,1-.909-.249L359.97,363a4.225,4.225,0,0,1-2.66-3.923v-42.6a4.222,4.222,0,0,1,1.665-3.359A134.126,134.126,0,0,0,388.838,281.6a4.216,4.216,0,0,1,2.091-1.613,38.776,38.776,0,0,0,25.833-36.511V228.623a4.222,4.222,0,0,1,6.943-3.23,50,50,0,0,0,7.3,5.173,4.193,4.193,0,0,1,1.32,1.182l5.285,7.266a4.231,4.231,0,0,1,.784,2.934c-.084.772-2.058,19-4.788,27.875l-.1.341c-1.466,4.764-5.361,17.423-2.042,19.083a4.222,4.222,0,0,1,1.057,6.8c-.07,1.336.841,5.035,3.261,9.861a6,6,0,0,1-3.059,6.669,24.529,24.529,0,0,0-6.152,3.506c.2,1.267.8,4.281,2.622,11.233a4.182,4.182,0,0,1,.112.615l.04.147a4.332,4.332,0,0,1,.2.586c1.6,6.03,3.809,13.907,6.564,23.41a4.264,4.264,0,0,1,.132.612l.044.155a4.167,4.167,0,0,1,.217.581c1.082,3.722,2.171,7.421,3.218,10.962a4.212,4.212,0,0,1,.135.621l.043.146a4.064,4.064,0,0,1,.223.586c2,6.746,3.829,12.828,5.163,17.242a4.1,4.1,0,0,1,.136.608l.051.168a3.907,3.907,0,0,1,.227.581c1.109,3.661,1.786,5.873,1.787,5.875A4.23,4.23,0,0,1,447.116,393.539Z" transform="translate(-117.924 -35.8)" fill="url(#linear-gradient-2)"/>
            <path id="Trazado_134213" data-name="Trazado 134213" d="M261.693,231.075c-6,1.96-11.927.7-19.4-3.23-2.977-1.569-6.04-3.14-9.081-4.785,16.463,12.83,41.737,30.947,58.936,35.881l.124-45.962C284.609,221.387,272.734,230.369,261.693,231.075Z" transform="translate(-53.029 65.267)" fill="#5036ae" opacity="0.58" style="mix-blend-mode: multiply;isolation: isolate"/>
            <path id="Trazado_134214" data-name="Trazado 134214" d="M204.88,193.37s27.6,39.739,69.415,51.233c0,0,35.359-9.227,66.2-52.1" transform="translate(-69.584 53.301)" fill="url(#linear-gradient-3)"/>
            <path id="Trazado_134215" data-name="Trazado 134215" d="M204.88,193.37s27.6,39.739,69.415,51.233c0,0,35.359-9.227,66.2-52.1" transform="translate(-69.584 53.301)" fill="none" stroke="#fff" stroke-linecap="round" stroke-linejoin="round" stroke-width="2"/>
            <path id="Trazado_134216" data-name="Trazado 134216" d="M188.482,162.634c1.5-9.422,10.1-16.428,19.267-19.071s18.925-1.8,28.442-1.117a767.838,767.838,0,0,0,100.072.669c8.426-.494,17.2-1.069,24.985,2.2s14.107,11.734,11.922,19.885a1436.873,1436.873,0,0,1-166.522,2.2,95.378,95.378,0,0,1-12.808-1.174" transform="translate(-79.167 23.646)" fill="#5036ae" opacity="0.58" style="mix-blend-mode: multiply;isolation: isolate"/>
            <g id="Grupo_79383" data-name="Grupo 79383" transform="translate(147.045 268.784)">
              <path id="Trazado_134217" data-name="Trazado 134217" d="M217.017,272.06c6.554,5.528,13.7,10.539,21.756,13.469s17.151,3.636,25.179.627a318.094,318.094,0,0,0-26.985-61.167c-1.5-2.608-3.034-5.227-4.476-7.887v38.5a4.224,4.224,0,0,1-2.66,3.923l-5.837,2.324a4.31,4.31,0,0,1-1.8.293l-9.9,3.711c.032.128.054.258.093.385C213.131,268.642,215.1,270.438,217.017,272.06Z" transform="translate(-212.296 -201.108)" fill="#fff" opacity="0.32" style="mix-blend-mode: overlay;isolation: isolate"/>
              <path id="Trazado_134218" data-name="Trazado 134218" d="M224.9,213.569a38.284,38.284,0,0,1-1.741-6.562l-5.295.792Q221.258,210.782,224.9,213.569Z" transform="translate(-209.042 -207.007)" fill="#fff" opacity="0.32" style="mix-blend-mode: overlay;isolation: isolate"/>
            </g>
            <path id="Trazado_134219" data-name="Trazado 134219" d="M239.386,104.865a140.332,140.332,0,0,0-8.107,94.213l-18.648-2.559a13.086,13.086,0,0,1-5.426-1.575,12.355,12.355,0,0,1-3.189-3.454c-12.6-18.006-19.736-41.863-11.252-62.135a32.977,32.977,0,0,1,5.32-8.887c9.5-11,25.942-11.929,40.482-12.022" transform="translate(-78.823 2.09)" fill="#fff" opacity="0.32" style="mix-blend-mode: overlay;isolation: isolate"/>
            <g id="Grupo_79385" data-name="Grupo 79385" transform="translate(4.232 4.222)">
              <g id="Grupo_79384" data-name="Grupo 79384" clip-path="url(#clip-path)">
                <path id="Trazado_134220" data-name="Trazado 134220" d="M365.3,159.585l-83.075-.61v-.022l-1.494.011-1.494-.011,0,.022-83.075.61h0a7.387,7.387,0,0,0-7.172,7.586v18.965c0,22.694,17.393,41.09,38.848,41.09H333.629c21.455,0,38.848-18.4,38.848-41.09V167.171a7.387,7.387,0,0,0-7.172-7.586Z" transform="translate(-83.101 29.474)" fill="#5036ae" opacity="0.58" style="mix-blend-mode: multiply;isolation: isolate"/>
                <path id="Trazado_134221" data-name="Trazado 134221" d="M203.4,194.788s28.384,41.516,71.766,52.9c0,0-28.447-9.958-43.383-60.451Z" transform="translate(-74.684 45.999)" fill="#fff" opacity="0.32" style="mix-blend-mode: overlay;isolation: isolate"/>
              </g>
            </g>
            <path id="Trazado_134223" data-name="Trazado 134223" d="M422.509,356.483c-1.767-17.046-.759-35.18,4.273-51.514.046-.2.089-.393.135-.589a110.739,110.739,0,0,1,4.224-20.56c-3.173-3.322-6.3-6.691-9.318-10.164a10.177,10.177,0,0,1-1.325-1.966l-63.442-25.655s-18.491,25.6-57.605,23.469-58.109-18.548-61-22.88L182.461,269.5l.58-2.407c-.425.323-.843.661-1.274.976a115.484,115.484,0,0,1-21.728,17.048,8.23,8.23,0,0,1-2.468,1.051v80.761a179.4,179.4,0,0,0,28.447-16.352s-7.824,41.958,28.447,64.717l27.736,66.85,115.212.711,27.736-66.14s39.826-25.6,29.87-66.85C415.018,349.869,417.845,352.676,422.509,356.483Z" transform="translate(-97.229 84.583)" fill="url(#linear-gradient-4)"/>
            <g id="Grupo_79387" data-name="Grupo 79387" transform="translate(60.342 330.618)">
              <g id="Grupo_79386" data-name="Grupo 79386" clip-path="url(#clip-path-2)">
                <path id="Trazado_134224" data-name="Trazado 134224" d="M186.152,290.178c-5.04,12.079.526,26.772,10.69,35.022s23.867,10.945,36.952,10.6,25.92-3.418,38.847-5.476a251.713,251.713,0,0,1,81.328.387l-59.374,14.541a230.863,230.863,0,0,0,77.4-1.633c9.828-1.889,21.921-7.629,20.693-17.561q-43.937-8.881-87.874-17.764a475.019,475.019,0,0,1,107.978,5.262c4.1.673,8.532,1.591,11.22,4.756,2.166,2.551,2.741,6.049,3.232,9.36q1.925,12.971,3.853,25.944c1.1,7.412,2.166,15.2-.437,22.224-2,5.4-5.979,9.791-9.866,14.04-33.56,36.676-68.9,74.59-115.393,92.182-8.552,3.235-17.5,5.753-26.646,5.9-9.486.157-18.824-2.231-27.9-5-28.913-8.833-58.073-23.036-74.374-48.5-19.416-30.328-16.415-69.688-8.391-104.794,3-13.115,6.6-26.089,9.5-39.227" transform="translate(-155.046 -220.24)" fill="#fff" opacity="0.32" style="mix-blend-mode: overlay;isolation: isolate"/>
                <path id="Trazado_134225" data-name="Trazado 134225" d="M186.152,290.178c-5.04,12.079.526,26.772,10.69,35.022s23.867,10.945,36.952,10.6,25.92-3.418,38.847-5.476a251.713,251.713,0,0,1,81.328.387l-59.374,14.541a230.863,230.863,0,0,0,77.4-1.633c9.828-1.889,21.921-7.629,20.693-17.561q-43.937-8.881-87.874-17.764a475.019,475.019,0,0,1,107.978,5.262c4.1.673,8.532,1.591,11.22,4.756,2.166,2.551,2.741,6.049,3.232,9.36q1.925,12.971,3.853,25.944c1.1,7.412,2.166,15.2-.437,22.224-2,5.4-5.979,9.791-9.866,14.04-33.56,36.676-68.9,74.59-115.393,92.182-8.552,3.235-17.5,5.753-26.646,5.9-9.486.157-18.824-2.231-27.9-5-28.913-8.833-58.073-23.036-74.374-48.5-19.416-30.328-16.415-69.688-8.391-104.794,3-13.115,6.6-26.089,9.5-39.227" transform="translate(-155.046 -220.24)" fill="#fff" opacity="0.32" style="mix-blend-mode: overlay;isolation: isolate"/>
              </g>
            </g>
            <path id="Trazado_134227" data-name="Trazado 134227" d="M177.695,263.533a633.464,633.464,0,0,1-11.738,68.251c-1.082,4.726-2.226,9.53-1.882,14.367a27.567,27.567,0,0,0,.863,4.986,178.085,178.085,0,0,0,17.317-10.781s-5.216,28.048,12.7,50.718a193.84,193.84,0,0,1,3.1-32.869c1.846-10.175,4.515-20.264,4.9-30.6.854-22.81-9.6-44.831-23.962-62.575Z" transform="translate(-93.466 94.808)" opacity="0.32" fill="url(#linear-gradient-5)" style="mix-blend-mode: multiply;isolation: isolate"/>
            <path id="Trazado_134228" data-name="Trazado 134228" d="M332.74,263.533a633.476,633.476,0,0,0,11.74,68.251c1.082,4.726,2.226,9.53,1.881,14.367a27.294,27.294,0,0,1-.863,4.986,177.918,177.918,0,0,1-17.315-10.781s5.216,28.048-12.7,50.718a193.833,193.833,0,0,0-3.1-32.869c-1.846-10.175-4.515-20.264-4.9-30.6-.854-22.81,9.6-44.831,23.96-62.575Z" transform="translate(-9.66 94.808)" opacity="0.32" fill="url(#linear-gradient-6)" style="mix-blend-mode: multiply;isolation: isolate"/>
            <path id="Trazado_134229" data-name="Trazado 134229" d="M238.079,105.889c-7.66-20.292-.043-45.293,17.631-57.867,9.672-6.881,21.622-10.091,33.48-10.6,18.287-.781,37.529,5.243,49.54,19.057,10.7,12.31,14.592,29.621,12.616,45.815-1.537,12.594-6.578,25-15.544,33.98a33.355,33.355,0,0,1-13.071,8.43c-10.736,3.471-22.374-.429-32.695-4.992a249.372,249.372,0,0,1-49.3-28.968" transform="translate(-51.919 -37.358)" fill="url(#linear-gradient-7)"/>
            <path id="Trazado_134230" data-name="Trazado 134230" d="M289.917,37.761a76.391,76.391,0,0,0-34.354,11.691c7.9-1.632,16.137-2.484,24-.677s15.336,6.623,18.8,13.907a37.778,37.778,0,0,0-30.866-5.019c15.016-.325,29.648,10.054,34.3,24.334a43.911,43.911,0,0,0-32.877-8.575c13.385.49,25.511,11.892,26.821,25.221a28.3,28.3,0,0,0-20.948-5.008c7.355-.7,14.169,4.964,17.014,11.783s2.527,14.509,1.7,21.851c-.222,1.965-.434,4.113.646,5.767a8.167,8.167,0,0,0,3.647,2.621,62.455,62.455,0,0,0,19.407,5.743,38.582,38.582,0,0,0,6.642-5.361c8.966-8.977,14.007-21.386,15.544-33.98,1.976-16.194-1.912-33.5-12.616-45.815C317.532,45.611,304,39.612,289.917,37.761Z" transform="translate(-39.968 -37.122)" opacity="0.32" fill="url(#linear-gradient-8)" style="mix-blend-mode: multiply;isolation: isolate"/>
            <g id="Grupo_79388" data-name="Grupo 79388" transform="translate(188.121 49.799)">
              <ellipse id="Elipse_4877" data-name="Elipse 4877" cx="22.79" cy="17.836" rx="22.79" ry="17.836" fill="#ebe033"/>
            </g>
            <path id="Trazado_134231" data-name="Trazado 134231" d="M280.517,95.5a14.96,14.96,0,0,0,3.221-9.107c0-8.245-7.16-15.164-16.87-17.206a18.306,18.306,0,0,1,3.558,1.8c.136.974-1.294,1.234-2.272,1.13a27.63,27.63,0,0,0-16.132,3.237c5.765.336,12.315,1.079,15.712,5.748-10.119.1-20.728.67-29.4,5.88a73,73,0,0,1,36.638,6.1C276.8,93.914,278.627,94.82,280.517,95.5Z" transform="translate(-50.037 -18.758)" fill="#dc622b" opacity="0.58"/>
            <path id="Trazado_134232" data-name="Trazado 134232" d="M224.472,242.654s5.285,20.479,46.241,20.479,45.58-20.479,45.58-20.479l14.533,5.946s-10.569,29.726-60.774,29.726S208.619,248.6,208.619,248.6Z" transform="translate(-67.4 82.607)" fill="#cf1472"/>
            <g id="Grupo_79389" data-name="Grupo 79389" transform="translate(67.625 330.618)">
              <path id="Trazado_134233" data-name="Trazado 134233" d="M259.377,261.612c-14.286-5.613-21.874-12.6-23.615-15.205l-55.988,22.88.58-2.407c-.425.323-.843.661-1.274.976a105.6,105.6,0,0,1-16.913,13.892q1.409,11.683,2.815,23.364l2.216,10.354c16.924-30.028,49.335-50.755,83.693-53.522C253.726,261.715,256.554,261.628,259.377,261.612Z" transform="translate(-162.168 -245.818)" opacity="0.32" fill="url(#linear-gradient-5)" style="mix-blend-mode: multiply;isolation: isolate"/>
              <path id="Trazado_134234" data-name="Trazado 134234" d="M299.388,246.035S285.469,265.282,256.26,269c7.372,1.568,14.744,3.143,22.124,4.436,14.676,2.57,29.982,4,44.306-.1a50.322,50.322,0,0,0,18.976-10.2Z" transform="translate(-107.185 -246.035)" opacity="0.32" fill="url(#linear-gradient-5)" style="mix-blend-mode: multiply;isolation: isolate"/>
            </g>
            <path id="Trazado_134235" data-name="Trazado 134235" d="M365.3,151.505l-83.075-.61v-.022l-1.494.011-1.494-.011,0,.022-83.075.61h0a7.388,7.388,0,0,0-7.172,7.586v18.965c0,22.694,17.393,41.09,38.848,41.09H333.629c21.455,0,38.848-18.4,38.848-41.09V159.091a7.388,7.388,0,0,0-7.172-7.586Z" transform="translate(-78.869 28.975)" fill="#003"/>
            <path id="Trazado_134236" data-name="Trazado 134236" d="M372.477,167.551v-8.46a7.388,7.388,0,0,0-7.172-7.586l-83.075-.61v-.022l-1.494.011-1.494-.011,0,.022-83.075.61a7.388,7.388,0,0,0-7.172,7.586v8.46Z" transform="translate(-78.869 28.975)" fill="url(#linear-gradient-11)"/>
            <path id="Trazado_134237" data-name="Trazado 134237" d="M367.922,182.543a42.2,42.2,0,0,0,2.866-8.006H189.771a42.209,42.209,0,0,0,2.866,8.006Z" transform="translate(-78.413 42.803)" fill="url(#linear-gradient-12)"/>
            <path id="Trazado_134238" data-name="Trazado 134238" d="M359.592,187.425a41.055,41.055,0,0,0,3.642-4.8H193.254a41.059,41.059,0,0,0,3.642,4.8Z" transform="translate(-76.378 47.527)" fill="url(#linear-gradient-13)"/>
            <path id="Trazado_134239" data-name="Trazado 134239" d="M196.488,186.663a37.59,37.59,0,0,0,26.972,11.569H329.249a37.59,37.59,0,0,0,26.972-11.569Z" transform="translate(-74.488 49.889)" fill="url(#linear-gradient-14)"/>
            <path id="Trazado_134240" data-name="Trazado 134240" d="M350.62,155.861l-72.772-.482v-.017l-1.309.008-1.31-.008v.017l-72.771.482h0a6.151,6.151,0,0,0-6.284,6.006v15.013c0,17.967,15.237,32.53,34.03,32.53h92.667c18.794,0,34.03-14.563,34.03-32.53V161.867a6.149,6.149,0,0,0-6.282-6.006Z" transform="translate(-74.672 31.598)" fill="#00004a"/>
            <path id="Trazado_134241" data-name="Trazado 134241" d="M208.164,194.225s-12.461-33.088-1.982-46.9c14.533-19.156,47.562-5.285,73.325-5.945,16.189-.415,75.306-13.873,83.234,6.605s-1.321,44.259-1.321,44.259h19.156S408.321,77.962,284.13,77.962s-97.1,115.6-97.1,115.6Z" transform="translate(-81.478 -13.631)" fill="url(#linear-gradient-15)"/>
            <g id="Grupo_79390" data-name="Grupo 79390" transform="translate(0 234.101)">
              <path id="Trazado_134242" data-name="Trazado 134242" d="M161.616,207.576l8.589-22.46s40.955,20.479,44.92,23.12-2.643,15.194-2.643,15.194,8.587,3.3,9.909,6.605-21.138,76.629-21.138,76.629,13.873,24.442,20.478,43.6-11.891,33.69-11.891,33.69-29.726,35.011-64.737,25.1-27.084-67.379-17.176-104.372,19.156-64.076,18.5-74.647,0-21.138,2.641-21.8S161.616,207.576,161.616,207.576Z" transform="translate(-119.485 -185.116)" fill="#cf1472"/>
            </g>
            <g id="Grupo_79391" data-name="Grupo 79391" transform="translate(303.619 234.101)">
              <path id="Trazado_134243" data-name="Trazado 134243" d="M372.659,207.576l-8.587-22.46s-40.955,20.479-44.919,23.12,2.643,15.194,2.643,15.194-8.589,3.3-9.909,6.605,21.138,76.629,21.138,76.629-13.873,24.442-20.478,43.6,11.889,33.69,11.889,33.69,29.727,35.011,64.738,25.1,27.085-67.379,17.174-104.372-19.156-64.076-18.5-74.647,0-21.138-2.643-21.8S372.659,207.576,372.659,207.576Z" transform="translate(-311.121 -185.116)" fill="#cf1472"/>
            </g>
            <g id="Grupo_79392" data-name="Grupo 79392" transform="translate(0.163 266.076)">
              <path id="Trazado_134244" data-name="Trazado 134244" d="M136.483,205.3q-.052.746-.089,1.534a294.394,294.394,0,0,0,72.956,26.348q.183-.692.358-1.361A293.092,293.092,0,0,1,136.483,205.3Z" transform="translate(-109.767 -205.298)" fill="#fff"/>
              <path id="Trazado_134245" data-name="Trazado 134245" d="M135.61,221.436c-.1.459-.206.933-.314,1.41a408.423,408.423,0,0,0,67.71,25.762c.131-.45.261-.9.393-1.351A406.936,406.936,0,0,1,135.61,221.436Z" transform="translate(-110.409 -195.868)" fill="#fff"/>
              <path id="Trazado_134246" data-name="Trazado 134246" d="M132.958,231.986c-.125.455-.252.916-.38,1.378,21.717,10.358,45.388,16.569,68.393,21.409q.2-.673.4-1.353C178.34,248.577,154.645,242.365,132.958,231.986Z" transform="translate(-111.997 -189.703)" fill="#fff"/>
              <path id="Trazado_134247" data-name="Trazado 134247" d="M129.147,245.472c-.13.455-.258.908-.388,1.367,21.94,9.617,45.759,14.829,68.861,18.68.131-.433.269-.889.412-1.361C174.9,260.311,151.059,255.1,129.147,245.472Z" transform="translate(-114.229 -181.822)" fill="#fff"/>
              <path id="Trazado_134248" data-name="Trazado 134248" d="M124.87,260.874a290.272,290.272,0,0,0,80.308,15.571c-.252-.493-.5-.973-.741-1.446a288.906,288.906,0,0,1-79.2-15.482C125.114,259.969,124.992,260.417,124.87,260.874Z" transform="translate(-116.501 -173.616)" fill="#fff"/>
              <path id="Trazado_134249" data-name="Trazado 134249" d="M121.849,273.992c-.087.466-.179.928-.265,1.4a473.068,473.068,0,0,0,64.592,4.441c2.635,0,5.27-.038,7.906-.081-.417-.463-.857-.93-1.285-1.394A471.491,471.491,0,0,1,121.849,273.992Z" transform="translate(-118.422 -165.157)" fill="#fff"/>
              <path id="Trazado_134250" data-name="Trazado 134250" d="M190.9,285.733a350.986,350.986,0,0,1-71.242,7.971c-.025.472-.048.944-.07,1.416a352.286,352.286,0,0,0,70.744-7.795C190.523,286.795,190.706,286.262,190.9,285.733Z" transform="translate(-119.588 -158.296)" fill="#fff"/>
              <path id="Trazado_134251" data-name="Trazado 134251" d="M180.886,304.441c-15.406,13.538-35.8,21.056-56.325,21.713.3.471.615.925.933,1.377,20.547-.856,40.9-8.478,56.322-22.032Z" transform="translate(-116.682 -147.364)" fill="#fff"/>
              <path id="Trazado_134252" data-name="Trazado 134252" d="M162.008,295.257c-.038.2-.074.391-.12.588-.055.236-.12.459-.181.689l-.033.193a36.347,36.347,0,0,1,16.332,29.989c.477-.423.93-.833,1.364-1.233A37.791,37.791,0,0,0,162.008,295.257Z" transform="translate(-94.995 -152.731)" fill="#fff"/>
              <path id="Trazado_134253" data-name="Trazado 134253" d="M178.2,289.113c-.3-.4-.627-.814-.935-1.22q-3.565-4.715-7.862-9.546c-.414-.464-.813-.925-1.236-1.391-.181-.2-.377-.4-.559-.6a8.882,8.882,0,0,1-.612,1.416c.185.2.372.4.55.6,3.023,3.349,5.753,6.648,8.24,9.907.311.407.635.817.938,1.223,7.591,10.189,12.548,19.96,14.959,29.448.331-.607.65-1.233.951-1.877C190.088,308.027,185.309,298.746,178.2,289.113Z" transform="translate(-91.885 -163.775)" fill="#fff"/>
            </g>
            <g id="Grupo_79393" data-name="Grupo 79393" transform="translate(306.326 266.076)">
              <path id="Trazado_134254" data-name="Trazado 134254" d="M386.566,205.3q.052.746.09,1.534A294.416,294.416,0,0,1,313.7,233.179q-.183-.692-.36-1.361A293.046,293.046,0,0,0,386.566,205.3Z" transform="translate(-312.532 -205.298)" fill="#fff"/>
              <path id="Trazado_134255" data-name="Trazado 134255" d="M385.518,221.436c.1.459.206.933.312,1.41a408.41,408.41,0,0,1-67.709,25.762c-.132-.45-.263-.9-.393-1.351A406.937,406.937,0,0,0,385.518,221.436Z" transform="translate(-309.968 -195.868)" fill="#fff"/>
              <path id="Trazado_134256" data-name="Trazado 134256" d="M388.423,231.986c.125.455.253.916.382,1.378-21.717,10.358-45.389,16.569-68.393,21.409l-.4-1.353C343.041,248.577,366.738,242.365,388.423,231.986Z" transform="translate(-308.635 -189.703)" fill="#fff"/>
              <path id="Trazado_134257" data-name="Trazado 134257" d="M392.411,245.472c.128.455.258.908.388,1.367-21.94,9.617-45.761,14.829-68.862,18.68-.13-.433-.268-.889-.41-1.361C346.654,260.311,370.5,255.1,392.411,245.472Z" transform="translate(-306.579 -181.822)" fill="#fff"/>
              <path id="Trazado_134258" data-name="Trazado 134258" d="M400.759,260.874a290.284,290.284,0,0,1-80.308,15.571c.25-.493.5-.973.742-1.446a288.917,288.917,0,0,0,79.2-15.482C400.515,259.969,400.637,260.417,400.759,260.874Z" transform="translate(-308.377 -173.616)" fill="#fff"/>
              <path id="Trazado_134259" data-name="Trazado 134259" d="M400.9,273.992c.087.466.179.928.265,1.4a473.086,473.086,0,0,1-64.592,4.441c-2.635,0-5.271-.038-7.907-.081.418-.463.859-.93,1.286-1.394A471.491,471.491,0,0,0,400.9,273.992Z" transform="translate(-303.577 -165.157)" fill="#fff"/>
              <path id="Trazado_134260" data-name="Trazado 134260" d="M331.41,285.733a351,351,0,0,0,71.242,7.971c.027.472.049.944.071,1.416a352.259,352.259,0,0,1-70.744-7.795C331.789,286.795,331.6,286.262,331.41,285.733Z" transform="translate(-301.973 -158.296)" fill="#fff"/>
              <path id="Trazado_134261" data-name="Trazado 134261" d="M336.238,304.441c15.406,13.538,35.8,21.056,56.325,21.713-.3.471-.613.925-.933,1.377-20.547-.856-40.9-8.478-56.32-22.032Z" transform="translate(-299.694 -147.364)" fill="#fff"/>
              <path id="Trazado_134262" data-name="Trazado 134262" d="M340.527,295.257c.038.2.074.391.12.588.055.236.12.459.181.689l.032.193a36.349,36.349,0,0,0-16.33,29.989q-.715-.635-1.364-1.233A37.791,37.791,0,0,1,340.527,295.257Z" transform="translate(-306.79 -152.731)" fill="#fff"/>
              <path id="Trazado_134263" data-name="Trazado 134263" d="M327.267,289.113c.3-.4.627-.814.935-1.22q3.565-4.715,7.862-9.546c.414-.464.813-.925,1.236-1.391.181-.2.375-.4.559-.6a8.866,8.866,0,0,0,.61,1.416c-.184.2-.371.4-.55.6-3.021,3.349-5.753,6.648-8.239,9.907-.311.407-.635.817-.938,1.223-7.591,10.189-12.548,19.96-14.959,29.448q-.5-.91-.952-1.877C315.378,308.027,320.154,298.746,327.267,289.113Z" transform="translate(-312.83 -163.775)" fill="#fff"/>
            </g>
          </g>
          <path id="Trazado_134264" data-name="Trazado 134264" d="M342.123,174.506H206.644a8.026,8.026,0,0,1-8-8h0a8.024,8.024,0,0,1,8-8H342.123a8.023,8.023,0,0,1,8,8h0A8.025,8.025,0,0,1,342.123,174.506Z" transform="translate(-25.999 33.434)" fill="#00c1e2"/>
          <g id="Grupo_79395" data-name="Grupo 79395" transform="translate(105.877 175.234)">
            <path id="Trazado_134265" data-name="Trazado 134265" d="M156.5,211.452s18.5-44.259,21.8-46.241,30.386-15.855,35.672-17.176-5.946,15.194-19.817,23.12l-5.285,7.267s1.982,18.5,4.625,27.084,6.605,21.138,0,24.44Z" transform="translate(-156.501 -147.961)" fill="url(#linear-gradient-16)"/>
          </g>
          <path id="Trazado_134266" data-name="Trazado 134266" d="M361.227,211.452s-18.5-44.259-21.8-46.241-30.388-15.855-35.672-17.176,5.945,15.194,19.817,23.12l5.285,7.267s-1.982,18.5-4.625,27.084-6.605,21.138,0,24.44Z" transform="translate(34.646 27.273)" fill="url(#linear-gradient-17)"/>
          <g id="Grupo_79396" data-name="Grupo 79396" transform="translate(153.794 64.331)" style="mix-blend-mode: multiply;isolation: isolate">
            <path id="Trazado_134267" data-name="Trazado 134267" d="M379.874,144.256c-6.108-31.27-28.285-66.294-97.04-66.294-64.569,0-88.237,31.248-96.089,61.253a84.215,84.215,0,0,1,17.505-21.8,119.738,119.738,0,0,0-12.359,21.921A52.878,52.878,0,0,1,212.207,116.2a76.733,76.733,0,0,0-20.238,49.858c6.562-31.562,32.137-58.375,63.353-66.419a24.6,24.6,0,0,0-14.212,24.973l23.214-28.155a107.831,107.831,0,0,0-.735,20.029,162.229,162.229,0,0,0,7.061-21,176.478,176.478,0,0,1,.87,39.549,157,157,0,0,0,14.939-42.37,182.651,182.651,0,0,1,1.2,33.146,110.14,110.14,0,0,0,8.82-25.169q1.875,9.012,3.75,18.02a31.451,31.451,0,0,0,4.953-19.909,71.085,71.085,0,0,1,17.36,28.339A48.006,48.006,0,0,0,319.6,95.635a161.843,161.843,0,0,1,30.3,29.512,80.789,80.789,0,0,0-9.774-23.417A241.146,241.146,0,0,1,373.519,150.5a75.429,75.429,0,0,0-20.178-47.145C368.323,110.939,375.785,127.764,379.874,144.256Z" transform="translate(-186.745 -77.962)" opacity="0.32" fill="url(#linear-gradient-18)" style="mix-blend-mode: overlay;isolation: isolate"/>
            <path id="Trazado_134268" data-name="Trazado 134268" d="M190.358,116.7c-.347.768-.68,1.542-.989,2.326C189.688,118.246,190.023,117.473,190.358,116.7Z" transform="translate(-185.212 -55.325)" opacity="0.32" fill="url(#linear-gradient-19)" style="mix-blend-mode: overlay;isolation: isolate"/>
          </g>
          <g id="Grupo_79397" data-name="Grupo 79397" transform="translate(137.483 383.599)">
            <path id="Trazado_134269" data-name="Trazado 134269" d="M176.45,279.478l5.007,2.107A6.881,6.881,0,0,0,176.45,279.478Z" transform="translate(-176.45 -279.475)" fill="#fff" opacity="0.32" style="mix-blend-mode: overlay;isolation: isolate"/>
            <path id="Trazado_134270" data-name="Trazado 134270" d="M179.61,280.807c.168.162.331.333.491.509.027-.089.057-.177.084-.266Z" transform="translate(-174.603 -278.697)" fill="#fff" opacity="0.32" style="mix-blend-mode: overlay;isolation: isolate"/>
          </g>
          <path id="Trazado_134271" data-name="Trazado 134271" d="M209.017,346.992c-6.605-19.156-20.478-43.6-20.478-43.6s22.46-73.325,21.138-76.629-9.909-6.605-9.909-6.605,6.605-12.551,2.643-15.194c-2.191-1.459-15.679-8.367-27.308-14.254a56.9,56.9,0,0,0-.67,14.1q-8.356-.8-16.71-1.6l23.07,9.622a312.636,312.636,0,0,1-23.54,85.5c-5.613,12.873-12.157,25.549-14.779,39.347A73.322,73.322,0,0,0,154.5,393.027a43.568,43.568,0,0,0,10.336,10.6c19.12-7.456,32.289-22.945,32.289-22.945S215.622,366.149,209.017,346.992Z" transform="translate(-59.542 52.255)" fill="#6a212a" opacity="0.58" style="mix-blend-mode: multiply;isolation: isolate"/>
          <path id="Trazado_134272" data-name="Trazado 134272" d="M312.342,346.992c6.607-19.156,20.479-43.6,20.479-43.6s-22.46-73.325-21.14-76.629,9.91-6.605,9.91-6.605-6.607-12.551-2.643-15.194c2.19-1.459,15.677-8.367,27.308-14.254a57.05,57.05,0,0,1,.67,14.1q8.354-.8,16.71-1.6-11.536,4.81-23.07,9.622a312.63,312.63,0,0,0,23.539,85.5c5.615,12.873,12.157,25.549,14.779,39.347a73.315,73.315,0,0,1-12.027,55.338,43.591,43.591,0,0,1-10.335,10.6c-19.121-7.456-32.291-22.945-32.291-22.945S305.737,366.149,312.342,346.992Z" transform="translate(39.608 52.255)" fill="#6a212a" opacity="0.58" style="mix-blend-mode: multiply;isolation: isolate"/>
          <ellipse id="Elipse_4878" data-name="Elipse 4878" cx="246.872" cy="66.781" rx="246.872" ry="66.781" transform="translate(0 133.589)" fill="url(#radial-gradient)"/>
          <path id="Trazado_134273" data-name="Trazado 134273" d="M306.293,181.064h-45.87a3.21,3.21,0,0,1-3.2-3.2h0a3.21,3.21,0,0,1,3.2-3.2h45.87a3.21,3.21,0,0,1,3.2,3.2h0A3.21,3.21,0,0,1,306.293,181.064Z" transform="translate(8.232 42.877)" fill="#f7e81a"/>
          <path id="Trazado_134274" data-name="Trazado 134274" d="M234.73,177.551H204.773a2.1,2.1,0,0,1-2.09-2.09h0a2.1,2.1,0,0,1,2.09-2.09H234.73a2.1,2.1,0,0,1,2.09,2.09h0A2.1,2.1,0,0,1,234.73,177.551Z" transform="translate(-23.638 42.122)" fill="#cf1472"/>
          <path id="Trazado_134275" data-name="Trazado 134275" d="M342.123,174.506H206.644a8.026,8.026,0,0,1-8-8h0a8.024,8.024,0,0,1,8-8H342.123a8.023,8.023,0,0,1,8,8h0A8.025,8.025,0,0,1,342.123,174.506Z" transform="translate(-25.999 33.434)" fill="#fff"/>
        </g>
        <path id="Trazado_134276" data-name="Trazado 134276" d="M47.82,90.5,220.636,568.412c0,11.2,67.582,20.27,150.949,20.27s150.949-9.075,150.949-20.27L695.35,90.5Z" transform="translate(-47.82 -6.305)" fill="url(#radial-gradient-2)"/>
      </g>
      <ellipse id="Elipse_4879" data-name="Elipse 4879" cx="310.922" cy="77.158" rx="310.922" ry="77.158" transform="translate(0 483.444)" fill="url(#radial-gradient-3)"/>
      <ellipse id="Elipse_4880" data-name="Elipse 4880" cx="310.922" cy="77.158" rx="310.922" ry="77.158" transform="translate(120.077 483.444)" fill="url(#radial-gradient-4)"/>
      <path id="Trazado_134277" data-name="Trazado 134277" d="M148.089,238.185c2.676-3.874,5.327-8.273,4.789-12.952-.341-2.96-1.928-5.61-3.479-8.156q-4.558-7.481-9.115-14.964c-.892,4.135-1.033,11.054-.6,17.992.428,6.844-3.3,20.616-8.67,39.511A202.746,202.746,0,0,0,148.089,238.185Z" transform="translate(60.521 58.916)" fill="#6a212a" opacity="0.58" style="mix-blend-mode: multiply;isolation: isolate"/>
      <path id="Trazado_134278" data-name="Trazado 134278" d="M379.1,274.064c-7.646-27.081-13.722-46.746-13.182-55.383a96.437,96.437,0,0,0-.041-14.136q-7.4,12.755-14.677,25.578c-1.3,2.3-2.633,4.748-2.538,7.385.092,2.522,1.481,4.789,2.855,6.908a279.277,279.277,0,0,0,25.449,33.4C377.717,276.585,378.421,275.33,379.1,274.064Z" transform="translate(187.7 60.339)" fill="#6a212a" opacity="0.58" style="mix-blend-mode: multiply;isolation: isolate"/>
      <path id="Trazado_134279" data-name="Trazado 134279" d="M172.2,381.138a11.459,11.459,0,0,0-2.429-3.462c-6.122-6.51-13.676-11.655-19.133-18.73-5.485-7.112-8.538-15.774-11.024-24.405-9.582-33.273-11.637-70.266,3.2-101.55l-2.343-.691c-3.4,12.306-7.9,27.469-12.548,44.812-9.909,36.993-17.835,94.464,17.176,104.372A48.686,48.686,0,0,0,172.2,381.138Z" transform="translate(53.783 76.556)" fill="url(#linear-gradient-20)"/>
      <path id="Trazado_134280" data-name="Trazado 134280" d="M343.316,381.138a11.491,11.491,0,0,1,2.43-3.462c6.12-6.51,13.674-11.655,19.131-18.73,5.485-7.112,8.54-15.774,11.024-24.405,9.582-33.273,11.637-70.266-3.2-101.55l2.343-.691c3.4,12.306,7.9,27.469,12.546,44.812,9.909,36.993,17.837,94.464-17.174,104.372A48.691,48.691,0,0,1,343.316,381.138Z" transform="translate(184.579 76.556)" fill="url(#linear-gradient-21)"/>
      <g id="Grupo_79400" data-name="Grupo 79400" transform="translate(104.388 420.148)">
        <path id="Trazado_134281" data-name="Trazado 134281" d="M565.885,305.237c30.217,7.29,47.928,16.145,47.928,25.693,0,24.895-120.39,45.075-268.9,45.075s-268.9-20.18-268.9-45.075c0-10.759,22.488-20.638,60.014-28.387" transform="translate(-76.01 -302.544)" fill="none" stroke="#fff" stroke-miterlimit="10" stroke-width="3"/>
        <ellipse id="Elipse_4881" data-name="Elipse 4881" cx="96.062" cy="23.839" rx="96.062" ry="23.839" transform="translate(193.325 49.372)" fill="url(#radial-gradient-5)" style="mix-blend-mode: screen;isolation: isolate"/>
        <ellipse id="Elipse_4882" data-name="Elipse 4882" cx="87.656" cy="21.753" rx="87.656" ry="21.753" transform="translate(404.542 47.79) rotate(-10.758)" fill="url(#radial-gradient-6)" style="mix-blend-mode: screen;isolation: isolate"/>
        <ellipse id="Elipse_4883" data-name="Elipse 4883" cx="21.753" cy="87.656" rx="21.753" ry="87.656" transform="translate(4.387 74.879) rotate(-84.773)" fill="url(#radial-gradient-7)" style="mix-blend-mode: screen;isolation: isolate"/>
      </g>
      <g id="Grupo_79403" data-name="Grupo 79403" transform="translate(104.388 40.868)">
        <path id="Trazado_134282" data-name="Trazado 134282" d="M127.593,569.81H85.616V248.478A20.988,20.988,0,0,1,106.6,227.489h0a20.989,20.989,0,0,1,20.99,20.989Z" transform="translate(-70.397 32.878)" fill="url(#linear-gradient-22)"/>
        <path id="Rectángulo_34259" data-name="Rectángulo 34259" d="M13.248,0H28.73A13.247,13.247,0,0,1,41.978,13.247V342.32a0,0,0,0,1,0,0H0a0,0,0,0,1,0,0V13.248A13.248,13.248,0,0,1,13.248,0Z" transform="translate(542.958 94.661)" fill="url(#linear-gradient-23)"/>
        <path id="Rectángulo_34260" data-name="Rectángulo 34260" d="M13.248,0H28.73A13.247,13.247,0,0,1,41.978,13.247V342.32a0,0,0,0,1,0,0H0a0,0,0,0,1,0,0V13.248A13.248,13.248,0,0,1,13.248,0Z" transform="translate(423.507 94.661)" fill="url(#linear-gradient-23)"/>
        <path id="Rectángulo_34261" data-name="Rectángulo 34261" d="M13.248,0H28.73A13.247,13.247,0,0,1,41.978,13.247V125.034a0,0,0,0,1,0,0H0a0,0,0,0,1,0,0V13.248A13.248,13.248,0,0,1,13.248,0Z" transform="translate(48.054 62.016)" fill="url(#linear-gradient-25)"/>
        <rect id="Rectángulo_34262" data-name="Rectángulo 34262" width="52.234" height="69.645" transform="translate(146.453)" fill="url(#linear-gradient-26)"/>
        <g id="Grupo_79401" data-name="Grupo 79401" transform="translate(0 379.28)">
          <path id="Trazado_134283" data-name="Trazado 134283" d="M565.885,305.237c30.217,7.29,47.928,16.145,47.928,25.693,0,24.895-120.39,45.075-268.9,45.075s-268.9-20.18-268.9-45.075c0-10.759,22.488-20.638,60.014-28.387" transform="translate(-76.01 -302.544)" fill="none" stroke="#fff" stroke-miterlimit="10" stroke-width="3"/>
          <ellipse id="Elipse_4884" data-name="Elipse 4884" cx="96.062" cy="23.839" rx="96.062" ry="23.839" transform="translate(193.325 49.372)" fill="url(#radial-gradient-5)" style="mix-blend-mode: screen;isolation: isolate"/>
          <ellipse id="Elipse_4885" data-name="Elipse 4885" cx="87.656" cy="21.753" rx="87.656" ry="21.753" transform="translate(404.542 47.79) rotate(-10.758)" fill="url(#radial-gradient-6)" style="mix-blend-mode: screen;isolation: isolate"/>
          <ellipse id="Elipse_4886" data-name="Elipse 4886" cx="21.753" cy="87.656" rx="21.753" ry="87.656" transform="translate(4.387 74.879) rotate(-84.773)" fill="url(#radial-gradient-7)" style="mix-blend-mode: screen;isolation: isolate"/>
        </g>
        <g id="Grupo_79402" data-name="Grupo 79402" transform="translate(28.577 314.409)">
          <path id="Trazado_134284" data-name="Trazado 134284" d="M535.726,264.028c27.244,6.572,43.215,14.555,43.215,23.165,0,22.445-108.547,40.642-242.447,40.642s-242.447-18.2-242.447-40.642c0-9.7,20.275-18.607,54.109-25.594" transform="translate(-94.047 -261.599)" fill="none" stroke="#fff" stroke-miterlimit="10" stroke-width="2.705"/>
          <ellipse id="Elipse_4887" data-name="Elipse 4887" cx="86.611" cy="21.493" rx="86.611" ry="21.493" transform="translate(174.305 44.516)" fill="url(#radial-gradient-11)" style="mix-blend-mode: screen;isolation: isolate"/>
          <ellipse id="Elipse_4888" data-name="Elipse 4888" cx="79.033" cy="19.613" rx="79.033" ry="19.613" transform="translate(364.743 43.089) rotate(-10.758)" fill="url(#radial-gradient-12)" style="mix-blend-mode: screen;isolation: isolate"/>
          <ellipse id="Elipse_4889" data-name="Elipse 4889" cx="19.613" cy="79.033" rx="19.613" ry="79.033" transform="translate(3.955 67.513) rotate(-84.773)" fill="url(#radial-gradient-13)" style="mix-blend-mode: screen;isolation: isolate"/>
        </g>
      </g>
    </g>
    <path id="Trazado_134352" data-name="Trazado 134352" d="M18.5,0A18.5,18.5,0,1,1,0,18.5,18.5,18.5,0,0,1,18.5,0Z" transform="translate(7300 -12869)" fill="#fb8c00"/>
    <path id="Trazado_134353" data-name="Trazado 134353" d="M8.572,0H5.106V-11.033l-3.4.995v-2.625L8.254-14.93h.318Z" transform="translate(7312.74 -12844.692)" fill="#fff"/>
    <path id="Trazado_134348" data-name="Trazado 134348" d="M18.5,0A18.5,18.5,0,1,1,0,18.5,18.5,18.5,0,0,1,18.5,0Z" transform="translate(6937 -12599)" fill="#fb8c00"/>
    <path id="Trazado_134349" data-name="Trazado 134349" d="M11.331,0H.913V-2.256L5.711-7.3q1.774-2.02,1.774-3.209a2.232,2.232,0,0,0-.42-1.466,1.5,1.5,0,0,0-1.22-.5,1.52,1.52,0,0,0-1.282.672,2.76,2.76,0,0,0-.492,1.677H.6a4.9,4.9,0,0,1,.687-2.538A4.818,4.818,0,0,1,3.2-14.489a5.665,5.665,0,0,1,2.728-.656,5.573,5.573,0,0,1,3.727,1.118,3.99,3.99,0,0,1,1.307,3.209A4.661,4.661,0,0,1,10.633-9.1a7.532,7.532,0,0,1-1.02,1.753,25.7,25.7,0,0,1-2.23,2.456L5.455-2.666h5.875Z" transform="translate(6949.523 -12574.874)" fill="#fff"/>
    <path id="Trazado_134350" data-name="Trazado 134350" d="M18.5,0A18.5,18.5,0,1,1,0,18.5,18.5,18.5,0,0,1,18.5,0Z" transform="translate(7149 -12841)" fill="#fb8c00"/>
    <path id="Trazado_134351" data-name="Trazado 134351" d="M4.071-8.911H5.7a1.7,1.7,0,0,0,1.938-1.9,1.64,1.64,0,0,0-.461-1.2,1.75,1.75,0,0,0-1.3-.467,1.873,1.873,0,0,0-1.195.4,1.22,1.22,0,0,0-.508.995H.718a3.537,3.537,0,0,1,.656-2.1,4.334,4.334,0,0,1,1.82-1.441,6.223,6.223,0,0,1,2.558-.518,6.114,6.114,0,0,1,3.917,1.138,3.784,3.784,0,0,1,1.425,3.127,3.154,3.154,0,0,1-.59,1.82A4.2,4.2,0,0,1,8.788-7.67a4.014,4.014,0,0,1,1.866,1.307,3.443,3.443,0,0,1,.677,2.169,3.852,3.852,0,0,1-1.538,3.2,6.384,6.384,0,0,1-4.04,1.2A6.621,6.621,0,0,1,3.03-.354,4.265,4.265,0,0,1,1.128-1.9,4.025,4.025,0,0,1,.482-4.153H3.958a1.556,1.556,0,0,0,.554,1.189,1.955,1.955,0,0,0,1.364.5,2.048,2.048,0,0,0,1.456-.508,1.7,1.7,0,0,0,.543-1.3,1.983,1.983,0,0,0-.564-1.6,2.358,2.358,0,0,0-1.559-.472H4.071Z" transform="translate(7161.793 -12816.39)" fill="#fff"/>
    <path id="Trazado_134354" data-name="Trazado 134354" d="M18.5,0A18.5,18.5,0,1,1,0,18.5,18.5,18.5,0,0,1,18.5,0Z" transform="translate(7358 -12498)" fill="#fb8c00"/>
    <path id="Trazado_134355" data-name="Trazado 134355" d="M10.039-5.834h1.518v2.666H10.039V0H6.583V-3.168H.81L.6-5.281,6.583-14.9v-.031h3.456Zm-6.142,0H6.583v-4.594l-.215.349Z" transform="translate(7370.289 -12473.929)" fill="#fff"/>
    <path id="Trazado_134356" data-name="Trazado 134356" d="M10.494,0A10.494,10.494,0,0,1,20.989,10.494V104.16H0V10.494A10.494,10.494,0,0,1,10.494,0Z" transform="translate(7411.509 -12460.16)" fill="url(#linear-gradient-23)"/>
  </g>
</svg>
