<svg xmlns="http://www.w3.org/2000/svg" width="258" height="209" viewBox="0 0 258 209">
  <g id="Grupo_79423" data-name="Grupo 79423" transform="translate(13566 9409)">
    <rect id="Rectángulo_34268" data-name="Rectángulo 34268" width="258" height="209" transform="translate(-13566 -9409)" fill="#fee2bf"/>
    <g id="Grupo_79422" data-name="Grupo 79422" transform="translate(-13980.781 -11710.693)">
      <g id="Grupo_74026" data-name="Grupo 74026" transform="translate(420.458 2402.604)">
        <g id="Grupo_73978" data-name="Grupo 73978" transform="translate(9.234 13.83)">
          <path id="Trazado_108993" data-name="Trazado 108993" d="M1.494,299.682v6.561L9,307.512,227.13,305.9l7.5-4.249-7.5-1.268Z" transform="translate(-1.494 -299.682)" fill="#e0e0e0"/>
          <path id="Trazado_108994" data-name="Trazado 108994" d="M17.348,302.362v6.561l225.635-.348v-5.517Z" transform="translate(-9.846 -301.094)" fill="#e6e6e6"/>
        </g>
        <g id="Grupo_73979" data-name="Grupo 73979" transform="translate(9.234 32.556)">
          <path id="Trazado_108995" data-name="Trazado 108995" d="M1.494,339.255v6.561L9,347.084l218.133-1.616,7.5-4.249-7.5-1.268Z" transform="translate(-1.494 -339.255)" fill="#e0e0e0"/>
          <path id="Trazado_108996" data-name="Trazado 108996" d="M17.348,341.934V348.5l225.635-.348v-5.517Z" transform="translate(-9.846 -340.666)" fill="#e6e6e6"/>
        </g>
        <g id="Grupo_73983" data-name="Grupo 73983" transform="translate(21.432 6.27)">
          <g id="Grupo_73980" data-name="Grupo 73980" transform="translate(0)">
            <path id="Trazado_108997" data-name="Trazado 108997" d="M37.737,283.708h-8.77l-1.695,1.279,2.16,37.187,5.679,1.279,1.695-1.279Z" transform="translate(-27.272 -283.708)" fill="#e0e0e0"/>
            <path id="Trazado_108998" data-name="Trazado 108998" d="M36.042,286.411h-8.77l.465,38.466h7.374Z" transform="translate(-27.272 -285.132)" fill="#f0f0f0"/>
          </g>
          <g id="Grupo_73981" data-name="Grupo 73981" transform="translate(18.402)">
            <path id="Trazado_108999" data-name="Trazado 108999" d="M76.623,283.708h-8.77l-1.695,1.279,2.16,37.187L74,323.453l1.695-1.279Z" transform="translate(-66.159 -283.708)" fill="#e0e0e0"/>
            <path id="Trazado_109000" data-name="Trazado 109000" d="M74.929,286.411h-8.77l.465,38.466H74Z" transform="translate(-66.159 -285.132)" fill="#f0f0f0"/>
          </g>
          <g id="Grupo_73982" data-name="Grupo 73982" transform="translate(36.804)">
            <path id="Trazado_109001" data-name="Trazado 109001" d="M115.51,283.708h-8.77l-1.695,1.279,2.16,37.187,5.679,1.279,1.695-1.279Z" transform="translate(-105.046 -283.708)" fill="#e0e0e0"/>
            <path id="Trazado_109002" data-name="Trazado 109002" d="M113.816,286.411h-8.77l.465,38.466h7.374Z" transform="translate(-105.046 -285.132)" fill="#f0f0f0"/>
          </g>
        </g>
        <g id="Grupo_73987" data-name="Grupo 73987" transform="translate(98.267 6.27)">
          <g id="Grupo_73984" data-name="Grupo 73984">
            <path id="Trazado_109003" data-name="Trazado 109003" d="M200.1,283.708h-8.77l-1.695,1.279,2.16,37.187,5.679,1.279,1.695-1.279Z" transform="translate(-189.638 -283.708)" fill="#e0e0e0"/>
            <path id="Trazado_109004" data-name="Trazado 109004" d="M198.408,286.411h-8.77l.465,38.466h7.374Z" transform="translate(-189.638 -285.132)" fill="#f0f0f0"/>
          </g>
          <g id="Grupo_73985" data-name="Grupo 73985" transform="translate(18.402)">
            <path id="Trazado_109005" data-name="Trazado 109005" d="M238.99,283.708h-8.77l-1.695,1.279,2.16,37.187,5.679,1.279,1.695-1.279Z" transform="translate(-228.525 -283.708)" fill="#e0e0e0"/>
            <path id="Trazado_109006" data-name="Trazado 109006" d="M237.295,286.411h-8.77l.465,38.466h7.374Z" transform="translate(-228.525 -285.132)" fill="#f0f0f0"/>
          </g>
          <g id="Grupo_73986" data-name="Grupo 73986" transform="translate(36.804)">
            <path id="Trazado_109007" data-name="Trazado 109007" d="M277.876,283.708h-8.77l-1.695,1.279,2.16,37.187,5.679,1.279,1.695-1.279Z" transform="translate(-267.412 -283.708)" fill="#e0e0e0"/>
            <path id="Trazado_109008" data-name="Trazado 109008" d="M276.182,286.411h-8.77l.465,38.466h7.374Z" transform="translate(-267.412 -285.132)" fill="#f0f0f0"/>
          </g>
        </g>
        <g id="Grupo_73991" data-name="Grupo 73991" transform="translate(177.992 6.27)">
          <g id="Grupo_73988" data-name="Grupo 73988">
            <path id="Trazado_109009" data-name="Trazado 109009" d="M368.576,283.708h-8.77l-1.695,1.279,2.16,37.187,5.679,1.279,1.695-1.279Z" transform="translate(-358.111 -283.708)" fill="#e0e0e0"/>
            <path id="Trazado_109010" data-name="Trazado 109010" d="M366.881,286.411h-8.77l.465,38.466h7.374Z" transform="translate(-358.111 -285.132)" fill="#f0f0f0"/>
          </g>
          <g id="Grupo_73989" data-name="Grupo 73989" transform="translate(18.402)">
            <path id="Trazado_109011" data-name="Trazado 109011" d="M407.463,283.708h-8.77L397,284.987l2.16,37.187,5.679,1.279,1.695-1.279Z" transform="translate(-396.998 -283.708)" fill="#e0e0e0"/>
            <path id="Trazado_109012" data-name="Trazado 109012" d="M405.768,286.411H397l.465,38.466h7.374Z" transform="translate(-396.998 -285.132)" fill="#f0f0f0"/>
          </g>
          <g id="Grupo_73990" data-name="Grupo 73990" transform="translate(36.804)">
            <path id="Trazado_109013" data-name="Trazado 109013" d="M446.35,283.708h-8.77l-1.695,1.279,2.16,37.187,5.679,1.279,1.695-1.279Z" transform="translate(-435.885 -283.708)" fill="#e0e0e0"/>
            <path id="Trazado_109014" data-name="Trazado 109014" d="M444.655,286.411h-8.77l.465,38.466h7.374Z" transform="translate(-435.885 -285.132)" fill="#f0f0f0"/>
          </g>
        </g>
        <g id="Grupo_73992" data-name="Grupo 73992" transform="translate(77.537)">
          <path id="Trazado_109015" data-name="Trazado 109015" d="M158.017,271.444l-9.786-.987-2.4,1.685,3.06,48.982,9.363,1.685,2.4-1.685Z" transform="translate(-145.83 -270.457)" fill="#e0e0e0"/>
          <path id="Trazado_109016" data-name="Trazado 109016" d="M155.616,275l-9.786-.987.659,50.667h11.764Z" transform="translate(-145.83 -272.333)" fill="#fafafa"/>
        </g>
        <g id="Grupo_73993" data-name="Grupo 73993" transform="translate(154.414)">
          <path id="Trazado_109017" data-name="Trazado 109017" d="M324.5,270.457l-12.423.493-2.4,1.685,1.741,48.489,9.363,1.685,2.4-1.685Z" transform="translate(-309.02 -270.457)" fill="#e0e0e0"/>
          <path id="Trazado_109018" data-name="Trazado 109018" d="M321.369,274.017l-12.423.493-.659,50.173H320.05Z" transform="translate(-308.286 -272.333)" fill="#fafafa"/>
        </g>
        <g id="Grupo_73994" data-name="Grupo 73994" transform="translate(232.61)">
          <path id="Trazado_109019" data-name="Trazado 109019" d="M488.353,270.457H475.929l-2.4,1.685,3.06,48.982,8.044,1.685,2.4-1.685Z" transform="translate(-473.529 -270.457)" fill="#e0e0e0"/>
          <path id="Trazado_109020" data-name="Trazado 109020" d="M485.952,274.017H473.529l.659,50.667h10.445Z" transform="translate(-473.529 -272.333)" fill="#fafafa"/>
        </g>
        <g id="Grupo_73995" data-name="Grupo 73995">
          <path id="Trazado_109021" data-name="Trazado 109021" d="M-3.195,270.457H-15.618l-2.4,1.685,3.06,48.982,8.044,1.685,2.4-1.685Z" transform="translate(18.019 -270.457)" fill="#e0e0e0"/>
          <path id="Trazado_109022" data-name="Trazado 109022" d="M-5.6,274.017H-18.019l.659,50.667H-6.914Z" transform="translate(18.019 -272.333)" fill="#fafafa"/>
        </g>
      </g>
      <g id="Grupo_74027" data-name="Grupo 74027" transform="translate(435.002 2346.692)">
        <g id="Grupo_73998" data-name="Grupo 73998">
          <g id="Grupo_73997" data-name="Grupo 73997">
            <path id="Trazado_109023" data-name="Trazado 109023" d="M25.486,164.867c2.854-.492,6.112,1.051,8.632-.064,3.138-1.388,2.91-5.833,6.534-6.128,6.3-.513,8.825,6.462,12.656,6.689,3.582.212,5.8-3.393,9.382-3.651,4.457-.322,7.081,4.262,11.528,4.654,2.453.217,4.813-.889,7.28-.8,2.914.1,5.44,2.133,5.286,4.4H16.941S21.663,165.525,25.486,164.867Z" transform="translate(-16.941 -158.648)" fill="#fafafa"/>
            <path id="Trazado_109024" data-name="Trazado 109024" d="M227.469,172.891c2.1-.91,3.985-.587,6.019-.3s2.257-1.761,4.665-2.64c3.363-1.228,5.407,1.413,6.269,2.493s3.031.488,5.166.776c2.958.4,3.059,2.708,3.059,2.708H225.162A3.635,3.635,0,0,1,227.469,172.891Z" transform="translate(-126.628 -164.432)" fill="#f5f5f5"/>
          </g>
        </g>
        <path id="Trazado_109025" data-name="Trazado 109025" d="M208.129,203.367c-1.165-.2-2.5.43-3.525-.026-1.281-.567-1.188-2.382-2.668-2.5-2.573-.209-3.6,2.639-5.168,2.731-1.462.087-2.37-1.386-3.831-1.491-1.82-.132-2.891,1.74-4.707,1.9-1,.088-1.965-.363-2.972-.329-1.19.041-2.221.871-2.158,1.8h28.518A9.08,9.08,0,0,0,208.129,203.367Z" transform="translate(-104.469 -180.868)" fill="#f5f5f5"/>
        <path id="Trazado_109026" data-name="Trazado 109026" d="M398.017,175.272c-1.414-.244-3.028.521-4.276-.031-1.554-.688-1.441-2.889-3.236-3.036-3.121-.254-4.372,3.2-6.27,3.313-1.774.106-2.876-1.681-4.647-1.809-2.208-.159-3.508,2.112-5.71,2.306-1.215.107-2.384-.441-3.606-.4-1.444.049-2.694,1.057-2.619,2.18h34.6S399.911,175.6,398.017,175.272Z" transform="translate(-201.687 -165.783)" fill="#f5f5f5"/>
      </g>
      <g id="Grupo_74025" data-name="Grupo 74025">
        <g id="Shadow" transform="translate(453.538 2452.23)">
          <ellipse id="_Path_" data-name="&lt;Path&gt;" cx="91.752" cy="5.358" rx="91.752" ry="5.358" fill="#f4d1a5"/>
        </g>
        <g id="Character_3" data-name="Character 3" transform="translate(419.781 2357.912)">
          <g id="Grupo_74011" data-name="Grupo 74011">
            <g id="Grupo_74004" data-name="Grupo 74004" transform="translate(163.992 0.583)">
              <path id="Trazado_109027" data-name="Trazado 109027" d="M385.131,260.511s-4.742,6.195,1.836,10.937l1.6-3.821s-.791-1.245-.333-4.533Z" transform="translate(-358.796 -231.11)" fill="#ebb376"/>
              <path id="Trazado_109028" data-name="Trazado 109028" d="M398.58,239.816c-2.4-2.271-5.937-.976-14.181,9.189,0,0,3.259,3.418,5.258,4.451,0,0,7.08-5.956,8.324-7.35S401.492,242.573,398.58,239.816Z" transform="translate(-359.282 -219.705)" fill="#407bff"/>
              <path id="Trazado_109029" data-name="Trazado 109029" d="M398.58,239.816c-2.4-2.271-5.937-.976-14.181,9.189,0,0,3.259,3.418,5.258,4.451,0,0,7.08-5.956,8.324-7.35S401.492,242.573,398.58,239.816Z" transform="translate(-359.282 -219.705)" fill="#fff" opacity="0.1"/>
              <path id="Trazado_109030" data-name="Trazado 109030" d="M420.628,378.858l2.507-2.865,2.129,1.92-2.534,3.08Z" transform="translate(-378.366 -291.944)" fill="#ebb376"/>
              <path id="Trazado_109031" data-name="Trazado 109031" d="M419.608,383.536l-2.547-2.4a.284.284,0,0,0-.361.034l-2.756,2.243a.614.614,0,0,0-.242.723.33.33,0,0,0,.058.072c.822.739,1.472,1.221,2.482,2.172.622.586,2.411,2.445,3.269,3.253s2.1-.28,1.848-.721a9.663,9.663,0,0,1-1.58-4.869A.584.584,0,0,0,419.608,383.536Z" transform="translate(-374.693 -294.627)" fill="#263238"/>
              <path id="Trazado_109032" data-name="Trazado 109032" d="M399.833,302.437s7.286,8.475,22.321,12.949c0,0-6.883,4.718-9.422,15.387l-1.6,2.249a7.81,7.81,0,0,0,3.193,2.511l1.59-2.151s10.347-9.205,14.985-19.838c-.066-5.274-24.549-20.72-26.148-19.314S399.833,302.437,399.833,302.437Z" transform="translate(-367.412 -248.825)" fill="#407bff"/>
              <path id="Trazado_109033" data-name="Trazado 109033" d="M399.833,302.437s7.286,8.475,22.321,12.949c0,0-6.883,4.718-9.422,15.387l-1.6,2.249a7.81,7.81,0,0,0,3.193,2.511l1.59-2.151s10.347-9.205,14.985-19.838c-.066-5.274-24.549-20.72-26.148-19.314S399.833,302.437,399.833,302.437Z" transform="translate(-367.412 -248.825)" opacity="0.5"/>
              <path id="Trazado_109034" data-name="Trazado 109034" d="M336.686,399.81l1.934-3.576,2.37,1.535-1.526,2.958Z" transform="translate(-334.148 -302.606)" fill="#ebb376"/>
              <path id="Trazado_109035" data-name="Trazado 109035" d="M336.836,403.811l-2.881-1.286a.283.283,0,0,0-.329.15l-2.178,2.885a.613.613,0,0,0,.01.762.3.3,0,0,0,.078.049c1.019.427,1.792.668,3.058,1.233.78.348,3.082,1.513,4.159,1.994s1.886-.954,1.507-1.289a9.668,9.668,0,0,1-3.1-4.077A.583.583,0,0,0,336.836,403.811Z" transform="translate(-331.322 -305.913)" fill="#263238"/>
              <path id="Trazado_109036" data-name="Trazado 109036" d="M362.8,320.231c-2.366,4.938-19.313,21.5-19.313,21.5l-1.616,2.049a6.245,6.245,0,0,1-3.2-1.96l1.341-2.193c7.448-17.447,15.675-20.858,15.675-20.858.977-17.627,3.015-19.113,5.207-26.167,4.326-1.157,11.641.611,11.641.611A85.185,85.185,0,0,1,362.8,320.231Z" transform="translate(-335.19 -247.808)" fill="#407bff"/>
              <path id="Trazado_109037" data-name="Trazado 109037" d="M362.8,320.231c-2.366,4.938-19.313,21.5-19.313,21.5l-1.616,2.049a6.245,6.245,0,0,1-3.2-1.96l1.341-2.193c7.448-17.447,15.675-20.858,15.675-20.858.977-17.627,3.015-19.113,5.207-26.167,4.326-1.157,11.641.611,11.641.611A85.185,85.185,0,0,1,362.8,320.231Z" transform="translate(-335.19 -247.808)" opacity="0.3"/>
              <path id="Trazado_109038" data-name="Trazado 109038" d="M399.16,263.3s-4.39,1.74-13.534-.408c0,0,6.991-22.061,8.458-25.2,1.254-2.686,11.121-2.69,13.851,1.26C410.923,243.271,402.947,260.6,399.16,263.3Z" transform="translate(-359.928 -218.096)" fill="#407bff"/>
              <path id="Trazado_109039" data-name="Trazado 109039" d="M399.16,263.3s-4.39,1.74-13.534-.408c0,0,6.991-22.061,8.458-25.2,1.254-2.686,11.121-2.69,13.851,1.26C410.923,243.271,402.947,260.6,399.16,263.3Z" transform="translate(-359.928 -218.096)" fill="#fff" opacity="0.6"/>
              <g id="Grupo_74001" data-name="Grupo 74001" transform="translate(32.778 17.695)">
                <path id="Trazado_109040" data-name="Trazado 109040" d="M441.85,288.219l2.345.41a16.532,16.532,0,0,1,3.1-.847,19.8,19.8,0,0,1,3.332,1.689s.521.85.445,1.074a17.34,17.34,0,0,1-4.621,2.23c-.71-.033-2.277-1.49-2.516-1.671s-4.094-1.526-4.094-1.526Z" transform="translate(-421.263 -263.171)" fill="#ebb376"/>
                <path id="Trazado_109041" data-name="Trazado 109041" d="M410.968,264.812s4.791,13.23,17.621,13.24l.8-2.315s-7.85.182-13.888-12.155Z" transform="translate(-406.056 -250.423)" fill="#ebb376"/>
                <path id="Trazado_109042" data-name="Trazado 109042" d="M402.63,236.248c-3.023,1.333-3.2,5.1,2.982,16.632,0,0,4.413-1.682,6.139-3.124,0,0-2.751-8.835-3.553-10.521S406.3,234.63,402.63,236.248Z" transform="translate(-400.587 -235.775)" fill="#407bff"/>
                <path id="Trazado_109043" data-name="Trazado 109043" d="M402.63,236.248c-3.023,1.333-3.2,5.1,2.982,16.632,0,0,4.413-1.682,6.139-3.124,0,0-2.751-8.835-3.553-10.521S406.3,234.63,402.63,236.248Z" transform="translate(-400.587 -235.775)" fill="#fff" opacity="0.4"/>
              </g>
              <g id="Grupo_74003" data-name="Grupo 74003" transform="translate(40.269)">
                <path id="Trazado_109044" data-name="Trazado 109044" d="M419.092,220.871c-.165,2.177-.807,6.1-2.632,7.079a6.88,6.88,0,0,0,4.144,3.285c2.633.792,2.3-1.417,2.3-1.417-1.961-1.325-1.642-3-.8-4.495Z" transform="translate(-416.44 -210.229)" fill="#ebb376"/>
                <path id="Trazado_109045" data-name="Trazado 109045" d="M424.2,224.708l1.783,2.636a7.119,7.119,0,0,0-.491,1.1,3,3,0,0,1-1.647-2.635A3.153,3.153,0,0,1,424.2,224.708Z" transform="translate(-420.32 -212.25)" opacity="0.2" style="isolation: isolate"/>
                <g id="Grupo_74002" data-name="Grupo 74002">
                  <path id="Trazado_109046" data-name="Trazado 109046" d="M429.754,209.346c-1.023,1.009-.243,2.255,2.791,3.872.817-1.591.5-4.329-.483-4.852S430.647,208.471,429.754,209.346Z" transform="translate(-423.219 -203.541)" fill="#263238"/>
                  <path id="Trazado_109047" data-name="Trazado 109047" d="M420.328,211.755c.479,2.085.737,3.552,1.511,4.671a4.546,4.546,0,0,0,1.069,1.084,3.866,3.866,0,0,0,6.067-3.026c.008-.093.011-.19.011-.287.093-2.677-1.03-6.6-3.919-7.244a3.966,3.966,0,0,0-4.739,4.8Z" transform="translate(-418.418 -202.844)" fill="#ebb376"/>
                  <path id="Trazado_109048" data-name="Trazado 109048" d="M429.759,216.84c.039.233.195.4.347.375s.242-.233.2-.466-.192-.4-.343-.378S429.737,216.607,429.759,216.84Z" transform="translate(-423.443 -207.857)" fill="#263238"/>
                  <path id="Trazado_109049" data-name="Trazado 109049" d="M435.353,215.913c.039.233.195.4.347.375s.246-.232.207-.469-.195-.4-.347-.375S435.314,215.68,435.353,215.913Z" transform="translate(-426.387 -207.368)" fill="#263238"/>
                  <path id="Trazado_109050" data-name="Trazado 109050" d="M433.575,216.974a8.413,8.413,0,0,0,1.447,1.808,1.365,1.365,0,0,1-1.081.394Z" transform="translate(-425.456 -208.176)" fill="#d58745"/>
                  <path id="Trazado_109051" data-name="Trazado 109051" d="M427.754,214.8a.135.135,0,0,1-.09,0,.14.14,0,0,1-.061-.187,1.373,1.373,0,0,1,1.021-.751.134.134,0,0,1,.151.115v.009a.144.144,0,0,1-.125.151h0a1.1,1.1,0,0,0-.8.6A.144.144,0,0,1,427.754,214.8Z" transform="translate(-422.302 -206.535)" fill="#263238"/>
                  <path id="Trazado_109052" data-name="Trazado 109052" d="M436.31,213.205a.143.143,0,0,1-.138-.057,1.1,1.1,0,0,0-.874-.491.14.14,0,0,1-.013-.279,1.385,1.385,0,0,1,1.113.61.137.137,0,0,1-.031.192h0A.154.154,0,0,1,436.31,213.205Z" transform="translate(-426.287 -205.755)" fill="#263238"/>
                  <path id="Trazado_109053" data-name="Trazado 109053" d="M419.95,207.71c1.415.236.655,3.464-.9,6.528-1.584-.833-2.9-3.261-2.39-4.248S418.714,207.507,419.95,207.71Z" transform="translate(-416.487 -203.286)" fill="#263238"/>
                  <path id="Trazado_109054" data-name="Trazado 109054" d="M418.216,220.482a2.766,2.766,0,0,0,1.569,1.415c.916.316,1.43-.49,1.226-1.384-.185-.806-.888-1.942-1.829-1.87A1.233,1.233,0,0,0,418.216,220.482Z" transform="translate(-417.289 -209.054)" fill="#ebb376"/>
                  <path id="Trazado_109055" data-name="Trazado 109055" d="M430,223.461a2.034,2.034,0,0,0,2.043.546" transform="translate(-423.574 -211.593)" fill="none" stroke="#263238" stroke-linecap="round" stroke-linejoin="round" stroke-width="0.526"/>
                  <path id="Trazado_109056" data-name="Trazado 109056" d="M425.9,201.859c-.272.533-.652,1.272-2.394,1.591s-3.377-.371-3.905.135a7.087,7.087,0,0,0-1.045,2.09l-1.943-.364a2.59,2.59,0,0,1,.508-2.748c2.445-2.75,7.381-.8,8.195-4.181C425.312,198.382,426.585,200.51,425.9,201.859Z" transform="translate(-416.417 -198.382)" fill="#263238"/>
                </g>
                <path id="Trazado_109057" data-name="Trazado 109057" d="M428.948,201.041s1.637-.79,1.623-1.851a1.271,1.271,0,0,1,.026,1.6A1.361,1.361,0,0,1,428.948,201.041Z" transform="translate(-423.018 -198.808)" fill="#263238"/>
                <path id="Trazado_109058" data-name="Trazado 109058" d="M433.7,203.412c.547-.251,3.231-2.357,1.567-4.5" transform="translate(-425.519 -198.661)" fill="none" stroke="#263238" stroke-miterlimit="10" stroke-width="0.25"/>
              </g>
            </g>
            <g id="Grupo_74006" data-name="Grupo 74006" transform="translate(160.984)">
              <g id="Grupo_74005" data-name="Grupo 74005">
                <rect id="Rectángulo_32732" data-name="Rectángulo 32732" width="81.562" height="106.266" fill="none" stroke="#263238" stroke-miterlimit="10" stroke-width="0.3"/>
                <rect id="Rectángulo_32733" data-name="Rectángulo 32733" width="81.562" height="106.266" fill="none" stroke="#fff" stroke-miterlimit="10" stroke-width="0.3" opacity="0.6"/>
              </g>
            </g>
            <g id="Grupo_74008" data-name="Grupo 74008" transform="translate(85.606)">
              <g id="Grupo_74007" data-name="Grupo 74007">
                <rect id="Rectángulo_32734" data-name="Rectángulo 32734" width="74.815" height="106.266" fill="none" stroke="#263238" stroke-miterlimit="10" stroke-width="0.3"/>
                <rect id="Rectángulo_32735" data-name="Rectángulo 32735" width="74.815" height="106.266" fill="none" stroke="#fff" stroke-miterlimit="10" stroke-width="0.3" opacity="0.6"/>
              </g>
            </g>
            <g id="Grupo_74010" data-name="Grupo 74010">
              <g id="Grupo_74009" data-name="Grupo 74009">
                <rect id="Rectángulo_32736" data-name="Rectángulo 32736" width="86.062" height="106.266" fill="none" stroke="#263238" stroke-miterlimit="10" stroke-width="0.3"/>
                <rect id="Rectángulo_32737" data-name="Rectángulo 32737" width="86.062" height="106.266" fill="none" stroke="#fff" stroke-miterlimit="10" stroke-width="0.3" opacity="0.6"/>
              </g>
            </g>
          </g>
        </g>
        <g id="Character_2" data-name="Character 2" transform="translate(511.717 2358.669)">
          <g id="Grupo_74015" data-name="Grupo 74015">
            <path id="Trazado_109059" data-name="Trazado 109059" d="M225.706,251a17.956,17.956,0,0,0-2.474-2.307,14.959,14.959,0,0,0-2.906-.041c-7.969-4.379-6.476-9.921-5.767-11.63l.989.126,1.042-6.257c2.624-4.993,4.406-10.213,2.9-12.39a7.653,7.653,0,0,0-3.01-2.28l0-.023a2.427,2.427,0,0,1-1.262-3.361c.051-.132.106-.262.164-.39q.063-.135.132-.269l.018-.033a4.021,4.021,0,0,0,4.8-1.911c.045-.082.089-.168.129-.256a10.406,10.406,0,0,0,1.045-3.857.142.142,0,0,0,.088.082.161.161,0,0,0,.06,0h0a.137.137,0,0,0,.108-.161,1.373,1.373,0,0,0-.174-.459,2.678,2.678,0,0,0,.027-2.259,1.585,1.585,0,0,0-.36-.355,2.29,2.29,0,0,0,1.108-.321c1.1-.441,2.383-1.376,1.978-3.105l-.674.7a6.972,6.972,0,0,0,.008-1.284,2.463,2.463,0,0,1-1.645.98,1.37,1.37,0,0,0,.266-1.192c-.424.957-2.193,1-2.243,1.006-1.743-.421-3.7-1.232-5.57-.412a2.6,2.6,0,0,0-1.6,2.142c-.543.535-.619,1.944-.267,3.224a1.3,1.3,0,0,0-.95,1.315,2.767,2.767,0,0,0,.836,1.941,1.377,1.377,0,0,0,.121.1c-.239,2.227-.922,5.473-2.566,6.356,0,0,.009.019.023.047a10.815,10.815,0,0,0-5.168.424l-.006,0s-3.741-.214-12.545,9.47c0,0,.106.229.293.59-2.313,2.661-8.373,10.553-8.2,20.025-.14.258-1.312,2-1.236,2.688a16.977,16.977,0,0,0,2.858,4.132c.229.04.972-.593.972-.593a19.4,19.4,0,0,0,1.13-3.48,16.181,16.181,0,0,0-1.289-2.867l0-.137c.033-1.006.552-7.627,8.434-16.084a4.315,4.315,0,0,0,.614.452s2.214-1.3,4.516-2.729c-2.4,7.072-5.273,15.1-5.273,15.1-1.548,4.981,1.869,9.824,7.51,16.227a81.686,81.686,0,0,0,4.183,7.957,37.374,37.374,0,0,0-18.047,6.385l-2.7.573a6.294,6.294,0,0,0-.04.7l-2.507.274-.013-.186c-.009-.115-.129-.206-.288-.219l-3.547-.212a.612.612,0,0,0-.667.369.287.287,0,0,0-.006.092c.1,1.1.258,1.9.358,3.278.062.852.122,3.431.207,4.608s1.732,1.211,1.848.719a9.663,9.663,0,0,1,2.131-4.655.584.584,0,0,0,.217-.488l-.024-.338,2.787-.391c.059.153.124.306.2.458l2.625-.508s9.151.29,16.926-3.366c-2.808,4.524-6.032,11.032-6.576,17.724l-.9,2.408a5.44,5.44,0,0,0,.472.333l-.823,2.954h-.187c-.115,0-.214.113-.239.272l-.812,3.522a.613.613,0,0,0,.32.692.283.283,0,0,0,.091.012c1.1-.025,1.909-.121,3.3-.121.854,0,3.431.126,4.611.126s1.333-1.641.851-1.792a9.654,9.654,0,0,1-4.489-2.461.584.584,0,0,0-.463-.25l.512-1.987c.124.011.25.018.377.018l1.2-2.317S217.07,272.4,218.46,267.1c.753-2.872-2.734-9.991-6.083-15.906-1.232-4.985-2.833-9.108-3.755-9.128-.146,0-.327-.008-.531-.015a5.78,5.78,0,0,0,.622-.187,6.84,6.84,0,0,0,.676-.567c.184,5.487,7.29,8.295,9.348,8.992a4.415,4.415,0,0,1,.737.451c.162.218,1.159,1.88,1.77,2.086a15.688,15.688,0,0,0,4.58-.78C225.946,251.871,225.706,251,225.706,251Z" transform="translate(-179.053 -198.749)" fill="#fff"/>
            <g id="Grupo_74014" data-name="Grupo 74014">
              <path id="Trazado_109060" data-name="Trazado 109060" d="M259.415,302.207l1.937.946a14.959,14.959,0,0,1,2.906.041,17.955,17.955,0,0,1,2.474,2.307s.24.87.117,1.046a15.688,15.688,0,0,1-4.58.78c-.61-.206-1.608-1.868-1.77-2.086s-3.563-1.9-3.563-1.9Z" transform="translate(-220.081 -253.249)" fill="#ebb376"/>
              <path id="Trazado_109061" data-name="Trazado 109061" d="M191.555,289.316l-.042,2.332a16.175,16.175,0,0,1,1.289,2.867,19.4,19.4,0,0,1-1.13,3.48s-.743.633-.972.593a16.977,16.977,0,0,1-2.858-4.132c-.077-.693,1.1-2.43,1.236-2.688s.856-4.193.856-4.193Z" transform="translate(-183.682 -245.541)" fill="#ebb376"/>
              <path id="Trazado_109062" data-name="Trazado 109062" d="M199.538,252.081s-9.294,9.291-9.084,20.989l2.435-.12s-.139-7.478,9.268-17.093Z" transform="translate(-185.057 -226.843)" fill="#ebb376"/>
              <path id="Trazado_109063" data-name="Trazado 109063" d="M248.562,277.17s-4.026,6.916,5.517,12.16l-1.034,1.814s-12.266-3.479-9.513-11.739c.172-.516,3.611-3.439,3.611-3.439Z" transform="translate(-212.807 -239.426)" fill="#ebb376"/>
              <path id="Trazado_109064" data-name="Trazado 109064" d="M187.839,356.491l3.784-.414.269,2.854-3.95.553Z" transform="translate(-183.682 -281.627)" fill="#ebb376"/>
              <path id="Trazado_109065" data-name="Trazado 109065" d="M247.169,267.973l4.259.542,1.7-10.223Z" transform="translate(-214.935 -230.115)" fill="#407bff"/>
              <path id="Trazado_109066" data-name="Trazado 109066" d="M247.169,267.973l4.259.542,1.7-10.223Z" transform="translate(-214.935 -230.115)" fill="#fff" opacity="0.1"/>
              <path id="Trazado_109067" data-name="Trazado 109067" d="M183.815,359.482l-.252-3.491c-.009-.115-.129-.206-.288-.219l-3.547-.212a.612.612,0,0,0-.667.369.287.287,0,0,0-.006.092c.1,1.1.258,1.9.358,3.278.062.852.122,3.431.207,4.608s1.732,1.211,1.848.719a9.658,9.658,0,0,1,2.131-4.655A.586.586,0,0,0,183.815,359.482Z" transform="translate(-179.053 -281.352)" fill="#263238"/>
              <path id="Trazado_109068" data-name="Trazado 109068" d="M219.983,400.8l1.092-3.916,2.651.97-.832,3.223Z" transform="translate(-200.615 -303.12)" fill="#ebb376"/>
              <path id="Trazado_109069" data-name="Trazado 109069" d="M205.41,289.248s1.239,10.6,9.286,24.066a37.372,37.372,0,0,0-18.047,6.385l-2.7.573a7.809,7.809,0,0,0,.653,4.009l2.625-.508s15.877.511,23.572-8.166c3.52-3.93-2.224-25.819-4.352-25.865S205.41,289.248,205.41,289.248Z" transform="translate(-186.878 -246.422)" fill="#407bff"/>
              <path id="Trazado_109070" data-name="Trazado 109070" d="M205.41,289.248s1.239,10.6,9.286,24.066a37.372,37.372,0,0,0-18.047,6.385l-2.7.573a7.809,7.809,0,0,0,.653,4.009l2.625-.508s15.877.511,23.572-8.166c3.52-3.93-2.224-25.819-4.352-25.865S205.41,289.248,205.41,289.248Z" transform="translate(-186.878 -246.422)" opacity="0.5"/>
              <path id="Trazado_109071" data-name="Trazado 109071" d="M212.712,288.561c-2.192,7.054,5.566,13.826,15.505,25.151,0,0-9.94,11.624-10.933,23.85l-.9,2.408a6.242,6.242,0,0,0,3.515,1.318l1.2-2.317s13.507-19.468,14.9-24.765-11.641-25.034-11.641-25.034S217.038,287.4,212.712,288.561Z" transform="translate(-196.588 -245.853)" fill="#407bff"/>
              <path id="Trazado_109072" data-name="Trazado 109072" d="M212.712,288.561c-2.192,7.054,5.566,13.826,15.505,25.151,0,0-9.94,11.624-10.933,23.85l-.9,2.408a6.242,6.242,0,0,0,3.515,1.318l1.2-2.317s13.507-19.468,14.9-24.765-11.641-25.034-11.641-25.034S217.038,287.4,212.712,288.561Z" transform="translate(-196.588 -245.853)" opacity="0.3"/>
              <path id="Trazado_109073" data-name="Trazado 109073" d="M226.662,259.241s-4.39,1.74-13.534-.408c0,0,7.792-21.8,8.458-25.2.7-3.56,13.124-1.7,15.854,2.248C240.429,240.2,230.449,256.543,226.662,259.241Z" transform="translate(-197.003 -216.125)" fill="#407bff"/>
              <path id="Trazado_109074" data-name="Trazado 109074" d="M226.662,259.241s-4.39,1.74-13.534-.408c0,0,7.792-21.8,8.458-25.2.7-3.56,13.124-1.7,15.854,2.248C240.429,240.2,230.449,256.543,226.662,259.241Z" transform="translate(-197.003 -216.125)" fill="#fff" opacity="0.6"/>
              <path id="Trazado_109075" data-name="Trazado 109075" d="M219.718,232.86s-3.741-.214-12.545,9.47c0,0,1.639,3.582,3.576,4.727,0,0,8.1-4.754,9.42-6.075S223.845,234.686,219.718,232.86Z" transform="translate(-193.866 -216.718)" fill="#407bff"/>
              <path id="Trazado_109076" data-name="Trazado 109076" d="M219.718,232.86s-3.741-.214-12.545,9.47c0,0,1.639,3.582,3.576,4.727,0,0,8.1-4.754,9.42-6.075S223.845,234.686,219.718,232.86Z" transform="translate(-193.866 -216.718)" fill="#fff" opacity="0.4"/>
              <path id="Trazado_109077" data-name="Trazado 109077" d="M221.724,404.58h-3.155c-.115,0-.214.113-.239.272l-.812,3.523a.613.613,0,0,0,.32.692.283.283,0,0,0,.091.012c1.1-.025,1.909-.121,3.3-.121.855,0,3.431.126,4.611.126s1.333-1.641.851-1.792a9.654,9.654,0,0,1-4.489-2.461A.584.584,0,0,0,221.724,404.58Z" transform="translate(-199.31 -307.177)" fill="#263238"/>
              <g id="Grupo_74013" data-name="Grupo 74013" transform="translate(31.002)">
                <path id="Trazado_109078" data-name="Trazado 109078" d="M247.2,216.968c-.165,2.177-.807,6.073-2.632,7.052a6.872,6.872,0,0,0,4.144,3.312c2.633.792,2.277-1.537,2.277-1.537-2.153-1.187-1.62-2.881-.776-4.375Z" transform="translate(-244.567 -208.346)" fill="#ebb376"/>
                <path id="Trazado_109079" data-name="Trazado 109079" d="M252.307,220.8l1.782,2.636a7.033,7.033,0,0,0-.513,1.085,2.947,2.947,0,0,1-1.625-2.616A3.145,3.145,0,0,1,252.307,220.8Z" transform="translate(-248.448 -210.368)" opacity="0.2" style="isolation: isolate"/>
                <g id="Grupo_74012" data-name="Grupo 74012" transform="translate(1.61 0.212)">
                  <path id="Trazado_109080" data-name="Trazado 109080" d="M262.741,207.754c-1.351.49-1.161,1.948.921,4.683,1.406-1.106,2.258-3.728,1.586-4.612S263.917,207.331,262.741,207.754Z" transform="translate(-255.297 -203.462)" fill="#263238"/>
                  <path id="Trazado_109081" data-name="Trazado 109081" d="M251.355,206.581c-.434,2.094-.812,3.536-.575,4.876a4.559,4.559,0,0,0,.52,1.431,3.866,3.866,0,0,0,6.777-.219c.045-.082.089-.168.129-.256,1.2-2.394,1.818-6.427-.539-8.218a3.967,3.967,0,0,0-6.311,2.386Z" transform="translate(-249.411 -201.397)" fill="#ebb376"/>
                  <path id="Trazado_109082" data-name="Trazado 109082" d="M260.45,213.789c-.061.228.01.446.159.486s.317-.111.379-.338-.007-.444-.154-.487S260.527,213.569,260.45,213.789Z" transform="translate(-254.532 -206.702)" fill="#263238"/>
                  <path id="Trazado_109083" data-name="Trazado 109083" d="M265.926,215.284c-.062.228.01.446.159.486s.32-.109.383-.34-.01-.446-.159-.486S265.988,215.056,265.926,215.284Z" transform="translate(-257.417 -207.489)" fill="#263238"/>
                  <path id="Trazado_109084" data-name="Trazado 109084" d="M263.45,215.411a8.42,8.42,0,0,0,.561,2.246,1.363,1.363,0,0,1-1.146-.093Z" transform="translate(-255.816 -207.739)" fill="#d58745"/>
                  <path id="Trazado_109085" data-name="Trazado 109085" d="M259.326,211.433a.133.133,0,0,1-.08-.042.14.14,0,0,1,.022-.2,1.371,1.371,0,0,1,1.241-.257.134.134,0,0,1,.089.168l0,.009a.143.143,0,0,1-.176.086h0a1.094,1.094,0,0,0-.977.213A.144.144,0,0,1,259.326,211.433Z" transform="translate(-253.894 -205.356)" fill="#263238"/>
                  <path id="Trazado_109086" data-name="Trazado 109086" d="M268.082,213.178a.144.144,0,0,1-.1-.109,1.1,1.1,0,0,0-.59-.811.14.14,0,0,1,.1-.259,1.385,1.385,0,0,1,.757,1.018.138.138,0,0,1-.108.161h0A.16.16,0,0,1,268.082,213.178Z" transform="translate(-258.155 -205.937)" fill="#263238"/>
                  <path id="Trazado_109087" data-name="Trazado 109087" d="M254.014,202.585c1.188.8-.85,3.422-3.541,5.557-1.092-1.418-1.272-4.172-.4-4.858S252.976,201.885,254.014,202.585Z" transform="translate(-248.786 -200.831)" fill="#263238"/>
                  <path id="Trazado_109088" data-name="Trazado 109088" d="M247.969,212.619a2.766,2.766,0,0,0,.836,1.941c.7.669,1.5.151,1.691-.747.168-.81,0-2.135-.882-2.462A1.233,1.233,0,0,0,247.969,212.619Z" transform="translate(-247.969 -205.556)" fill="#ebb376"/>
                  <path id="Trazado_109089" data-name="Trazado 109089" d="M258.151,219.817a2.034,2.034,0,0,0,1.629,1.349" transform="translate(-253.333 -210.06)" fill="none" stroke="#263238" stroke-linecap="round" stroke-linejoin="round" stroke-width="0.526"/>
                  <path id="Trazado_109090" data-name="Trazado 109090" d="M260.406,202.6a2.762,2.762,0,0,1-2.839.447c-1.717-.437-2.914-1.747-3.606-1.506a7.083,7.083,0,0,0-1.821,1.463l-1.614-1.141a2.589,2.589,0,0,1,1.608-2.285c3.369-1.48,7.042,2.352,9.192-.381C261.325,199.2,261.594,201.663,260.406,202.6Z" transform="translate(-249.315 -199.198)" fill="#263238"/>
                </g>
                <path id="Trazado_109091" data-name="Trazado 109091" d="M265.685,199.755s1.818-.035,2.247-1.006a1.271,1.271,0,0,1-.645,1.467A1.361,1.361,0,0,1,265.685,199.755Z" transform="translate(-255.692 -198.749)" fill="#263238"/>
                <path id="Trazado_109092" data-name="Trazado 109092" d="M267.78,203.863c.6,0,3.92-.794,3.3-3.436" transform="translate(-256.795 -199.633)" fill="none" stroke="#263238" stroke-miterlimit="10" stroke-width="0.25"/>
              </g>
            </g>
          </g>
        </g>
        <g id="Character_1" data-name="Character 1" transform="translate(421.314 2360.156)">
          <g id="Grupo_74024" data-name="Grupo 74024" transform="translate(0)">
            <path id="Trazado_109093" data-name="Trazado 109093" d="M68.77,227.392c-.115-.182-1.01-.3-1.01-.3a17.932,17.932,0,0,0-3.085,1.387,14.961,14.961,0,0,0-1.164,2.664h0l-.909.8c-4.034,3.275-7.337,2.542-9.68,1.052l.228-.65a14.759,14.759,0,0,1-4.705-7.956l0,.009a2.64,2.64,0,0,0-.408-1.051,10.134,10.134,0,0,0-4.253-2.922c0-.048-.008-.079-.008-.079a2.427,2.427,0,0,1-1.263-3.361c.051-.132.106-.262.165-.391q.062-.135.132-.268c.026-.052.053-.1.081-.154a4.006,4.006,0,0,0,4.592-2.615c.032-.088.061-.18.087-.274a10.42,10.42,0,0,0,.415-3.975.142.142,0,0,0,.1.067.166.166,0,0,0,.059-.009h0a.137.137,0,0,0,.081-.177,1.367,1.367,0,0,0-.245-.425,2.677,2.677,0,0,0-.335-2.234,1.619,1.619,0,0,0-.4-.289,2.247,2.247,0,0,0,1.034-.5c1.018-.612,2.131-1.739,1.455-3.381l-.554.8a7,7,0,0,0-.2-1.269,2.463,2.463,0,0,1-1.467,1.23,1.371,1.371,0,0,0,.072-1.219c-.265,1.013-2,1.342-2.052,1.351-1.788-.137-3.852-.623-5.565.485a2.6,2.6,0,0,0-1.237,2.37c-.45.615-.3,2.018.252,3.226a1.3,1.3,0,0,0-.727,1.449,2.766,2.766,0,0,0,1.135,1.782,1.1,1.1,0,0,0,.465.192c-.289,2.18-.987,5-2.5,5.81l.026.053a11.8,11.8,0,0,0-5.076.107c-.035-.029-.067-.059-.1-.088,0,0-3.573-1.128-14.489,6.095,0,0,.045.248.139.643-2.9,2.011-10.711,8.171-12.875,17.394-.2.216-1.762,1.611-1.858,2.3a16.958,16.958,0,0,0,1.754,4.709c.212.1,1.088-.336,1.088-.336a19.392,19.392,0,0,0,1.95-3.1,16.186,16.186,0,0,0-.544-3.1l.035-.132c.278-.963,2.408-7.256,12.13-13.517a4.36,4.36,0,0,0,.484.59s5.441-1.579,8.623-2.731c-2.276,6.814-5.475,15.808-6.068,17.469-.848,1.317-1.141,3.638-.378,7.506-.543,5.133-1.469,11.2-4.311,15.939,0,0-5.834-3.936-16.794-4.321l-2.521-1.127a6.24,6.24,0,0,0-.445.544l-2.188-1.254.1-.158a.284.284,0,0,0-.1-.347l-2.743-2.26a.612.612,0,0,0-.756-.095.29.29,0,0,0-.059.071c-.563.951-.907,1.684-1.64,2.861-.452.725-1.921,2.846-2.545,3.847s.687,2,1.07,1.669A9.664,9.664,0,0,1-6.285,265.3a.585.585,0,0,0,.463-.267l.179-.287,2.483,1.325c-.042.159-.08.319-.11.486l2.422,1.135s12.535,9.758,23.863,7.272c2.2-.471,5.045-5.668,7.458-11.577a101.22,101.22,0,0,0,11.332,8.074s-.991,8.851,10.68,23.805l1.272,2.234a5.663,5.663,0,0,0,.7-.2l1.329,2.071-.159.119a.285.285,0,0,0-.027.362l1.473,3.3a.613.613,0,0,0,.672.36.3.3,0,0,0,.08-.045c.866-.685,1.451-1.246,2.558-2.081.681-.514,2.815-1.966,3.756-2.677s.076-2.112-.4-1.943a9.657,9.657,0,0,1-5.066.74.583.583,0,0,0-.528.083l-.06.045-1.22-1.823c.053-.056.106-.112.156-.172l-1.013-2.4s-6.3-22.841-9.483-27.3a136.2,136.2,0,0,0-11.519-16.634,11.188,11.188,0,0,0,.384-3.507,5.729,5.729,0,0,0,.612-.185c1.639-2.174,6.082-7.461,9.2-12.477a21,21,0,0,0,5.591,5.9l.318-.9c7.174,3.317,12.4-3.491,13.465-5.03a3.073,3.073,0,0,1,.526-.367c.264-.065,2.182-.34,2.609-.822A15.687,15.687,0,0,0,68.77,227.392Z" transform="translate(11.983 -201.892)" fill="#fff"/>
            <g id="Grupo_74023" data-name="Grupo 74023" transform="translate(0)">
              <g id="Grupo_74016" data-name="Grupo 74016" transform="translate(0 42.828)">
                <path id="Trazado_109094" data-name="Trazado 109094" d="M2.2,329l3.3,1.893-1.462,2.465L.519,331.476Z" transform="translate(5.397 -311.675)" fill="#ebb376"/>
                <path id="Trazado_109095" data-name="Trazado 109095" d="M-5.821,328.907l1.851-2.97a.284.284,0,0,0-.1-.347l-2.743-2.26a.612.612,0,0,0-.756-.095.3.3,0,0,0-.059.071c-.563.951-.907,1.684-1.64,2.861-.451.725-1.921,2.846-2.545,3.847s.687,2,1.07,1.669a9.669,9.669,0,0,1,4.462-2.509A.584.584,0,0,0-5.821,328.907Z" transform="translate(11.983 -308.592)" fill="#263238"/>
                <path id="Trazado_109096" data-name="Trazado 109096" d="M32.583,293.569c-.787,5.488-.787,15.445-5.006,22.487,0,0-5.834-3.936-16.794-4.321l-2.521-1.127a7.814,7.814,0,0,0-1.832,3.625l2.422,1.135s12.535,9.758,23.863,7.272c5.159-1.1,13.895-28.241,12.2-29.532S35.666,292.464,32.583,293.569Z" transform="translate(2.283 -292.394)" fill="#407bff"/>
                <path id="Trazado_109097" data-name="Trazado 109097" d="M32.583,293.569c-.787,5.488-.787,15.445-5.006,22.487,0,0-5.834-3.936-16.794-4.321l-2.521-1.127a7.814,7.814,0,0,0-1.832,3.625l2.422,1.135s12.535,9.758,23.863,7.272c5.159-1.1,13.895-28.241,12.2-29.532S35.666,292.464,32.583,293.569Z" transform="translate(2.283 -292.394)" opacity="0.5"/>
              </g>
              <g id="Grupo_74017" data-name="Grupo 74017" transform="translate(33.729 41.516)">
                <path id="Trazado_109098" data-name="Trazado 109098" d="M129.443,403.632l-2.2-3.422,2.489-1.333,1.852,2.766Z" transform="translate(-95.09 -347.177)" fill="#ebb376"/>
                <path id="Trazado_109099" data-name="Trazado 109099" d="M133.323,403.2l-2.519,1.9a.284.284,0,0,0-.027.361l1.473,3.3a.613.613,0,0,0,.672.36.3.3,0,0,0,.08-.045c.866-.685,1.451-1.246,2.558-2.081.682-.514,2.815-1.966,3.757-2.677s.076-2.112-.4-1.942a9.661,9.661,0,0,1-5.066.739A.583.583,0,0,0,133.323,403.2Z" transform="translate(-96.923 -349.012)" fill="#263238"/>
                <path id="Trazado_109100" data-name="Trazado 109100" d="M84.072,312.157c3.179,4.458,9.483,27.3,9.483,27.3l1.013,2.4a6.246,6.246,0,0,1-3.264,1.856l-1.272-2.234c-11.671-14.954-10.68-23.805-10.68-23.805-14.958-9.376-18.837-15.333-19.52-18.538-3.267-15.345,9.36-7.519,9.36-7.519A123.737,123.737,0,0,1,84.072,312.157Z" transform="translate(-59.292 -289.624)" fill="#407bff"/>
                <path id="Trazado_109101" data-name="Trazado 109101" d="M84.072,312.157c3.179,4.458,9.483,27.3,9.483,27.3l1.013,2.4a6.246,6.246,0,0,1-3.264,1.856l-1.272-2.234c-11.671-14.954-10.68-23.805-10.68-23.805-14.958-9.376-18.837-15.333-19.52-18.538-3.267-15.345,9.36-7.519,9.36-7.519A123.737,123.737,0,0,1,84.072,312.157Z" transform="translate(-59.292 -289.624)" opacity="0.3"/>
              </g>
              <g id="Grupo_74019" data-name="Grupo 74019" transform="translate(56.514 22.496)">
                <g id="Grupo_74018" data-name="Grupo 74018" transform="translate(5.823 2.707)">
                  <path id="Trazado_109102" data-name="Trazado 109102" d="M144.119,260.621l1.623-1.42a14.96,14.96,0,0,1,1.164-2.664,17.934,17.934,0,0,1,3.086-1.387s.9.115,1.01.3a15.7,15.7,0,0,1-1.056,4.525c-.427.482-2.345.758-2.609.822s-3.136,2.547-3.136,2.547Z" transform="translate(-132.585 -255.151)" fill="#ebb376"/>
                  <path id="Trazado_109103" data-name="Trazado 109103" d="M132.9,263.711c-5.019,4.711-8.99,3.181-11.5,1.2a53.123,53.123,0,0,0-1.653,5.408c8.466,4.687,14.428-4.95,14.428-4.95Z" transform="translate(-119.746 -259.66)" fill="#ebb376"/>
                </g>
                <path id="Trazado_109104" data-name="Trazado 109104" d="M111.355,249.43a14.759,14.759,0,0,0,4.705,7.956l-2.353,6.7s-4.735-3.248-6.266-7.326Z" transform="translate(-107.441 -249.43)" fill="#407bff"/>
                <path id="Trazado_109105" data-name="Trazado 109105" d="M111.355,249.43a14.759,14.759,0,0,0,4.705,7.956l-2.353,6.7s-4.735-3.248-6.266-7.326Z" transform="translate(-107.441 -249.43)" fill="#fff" opacity="0.1"/>
              </g>
              <path id="Trazado_109106" data-name="Trazado 109106" d="M74.356,264s-4.39,1.74-13.534-.408c0,0,7.792-21.8,8.458-25.2.7-3.56,14.374-.609,17.1,3.341C89.373,246.054,77.309,260.083,74.356,264Z" transform="translate(-26.369 -220.275)" fill="#407bff"/>
              <path id="Trazado_109107" data-name="Trazado 109107" d="M74.356,264s-4.39,1.74-13.534-.408c0,0,7.792-21.8,8.458-25.2.7-3.56,14.374-.609,17.1,3.341C89.373,246.054,77.309,260.083,74.356,264Z" transform="translate(-26.369 -220.275)" fill="#fff" opacity="0.6"/>
              <g id="Grupo_74020" data-name="Grupo 74020" transform="translate(15.092 16.686)">
                <path id="Trazado_109108" data-name="Trazado 109108" d="M24.776,282.225l-.614,2.25a16.143,16.143,0,0,1,.544,3.1,19.391,19.391,0,0,1-1.95,3.1s-.876.432-1.088.336a16.972,16.972,0,0,1-1.755-4.709c.1-.69,1.66-2.085,1.859-2.3s1.86-3.853,1.86-3.853Z" transform="translate(-19.909 -259.797)" fill="#ebb376"/>
                <path id="Trazado_109109" data-name="Trazado 109109" d="M37.812,250.011s-11.294,6.72-13.966,18.111l2.39.483s1.7-7.283,13.187-14.289Z" transform="translate(-21.983 -243.926)" fill="#ebb376"/>
                <path id="Trazado_109110" data-name="Trazado 109110" d="M65.249,237.217s-3.574-1.128-14.489,6.095c0,0,.707,3.875,2.3,5.461,0,0,9.02-2.617,10.625-3.572S68.8,240,65.249,237.217Z" transform="translate(-36.161 -237.153)" fill="#407bff"/>
                <path id="Trazado_109111" data-name="Trazado 109111" d="M65.249,237.217s-3.574-1.128-14.489,6.095c0,0,.707,3.875,2.3,5.461,0,0,9.02-2.617,10.625-3.572S68.8,240,65.249,237.217Z" transform="translate(-36.161 -237.153)" fill="#fff" opacity="0.4"/>
              </g>
              <g id="Grupo_74022" data-name="Grupo 74022" transform="translate(49.333)">
                <path id="Trazado_109112" data-name="Trazado 109112" d="M94.9,222.231c-.165,2.177-.806,6.072-2.632,7.052a6.87,6.87,0,0,0,4.144,3.311c2.633.792,2.277-1.536,2.277-1.536-2.153-1.187-1.62-2.881-.776-4.375Z" transform="translate(-92.266 -212.606)" fill="#ebb376"/>
                <path id="Trazado_109113" data-name="Trazado 109113" d="M100.005,226.067l1.782,2.636a7.074,7.074,0,0,0-.512,1.085,2.946,2.946,0,0,1-1.625-2.616A3.161,3.161,0,0,1,100.005,226.067Z" transform="translate(-96.146 -214.627)" opacity="0.2" style="isolation: isolate"/>
                <g id="Grupo_74021" data-name="Grupo 74021" transform="translate(0.878)">
                  <path id="Trazado_109114" data-name="Trazado 109114" d="M108,211.585c-1.255.7-.835,2.109,1.658,4.475,1.211-1.316,1.632-4.041.828-4.806S109.09,210.979,108,211.585Z" transform="translate(-101.069 -206.618)" fill="#263238"/>
                  <path id="Trazado_109115" data-name="Trazado 109115" d="M97.48,211.833c-.093,2.137-.236,3.621.212,4.9a4.555,4.555,0,0,0,.742,1.33,3.866,3.866,0,0,0,6.655-1.3c.032-.088.061-.18.087-.274.8-2.556.766-6.635-1.847-8.026a3.966,3.966,0,0,0-5.848,3.365Z" transform="translate(-95.839 -205.105)" fill="#ebb376"/>
                  <path id="Trazado_109116" data-name="Trazado 109116" d="M106.518,218.293c-.025.235.081.439.235.454s.3-.16.32-.395-.078-.438-.23-.456S106.558,218.063,106.518,218.293Z" transform="translate(-100.65 -210.322)" fill="#263238"/>
                  <path id="Trazado_109117" data-name="Trazado 109117" d="M112.162,218.892c-.024.235.081.439.235.454s.3-.159.324-.4-.081-.439-.235-.454S112.187,218.658,112.162,218.892Z" transform="translate(-103.623 -210.638)" fill="#263238"/>
                  <path id="Trazado_109118" data-name="Trazado 109118" d="M110.04,219.376a8.421,8.421,0,0,0,.913,2.128,1.365,1.365,0,0,1-1.147.091Z" transform="translate(-102.384 -211.102)" fill="#d58745"/>
                  <path id="Trazado_109119" data-name="Trazado 109119" d="M105.021,216.031a.134.134,0,0,1-.086-.028.141.141,0,0,1-.009-.2,1.371,1.371,0,0,1,1.184-.452.134.134,0,0,1,.115.15l0,.01a.144.144,0,0,1-.16.113h0a1.094,1.094,0,0,0-.93.366A.143.143,0,0,1,105.021,216.031Z" transform="translate(-99.794 -208.979)" fill="#263238"/>
                  <path id="Trazado_109120" data-name="Trazado 109120" d="M113.894,216.508a.145.145,0,0,1-.118-.092,1.1,1.1,0,0,0-.711-.706.139.139,0,0,1,.061-.272,1.385,1.385,0,0,1,.91.884.137.137,0,0,1-.081.176h0A.165.165,0,0,1,113.894,216.508Z" transform="translate(-104.044 -209.026)" fill="#263238"/>
                  <path id="Trazado_109121" data-name="Trazado 109121" d="M98.711,207.686c1.3.6-.292,3.514-2.606,6.052-1.305-1.225-1.924-3.915-1.173-4.731S97.574,207.161,98.711,207.686Z" transform="translate(-94.378 -204.869)" fill="#263238"/>
                  <path id="Trazado_109122" data-name="Trazado 109122" d="M94.143,218.969a2.769,2.769,0,0,0,1.136,1.782c.8.548,1.509-.091,1.55-1.007.036-.826-.338-2.108-1.265-2.289A1.233,1.233,0,0,0,94.143,218.969Z" transform="translate(-94.121 -210.076)" fill="#ebb376"/>
                  <path id="Trazado_109123" data-name="Trazado 109123" d="M105.13,224.677a2.034,2.034,0,0,0,1.824,1.071" transform="translate(-99.92 -213.895)" fill="none" stroke="#263238" stroke-linecap="round" stroke-linejoin="round" stroke-width="0.526"/>
                  <path id="Trazado_109124" data-name="Trazado 109124" d="M105.055,205.4a2.762,2.762,0,0,1-2.731.9c-1.765-.157-3.156-1.258-3.8-.91a7.08,7.08,0,0,0-1.564,1.736l-1.776-.869a2.589,2.589,0,0,1,1.222-2.513c3.089-2,7.327,1.195,9.012-1.847C105.418,201.892,106.078,204.282,105.055,205.4Z" transform="translate(-94.67 -201.892)" fill="#263238"/>
                </g>
                <path id="Trazado_109125" data-name="Trazado 109125" d="M109.537,203.268s1.788-.325,2.057-1.352a1.271,1.271,0,0,1-.4,1.551A1.361,1.361,0,0,1,109.537,203.268Z" transform="translate(-101.364 -201.905)" fill="#263238"/>
                <path id="Trazado_109126" data-name="Trazado 109126" d="M112.695,206.8c.594-.1,3.742-1.411,2.709-3.92" transform="translate(-103.028 -202.413)" fill="none" stroke="#263238" stroke-miterlimit="10" stroke-width="0.25"/>
              </g>
            </g>
          </g>
        </g>
      </g>
    </g>
  </g>
</svg>
