<svg xmlns="http://www.w3.org/2000/svg" width="820.358" height="445.965" viewBox="0 0 820.358 445.965">
  <g id="Grupo_79558" data-name="Grupo 79558" transform="translate(5675.179 12960.965)">
    <path id="Trazado_112822" data-name="Trazado 112822" d="M-2045.909,877.455v13.419h-245.969v20.867" transform="translate(-3150.04 -13779.9)" fill="none" stroke="#b2ebf2" stroke-miterlimit="10" stroke-width="4"/>
    <path id="Trazado_112823" data-name="Trazado 112823" d="M-2252.712,938.794v23.491h-123.05v117" transform="translate(-3190.522 -13750.298)" fill="none" stroke="#b2ebf2" stroke-miterlimit="10" stroke-width="4"/>
    <path id="Trazado_112824" data-name="Trazado 112824" d="M-2143.145,1079.375V954.639h-149.622" transform="translate(-3150.467 -13742.65)" fill="none" stroke="#b2ebf2" stroke-miterlimit="10" stroke-width="4"/>
    <path id="Trazado_112825" data-name="Trazado 112825" d="M-1892.615,1225.89V886.506h-233.361" transform="translate(-3069.973 -13775.532)" fill="none" stroke="#b2ebf2" stroke-miterlimit="10" stroke-width="4"/>
    <path id="Trazado_134432" data-name="Trazado 134432" d="M0,0H209.358V53.965H0Z" transform="translate(-5305.179 -12960.965)" fill="#26aab7"/>
    <path id="Trazado_134433" data-name="Trazado 134433" d="M4.619-2.589h6.843V0H1.4V-15.641H4.619ZM19.841,0a3.448,3.448,0,0,1-.312-1.042A3.756,3.756,0,0,1,16.6.215a4.127,4.127,0,0,1-2.831-.988,3.178,3.178,0,0,1-1.123-2.492A3.285,3.285,0,0,1,14.013-6.1a6.758,6.758,0,0,1,3.958-1H19.4v-.666a1.915,1.915,0,0,0-.414-1.289,1.627,1.627,0,0,0-1.305-.483,1.85,1.85,0,0,0-1.23.376,1.277,1.277,0,0,0-.446,1.031H12.9A3.118,3.118,0,0,1,13.524-10a4.118,4.118,0,0,1,1.762-1.348,6.42,6.42,0,0,1,2.557-.489,5.073,5.073,0,0,1,3.411,1.08,3.777,3.777,0,0,1,1.262,3.035v5.038a5.557,5.557,0,0,0,.462,2.5V0ZM17.273-2.159a2.674,2.674,0,0,0,1.268-.306,2.011,2.011,0,0,0,.859-.822v-2H18.24q-2.331,0-2.481,1.611l-.011.183a1.243,1.243,0,0,0,.408.956A1.586,1.586,0,0,0,17.273-2.159ZM34.729-3.792l2.159-7.831h3.244L36.212,0H33.247L29.326-11.623H32.57ZM44.773,0H41.658V-11.623h3.115Zm-3.3-14.631a1.529,1.529,0,0,1,.467-1.149,1.755,1.755,0,0,1,1.273-.451,1.759,1.759,0,0,1,1.268.451,1.52,1.52,0,0,1,.473,1.149,1.524,1.524,0,0,1-.478,1.16,1.764,1.764,0,0,1-1.262.451,1.764,1.764,0,0,1-1.262-.451A1.524,1.524,0,0,1,41.476-14.631ZM46.847-5.9a7,7,0,0,1,1.219-4.329A3.956,3.956,0,0,1,51.4-11.838a3.56,3.56,0,0,1,2.8,1.268V-16.5H57.32V0h-2.8l-.15-1.235A3.653,3.653,0,0,1,51.38.215,3.945,3.945,0,0,1,48.087-1.4,7.23,7.23,0,0,1,46.847-5.9Zm3.1.221a4.613,4.613,0,0,0,.569,2.514,1.853,1.853,0,0,0,1.654.874,2.077,2.077,0,0,0,2.03-1.219V-8.116A2.047,2.047,0,0,0,52.2-9.335Q49.951-9.335,49.951-5.677ZM66.462,0a3.448,3.448,0,0,1-.312-1.042A3.756,3.756,0,0,1,63.218.215a4.127,4.127,0,0,1-2.831-.988,3.178,3.178,0,0,1-1.123-2.492A3.285,3.285,0,0,1,60.634-6.1a6.758,6.758,0,0,1,3.958-1h1.429v-.666a1.915,1.915,0,0,0-.414-1.289A1.627,1.627,0,0,0,64.3-9.539a1.85,1.85,0,0,0-1.23.376,1.277,1.277,0,0,0-.446,1.031h-3.1A3.119,3.119,0,0,1,60.146-10a4.118,4.118,0,0,1,1.762-1.348,6.42,6.42,0,0,1,2.557-.489,5.073,5.073,0,0,1,3.411,1.08,3.777,3.777,0,0,1,1.262,3.035v5.038a5.557,5.557,0,0,0,.462,2.5V0ZM63.895-2.159a2.674,2.674,0,0,0,1.268-.306,2.011,2.011,0,0,0,.859-.822v-2h-1.16q-2.331,0-2.481,1.611l-.011.183a1.243,1.243,0,0,0,.408.956A1.586,1.586,0,0,0,63.895-2.159ZM76.517-5.9a7,7,0,0,1,1.219-4.329,3.956,3.956,0,0,1,3.335-1.611,3.56,3.56,0,0,1,2.8,1.268V-16.5H86.99V0h-2.8l-.15-1.235A3.653,3.653,0,0,1,81.05.215,3.945,3.945,0,0,1,77.757-1.4,7.23,7.23,0,0,1,76.517-5.9Zm3.1.221a4.613,4.613,0,0,0,.569,2.514,1.853,1.853,0,0,0,1.654.874,2.077,2.077,0,0,0,2.03-1.219V-8.116a2.047,2.047,0,0,0-2.009-1.219Q79.621-9.335,79.621-5.677ZM92.673,0H89.558V-11.623h3.115Zm-3.3-14.631a1.529,1.529,0,0,1,.467-1.149,1.755,1.755,0,0,1,1.273-.451,1.759,1.759,0,0,1,1.268.451,1.52,1.52,0,0,1,.473,1.149,1.524,1.524,0,0,1-.478,1.16,1.764,1.764,0,0,1-1.262.451,1.764,1.764,0,0,1-1.262-.451A1.524,1.524,0,0,1,89.375-14.631ZM101.965,0a3.448,3.448,0,0,1-.312-1.042A3.756,3.756,0,0,1,98.721.215,4.127,4.127,0,0,1,95.89-.773a3.178,3.178,0,0,1-1.123-2.492A3.285,3.285,0,0,1,96.137-6.1a6.758,6.758,0,0,1,3.958-1h1.429v-.666a1.915,1.915,0,0,0-.414-1.289,1.627,1.627,0,0,0-1.305-.483,1.85,1.85,0,0,0-1.23.376,1.277,1.277,0,0,0-.446,1.031h-3.1A3.118,3.118,0,0,1,95.648-10a4.118,4.118,0,0,1,1.762-1.348,6.42,6.42,0,0,1,2.557-.489,5.073,5.073,0,0,1,3.411,1.08,3.777,3.777,0,0,1,1.262,3.035v5.038a5.557,5.557,0,0,0,.462,2.5V0ZM99.4-2.159a2.674,2.674,0,0,0,1.268-.306,2.011,2.011,0,0,0,.859-.822v-2h-1.16q-2.331,0-2.481,1.611l-.011.183a1.243,1.243,0,0,0,.408.956A1.586,1.586,0,0,0,99.4-2.159Zm14.158-6.553a8.434,8.434,0,0,0-1.117-.086,2.274,2.274,0,0,0-2.31,1.192V0h-3.1V-11.623h2.933l.086,1.386a2.877,2.877,0,0,1,2.589-1.6,3.253,3.253,0,0,1,.967.14ZM118.325,0H115.21V-11.623h3.115Zm-3.3-14.631a1.529,1.529,0,0,1,.467-1.149,1.755,1.755,0,0,1,1.273-.451,1.759,1.759,0,0,1,1.268.451,1.52,1.52,0,0,1,.473,1.149,1.524,1.524,0,0,1-.478,1.16,1.764,1.764,0,0,1-1.262.451,1.764,1.764,0,0,1-1.262-.451A1.524,1.524,0,0,1,115.027-14.631ZM127.617,0a3.448,3.448,0,0,1-.312-1.042A3.756,3.756,0,0,1,124.373.215a4.127,4.127,0,0,1-2.831-.988,3.178,3.178,0,0,1-1.123-2.492A3.285,3.285,0,0,1,121.79-6.1a6.758,6.758,0,0,1,3.958-1h1.429v-.666a1.915,1.915,0,0,0-.414-1.289,1.627,1.627,0,0,0-1.305-.483,1.85,1.85,0,0,0-1.23.376,1.277,1.277,0,0,0-.446,1.031h-3.1A3.118,3.118,0,0,1,121.3-10a4.118,4.118,0,0,1,1.762-1.348,6.42,6.42,0,0,1,2.557-.489,5.073,5.073,0,0,1,3.411,1.08,3.777,3.777,0,0,1,1.262,3.035v5.038a5.557,5.557,0,0,0,.462,2.5V0ZM125.05-2.159a2.674,2.674,0,0,0,1.268-.306,2.011,2.011,0,0,0,.859-.822v-2h-1.16q-2.331,0-2.481,1.611l-.011.183a1.243,1.243,0,0,0,.408.956A1.586,1.586,0,0,0,125.05-2.159ZM137.672-5.9a7,7,0,0,1,1.219-4.329,3.956,3.956,0,0,1,3.335-1.611,3.56,3.56,0,0,1,2.8,1.268V-16.5h3.115V0h-2.8l-.15-1.235a3.653,3.653,0,0,1-2.986,1.45A3.945,3.945,0,0,1,138.913-1.4,7.23,7.23,0,0,1,137.672-5.9Zm3.1.221a4.613,4.613,0,0,0,.569,2.514A1.853,1.853,0,0,0,143-2.288a2.077,2.077,0,0,0,2.03-1.219V-8.116a2.047,2.047,0,0,0-2.009-1.219Q140.776-9.335,140.776-5.677ZM155.9.215a5.706,5.706,0,0,1-4.163-1.568,5.575,5.575,0,0,1-1.606-4.179v-.3a7.021,7.021,0,0,1,.677-3.131,4.967,4.967,0,0,1,1.917-2.127,5.382,5.382,0,0,1,2.831-.747,4.824,4.824,0,0,1,3.754,1.5,6.111,6.111,0,0,1,1.37,4.265V-4.8h-7.4a2.884,2.884,0,0,0,.908,1.826,2.744,2.744,0,0,0,1.917.688,3.351,3.351,0,0,0,2.8-1.3l1.525,1.708a4.66,4.66,0,0,1-1.891,1.542A6.2,6.2,0,0,1,155.9.215Zm-.354-9.55a1.94,1.94,0,0,0-1.5.626,3.241,3.241,0,0,0-.736,1.791h4.318v-.248a2.311,2.311,0,0,0-.559-1.6A2,2,0,0,0,155.547-9.335Z" transform="translate(-5278.179 -12926.965)" fill="#12263f"/>
    <path id="Trazado_134434" data-name="Trazado 134434" d="M0,0H229.358V53.965H0Z" transform="translate(-5550.184 -12870.965)" fill="#fb8c00"/>
    <path id="Trazado_134435" data-name="Trazado 134435" d="M4.619-2.589h6.843V0H1.4V-15.641H4.619ZM19.841,0a3.448,3.448,0,0,1-.312-1.042A3.756,3.756,0,0,1,16.6.215a4.127,4.127,0,0,1-2.831-.988,3.178,3.178,0,0,1-1.123-2.492A3.285,3.285,0,0,1,14.013-6.1a6.758,6.758,0,0,1,3.958-1H19.4v-.666a1.915,1.915,0,0,0-.414-1.289,1.627,1.627,0,0,0-1.305-.483,1.85,1.85,0,0,0-1.23.376,1.277,1.277,0,0,0-.446,1.031H12.9A3.118,3.118,0,0,1,13.524-10a4.118,4.118,0,0,1,1.762-1.348,6.42,6.42,0,0,1,2.557-.489,5.073,5.073,0,0,1,3.411,1.08,3.777,3.777,0,0,1,1.262,3.035v5.038a5.557,5.557,0,0,0,.462,2.5V0ZM17.273-2.159a2.674,2.674,0,0,0,1.268-.306,2.011,2.011,0,0,0,.859-.822v-2H18.24q-2.331,0-2.481,1.611l-.011.183a1.243,1.243,0,0,0,.408.956A1.586,1.586,0,0,0,17.273-2.159ZM31.2-3.212a1,1,0,0,0-.564-.9,6.406,6.406,0,0,0-1.81-.585q-4.146-.87-4.146-3.523A3.194,3.194,0,0,1,25.958-10.8a5.178,5.178,0,0,1,3.357-1.037,5.573,5.573,0,0,1,3.54,1.042,3.284,3.284,0,0,1,1.327,2.707h-3.1a1.5,1.5,0,0,0-.43-1.1A1.818,1.818,0,0,0,29.3-9.625a1.858,1.858,0,0,0-1.214.354,1.119,1.119,0,0,0-.43.9.957.957,0,0,0,.489.833,5.028,5.028,0,0,0,1.649.548,13.468,13.468,0,0,1,1.955.521,3.212,3.212,0,0,1,2.46,3.126A3.032,3.032,0,0,1,32.85-.768a5.885,5.885,0,0,1-3.523.983,6.147,6.147,0,0,1-2.594-.521,4.353,4.353,0,0,1-1.778-1.429A3.32,3.32,0,0,1,24.31-3.7h2.943a1.621,1.621,0,0,0,.612,1.268,2.429,2.429,0,0,0,1.525.44,2.248,2.248,0,0,0,1.348-.338A1.053,1.053,0,0,0,31.2-3.212ZM52.153-5.7a6.971,6.971,0,0,1-1.219,4.3A3.909,3.909,0,0,1,47.642.215,3.621,3.621,0,0,1,44.795-1.01V4.469h-3.1V-11.623h2.879l.107,1.139a3.649,3.649,0,0,1,2.943-1.354,3.936,3.936,0,0,1,3.341,1.59,7.16,7.16,0,0,1,1.192,4.383Zm-3.1-.237a4.6,4.6,0,0,0-.575-2.511,1.87,1.87,0,0,0-1.67-.884,2.032,2.032,0,0,0-2.009,1.121v4.773a2.066,2.066,0,0,0,2.03,1.153Q49.049-2.288,49.049-5.941ZM59.426.215a5.706,5.706,0,0,1-4.163-1.568,5.575,5.575,0,0,1-1.606-4.179v-.3a7.021,7.021,0,0,1,.677-3.131,4.967,4.967,0,0,1,1.917-2.127,5.382,5.382,0,0,1,2.831-.747,4.824,4.824,0,0,1,3.754,1.5,6.111,6.111,0,0,1,1.37,4.265V-4.8H56.8a2.884,2.884,0,0,0,.908,1.826,2.744,2.744,0,0,0,1.917.688,3.351,3.351,0,0,0,2.8-1.3L63.959-1.88A4.66,4.66,0,0,1,62.068-.338,6.2,6.2,0,0,1,59.426.215Zm-.354-9.55a1.94,1.94,0,0,0-1.5.626,3.241,3.241,0,0,0-.736,1.791h4.318v-.248a2.311,2.311,0,0,0-.559-1.6A2,2,0,0,0,59.071-9.335ZM72.5-8.712A8.434,8.434,0,0,0,71.382-8.8a2.274,2.274,0,0,0-2.31,1.192V0h-3.1V-11.623H68.9l.086,1.386a2.877,2.877,0,0,1,2.589-1.6,3.253,3.253,0,0,1,.967.14Zm7.788,5.5a1,1,0,0,0-.564-.9,6.406,6.406,0,0,0-1.81-.585q-4.146-.87-4.146-3.523A3.194,3.194,0,0,1,75.05-10.8a5.178,5.178,0,0,1,3.357-1.037,5.573,5.573,0,0,1,3.54,1.042,3.284,3.284,0,0,1,1.327,2.707h-3.1a1.5,1.5,0,0,0-.43-1.1A1.818,1.818,0,0,0,78.4-9.625a1.858,1.858,0,0,0-1.214.354,1.119,1.119,0,0,0-.43.9.957.957,0,0,0,.489.833,5.028,5.028,0,0,0,1.649.548,13.468,13.468,0,0,1,1.955.521,3.212,3.212,0,0,1,2.46,3.126A3.032,3.032,0,0,1,81.941-.768a5.885,5.885,0,0,1-3.523.983,6.147,6.147,0,0,1-2.594-.521,4.353,4.353,0,0,1-1.778-1.429A3.32,3.32,0,0,1,73.4-3.7h2.943a1.621,1.621,0,0,0,.612,1.268,2.429,2.429,0,0,0,1.525.44,2.248,2.248,0,0,0,1.348-.338A1.053,1.053,0,0,0,80.287-3.212ZM84.82-5.919A6.893,6.893,0,0,1,85.486-9,4.876,4.876,0,0,1,87.4-11.1a5.594,5.594,0,0,1,2.906-.741A5.293,5.293,0,0,1,94.15-10.4a5.777,5.777,0,0,1,1.66,3.91l.021.795A6.075,6.075,0,0,1,94.338-1.4,5.19,5.19,0,0,1,90.331.215,5.216,5.216,0,0,1,86.319-1.4a6.182,6.182,0,0,1-1.5-4.383Zm3.1.22a4.345,4.345,0,0,0,.623,2.534,2.055,2.055,0,0,0,1.783.877,2.06,2.06,0,0,0,1.762-.866,4.754,4.754,0,0,0,.634-2.77,4.3,4.3,0,0,0-.634-2.518,2.06,2.06,0,0,0-1.783-.893,2.027,2.027,0,0,0-1.762.888A4.834,4.834,0,0,0,87.925-5.7ZM100.6-11.623l.1,1.343a4.058,4.058,0,0,1,3.341-1.558,3.372,3.372,0,0,1,2.75,1.085,5.062,5.062,0,0,1,.924,3.244V0h-3.1V-7.451a2.022,2.022,0,0,0-.43-1.437,1.921,1.921,0,0,0-1.429-.447,2.135,2.135,0,0,0-1.966,1.12V0h-3.1V-11.623ZM116.8,0a3.448,3.448,0,0,1-.312-1.042A3.756,3.756,0,0,1,113.556.215a4.127,4.127,0,0,1-2.831-.988A3.178,3.178,0,0,1,109.6-3.266a3.285,3.285,0,0,1,1.37-2.836,6.758,6.758,0,0,1,3.958-1h1.429v-.666a1.915,1.915,0,0,0-.414-1.289,1.627,1.627,0,0,0-1.305-.483,1.85,1.85,0,0,0-1.23.376,1.277,1.277,0,0,0-.446,1.031h-3.1A3.118,3.118,0,0,1,110.483-10a4.118,4.118,0,0,1,1.762-1.348,6.42,6.42,0,0,1,2.557-.489,5.073,5.073,0,0,1,3.411,1.08,3.777,3.777,0,0,1,1.262,3.035v5.038a5.557,5.557,0,0,0,.462,2.5V0Zm-2.567-2.159a2.674,2.674,0,0,0,1.268-.306,2.011,2.011,0,0,0,.859-.822v-2H115.2q-2.331,0-2.481,1.611l-.011.183a1.243,1.243,0,0,0,.408.956A1.586,1.586,0,0,0,114.232-2.159Zm13.922-1.053a1,1,0,0,0-.564-.9,6.406,6.406,0,0,0-1.81-.585q-4.146-.87-4.146-3.523a3.194,3.194,0,0,1,1.284-2.583,5.178,5.178,0,0,1,3.357-1.037,5.573,5.573,0,0,1,3.54,1.042,3.284,3.284,0,0,1,1.327,2.707h-3.1a1.5,1.5,0,0,0-.43-1.1,1.818,1.818,0,0,0-1.343-.435,1.858,1.858,0,0,0-1.214.354,1.119,1.119,0,0,0-.43.9.957.957,0,0,0,.489.833,5.028,5.028,0,0,0,1.649.548,13.468,13.468,0,0,1,1.955.521,3.212,3.212,0,0,1,2.46,3.126,3.032,3.032,0,0,1-1.364,2.573,5.885,5.885,0,0,1-3.523.983,6.147,6.147,0,0,1-2.594-.521,4.353,4.353,0,0,1-1.778-1.429,3.32,3.32,0,0,1-.645-1.96h2.943a1.621,1.621,0,0,0,.612,1.268,2.429,2.429,0,0,0,1.525.44,2.248,2.248,0,0,0,1.348-.338A1.053,1.053,0,0,0,128.154-3.212ZM149.112-5.7a6.971,6.971,0,0,1-1.219,4.3A3.909,3.909,0,0,1,144.6.215a3.621,3.621,0,0,1-2.847-1.225V4.469h-3.1V-11.623h2.879l.107,1.139a3.649,3.649,0,0,1,2.943-1.354,3.936,3.936,0,0,1,3.341,1.59,7.16,7.16,0,0,1,1.192,4.383Zm-3.1-.237a4.6,4.6,0,0,0-.575-2.511,1.87,1.87,0,0,0-1.67-.884,2.032,2.032,0,0,0-2.009,1.121v4.773a2.066,2.066,0,0,0,2.03,1.153Q146.008-2.288,146.008-5.941ZM157.771,0a3.447,3.447,0,0,1-.312-1.042A3.756,3.756,0,0,1,154.526.215,4.127,4.127,0,0,1,151.7-.773a3.178,3.178,0,0,1-1.123-2.492,3.285,3.285,0,0,1,1.37-2.836,6.758,6.758,0,0,1,3.958-1h1.429v-.666a1.915,1.915,0,0,0-.414-1.289,1.627,1.627,0,0,0-1.305-.483,1.85,1.85,0,0,0-1.23.376,1.277,1.277,0,0,0-.446,1.031h-3.1A3.119,3.119,0,0,1,151.454-10a4.118,4.118,0,0,1,1.762-1.348,6.42,6.42,0,0,1,2.557-.489,5.073,5.073,0,0,1,3.411,1.08,3.777,3.777,0,0,1,1.262,3.035v5.038a5.557,5.557,0,0,0,.462,2.5V0ZM155.2-2.159a2.674,2.674,0,0,0,1.268-.306,2.011,2.011,0,0,0,.859-.822v-2h-1.16q-2.331,0-2.481,1.611l-.011.183a1.243,1.243,0,0,0,.408.956A1.586,1.586,0,0,0,155.2-2.159Zm14.158-6.553a8.434,8.434,0,0,0-1.117-.086,2.274,2.274,0,0,0-2.31,1.192V0h-3.1V-11.623h2.933l.086,1.386a2.877,2.877,0,0,1,2.589-1.6,3.253,3.253,0,0,1,.967.14ZM177.268,0a3.447,3.447,0,0,1-.312-1.042A3.756,3.756,0,0,1,174.023.215a4.127,4.127,0,0,1-2.831-.988,3.178,3.178,0,0,1-1.123-2.492A3.285,3.285,0,0,1,171.44-6.1a6.758,6.758,0,0,1,3.958-1h1.429v-.666a1.915,1.915,0,0,0-.414-1.289,1.627,1.627,0,0,0-1.305-.483,1.85,1.85,0,0,0-1.23.376,1.277,1.277,0,0,0-.446,1.031h-3.1A3.119,3.119,0,0,1,170.951-10a4.118,4.118,0,0,1,1.762-1.348,6.42,6.42,0,0,1,2.557-.489,5.073,5.073,0,0,1,3.411,1.08,3.777,3.777,0,0,1,1.262,3.035v5.038a5.557,5.557,0,0,0,.462,2.5V0ZM174.7-2.159a2.674,2.674,0,0,0,1.268-.306,2.011,2.011,0,0,0,.859-.822v-2h-1.16q-2.331,0-2.481,1.611l-.011.183a1.243,1.243,0,0,0,.408.956A1.586,1.586,0,0,0,174.7-2.159Z" transform="translate(-5532.381 -12836.965)" fill="#12263f"/>
    <path id="Trazado_134436" data-name="Trazado 134436" d="M0,0H229.358V53.965H0Z" transform="translate(-5084.179 -12870.965)" fill="#fb8c00"/>
    <path id="Trazado_134437" data-name="Trazado 134437" d="M4.619-2.589h6.843V0H1.4V-15.641H4.619ZM19.841,0a3.448,3.448,0,0,1-.312-1.042A3.756,3.756,0,0,1,16.6.215a4.127,4.127,0,0,1-2.831-.988,3.178,3.178,0,0,1-1.123-2.492A3.285,3.285,0,0,1,14.013-6.1a6.758,6.758,0,0,1,3.958-1H19.4v-.666a1.915,1.915,0,0,0-.414-1.289,1.627,1.627,0,0,0-1.305-.483,1.85,1.85,0,0,0-1.23.376,1.277,1.277,0,0,0-.446,1.031H12.9A3.118,3.118,0,0,1,13.524-10a4.118,4.118,0,0,1,1.762-1.348,6.42,6.42,0,0,1,2.557-.489,5.073,5.073,0,0,1,3.411,1.08,3.777,3.777,0,0,1,1.262,3.035v5.038a5.557,5.557,0,0,0,.462,2.5V0ZM17.273-2.159a2.674,2.674,0,0,0,1.268-.306,2.011,2.011,0,0,0,.859-.822v-2H18.24q-2.331,0-2.481,1.611l-.011.183a1.243,1.243,0,0,0,.408.956A1.586,1.586,0,0,0,17.273-2.159ZM31.2-3.212a1,1,0,0,0-.564-.9,6.406,6.406,0,0,0-1.81-.585q-4.146-.87-4.146-3.523A3.194,3.194,0,0,1,25.958-10.8a5.178,5.178,0,0,1,3.357-1.037,5.573,5.573,0,0,1,3.54,1.042,3.284,3.284,0,0,1,1.327,2.707h-3.1a1.5,1.5,0,0,0-.43-1.1A1.818,1.818,0,0,0,29.3-9.625a1.858,1.858,0,0,0-1.214.354,1.119,1.119,0,0,0-.43.9.957.957,0,0,0,.489.833,5.028,5.028,0,0,0,1.649.548,13.468,13.468,0,0,1,1.955.521,3.212,3.212,0,0,1,2.46,3.126A3.032,3.032,0,0,1,32.85-.768a5.885,5.885,0,0,1-3.523.983,6.147,6.147,0,0,1-2.594-.521,4.353,4.353,0,0,1-1.778-1.429A3.32,3.32,0,0,1,24.31-3.7h2.943a1.621,1.621,0,0,0,.612,1.268,2.429,2.429,0,0,0,1.525.44,2.248,2.248,0,0,0,1.348-.338A1.053,1.053,0,0,0,31.2-3.212ZM47.04.215a5.706,5.706,0,0,1-4.163-1.568,5.575,5.575,0,0,1-1.606-4.179v-.3a7.021,7.021,0,0,1,.677-3.131,4.967,4.967,0,0,1,1.917-2.127,5.382,5.382,0,0,1,2.831-.747,4.824,4.824,0,0,1,3.754,1.5,6.111,6.111,0,0,1,1.37,4.265V-4.8h-7.4a2.884,2.884,0,0,0,.908,1.826,2.744,2.744,0,0,0,1.917.688,3.351,3.351,0,0,0,2.8-1.3L51.573-1.88A4.66,4.66,0,0,1,49.683-.338,6.2,6.2,0,0,1,47.04.215Zm-.354-9.55a1.94,1.94,0,0,0-1.5.626,3.241,3.241,0,0,0-.736,1.791H48.77v-.248a2.311,2.311,0,0,0-.559-1.6A2,2,0,0,0,46.686-9.335Zm9.808-2.288.1,1.3a4.085,4.085,0,0,1,3.341-1.515,3.1,3.1,0,0,1,3.083,1.772A3.991,3.991,0,0,1,66.5-11.838a3.467,3.467,0,0,1,2.814,1.1,5.061,5.061,0,0,1,.924,3.314V0H67.128V-7.429a2.222,2.222,0,0,0-.387-1.448,1.711,1.711,0,0,0-1.364-.458A1.938,1.938,0,0,0,63.443-8l.011,8h-3.1V-7.418a2.195,2.195,0,0,0-.4-1.464A1.728,1.728,0,0,0,58.6-9.335a2.011,2.011,0,0,0-1.912,1.1V0h-3.1V-11.623ZM83.091-5.7a6.971,6.971,0,0,1-1.219,4.3A3.909,3.909,0,0,1,78.579.215,3.621,3.621,0,0,1,75.732-1.01V4.469h-3.1V-11.623h2.879l.107,1.139a3.649,3.649,0,0,1,2.943-1.354,3.936,3.936,0,0,1,3.341,1.59,7.16,7.16,0,0,1,1.192,4.383Zm-3.1-.237a4.6,4.6,0,0,0-.575-2.511,1.87,1.87,0,0,0-1.67-.884,2.032,2.032,0,0,0-2.009,1.121v4.773a2.066,2.066,0,0,0,2.03,1.153Q79.986-2.288,79.986-5.941ZM91.545-8.712A8.434,8.434,0,0,0,90.428-8.8a2.274,2.274,0,0,0-2.31,1.192V0h-3.1V-11.623h2.933l.086,1.386a2.877,2.877,0,0,1,2.589-1.6,3.253,3.253,0,0,1,.967.14ZM98.184.215a5.706,5.706,0,0,1-4.163-1.568,5.575,5.575,0,0,1-1.606-4.179v-.3a7.021,7.021,0,0,1,.677-3.131,4.967,4.967,0,0,1,1.917-2.127,5.382,5.382,0,0,1,2.831-.747,4.824,4.824,0,0,1,3.754,1.5,6.111,6.111,0,0,1,1.37,4.265V-4.8h-7.4a2.884,2.884,0,0,0,.908,1.826,2.744,2.744,0,0,0,1.917.688,3.351,3.351,0,0,0,2.8-1.3l1.525,1.708a4.66,4.66,0,0,1-1.891,1.542A6.2,6.2,0,0,1,98.184.215Zm-.354-9.55a1.94,1.94,0,0,0-1.5.626,3.241,3.241,0,0,0-.736,1.791h4.318v-.248a2.311,2.311,0,0,0-.559-1.6A2,2,0,0,0,97.829-9.335Zm13.191,6.123a1,1,0,0,0-.564-.9,6.406,6.406,0,0,0-1.81-.585q-4.146-.87-4.146-3.523a3.194,3.194,0,0,1,1.284-2.583,5.178,5.178,0,0,1,3.357-1.037,5.573,5.573,0,0,1,3.54,1.042,3.284,3.284,0,0,1,1.327,2.707h-3.1a1.5,1.5,0,0,0-.43-1.1,1.818,1.818,0,0,0-1.343-.435,1.858,1.858,0,0,0-1.214.354,1.119,1.119,0,0,0-.43.9.957.957,0,0,0,.489.833,5.028,5.028,0,0,0,1.649.548,13.468,13.468,0,0,1,1.955.521,3.212,3.212,0,0,1,2.46,3.126,3.032,3.032,0,0,1-1.364,2.573,5.885,5.885,0,0,1-3.523.983,6.147,6.147,0,0,1-2.594-.521,4.353,4.353,0,0,1-1.778-1.429,3.32,3.32,0,0,1-.645-1.96h2.943a1.621,1.621,0,0,0,.612,1.268,2.429,2.429,0,0,0,1.525.44,2.248,2.248,0,0,0,1.348-.338A1.053,1.053,0,0,0,111.021-3.212ZM122.772,0a3.448,3.448,0,0,1-.312-1.042A3.756,3.756,0,0,1,119.528.215,4.127,4.127,0,0,1,116.7-.773a3.178,3.178,0,0,1-1.123-2.492,3.285,3.285,0,0,1,1.37-2.836,6.758,6.758,0,0,1,3.958-1h1.429v-.666a1.915,1.915,0,0,0-.414-1.289,1.627,1.627,0,0,0-1.305-.483,1.85,1.85,0,0,0-1.23.376,1.277,1.277,0,0,0-.446,1.031h-3.1A3.118,3.118,0,0,1,116.456-10a4.118,4.118,0,0,1,1.762-1.348,6.42,6.42,0,0,1,2.557-.489,5.073,5.073,0,0,1,3.411,1.08,3.777,3.777,0,0,1,1.262,3.035v5.038a5.557,5.557,0,0,0,.462,2.5V0Zm-2.567-2.159a2.674,2.674,0,0,0,1.268-.306,2.011,2.011,0,0,0,.859-.822v-2h-1.16q-2.331,0-2.481,1.611l-.011.183a1.243,1.243,0,0,0,.408.956A1.586,1.586,0,0,0,120.205-2.159Zm13.922-1.053a1,1,0,0,0-.564-.9,6.406,6.406,0,0,0-1.81-.585q-4.146-.87-4.146-3.523A3.194,3.194,0,0,1,128.89-10.8a5.178,5.178,0,0,1,3.357-1.037,5.573,5.573,0,0,1,3.54,1.042,3.284,3.284,0,0,1,1.327,2.707h-3.1a1.5,1.5,0,0,0-.43-1.1,1.818,1.818,0,0,0-1.343-.435,1.858,1.858,0,0,0-1.214.354,1.119,1.119,0,0,0-.43.9.957.957,0,0,0,.489.833,5.028,5.028,0,0,0,1.649.548,13.468,13.468,0,0,1,1.955.521,3.212,3.212,0,0,1,2.46,3.126,3.032,3.032,0,0,1-1.364,2.573,5.885,5.885,0,0,1-3.523.983,6.147,6.147,0,0,1-2.594-.521,4.353,4.353,0,0,1-1.778-1.429,3.32,3.32,0,0,1-.645-1.96h2.943a1.621,1.621,0,0,0,.612,1.268,2.429,2.429,0,0,0,1.525.44,2.248,2.248,0,0,0,1.348-.338A1.053,1.053,0,0,0,134.127-3.212ZM155.085-5.7a6.971,6.971,0,0,1-1.219,4.3A3.909,3.909,0,0,1,150.573.215a3.621,3.621,0,0,1-2.847-1.225V4.469h-3.1V-11.623H147.5l.107,1.139a3.649,3.649,0,0,1,2.943-1.354,3.936,3.936,0,0,1,3.341,1.59,7.16,7.16,0,0,1,1.192,4.383Zm-3.1-.237a4.6,4.6,0,0,0-.575-2.511,1.87,1.87,0,0,0-1.67-.884,2.032,2.032,0,0,0-2.009,1.121v4.773a2.066,2.066,0,0,0,2.03,1.153Q151.98-2.288,151.98-5.941ZM163.743,0a3.447,3.447,0,0,1-.312-1.042A3.756,3.756,0,0,1,160.5.215a4.127,4.127,0,0,1-2.831-.988,3.178,3.178,0,0,1-1.123-2.492,3.285,3.285,0,0,1,1.37-2.836,6.758,6.758,0,0,1,3.958-1H163.3v-.666a1.915,1.915,0,0,0-.414-1.289,1.627,1.627,0,0,0-1.305-.483,1.85,1.85,0,0,0-1.23.376,1.277,1.277,0,0,0-.446,1.031h-3.1A3.119,3.119,0,0,1,157.427-10a4.118,4.118,0,0,1,1.762-1.348,6.42,6.42,0,0,1,2.557-.489,5.073,5.073,0,0,1,3.411,1.08,3.777,3.777,0,0,1,1.262,3.035v5.038a5.557,5.557,0,0,0,.462,2.5V0Zm-2.567-2.159a2.674,2.674,0,0,0,1.268-.306,2.011,2.011,0,0,0,.859-.822v-2h-1.16q-2.331,0-2.481,1.611l-.011.183a1.243,1.243,0,0,0,.408.956A1.586,1.586,0,0,0,161.176-2.159Zm14.158-6.553a8.434,8.434,0,0,0-1.117-.086,2.274,2.274,0,0,0-2.31,1.192V0h-3.1V-11.623h2.933l.086,1.386a2.877,2.877,0,0,1,2.589-1.6,3.253,3.253,0,0,1,.967.14ZM183.24,0a3.447,3.447,0,0,1-.312-1.042A3.756,3.756,0,0,1,180,.215a4.127,4.127,0,0,1-2.831-.988,3.178,3.178,0,0,1-1.123-2.492,3.285,3.285,0,0,1,1.37-2.836,6.758,6.758,0,0,1,3.958-1H182.8v-.666a1.915,1.915,0,0,0-.414-1.289,1.627,1.627,0,0,0-1.305-.483,1.85,1.85,0,0,0-1.23.376,1.277,1.277,0,0,0-.446,1.031h-3.1A3.119,3.119,0,0,1,176.924-10a4.118,4.118,0,0,1,1.762-1.348,6.42,6.42,0,0,1,2.557-.489,5.073,5.073,0,0,1,3.411,1.08,3.777,3.777,0,0,1,1.262,3.035v5.038a5.557,5.557,0,0,0,.462,2.5V0Zm-2.567-2.159a2.674,2.674,0,0,0,1.268-.306,2.011,2.011,0,0,0,.859-.822v-2h-1.16q-2.331,0-2.481,1.611l-.011.183a1.243,1.243,0,0,0,.408.956A1.586,1.586,0,0,0,180.673-2.159Z" transform="translate(-5059.179 -12836.965)" fill="#12263f"/>
    <path id="Trazado_134438" data-name="Trazado 134438" d="M0,0H229.358V53.965H0Z" transform="translate(-5084.179 -12797.965)" fill="#1565c0"/>
    <path id="Trazado_134439" data-name="Trazado 134439" d="M4.619-5.511V0H1.4V-15.641H7.5A7.059,7.059,0,0,1,10.6-15a4.75,4.75,0,0,1,2.057,1.832,5.107,5.107,0,0,1,.72,2.7A4.491,4.491,0,0,1,11.8-6.837,6.555,6.555,0,0,1,7.444-5.511Zm0-2.61H7.5a2.831,2.831,0,0,0,1.95-.6,2.188,2.188,0,0,0,.671-1.719A2.58,2.58,0,0,0,9.442-12.3a2.528,2.528,0,0,0-1.869-.73H4.619ZM22.344-1.182a3.893,3.893,0,0,1-3.18,1.4A3.672,3.672,0,0,1,16.312-.859a4.586,4.586,0,0,1-1-3.147v-7.616h3.1v7.518q0,1.817,1.654,1.817a2.242,2.242,0,0,0,2.17-1.1v-8.238h3.115V0H22.43ZM38.167-5.7a7.038,7.038,0,0,1-1.192,4.356A3.95,3.95,0,0,1,33.645.215a3.629,3.629,0,0,1-3.019-1.45L30.486,0H27.693V-16.5h3.1v5.919a3.536,3.536,0,0,1,2.825-1.257,3.982,3.982,0,0,1,3.335,1.563,7.048,7.048,0,0,1,1.208,4.4Zm-3.1-.237A4.649,4.649,0,0,0,34.5-8.521a1.887,1.887,0,0,0-1.665-.814A2.047,2.047,0,0,0,30.8-8.117v4.6A2.075,2.075,0,0,0,32.86-2.288a1.917,1.917,0,0,0,1.977-1.487A7.693,7.693,0,0,0,35.063-5.941ZM43.355,0H40.24V-16.5h3.115Zm5.833,0H46.073V-11.623h3.115Zm-3.3-14.631a1.529,1.529,0,0,1,.467-1.149,1.755,1.755,0,0,1,1.273-.451,1.759,1.759,0,0,1,1.268.451,1.52,1.52,0,0,1,.473,1.149,1.524,1.524,0,0,1-.478,1.16,1.764,1.764,0,0,1-1.262.451,1.764,1.764,0,0,1-1.262-.451A1.524,1.524,0,0,1,45.891-14.631ZM56.579-2.288a2.036,2.036,0,0,0,1.4-.473,1.656,1.656,0,0,0,.559-1.257h2.911A3.982,3.982,0,0,1,60.8-1.853,4.253,4.253,0,0,1,59.066-.328a5.43,5.43,0,0,1-2.433.542A5.046,5.046,0,0,1,52.7-1.37a6.27,6.27,0,0,1-1.439-4.377v-.2a6.2,6.2,0,0,1,1.429-4.286,4.987,4.987,0,0,1,3.921-1.6,4.889,4.889,0,0,1,3.5,1.241,4.393,4.393,0,0,1,1.337,3.3H58.534a2.133,2.133,0,0,0-.559-1.474,1.862,1.862,0,0,0-1.418-.567,1.87,1.87,0,0,0-1.638.791,4.583,4.583,0,0,0-.553,2.566v.323a4.641,4.641,0,0,0,.548,2.582A1.893,1.893,0,0,0,56.579-2.288ZM66.494,0H63.379V-11.623h3.115ZM63.2-14.631a1.529,1.529,0,0,1,.467-1.149,1.755,1.755,0,0,1,1.273-.451,1.759,1.759,0,0,1,1.268.451,1.52,1.52,0,0,1,.473,1.149,1.524,1.524,0,0,1-.478,1.16,1.764,1.764,0,0,1-1.262.451,1.764,1.764,0,0,1-1.262-.451A1.524,1.524,0,0,1,63.2-14.631ZM68.567-5.9a7,7,0,0,1,1.219-4.329,3.956,3.956,0,0,1,3.335-1.611,3.56,3.56,0,0,1,2.8,1.268V-16.5h3.115V0h-2.8l-.15-1.235A3.653,3.653,0,0,1,73.1.215,3.945,3.945,0,0,1,69.808-1.4,7.23,7.23,0,0,1,68.567-5.9Zm3.1.221a4.613,4.613,0,0,0,.569,2.514,1.853,1.853,0,0,0,1.654.874,2.077,2.077,0,0,0,2.03-1.219V-8.116a2.047,2.047,0,0,0-2.009-1.219Q71.672-9.335,71.672-5.677ZM88.183,0a3.448,3.448,0,0,1-.312-1.042A3.756,3.756,0,0,1,84.938.215a4.127,4.127,0,0,1-2.831-.988,3.178,3.178,0,0,1-1.123-2.492A3.285,3.285,0,0,1,82.355-6.1a6.758,6.758,0,0,1,3.958-1h1.429v-.666a1.915,1.915,0,0,0-.414-1.289,1.627,1.627,0,0,0-1.305-.483,1.85,1.85,0,0,0-1.23.376,1.277,1.277,0,0,0-.446,1.031h-3.1A3.118,3.118,0,0,1,81.866-10a4.118,4.118,0,0,1,1.762-1.348,6.42,6.42,0,0,1,2.557-.489,5.073,5.073,0,0,1,3.411,1.08,3.777,3.777,0,0,1,1.262,3.035v5.038a5.557,5.557,0,0,0,.462,2.5V0ZM85.615-2.159a2.674,2.674,0,0,0,1.268-.306,2.011,2.011,0,0,0,.859-.822v-2h-1.16q-2.331,0-2.481,1.611l-.011.183a1.243,1.243,0,0,0,.408.956A1.586,1.586,0,0,0,85.615-2.159ZM92.759-5.9a7,7,0,0,1,1.219-4.329,3.956,3.956,0,0,1,3.335-1.611,3.56,3.56,0,0,1,2.8,1.268V-16.5h3.115V0h-2.8l-.15-1.235A3.653,3.653,0,0,1,97.292.215,3.945,3.945,0,0,1,94-1.4,7.23,7.23,0,0,1,92.759-5.9Zm3.1.221a4.613,4.613,0,0,0,.569,2.514,1.853,1.853,0,0,0,1.654.874,2.077,2.077,0,0,0,2.03-1.219V-8.116a2.047,2.047,0,0,0-2.009-1.219Q95.863-9.335,95.863-5.677Z" transform="translate(-5021.179 -12763.965)" fill="#fff"/>
    <path id="Trazado_134440" data-name="Trazado 134440" d="M0,0H229.358V53.965H0Z" transform="translate(-5084.538 -12724.965)" fill="#1565c0"/>
    <path id="Trazado_134441" data-name="Trazado 134441" d="M7.176-3.878l3.545-11.763h3.588L8.862,0H5.5L.075-15.641H3.652ZM20.453.215a5.706,5.706,0,0,1-4.163-1.568,5.575,5.575,0,0,1-1.606-4.179v-.3a7.021,7.021,0,0,1,.677-3.131,4.967,4.967,0,0,1,1.917-2.127,5.382,5.382,0,0,1,2.831-.747,4.824,4.824,0,0,1,3.754,1.5,6.111,6.111,0,0,1,1.37,4.265V-4.8h-7.4a2.884,2.884,0,0,0,.908,1.826,2.744,2.744,0,0,0,1.917.688,3.351,3.351,0,0,0,2.8-1.3L24.986-1.88A4.66,4.66,0,0,1,23.1-.338,6.2,6.2,0,0,1,20.453.215ZM20.1-9.335a1.94,1.94,0,0,0-1.5.626,3.241,3.241,0,0,0-.736,1.791h4.318v-.248a2.311,2.311,0,0,0-.559-1.6A2,2,0,0,0,20.1-9.335Zm9.754-2.288.1,1.343a4.058,4.058,0,0,1,3.341-1.558,3.372,3.372,0,0,1,2.75,1.085,5.062,5.062,0,0,1,.924,3.244V0h-3.1V-7.451a2.022,2.022,0,0,0-.43-1.437A1.921,1.921,0,0,0,32-9.335a2.135,2.135,0,0,0-1.966,1.12V0h-3.1V-11.623ZM43.033-14.48v2.857h1.987v2.277H43.033v5.8a1.385,1.385,0,0,0,.247.924,1.241,1.241,0,0,0,.945.279,4.951,4.951,0,0,0,.913-.075V-.064a6.391,6.391,0,0,1-1.88.279q-3.266,0-3.33-3.3V-9.346h-1.7v-2.277h1.7V-14.48ZM53.485,0a3.447,3.447,0,0,1-.312-1.042A3.756,3.756,0,0,1,50.241.215a4.127,4.127,0,0,1-2.831-.988,3.178,3.178,0,0,1-1.123-2.492A3.285,3.285,0,0,1,47.658-6.1a6.758,6.758,0,0,1,3.958-1h1.429v-.666a1.915,1.915,0,0,0-.414-1.289,1.627,1.627,0,0,0-1.305-.483,1.85,1.85,0,0,0-1.23.376,1.277,1.277,0,0,0-.446,1.031h-3.1A3.119,3.119,0,0,1,47.169-10a4.118,4.118,0,0,1,1.762-1.348,6.42,6.42,0,0,1,2.557-.489,5.073,5.073,0,0,1,3.411,1.08A3.777,3.777,0,0,1,56.16-7.724v5.038a5.557,5.557,0,0,0,.462,2.5V0ZM50.918-2.159a2.674,2.674,0,0,0,1.268-.306,2.011,2.011,0,0,0,.859-.822v-2h-1.16q-2.331,0-2.481,1.611l-.011.183a1.243,1.243,0,0,0,.408.956A1.586,1.586,0,0,0,50.918-2.159ZM64.84-3.212a1,1,0,0,0-.564-.9,6.406,6.406,0,0,0-1.81-.585q-4.146-.87-4.146-3.523A3.194,3.194,0,0,1,59.6-10.8a5.178,5.178,0,0,1,3.357-1.037A5.573,5.573,0,0,1,66.5-10.8a3.284,3.284,0,0,1,1.327,2.707h-3.1a1.5,1.5,0,0,0-.43-1.1,1.818,1.818,0,0,0-1.343-.435,1.858,1.858,0,0,0-1.214.354,1.119,1.119,0,0,0-.43.9.957.957,0,0,0,.489.833,5.028,5.028,0,0,0,1.649.548,13.468,13.468,0,0,1,1.955.521,3.212,3.212,0,0,1,2.46,3.126A3.032,3.032,0,0,1,66.494-.768a5.885,5.885,0,0,1-3.523.983,6.147,6.147,0,0,1-2.594-.521A4.353,4.353,0,0,1,58.6-1.735a3.32,3.32,0,0,1-.645-1.96H60.9a1.621,1.621,0,0,0,.612,1.268,2.429,2.429,0,0,0,1.525.44,2.248,2.248,0,0,0,1.348-.338A1.053,1.053,0,0,0,64.84-3.212Z" transform="translate(-5003.179 -12690.965)" fill="#fff"/>
    <path id="Trazado_134442" data-name="Trazado 134442" d="M0,0H229.358V53.965H0Z" transform="translate(-5084.179 -12646.965)" fill="#1565c0"/>
    <path id="Trazado_134443" data-name="Trazado 134443" d="M10.227-3.223H4.576L3.5,0H.075L5.9-15.641H8.884L14.738,0H11.312Zm-4.78-2.61h3.91L7.391-11.687ZM19.529-14.48v2.857h1.987v2.277H19.529v5.8a1.385,1.385,0,0,0,.247.924,1.241,1.241,0,0,0,.945.279,4.951,4.951,0,0,0,.913-.075V-.064a6.391,6.391,0,0,1-1.88.279q-3.266,0-3.33-3.3V-9.346h-1.7v-2.277h1.7V-14.48ZM28.6.215a5.706,5.706,0,0,1-4.163-1.568,5.575,5.575,0,0,1-1.606-4.179v-.3A7.021,7.021,0,0,1,23.5-8.964a4.967,4.967,0,0,1,1.917-2.127,5.382,5.382,0,0,1,2.831-.747,4.824,4.824,0,0,1,3.754,1.5,6.111,6.111,0,0,1,1.37,4.265V-4.8h-7.4a2.884,2.884,0,0,0,.908,1.826,2.744,2.744,0,0,0,1.917.688,3.351,3.351,0,0,0,2.8-1.3L33.129-1.88A4.66,4.66,0,0,1,31.238-.338,6.2,6.2,0,0,1,28.6.215Zm-.354-9.55a1.94,1.94,0,0,0-1.5.626,3.241,3.241,0,0,0-.736,1.791h4.318v-.248a2.311,2.311,0,0,0-.559-1.6A2,2,0,0,0,28.241-9.335ZM38-11.623l.1,1.343a4.058,4.058,0,0,1,3.341-1.558,3.372,3.372,0,0,1,2.75,1.085,5.062,5.062,0,0,1,.924,3.244V0H42V-7.451a2.022,2.022,0,0,0-.43-1.437,1.921,1.921,0,0,0-1.429-.447,2.135,2.135,0,0,0-1.966,1.12V0h-3.1V-11.623Zm14.3,9.335a2.036,2.036,0,0,0,1.4-.473,1.656,1.656,0,0,0,.559-1.257h2.911a3.982,3.982,0,0,1-.645,2.165A4.253,4.253,0,0,1,54.78-.328a5.43,5.43,0,0,1-2.433.542A5.046,5.046,0,0,1,48.415-1.37a6.27,6.27,0,0,1-1.439-4.377v-.2A6.2,6.2,0,0,1,48.4-10.237a4.987,4.987,0,0,1,3.921-1.6,4.889,4.889,0,0,1,3.5,1.241,4.393,4.393,0,0,1,1.337,3.3H54.248a2.133,2.133,0,0,0-.559-1.474,1.862,1.862,0,0,0-1.418-.567,1.87,1.87,0,0,0-1.638.791,4.583,4.583,0,0,0-.553,2.566v.323a4.641,4.641,0,0,0,.548,2.582A1.893,1.893,0,0,0,52.293-2.288ZM62.208,0H59.093V-11.623h3.115Zm-3.3-14.631a1.529,1.529,0,0,1,.467-1.149,1.755,1.755,0,0,1,1.273-.451,1.759,1.759,0,0,1,1.268.451,1.52,1.52,0,0,1,.473,1.149,1.524,1.524,0,0,1-.478,1.16,1.764,1.764,0,0,1-1.262.451,1.764,1.764,0,0,1-1.262-.451A1.524,1.524,0,0,1,58.91-14.631Zm5.371,8.712A6.893,6.893,0,0,1,64.947-9,4.876,4.876,0,0,1,66.865-11.1a5.594,5.594,0,0,1,2.906-.741,5.293,5.293,0,0,1,3.84,1.439,5.777,5.777,0,0,1,1.66,3.91l.021.795A6.075,6.075,0,0,1,73.8-1.4,5.19,5.19,0,0,1,69.792.215,5.216,5.216,0,0,1,65.78-1.4a6.182,6.182,0,0,1-1.5-4.383Zm3.1.22a4.345,4.345,0,0,0,.623,2.534,2.055,2.055,0,0,0,1.783.877,2.06,2.06,0,0,0,1.762-.866,4.754,4.754,0,0,0,.634-2.77,4.3,4.3,0,0,0-.634-2.518,2.06,2.06,0,0,0-1.783-.893,2.027,2.027,0,0,0-1.762.888A4.834,4.834,0,0,0,67.386-5.7Zm3-10.8h3.384l-2.976,3.33H68.267Zm9.679,4.877.1,1.343A4.058,4.058,0,0,1,83.5-11.838a3.372,3.372,0,0,1,2.75,1.085,5.062,5.062,0,0,1,.924,3.244V0h-3.1V-7.451a2.022,2.022,0,0,0-.43-1.437,1.921,1.921,0,0,0-1.429-.447,2.135,2.135,0,0,0-1.966,1.12V0h-3.1V-11.623ZM101.739,0a3.448,3.448,0,0,1-.312-1.042A3.756,3.756,0,0,1,98.5.215a4.127,4.127,0,0,1-2.831-.988,3.178,3.178,0,0,1-1.123-2.492A3.285,3.285,0,0,1,95.912-6.1a6.758,6.758,0,0,1,3.958-1H101.3v-.666a1.915,1.915,0,0,0-.414-1.289,1.627,1.627,0,0,0-1.305-.483,1.85,1.85,0,0,0-1.23.376A1.277,1.277,0,0,0,97.9-8.132H94.8A3.118,3.118,0,0,1,95.423-10a4.118,4.118,0,0,1,1.762-1.348,6.42,6.42,0,0,1,2.557-.489,5.073,5.073,0,0,1,3.411,1.08,3.777,3.777,0,0,1,1.262,3.035v5.038a5.557,5.557,0,0,0,.462,2.5V0ZM99.172-2.159a2.674,2.674,0,0,0,1.268-.306,2.011,2.011,0,0,0,.859-.822v-2h-1.16q-2.331,0-2.481,1.611l-.011.183a1.243,1.243,0,0,0,.408.956A1.586,1.586,0,0,0,99.172-2.159ZM110.075,0H106.96V-16.5h3.115Zm12.869-2.288a2.036,2.036,0,0,0,1.4-.473,1.656,1.656,0,0,0,.559-1.257h2.911a3.982,3.982,0,0,1-.645,2.165,4.253,4.253,0,0,1-1.735,1.525A5.43,5.43,0,0,1,123,.215a5.046,5.046,0,0,1-3.932-1.584,6.27,6.27,0,0,1-1.439-4.377v-.2a6.2,6.2,0,0,1,1.429-4.286,4.987,4.987,0,0,1,3.921-1.6,4.889,4.889,0,0,1,3.5,1.241,4.393,4.393,0,0,1,1.337,3.3H124.9a2.133,2.133,0,0,0-.559-1.474,1.862,1.862,0,0,0-1.418-.567,1.87,1.87,0,0,0-1.638.791,4.583,4.583,0,0,0-.553,2.566v.323a4.641,4.641,0,0,0,.548,2.582A1.893,1.893,0,0,0,122.944-2.288ZM132.859,0h-3.115V-16.5h3.115Zm5.833,0h-3.115V-11.623h3.115Zm-3.3-14.631a1.529,1.529,0,0,1,.467-1.149,1.755,1.755,0,0,1,1.273-.451,1.759,1.759,0,0,1,1.268.451,1.52,1.52,0,0,1,.473,1.149,1.524,1.524,0,0,1-.478,1.16,1.764,1.764,0,0,1-1.262.451,1.764,1.764,0,0,1-1.262-.451A1.524,1.524,0,0,1,135.395-14.631ZM146.6.215a5.706,5.706,0,0,1-4.163-1.568,5.575,5.575,0,0,1-1.606-4.179v-.3a7.021,7.021,0,0,1,.677-3.131,4.967,4.967,0,0,1,1.917-2.127,5.382,5.382,0,0,1,2.831-.747,4.824,4.824,0,0,1,3.754,1.5,6.111,6.111,0,0,1,1.37,4.265V-4.8h-7.4a2.884,2.884,0,0,0,.908,1.826,2.744,2.744,0,0,0,1.917.688,3.351,3.351,0,0,0,2.8-1.3l1.525,1.708a4.66,4.66,0,0,1-1.891,1.542A6.2,6.2,0,0,1,146.6.215Zm-.354-9.55a1.94,1.94,0,0,0-1.5.626,3.241,3.241,0,0,0-.736,1.791h4.318v-.248a2.311,2.311,0,0,0-.559-1.6A2,2,0,0,0,146.244-9.335ZM156-11.623l.1,1.343a4.058,4.058,0,0,1,3.341-1.558,3.372,3.372,0,0,1,2.75,1.085,5.062,5.062,0,0,1,.924,3.244V0H160V-7.451a2.022,2.022,0,0,0-.43-1.437,1.921,1.921,0,0,0-1.429-.447,2.135,2.135,0,0,0-1.966,1.12V0h-3.1V-11.623Zm13.181-2.857v2.857h1.987v2.277h-1.987v5.8a1.385,1.385,0,0,0,.247.924,1.241,1.241,0,0,0,.945.279,4.951,4.951,0,0,0,.913-.075V-.064a6.391,6.391,0,0,1-1.88.279q-3.266,0-3.33-3.3V-9.346h-1.7v-2.277h1.7V-14.48Zm9.066,14.7a5.706,5.706,0,0,1-4.163-1.568,5.575,5.575,0,0,1-1.606-4.179v-.3a7.021,7.021,0,0,1,.677-3.131,4.967,4.967,0,0,1,1.917-2.127,5.382,5.382,0,0,1,2.831-.747,4.824,4.824,0,0,1,3.754,1.5,6.111,6.111,0,0,1,1.37,4.265V-4.8h-7.4a2.884,2.884,0,0,0,.908,1.826,2.744,2.744,0,0,0,1.917.688,3.351,3.351,0,0,0,2.8-1.3l1.525,1.708a4.66,4.66,0,0,1-1.891,1.542A6.2,6.2,0,0,1,178.245.215Zm-.354-9.55a1.94,1.94,0,0,0-1.5.626,3.241,3.241,0,0,0-.736,1.791h4.318v-.248a2.311,2.311,0,0,0-.559-1.6A2,2,0,0,0,177.891-9.335Z" transform="translate(-5060.179 -12611.964)" fill="#fff"/>
    <path id="Trazado_134444" data-name="Trazado 134444" d="M0,0H229.358V53.965H0Z" transform="translate(-5084.179 -12568.965)" fill="#1565c0"/>
    <path id="Trazado_134445" data-name="Trazado 134445" d="M14.115,0H10.893L4.619-10.291V0H1.4V-15.641H4.619L10.9-5.328V-15.641h3.212Zm9.571-1.182a3.893,3.893,0,0,1-3.18,1.4A3.672,3.672,0,0,1,17.655-.859a4.586,4.586,0,0,1-1-3.147v-7.616h3.1v7.518q0,1.817,1.654,1.817a2.242,2.242,0,0,0,2.17-1.1v-8.238h3.115V0H23.772Zm10.7,1.4a5.706,5.706,0,0,1-4.163-1.568,5.575,5.575,0,0,1-1.606-4.179v-.3a7.021,7.021,0,0,1,.677-3.131,4.967,4.967,0,0,1,1.917-2.127,5.382,5.382,0,0,1,2.831-.747,4.824,4.824,0,0,1,3.754,1.5,6.111,6.111,0,0,1,1.37,4.265V-4.8h-7.4a2.884,2.884,0,0,0,.908,1.826,2.744,2.744,0,0,0,1.917.688,3.351,3.351,0,0,0,2.8-1.3L38.919-1.88A4.66,4.66,0,0,1,37.028-.338,6.2,6.2,0,0,1,34.386.215Zm-.354-9.55a1.94,1.94,0,0,0-1.5.626A3.241,3.241,0,0,0,31.8-6.918h4.318v-.248a2.311,2.311,0,0,0-.559-1.6A2,2,0,0,0,34.031-9.335ZM45.139-3.792,47.3-11.623h3.244L46.621,0H43.656L39.735-11.623h3.244Zm6.123-2.127A6.893,6.893,0,0,1,51.928-9,4.876,4.876,0,0,1,53.845-11.1a5.594,5.594,0,0,1,2.906-.741,5.293,5.293,0,0,1,3.84,1.439,5.777,5.777,0,0,1,1.66,3.91l.021.795A6.075,6.075,0,0,1,60.779-1.4,5.19,5.19,0,0,1,56.772.215,5.216,5.216,0,0,1,52.76-1.4a6.182,6.182,0,0,1-1.5-4.383Zm3.1.22a4.345,4.345,0,0,0,.623,2.534,2.055,2.055,0,0,0,1.783.877,2.06,2.06,0,0,0,1.762-.866,4.754,4.754,0,0,0,.634-2.77,4.3,4.3,0,0,0-.634-2.518,2.06,2.06,0,0,0-1.783-.893,2.027,2.027,0,0,0-1.762.888A4.834,4.834,0,0,0,54.366-5.7ZM70.479-3.212a1,1,0,0,0-.564-.9,6.406,6.406,0,0,0-1.81-.585q-4.146-.87-4.146-3.523A3.194,3.194,0,0,1,65.243-10.8,5.178,5.178,0,0,1,68.6-11.838a5.573,5.573,0,0,1,3.54,1.042,3.284,3.284,0,0,1,1.327,2.707h-3.1a1.5,1.5,0,0,0-.43-1.1,1.818,1.818,0,0,0-1.343-.435,1.858,1.858,0,0,0-1.214.354,1.119,1.119,0,0,0-.43.9.957.957,0,0,0,.489.833,5.028,5.028,0,0,0,1.649.548,13.468,13.468,0,0,1,1.955.521A3.212,3.212,0,0,1,73.5-3.341,3.032,3.032,0,0,1,72.134-.768,5.885,5.885,0,0,1,68.61.215a6.147,6.147,0,0,1-2.594-.521,4.353,4.353,0,0,1-1.778-1.429,3.32,3.32,0,0,1-.645-1.96h2.943a1.621,1.621,0,0,0,.612,1.268,2.429,2.429,0,0,0,1.525.44,2.248,2.248,0,0,0,1.348-.338A1.053,1.053,0,0,0,70.479-3.212Zm13.353-8.411.1,1.343a4.058,4.058,0,0,1,3.341-1.558,3.372,3.372,0,0,1,2.75,1.085,5.062,5.062,0,0,1,.924,3.244V0h-3.1V-7.451a2.022,2.022,0,0,0-.43-1.437,1.921,1.921,0,0,0-1.429-.447,2.135,2.135,0,0,0-1.966,1.12V0h-3.1V-11.623ZM98.646.215a5.706,5.706,0,0,1-4.163-1.568,5.575,5.575,0,0,1-1.606-4.179v-.3a7.021,7.021,0,0,1,.677-3.131,4.967,4.967,0,0,1,1.917-2.127,5.382,5.382,0,0,1,2.831-.747,4.824,4.824,0,0,1,3.754,1.5,6.111,6.111,0,0,1,1.37,4.265V-4.8h-7.4a2.884,2.884,0,0,0,.908,1.826,2.744,2.744,0,0,0,1.917.688,3.351,3.351,0,0,0,2.8-1.3l1.525,1.708a4.66,4.66,0,0,1-1.891,1.542A6.2,6.2,0,0,1,98.646.215Zm-.354-9.55a1.94,1.94,0,0,0-1.5.626,3.241,3.241,0,0,0-.736,1.791h4.318v-.248a2.311,2.311,0,0,0-.559-1.6A2,2,0,0,0,98.291-9.335ZM104.736-5.9a6.812,6.812,0,0,1,1.273-4.308,4.125,4.125,0,0,1,3.432-1.633,3.617,3.617,0,0,1,2.976,1.311l.129-1.1h2.814V-.387a4.968,4.968,0,0,1-.693,2.653,4.45,4.45,0,0,1-1.95,1.719,6.854,6.854,0,0,1-2.943.591,6.373,6.373,0,0,1-2.492-.51,4.423,4.423,0,0,1-1.837-1.316L106.82.859a3.637,3.637,0,0,0,2.814,1.3,2.662,2.662,0,0,0,1.923-.661,2.478,2.478,0,0,0,.688-1.875V-1A3.591,3.591,0,0,1,109.42.215a4.114,4.114,0,0,1-3.389-1.638,6.81,6.81,0,0,1-1.294-4.345Zm3.1.221a4.264,4.264,0,0,0,.634,2.487,2.014,2.014,0,0,0,1.74.9,2.154,2.154,0,0,0,2.03-1.068v-4.91a2.149,2.149,0,0,0-2.009-1.068,2.027,2.027,0,0,0-1.756.917A4.807,4.807,0,0,0,107.841-5.677Zm9.421-.242A6.893,6.893,0,0,1,117.928-9a4.876,4.876,0,0,1,1.917-2.095,5.594,5.594,0,0,1,2.906-.741,5.293,5.293,0,0,1,3.84,1.439,5.777,5.777,0,0,1,1.66,3.91l.021.795A6.075,6.075,0,0,1,126.779-1.4,5.19,5.19,0,0,1,122.772.215,5.216,5.216,0,0,1,118.76-1.4a6.182,6.182,0,0,1-1.5-4.383Zm3.1.22a4.345,4.345,0,0,0,.623,2.534,2.055,2.055,0,0,0,1.783.877,2.06,2.06,0,0,0,1.762-.866,4.754,4.754,0,0,0,.634-2.77,4.3,4.3,0,0,0-.634-2.518,2.06,2.06,0,0,0-1.783-.893,2.027,2.027,0,0,0-1.762.888A4.834,4.834,0,0,0,120.366-5.7Zm14.652,3.41a2.036,2.036,0,0,0,1.4-.473,1.656,1.656,0,0,0,.559-1.257h2.911a3.982,3.982,0,0,1-.645,2.165,4.253,4.253,0,0,1-1.735,1.525,5.43,5.43,0,0,1-2.433.542,5.046,5.046,0,0,1-3.932-1.584A6.27,6.27,0,0,1,129.7-5.747v-.2a6.2,6.2,0,0,1,1.429-4.286,4.987,4.987,0,0,1,3.921-1.6,4.889,4.889,0,0,1,3.5,1.241,4.393,4.393,0,0,1,1.337,3.3h-2.911a2.133,2.133,0,0,0-.559-1.474A1.862,1.862,0,0,0,135-9.335a1.87,1.87,0,0,0-1.638.791,4.583,4.583,0,0,0-.553,2.566v.323a4.641,4.641,0,0,0,.548,2.582A1.893,1.893,0,0,0,135.019-2.288ZM144.934,0h-3.115V-11.623h3.115Zm-3.3-14.631a1.529,1.529,0,0,1,.467-1.149,1.755,1.755,0,0,1,1.273-.451,1.759,1.759,0,0,1,1.268.451,1.52,1.52,0,0,1,.473,1.149,1.524,1.524,0,0,1-.478,1.16,1.764,1.764,0,0,1-1.262.451,1.764,1.764,0,0,1-1.262-.451A1.524,1.524,0,0,1,141.636-14.631Zm5.371,8.712A6.893,6.893,0,0,1,147.673-9,4.876,4.876,0,0,1,149.59-11.1a5.594,5.594,0,0,1,2.906-.741,5.293,5.293,0,0,1,3.84,1.439A5.777,5.777,0,0,1,158-6.488l.021.795A6.075,6.075,0,0,1,156.524-1.4,5.19,5.19,0,0,1,152.518.215,5.216,5.216,0,0,1,148.505-1.4a6.182,6.182,0,0,1-1.5-4.383Zm3.1.22a4.345,4.345,0,0,0,.623,2.534,2.055,2.055,0,0,0,1.783.877,2.06,2.06,0,0,0,1.762-.866,4.754,4.754,0,0,0,.634-2.77,4.3,4.3,0,0,0-.634-2.518,2.06,2.06,0,0,0-1.783-.893,2.027,2.027,0,0,0-1.762.888A4.834,4.834,0,0,0,150.111-5.7Zm16.113,2.487a1,1,0,0,0-.564-.9,6.406,6.406,0,0,0-1.81-.585q-4.146-.87-4.146-3.523a3.194,3.194,0,0,1,1.284-2.583,5.178,5.178,0,0,1,3.357-1.037,5.573,5.573,0,0,1,3.54,1.042,3.284,3.284,0,0,1,1.327,2.707h-3.1a1.5,1.5,0,0,0-.43-1.1,1.818,1.818,0,0,0-1.343-.435,1.858,1.858,0,0,0-1.214.354,1.119,1.119,0,0,0-.43.9.957.957,0,0,0,.489.833,5.028,5.028,0,0,0,1.649.548,13.468,13.468,0,0,1,1.955.521,3.212,3.212,0,0,1,2.46,3.126,3.032,3.032,0,0,1-1.364,2.573,5.885,5.885,0,0,1-3.523.983,6.147,6.147,0,0,1-2.594-.521,4.353,4.353,0,0,1-1.778-1.429,3.32,3.32,0,0,1-.645-1.96h2.943a1.621,1.621,0,0,0,.612,1.268,2.429,2.429,0,0,0,1.525.44,2.248,2.248,0,0,0,1.348-.338A1.053,1.053,0,0,0,166.225-3.212Z" transform="translate(-5054.179 -12533.965)" fill="#fff"/>
    <path id="Trazado_134446" data-name="Trazado 134446" d="M0,0H229.358V53.965H0Z" transform="translate(-5408.292 -12770.965)" fill="#26aab7"/>
    <path id="Trazado_134447" data-name="Trazado 134447" d="M13.675-5.21a5.535,5.535,0,0,1-1.864,3.975A6.546,6.546,0,0,1,7.38.215,5.886,5.886,0,0,1,2.648-1.81,8.3,8.3,0,0,1,.924-7.369v-.956A9.376,9.376,0,0,1,1.719-12.3a5.957,5.957,0,0,1,2.272-2.637,6.364,6.364,0,0,1,3.432-.918,6.376,6.376,0,0,1,4.361,1.45A5.948,5.948,0,0,1,13.7-10.334H10.474a3.266,3.266,0,0,0-.843-2.2,3.123,3.123,0,0,0-2.208-.682,2.738,2.738,0,0,0-2.412,1.155,6.472,6.472,0,0,0-.822,3.583v1.182a6.927,6.927,0,0,0,.768,3.706A2.687,2.687,0,0,0,7.38-2.417,3.182,3.182,0,0,0,9.609-3.1a3.081,3.081,0,0,0,.843-2.111ZM15.1-5.919A6.893,6.893,0,0,1,15.77-9,4.876,4.876,0,0,1,17.687-11.1a5.594,5.594,0,0,1,2.906-.741,5.293,5.293,0,0,1,3.84,1.439,5.777,5.777,0,0,1,1.66,3.91l.021.795A6.075,6.075,0,0,1,24.621-1.4,5.19,5.19,0,0,1,20.614.215,5.216,5.216,0,0,1,16.6-1.4a6.182,6.182,0,0,1-1.5-4.383Zm3.1.22a4.345,4.345,0,0,0,.623,2.534,2.055,2.055,0,0,0,1.783.877,2.06,2.06,0,0,0,1.762-.866,4.754,4.754,0,0,0,.634-2.77,4.3,4.3,0,0,0-.634-2.518,2.06,2.06,0,0,0-1.783-.893,2.027,2.027,0,0,0-1.762.888A4.834,4.834,0,0,0,18.208-5.7Zm12.729-5.924.1,1.3a4.085,4.085,0,0,1,3.341-1.515,3.1,3.1,0,0,1,3.083,1.772,3.991,3.991,0,0,1,3.491-1.772,3.467,3.467,0,0,1,2.814,1.1,5.061,5.061,0,0,1,.924,3.314V0H41.572V-7.429a2.222,2.222,0,0,0-.387-1.448,1.711,1.711,0,0,0-1.364-.458A1.938,1.938,0,0,0,37.888-8L37.9,0h-3.1V-7.418a2.195,2.195,0,0,0-.4-1.464,1.728,1.728,0,0,0-1.354-.452,2.011,2.011,0,0,0-1.912,1.1V0h-3.1V-11.623ZM57.535-5.7a6.971,6.971,0,0,1-1.219,4.3A3.909,3.909,0,0,1,53.023.215,3.621,3.621,0,0,1,50.177-1.01V4.469h-3.1V-11.623h2.879l.107,1.139A3.649,3.649,0,0,1,53-11.838a3.936,3.936,0,0,1,3.341,1.59,7.16,7.16,0,0,1,1.192,4.383Zm-3.1-.237a4.6,4.6,0,0,0-.575-2.511,1.87,1.87,0,0,0-1.67-.884,2.032,2.032,0,0,0-2.009,1.121v4.773a2.066,2.066,0,0,0,2.03,1.153Q54.431-2.288,54.431-5.941ZM65.989-8.712A8.434,8.434,0,0,0,64.872-8.8a2.274,2.274,0,0,0-2.31,1.192V0h-3.1V-11.623h2.933l.086,1.386a2.877,2.877,0,0,1,2.589-1.6,3.253,3.253,0,0,1,.967.14ZM73.9,0a3.448,3.448,0,0,1-.312-1.042A3.756,3.756,0,0,1,70.651.215a4.127,4.127,0,0,1-2.831-.988A3.178,3.178,0,0,1,66.7-3.266,3.285,3.285,0,0,1,68.068-6.1a6.758,6.758,0,0,1,3.958-1h1.429v-.666a1.915,1.915,0,0,0-.414-1.289,1.627,1.627,0,0,0-1.305-.483,1.85,1.85,0,0,0-1.23.376,1.277,1.277,0,0,0-.446,1.031h-3.1A3.118,3.118,0,0,1,67.579-10a4.118,4.118,0,0,1,1.762-1.348,6.42,6.42,0,0,1,2.557-.489,5.073,5.073,0,0,1,3.411,1.08A3.777,3.777,0,0,1,76.57-7.724v5.038a5.557,5.557,0,0,0,.462,2.5V0ZM71.328-2.159A2.674,2.674,0,0,0,72.6-2.465a2.011,2.011,0,0,0,.859-.822v-2h-1.16q-2.331,0-2.481,1.611l-.011.183a1.243,1.243,0,0,0,.408.956A1.586,1.586,0,0,0,71.328-2.159ZM85.486-8.712A8.434,8.434,0,0,0,84.369-8.8a2.274,2.274,0,0,0-2.31,1.192V0h-3.1V-11.623h2.933l.086,1.386a2.877,2.877,0,0,1,2.589-1.6,3.253,3.253,0,0,1,.967.14Z" transform="translate(-5340.818 -12735.965)" fill="#12263f"/>
    <path id="Trazado_134448" data-name="Trazado 134448" d="M0,0H229.358V53.965H0Z" transform="translate(-5408.292 -12689.965)" fill="#26aab7"/>
    <path id="Trazado_134449" data-name="Trazado 134449" d="M10.807-6.8H4.619v4.211h7.262V0H1.4V-15.641H11.859v2.61H4.619V-9.3h6.188Zm5.618-4.823.1,1.343a4.058,4.058,0,0,1,3.341-1.558,3.372,3.372,0,0,1,2.75,1.085,5.062,5.062,0,0,1,.924,3.244V0h-3.1V-7.451A2.022,2.022,0,0,0,20-8.888a1.921,1.921,0,0,0-1.429-.447,2.135,2.135,0,0,0-1.966,1.12V0H13.5V-11.623ZM29.605-14.48v2.857h1.987v2.277H29.605v5.8a1.385,1.385,0,0,0,.247.924,1.241,1.241,0,0,0,.945.279,4.951,4.951,0,0,0,.913-.075V-.064a6.391,6.391,0,0,1-1.88.279q-3.266,0-3.33-3.3V-9.346H24.8v-2.277h1.7V-14.48ZM39.854-8.712A8.434,8.434,0,0,0,38.736-8.8a2.274,2.274,0,0,0-2.31,1.192V0h-3.1V-11.623h2.933l.086,1.386a2.877,2.877,0,0,1,2.589-1.6,3.253,3.253,0,0,1,.967.14ZM46.492.215A5.706,5.706,0,0,1,42.33-1.354a5.575,5.575,0,0,1-1.606-4.179v-.3A7.021,7.021,0,0,1,41.4-8.964a4.967,4.967,0,0,1,1.917-2.127,5.382,5.382,0,0,1,2.831-.747,4.824,4.824,0,0,1,3.754,1.5,6.111,6.111,0,0,1,1.37,4.265V-4.8h-7.4a2.884,2.884,0,0,0,.908,1.826,2.744,2.744,0,0,0,1.917.688,3.351,3.351,0,0,0,2.8-1.3L51.025-1.88A4.66,4.66,0,0,1,49.135-.338,6.2,6.2,0,0,1,46.492.215Zm-.354-9.55a1.94,1.94,0,0,0-1.5.626A3.241,3.241,0,0,0,43.9-6.918h4.318v-.248a2.311,2.311,0,0,0-.559-1.6A2,2,0,0,0,46.138-9.335ZM56.751-14.48v2.857h1.987v2.277H56.751v5.8A1.385,1.385,0,0,0,57-2.621a1.241,1.241,0,0,0,.945.279,4.951,4.951,0,0,0,.913-.075V-.064a6.391,6.391,0,0,1-1.88.279q-3.266,0-3.33-3.3V-9.346h-1.7v-2.277h1.7V-14.48ZM65.817.215a5.706,5.706,0,0,1-4.163-1.568,5.575,5.575,0,0,1-1.606-4.179v-.3a7.021,7.021,0,0,1,.677-3.131,4.967,4.967,0,0,1,1.917-2.127,5.382,5.382,0,0,1,2.831-.747,4.824,4.824,0,0,1,3.754,1.5A6.111,6.111,0,0,1,70.6-6.069V-4.8H63.2A2.884,2.884,0,0,0,64.1-2.976a2.744,2.744,0,0,0,1.917.688,3.351,3.351,0,0,0,2.8-1.3L70.351-1.88A4.66,4.66,0,0,1,68.46-.338,6.2,6.2,0,0,1,65.817.215Zm-.354-9.55a1.94,1.94,0,0,0-1.5.626,3.241,3.241,0,0,0-.736,1.791h4.318v-.248a2.311,2.311,0,0,0-.559-1.6A2,2,0,0,0,65.463-9.335Zm9.754-2.288.1,1.343a4.058,4.058,0,0,1,3.341-1.558,3.372,3.372,0,0,1,2.75,1.085,5.062,5.062,0,0,1,.924,3.244V0h-3.1V-7.451a2.022,2.022,0,0,0-.43-1.437,1.921,1.921,0,0,0-1.429-.447A2.135,2.135,0,0,0,75.4-8.215V0h-3.1V-11.623ZM90.03.215a5.706,5.706,0,0,1-4.163-1.568,5.575,5.575,0,0,1-1.606-4.179v-.3a7.021,7.021,0,0,1,.677-3.131,4.967,4.967,0,0,1,1.917-2.127,5.382,5.382,0,0,1,2.831-.747,4.824,4.824,0,0,1,3.754,1.5,6.111,6.111,0,0,1,1.37,4.265V-4.8h-7.4a2.884,2.884,0,0,0,.908,1.826,2.744,2.744,0,0,0,1.917.688,3.351,3.351,0,0,0,2.8-1.3L94.563-1.88A4.66,4.66,0,0,1,92.673-.338,6.2,6.2,0,0,1,90.03.215Zm-.354-9.55a1.94,1.94,0,0,0-1.5.626,3.241,3.241,0,0,0-.736,1.791H91.76v-.248a2.311,2.311,0,0,0-.559-1.6A2,2,0,0,0,89.676-9.335Zm13.428.623a8.434,8.434,0,0,0-1.117-.086,2.274,2.274,0,0,0-2.31,1.192V0h-3.1V-11.623H99.5l.086,1.386a2.877,2.877,0,0,1,2.589-1.6,3.253,3.253,0,0,1,.967.14Zm7.788,5.5a1,1,0,0,0-.564-.9,6.406,6.406,0,0,0-1.81-.585q-4.146-.87-4.146-3.523a3.194,3.194,0,0,1,1.284-2.583,5.178,5.178,0,0,1,3.357-1.037,5.573,5.573,0,0,1,3.54,1.042,3.284,3.284,0,0,1,1.327,2.707h-3.1a1.5,1.5,0,0,0-.43-1.1A1.818,1.818,0,0,0,109-9.625a1.858,1.858,0,0,0-1.214.354,1.119,1.119,0,0,0-.43.9.957.957,0,0,0,.489.833,5.028,5.028,0,0,0,1.649.548,13.468,13.468,0,0,1,1.955.521,3.212,3.212,0,0,1,2.46,3.126,3.032,3.032,0,0,1-1.364,2.573,5.885,5.885,0,0,1-3.523.983,6.147,6.147,0,0,1-2.594-.521,4.353,4.353,0,0,1-1.778-1.429,3.32,3.32,0,0,1-.645-1.96h2.943a1.621,1.621,0,0,0,.612,1.268,2.429,2.429,0,0,0,1.525.44,2.248,2.248,0,0,0,1.348-.338A1.053,1.053,0,0,0,110.892-3.212ZM121.258.215A5.706,5.706,0,0,1,117.1-1.354a5.575,5.575,0,0,1-1.606-4.179v-.3a7.021,7.021,0,0,1,.677-3.131,4.967,4.967,0,0,1,1.917-2.127,5.382,5.382,0,0,1,2.831-.747,4.824,4.824,0,0,1,3.754,1.5,6.111,6.111,0,0,1,1.37,4.265V-4.8h-7.4a2.884,2.884,0,0,0,.908,1.826,2.744,2.744,0,0,0,1.917.688,3.351,3.351,0,0,0,2.8-1.3l1.525,1.708A4.66,4.66,0,0,1,123.9-.338,6.2,6.2,0,0,1,121.258.215Zm-.354-9.55a1.94,1.94,0,0,0-1.5.626,3.241,3.241,0,0,0-.736,1.791h4.318v-.248a2.311,2.311,0,0,0-.559-1.6A2,2,0,0,0,120.9-9.335Z" transform="translate(-5362.912 -12655.965)" fill="#12263f"/>
    <path id="Trazado_134450" data-name="Trazado 134450" d="M0,0H229.358V53.965H0Z" transform="translate(-5675.179 -12770.965)" fill="#26aab7"/>
    <path id="Trazado_134451" data-name="Trazado 134451" d="M13.675-5.21a5.535,5.535,0,0,1-1.864,3.975A6.546,6.546,0,0,1,7.38.215,5.886,5.886,0,0,1,2.648-1.81,8.3,8.3,0,0,1,.924-7.369v-.956A9.376,9.376,0,0,1,1.719-12.3a5.957,5.957,0,0,1,2.272-2.637,6.364,6.364,0,0,1,3.432-.918,6.376,6.376,0,0,1,4.361,1.45A5.948,5.948,0,0,1,13.7-10.334H10.474a3.266,3.266,0,0,0-.843-2.2,3.123,3.123,0,0,0-2.208-.682,2.738,2.738,0,0,0-2.412,1.155,6.472,6.472,0,0,0-.822,3.583v1.182a6.927,6.927,0,0,0,.768,3.706A2.687,2.687,0,0,0,7.38-2.417,3.182,3.182,0,0,0,9.609-3.1a3.081,3.081,0,0,0,.843-2.111ZM15.1-5.919A6.893,6.893,0,0,1,15.77-9,4.876,4.876,0,0,1,17.687-11.1a5.594,5.594,0,0,1,2.906-.741,5.293,5.293,0,0,1,3.84,1.439,5.777,5.777,0,0,1,1.66,3.91l.021.795A6.075,6.075,0,0,1,24.621-1.4,5.19,5.19,0,0,1,20.614.215,5.216,5.216,0,0,1,16.6-1.4a6.182,6.182,0,0,1-1.5-4.383Zm3.1.22a4.345,4.345,0,0,0,.623,2.534,2.055,2.055,0,0,0,1.783.877,2.06,2.06,0,0,0,1.762-.866,4.754,4.754,0,0,0,.634-2.77,4.3,4.3,0,0,0-.634-2.518,2.06,2.06,0,0,0-1.783-.893,2.027,2.027,0,0,0-1.762.888A4.834,4.834,0,0,0,18.208-5.7Zm12.729-5.924.1,1.3a4.085,4.085,0,0,1,3.341-1.515,3.1,3.1,0,0,1,3.083,1.772,3.991,3.991,0,0,1,3.491-1.772,3.467,3.467,0,0,1,2.814,1.1,5.061,5.061,0,0,1,.924,3.314V0H41.572V-7.429a2.222,2.222,0,0,0-.387-1.448,1.711,1.711,0,0,0-1.364-.458A1.938,1.938,0,0,0,37.888-8L37.9,0h-3.1V-7.418a2.195,2.195,0,0,0-.4-1.464,1.728,1.728,0,0,0-1.354-.452,2.011,2.011,0,0,0-1.912,1.1V0h-3.1V-11.623Zm23.1,10.441a3.893,3.893,0,0,1-3.18,1.4A3.672,3.672,0,0,1,48-.859a4.586,4.586,0,0,1-1-3.147v-7.616h3.1v7.518q0,1.817,1.654,1.817a2.242,2.242,0,0,0,2.17-1.1v-8.238h3.115V0H54.119ZM62.24-11.623l.1,1.343a4.058,4.058,0,0,1,3.341-1.558,3.372,3.372,0,0,1,2.75,1.085,5.062,5.062,0,0,1,.924,3.244V0h-3.1V-7.451a2.022,2.022,0,0,0-.43-1.437,1.921,1.921,0,0,0-1.429-.447,2.135,2.135,0,0,0-1.966,1.12V0h-3.1V-11.623ZM74.98,0H71.865V-11.623H74.98Zm-3.3-14.631a1.529,1.529,0,0,1,.467-1.149,1.755,1.755,0,0,1,1.273-.451,1.759,1.759,0,0,1,1.268.451,1.52,1.52,0,0,1,.473,1.149,1.524,1.524,0,0,1-.478,1.16,1.764,1.764,0,0,1-1.262.451,1.764,1.764,0,0,1-1.262-.451A1.524,1.524,0,0,1,71.683-14.631ZM82.371-2.288a2.036,2.036,0,0,0,1.4-.473,1.656,1.656,0,0,0,.559-1.257h2.911a3.982,3.982,0,0,1-.645,2.165A4.253,4.253,0,0,1,84.858-.328a5.43,5.43,0,0,1-2.433.542A5.046,5.046,0,0,1,78.493-1.37a6.27,6.27,0,0,1-1.439-4.377v-.2a6.2,6.2,0,0,1,1.429-4.286,4.987,4.987,0,0,1,3.921-1.6A4.889,4.889,0,0,1,85.9-10.6a4.393,4.393,0,0,1,1.337,3.3H84.326a2.133,2.133,0,0,0-.559-1.474,1.862,1.862,0,0,0-1.418-.567,1.87,1.87,0,0,0-1.638.791,4.583,4.583,0,0,0-.553,2.566v.323a4.641,4.641,0,0,0,.548,2.582A1.893,1.893,0,0,0,82.371-2.288ZM95.745,0a3.448,3.448,0,0,1-.312-1.042A3.756,3.756,0,0,1,92.5.215,4.127,4.127,0,0,1,89.67-.773a3.178,3.178,0,0,1-1.123-2.492A3.285,3.285,0,0,1,89.917-6.1a6.758,6.758,0,0,1,3.958-1H95.3v-.666a1.915,1.915,0,0,0-.414-1.289,1.627,1.627,0,0,0-1.305-.483,1.85,1.85,0,0,0-1.23.376,1.277,1.277,0,0,0-.446,1.031h-3.1A3.118,3.118,0,0,1,89.429-10a4.118,4.118,0,0,1,1.762-1.348,6.42,6.42,0,0,1,2.557-.489,5.073,5.073,0,0,1,3.411,1.08A3.777,3.777,0,0,1,98.42-7.724v5.038a5.557,5.557,0,0,0,.462,2.5V0ZM93.178-2.159a2.674,2.674,0,0,0,1.268-.306,2.011,2.011,0,0,0,.859-.822v-2h-1.16q-2.331,0-2.481,1.611l-.011.183a1.243,1.243,0,0,0,.408.956A1.586,1.586,0,0,0,93.178-2.159Zm14.158-6.553a8.434,8.434,0,0,0-1.117-.086,2.274,2.274,0,0,0-2.31,1.192V0h-3.1V-11.623h2.933l.086,1.386a2.877,2.877,0,0,1,2.589-1.6,3.253,3.253,0,0,1,.967.14Zm7.788,5.5a1,1,0,0,0-.564-.9,6.406,6.406,0,0,0-1.81-.585q-4.146-.87-4.146-3.523a3.194,3.194,0,0,1,1.284-2.583,5.178,5.178,0,0,1,3.357-1.037,5.573,5.573,0,0,1,3.54,1.042,3.284,3.284,0,0,1,1.327,2.707h-3.1a1.5,1.5,0,0,0-.43-1.1,1.818,1.818,0,0,0-1.343-.435,1.858,1.858,0,0,0-1.214.354,1.119,1.119,0,0,0-.43.9.957.957,0,0,0,.489.833,5.028,5.028,0,0,0,1.649.548,13.468,13.468,0,0,1,1.955.521,3.212,3.212,0,0,1,2.46,3.126,3.032,3.032,0,0,1-1.364,2.573,5.885,5.885,0,0,1-3.523.983,6.147,6.147,0,0,1-2.594-.521,4.353,4.353,0,0,1-1.778-1.429,3.32,3.32,0,0,1-.645-1.96h2.943a1.621,1.621,0,0,0,.612,1.268,2.429,2.429,0,0,0,1.525.44,2.248,2.248,0,0,0,1.348-.338A1.053,1.053,0,0,0,115.124-3.212ZM125.49.215a5.706,5.706,0,0,1-4.163-1.568,5.575,5.575,0,0,1-1.606-4.179v-.3a7.021,7.021,0,0,1,.677-3.131,4.967,4.967,0,0,1,1.917-2.127,5.382,5.382,0,0,1,2.831-.747,4.824,4.824,0,0,1,3.754,1.5,6.111,6.111,0,0,1,1.37,4.265V-4.8h-7.4a2.884,2.884,0,0,0,.908,1.826,2.744,2.744,0,0,0,1.917.688,3.351,3.351,0,0,0,2.8-1.3l1.525,1.708a4.66,4.66,0,0,1-1.891,1.542A6.2,6.2,0,0,1,125.49.215Zm-.354-9.55a1.94,1.94,0,0,0-1.5.626,3.241,3.241,0,0,0-.736,1.791h4.318v-.248a2.311,2.311,0,0,0-.559-1.6A2,2,0,0,0,125.136-9.335Z" transform="translate(-5632.502 -12735.965)" fill="#12263f"/>
    <path id="Trazado_134452" data-name="Trazado 134452" d="M0,0H229.358V53.965H0Z" transform="translate(-5675.179 -12689.965)" fill="#26aab7"/>
    <path id="Trazado_134453" data-name="Trazado 134453" d="M4.823,0H1.6V-15.641H4.823Zm5.64-11.623.1,1.343A4.058,4.058,0,0,1,13.9-11.838a3.372,3.372,0,0,1,2.75,1.085,5.062,5.062,0,0,1,.924,3.244V0h-3.1V-7.451a2.022,2.022,0,0,0-.43-1.437,1.921,1.921,0,0,0-1.429-.447,2.135,2.135,0,0,0-1.966,1.12V0h-3.1V-11.623ZM20.775,0V-9.346H19.046v-2.277h1.729v-.988A4.013,4.013,0,0,1,21.9-15.646a4.347,4.347,0,0,1,3.142-1.08,7.317,7.317,0,0,1,1.579.213l-.032,2.387a3.958,3.958,0,0,0-.945-.1q-1.751,0-1.751,1.657v.942H26.2v2.277h-2.31V0Zm6.553-5.919A6.893,6.893,0,0,1,27.994-9,4.876,4.876,0,0,1,29.912-11.1a5.594,5.594,0,0,1,2.906-.741,5.293,5.293,0,0,1,3.84,1.439,5.777,5.777,0,0,1,1.66,3.91l.021.795A6.075,6.075,0,0,1,36.846-1.4,5.19,5.19,0,0,1,32.839.215,5.216,5.216,0,0,1,28.827-1.4a6.182,6.182,0,0,1-1.5-4.383Zm3.1.22a4.345,4.345,0,0,0,.623,2.534,2.055,2.055,0,0,0,1.783.877A2.06,2.06,0,0,0,34.6-3.154a4.754,4.754,0,0,0,.634-2.77A4.3,4.3,0,0,0,34.6-8.442a2.06,2.06,0,0,0-1.783-.893,2.027,2.027,0,0,0-1.762.888A4.834,4.834,0,0,0,30.433-5.7Zm16.35-3.013A8.434,8.434,0,0,0,45.665-8.8a2.274,2.274,0,0,0-2.31,1.192V0h-3.1V-11.623h2.933l.086,1.386a2.877,2.877,0,0,1,2.589-1.6,3.253,3.253,0,0,1,.967.14Zm4.4-2.911.1,1.3a4.085,4.085,0,0,1,3.341-1.515,3.1,3.1,0,0,1,3.083,1.772A3.991,3.991,0,0,1,61.2-11.838a3.467,3.467,0,0,1,2.814,1.1,5.061,5.061,0,0,1,.924,3.314V0H61.821V-7.429a2.222,2.222,0,0,0-.387-1.448,1.711,1.711,0,0,0-1.364-.458A1.938,1.938,0,0,0,58.137-8l.011,8h-3.1V-7.418a2.195,2.195,0,0,0-.4-1.464,1.728,1.728,0,0,0-1.354-.452,2.011,2.011,0,0,0-1.912,1.1V0h-3.1V-11.623ZM74.057,0a3.448,3.448,0,0,1-.312-1.042A3.756,3.756,0,0,1,70.813.215a4.127,4.127,0,0,1-2.831-.988,3.178,3.178,0,0,1-1.123-2.492A3.285,3.285,0,0,1,68.229-6.1a6.758,6.758,0,0,1,3.958-1h1.429v-.666A1.915,1.915,0,0,0,73.2-9.056,1.627,1.627,0,0,0,71.9-9.539a1.85,1.85,0,0,0-1.23.376,1.277,1.277,0,0,0-.446,1.031h-3.1A3.118,3.118,0,0,1,67.74-10,4.118,4.118,0,0,1,69.5-11.349a6.42,6.42,0,0,1,2.557-.489,5.073,5.073,0,0,1,3.411,1.08,3.777,3.777,0,0,1,1.262,3.035v5.038a5.557,5.557,0,0,0,.462,2.5V0ZM71.489-2.159a2.674,2.674,0,0,0,1.268-.306,2.011,2.011,0,0,0,.859-.822v-2h-1.16q-2.331,0-2.481,1.611l-.011.183a1.243,1.243,0,0,0,.408.956A1.586,1.586,0,0,0,71.489-2.159ZM85.647-8.712A8.434,8.434,0,0,0,84.53-8.8a2.274,2.274,0,0,0-2.31,1.192V0h-3.1V-11.623h2.933l.086,1.386a2.877,2.877,0,0,1,2.589-1.6,3.253,3.253,0,0,1,.967.14Zm7.788,5.5a1,1,0,0,0-.564-.9,6.406,6.406,0,0,0-1.81-.585q-4.146-.87-4.146-3.523A3.194,3.194,0,0,1,88.2-10.8a5.178,5.178,0,0,1,3.357-1.037A5.573,5.573,0,0,1,95.1-10.8a3.284,3.284,0,0,1,1.327,2.707h-3.1a1.5,1.5,0,0,0-.43-1.1,1.818,1.818,0,0,0-1.343-.435,1.858,1.858,0,0,0-1.214.354,1.119,1.119,0,0,0-.43.9.957.957,0,0,0,.489.833,5.028,5.028,0,0,0,1.649.548,13.468,13.468,0,0,1,1.955.521,3.212,3.212,0,0,1,2.46,3.126A3.032,3.032,0,0,1,95.09-.768a5.885,5.885,0,0,1-3.523.983,6.147,6.147,0,0,1-2.594-.521,4.353,4.353,0,0,1-1.778-1.429A3.32,3.32,0,0,1,86.55-3.7h2.943a1.621,1.621,0,0,0,.612,1.268,2.429,2.429,0,0,0,1.525.44,2.248,2.248,0,0,0,1.348-.338A1.053,1.053,0,0,0,93.436-3.212ZM103.8.215a5.706,5.706,0,0,1-4.163-1.568,5.575,5.575,0,0,1-1.606-4.179v-.3a7.021,7.021,0,0,1,.677-3.131,4.967,4.967,0,0,1,1.917-2.127,5.382,5.382,0,0,1,2.831-.747,4.824,4.824,0,0,1,3.754,1.5,6.111,6.111,0,0,1,1.37,4.265V-4.8h-7.4a2.884,2.884,0,0,0,.908,1.826,2.744,2.744,0,0,0,1.917.688,3.351,3.351,0,0,0,2.8-1.3l1.525,1.708a4.66,4.66,0,0,1-1.891,1.542A6.2,6.2,0,0,1,103.8.215Zm-.354-9.55a1.94,1.94,0,0,0-1.5.626,3.241,3.241,0,0,0-.736,1.791h4.318v-.248a2.311,2.311,0,0,0-.559-1.6A2,2,0,0,0,103.447-9.335Z" transform="translate(-5620.44 -12655.965)" fill="#12263f"/>
  </g>
</svg>
