<svg xmlns="http://www.w3.org/2000/svg" width="147" height="147" viewBox="0 0 147 147">
  <g id="Grupo_79463" data-name="Grupo 79463" transform="translate(-1010 -1483)">
    <circle id="Elipse_4672" data-name="Elipse 4672" cx="73.5" cy="73.5" r="73.5" transform="translate(1010 1483)" fill="#fff"/>
    <g id="_55j4UN" data-name="55j4UN" transform="translate(-617.876 619.994)">
      <g id="Grupo_76292" data-name="Grupo 76292" transform="translate(1659.876 887.726)">
        <path id="Trazado_111983" data-name="Trazado 111983" d="M1659.876,1003.775c.061-6.914,1.661-13.924,6.519-19.843a23.306,23.306,0,0,1,14.8-8.436c4.886-.792,9.145.949,13.479,2.637,1.122.437,2.269.816,3.42,1.173,1.916.6,3.694-.019,5.461-.685,3.381-1.273,6.672-2.822,10.294-3.353a23.237,23.237,0,0,1,15.809,3.317,19.923,19.923,0,0,1,5.612,5.147c.416.552.612.893-.165,1.442a21.426,21.426,0,0,0-9.3,14.211,21.717,21.717,0,0,0,11.776,23.313c.794.376.734.787.508,1.476a59.16,59.16,0,0,1-9.638,17.426,25.272,25.272,0,0,1-4.67,4.816c-4.148,3.165-8.617,3.085-13.182,1.063-3.3-1.463-6.618-2.609-10.332-2.442a21.513,21.513,0,0,0-7.992,2.051,18.581,18.581,0,0,1-6.919,1.95,10.854,10.854,0,0,1-8.146-3.528,58.88,58.88,0,0,1-14.324-23.674A57.249,57.249,0,0,1,1659.876,1003.775Z" transform="translate(-1659.876 -951.487)" fill="#a9a9a9"/>
        <path id="Trazado_111984" data-name="Trazado 111984" d="M1824.424,890c-.011,8.46-6.383,17-14.531,19.457a11,11,0,0,1-3.163.472c-1.667,0-1.738-.008-1.694-1.733a20.214,20.214,0,0,1,3.817-11.259,21.012,21.012,0,0,1,14.531-9.169c.88-.132,1.135.043,1.047.888A13.063,13.063,0,0,0,1824.424,890Z" transform="translate(-1765.908 -887.726)" fill="#a9a9a9"/>
      </g>
    </g>
  </g>
</svg>
