<svg xmlns="http://www.w3.org/2000/svg" xmlns:xlink="http://www.w3.org/1999/xlink" width="148" height="130.721" viewBox="0 0 148 130.721">
  <defs>
    <filter id="Rectángulo_32715" x="18.5" y="6.878" width="113" height="115.721" filterUnits="userSpaceOnUse">
      <feOffset input="SourceAlpha"/>
      <feGaussianBlur stdDeviation="2.5" result="blur"/>
      <feFlood flood-opacity="0.29"/>
      <feComposite operator="in" in2="blur"/>
      <feComposite in="SourceGraphic"/>
    </filter>
  </defs>
  <g id="Grupo_73971" data-name="Grupo 73971" transform="translate(-172 -7556)">
    <g id="Rectángulo_32714" data-name="Rectángulo 32714" transform="translate(183.887 7556)" fill="none" stroke="#d57700" stroke-linecap="round" stroke-linejoin="round" stroke-width="8">
      <rect width="125" height="123.721" rx="17" stroke="none"/>
      <rect x="4" y="4" width="117" height="115.721" rx="13" fill="none"/>
    </g>
    <rect id="Rectángulo_32716" data-name="Rectángulo 32716" width="148" height="86.721" rx="6" transform="translate(172 7600)" fill="#f6f6f6"/>
    <g transform="matrix(1, 0, 0, 1, 172, 7556)" filter="url(#Rectángulo_32715)">
      <rect id="Rectángulo_32715-2" data-name="Rectángulo 32715" width="98" height="100.721" rx="15" transform="translate(26 14.38)" fill="#fb8c00"/>
    </g>
    <g id="Grupo_73976" data-name="Grupo 73976" transform="translate(-851.222 6208.744)">
      <path id="Trazado_108986" data-name="Trazado 108986" d="M1114.787,1381.634a7.361,7.361,0,0,1,3.484,1.54,6.64,6.64,0,0,1,2.072,3.256q.912,3.124,1.819,6.249c.336,1.161.074,1.643-1.075,1.975q-9.211,2.669-18.424,5.333-9.046,2.619-18.091,5.24a1.146,1.146,0,0,0-.5.272h38.344a6.344,6.344,0,0,1,.748.022,1.039,1.039,0,0,1,.983.9,3.781,3.781,0,0,1,.062.686q0,13.445,0,26.89a6.46,6.46,0,0,1-6.3,6.7c-4.6.058-9.194.032-13.791.027-.841,0-1.356-.469-1.341-1.176s.53-1.127,1.392-1.127c4.462,0,8.925,0,13.387,0a4.086,4.086,0,0,0,4.189-3.109,5.117,5.117,0,0,0,.151-1.311q.015-7.415.005-14.83c0-.169-.02-.338-.033-.543H1076.7v.645q0,7.328,0,14.656a4.157,4.157,0,0,0,4.5,4.493q6.434,0,12.868,0c.154,0,.308,0,.462,0a1.2,1.2,0,0,1,1.3,1.173,1.178,1.178,0,0,1-1.283,1.129c-4.693.005-9.387.052-14.079-.023a6.322,6.322,0,0,1-6.067-6.342c-.028-4.751-.008-9.5-.008-14.253q0-6.377-.007-12.753a4.028,4.028,0,0,0-.151-1.074c-.563-2-1.153-3.983-1.721-5.978a6.392,6.392,0,0,1,4.492-8.169q17.561-5.1,35.131-10.178c.384-.111.769-.214,1.154-.32Zm4.892,11.019a.986.986,0,0,0,0-.215c-.537-1.861-1.03-3.736-1.628-5.577a4.058,4.058,0,0,0-5.171-2.716c-1.884.526-3.759,1.084-5.637,1.631-.135.039-.263.1-.451.17,2.764,2.659,5.475,5.268,8.193,7.87a.429.429,0,0,0,.348.083C1116.786,1393.492,1118.237,1393.069,1119.679,1392.653Zm-33.229,9.628a.948.948,0,0,0-.089-.172q-4.012-3.857-8.03-7.706a.516.516,0,0,0-.388-.142,4.075,4.075,0,0,0-3.34,4.753c.473,1.956,1.073,3.882,1.621,5.82a3.094,3.094,0,0,0,.155.363Zm35.427,5.528c-1.617,0-3.172.012-4.727-.009a.756.756,0,0,0-.771.44c-1.435,2.52-2.893,5.026-4.342,7.539-.082.142-.145.3-.221.453h10.061Zm-45.164,8.47c1.627,0,3.2-.012,4.771.01a.713.713,0,0,0,.716-.427c1.438-2.516,2.892-5.023,4.339-7.535.082-.142.145-.293.232-.471h-10.058Zm21.455-27.875-.1.181a3.8,3.8,0,0,1,.517.355q3.209,3.067,6.407,6.145c.484.464.92,1.147,1.491,1.3.545.144,1.242-.266,1.867-.446,1.374-.395,2.744-.8,4.174-1.215-.108-.133-.158-.211-.223-.273q-3.929-3.774-7.87-7.534a.8.8,0,0,0-.647-.132c-.947.243-1.882.534-2.821.807Zm5.628,8.846.088-.167a3.472,3.472,0,0,1-.473-.324c-2.362-2.26-4.746-4.5-7.059-6.805a1.663,1.663,0,0,0-1.988-.482c-1.6.55-3.253.971-4.908,1.453a1.1,1.1,0,0,0,.115.194q3.988,3.841,7.988,7.669a.692.692,0,0,0,.557.1c.817-.211,1.624-.461,2.435-.7Zm-8.508,2.466c-.249-.191-.413-.294-.549-.425q-3.124-2.991-6.242-5.99c-.554-.531-1.048-1.348-1.694-1.5-.671-.156-1.493.337-2.248.545-.056.016-.114.023-.169.039l-3.8,1.114a6.6,6.6,0,0,1,.589.431c2.29,2.195,4.616,4.354,6.841,6.614a1.99,1.99,0,0,0,2.424.614C1091.965,1400.6,1093.557,1400.219,1095.288,1399.715Zm9.618,8.094c-2.089,0-4.066-.011-6.042.017a.811.811,0,0,0-.538.391c-1.483,2.533-2.946,5.078-4.411,7.621a4.755,4.755,0,0,0-.192.441c2.05,0,4.026.011,6-.017a.814.814,0,0,0,.535-.4c1.426-2.432,2.833-4.877,4.244-7.318C1104.626,1408.336,1104.738,1408.119,1104.907,1407.809Zm9.029,0h-.632c-1.712,0-3.424.014-5.135-.01a.84.84,0,0,0-.86.484c-1.415,2.489-2.855,4.963-4.286,7.443-.091.157-.174.319-.3.553,2.029,0,3.951-.013,5.871.011a.755.755,0,0,0,.758-.457c1.428-2.5,2.874-5,4.312-7.494C1113.747,1408.194,1113.817,1408.042,1113.936,1407.808Zm-18.077,0c-2.01,0-3.91.01-5.81-.008a.8.8,0,0,0-.815.462c-1.423,2.5-2.872,4.989-4.312,7.482-.089.154-.168.313-.286.534,2.007,0,3.908-.014,5.809.011a.836.836,0,0,0,.845-.506c1.4-2.469,2.832-4.924,4.25-7.385C1095.634,1408.237,1095.718,1408.071,1095.859,1407.808Z" fill="#fff"/>
      <path id="Trazado_108987" data-name="Trazado 108987" d="M1115.16,1464.112c0-1.827,0-3.654,0-5.481,0-1.3.866-1.8,1.994-1.151q4.822,2.774,9.636,5.56c1.092.633,1.1,1.645.022,2.272q-4.837,2.8-9.686,5.588c-1.1.631-1.961.13-1.965-1.133C1115.155,1467.882,1115.16,1466,1115.16,1464.112Zm8.991.074-6.651-3.839v7.671Z" transform="translate(-20.337 -35.791)" fill="#fff"/>
      <path id="Trazado_108988" data-name="Trazado 108988" d="M1123.784,1490.71a1.189,1.189,0,0,1-1.171,1.123,1.146,1.146,0,0,1,.047-2.291A1.185,1.185,0,0,1,1123.784,1490.71Z" transform="translate(-23.342 -51.111)" fill="#fff"/>
    </g>
  </g>
</svg>
