<svg xmlns="http://www.w3.org/2000/svg" xmlns:xlink="http://www.w3.org/1999/xlink" width="148" height="130.721" viewBox="0 0 148 130.721">
  <defs>
    <filter id="Rectángulo_32715" x="17.5" y="6.5" width="113" height="115.721" filterUnits="userSpaceOnUse">
      <feOffset input="SourceAlpha"/>
      <feGaussianBlur stdDeviation="2.5" result="blur"/>
      <feFlood flood-opacity="0.29"/>
      <feComposite operator="in" in2="blur"/>
      <feComposite in="SourceGraphic"/>
    </filter>
  </defs>
  <g id="Grupo_79459" data-name="Grupo 79459" transform="translate(15440 3470.273)">
    <g id="Grupo_79447" data-name="Grupo 79447" transform="translate(-478 -259)">
      <g id="Trazado_134298" data-name="Trazado 134298" transform="translate(-14950 -3211.273)" fill="#e4e4e4" stroke-linecap="round">
        <path d="M 108 119.7208023071289 L 17 119.7208023071289 C 13.52758026123047 119.7208023071289 10.26298046112061 118.3685684204102 7.807620048522949 115.9131851196289 C 5.352240085601807 113.4578247070312 4 110.1932220458984 4 106.7208023071289 L 4 17.0000057220459 C 4 13.52758502960205 5.352240085601807 10.26298522949219 7.807620048522949 7.807624816894531 C 10.26298046112061 5.352244853973389 13.52758026123047 4.000004768371582 17 4.000004768371582 L 108 4.000004768371582 C 111.4724197387695 4.000004768371582 114.7370223999023 5.352244853973389 117.1923828125 7.807624816894531 C 119.6477584838867 10.26298522949219 121 13.52758502960205 121 17.0000057220459 L 121 106.7208023071289 C 121 110.1932220458984 119.6477584838867 113.4578247070312 117.1923828125 115.9131851196289 C 114.7370223999023 118.3685684204102 111.4724197387695 119.7208023071289 108 119.7208023071289 Z" stroke="none"/>
        <path d="M 17 8 C 12.03738403320312 8 8 12.03738403320312 8 17 L 8 106.7208099365234 C 8 111.6834259033203 12.03738403320312 115.7208099365234 17 115.7208099365234 L 108 115.7208099365234 C 112.9626159667969 115.7208099365234 117 111.6834259033203 117 106.7208099365234 L 117 17 C 117 12.03738403320312 112.9626159667969 8 108 8 L 17 8 M 17 0 L 108 0 C 117.3888320922852 0 125 7.611167907714844 125 17 L 125 106.7208099365234 C 125 116.1096420288086 117.3888320922852 123.7208099365234 108 123.7208099365234 L 17 123.7208099365234 C 7.611167907714844 123.7208099365234 0 116.1096420288086 0 106.7208099365234 L 0 17 C 0 7.611167907714844 7.611167907714844 0 17 0 Z" stroke="none" fill="#b2ebf2"/>
      </g>
      <rect id="Rectángulo_32716" data-name="Rectángulo 32716" width="148" height="86.721" rx="6" transform="translate(-14962 -3167.273)" fill="#f6f6f6"/>
      <g transform="matrix(1, 0, 0, 1, -14962, -3211.27)" filter="url(#Rectángulo_32715)">
        <rect id="Rectángulo_32715-2" data-name="Rectángulo 32715" width="98" height="100.721" rx="15" transform="translate(25 14)" fill="#70bdc6"/>
      </g>
      <g id="Grupo_79446" data-name="Grupo 79446" transform="translate(-14977.971 -4722.214)">
        <path id="Trazado_108989" data-name="Trazado 108989" d="M62.973,1593.972v-6.823q0-11.872,0-23.744c0-2.254,1.169-3.42,3.428-3.42,5.811,0,11.622-.009,17.433.015.555,0,.8-.174.857-.693a3.169,3.169,0,0,1,.087-.428,1.143,1.143,0,0,0-.538-1.526,2.657,2.657,0,0,1-1.1-1.571,12.385,12.385,0,0,1-.13-2.975.888.888,0,0,1,.951-.818c.309-.016.619,0,1.01,0v-.7q0-4,0-8c0-.975.334-1.3,1.323-1.3q3.718,0,7.436,0c.89,0,1.236.355,1.238,1.26q.005,4,0,8v.74c.359,0,.665-.014.97,0a.983.983,0,0,1,1.022,1.029c.021.708.038,1.418-.005,2.124a2.88,2.88,0,0,1-1.579,2.459.532.532,0,0,0-.322.631c.194,1.749.184,1.75,1.894,1.75l16.683,0a3.029,3.029,0,0,1,3.332,3.33q0,14.934,0,29.867v.8c.675,0,1.294-.007,1.913,0a2,2,0,0,1,2.083,2.086c.01,1.125.065,2.255-.029,3.373a4.959,4.959,0,0,1-5.014,4.534c-3.791.017-7.582.005-11.372,0l-40.114,0c-3.38,0-5.45-2.067-5.451-5.442,0-.833-.01-1.666,0-2.5a1.986,1.986,0,0,1,2.048-2.054C61.647,1593.962,62.269,1593.972,62.973,1593.972Zm47.958-27.95H99.547c.59.97.566,1.175-.174,2q-4.159,4.619-8.315,9.242c-.868.965-1.312.967-2.17.012q-4.114-4.576-8.226-9.154a2.274,2.274,0,0,1-.639-.962,3.045,3.045,0,0,1,.266-1.138H69.017v23.925h41.913Zm8.019,30a1.582,1.582,0,0,0-.238-.047q-10.871,0-21.742.013a.833.833,0,0,0-.581.4c-.5.934-.967,1.888-1.427,2.844a1.187,1.187,0,0,1-1.184.739q-3.811-.015-7.622,0a1.18,1.18,0,0,1-1.18-.741c-.431-.9-.914-1.776-1.322-2.686a.867.867,0,0,0-.936-.593q-10.527.029-21.055.013h-.689c0,.921,0,1.752,0,2.583,0,2.242,1.18,3.415,3.435,3.415h39.985q5.717,0,11.433,0a2.98,2.98,0,0,0,3.111-2.785C119,1598.145,118.95,1597.1,118.95,1596.021Zm-53.977-2.084h49.962c.008-.151.021-.272.021-.393q0-15.181,0-30.362c0-.864-.376-1.2-1.3-1.2q-8.371,0-16.743,0c-.176,0-.351.016-.648.03.383.525.714.945,1.008,1.392a1.243,1.243,0,0,0,1.187.589c4.352-.027,8.7-.016,13.057-.013,1.151,0,1.436.292,1.436,1.439q0,12.557,0,25.115c0,1.148-.291,1.44-1.436,1.44H68.417c-1.153,0-1.445-.288-1.445-1.429q0-12.558,0-25.115c0-1.158.285-1.448,1.424-1.449q6.591,0,13.182,0c.22,0,.532.021.643-.1.495-.566.932-1.183,1.474-1.891h-.8l-16.556,0c-1.056,0-1.359.308-1.359,1.384q0,14.9,0,29.8Zm23.994-19.571c0-1.757-.015-3.333.01-4.91a.854.854,0,0,0-.51-.917,2.927,2.927,0,0,1-1.436-3.187,3,3,0,0,1,5.676-.6,2.716,2.716,0,0,1-.8,3.425,2.063,2.063,0,0,0-.949,2.208c.034,1.1.006,2.207.009,3.31,0,.174.02.347.038.631l6.659-7.4c-2.4-2.569-4.416-5.292-4.639-8.913H86.894c-.207,3.655-2.259,6.36-4.623,8.914Zm3.955-22.411v-7.92H87v7.92ZM84.974,1554c0,.366-.017.676,0,.984a.966.966,0,0,0,1,.985q3.99.024,7.979,0a.965.965,0,0,0,1-.979c.022-.323,0-.648,0-.99Zm9.349,42.005H85.607c.307.614.563,1.179.874,1.712a.667.667,0,0,0,.5.237q3,.026,5.991,0a.61.61,0,0,0,.463-.2C93.748,1597.208,94.015,1596.628,94.323,1596.008Zm-4.353-31.027a1,1,0,1,0,.992.984A1,1,0,0,0,89.969,1564.981Z" transform="translate(0)" fill="#fff"/>
        <path id="Trazado_108990" data-name="Trazado 108990" d="M111.253,1626.388c4.084-1.185,6.892-5.1,7.338-10.274h1.985a13.169,13.169,0,0,1-5.987,10.921h5.977c0-.32-.012-.624,0-.928a.976.976,0,0,1,1.013-1.037q2-.029,4,.005a.948.948,0,0,1,.977,1q.031,1.968,0,3.936c-.01.68-.413,1.038-1.134,1.044q-1.844.016-3.687,0c-.807-.007-1.156-.376-1.17-1.2,0-.245,0-.49,0-.792h-1.851c-2.249,0-4.5.008-6.748-.013a.636.636,0,0,0-.714.49,3.924,3.924,0,0,1-3.685,2.516,4.027,4.027,0,0,1-3.709-2.5c-.085-.2-.328-.47-.5-.471-2.894-.029-5.788-.021-8.784-.021,0,.3.006.585,0,.864a1.015,1.015,0,0,1-1.113,1.134c-1.249.013-2.5.01-3.749,0a1,1,0,0,1-1.135-1.109q-.021-1.906,0-3.811a.99.99,0,0,1,1.1-1.073c1.187-.011,2.374,0,3.561,0,1.011,0,1.324.323,1.331,1.355,0,.186,0,.371,0,.6h5.951a13.209,13.209,0,0,1-5.968-10.91h2a11.1,11.1,0,0,0,2.888,7.366,10.518,10.518,0,0,0,4.428,2.916C106.185,1623.231,109.052,1623.228,111.253,1626.388Zm-3.658,3.672a2,2,0,1,0-2.021-1.958A2,2,0,0,0,107.6,1630.06Zm-15.062-1.025v-1.922H90.607v1.922Zm31.99,0v-1.922H122.6v1.922Z" transform="translate(-17.605 -44.091)" fill="#fff"/>
      </g>
    </g>
  </g>
</svg>
