<svg xmlns="http://www.w3.org/2000/svg" width="461" height="364" viewBox="0 0 461 364">
  <g id="Grupo_73870" data-name="Grupo 73870" transform="translate(-223 -2732)">
    <rect id="Rectángulo_31956" data-name="Rectángulo 31956" width="461" height="364" transform="translate(223 2732)" fill="none"/>
    <g id="Grupo_78808" data-name="Grupo 78808" transform="translate(-14.937 2620.88)">
      <path id="Trazado_133379" data-name="Trazado 133379" d="M269.994,425.139s-31.694-39-16.028-114.326c9.853-47.38,51.244-70.853,106.729-68.612,19.073.77,50.106-22.186,94.693-50.386,95.375-60.32,233.336-34.7,200.317,100.979-15.979,65.66,50.26,66.712,17.339,132.346Z" transform="translate(0 0)" fill="#ebf3fa"/>
      <path id="Trazado_133380" data-name="Trazado 133380" d="M2223.845,460.682c-.145-9.577-15.976-10.626-15.976-10.626s-14.258,13.064-17.339,12.677,10.009-13.55,10.009-13.55c-5.643-2.033-22.194,1.3-22.194,1.3s-3.725,18.528-6.615,17.395,4.135-16.238,4.135-16.238c-6.027.254-12.916,5.456-12.916,5.456-9.241,8.975,2.76,20.379,2.76,20.379a30.725,30.725,0,0,1-7.2,12.674h0a22.3,22.3,0,0,0-2.708,3.174l1.527.389q.344-.566.716-1.079a.01.01,0,0,1,0-.006l.011-.015c.165-.209.4-.507.692-.868h0v0c.7-.794,1.186-1.389,1.509-1.825l0,0c2.127-2.51,5.091-5.731,6.633-6.173a3.067,3.067,0,0,1-.148-.783c.047.25.1.51.148.783,1.188,6.265,14.014,10.525,21.674,10.885s5.009-2.5,1.938-6.831-11.507-5.543-13.6-7.467,1.785-2.328,6.543-.719,5.948,7.08,13.6,9.822,17.376-10.481,17.376-10.481c-5.84.3-14.786-5.156-14.683-7.118s14.426,1.885,16.808,1.9S2223.991,470.259,2223.845,460.682Z" transform="translate(-1601.049 -241.473)" fill="#dfebfd"/>
      <path id="Trazado_133381" data-name="Trazado 133381" d="M2064.357,829.608c7.451-12.6-12.349-26.6-12.349-26.6s-29.008,5.656-32.716,2.693,23.857-9.678,23.857-9.678c-5.734-7.153-29.973-16.005-29.973-16.005s-19.637,21.183-22.5,17.4,18.344-17.869,18.344-17.869c-8.06-4.477-21.19-3.192-21.19-3.192-19.208,4.327-12.659,28.768-12.659,28.768a46.956,46.956,0,0,1-19.5,10.776h0a34.066,34.066,0,0,0-6.062,1.978l1.68,1.724q.9-.465,1.795-.836a.014.014,0,0,1,.011,0l.026-.01c.382-.142.926-.341,1.594-.58h.006c1.545-.478,2.653-.864,3.423-1.175l.007,0c4.775-1.575,11.209-3.41,13.571-2.755a4.673,4.673,0,0,1,.432-1.14l-.432,1.14c-3.45,9.114,9.873,24.9,19.57,31.481s8.525.736,7.976-7.358-10.578-16.406-11.772-20.585,4.184-1.61,9.1,4.283,2.106,13.974,9.89,23.652,31.013.2,31.013.2c-7.854-4.266-15.16-18.517-13.463-20.993s17.3,13.966,20.4,15.88S2056.906,842.208,2064.357,829.608Z" transform="translate(-1427.863 -516.681)" fill="#cde0fb"/>
      <path id="Trazado_133382" data-name="Trazado 133382" d="M981.477,790.978c4.418-9.073,19.993-3,19.993-3s7.766,18.837,10.879,19.844-3.495-17.4-3.495-17.4c6.293.582,20.594,11.163,20.594,11.163s-4.726,19.344-1.461,19.554S1031.3,803.8,1031.3,803.8c5.637,2.936,9.886,10.978,9.886,10.978,4.807,12.694-11.741,18.211-11.741,18.211a32.377,32.377,0,0,0,1.208,15.312h0a23.484,23.484,0,0,1,1.165,4.239l-1.63-.311c-.05-.463-.116-.913-.2-1.35a.01.01,0,0,0,0-.008l0-.019c-.064-.273-.156-.662-.272-1.137v0s0,0,0,0c-.312-1.07-.511-1.855-.624-2.415a.016.016,0,0,1,0-.005c-.908-3.345-2.3-7.744-3.571-8.854a3.211,3.211,0,0,0,.492-.681l-.492.681c-3.932,5.447-18.076,3.78-25.545.7s-3.662-4.624,1.2-7.384,13.457-.147,16.314-1.047-.663-3.019-5.922-3.61-8.839,4.1-17.363,3.3-11.9-17.766-11.9-17.766c5.438,2.9,16.412,1.687,17.191-.23s-14.607-4.648-16.885-5.7S977.059,800.051,981.477,790.978Z" transform="translate(-612.871 -524.915)" fill="#cde0fb"/>
      <g id="Grupo_78809" data-name="Grupo 78809" transform="translate(591.638 342.979)">
        <g id="Grupo_78808-2" data-name="Grupo 78808" transform="translate(0)">
          <path id="Trazado_133383" data-name="Trazado 133383" d="M2423.192,1406.06l-16.842-.005-8.909,0a6.306,6.306,0,0,1-6.284-6.291l.02-62.234a6.3,6.3,0,0,1,6.288-6.284l7.9,0,17.85,0a6.3,6.3,0,0,1,6.284,6.289l-.018,62.234A6.307,6.307,0,0,1,2423.192,1406.06Z" transform="translate(-2390.369 -1325.867)" fill="#c0d8fb" opacity="0.5"/>
          <path id="Trazado_133384" data-name="Trazado 133384" d="M2434.445,1555.561l-.447-3.276h0l-.447-3.276a3.079,3.079,0,0,0-3.456-2.626c-.093.013-.183.031-.272.051a3.037,3.037,0,0,0,.528-1.451,3.067,3.067,0,0,0,5.814-1.893l-.77-3.215h0l-.77-3.216a3.069,3.069,0,1,0-5.969,1.428l1.159,4.845a3.037,3.037,0,0,0-2.421-1.3,8.406,8.406,0,0,0-.638-6.473l-5.1-4.213a3.068,3.068,0,0,0-4.183,4.474,3.033,3.033,0,0,0-.817.105l-3.19.873h0l-3.188.872a3.073,3.073,0,0,0-2.169,2.236l-.335-.8h0l-1.274-3.05a3.069,3.069,0,0,0-5.664,2.366l1.274,3.05h0l.817,1.955a3.078,3.078,0,0,0-1.939,2.7l-.167,3.3h0l-.167,3.3a3.058,3.058,0,0,0,3.946,3.09,3.094,3.094,0,0,0-.244,2.074,3.044,3.044,0,0,0-1.3,1.478l-1.263,3.055h0l-1.263,3.056a11.118,11.118,0,0,1,6.046,4.482,3.077,3.077,0,0,0,4.3-.572l2.009-2.625h0l2.011-2.626a2,2,0,0,1,2.592-1.692l.527-.363-.729.953h0l-2.01,2.625a3.069,3.069,0,0,0,4.874,3.731l2.009-2.625h0l2.01-2.626c.026-.034.047-.069.072-.1a3.054,3.054,0,0,0,.588.692l-.716.935a3.069,3.069,0,0,0,4.875,3.731l4.02-5.251a3.079,3.079,0,0,0-.572-4.3,3.025,3.025,0,0,0-.733-.412c.038,0,.075,0,.112-.009A3.078,3.078,0,0,0,2434.445,1555.561Zm-27.657-2.929.058-1.126a2.944,2.944,0,0,0,1.142,1.11l-1.406.97A3.029,3.029,0,0,0,2406.788,1552.632Zm20.682-2.794.6,4.405a3.075,3.075,0,0,0-3.186-1.688,3.039,3.039,0,0,0,.836-.748l1.725-2.254C2427.449,1549.648,2427.457,1549.743,2427.47,1549.838Zm-6.98-11.9.773.639-.8.549A3.045,3.045,0,0,0,2420.489,1537.939Zm.667,9.732a.827.827,0,0,1,.117-1.644l2.418-1.668Zm2.007,5.743a3.09,3.09,0,0,0-2.313-.7l.065-.826a1.576,1.576,0,1,1,2.248,1.524Zm-6.183-11.615a3.077,3.077,0,0,0,.023,3.445c.013.019.028.036.042.055a.674.674,0,1,1-.509-1.016,3.061,3.061,0,0,0-1.173-2.033l-.009-.006Zm-3.055,7.38,1.184-1.546c-.017.1-.03.192-.038.291l-.225,2.839a3.073,3.073,0,0,0-1.559-.751l.638-.833Zm-5.541,12.972.347-.841a3.048,3.048,0,0,0,.147-1.867c.069-.04.14-.082.208-.128l5.443-3.754c.035-.024.066-.052.1-.077a3.088,3.088,0,0,0,.346.84l-.969.668a4.639,4.639,0,0,1-3.981,3.013Zm14.44-3.783.17.71a3.058,3.058,0,0,0-.85-.241Zm6.483.717-.237-.989h0l-.045-.188a.778.778,0,1,1,.282,1.177Zm-18.59-15.812-1.666,2.176h0l-2.009,2.625c-.009.012-.017.025-.025.037l.105-2.081c0-.053,0-.106,0-.159.095-.029.188-.062.282-.1a2.1,2.1,0,0,1,3.313-2.5Z" transform="translate(-2398.05 -1493.012)" fill="#afcdfb"/>
          <path id="Trazado_133385" data-name="Trazado 133385" d="M2406.35,1406.054l-8.909,0a6.306,6.306,0,0,1-6.284-6.291l.02-62.234a6.3,6.3,0,0,1,6.288-6.284l7.9,0a7.7,7.7,0,0,1,1.031,3.887l-.021,70.293Q2406.375,1405.744,2406.35,1406.054Z" transform="translate(-2390.369 -1325.867)" fill="#afcdfb" opacity="0.5"/>
          <path id="Trazado_133386" data-name="Trazado 133386" d="M2424.953,1305.977l-23.92-.007-13.576,0a1.224,1.224,0,0,1-1.222-1.223l0-5.861a1.226,1.226,0,0,1,1.223-1.222l13.557,0h0l23.936.007a1.226,1.226,0,0,1,1.222,1.223l0,5.861A1.226,1.226,0,0,1,2424.953,1305.977Z" transform="translate(-2386.236 -1297.659)" fill="#f99746"/>
          <path id="Trazado_133387" data-name="Trazado 133387" d="M2401.034,1305.97l-13.576,0a1.224,1.224,0,0,1-1.222-1.223l0-5.861a1.226,1.226,0,0,1,1.223-1.222l13.557,0h0a1.226,1.226,0,0,1,1.219,1.223l0,5.861A1.226,1.226,0,0,1,2401.034,1305.97Z" transform="translate(-2386.236 -1297.659)" fill="#ef7e29"/>
        </g>
      </g>
      <g id="Grupo_78810" data-name="Grupo 78810" transform="translate(400.719 184.671)">
        <rect id="Rectángulo_34137" data-name="Rectángulo 34137" width="177.63" height="238.645" fill="#abddda"/>
        <rect id="Rectángulo_34138" data-name="Rectángulo 34138" width="158.748" height="220.204" transform="translate(10.417 7.735)" fill="#fff"/>
        <path id="Trazado_133388" data-name="Trazado 133388" d="M1552.233,308.7v8.084a8.08,8.08,0,0,0,8.076,8.084h43.382a8.08,8.08,0,0,0,8.076-8.084V308.7Z" transform="translate(-1494.818 -308.699)" fill="#f99746"/>
      </g>
      <g id="Grupo_78835" data-name="Grupo 78835" transform="translate(430.099 223.432)">
        <g id="Grupo_78811" data-name="Grupo 78811" transform="translate(12.635 0)">
          <path id="Trazado_133389" data-name="Trazado 133389" d="M1458.285,562.176h-2.254V551.739h2.254Z" transform="translate(-1456.031 -551.596)" fill="#abddda"/>
          <path id="Trazado_133390" data-name="Trazado 133390" d="M1501.672,562.176h-2.254l-4.388-6.867v6.867h-2.254V551.739h2.254l4.4,6.881v-6.881h2.247Z" transform="translate(-1486.894 -551.596)" fill="#abddda"/>
          <path id="Trazado_133391" data-name="Trazado 133391" d="M1573.532,558.686a1.383,1.383,0,0,0-.083-.491.956.956,0,0,0-.319-.405,2.948,2.948,0,0,0-.654-.366,10.663,10.663,0,0,0-1.078-.38,13.569,13.569,0,0,1-1.417-.516,5.259,5.259,0,0,1-1.164-.677,3.056,3.056,0,0,1-.789-.9,2.364,2.364,0,0,1-.289-1.19,2.442,2.442,0,0,1,.3-1.193,2.732,2.732,0,0,1,.834-.921,4.188,4.188,0,0,1,1.277-.591,5.91,5.91,0,0,1,1.627-.211,5.356,5.356,0,0,1,1.653.24,3.848,3.848,0,0,1,1.27.67,2.987,2.987,0,0,1,.812,1.021,2.939,2.939,0,0,1,.285,1.294h-2.254a1.663,1.663,0,0,0-.109-.609,1.233,1.233,0,0,0-.334-.48,1.578,1.578,0,0,0-.563-.312,2.567,2.567,0,0,0-.8-.111,2.824,2.824,0,0,0-.77.093,1.6,1.6,0,0,0-.541.258,1.093,1.093,0,0,0-.323.387,1.058,1.058,0,0,0-.109.473,1.01,1.01,0,0,0,.552.864,6.4,6.4,0,0,0,1.619.649,10.977,10.977,0,0,1,1.574.588,4.707,4.707,0,0,1,1.134.731,2.8,2.8,0,0,1,.688.918,2.745,2.745,0,0,1,.233,1.154,2.6,2.6,0,0,1-.282,1.226,2.567,2.567,0,0,1-.8.907,3.869,3.869,0,0,1-1.251.566,6.3,6.3,0,0,1-1.634.2,6.6,6.6,0,0,1-1.082-.09,5.373,5.373,0,0,1-1.033-.276,4.567,4.567,0,0,1-.913-.466,3.307,3.307,0,0,1-.733-.66,2.931,2.931,0,0,1-.488-.864,3.1,3.1,0,0,1-.177-1.072h2.262a1.842,1.842,0,0,0,.158.8,1.38,1.38,0,0,0,.439.534,1.869,1.869,0,0,0,.68.3,3.911,3.911,0,0,0,.887.093,2.859,2.859,0,0,0,.759-.09,1.591,1.591,0,0,0,.534-.247.988.988,0,0,0,.312-.376A1.1,1.1,0,0,0,1573.532,558.686Z" transform="translate(-1549.573 -550.844)" fill="#abddda"/>
          <path id="Trazado_133392" data-name="Trazado 133392" d="M1646.7,551.739v6.888a3.806,3.806,0,0,1-.316,1.595,3.24,3.24,0,0,1-.872,1.158,3.744,3.744,0,0,1-1.326.7,6.1,6.1,0,0,1-3.366,0,3.745,3.745,0,0,1-1.326-.7,3.2,3.2,0,0,1-.868-1.158,3.843,3.843,0,0,1-.312-1.595v-6.888h2.254v6.888a1.933,1.933,0,0,0,.515,1.495,2.393,2.393,0,0,0,2.848,0,1.949,1.949,0,0,0,.507-1.495v-6.888Z" transform="translate(-1609.137 -551.596)" fill="#abddda"/>
          <path id="Trazado_133393" data-name="Trazado 133393" d="M1715.911,558.355h-1.8v3.821h-2.254V551.739h4.065a6.48,6.48,0,0,1,1.7.2,3.623,3.623,0,0,1,1.27.6,2.657,2.657,0,0,1,.8.986,3.151,3.151,0,0,1,.278,1.362,3.6,3.6,0,0,1-.135,1.029,2.677,2.677,0,0,1-.39.81,2.794,2.794,0,0,1-.616.62,4.083,4.083,0,0,1-.812.459l2.367,4.265v.1h-2.419Zm-1.8-1.742h1.818a2.466,2.466,0,0,0,.777-.111,1.508,1.508,0,0,0,.556-.315,1.318,1.318,0,0,0,.334-.487,1.7,1.7,0,0,0,.113-.634,1.535,1.535,0,0,0-.44-1.161,1.882,1.882,0,0,0-1.349-.423h-1.811Z" transform="translate(-1670.909 -551.596)" fill="#abddda"/>
          <path id="Trazado_133394" data-name="Trazado 133394" d="M1784.153,560.025H1780.2l-.751,2.151h-2.4l4.072-10.437h2.089l4.1,10.437h-2.4Zm-3.344-1.742h2.735l-1.375-3.906Z" transform="translate(-1725.664 -551.596)" fill="#abddda"/>
          <path id="Trazado_133395" data-name="Trazado 133395" d="M1866.017,562.176h-2.254l-4.388-6.867v6.867h-2.254V551.739h2.254l4.4,6.881v-6.881h2.247Z" transform="translate(-1792.915 -551.596)" fill="#abddda"/>
          <path id="Trazado_133396" data-name="Trazado 133396" d="M1941.461,557.948a4.12,4.12,0,0,1-.376,1.462,3.413,3.413,0,0,1-.872,1.143,4.035,4.035,0,0,1-1.349.745,5.619,5.619,0,0,1-1.807.269,4.892,4.892,0,0,1-1.89-.348,3.859,3.859,0,0,1-1.42-1,4.487,4.487,0,0,1-.894-1.581,6.52,6.52,0,0,1-.312-2.082v-.688a6.335,6.335,0,0,1,.323-2.086,4.543,4.543,0,0,1,.913-1.584,3.953,3.953,0,0,1,1.431-1,4.832,4.832,0,0,1,1.878-.351,5.44,5.44,0,0,1,1.807.276,3.931,3.931,0,0,1,1.333.767,3.492,3.492,0,0,1,.857,1.169,4.715,4.715,0,0,1,.391,1.473h-2.254a3.122,3.122,0,0,0-.169-.824,1.612,1.612,0,0,0-.38-.6,1.587,1.587,0,0,0-.639-.369,3.126,3.126,0,0,0-.947-.125,1.943,1.943,0,0,0-1.7.792,4.294,4.294,0,0,0-.56,2.455v.7a7.157,7.157,0,0,0,.124,1.419,2.918,2.918,0,0,0,.391,1.018,1.693,1.693,0,0,0,.691.613,2.351,2.351,0,0,0,1.026.2,3.258,3.258,0,0,0,.92-.115,1.657,1.657,0,0,0,.646-.348,1.566,1.566,0,0,0,.4-.584,2.766,2.766,0,0,0,.18-.817Z" transform="translate(-1856.264 -550.844)" fill="#abddda"/>
          <path id="Trazado_133397" data-name="Trazado 133397" d="M2013.7,557.653h-4.328v2.8h5.079v1.728h-7.333V551.739h7.318v1.742h-5.064v2.487h4.328Z" transform="translate(-1918.904 -551.596)" fill="#abddda"/>
        </g>
        <g id="Grupo_78812" data-name="Grupo 78812" transform="translate(55.012 162.842)">
          <path id="Trazado_133398" data-name="Trazado 133398" d="M1732.334,1584.451a18.681,18.681,0,0,1-6.906,1.081c-2.945-.245-4.6-1.788-4.668-4.344a6.557,6.557,0,0,1,2.439-5.245q-.024-.207-.039-.416c-.108-1.43.2-2.38.908-2.824,1.15-.717,2.858.264,2.93.306l-.382.653c-.383-.223-1.52-.713-2.149-.317-.542.34-.607,1.275-.56,2.036a16.062,16.062,0,0,1,5.235-2.343,28.1,28.1,0,0,1,4.932-.843c.008-.178.023-.338.043-.468.052-.351.174-.762.519-.844a.569.569,0,0,1,.61.319,1.819,1.819,0,0,1,.232.919c.548-.013,1.057,0,1.508.03l.013-.029a8.657,8.657,0,0,1,.116-2.634c.192-.875.506-1.318.946-1.361a.578.578,0,0,1,.6.371c.247.593-.215,2.2-.884,3.736a.031.031,0,0,0,0,.008c.627.106,1.052.279,1.186.522a.565.565,0,0,1-.152.709.893.893,0,0,1-1.106.237,1.083,1.083,0,0,1-.4-.464,7.912,7.912,0,0,1-1.491,2.219.745.745,0,0,1-.88.128.81.81,0,0,1-.191-.153,10.389,10.389,0,0,1-.576,1.192c-.791,1.389-1.682,2.1-2.576,2.06a1.455,1.455,0,0,1-.965-.427,14.022,14.022,0,0,1-1.735,2.853,2.031,2.031,0,0,1-2.259.8c-1.467-.458-2.794-2.581-3.291-5.1a5.671,5.671,0,0,0-1.821,4.343c.056,2.181,1.394,3.395,3.975,3.61,6.515.542,17.938-5.514,18.8-9.971h0C1743.589,1578.431,1738.169,1582.56,1732.334,1584.451Zm-8.333-8.205c.4,2.653,1.725,4.6,2.852,4.954a1.289,1.289,0,0,0,1.446-.555,13.018,13.018,0,0,0,1.821-3.113,4.617,4.617,0,0,1-.315-.987,7.106,7.106,0,0,1,0-2.9,19.108,19.108,0,0,0-3.566,1.241A11.709,11.709,0,0,0,1724,1576.245Zm6.954,1.241a.87.87,0,0,0,.666.453c.572.024,1.261-.586,1.885-1.68a9.972,9.972,0,0,0,.78-1.762,7.474,7.474,0,0,1-.212-1.538c-.838.067-1.752.181-2.693.351C1731.871,1574.265,1731.587,1575.879,1730.955,1577.486Zm4.12-2.976c.118.356.224.424.225.425a7.1,7.1,0,0,0,1.345-2.046c-.359-.014-.764-.016-1.2,0A9.2,9.2,0,0,1,1735.075,1574.51Zm-4.439-.972a5.788,5.788,0,0,0-.1,2.828C1730.919,1575.113,1731,1574.03,1730.636,1573.539Zm7.445-.483s0,0,0,0Zm-.112-3.881a4.728,4.728,0,0,0-.18.792A5.792,5.792,0,0,0,1737.97,1569.175Z" transform="translate(-1720.757 -1568.125)" fill="#f99746"/>
        </g>
        <g id="Grupo_78815" data-name="Grupo 78815" transform="translate(0 33.725)">
          <g id="Grupo_78813" data-name="Grupo 78813" transform="translate(0 4.923)">
            <path id="Trazado_133399" data-name="Trazado 133399" d="M1405.809,820.989H1377.1V792.278h28.711Zm-27.359-1.352h26.006V793.63h-26.006Z" transform="translate(-1377.098 -792.278)" fill="#abddda"/>
          </g>
          <g id="Grupo_78814" data-name="Grupo 78814" transform="translate(4.181)">
            <path id="Trazado_133400" data-name="Trazado 133400" d="M1414.1,789.388a2.029,2.029,0,0,1-1.563-.736l-8.86-10.718a2.028,2.028,0,1,1,3.127-2.585l7.026,8.5,12.711-21.334a2.029,2.029,0,1,1,3.485,2.077L1415.845,788.4a2.028,2.028,0,0,1-1.587.984C1414.206,789.386,1414.154,789.388,1414.1,789.388Z" transform="translate(-1403.215 -761.525)" fill="#f99746"/>
          </g>
        </g>
        <g id="Grupo_78818" data-name="Grupo 78818" transform="translate(0 78.37)">
          <g id="Grupo_78816" data-name="Grupo 78816" transform="translate(0 5.17)">
            <path id="Trazado_133401" data-name="Trazado 133401" d="M1405.809,1101.433H1377.1v-28.711h28.711Zm-27.359-1.352h26.006v-26.007h-26.006Z" transform="translate(-1377.098 -1072.722)" fill="#abddda"/>
          </g>
          <g id="Grupo_78817" data-name="Grupo 78817" transform="translate(4.181)">
            <path id="Trazado_133402" data-name="Trazado 133402" d="M1414.1,1068.286a2.029,2.029,0,0,1-1.563-.736l-8.86-10.718a2.028,2.028,0,1,1,3.127-2.585l7.026,8.5,12.711-21.334a2.028,2.028,0,0,1,3.485,2.077l-14.184,23.806a2.027,2.027,0,0,1-1.587.984C1414.206,1068.285,1414.154,1068.286,1414.1,1068.286Z" transform="translate(-1403.215 -1040.423)" fill="#f99746"/>
          </g>
        </g>
        <g id="Grupo_78821" data-name="Grupo 78821" transform="translate(0 121.91)">
          <g id="Grupo_78819" data-name="Grupo 78819" transform="translate(0 5.593)">
            <path id="Trazado_133403" data-name="Trazado 133403" d="M1405.809,1376.068H1377.1v-28.711h28.711Zm-27.359-1.352h26.006V1348.71h-26.006Z" transform="translate(-1377.098 -1347.357)" fill="#abddda"/>
          </g>
          <g id="Grupo_78820" data-name="Grupo 78820" transform="translate(4.181)">
            <path id="Trazado_133404" data-name="Trazado 133404" d="M1414.1,1340.282a2.029,2.029,0,0,1-1.563-.736l-8.86-10.718a2.028,2.028,0,0,1,3.127-2.585l7.026,8.5,12.711-21.334a2.029,2.029,0,1,1,3.485,2.077l-14.184,23.806a2.028,2.028,0,0,1-1.587.984C1414.206,1340.281,1414.154,1340.282,1414.1,1340.282Z" transform="translate(-1403.215 -1312.419)" fill="#f99746"/>
          </g>
        </g>
        <g id="Grupo_78825" data-name="Grupo 78825" transform="translate(48.061 45.347)" opacity="0.5">
          <g id="Grupo_78822" data-name="Grupo 78822">
            <rect id="Rectángulo_34139" data-name="Rectángulo 34139" width="37.438" height="2.801" fill="#abddda"/>
            <rect id="Rectángulo_34140" data-name="Rectángulo 34140" width="8.509" height="2.801" transform="translate(60.74)" fill="#abddda"/>
          </g>
          <g id="Grupo_78823" data-name="Grupo 78823" transform="translate(0 12.512)">
            <rect id="Rectángulo_34141" data-name="Rectángulo 34141" width="37.438" height="2.801" fill="#abddda"/>
            <rect id="Rectángulo_34142" data-name="Rectángulo 34142" width="12.686" height="2.801" transform="translate(56.564)" fill="#abddda"/>
          </g>
          <g id="Grupo_78824" data-name="Grupo 78824" transform="translate(0 6.256)">
            <rect id="Rectángulo_34143" data-name="Rectángulo 34143" width="10.427" height="2.801" transform="translate(58.822)" fill="#abddda"/>
            <rect id="Rectángulo_34144" data-name="Rectángulo 34144" width="10.427" height="2.801" transform="translate(27.659)" fill="#abddda"/>
            <rect id="Rectángulo_34145" data-name="Rectángulo 34145" width="23.169" height="2.801" fill="#abddda"/>
          </g>
        </g>
        <g id="Grupo_78829" data-name="Grupo 78829" transform="translate(48.061 88.463)" opacity="0.5">
          <g id="Grupo_78826" data-name="Grupo 78826">
            <rect id="Rectángulo_34146" data-name="Rectángulo 34146" width="36.009" height="2.801" fill="#abddda"/>
          </g>
          <g id="Grupo_78827" data-name="Grupo 78827" transform="translate(0 12.512)">
            <rect id="Rectángulo_34147" data-name="Rectángulo 34147" width="37.438" height="2.801" fill="#abddda"/>
          </g>
          <g id="Grupo_78828" data-name="Grupo 78828" transform="translate(0 6.256)">
            <rect id="Rectángulo_34148" data-name="Rectángulo 34148" width="9.689" height="2.801" transform="translate(25.854)" fill="#abddda"/>
            <rect id="Rectángulo_34149" data-name="Rectángulo 34149" width="23.169" height="2.801" fill="#abddda"/>
          </g>
        </g>
        <g id="Grupo_78833" data-name="Grupo 78833" transform="translate(48.061 132.801)" opacity="0.5">
          <g id="Grupo_78830" data-name="Grupo 78830">
            <rect id="Rectángulo_34150" data-name="Rectángulo 34150" width="37.438" height="2.801" fill="#abddda"/>
          </g>
          <g id="Grupo_78831" data-name="Grupo 78831" transform="translate(0 12.512)">
            <rect id="Rectángulo_34151" data-name="Rectángulo 34151" width="37.438" height="2.801" fill="#abddda"/>
          </g>
          <g id="Grupo_78832" data-name="Grupo 78832" transform="translate(0 6.256)">
            <rect id="Rectángulo_34152" data-name="Rectángulo 34152" width="16.281" height="2.801" transform="translate(25.854)" fill="#abddda"/>
            <rect id="Rectángulo_34153" data-name="Rectángulo 34153" width="23.169" height="2.801" fill="#abddda"/>
          </g>
        </g>
        <g id="Grupo_78834" data-name="Grupo 78834" transform="translate(0 171.562)">
          <rect id="Rectángulo_34154" data-name="Rectángulo 34154" width="19.641" height="1.988" fill="#abddda"/>
          <rect id="Rectángulo_34155" data-name="Rectángulo 34155" width="19.641" height="1.988" transform="translate(24.19)" fill="#abddda"/>
          <rect id="Rectángulo_34156" data-name="Rectángulo 34156" width="27.239" height="1.988" transform="translate(0 4.411)" fill="#abddda"/>
        </g>
      </g>
      <g id="Grupo_78844" data-name="Grupo 78844" transform="translate(295.27 283.236)">
        <g id="Grupo_78839" data-name="Grupo 78839" transform="translate(9.456)">
          <g id="Grupo_78838" data-name="Grupo 78838">
            <g id="Grupo_78837" data-name="Grupo 78837">
              <path id="Trazado_133405" data-name="Trazado 133405" d="M650.022,932.1v68.656a7.683,7.683,0,0,1-7.661,7.661H601.553a7.574,7.574,0,0,1-3.075-.649,7.687,7.687,0,0,1-4.586-7.012V932.1a7.683,7.683,0,0,1,7.661-7.661h40.808A7.682,7.682,0,0,1,650.022,932.1Z" transform="translate(-593.892 -924.44)" fill="#fcecdb"/>
              <path id="Trazado_133406" data-name="Trazado 133406" d="M803.222,1000.993a8.339,8.339,0,1,1,10.738-4.875A8.338,8.338,0,0,1,803.222,1000.993Z" transform="translate(-765.169 -975.176)" fill="#f7e0cb"/>
              <path id="Trazado_133407" data-name="Trazado 133407" d="M816.765,996.118l-15.614-5.863a8.339,8.339,0,0,1,15.614,5.863Z" transform="translate(-767.974 -975.176)" fill="#efcbab"/>
              <path id="Trazado_133408" data-name="Trazado 133408" d="M639.475,999.656a8.339,8.339,0,1,1,11.733-1.187A8.339,8.339,0,0,1,639.475,999.656Z" transform="translate(-629.603 -975.186)" fill="#f7e0cb"/>
              <path id="Trazado_133409" data-name="Trazado 133409" d="M661.071,998.47l-12.92-10.547a8.339,8.339,0,1,1,12.92,10.547Z" transform="translate(-639.465 -975.186)" fill="#efcbab"/>
              <path id="Trazado_133410" data-name="Trazado 133410" d="M803.222,1318.779a8.339,8.339,0,1,1,10.738-4.875A8.338,8.338,0,0,1,803.222,1318.779Z" transform="translate(-765.169 -1242.091)" fill="#f7e0cb"/>
              <path id="Trazado_133411" data-name="Trazado 133411" d="M816.765,1317.443l-15.614-5.863a8.339,8.339,0,0,1,15.614,5.863Z" transform="translate(-767.974 -1245.065)" fill="#efcbab"/>
              <circle id="Elipse_4867" data-name="Elipse 4867" cx="8.339" cy="8.339" r="8.339" transform="matrix(0.919, -0.394, 0.394, 0.919, 4.197, 64.497)" fill="#f7e0cb"/>
              <path id="Trazado_133412" data-name="Trazado 133412" d="M661.071,1319.8l-12.92-10.547a8.339,8.339,0,0,1,12.92,10.547Z" transform="translate(-639.465 -1245.075)" fill="#efcbab"/>
              <g id="Grupo_78836" data-name="Grupo 78836" transform="translate(32.643 36.052)">
                <path id="Trazado_133413" data-name="Trazado 133413" d="M809.726,1165.534a8.339,8.339,0,1,1,3.964-11.107A8.339,8.339,0,0,1,809.726,1165.534Z" transform="translate(-797.814 -1149.657)" fill="#f7e0cb"/>
                <path id="Trazado_133414" data-name="Trazado 133414" d="M813.69,1154.427l-15.071,7.143a8.339,8.339,0,0,1,15.071-7.143Z" transform="translate(-797.814 -1149.657)" fill="#efcbab"/>
              </g>
              <path id="Trazado_133415" data-name="Trazado 133415" d="M637,1154.9a8.339,8.339,0,1,1,4.643,10.841A8.339,8.339,0,0,1,637,1154.9Z" transform="translate(-629.595 -1113.602)" fill="#f7e0cb"/>
              <path id="Trazado_133416" data-name="Trazado 133416" d="M669.149,1168.882l6.2-15.484a8.339,8.339,0,1,1-6.2,15.484Z" transform="translate(-657.102 -1116.747)" fill="#efcbab"/>
            </g>
          </g>
          <path id="Trazado_133417" data-name="Trazado 133417" d="M697.061,1030.994v59.744a7.116,7.116,0,0,1-7.01,7.177H652.71a6.792,6.792,0,0,1-2.814-.608v-58.043a8.339,8.339,0,0,1,2.569-6.034,8.114,8.114,0,0,1,1.973-1.4,7.851,7.851,0,0,1,3.536-.84Z" transform="translate(-640.931 -1013.937)" fill="#efcbab" opacity="0.5"/>
        </g>
        <g id="Grupo_78842" data-name="Grupo 78842" transform="translate(19.754 17.442)">
          <g id="Grupo_78841" data-name="Grupo 78841" transform="translate(0 0)">
            <rect id="Rectángulo_34157" data-name="Rectángulo 34157" width="83.978" height="56.13" rx="28.065" transform="translate(56.13 0) rotate(90)" fill="#fcecdb"/>
            <path id="Trazado_133418" data-name="Trazado 133418" d="M867.553,1109.961a8.339,8.339,0,1,1,10.738-4.875A8.338,8.338,0,0,1,867.553,1109.961Z" transform="translate(-829.501 -1084.142)" fill="#f7e0cb"/>
            <path id="Trazado_133419" data-name="Trazado 133419" d="M881.1,1105.085l-15.614-5.863a8.339,8.339,0,1,1,15.614,5.863Z" transform="translate(-832.305 -1084.142)" fill="#efcbab"/>
            <path id="Trazado_133420" data-name="Trazado 133420" d="M703.807,1108.624a8.339,8.339,0,1,1,11.733-1.186A8.338,8.338,0,0,1,703.807,1108.624Z" transform="translate(-693.934 -1084.152)" fill="#f7e0cb"/>
            <path id="Trazado_133421" data-name="Trazado 133421" d="M725.4,1107.438l-12.92-10.547a8.339,8.339,0,1,1,12.92,10.547Z" transform="translate(-703.797 -1084.152)" fill="#efcbab"/>
            <path id="Trazado_133422" data-name="Trazado 133422" d="M867.553,1427.746a8.339,8.339,0,1,1,10.738-4.876A8.339,8.339,0,0,1,867.553,1427.746Z" transform="translate(-829.501 -1351.058)" fill="#f7e0cb"/>
            <path id="Trazado_133423" data-name="Trazado 133423" d="M881.1,1426.411l-15.614-5.863a8.339,8.339,0,1,1,15.614,5.863Z" transform="translate(-832.305 -1354.031)" fill="#efcbab"/>
            <path id="Trazado_133424" data-name="Trazado 133424" d="M703.807,1426.409a8.339,8.339,0,1,1,11.733-1.187A8.338,8.338,0,0,1,703.807,1426.409Z" transform="translate(-693.934 -1351.068)" fill="#f7e0cb"/>
            <path id="Trazado_133425" data-name="Trazado 133425" d="M725.4,1428.763l-12.92-10.547a8.339,8.339,0,0,1,12.92,10.547Z" transform="translate(-703.797 -1354.041)" fill="#efcbab"/>
            <g id="Grupo_78840" data-name="Grupo 78840" transform="translate(32.643 36.053)">
              <path id="Trazado_133426" data-name="Trazado 133426" d="M874.057,1274.5a8.339,8.339,0,1,1,3.964-11.107A8.339,8.339,0,0,1,874.057,1274.5Z" transform="translate(-862.145 -1258.625)" fill="#f7e0cb"/>
              <path id="Trazado_133427" data-name="Trazado 133427" d="M878.022,1263.395l-15.071,7.143a8.339,8.339,0,1,1,15.071-7.143Z" transform="translate(-862.145 -1258.625)" fill="#efcbab"/>
            </g>
            <circle id="Elipse_4868" data-name="Elipse 4868" cx="8.339" cy="8.339" r="8.339" transform="translate(3.883 40.897) rotate(-27.755)" fill="#f7e0cb"/>
            <path id="Trazado_133428" data-name="Trazado 133428" d="M733.48,1277.85l6.2-15.484a8.339,8.339,0,0,1-6.2,15.484Z" transform="translate(-721.433 -1225.715)" fill="#efcbab"/>
          </g>
        </g>
        <g id="Grupo_78843" data-name="Grupo 78843" transform="translate(0 44.828)">
          <rect id="Rectángulo_34158" data-name="Rectángulo 34158" width="64.093" height="95.651" transform="translate(5.475 0)" fill="#ef7e29"/>
          <rect id="Rectángulo_34159" data-name="Rectángulo 34159" width="64.093" height="95.651" transform="translate(14.403)" fill="#f99746"/>
          <path id="Trazado_133429" data-name="Trazado 133429" d="M577.947,1210.034l-3.072,4.777h-5.856v-10.327h8.927Z" transform="translate(-563.544 -1204.483)" fill="#d8661a"/>
          <path id="Trazado_133430" data-name="Trazado 133430" d="M543.745,1212.019h-8.927l5.475-7.535h8.927Z" transform="translate(-534.818 -1204.483)" fill="#f99746"/>
          <path id="Trazado_133431" data-name="Trazado 133431" d="M657.848,1323.308H624.791v-91.6l33.057,3.177Z" transform="translate(-610.388 -1227.352)" fill="#efcbab" opacity="0.5"/>
          <path id="Trazado_133432" data-name="Trazado 133432" d="M688.884,1212.016l-5.2,2.792h-55.8l-3.09-4.777v-5.551Z" transform="translate(-610.388 -1204.48)" fill="#ef7e29"/>
          <path id="Trazado_133433" data-name="Trazado 133433" d="M693.408,1212.019H629.315l-4.528-7.535H688.88Z" transform="translate(-610.385 -1204.483)" fill="#f99746"/>
        </g>
      </g>
      <g id="Grupo_78848" data-name="Grupo 78848" transform="translate(276.23 366.321)">
        <g id="Grupo_78847" data-name="Grupo 78847" transform="translate(0)">
          <g id="Grupo_78846" data-name="Grupo 78846">
            <rect id="Rectángulo_34160" data-name="Rectángulo 34160" width="84.465" height="57.263" rx="28.632" fill="#fcecdb"/>
            <path id="Trazado_133434" data-name="Trazado 133434" d="M492.875,1498.344a8.353,8.353,0,0,1-10.8,4.974,8.543,8.543,0,0,1-4.9-10.955,8.354,8.354,0,0,1,10.8-4.974A8.545,8.545,0,0,1,492.875,1498.344Z" transform="translate(-466.907 -1479.902)" fill="#f7e0cb"/>
            <path id="Trazado_133435" data-name="Trazado 133435" d="M487.971,1487.389l-5.9,15.929a8.543,8.543,0,0,1-4.9-10.955A8.354,8.354,0,0,1,487.971,1487.389Z" transform="translate(-466.907 -1479.902)" fill="#efcbab"/>
            <path id="Trazado_133436" data-name="Trazado 133436" d="M491.53,1665.418a8.306,8.306,0,0,1-11.8,1.21,8.591,8.591,0,0,1-1.193-11.971,8.308,8.308,0,0,1,11.8-1.21A8.592,8.592,0,0,1,491.53,1665.418Z" transform="translate(-466.917 -1618.226)" fill="#f7e0cb"/>
            <path id="Trazado_133437" data-name="Trazado 133437" d="M490.337,1653.448l-10.608,13.181a8.591,8.591,0,0,1-1.193-11.971A8.308,8.308,0,0,1,490.337,1653.448Z" transform="translate(-466.917 -1618.226)" fill="#efcbab"/>
            <path id="Trazado_133438" data-name="Trazado 133438" d="M812.5,1498.344a8.353,8.353,0,0,1-10.8,4.974,8.543,8.543,0,0,1-4.9-10.955,8.354,8.354,0,0,1,10.8-4.974A8.545,8.545,0,0,1,812.5,1498.344Z" transform="translate(-735.368 -1479.902)" fill="#f7e0cb"/>
            <path id="Trazado_133439" data-name="Trazado 133439" d="M807.609,1487.389l-5.9,15.929a8.543,8.543,0,0,1-4.9-10.955A8.354,8.354,0,0,1,807.609,1487.389Z" transform="translate(-735.379 -1479.902)" fill="#efcbab"/>
            <path id="Trazado_133440" data-name="Trazado 133440" d="M811.156,1665.414a8.3,8.3,0,0,1-11.425,1.5c-.128-.09-.252-.189-.376-.291a8.59,8.59,0,0,1-1.193-11.97,8.306,8.306,0,0,1,11.8-1.21c.122.1.24.2.356.313A8.593,8.593,0,0,1,811.156,1665.414Z" transform="translate(-735.379 -1618.223)" fill="#f7e0cb"/>
            <path id="Trazado_133441" data-name="Trazado 133441" d="M810.319,1653.757l-10.589,13.158c-.128-.09-.252-.189-.376-.291a8.59,8.59,0,0,1-1.193-11.97,8.306,8.306,0,0,1,11.8-1.21C810.085,1653.546,810.2,1653.648,810.319,1653.757Z" transform="translate(-735.379 -1618.223)" fill="#efcbab"/>
            <g id="Grupo_78845" data-name="Grupo 78845" transform="translate(36.261 6.942)">
              <path id="Trazado_133442" data-name="Trazado 133442" d="M658.368,1491.711a8.56,8.56,0,0,1-3.987,11.331A8.336,8.336,0,0,1,643.21,1499a8.562,8.562,0,0,1,3.987-11.331A8.337,8.337,0,0,1,658.368,1491.711Z" transform="translate(-642.4 -1486.845)" fill="#f7e0cb"/>
              <path id="Trazado_133443" data-name="Trazado 133443" d="M647.2,1491.977l7.184,15.375a8.336,8.336,0,0,1-11.171-4.044A8.562,8.562,0,0,1,647.2,1491.977Z" transform="translate(-642.4 -1491.156)" fill="#efcbab"/>
            </g>
            <path id="Trazado_133444" data-name="Trazado 133444" d="M647.669,1667.922a8.548,8.548,0,0,1-4.67-11.059,8.348,8.348,0,0,1,10.9-4.737,8.55,8.55,0,0,1,4.67,11.06A8.349,8.349,0,0,1,647.669,1667.922Z" transform="translate(-606.136 -1618.213)" fill="#f7e0cb"/>
            <path id="Trazado_133445" data-name="Trazado 133445" d="M661.737,1663.186l-15.574-6.322a8.348,8.348,0,0,1,10.9-4.737A8.549,8.549,0,0,1,661.737,1663.186Z" transform="translate(-609.299 -1618.213)" fill="#efcbab"/>
          </g>
        </g>
      </g>
      <g id="Grupo_78851" data-name="Grupo 78851" transform="translate(381.371 393.423)">
        <g id="Grupo_78849" data-name="Grupo 78849" transform="translate(25.992 16.573)">
          <path id="Trazado_133446" data-name="Trazado 133446" d="M1281.157,1723.166a6.881,6.881,0,0,1-6.857,6.857h-32.381a6.856,6.856,0,0,1,0-13.713H1274.3A6.877,6.877,0,0,1,1281.157,1723.166Z" transform="translate(-1235.064 -1716.311)" fill="#2b478b"/>
          <path id="Trazado_133447" data-name="Trazado 133447" d="M1264.453,1723.166a6.877,6.877,0,0,1-6.855,6.857h-15.679a6.856,6.856,0,0,1,0-13.713H1257.6A6.875,6.875,0,0,1,1264.453,1723.166Z" transform="translate(-1235.064 -1716.311)" fill="#699ff0"/>
          <rect id="Rectángulo_34161" data-name="Rectángulo 34161" width="32.83" height="2.162" rx="1.081" transform="translate(7.926 1.52)" fill="#e9f3fe" opacity="0.4"/>
        </g>
        <g id="Grupo_78850" data-name="Grupo 78850">
          <path id="Trazado_133448" data-name="Trazado 133448" d="M1117.144,1616.787a7.3,7.3,0,0,1-3.243,9.757l-30.691,15.38a7.269,7.269,0,0,1-6.513-13l30.691-15.38A7.291,7.291,0,0,1,1117.144,1616.787Z" transform="translate(-1072.689 -1612.781)" fill="#ef7e29"/>
          <path id="Trazado_133449" data-name="Trazado 133449" d="M1101.311,1666.347a7.291,7.291,0,0,1-3.24,9.755l-14.861,7.447a7.269,7.269,0,0,1-6.513-13l14.861-7.447A7.289,7.289,0,0,1,1101.311,1666.347Z" transform="translate(-1072.689 -1654.406)" fill="#f99746"/>
          <path id="Trazado_133450" data-name="Trazado 133450" d="M1141.651,1626.421l-29.275,14.671a1.033,1.033,0,0,1-1.383-.459l-.1-.208a1.033,1.033,0,0,1,.46-1.383l29.275-14.67a1.033,1.033,0,0,1,1.383.459l.1.208A1.033,1.033,0,0,1,1141.651,1626.421Z" transform="translate(-1104.683 -1622.425)" fill="#ffe2cc" opacity="0.5"/>
        </g>
      </g>
      <g id="Grupo_78856" data-name="Grupo 78856" transform="translate(462.657 263.432)">
        <g id="Grupo_78852" data-name="Grupo 78852" transform="translate(63.037 24.625)">
          <path id="Trazado_133451" data-name="Trazado 133451" d="M2168.2,1219.269s1.456,4.484,1.331,5.509a19.97,19.97,0,0,1-1.693,5.427c-.653.9-.975-3.653-1.492-4.337s-.106,1.713-.47,1.935-1.124-1.764-1.45-2.464.8-3.284.8-5.084S2168.2,1219.269,2168.2,1219.269Z" transform="translate(-2133.941 -1176.741)" fill="#ffb27d"/>
          <path id="Trazado_133452" data-name="Trazado 133452" d="M1974.3,961.472a6.366,6.366,0,0,1,9.592-5.993q.136.082.269.168c6.6,4.25,20.849,24.08,21.829,26.067s3.875,17.79,3.875,17.79-3.576,1.308-5.248-.049c0,0-5.8-14.988-6.657-15.737s-23.2-13.284-23.388-17.984C1974.523,964.491,1974.424,963,1974.3,961.472Z" transform="translate(-1974.283 -954.561)" fill="#233862"/>
        </g>
        <g id="Grupo_78853" data-name="Grupo 78853" transform="translate(0 22.64)">
          <rect id="Rectángulo_34162" data-name="Rectángulo 34162" width="5.906" height="29.711" transform="translate(7.494 15.948) rotate(-109.196)" fill="#f99746"/>
          <path id="Trazado_133453" data-name="Trazado 133453" d="M1580.489,1012l7.495.518-1.942-5.578Z" transform="translate(-1580.489 -996.573)" fill="#f9ddbf"/>
          <path id="Trazado_133454" data-name="Trazado 133454" d="M1794.368,943.476l.614,1.764a2.08,2.08,0,0,1-1.28,2.648l-1.3.452-1.942-5.578,1.411-.491A1.959,1.959,0,0,1,1794.368,943.476Z" transform="translate(-1756.851 -942.16)" fill="#f9ddbf"/>
        </g>
        <g id="Grupo_78854" data-name="Grupo 78854" transform="translate(54.617 70.61)">
          <path id="Trazado_133455" data-name="Trazado 133455" d="M2172.855,1716.779s2.662,2.429,2.143,4.156-2.922,2.877-3.246,4.987-1.623,3.26-2.792,3.26h-5.571s-.86-1.485,1.217-1.932,2.861-2.927,2.731-5.228a40.625,40.625,0,0,1,.195-5.37l4.416-1.023Z" transform="translate(-2124.55 -1639.785)" fill="#233862"/>
          <path id="Trazado_133456" data-name="Trazado 133456" d="M1937.334,1750.842s.478,5.529-.691,6.1l-14.957-.031s0-1.726,2.4-2.11,6.623-1.79,7.337-4.923S1937.334,1750.842,1937.334,1750.842Z" transform="translate(-1921.686 -1667.565)" fill="#233862"/>
          <path id="Trazado_133457" data-name="Trazado 133457" d="M1940.553,1267.138s.789,9.691,1.716,21.341c1.26,15.825,2.776,35.263,2.926,38.946.259,6.394,1.3,16.623,1.3,16.623s2.466,2.43,7.4,1.406a165.065,165.065,0,0,0,5.655-30.05c.02-.253.039-.508.059-.763,1.169-15.727,2.986-48.844,2.986-48.844Z" transform="translate(-1937.533 -1261.959)" fill="#f99746"/>
          <path id="Trazado_133458" data-name="Trazado 133458" d="M1940.553,1267.138s.789,9.691,1.716,21.341l17.281,26.924c.02-.253.039-.508.059-.763,1.169-15.727,2.986-48.844,2.986-48.844Z" transform="translate(-1937.533 -1261.959)" fill="#ef7e29"/>
          <path id="Trazado_133459" data-name="Trazado 133459" d="M1963.059,1248.161s14.219,35.1,23.569,51.593,12.271,21.1,12.271,21.1,5.356-2.11,5.843-3.548c0,0-3.575-31.843-9.836-39.605-3.538-4.386-7.694-17.549-7.889-22.152s-1.266-13.713-1.266-13.713Z" transform="translate(-1956.437 -1241.832)" fill="#f99746"/>
        </g>
        <path id="Trazado_133460" data-name="Trazado 133460" d="M1960.387,891.815s-9.527,4.832-15.107,3.22a13.092,13.092,0,0,1,3.694-3.078c-.214-1.109-.382-2.072-.484-2.89a26.839,26.839,0,0,1-.293-2.957l3.653-2.992,3.464-2.863A14.184,14.184,0,0,0,1960.387,891.815Z" transform="translate(-1886.886 -867.524)" fill="#ffb27d"/>
        <path id="Trazado_133461" data-name="Trazado 133461" d="M1944.639,985.913a39.26,39.26,0,0,1-11.75,5.062c-5.027,1.192-11.205.84-13.272,1.155a.858.858,0,0,1-.6-.153c-.162-.083-1.074-6.215-1.988-13.954-.041-.311-.083-.626-.1-.941l-.014-.1c-.355-3.025-.666-6.2-.937-9.389-.22-2.479-.4-4.93-.528-7.233-.158-2.88-.224-5.527-.158-7.7.029-.995.087-1.889.176-2.666a18.969,18.969,0,0,1,4.731-10.156l1.685-1.917a9.235,9.235,0,0,0,5.829-1.487c2.057-1.354,4.277-2.811,4.7-2.568,3.153,1.725,5.72,6.2,7.554,12.1a67.343,67.343,0,0,1,2.374,11.338c.166,1.267.307,2.567.415,3.862.021.24.039.479.058.715.247,3.539.651,6.856,1.1,9.818.6,4,1.289,7.341,1.774,9.7.243,1.2.429,2.127.539,2.792C1946.318,984.759,1945.157,985.59,1944.639,985.913Z" transform="translate(-1861.675 -912.525)" fill="#2b478b"/>
        <path id="Trazado_133462" data-name="Trazado 133462" d="M1970.742,898.28s-2.343,4.479-6.947,5.81a26.739,26.739,0,0,1-.293-2.956l3.653-2.992Z" transform="translate(-1902.191 -882.547)" fill="#ed985f"/>
        <path id="Trazado_133463" data-name="Trazado 133463" d="M1942.8,837.418s9.206,1.319,9.955-4.339,2.443-9.3-3.4-10.38-7.277.932-7.993,2.76S1940.424,836.929,1942.8,837.418Z" transform="translate(-1883.183 -818.926)" fill="#ffb27d"/>
        <path id="Trazado_133464" data-name="Trazado 133464" d="M1939.568,803.694c.081-.1.272-.178.7-.21a1.735,1.735,0,0,0-.8-.209A2.151,2.151,0,0,0,1938,801.4a1.283,1.283,0,0,1,.64.913c-1.209-1.194-3.767-2.029-10.788-1.335-9.254.915-6.081,6.789-4.867,7.472s4.2-1.316,6.435-1.182,2.728,3.355,3.5,3.783.453-.35,1.47-.834,1.148,1.214.874,2.325,1.164,2.542,1.164,2.542l1.394-1.563c1.395-1.563,2.608-8.088,1.933-9.461Z" transform="translate(-1866.881 -800.726)" fill="#2c3a64"/>
        <path id="Trazado_133465" data-name="Trazado 133465" d="M1931.439,1051.905s-7.762,5.906-15.99,7.2c-.158-2.88-.224-5.527-.158-7.7Z" transform="translate(-1861.675 -1011.274)" fill="#233862"/>
        <g id="Grupo_78855" data-name="Grupo 78855" transform="translate(13.596 26.584)">
          <path id="Trazado_133466" data-name="Trazado 133466" d="M1673.921,980.41c-.122-.132-1.705-5.423-4.442-5.037-1.786.252-4.7,1.285-3.93,3.638.3.925,5.746,4.112,5.746,4.112Z" transform="translate(-1665.421 -973.983)" fill="#ffb27d"/>
          <path id="Trazado_133467" data-name="Trazado 133467" d="M1751.557,969.432a6.366,6.366,0,0,1-.666,11.29c-.1.042-.195.083-.293.122-7.287,2.923-31.7,3.059-33.891,2.708s-16.749-7.14-16.749-7.14,1-3.673,3.079-4.251c0,0,15.578,3.948,16.686,3.682s24.262-11.224,28.2-8.659C1748.969,967.863,1750.244,968.646,1751.557,969.432Z" transform="translate(-1694.43 -966.796)" fill="#2b478b"/>
        </g>
      </g>
      <g id="Grupo_78857" data-name="Grupo 78857" transform="translate(616.993 413.251)">
        <path id="Trazado_133468" data-name="Trazado 133468" d="M2579.16,1741.782a5.155,5.155,0,0,1-5.137,5.137h-24.26a5.137,5.137,0,0,1,0-10.273h24.26A5.152,5.152,0,0,1,2579.16,1741.782Z" transform="translate(-2544.627 -1736.646)" fill="#ef7e29"/>
        <path id="Trazado_133469" data-name="Trazado 133469" d="M2566.646,1741.782a5.152,5.152,0,0,1-5.136,5.137h-11.747a5.137,5.137,0,0,1,0-10.273h11.747A5.151,5.151,0,0,1,2566.646,1741.782Z" transform="translate(-2544.627 -1736.646)" fill="#f99746"/>
        <path id="Rectángulo_34163" data-name="Rectángulo 34163" d="M.81,0H23.786a.81.81,0,0,1,.81.81v0a.81.81,0,0,1-.81.81H.81A.81.81,0,0,1,0,.81v0A.81.81,0,0,1,.81,0Z" transform="translate(5.938 1.139)" fill="#ffe2cc" opacity="0.5"/>
      </g>
      <rect id="Rectángulo_34164" data-name="Rectángulo 34164" width="436.525" height="1.823" rx="0.912" transform="translate(250.321 423.316)" fill="#2e3552"/>
    </g>
  </g>
</svg>
