<svg xmlns="http://www.w3.org/2000/svg" width="146.573" height="146.529" viewBox="0 0 146.573 146.529">
  <g id="Grupo_79482" data-name="Grupo 79482" transform="translate(-441.697 -3721.235)">
    <g id="Grupo_79012" data-name="Grupo 79012" transform="translate(441.697 3721.157)">
      <path id="Trazado_133621" data-name="Trazado 133621" d="M181.14,112.3a24.277,24.277,0,0,0,23.183-16.9l.057-.182A73.281,73.281,0,0,0,90.216,14.923l-.048.036a11.574,11.574,0,0,0-4.522,9.217V112.3Z" transform="translate(-61.128 0)" fill="#1565c0"/>
      <path id="Trazado_133622" data-name="Trazado 133622" d="M26.625,166.829q.589.487,1.188.962a5.94,5.94,0,0,1,.692-.042h90.346c.188-.15.377-.3.565-.45h0a73.373,73.373,0,0,0,23.827-35.062A73.253,73.253,0,0,1,74.9,142.985v0l-.565-.2v-.005a73.152,73.152,0,0,1-21.969-12.516h-.055A73.367,73.367,0,0,1,29.092,51.95,73.288,73.288,0,0,0,26.57,166.828Z" transform="translate(0 -37.022)" fill="#064791"/>
      <path id="Trazado_133623" data-name="Trazado 133623" d="M222.741,371.819v-.007c-.158-.1-.32-.19-.479-.286-.176-.107-.35-.219-.528-.324v.008A54.3,54.3,0,0,0,194,363.632h-.261a24.19,24.19,0,0,0-23.995,24.233v13.94a73.344,73.344,0,0,0,70.824-12.053,54.874,54.874,0,0,0-17.825-17.933Z" transform="translate(-121.149 -259.477)" fill="#05cdff"/>
      <path id="Trazado_133624" data-name="Trazado 133624" d="M140.219,330.026a24.663,24.663,0,0,0-23.528,14.437,54.51,54.51,0,0,0-4.962,2.554v-.007c-.1.061-.206.126-.311.188-.167.1-.338.194-.5.294v.01a54.873,54.873,0,0,0-18.026,17.753A73.154,73.154,0,0,0,115.455,378c.076-.616.16-1.228.256-1.837a4.529,4.529,0,0,1,7.413-2.749l.1.088a4.53,4.53,0,0,0,6.135-.259l6.72-6.719a4.536,4.536,0,0,1,6.416,0l6.592,6.592a4.53,4.53,0,0,0,6.171.222,24.664,24.664,0,0,0-15.043-43.314Z" transform="translate(-66.296 -235.476)" fill="#0091c8"/>
      <path id="Trazado_133625" data-name="Trazado 133625" d="M192.974,316.19a24.665,24.665,0,0,0-12.481,45.94L193.118,349.5l12.52,12.52a24.667,24.667,0,0,0-12.664-45.835Z" transform="translate(-120.125 -225.617)" fill="#fff"/>
      <g id="Grupo_78948" data-name="Grupo 78948" transform="translate(61.619 86.495)">
        <g id="Grupo_78947" data-name="Grupo 78947">
          <path id="Trazado_133626" data-name="Trazado 133626" d="M226.634,338.845a11.39,11.39,0,0,1-11.39-11.39V301.944h22.78v25.511A11.39,11.39,0,0,1,226.634,338.845Z" transform="translate(-215.244 -301.944)" fill="#ff965a"/>
        </g>
      </g>
      <g id="Grupo_78950" data-name="Grupo 78950" transform="translate(51.902 26.634)">
        <g id="Grupo_78949" data-name="Grupo 78949">
          <path id="Trazado_133627" data-name="Trazado 133627" d="M233.306,112.741c0-10.394-6.668-19.9-17.062-19.9H188.573a16.151,16.151,0,0,0-7.271,1.707v56.111A21.1,21.1,0,0,0,202.167,171.8h.241a32.336,32.336,0,0,0,32.336-32.336V129.256Z" transform="translate(-181.302 -92.842)" fill="#ffbe82"/>
        </g>
      </g>
      <path id="Trazado_133628" data-name="Trazado 133628" d="M235.758,95.842a16.357,16.357,0,0,0-1.622.22h1.686C235.8,95.989,235.778,95.916,235.758,95.842Z" transform="translate(-167.109 -68.349)" fill="#ff965a"/>
      <path id="Trazado_133629" data-name="Trazado 133629" d="M176,93.9H147.283a18.728,18.728,0,0,0-18.728,18.728v3.8h0v13.135h-4.975a15.921,15.921,0,0,0,4.975,6.537v3.8a32.656,32.656,0,0,0,34.408,32.609,32.852,32.852,0,0,1-21.884-22.154,8.436,8.436,0,0,1,8.057-10.93h34.712a15.873,15.873,0,0,0,14.69-9.862h-4.992V111.448A17.544,17.544,0,0,0,176,93.9Zm7.634,40.923H167.353a1.767,1.767,0,0,1-1.743-1.473,4.441,4.441,0,0,0-8.758,0,1.768,1.768,0,0,1-1.743,1.473H139.468c0-6.318-.034-15.611-.037-20.081-.006-6.894,2.324-11.188,4.7-13.774a.966.966,0,0,1,1.583,1.073l-.031.063a.574.574,0,0,0,.518.821h25.921a7.286,7.286,0,0,0,5.522-2.52,4.516,4.516,0,0,1,5.363-1.174l.11.053a11.011,11.011,0,0,1,6.1,9.927v19.229a4.326,4.326,0,0,0,1.94,3.61,11.582,11.582,0,0,1-7.519,2.772Z" transform="translate(-88.201 -66.965)" fill="#ff965a"/>
      <path id="Trazado_133630" data-name="Trazado 133630" d="M215.805,30.1H179.939a14.535,14.535,0,0,0-4.769.8V51.435c.207-.12.417-.235.634-.341a21.359,21.359,0,0,1,10.164-1.954,15.6,15.6,0,0,0-3.829,5.488h26.807a7.193,7.193,0,0,0,6.9-5l.017-.056a18.161,18.161,0,0,1,4.082,1.417,11.01,11.01,0,0,1,6.1,9.927V80.144a4.331,4.331,0,0,0,4.331,4.331V44.663A14.563,14.563,0,0,0,215.805,30.1Z" transform="translate(-125.023 -21.427)" fill="#783c28"/>
      <path id="Trazado_133631" data-name="Trazado 133631" d="M151.745,44.663A14.563,14.563,0,0,1,166.308,30.1H155.522a14.563,14.563,0,0,0-14.563,14.563V68.131h0V84.476a4.331,4.331,0,0,0,4.331-4.331V61.02a11.065,11.065,0,0,1,6.176-9.965q.14-.068.279-.133V44.663Z" transform="translate(-100.606 -21.427)" fill="#5a2d19"/>
      <g id="Grupo_78952" data-name="Grupo 78952" transform="translate(105.345 49.707)">
        <g id="Grupo_78951" data-name="Grupo 78951">
          <path id="Trazado_133632" data-name="Trazado 133632" d="M367.984,192.659v-19.22a7.582,7.582,0,0,1,7.582,7.582v4.057A7.582,7.582,0,0,1,367.984,192.659Z" transform="translate(-367.984 -173.439)" fill="#ff965a"/>
        </g>
      </g>
      <g id="Grupo_78954" data-name="Grupo 78954" transform="translate(32.771 49.707)">
        <g id="Grupo_78953" data-name="Grupo 78953">
          <path id="Trazado_133633" data-name="Trazado 133633" d="M114.475,185.078a7.582,7.582,0,0,0,7.582,7.582v-19.22a7.582,7.582,0,0,0-7.582,7.582Z" transform="translate(-114.475 -173.439)" fill="#ff965a"/>
        </g>
      </g>
      <g id="Grupo_78956" data-name="Grupo 78956" transform="translate(59.038 53.395)">
        <g id="Grupo_78955" data-name="Grupo 78955">
          <path id="Trazado_133634" data-name="Trazado 133634" d="M208.919,199.072a2.694,2.694,0,0,1-2.693-2.693v-7.366a2.693,2.693,0,0,1,5.387,0v7.366A2.693,2.693,0,0,1,208.919,199.072Z" transform="translate(-206.226 -186.32)" fill="#ff965a"/>
        </g>
      </g>
      <g id="Grupo_78958" data-name="Grupo 78958" transform="translate(81.032 53.395)">
        <g id="Grupo_78957" data-name="Grupo 78957">
          <path id="Trazado_133635" data-name="Trazado 133635" d="M285.749,199.072a2.693,2.693,0,0,1-2.693-2.693v-7.366a2.693,2.693,0,0,1,5.387,0v7.366A2.694,2.694,0,0,1,285.749,199.072Z" transform="translate(-283.056 -186.32)" fill="#ff965a"/>
        </g>
      </g>
      <g id="Grupo_78960" data-name="Grupo 78960" transform="translate(59.038 51.237)">
        <g id="Grupo_78959" data-name="Grupo 78959">
          <path id="Trazado_133636" data-name="Trazado 133636" d="M208.919,191.537a2.694,2.694,0,0,1-2.693-2.693v-7.366a2.693,2.693,0,0,1,5.387,0v7.366A2.693,2.693,0,0,1,208.919,191.537Z" transform="translate(-206.226 -178.785)" fill="#373c41"/>
        </g>
      </g>
      <g id="Grupo_78962" data-name="Grupo 78962" transform="translate(81.032 51.237)">
        <g id="Grupo_78961" data-name="Grupo 78961">
          <path id="Trazado_133637" data-name="Trazado 133637" d="M285.749,191.537a2.693,2.693,0,0,1-2.693-2.693v-7.366a2.693,2.693,0,0,1,5.387,0v7.366A2.694,2.694,0,0,1,285.749,191.537Z" transform="translate(-283.056 -178.785)" fill="#373c41"/>
        </g>
      </g>
      <g id="Grupo_78965" data-name="Grupo 78965" transform="translate(54.732 44.504)">
        <g id="Grupo_78964" data-name="Grupo 78964">
          <g id="Grupo_78963" data-name="Grupo 78963">
            <path id="Trazado_133638" data-name="Trazado 133638" d="M201.733,160.652h-7.854a2.693,2.693,0,1,1,0-5.387h7.854a2.693,2.693,0,1,1,0,5.387Z" transform="translate(-191.185 -155.265)" fill="#783c28"/>
          </g>
        </g>
      </g>
      <g id="Grupo_78968" data-name="Grupo 78968" transform="translate(77.175 44.504)">
        <g id="Grupo_78967" data-name="Grupo 78967">
          <g id="Grupo_78966" data-name="Grupo 78966">
            <path id="Trazado_133639" data-name="Trazado 133639" d="M280.131,160.652h-7.854a2.693,2.693,0,1,1,0-5.387h7.854a2.693,2.693,0,1,1,0,5.387Z" transform="translate(-269.583 -155.265)" fill="#783c28"/>
          </g>
        </g>
      </g>
      <path id="Trazado_133640" data-name="Trazado 133640" d="M236.776,275.375H234l-7.3,1.516-7.3-1.516h-2.453a1.371,1.371,0,0,0-1.371,1.534,11.322,11.322,0,0,0,1.512,4.314l14.788,4.382a11.4,11.4,0,0,0,6.275-8.7A1.37,1.37,0,0,0,236.776,275.375Z" transform="translate(-153.85 -196.486)" fill="#e0248b"/>
      <g id="Grupo_78970" data-name="Grupo 78970" transform="translate(68.462 58.81)">
        <g id="Grupo_78969" data-name="Grupo 78969">
          <path id="Trazado_133641" data-name="Trazado 133641" d="M239.331,215.773c-.669,2.674.547,5.586,2.874,6.464a4.211,4.211,0,0,0,2.979,0c2.327-.878,3.544-3.79,2.874-6.464l-2.219-8.863a2.21,2.21,0,0,0-4.288,0Z" transform="translate(-239.149 -205.237)" fill="#ff965a"/>
        </g>
      </g>
      <g id="Grupo_78971" data-name="Grupo 78971" transform="translate(99.029 29.097)">
        <path id="Trazado_133642" data-name="Trazado 133642" d="M347.229,103.5a15.583,15.583,0,0,1-1.308,1.964,11.2,11.2,0,0,1,1.985,6.367v19.229a4.331,4.331,0,0,0,4.331,4.331V101.748a4,4,0,0,0-5.008,1.757Z" transform="translate(-345.921 -101.445)" fill="#5a2d19"/>
      </g>
      <path id="Trazado_133643" data-name="Trazado 133643" d="M207.22,192.842a.993.993,0,0,1-.993-.993v-3.007a.993.993,0,0,1,1.986,0v3.007A.992.992,0,0,1,207.22,192.842Z" transform="translate(-147.189 -134.017)" fill="#fff"/>
      <path id="Trazado_133644" data-name="Trazado 133644" d="M283.874,192.842a.992.992,0,0,1-.993-.993v-3.007a.993.993,0,1,1,1.986,0v3.007A.993.993,0,0,1,283.874,192.842Z" transform="translate(-201.899 -134.017)" fill="#fff"/>
      <path id="Trazado_133645" data-name="Trazado 133645" d="M220.887,288.784a11.393,11.393,0,0,0,14.786,4.382,8.552,8.552,0,0,0-14.786-4.382Z" transform="translate(-157.652 -204.048)" fill="#f73c9a"/>
      <path id="Trazado_133646" data-name="Trazado 133646" d="M241.959,278.409H230.566a1.606,1.606,0,0,1-1.607-1.607v-1.426h14.607V276.8A1.607,1.607,0,0,1,241.959,278.409Z" transform="translate(-163.414 -196.487)" fill="#fff"/>
      <path id="Trazado_133647" data-name="Trazado 133647" d="M194.133,171.4a2.192,2.192,0,0,1-2.192,2.192H115.971a2.192,2.192,0,0,1-2.192-2.192v-16.7a2.192,2.192,0,0,1,2.192-2.191h75.971a2.192,2.192,0,0,1,2.192,2.191Z" transform="translate(-81.207 -108.789)" fill="#453d49"/>
      <path id="Trazado_133648" data-name="Trazado 133648" d="M188.262,165.838H145.4a13.733,13.733,0,0,1,0-27.465h42.866a13.733,13.733,0,0,1,0,27.465Z" transform="translate(-93.972 -98.704)" fill="#453d49"/>
      <path id="Trazado_133649" data-name="Trazado 133649" d="M195.007,162.13H152.142a13.736,13.736,0,0,1-12.617-19.157,13.733,13.733,0,0,0,5.872,26.148h42.866a13.734,13.734,0,0,0,12.617-8.308A13.669,13.669,0,0,1,195.007,162.13Z" transform="translate(-93.972 -101.988)" fill="#2c2630"/>
      <path id="Trazado_133650" data-name="Trazado 133650" d="M162.556,146.451H150.235l-7.33,19.355a3.914,3.914,0,0,0,3.66,5.3h6.654Z" transform="translate(-101.811 -104.47)" fill="#fff"/>
      <path id="Trazado_133651" data-name="Trazado 133651" d="M205.491,145.853h-4.539l-9.338,24.654h4.54Z" transform="translate(-136.76 -104.043)" fill="#fff"/>
      <path id="Trazado_133652" data-name="Trazado 133652" d="M220.333,133.475H174.7v4.6h45.635A11.282,11.282,0,0,1,231.6,149.617a11.407,11.407,0,0,1-11.478,11H203.838a1.767,1.767,0,0,1-1.743-1.472,4.441,4.441,0,0,0-8.758,0,1.767,1.767,0,0,1-1.743,1.472h-9.6v4.6h38.341a15.871,15.871,0,0,0,0-31.741Z" transform="translate(-124.686 -95.209)" fill="#b4d7dc"/>
      <g id="Grupo_78972" data-name="Grupo 78972" transform="translate(34.197 38.266)">
        <path id="Trazado_133653" data-name="Trazado 133653" d="M144.365,160.614h-8.827a11.407,11.407,0,0,1-11.477-11,11.281,11.281,0,0,1,11.266-11.541h1.983a2.3,2.3,0,0,0,0-4.6h-1.983a15.871,15.871,0,0,0,0,31.741h9.039a2.3,2.3,0,1,0,0-4.6Z" transform="translate(-119.456 -133.474)" fill="#e4f2f6"/>
      </g>
    </g>
  </g>
</svg>
