<svg xmlns="http://www.w3.org/2000/svg" xmlns:xlink="http://www.w3.org/1999/xlink" width="166.031" height="156.134" viewBox="0 0 166.031 156.134">
  <defs>
    <filter id="Trazado_134291" x="13.615" y="7.274" width="138.559" height="137.315" filterUnits="userSpaceOnUse">
      <feOffset input="SourceAlpha"/>
      <feGaussianBlur stdDeviation="3" result="blur"/>
      <feFlood flood-opacity="0.29"/>
      <feComposite operator="in" in2="blur"/>
      <feComposite in="SourceGraphic"/>
    </filter>
  </defs>
  <g id="Grupo_79436" data-name="Grupo 79436" transform="translate(15316 9861.576)">
    <g id="Grupo_79431" data-name="Grupo 79431">
      <rect id="Rectángulo_34267" data-name="Rectángulo 34267" width="166.031" height="98.339" rx="13" transform="translate(-15316 -9803.781)" fill="#f6f6f6"/>
      <g id="Grupo_79426" data-name="Grupo 79426" transform="translate(-1.23)">
        <path id="Trazado_108946" data-name="Trazado 108946" d="M672.12,1788.316a66.208,66.208,0,0,1,62.354,44.174H744.8a75.919,75.919,0,0,0-145.366,0h10.329A66.208,66.208,0,0,1,672.12,1788.316Z" transform="translate(-15904.206 -11640.076)" fill="#b2ebf2"/>
        <g transform="matrix(1, 0, 0, 1, -15314.77, -9861.58)" filter="url(#Trazado_134291)">
          <path id="Trazado_134291-2" data-name="Trazado 134291" d="M60.279,0c33.291,0,60.279,26.71,60.279,59.658s-26.988,59.658-60.279,59.658S0,92.606,0,59.658,26.988,0,60.279,0Z" transform="translate(22.62 16.27)" fill="#1565c0"/>
        </g>
        <g id="Grupo_73923" data-name="Grupo 73923" transform="translate(-15255.455 -9817.406)">
          <path id="Trazado_108947" data-name="Trazado 108947" d="M746.6,1893.433a.5.5,0,0,0,.078-.191A1.238,1.238,0,0,1,746.6,1893.433Z" transform="translate(-699.181 -1862.98)" fill="#fff"/>
          <path id="Trazado_108948" data-name="Trazado 108948" d="M712.608,1884c0-.631,0-.625-.631-.683a5.241,5.241,0,0,1-4.863-3.593c-1.191-3.213-2.461-6.4-3.7-9.591q-4.174-10.8-8.336-21.6a.566.566,0,0,0-.666-.444,11.783,11.783,0,0,1-1.578,0,.617.617,0,0,0-.73.485q-4.417,11.423-8.868,22.832c-1.119,2.86-2.186,5.742-3.443,8.546a5.246,5.246,0,0,1-3.645,3.1c-.663.168-1.338.24-2.008.354v2.6c.169-.009.338-.026.507-.026q3.207,0,6.413,0c2.4,0,4.8-.009,7.2.009.377,0,.477-.106.456-.467-.03-.509-.008-1.021-.008-1.532,0-.627,0-.628-.647-.667a10.88,10.88,0,0,1-3.568-.749c-.956-.4-1.124-.708-.991-1.745.026-.2.043-.4.088-.6a58.746,58.746,0,0,1,2.168-6.641c.1-.283.289-.263.508-.263q5.739,0,11.478-.006a.494.494,0,0,1,.561.389c.874,2.408,1.794,4.8,2.647,7.216.547,1.548.535,1.552-1.08,2.007a14.906,14.906,0,0,1-2.892.4c-.293.023-.391.119-.379.419.026.6.032,1.209,0,1.812-.021.368.113.427.446.425,2.246-.014,4.492-.007,6.738-.007,2.8,0,5.608-.006,8.411.007.325,0,.43-.082.413-.412C712.588,1885.054,712.608,1884.525,712.608,1884Zm-16.145-13.764c-2.987-.014-5.974-.01-8.96,0-.285,0-.426,0-.283-.367q2.334-6.015,4.64-12.043c.022-.056.05-.109.112-.244.69,1.774,1.344,3.454,2,5.132.924,2.371,1.842,4.744,2.782,7.108C696.9,1870.177,696.84,1870.237,696.464,1870.235Z" transform="translate(-674.143 -1847.375)" fill="#fff"/>
          <path id="Trazado_108949" data-name="Trazado 108949" d="M740.327,1852.793c-1.171-1.907-2.321-3.829-3.509-5.794l-4.88,8.065c1.12,0,2.158.022,3.193-.011.415-.013.507.1.506.509q-.021,10.217-.01,20.433c0,1.131,0,1.131-1.124,1.131h-2.569l4.883,8.069.978-1.611,3.735-6.131a1.25,1.25,0,0,0,.078-.191c.009-.1-.077-.144-.284-.141-.975.015-1.951,0-2.926.011-.29,0-.4-.056-.4-.38q.016-10.663,0-21.326c0-.334.129-.37.406-.368,1.1.009,2.2,0,3.3-.006v-.093A18.077,18.077,0,0,1,740.327,1852.793Z" transform="translate(-694.114 -1847)" fill="#fff"/>
          <path id="Trazado_108950" data-name="Trazado 108950" d="M741.6,1859.312c-.277,0-.407.034-.406.368q.016,10.663,0,21.325c0,.324.111.385.4.38.976-.015,1.952,0,2.927-.011.206,0,.292.039.283.141.064-.218-.038-.3-.376-.315-.757-.041-1.516-.012-2.274-.015-.823,0-.825,0-.825-.808V1865.57c0-1.841,0-3.682,0-5.523,0-.54.048-.584.582-.588.773-.007,1.547,0,2.321,0a.922.922,0,0,0,.662-.148C743.8,1859.31,742.7,1859.321,741.6,1859.312Z" transform="translate(-697.315 -1851.253)" fill="#fff"/>
        </g>
        <path id="Trazado_134292" data-name="Trazado 134292" d="M9.177-8.679h-3.2V0H3.406V-8.679H.264v-1.985H9.177ZM13.33.146A4.074,4.074,0,0,1,10.378-.941,3.756,3.756,0,0,1,9.25-3.772v-.205A4.867,4.867,0,0,1,9.7-6.123a3.3,3.3,0,0,1,1.315-1.439,3.969,3.969,0,0,1,2.051-.509A3.43,3.43,0,0,1,15.7-7.035a4.073,4.073,0,0,1,.967,2.889v.959H11.763a1.779,1.779,0,0,0,.579,1.047,1.722,1.722,0,0,0,1.157.381,2.218,2.218,0,0,0,1.831-.82l1.128,1.333A3.153,3.153,0,0,1,15.15-.231,4.418,4.418,0,0,1,13.33.146Zm-.278-6.313q-1.084,0-1.289,1.436h2.49v-.19a1.223,1.223,0,0,0-.3-.919A1.2,1.2,0,0,0,13.052-6.167Zm7.822.425,1.15-2.183h2.563L22.5-4.065,24.69,0H22.112L20.867-2.344,19.644,0H17.051l2.2-4.065-2.08-3.86h2.593ZM28.257-9.9v1.97h1.3v1.714h-1.3v3.625a.926.926,0,0,0,.161.623.864.864,0,0,0,.637.176,3.621,3.621,0,0,0,.615-.044V-.066a4.555,4.555,0,0,1-1.392.212,2.586,2.586,0,0,1-1.882-.6,2.462,2.462,0,0,1-.608-1.824V-6.211H24.778V-7.925h1.011V-9.9ZM30-4.036a4.677,4.677,0,0,1,.461-2.113,3.3,3.3,0,0,1,1.326-1.425,3.993,3.993,0,0,1,2.029-.5,3.644,3.644,0,0,1,2.805,1.1,4.23,4.23,0,0,1,1.025,3v.088A4.1,4.1,0,0,1,36.617-.941,3.654,3.654,0,0,1,33.831.146,3.7,3.7,0,0,1,31.113-.868a3.968,3.968,0,0,1-1.106-2.75Zm2.468.154a2.949,2.949,0,0,0,.344,1.611,1.147,1.147,0,0,0,1.018.513q1.318,0,1.348-2.029v-.249q0-2.131-1.362-2.131-1.238,0-1.34,1.838Z" transform="translate(-15252 -9752.954)" fill="#fff"/>
      </g>
    </g>
  </g>
</svg>
