<svg xmlns="http://www.w3.org/2000/svg" width="451" height="277" viewBox="0 0 451 277">
  <g id="Grupo_79436" data-name="Grupo 79436" transform="translate(2612 1531)">
    <path id="Trazado_134292" data-name="Trazado 134292" d="M22,0H429a22,22,0,0,1,22,22V255a22,22,0,0,1-22,22H22A22,22,0,0,1,0,255V22A22,22,0,0,1,22,0Z" transform="translate(-2612 -1531)" fill="#1565c0"/>
    <g id="Grupo_78430" data-name="Grupo 78430" transform="translate(-2579.742 -1487.754)">
      <g id="Grupo_78422" data-name="Grupo 78422" transform="translate(0)">
        <g id="Grupo_78413" data-name="Grupo 78413">
          <path id="Trazado_114084" data-name="Trazado 114084" d="M321.457,219.425l46.973-26.784c1.718-.992,1.5-2.725-.481-3.87l-27.027-15.6a7.449,7.449,0,0,0-6.7-.278l-46.973,26.785c-1.718.991-1.5,2.724.481,3.869l27.027,15.6A7.449,7.449,0,0,0,321.457,219.425Z" transform="translate(-283.049 -49.619)" fill="#b2d3ea" opacity="0.332"/>
          <path id="Trazado_114085" data-name="Trazado 114085" d="M282.676,176.824h0V67.163l43.6-11.41,8.03-4.636a7.992,7.992,0,0,1,7.19.3l7.491,4.326,23.252-.013L365.351,161.59a2.084,2.084,0,0,1-1.235,1.926l-43.505,32.827a7.992,7.992,0,0,1-7.19-.3l-28.994-16.74A2.85,2.85,0,0,1,282.676,176.824Z" transform="translate(-282.667 -35.786)" fill="#396caa"/>
          <path id="Trazado_114086" data-name="Trazado 114086" d="M303.549,50.4a8.3,8.3,0,0,1,3.854,1.011l7.491,4.326,23.252-.013V165.684a2.08,2.08,0,0,1-1.234,1.926l-50.391,28.733a6.5,6.5,0,0,1-3.337.713l-.519-110.643Z" transform="translate(-248.578 -35.786)" fill="#d4ecff"/>
          <path id="Trazado_114087" data-name="Trazado 114087" d="M347.179,201.016a8.2,8.2,0,0,1-5.748-.066V89.551h5.748Z" transform="translate(-309.697 -40.231)" fill="#5793ce"/>
          <path id="Trazado_114088" data-name="Trazado 114088" d="M320.6,84.554l50.391-28.733c1.843-1.064,1.612-2.923-.517-4.151L341.485,34.93a7.992,7.992,0,0,0-7.19-.3L283.9,63.365c-1.843,1.064-1.612,2.923.516,4.151l28.994,16.74A7.992,7.992,0,0,0,320.6,84.554Z" transform="translate(-282.66 -33.914)" fill="#d4ecff"/>
          <path id="Trazado_114089" data-name="Trazado 114089" d="M284.416,67.918l28.994,16.74a7.992,7.992,0,0,0,7.19.3l50.391-28.733a2.792,2.792,0,0,0,.919-.816,1.931,1.931,0,0,1-.919,2.854L320.6,86.995a7.992,7.992,0,0,1-7.19-.3l-28.994-16.74c-1.653-.955-2.156-2.289-1.435-3.336A4.013,4.013,0,0,0,284.416,67.918Z" transform="translate(-282.656 -36.354)" fill="#fafdff"/>
          <g id="Grupo_78412" data-name="Grupo 78412" transform="translate(18.762 9.296)">
            <path id="Trazado_114090" data-name="Trazado 114090" d="M321.77,74.1l33.548-19.448c.863-.5.754-1.367-.241-1.942L341.51,44.876a3.739,3.739,0,0,0-3.364-.139L304.6,64.185c-.863.5-.754,1.367.242,1.942l13.567,7.834A3.741,3.741,0,0,0,321.77,74.1Z" transform="translate(-304.014 -44.401)" fill="#173d7a"/>
            <g id="Grupo_78411" data-name="Grupo 78411" transform="translate(13.927 8.584)">
              <path id="Trazado_114091" data-name="Trazado 114091" d="M322.257,56.625,324.2,55.5c.12-.068.1-.189-.034-.269l-1.877-1.083a.516.516,0,0,0-.465-.019l-1.944,1.122c-.12.069-.1.19.033.269l1.877,1.084A.518.518,0,0,0,322.257,56.625Z" transform="translate(-300.317 -54.084)" fill="#d4ecff"/>
              <path id="Trazado_114092" data-name="Trazado 114092" d="M329.584,60.839l1.944-1.123c.12-.068.1-.189-.033-.269l-1.877-1.083a.516.516,0,0,0-.465-.02l-1.944,1.122c-.12.069-.1.189.034.269l1.877,1.084A.518.518,0,0,0,329.584,60.839Z" transform="translate(-314.138 -54.563)" fill="#d4ecff"/>
              <path id="Trazado_114093" data-name="Trazado 114093" d="M336.912,65.051l1.944-1.123c.119-.068.1-.189-.034-.269l-1.877-1.084a.518.518,0,0,0-.465-.019l-1.944,1.122c-.119.069-.1.189.034.269l1.877,1.084A.523.523,0,0,0,336.912,65.051Z" transform="translate(-327.96 -55.041)" fill="#d4ecff"/>
              <path id="Trazado_114094" data-name="Trazado 114094" d="M344.238,69.264l1.944-1.122c.12-.069.1-.189-.034-.269l-1.877-1.084a.52.52,0,0,0-.466-.019l-1.944,1.122c-.119.068-.1.189.034.269l1.878,1.084A.518.518,0,0,0,344.238,69.264Z" transform="translate(-341.781 -55.52)" fill="#d4ecff"/>
            </g>
            <path id="Trazado_114095" data-name="Trazado 114095" d="M355.314,54.652l-.039.023a2.368,2.368,0,0,0-.2-.138L341.505,46.7a3.739,3.739,0,0,0-3.364-.139l-33.51,19.424c-.8-.569-.837-1.343-.04-1.8l33.549-19.448a3.739,3.739,0,0,1,3.364.139l13.568,7.834C356.068,53.285,356.177,54.155,355.314,54.652Z" transform="translate(-304.009 -44.401)" fill="#5793ce"/>
          </g>
        </g>
        <g id="Grupo_78415" data-name="Grupo 78415" transform="translate(4.075 49.208)">
          <path id="Trazado_114096" data-name="Trazado 114096" d="M374.233,112.583l-19.075-10.921a4.654,4.654,0,0,1-1.943-3.713V91.127c0-1.431.87-2.088,1.943-1.469l19.075,10.921a4.654,4.654,0,0,1,1.943,3.714v6.821C376.176,112.545,375.306,113.2,374.233,112.583Z" transform="translate(-353.214 -89.425)" fill="#173d7a"/>
          <path id="Trazado_114097" data-name="Trazado 114097" d="M354.763,89.456a1.906,1.906,0,0,0-.488,1.419V97.7a4.655,4.655,0,0,0,1.943,3.713l19.075,10.922a1.4,1.4,0,0,0,.944.206,1.158,1.158,0,0,1-1.456.05l-19.075-10.921a4.654,4.654,0,0,1-1.943-3.713V91.131C353.764,90.159,354.17,89.557,354.763,89.456Z" transform="translate(-353.764 -89.428)" fill="#fff"/>
          <g id="Grupo_78414" data-name="Grupo 78414" transform="translate(7.257 8.311)">
            <path id="Trazado_114098" data-name="Trazado 114098" d="M363.574,106.671l-1.75-1.011a1.014,1.014,0,0,1-.424-.809v-1.869c0-.312.19-.456.424-.321l1.75,1.011a1.014,1.014,0,0,1,.424.809v1.87C364,106.663,363.808,106.806,363.574,106.671Z" transform="translate(-355.549 -99.233)" fill="#396caa"/>
            <path id="Trazado_114099" data-name="Trazado 114099" d="M370.174,102.86l-1.75-1.01a1.016,1.016,0,0,1-.423-.81V99.171c0-.312.189-.456.423-.32l1.75,1.01a1.016,1.016,0,0,1,.424.809v1.87C370.6,102.852,370.408,103,370.174,102.86Z" transform="translate(-368.001 -98.8)" fill="#fff"/>
          </g>
        </g>
        <g id="Grupo_78417" data-name="Grupo 78417" transform="translate(4.075 98.5)">
          <path id="Trazado_114100" data-name="Trazado 114100" d="M374.233,168.19l-19.075-10.921a4.656,4.656,0,0,1-1.943-3.714v-6.821c0-1.431.87-2.089,1.943-1.469l19.075,10.921a4.654,4.654,0,0,1,1.943,3.713v6.821C376.176,168.152,375.306,168.81,374.233,168.19Z" transform="translate(-353.214 -145.032)" fill="#173d7a"/>
          <path id="Trazado_114101" data-name="Trazado 114101" d="M354.763,145.063a1.906,1.906,0,0,0-.488,1.419V153.3a4.657,4.657,0,0,0,1.943,3.713l19.075,10.922a1.406,1.406,0,0,0,.944.206,1.161,1.161,0,0,1-1.456.05l-19.075-10.921a4.655,4.655,0,0,1-1.943-3.714v-6.821C353.764,145.766,354.17,145.163,354.763,145.063Z" transform="translate(-353.764 -145.035)" fill="#fff"/>
          <g id="Grupo_78416" data-name="Grupo 78416" transform="translate(7.257 8.311)">
            <path id="Trazado_114102" data-name="Trazado 114102" d="M363.574,162.278l-1.75-1.011a1.014,1.014,0,0,1-.424-.809v-1.869c0-.313.19-.456.424-.321l1.75,1.011a1.014,1.014,0,0,1,.424.809v1.869C364,162.269,363.808,162.413,363.574,162.278Z" transform="translate(-355.549 -154.84)" fill="#396caa"/>
            <path id="Trazado_114103" data-name="Trazado 114103" d="M370.174,158.467l-1.75-1.011a1.013,1.013,0,0,1-.423-.809v-1.869c0-.312.189-.456.423-.32l1.75,1.01a1.013,1.013,0,0,1,.424.809v1.87C370.6,158.459,370.408,158.6,370.174,158.467Z" transform="translate(-368.001 -154.407)" fill="#fff"/>
          </g>
        </g>
        <g id="Grupo_78419" data-name="Grupo 78419" transform="translate(4.075 123.147)">
          <path id="Trazado_114104" data-name="Trazado 114104" d="M374.233,195.993l-19.075-10.921a4.654,4.654,0,0,1-1.943-3.713v-6.821c0-1.432.87-2.089,1.943-1.47l19.075,10.921a4.656,4.656,0,0,1,1.943,3.714v6.821C376.176,195.955,375.306,196.613,374.233,195.993Z" transform="translate(-353.214 -172.835)" fill="#173d7a"/>
          <path id="Trazado_114105" data-name="Trazado 114105" d="M354.763,172.866a1.906,1.906,0,0,0-.488,1.419v6.821a4.655,4.655,0,0,0,1.943,3.713l19.075,10.922a1.4,1.4,0,0,0,.944.206,1.158,1.158,0,0,1-1.456.05l-19.075-10.921a4.654,4.654,0,0,1-1.943-3.713v-6.821C353.764,173.569,354.17,172.967,354.763,172.866Z" transform="translate(-353.764 -172.838)" fill="#fff"/>
          <g id="Grupo_78418" data-name="Grupo 78418" transform="translate(7.257 8.311)">
            <path id="Trazado_114106" data-name="Trazado 114106" d="M363.574,190.081l-1.75-1.011a1.014,1.014,0,0,1-.424-.809v-1.869c0-.312.19-.456.424-.32l1.75,1.01a1.015,1.015,0,0,1,.424.809v1.87C364,190.073,363.808,190.216,363.574,190.081Z" transform="translate(-355.549 -182.643)" fill="#396caa"/>
            <path id="Trazado_114107" data-name="Trazado 114107" d="M370.174,186.27l-1.75-1.01a1.014,1.014,0,0,1-.423-.809v-1.87c0-.312.189-.456.423-.32l1.75,1.01a1.017,1.017,0,0,1,.424.81v1.869C370.6,186.262,370.408,186.406,370.174,186.27Z" transform="translate(-368.001 -182.21)" fill="#fff"/>
          </g>
        </g>
        <g id="Grupo_78421" data-name="Grupo 78421" transform="translate(4.075 73.854)">
          <path id="Trazado_114108" data-name="Trazado 114108" d="M374.233,140.387l-19.075-10.922a4.653,4.653,0,0,1-1.943-3.713v-6.821c0-1.432.87-2.089,1.943-1.47l19.075,10.922a4.653,4.653,0,0,1,1.943,3.713v6.821C376.176,140.349,375.306,141.007,374.233,140.387Z" transform="translate(-353.214 -117.228)" fill="#173d7a"/>
          <path id="Trazado_114109" data-name="Trazado 114109" d="M354.763,117.259a1.906,1.906,0,0,0-.488,1.419V125.5a4.656,4.656,0,0,0,1.943,3.713l19.075,10.921a1.4,1.4,0,0,0,.944.206,1.159,1.159,0,0,1-1.456.051l-19.075-10.922a4.654,4.654,0,0,1-1.943-3.713v-6.821C353.764,117.963,354.17,117.36,354.763,117.259Z" transform="translate(-353.764 -117.231)" fill="#fff"/>
          <g id="Grupo_78420" data-name="Grupo 78420" transform="translate(7.257 8.311)">
            <path id="Trazado_114110" data-name="Trazado 114110" d="M363.574,134.474l-1.75-1.01a1.017,1.017,0,0,1-.424-.81v-1.869c0-.312.19-.456.424-.32l1.75,1.01a1.016,1.016,0,0,1,.424.809v1.87C364,134.466,363.808,134.61,363.574,134.474Z" transform="translate(-355.549 -127.037)" fill="#396caa"/>
            <path id="Trazado_114111" data-name="Trazado 114111" d="M370.174,130.664l-1.75-1.011a1.013,1.013,0,0,1-.423-.809v-1.87c0-.311.189-.455.423-.32l1.75,1.011a1.013,1.013,0,0,1,.424.809v1.869C370.6,130.655,370.408,130.8,370.174,130.664Z" transform="translate(-368.001 -126.604)" fill="#fff"/>
          </g>
        </g>
      </g>
      <g id="Grupo_78423" data-name="Grupo 78423" transform="translate(39.831 26.614)">
        <path id="Trazado_114112" data-name="Trazado 114112" d="M286.895,102.707,330.9,77.3a4.268,4.268,0,0,0,1.784-3.408V65.5c0-1.314-.8-1.917-1.784-1.348L286.895,89.559a4.272,4.272,0,0,0-1.783,3.408v8.391C285.112,102.671,285.91,103.276,286.895,102.707Z" transform="translate(-285.112 -63.937)" fill="#5793ce"/>
        <path id="Trazado_114113" data-name="Trazado 114113" d="M288.433,100.155l41.48-23.949a2.167,2.167,0,0,0,.905-1.729V68.168c0-.667-.405-.972-.905-.684l-41.48,23.949a2.166,2.166,0,0,0-.905,1.729v6.309C287.528,100.137,287.933,100.443,288.433,100.155Z" transform="translate(-285.386 -64.328)" fill="#d4ecff" opacity="0.4"/>
        <path id="Trazado_114114" data-name="Trazado 114114" d="M291.2,78.6l6.191-3.574a2.105,2.105,0,0,0,.879-1.679h0c0-.646-.394-.944-.879-.664L291.2,76.255a2.105,2.105,0,0,0-.878,1.679h0C290.326,78.581,290.72,78.878,291.2,78.6Z" transform="translate(-255.322 -64.918)" fill="#d4ecff"/>
        <ellipse id="Elipse_4814" data-name="Elipse 4814" cx="0.828" cy="1.435" rx="0.828" ry="1.435" transform="matrix(-0.866, -0.5, 0.5, -0.866, 31.622, 16.625)" fill="#173d7a"/>
        <path id="Trazado_114115" data-name="Trazado 114115" d="M306,83.572c0,.647.455.909,1.015.586A2.244,2.244,0,0,0,308.03,82.4c0-.647-.455-.909-1.015-.586A2.244,2.244,0,0,0,306,83.572Z" transform="translate(-278.972 -65.952)" fill="#173d7a"/>
        <path id="Trazado_114116" data-name="Trazado 114116" d="M310.038,85.9c0,.647.455.909,1.015.586a2.244,2.244,0,0,0,1.015-1.757c0-.647-.455-.91-1.015-.586A2.243,2.243,0,0,0,310.038,85.9Z" transform="translate(-286.59 -66.216)" fill="#d4ecff"/>
        <path id="Trazado_114117" data-name="Trazado 114117" d="M314.076,88.234c0,.647.454.91,1.014.586a2.243,2.243,0,0,0,1.015-1.757c0-.647-.455-.909-1.015-.586A2.242,2.242,0,0,0,314.076,88.234Z" transform="translate(-294.206 -66.481)" fill="#173d7a"/>
        <path id="Trazado_114118" data-name="Trazado 114118" d="M330.951,99.753l2.085-1.2a1.35,1.35,0,0,0,.564-1.077V95.265c0-.415-.253-.605-.564-.426l-2.085,1.2a1.349,1.349,0,0,0-.564,1.078v2.206C330.387,99.741,330.639,99.932,330.951,99.753Z" transform="translate(-326.159 -67.439)" fill="#173d7a"/>
      </g>
      <g id="Grupo_78424" data-name="Grupo 78424" transform="translate(39.831 41.412)">
        <path id="Trazado_114119" data-name="Trazado 114119" d="M286.895,119.4,330.9,93.992a4.271,4.271,0,0,0,1.784-3.408V82.193c0-1.314-.8-1.917-1.784-1.348l-44.008,25.407a4.272,4.272,0,0,0-1.783,3.408v8.391C285.112,119.365,285.91,119.969,286.895,119.4Z" transform="translate(-285.112 -80.63)" fill="#5793ce"/>
        <path id="Trazado_114120" data-name="Trazado 114120" d="M288.433,116.848,329.914,92.9a2.167,2.167,0,0,0,.905-1.729V84.861c0-.667-.405-.972-.905-.684l-41.48,23.949a2.168,2.168,0,0,0-.905,1.729v6.309C287.528,116.83,287.933,117.136,288.433,116.848Z" transform="translate(-285.386 -81.021)" fill="#d4ecff" opacity="0.4"/>
        <path id="Trazado_114121" data-name="Trazado 114121" d="M291.2,95.291l6.191-3.574a2.105,2.105,0,0,0,.879-1.679h0c0-.647-.394-.945-.879-.665L291.2,92.948a2.105,2.105,0,0,0-.878,1.679h0C290.326,95.274,290.72,95.572,291.2,95.291Z" transform="translate(-255.322 -81.611)" fill="#d4ecff"/>
        <path id="Trazado_114122" data-name="Trazado 114122" d="M301.963,97.934c0,.647.455.91,1.015.586a2.243,2.243,0,0,0,1.014-1.758c0-.647-.454-.91-1.014-.586A2.244,2.244,0,0,0,301.963,97.934Z" transform="translate(-271.356 -82.38)" fill="#fff"/>
        <path id="Trazado_114123" data-name="Trazado 114123" d="M306,100.265c0,.647.455.909,1.015.586a2.244,2.244,0,0,0,1.015-1.758c0-.646-.455-.909-1.015-.585A2.243,2.243,0,0,0,306,100.265Z" transform="translate(-278.972 -82.645)" fill="#173d7a"/>
        <path id="Trazado_114124" data-name="Trazado 114124" d="M310.038,102.6c0,.647.455.91,1.015.586a2.242,2.242,0,0,0,1.015-1.757c0-.647-.455-.91-1.015-.586A2.243,2.243,0,0,0,310.038,102.6Z" transform="translate(-286.59 -82.909)" fill="#d4ecff"/>
        <ellipse id="Elipse_4815" data-name="Elipse 4815" cx="0.828" cy="1.435" rx="0.828" ry="1.435" transform="matrix(-0.866, -0.5, 0.5, -0.866, 20.884, 22.825)" fill="#173d7a"/>
        <path id="Trazado_114125" data-name="Trazado 114125" d="M330.951,116.446l2.085-1.2a1.352,1.352,0,0,0,.564-1.078v-2.206c0-.415-.253-.605-.564-.425l-2.085,1.2a1.348,1.348,0,0,0-.564,1.077v2.206C330.387,116.434,330.639,116.626,330.951,116.446Z" transform="translate(-326.159 -84.132)" fill="#173d7a"/>
      </g>
      <g id="Grupo_78425" data-name="Grupo 78425" transform="translate(39.831 56.21)">
        <path id="Trazado_114126" data-name="Trazado 114126" d="M286.895,136.093,330.9,110.685a4.27,4.27,0,0,0,1.784-3.408V98.886c0-1.313-.8-1.917-1.784-1.348l-44.008,25.408a4.269,4.269,0,0,0-1.783,3.408v8.391C285.112,136.058,285.91,136.662,286.895,136.093Z" transform="translate(-285.112 -97.324)" fill="#5793ce"/>
        <path id="Trazado_114127" data-name="Trazado 114127" d="M288.433,133.541l41.48-23.949a2.166,2.166,0,0,0,.905-1.729v-6.309c0-.667-.405-.972-.905-.684l-41.48,23.949a2.168,2.168,0,0,0-.905,1.729v6.308C287.528,133.523,287.933,133.83,288.433,133.541Z" transform="translate(-285.386 -97.714)" fill="#d4ecff" opacity="0.4"/>
        <path id="Trazado_114128" data-name="Trazado 114128" d="M291.2,111.984l6.191-3.574a2.105,2.105,0,0,0,.879-1.679h0c0-.647-.394-.945-.879-.664l-6.191,3.573a2.105,2.105,0,0,0-.878,1.679h0C290.326,111.967,290.72,112.265,291.2,111.984Z" transform="translate(-255.322 -98.305)" fill="#d4ecff"/>
        <path id="Trazado_114129" data-name="Trazado 114129" d="M301.963,114.627c0,.647.455.909,1.015.586a2.243,2.243,0,0,0,1.014-1.758c0-.647-.454-.909-1.014-.586A2.246,2.246,0,0,0,301.963,114.627Z" transform="translate(-271.356 -99.073)" fill="#fff"/>
        <path id="Trazado_114130" data-name="Trazado 114130" d="M306,116.958c0,.647.455.909,1.015.586a2.243,2.243,0,0,0,1.015-1.757c0-.647-.455-.91-1.015-.586A2.243,2.243,0,0,0,306,116.958Z" transform="translate(-278.972 -99.338)" fill="#173d7a"/>
        <path id="Trazado_114131" data-name="Trazado 114131" d="M310.038,119.289c0,.647.455.909,1.015.586a2.243,2.243,0,0,0,1.015-1.757c0-.647-.455-.91-1.015-.586A2.244,2.244,0,0,0,310.038,119.289Z" transform="translate(-286.59 -99.603)" fill="#d4ecff"/>
        <path id="Trazado_114132" data-name="Trazado 114132" d="M314.076,121.621c0,.647.454.909,1.014.586a2.244,2.244,0,0,0,1.015-1.758c0-.647-.455-.909-1.015-.586A2.243,2.243,0,0,0,314.076,121.621Z" transform="translate(-294.206 -99.868)" fill="#173d7a"/>
        <path id="Trazado_114133" data-name="Trazado 114133" d="M330.951,133.139l2.085-1.2a1.352,1.352,0,0,0,.564-1.078v-2.205c0-.416-.253-.606-.564-.426l-2.085,1.2a1.349,1.349,0,0,0-.564,1.077v2.206C330.387,133.127,330.639,133.319,330.951,133.139Z" transform="translate(-326.159 -100.825)" fill="#173d7a"/>
      </g>
      <g id="Grupo_78426" data-name="Grupo 78426" transform="translate(39.831 71.007)">
        <path id="Trazado_114134" data-name="Trazado 114134" d="M286.895,152.787,330.9,127.378a4.27,4.27,0,0,0,1.784-3.408v-8.392c0-1.313-.8-1.916-1.784-1.348l-44.008,25.408a4.271,4.271,0,0,0-1.783,3.408v8.391C285.112,152.751,285.91,153.355,286.895,152.787Z" transform="translate(-285.112 -114.017)" fill="#5793ce"/>
        <path id="Trazado_114135" data-name="Trazado 114135" d="M288.433,150.234l41.48-23.949a2.165,2.165,0,0,0,.905-1.729v-6.309c0-.666-.405-.972-.905-.683l-41.48,23.949a2.165,2.165,0,0,0-.905,1.729v6.309C287.528,150.216,287.933,150.523,288.433,150.234Z" transform="translate(-285.386 -114.407)" fill="#d4ecff" opacity="0.4"/>
        <path id="Trazado_114136" data-name="Trazado 114136" d="M291.2,128.678,297.4,125.1a2.105,2.105,0,0,0,.879-1.679h0c0-.647-.394-.944-.879-.664l-6.191,3.574a2.105,2.105,0,0,0-.878,1.679h0C290.326,128.661,290.72,128.958,291.2,128.678Z" transform="translate(-255.322 -114.998)" fill="#d4ecff"/>
        <path id="Trazado_114137" data-name="Trazado 114137" d="M301.963,131.32c0,.647.455.91,1.015.586a2.243,2.243,0,0,0,1.014-1.757c0-.647-.454-.91-1.014-.586A2.242,2.242,0,0,0,301.963,131.32Z" transform="translate(-271.356 -115.766)" fill="#173d7a"/>
        <ellipse id="Elipse_4816" data-name="Elipse 4816" cx="0.828" cy="1.435" rx="0.828" ry="1.435" transform="matrix(-0.866, -0.5, 0.5, -0.866, 28.043, 18.691)" fill="#173d7a"/>
        <path id="Trazado_114138" data-name="Trazado 114138" d="M310.038,135.983c0,.647.455.91,1.015.586a2.246,2.246,0,0,0,1.015-1.758c0-.647-.455-.91-1.015-.586A2.244,2.244,0,0,0,310.038,135.983Z" transform="translate(-286.59 -116.296)" fill="#d4ecff"/>
        <path id="Trazado_114139" data-name="Trazado 114139" d="M314.076,138.314c0,.647.454.909,1.014.586a2.244,2.244,0,0,0,1.015-1.758c0-.647-.455-.909-1.015-.585A2.242,2.242,0,0,0,314.076,138.314Z" transform="translate(-294.206 -116.561)" fill="#173d7a"/>
        <path id="Trazado_114140" data-name="Trazado 114140" d="M330.951,149.832l2.085-1.2a1.351,1.351,0,0,0,.564-1.077v-2.206c0-.416-.253-.606-.564-.426l-2.085,1.2a1.349,1.349,0,0,0-.564,1.077v2.206C330.387,149.821,330.639,150.012,330.951,149.832Z" transform="translate(-326.159 -117.518)" fill="#d4ecff"/>
      </g>
      <g id="Grupo_78427" data-name="Grupo 78427" transform="translate(39.831 85.805)">
        <path id="Trazado_114141" data-name="Trazado 114141" d="M286.895,169.48,330.9,144.071a4.268,4.268,0,0,0,1.784-3.408v-8.392c0-1.313-.8-1.917-1.784-1.347l-44.008,25.407a4.272,4.272,0,0,0-1.783,3.408v8.392C285.112,169.444,285.91,170.048,286.895,169.48Z" transform="translate(-285.112 -130.71)" fill="#5793ce"/>
        <path id="Trazado_114142" data-name="Trazado 114142" d="M288.433,166.928l41.48-23.949a2.168,2.168,0,0,0,.905-1.729v-6.309c0-.666-.405-.972-.905-.683l-41.48,23.949a2.165,2.165,0,0,0-.905,1.729v6.309C287.528,166.909,287.933,167.216,288.433,166.928Z" transform="translate(-285.386 -131.101)" fill="#d4ecff" opacity="0.4"/>
        <path id="Trazado_114143" data-name="Trazado 114143" d="M291.2,145.371,297.4,141.8a2.105,2.105,0,0,0,.879-1.679h0c0-.647-.394-.944-.879-.664l-6.191,3.574a2.105,2.105,0,0,0-.878,1.679h0C290.326,145.354,290.72,145.651,291.2,145.371Z" transform="translate(-255.322 -131.691)" fill="#d4ecff"/>
        <path id="Trazado_114144" data-name="Trazado 114144" d="M301.963,148.013c0,.647.455.909,1.015.586a2.242,2.242,0,0,0,1.014-1.757c0-.647-.454-.91-1.014-.586A2.243,2.243,0,0,0,301.963,148.013Z" transform="translate(-271.356 -132.46)" fill="#173d7a"/>
        <path id="Trazado_114145" data-name="Trazado 114145" d="M306,150.345c0,.647.455.909,1.015.585a2.243,2.243,0,0,0,1.015-1.757c0-.647-.455-.91-1.015-.586A2.244,2.244,0,0,0,306,150.345Z" transform="translate(-278.972 -132.725)" fill="#fff"/>
        <path id="Trazado_114146" data-name="Trazado 114146" d="M310.038,152.676c0,.647.455.91,1.015.586a2.244,2.244,0,0,0,1.015-1.758c0-.647-.455-.909-1.015-.586A2.244,2.244,0,0,0,310.038,152.676Z" transform="translate(-286.59 -132.989)" fill="#d4ecff"/>
        <path id="Trazado_114147" data-name="Trazado 114147" d="M314.076,155.007c0,.647.454.909,1.014.586a2.244,2.244,0,0,0,1.015-1.757c0-.647-.455-.91-1.015-.586A2.242,2.242,0,0,0,314.076,155.007Z" transform="translate(-294.206 -133.254)" fill="#fff"/>
        <path id="Trazado_114148" data-name="Trazado 114148" d="M330.951,166.525l2.085-1.2a1.351,1.351,0,0,0,.564-1.077v-2.206c0-.416-.253-.606-.564-.426l-2.085,1.2a1.349,1.349,0,0,0-.564,1.078V166.1C330.387,166.514,330.639,166.7,330.951,166.525Z" transform="translate(-326.159 -134.211)" fill="#d4ecff"/>
      </g>
      <g id="Grupo_78428" data-name="Grupo 78428" transform="translate(39.831 100.603)">
        <path id="Trazado_114149" data-name="Trazado 114149" d="M286.895,186.173,330.9,160.764a4.268,4.268,0,0,0,1.784-3.408v-8.391c0-1.314-.8-1.917-1.784-1.348l-44.008,25.407a4.272,4.272,0,0,0-1.783,3.408v8.392C285.112,186.137,285.91,186.741,286.895,186.173Z" transform="translate(-285.112 -147.403)" fill="#5793ce"/>
        <path id="Trazado_114150" data-name="Trazado 114150" d="M288.433,183.621l41.48-23.949a2.168,2.168,0,0,0,.905-1.729v-6.308c0-.667-.405-.972-.905-.684L288.433,174.9a2.166,2.166,0,0,0-.905,1.729v6.309C287.528,183.6,287.933,183.909,288.433,183.621Z" transform="translate(-285.386 -147.794)" fill="#d4ecff" opacity="0.4"/>
        <path id="Trazado_114151" data-name="Trazado 114151" d="M291.2,162.064l6.191-3.574a2.105,2.105,0,0,0,.879-1.679h0c0-.646-.394-.944-.879-.664l-6.191,3.574a2.105,2.105,0,0,0-.878,1.679h0C290.326,162.047,290.72,162.344,291.2,162.064Z" transform="translate(-255.322 -148.384)" fill="#d4ecff"/>
        <ellipse id="Elipse_4817" data-name="Elipse 4817" cx="0.828" cy="1.435" rx="0.828" ry="1.435" transform="matrix(-0.866, -0.5, 0.5, -0.866, 31.622, 16.625)" fill="#173d7a"/>
        <path id="Trazado_114152" data-name="Trazado 114152" d="M306,167.038c0,.647.455.91,1.015.586a2.244,2.244,0,0,0,1.015-1.758c0-.647-.455-.91-1.015-.586A2.244,2.244,0,0,0,306,167.038Z" transform="translate(-278.972 -149.418)" fill="#173d7a"/>
        <path id="Trazado_114153" data-name="Trazado 114153" d="M310.038,169.369c0,.647.455.909,1.015.586a2.244,2.244,0,0,0,1.015-1.758c0-.647-.455-.909-1.015-.585A2.243,2.243,0,0,0,310.038,169.369Z" transform="translate(-286.59 -149.682)" fill="#d4ecff"/>
        <path id="Trazado_114154" data-name="Trazado 114154" d="M314.076,171.7c0,.647.454.91,1.014.586a2.243,2.243,0,0,0,1.015-1.757c0-.647-.455-.91-1.015-.586A2.242,2.242,0,0,0,314.076,171.7Z" transform="translate(-294.206 -149.947)" fill="#173d7a"/>
        <path id="Trazado_114155" data-name="Trazado 114155" d="M330.951,183.218l2.085-1.2a1.35,1.35,0,0,0,.564-1.077v-2.206c0-.415-.253-.606-.564-.426l-2.085,1.2a1.349,1.349,0,0,0-.564,1.078v2.206C330.387,183.207,330.639,183.4,330.951,183.218Z" transform="translate(-326.159 -150.904)" fill="#173d7a"/>
      </g>
      <g id="Grupo_78429" data-name="Grupo 78429" transform="translate(39.831 115.4)">
        <path id="Trazado_114156" data-name="Trazado 114156" d="M286.895,202.866,330.9,177.457a4.268,4.268,0,0,0,1.784-3.408v-8.391c0-1.314-.8-1.917-1.784-1.348l-44.008,25.407a4.272,4.272,0,0,0-1.783,3.408v8.391C285.112,202.831,285.91,203.435,286.895,202.866Z" transform="translate(-285.112 -164.096)" fill="#5793ce"/>
        <path id="Trazado_114157" data-name="Trazado 114157" d="M288.433,200.314l41.48-23.949a2.167,2.167,0,0,0,.905-1.729v-6.309c0-.667-.405-.972-.905-.684l-41.48,23.949a2.166,2.166,0,0,0-.905,1.729v6.309C287.528,200.3,287.933,200.6,288.433,200.314Z" transform="translate(-285.386 -164.487)" fill="#d4ecff" opacity="0.4"/>
        <path id="Trazado_114158" data-name="Trazado 114158" d="M291.2,178.757l6.191-3.574a2.1,2.1,0,0,0,.879-1.678h0c0-.647-.394-.945-.879-.665l-6.191,3.574a2.105,2.105,0,0,0-.878,1.679h0C290.326,178.74,290.72,179.038,291.2,178.757Z" transform="translate(-255.322 -165.077)" fill="#d4ecff"/>
        <path id="Trazado_114159" data-name="Trazado 114159" d="M301.2,182.087c0,1.222.858,1.718,1.917,1.106a4.234,4.234,0,0,0,1.916-3.319c0-1.222-.858-1.718-1.916-1.106A4.234,4.234,0,0,0,301.2,182.087Z" transform="translate(-271.728 -165.733)" fill="#fff"/>
        <path id="Trazado_114160" data-name="Trazado 114160" d="M311.6,187.2c0,.647.454.91,1.014.586a2.244,2.244,0,0,0,1.015-1.757c0-.647-.455-.91-1.015-.586A2.242,2.242,0,0,0,311.6,187.2Z" transform="translate(-289.539 -166.504)" fill="#173d7a"/>
        <path id="Trazado_114161" data-name="Trazado 114161" d="M315.64,189.528c0,.647.454.91,1.014.586a2.243,2.243,0,0,0,1.015-1.757c0-.647-.455-.91-1.015-.586A2.242,2.242,0,0,0,315.64,189.528Z" transform="translate(-297.157 -166.769)" fill="#d4ecff"/>
        <path id="Trazado_114162" data-name="Trazado 114162" d="M319.678,191.86c0,.647.454.909,1.014.586a2.243,2.243,0,0,0,1.015-1.758c0-.647-.454-.91-1.015-.586A2.243,2.243,0,0,0,319.678,191.86Z" transform="translate(-304.774 -167.034)" fill="#173d7a"/>
        <path id="Trazado_114163" data-name="Trazado 114163" d="M330.951,199.912l2.085-1.2a1.352,1.352,0,0,0,.564-1.078v-2.206c0-.415-.253-.605-.564-.426l-2.085,1.2a1.349,1.349,0,0,0-.564,1.078v2.206C330.387,199.9,330.639,200.092,330.951,199.912Z" transform="translate(-326.159 -167.598)" fill="#d4ecff"/>
      </g>
    </g>
    <g id="Grupo_78462" data-name="Grupo 78462" transform="translate(-2355.666 -1493.804)">
      <g id="Grupo_78458" data-name="Grupo 78458" transform="translate(0)">
        <path id="Trazado_114188" data-name="Trazado 114188" d="M375.975,312.323,459.5,264.1c2.363-1.364,2.066-3.747-.662-5.322l-56.877-32.827c-2.729-1.576-6.856-1.746-9.219-.383l-83.529,48.226c-2.363,1.364-2.066,3.747.662,5.323l56.877,32.827C369.485,313.516,373.612,313.687,375.975,312.323Z" transform="translate(-286.433 -139.619)" fill="#b2d3ea" opacity="0.386"/>
        <path id="Trazado_114189" data-name="Trazado 114189" d="M409.249,155.163l83.529-48.226a3.374,3.374,0,0,1,2.831-.347l-.005-.009.152.058.037.014,3.018,1.155-2.709,1.326c.012.05.028.1.039.147l13.606,61.932c.68,3.1-.682,6.717-3.046,8.082l-81.52,47.066.291,3.454-3.3-1.278a4.636,4.636,0,0,1-2.363-3.361L406.2,163.246C405.523,160.146,406.887,156.527,409.249,155.163Z" transform="translate(-406.029 -106.422)" fill="#173d7a"/>
        <path id="Trazado_114190" data-name="Trazado 114190" d="M415.361,155.163l83.529-48.226a3.374,3.374,0,0,1,2.831-.347l-.005-.009.152.058.037.014,3.018,1.155-2.709,1.326c.012.05.028.1.039.147l8.967,40.817-40.87,31.841-57.627-23.449A6.49,6.49,0,0,1,415.361,155.163Z" transform="translate(-412.14 -106.422)" fill="#396caa"/>
        <path id="Trazado_114191" data-name="Trazado 114191" d="M539.259,183.888l-6.358-2.707a7.966,7.966,0,0,1,2.576-6.367l10.065,4.234Z" transform="translate(-532.889 -125.626)" fill="#274f89"/>
        <path id="Trazado_114192" data-name="Trazado 114192" d="M418.088,229.942l83.529-48.226c2.363-1.364,3.727-4.983,3.046-8.082L491.057,111.7c-.681-3.1-3.149-4.506-5.512-3.142l-83.529,48.226c-2.363,1.364-3.726,4.983-3.045,8.082L412.577,226.8C413.258,229.9,415.725,231.307,418.088,229.942Z" transform="translate(-395.744 -106.876)" fill="#d4ecff"/>
        <path id="Trazado_114193" data-name="Trazado 114193" d="M421.226,227.109l78.557-45.333c2.163-1.249,3.41-4.56,2.787-7.4l-12.45-56.673c-.623-2.837-2.881-4.123-5.043-2.875l-78.558,45.332c-2.162,1.249-3.41,4.56-2.787,7.4l12.451,56.672C416.806,227.071,419.063,228.358,421.226,227.109Z" transform="translate(-397.07 -108.65)" fill="#fff"/>
        <path id="Trazado_114194" data-name="Trazado 114194" d="M421.226,227.109l78.557-45.333c2.163-1.249,3.41-4.56,2.787-7.4l-12.45-56.673c-.623-2.837-2.881-4.123-5.043-2.875l-78.558,45.332c-2.162,1.249-3.41,4.56-2.787,7.4l12.451,56.672C416.806,227.071,419.063,228.358,421.226,227.109Z" transform="translate(-397.07 -108.65)" fill="#fff"/>
        <path id="Trazado_114195" data-name="Trazado 114195" d="M307.629,262.9l11.418-1.507,73.7-42.553c2.363-1.364,6.491-1.193,9.219.382L454.2,249.358l6.9-.911v3.917h-.006a2.689,2.689,0,0,1-1.585,2.419L375.98,303.01c-2.363,1.364-6.49,1.193-9.219-.382L309.884,269.8c-1.535-.887-2.3-2.028-2.255-3.1h0Z" transform="translate(-286.438 -137.729)" fill="#173d7a"/>
        <path id="Trazado_114196" data-name="Trazado 114196" d="M307.627,241.891l5.236-3.023h57.571l28.382,16.375,6.9-.911v3.917h-.006a2.689,2.689,0,0,1-1.585,2.419L320.6,308.895a8.646,8.646,0,0,1-4.758.892Z" transform="translate(-231.057 -143.613)" fill="#396caa"/>
        <path id="Trazado_114197" data-name="Trazado 114197" d="M307.627,260.773l3.064-.4v3.917h-.006a2.689,2.689,0,0,1-1.585,2.419l-1.472.85Z" transform="translate(-136.028 -149.651)" fill="#5793ce"/>
        <path id="Trazado_114198" data-name="Trazado 114198" d="M434.985,333.178a10.7,10.7,0,0,1-7.833-.486v-8.737h7.833Z" transform="translate(-346.284 -167.506)" fill="#274f89"/>
        <path id="Trazado_114199" data-name="Trazado 114199" d="M375.975,296.563,459.5,248.337c2.363-1.364,2.066-3.747-.662-5.323l-56.877-32.827c-2.729-1.575-6.856-1.746-9.219-.382l-83.529,48.226c-2.363,1.364-2.066,3.747.662,5.322l56.877,32.827C369.485,297.755,373.612,297.926,375.975,296.563Z" transform="translate(-286.433 -135.194)" fill="#d4ecff"/>
        <path id="Trazado_114200" data-name="Trazado 114200" d="M309.882,276.141l56.877,32.827c2.729,1.575,6.855,1.746,9.219.382l83.529-48.225a3.109,3.109,0,0,0,1.469-1.607c.37,1.118-.1,2.248-1.469,3.038l-83.529,48.226c-2.363,1.364-6.49,1.193-9.219-.383l-56.877-32.827c-1.834-1.059-2.564-2.481-2.131-3.715A4.44,4.44,0,0,0,309.882,276.141Z" transform="translate(-286.435 -149.411)" fill="#fff"/>
        <g id="Grupo_78457" data-name="Grupo 78457" transform="translate(29.715 76.661)">
          <path id="Trazado_114201" data-name="Trazado 114201" d="M359.632,239.352l3.779-2.182c.3-.175.265-.481-.085-.684l-4.461-2.575a1.315,1.315,0,0,0-1.184-.049l-3.779,2.182c-.3.175-.265.481.085.683l4.461,2.576A1.318,1.318,0,0,0,359.632,239.352Z" transform="translate(-251.802 -218.835)" fill="#173d7a"/>
          <path id="Trazado_114202" data-name="Trazado 114202" d="M367.747,244.037l3.779-2.182c.3-.175.265-.481-.085-.683L366.98,238.6a1.316,1.316,0,0,0-1.184-.05l-3.779,2.182c-.3.175-.265.482.085.684l4.461,2.575A1.315,1.315,0,0,0,367.747,244.037Z" transform="translate(-265.754 -220.15)" fill="#173d7a"/>
          <path id="Trazado_114203" data-name="Trazado 114203" d="M375.862,248.723l3.779-2.183c.3-.175.265-.481-.086-.683l-4.46-2.575a1.315,1.315,0,0,0-1.184-.049l-3.779,2.182c-.3.175-.265.481.085.683l4.461,2.575A1.315,1.315,0,0,0,375.862,248.723Z" transform="translate(-279.705 -221.466)" fill="#173d7a"/>
          <path id="Trazado_114204" data-name="Trazado 114204" d="M386.37,245.015l3.779-2.182c.3-.175.265-.481-.085-.683l-3.745-2.162a1.313,1.313,0,0,0-1.184-.049l-3.779,2.181c-.3.175-.265.482.085.684l3.745,2.162A1.315,1.315,0,0,0,386.37,245.015Z" transform="translate(-298.285 -220.541)" fill="#173d7a"/>
          <path id="Trazado_114205" data-name="Trazado 114205" d="M394.485,249.7l3.779-2.182c.3-.175.265-.482-.086-.684l-3.744-2.162a1.317,1.317,0,0,0-1.185-.049l-3.779,2.182c-.3.175-.266.481.085.683l3.744,2.162A1.317,1.317,0,0,0,394.485,249.7Z" transform="translate(-312.237 -221.857)" fill="#173d7a"/>
          <path id="Trazado_114206" data-name="Trazado 114206" d="M402.6,254.386l3.779-2.182c.3-.175.265-.481-.085-.683l-3.745-2.163a1.315,1.315,0,0,0-1.184-.049l-3.779,2.182c-.3.175-.265.481.085.684l3.745,2.162A1.318,1.318,0,0,0,402.6,254.386Z" transform="translate(-326.189 -223.172)" fill="#173d7a"/>
          <path id="Trazado_114207" data-name="Trazado 114207" d="M410.715,259.071l3.779-2.182c.3-.175.265-.481-.085-.683l-3.745-2.162a1.316,1.316,0,0,0-1.184-.05l-3.779,2.182c-.3.175-.265.482.085.684l3.745,2.162A1.315,1.315,0,0,0,410.715,259.071Z" transform="translate(-340.14 -224.488)" fill="#173d7a"/>
          <path id="Trazado_114208" data-name="Trazado 114208" d="M418.831,263.756l3.779-2.181c.3-.176.265-.481-.085-.684l-3.745-2.162a1.315,1.315,0,0,0-1.184-.049l-3.779,2.182c-.3.175-.265.481.085.683l3.745,2.162A1.313,1.313,0,0,0,418.831,263.756Z" transform="translate(-354.092 -225.804)" fill="#173d7a"/>
          <path id="Trazado_114209" data-name="Trazado 114209" d="M426.946,268.442l3.779-2.182c.3-.175.265-.481-.086-.684l-3.744-2.162a1.317,1.317,0,0,0-1.185-.049l-3.779,2.182c-.3.175-.265.481.085.684l3.745,2.162A1.318,1.318,0,0,0,426.946,268.442Z" transform="translate(-368.043 -227.119)" fill="#173d7a"/>
          <path id="Trazado_114210" data-name="Trazado 114210" d="M435.062,273.127l3.779-2.182c.3-.175.265-.481-.085-.683l-3.745-2.162a1.315,1.315,0,0,0-1.184-.05l-3.779,2.182c-.3.175-.265.482.085.684l3.745,2.162A1.316,1.316,0,0,0,435.062,273.127Z" transform="translate(-381.996 -228.435)" fill="#173d7a"/>
          <path id="Trazado_114211" data-name="Trazado 114211" d="M443.177,277.813l3.779-2.182c.3-.176.265-.481-.085-.684l-3.745-2.162a1.315,1.315,0,0,0-1.184-.049l-3.779,2.182c-.3.175-.265.481.085.683l3.745,2.162A1.315,1.315,0,0,0,443.177,277.813Z" transform="translate(-395.947 -229.751)" fill="#173d7a"/>
          <path id="Trazado_114212" data-name="Trazado 114212" d="M451.292,282.5l3.779-2.182c.3-.176.265-.481-.085-.684l-3.745-2.162a1.318,1.318,0,0,0-1.184-.049l-3.779,2.182c-.3.176-.265.481.085.683l3.745,2.163A1.315,1.315,0,0,0,451.292,282.5Z" transform="translate(-409.898 -231.066)" fill="#173d7a"/>
          <path id="Trazado_114213" data-name="Trazado 114213" d="M459.407,287.183,463.186,285c.3-.175.265-.481-.086-.683l-3.744-2.162a1.313,1.313,0,0,0-1.184-.049l-3.779,2.181c-.3.175-.265.481.085.684l3.745,2.162A1.316,1.316,0,0,0,459.407,287.183Z" transform="translate(-423.85 -232.382)" fill="#173d7a"/>
          <path id="Trazado_114214" data-name="Trazado 114214" d="M398.327,242.8l3.779-2.182c.3-.175.265-.481-.086-.683l-3.744-2.162a1.317,1.317,0,0,0-1.185-.05l-3.779,2.182c-.3.175-.265.481.086.684l3.744,2.162A1.317,1.317,0,0,0,398.327,242.8Z" transform="translate(-318.842 -219.918)" fill="#396caa"/>
          <path id="Trazado_114215" data-name="Trazado 114215" d="M390.091,238.042l3.779-2.182c.3-.175.265-.481-.085-.684l-3.745-2.162a1.315,1.315,0,0,0-1.184-.049l-3.779,2.182c-.3.175-.265.481.085.683l3.745,2.163A1.318,1.318,0,0,0,390.091,238.042Z" transform="translate(-304.682 -218.583)" fill="#396caa"/>
          <path id="Trazado_114216" data-name="Trazado 114216" d="M375.778,232.3l8.14-4.7c.3-.175.265-.481-.086-.683l-3.744-2.162a1.317,1.317,0,0,0-1.185-.05l-8.139,4.7c-.3.175-.265.481.085.683l3.745,2.162A1.315,1.315,0,0,0,375.778,232.3Z" transform="translate(-284.436 -216.262)" fill="#173d7a"/>
          <path id="Trazado_114217" data-name="Trazado 114217" d="M383.677,226.849l6.606-3.814c.3-.175.265-.481-.085-.683l-3.745-2.162a1.315,1.315,0,0,0-1.184-.049l-6.606,3.813c-.3.175-.265.481.085.684l3.745,2.162A1.316,1.316,0,0,0,383.677,226.849Z" transform="translate(-296.483 -214.982)" fill="#173d7a"/>
          <path id="Trazado_114218" data-name="Trazado 114218" d="M406.443,247.482l3.779-2.182c.3-.175.265-.481-.085-.683l-3.745-2.162a1.313,1.313,0,0,0-1.184-.049l-3.779,2.181c-.3.176-.265.482.085.684l3.745,2.162A1.315,1.315,0,0,0,406.443,247.482Z" transform="translate(-332.794 -221.234)" fill="#396caa"/>
          <path id="Trazado_114219" data-name="Trazado 114219" d="M414.558,252.168l3.779-2.182c.3-.176.265-.481-.085-.684l-3.745-2.162a1.315,1.315,0,0,0-1.184-.049l-3.779,2.182c-.3.175-.265.481.085.683l3.745,2.162A1.316,1.316,0,0,0,414.558,252.168Z" transform="translate(-346.745 -222.549)" fill="#173d7a"/>
          <path id="Trazado_114220" data-name="Trazado 114220" d="M422.672,256.853l3.779-2.182c.3-.176.265-.481-.085-.683l-3.745-2.163a1.318,1.318,0,0,0-1.184-.049l-3.779,2.182c-.3.176-.265.481.085.684l3.745,2.162A1.316,1.316,0,0,0,422.672,256.853Z" transform="translate(-360.697 -223.865)" fill="#173d7a"/>
          <path id="Trazado_114221" data-name="Trazado 114221" d="M430.788,261.538l3.779-2.182c.3-.175.265-.481-.086-.683l-3.744-2.162a1.315,1.315,0,0,0-1.185-.049l-3.779,2.181c-.3.175-.265.482.086.684l3.744,2.162A1.317,1.317,0,0,0,430.788,261.538Z" transform="translate(-374.649 -225.181)" fill="#173d7a"/>
          <path id="Trazado_114222" data-name="Trazado 114222" d="M438.9,266.224l3.779-2.182c.3-.175.265-.481-.085-.684l-3.745-2.162a1.316,1.316,0,0,0-1.184-.049l-3.779,2.182c-.3.175-.265.481.085.683l3.745,2.162A1.316,1.316,0,0,0,438.9,266.224Z" transform="translate(-388.601 -226.497)" fill="#173d7a"/>
          <path id="Trazado_114223" data-name="Trazado 114223" d="M447.018,270.909l3.779-2.182c.3-.176.265-.481-.085-.683l-3.745-2.162a1.316,1.316,0,0,0-1.184-.05L442,268.014c-.3.175-.265.481.085.684l3.745,2.162A1.315,1.315,0,0,0,447.018,270.909Z" transform="translate(-402.552 -227.812)" fill="#173d7a"/>
          <path id="Trazado_114224" data-name="Trazado 114224" d="M455.134,275.594l3.779-2.182c.3-.175.265-.481-.085-.683l-3.745-2.162a1.315,1.315,0,0,0-1.184-.049L450.12,272.7c-.3.175-.265.481.085.683l3.745,2.162A1.315,1.315,0,0,0,455.134,275.594Z" transform="translate(-416.503 -229.128)" fill="#173d7a"/>
          <path id="Trazado_114225" data-name="Trazado 114225" d="M463.249,280.28l3.779-2.182c.3-.175.265-.481-.086-.684l-3.744-2.162a1.317,1.317,0,0,0-1.185-.049l-3.779,2.182c-.3.175-.265.481.086.683l3.744,2.162A1.317,1.317,0,0,0,463.249,280.28Z" transform="translate(-430.456 -230.443)" fill="#173d7a"/>
          <path id="Trazado_114226" data-name="Trazado 114226" d="M471.365,284.965l3.779-2.182c.3-.176.265-.481-.085-.683l-3.745-2.162a1.316,1.316,0,0,0-1.184-.05l-3.779,2.182c-.3.175-.265.481.085.684l3.745,2.162A1.315,1.315,0,0,0,471.365,284.965Z" transform="translate(-444.408 -231.759)" fill="#173d7a"/>
          <path id="Trazado_114227" data-name="Trazado 114227" d="M479.581,292.288l8.246-4.761c.3-.175.265-.481-.085-.684L484,284.681a1.315,1.315,0,0,0-1.184-.049l-8.246,4.761c-.3.175-.265.481.085.683l3.745,2.162A1.318,1.318,0,0,0,479.581,292.288Z" transform="translate(-463 -233.091)" fill="#173d7a"/>
          <path id="Trazado_114228" data-name="Trazado 114228" d="M497.168,283.456l6.96-4.019c.3-.175.265-.481-.086-.683l-3.744-2.162a1.317,1.317,0,0,0-1.185-.049l-6.96,4.018c-.3.175-.265.481.085.683l3.745,2.162A1.315,1.315,0,0,0,497.168,283.456Z" transform="translate(-491.95 -230.82)" fill="#173d7a"/>
          <path id="Trazado_114229" data-name="Trazado 114229" d="M420.654,246.566l3.779-2.182c.3-.175.265-.482-.085-.684l-3.745-2.162a1.315,1.315,0,0,0-1.184-.049l-3.779,2.182c-.3.175-.265.481.085.683l3.745,2.162A1.315,1.315,0,0,0,420.654,246.566Z" transform="translate(-357.226 -220.976)" fill="#173d7a"/>
          <path id="Trazado_114230" data-name="Trazado 114230" d="M412.336,241.764l3.779-2.182c.3-.175.265-.481-.085-.684l-3.745-2.162a1.315,1.315,0,0,0-1.184-.049l-3.779,2.182c-.3.175-.265.481.085.683l3.745,2.162A1.316,1.316,0,0,0,412.336,241.764Z" transform="translate(-342.927 -219.628)" fill="#173d7a"/>
          <path id="Trazado_114231" data-name="Trazado 114231" d="M404.02,236.962l3.779-2.182c.3-.175.265-.481-.085-.684l-3.745-2.162a1.317,1.317,0,0,0-1.184-.049l-3.779,2.182c-.3.175-.265.481.085.683l3.745,2.163A1.318,1.318,0,0,0,404.02,236.962Z" transform="translate(-328.629 -218.28)" fill="#396caa"/>
          <path id="Trazado_114232" data-name="Trazado 114232" d="M395.7,232.16l3.779-2.182c.3-.175.265-.481-.085-.683l-3.745-2.163a1.318,1.318,0,0,0-1.184-.049l-3.779,2.182c-.3.175-.265.481.085.683l3.745,2.163A1.315,1.315,0,0,0,395.7,232.16Z" transform="translate(-314.33 -216.931)" fill="#173d7a"/>
          <path id="Trazado_114233" data-name="Trazado 114233" d="M428.77,251.251l3.779-2.182c.3-.175.265-.481-.085-.683l-3.745-2.163a1.318,1.318,0,0,0-1.184-.049l-3.779,2.182c-.3.175-.265.481.086.683l3.744,2.163A1.319,1.319,0,0,0,428.77,251.251Z" transform="translate(-371.179 -222.292)" fill="#173d7a"/>
          <path id="Trazado_114234" data-name="Trazado 114234" d="M436.884,255.936l3.779-2.182c.3-.175.265-.481-.085-.683l-3.745-2.162a1.315,1.315,0,0,0-1.184-.049l-3.779,2.182c-.3.175-.265.481.085.683l3.745,2.162A1.315,1.315,0,0,0,436.884,255.936Z" transform="translate(-385.13 -223.608)" fill="#173d7a"/>
          <path id="Trazado_114235" data-name="Trazado 114235" d="M445,260.622l3.779-2.182c.3-.175.265-.481-.085-.684l-3.745-2.162a1.315,1.315,0,0,0-1.184-.049l-3.779,2.182c-.3.175-.265.481.085.683l3.745,2.162A1.316,1.316,0,0,0,445,260.622Z" transform="translate(-399.081 -224.923)" fill="#173d7a"/>
          <path id="Trazado_114236" data-name="Trazado 114236" d="M453.115,265.307l3.779-2.182c.3-.175.265-.481-.085-.683l-3.745-2.163a1.318,1.318,0,0,0-1.184-.049l-3.779,2.182c-.3.175-.265.481.085.684l3.745,2.162A1.318,1.318,0,0,0,453.115,265.307Z" transform="translate(-413.032 -226.239)" fill="#173d7a"/>
          <path id="Trazado_114237" data-name="Trazado 114237" d="M461.23,269.992l3.779-2.182c.3-.175.265-.481-.086-.683l-3.744-2.162a1.317,1.317,0,0,0-1.185-.05l-3.779,2.183c-.3.175-.265.481.086.683l3.744,2.162A1.317,1.317,0,0,0,461.23,269.992Z" transform="translate(-426.985 -227.555)" fill="#173d7a"/>
          <path id="Trazado_114238" data-name="Trazado 114238" d="M469.345,274.678l3.779-2.182c.3-.175.265-.481-.085-.684L469.3,269.65a1.315,1.315,0,0,0-1.184-.049l-3.779,2.182c-.3.175-.265.481.085.683l3.745,2.162A1.316,1.316,0,0,0,469.345,274.678Z" transform="translate(-440.937 -228.87)" fill="#173d7a"/>
          <path id="Trazado_114239" data-name="Trazado 114239" d="M477.461,279.363l3.779-2.182c.3-.176.265-.481-.085-.683l-3.745-2.163a1.318,1.318,0,0,0-1.184-.049l-3.779,2.182c-.3.175-.265.481.085.684l3.745,2.162A1.315,1.315,0,0,0,477.461,279.363Z" transform="translate(-454.888 -230.186)" fill="#173d7a"/>
          <path id="Trazado_114240" data-name="Trazado 114240" d="M485.576,284.048l3.779-2.182c.3-.175.265-.481-.085-.683l-3.745-2.162a1.318,1.318,0,0,0-1.184-.05l-3.779,2.182c-.3.176-.265.482.085.684L484.392,284A1.315,1.315,0,0,0,485.576,284.048Z" transform="translate(-468.839 -231.502)" fill="#173d7a"/>
          <path id="Trazado_114241" data-name="Trazado 114241" d="M493.691,288.734l3.779-2.182c.3-.175.265-.481-.086-.684l-3.744-2.162a1.317,1.317,0,0,0-1.185-.049l-3.779,2.182c-.3.175-.265.481.086.683l3.744,2.162A1.317,1.317,0,0,0,493.691,288.734Z" transform="translate(-482.791 -232.817)" fill="#173d7a"/>
          <path id="Trazado_114242" data-name="Trazado 114242" d="M416.38,234.977l3.779-2.182c.3-.175.265-.481-.085-.684l-3.745-2.162a1.315,1.315,0,0,0-1.184-.049l-3.779,2.182c-.3.175-.265.481.085.683l3.745,2.162A1.315,1.315,0,0,0,416.38,234.977Z" transform="translate(-349.879 -217.722)" fill="#173d7a"/>
          <path id="Trazado_114243" data-name="Trazado 114243" d="M408.306,230.315l3.779-2.182c.3-.176.265-.481-.085-.684l-3.745-2.162a1.315,1.315,0,0,0-1.184-.049l-3.779,2.182c-.3.175-.265.481.085.683l3.745,2.162A1.316,1.316,0,0,0,408.306,230.315Z" transform="translate(-335.997 -216.413)" fill="#173d7a"/>
          <path id="Trazado_114244" data-name="Trazado 114244" d="M400.231,225.653l3.779-2.182c.3-.176.265-.481-.086-.684l-3.744-2.162a1.316,1.316,0,0,0-1.184-.049l-3.779,2.182c-.3.175-.265.481.085.683l3.745,2.162A1.316,1.316,0,0,0,400.231,225.653Z" transform="translate(-322.115 -215.104)" fill="#173d7a"/>
          <path id="Trazado_114245" data-name="Trazado 114245" d="M392.156,220.991l3.779-2.182c.3-.175.265-.481-.086-.684l-3.744-2.162a1.317,1.317,0,0,0-1.184-.049l-3.779,2.182c-.3.175-.265.481.086.683l3.744,2.162A1.317,1.317,0,0,0,392.156,220.991Z" transform="translate(-308.233 -213.795)" fill="#173d7a"/>
          <path id="Trazado_114246" data-name="Trazado 114246" d="M397.952,216.762l3.779-2.182c.3-.175.265-.481-.085-.684l-1.238-.715a1.318,1.318,0,0,0-1.184-.049l-3.779,2.182c-.3.175-.265.481.085.684l1.238.714A1.315,1.315,0,0,0,397.952,216.762Z" transform="translate(-320.001 -213.014)" fill="#173d7a"/>
          <path id="Trazado_114247" data-name="Trazado 114247" d="M408.49,222.846l3.779-2.182c.3-.175.265-.482-.085-.684l-1.238-.714a1.316,1.316,0,0,0-1.184-.05l-3.779,2.182c-.3.175-.265.481.085.684l1.238.714A1.316,1.316,0,0,0,408.49,222.846Z" transform="translate(-338.118 -214.722)" fill="#173d7a"/>
          <path id="Trazado_114248" data-name="Trazado 114248" d="M416.531,227.488l3.779-2.182c.3-.175.265-.481-.085-.683l-1.238-.715a1.315,1.315,0,0,0-1.184-.049l-3.779,2.182c-.3.175-.265.481.085.683l1.238.715A1.315,1.315,0,0,0,416.531,227.488Z" transform="translate(-351.942 -216.026)" fill="#173d7a"/>
          <path id="Trazado_114249" data-name="Trazado 114249" d="M424.573,232.131l3.779-2.182c.3-.175.265-.481-.085-.684l-1.238-.714a1.317,1.317,0,0,0-1.185-.05l-3.779,2.182c-.3.175-.265.482.086.684l1.238.714A1.315,1.315,0,0,0,424.573,232.131Z" transform="translate(-365.766 -217.329)" fill="#173d7a"/>
          <path id="Trazado_114250" data-name="Trazado 114250" d="M432.614,236.773l3.779-2.182c.3-.175.265-.481-.085-.683l-1.238-.715a1.315,1.315,0,0,0-1.184-.049l-3.779,2.182c-.3.175-.265.481.085.683l1.238.715A1.315,1.315,0,0,0,432.614,236.773Z" transform="translate(-379.591 -218.633)" fill="#173d7a"/>
          <path id="Trazado_114251" data-name="Trazado 114251" d="M477.507,262.692l3.779-2.182c.3-.175.265-.481-.085-.683l-1.238-.715a1.315,1.315,0,0,0-1.184-.049L475,261.245c-.3.175-.265.481.085.683l1.238.715A1.315,1.315,0,0,0,477.507,262.692Z" transform="translate(-456.771 -225.911)" fill="#173d7a"/>
          <path id="Trazado_114252" data-name="Trazado 114252" d="M485.548,267.335l3.779-2.182c.3-.175.265-.481-.086-.683L488,263.755a1.315,1.315,0,0,0-1.184-.049l-3.779,2.181c-.3.175-.265.482.085.684l1.238.715A1.318,1.318,0,0,0,485.548,267.335Z" transform="translate(-470.595 -227.215)" fill="#173d7a"/>
          <path id="Trazado_114253" data-name="Trazado 114253" d="M493.589,271.978l3.779-2.182c.3-.176.265-.482-.085-.684l-1.238-.715a1.318,1.318,0,0,0-1.184-.049l-3.779,2.182c-.3.176-.265.481.085.683l1.238.715A1.315,1.315,0,0,0,493.589,271.978Z" transform="translate(-484.42 -228.519)" fill="#173d7a"/>
          <path id="Trazado_114254" data-name="Trazado 114254" d="M501.63,276.62l3.779-2.182c.3-.175.265-.481-.085-.683l-1.238-.715a1.315,1.315,0,0,0-1.184-.049l-3.779,2.182c-.3.175-.265.481.085.683l1.238.715A1.315,1.315,0,0,0,501.63,276.62Z" transform="translate(-498.244 -229.822)" fill="#173d7a"/>
          <path id="Trazado_114255" data-name="Trazado 114255" d="M424.5,239.662l3.779-2.182c.3-.175.265-.481-.086-.683l-3.744-2.162a1.316,1.316,0,0,0-1.184-.05l-3.779,2.182c-.3.175-.265.481.085.684l3.745,2.162A1.315,1.315,0,0,0,424.5,239.662Z" transform="translate(-363.831 -219.038)" fill="#173d7a"/>
          <path id="Trazado_114256" data-name="Trazado 114256" d="M432.611,244.347l3.779-2.182c.3-.175.265-.481-.085-.683l-3.745-2.162a1.315,1.315,0,0,0-1.184-.049l-3.779,2.182c-.3.175-.265.481.086.683l3.744,2.162A1.315,1.315,0,0,0,432.611,244.347Z" transform="translate(-377.784 -220.354)" fill="#173d7a"/>
          <path id="Trazado_114257" data-name="Trazado 114257" d="M440.727,249.033l3.779-2.182c.3-.175.265-.481-.085-.684L440.676,244a1.315,1.315,0,0,0-1.184-.049l-3.779,2.182c-.3.176-.265.481.085.683l3.745,2.163A1.317,1.317,0,0,0,440.727,249.033Z" transform="translate(-391.735 -221.669)" fill="#173d7a"/>
          <path id="Trazado_114258" data-name="Trazado 114258" d="M448.842,253.718l3.779-2.182c.3-.175.265-.481-.085-.683l-3.745-2.163a1.318,1.318,0,0,0-1.184-.049l-3.779,2.182c-.3.175-.265.481.085.684l3.745,2.162A1.315,1.315,0,0,0,448.842,253.718Z" transform="translate(-405.686 -222.985)" fill="#173d7a"/>
          <path id="Trazado_114259" data-name="Trazado 114259" d="M456.957,258.4l3.779-2.182c.3-.175.265-.481-.085-.683l-3.745-2.162a1.315,1.315,0,0,0-1.184-.049l-3.779,2.182c-.3.175-.265.481.085.683l3.745,2.162A1.316,1.316,0,0,0,456.957,258.4Z" transform="translate(-419.638 -224.301)" fill="#173d7a"/>
          <path id="Trazado_114260" data-name="Trazado 114260" d="M465.072,263.089l3.779-2.182c.3-.176.265-.481-.085-.684l-3.745-2.162a1.315,1.315,0,0,0-1.184-.049l-3.779,2.182c-.3.175-.265.481.086.683l3.744,2.163A1.318,1.318,0,0,0,465.072,263.089Z" transform="translate(-433.59 -225.616)" fill="#173d7a"/>
          <path id="Trazado_114261" data-name="Trazado 114261" d="M473.188,267.774l3.779-2.182c.3-.175.265-.481-.085-.683l-3.745-2.162a1.316,1.316,0,0,0-1.184-.05l-3.779,2.182c-.3.175-.265.481.085.684L472,267.725A1.315,1.315,0,0,0,473.188,267.774Z" transform="translate(-447.542 -226.932)" fill="#173d7a"/>
          <path id="Trazado_114262" data-name="Trazado 114262" d="M481.3,272.459l3.779-2.182c.3-.175.265-.481-.085-.683l-3.745-2.162a1.315,1.315,0,0,0-1.184-.049l-3.779,2.182c-.3.175-.265.481.085.683l3.745,2.162A1.315,1.315,0,0,0,481.3,272.459Z" transform="translate(-461.493 -228.248)" fill="#173d7a"/>
          <path id="Trazado_114263" data-name="Trazado 114263" d="M489.418,277.145l3.779-2.182c.3-.175.265-.481-.085-.684l-3.745-2.162a1.315,1.315,0,0,0-1.184-.049L484.4,274.25c-.3.175-.265.481.085.683l3.745,2.162A1.316,1.316,0,0,0,489.418,277.145Z" transform="translate(-475.444 -229.563)" fill="#173d7a"/>
          <path id="Trazado_114264" data-name="Trazado 114264" d="M367.879,238.583l11.13-6.427c.3-.175.265-.481-.085-.683l-3.745-2.162a1.315,1.315,0,0,0-1.184-.05l-11.13,6.427c-.3.175-.265.481.085.683l3.745,2.162A1.318,1.318,0,0,0,367.879,238.583Z" transform="translate(-273.846 -217.543)" fill="#173d7a"/>
          <path id="Trazado_114265" data-name="Trazado 114265" d="M467.576,296.144l11.131-6.426c.3-.176.265-.481-.086-.684l-3.744-2.162a1.317,1.317,0,0,0-1.185-.049l-11.13,6.426c-.3.176-.265.481.085.684l3.745,2.162A1.315,1.315,0,0,0,467.576,296.144Z" transform="translate(-445.246 -233.706)" fill="#173d7a"/>
          <path id="Trazado_114266" data-name="Trazado 114266" d="M446.06,289.251l3.779-2.182c.3-.175.265-.481-.085-.683l-4.461-2.575a1.316,1.316,0,0,0-1.184-.05l-3.779,2.182c-.3.175-.265.481.085.684l4.461,2.575A1.315,1.315,0,0,0,446.06,289.251Z" transform="translate(-400.389 -232.847)" fill="#173d7a"/>
          <path id="Trazado_114267" data-name="Trazado 114267" d="M383.978,254.716l6.044-3.49c.3-.175.265-.481-.085-.684l-4.46-2.575a1.319,1.319,0,0,0-1.185-.049l-6.044,3.49c-.3.175-.265.481.085.684l4.461,2.575A1.315,1.315,0,0,0,383.978,254.716Z" transform="translate(-295.923 -222.782)" fill="#173d7a"/>
          <path id="Trazado_114268" data-name="Trazado 114268" d="M435.092,284.227l6.044-3.49c.3-.175.265-.482-.085-.684l-4.46-2.575a1.317,1.317,0,0,0-1.185-.049l-6.044,3.49c-.3.175-.265.481.086.683l4.46,2.575A1.316,1.316,0,0,0,435.092,284.227Z" transform="translate(-383.797 -231.069)" fill="#173d7a"/>
          <path id="Trazado_114269" data-name="Trazado 114269" d="M395.686,261.476l6.044-3.49c.3-.176.265-.481-.085-.684l-4.461-2.575a1.315,1.315,0,0,0-1.184-.049l-6.044,3.49c-.3.176-.265.481.085.684l4.461,2.575A1.315,1.315,0,0,0,395.686,261.476Z" transform="translate(-316.051 -224.68)" fill="#173d7a"/>
          <path id="Trazado_114270" data-name="Trazado 114270" d="M416.616,254.757l-26.279,15.172a.36.36,0,0,0,0,.682l4.549,2.626a1.3,1.3,0,0,0,1.181,0l26.279-15.171Z" transform="translate(-336.708 -224.735)" fill="#173d7a"/>
          <path id="Trazado_114271" data-name="Trazado 114271" d="M468.506,299.9l-4.209,2.431c-.249.143-.218.394.07.56l1.825,1.053a1.076,1.076,0,0,0,.97.04l4.21-2.43c.249-.144.217-.394-.07-.56l-1.825-1.054A1.08,1.08,0,0,0,468.506,299.9Z" transform="translate(-439.147 -237.384)" fill="#173d7a"/>
          <path id="Trazado_114272" data-name="Trazado 114272" d="M460.324,295.174l-4.21,2.43c-.248.144-.217.395.07.56l1.825,1.054a1.076,1.076,0,0,0,.97.04l4.209-2.43c.249-.144.218-.395-.07-.56l-1.825-1.054A1.076,1.076,0,0,0,460.324,295.174Z" transform="translate(-425.08 -236.058)" fill="#173d7a"/>
          <path id="Trazado_114273" data-name="Trazado 114273" d="M452.209,290.489,448,292.919c-.249.144-.218.394.07.56l1.825,1.054a1.076,1.076,0,0,0,.97.04l4.21-2.431c.248-.143.217-.394-.07-.56l-1.825-1.053A1.076,1.076,0,0,0,452.209,290.489Z" transform="translate(-411.128 -234.742)" fill="#173d7a"/>
          <path id="Trazado_114274" data-name="Trazado 114274" d="M464.805,292.587l-4.209,2.43c-.249.144-.218.394.07.56l1.825,1.054a1.076,1.076,0,0,0,.97.04l4.21-2.431c.249-.143.217-.394-.07-.56l-1.825-1.053A1.078,1.078,0,0,0,464.805,292.587Z" transform="translate(-432.785 -235.331)" fill="#173d7a"/>
        </g>
      </g>
      <g id="Grupo_78461" data-name="Grupo 78461" transform="translate(15.282 17.37)">
        <g id="Grupo_78459" data-name="Grupo 78459" transform="translate(14.536)">
          <path id="Trazado_114275" data-name="Trazado 114275" d="M446.36,146.828l5.585-3.225a1.6,1.6,0,0,0,.682-1.654h0a.777.777,0,0,0-1.2-.57l-5.585,3.225a1.6,1.6,0,0,0-.682,1.653h0A.777.777,0,0,0,446.36,146.828Z" transform="translate(-406.708 -133.573)" fill="#d4ecff"/>
          <path id="Trazado_114276" data-name="Trazado 114276" d="M461.173,156.911l8.236-4.755a1.6,1.6,0,0,0,.682-1.654h0a.777.777,0,0,0-1.2-.57l-8.236,4.755a1.6,1.6,0,0,0-.681,1.654h0A.777.777,0,0,0,461.173,156.911Z" transform="translate(-434.825 -135.975)" fill="#d4ecff"/>
          <path id="Trazado_114277" data-name="Trazado 114277" d="M432.823,183.077l5.585-3.225a1.6,1.6,0,0,0,.682-1.654h0a.777.777,0,0,0-1.2-.57l-5.585,3.225a1.6,1.6,0,0,0-.681,1.654h0A.777.777,0,0,0,432.823,183.077Z" transform="translate(-383.436 -143.752)" fill="#d4ecff"/>
          <path id="Trazado_114278" data-name="Trazado 114278" d="M445.629,192l8.236-4.755a1.6,1.6,0,0,0,.681-1.654h0a.777.777,0,0,0-1.195-.57l-8.236,4.755a1.6,1.6,0,0,0-.682,1.654h0A.777.777,0,0,0,445.629,192Z" transform="translate(-408.1 -145.828)" fill="#d4ecff"/>
          <path id="Trazado_114279" data-name="Trazado 114279" d="M426.367,141.418l3.489-2.014a1.6,1.6,0,0,0,.682-1.654h0a.777.777,0,0,0-1.2-.57l-3.489,2.014a1.6,1.6,0,0,0-.682,1.653h0A.778.778,0,0,0,426.367,141.418Z" transform="translate(-370.239 -132.394)" fill="#d4ecff"/>
          <path id="Trazado_114280" data-name="Trazado 114280" d="M431.347,155.778l10.66-6.155a1.6,1.6,0,0,0,.681-1.654h0a.777.777,0,0,0-1.195-.57l-10.66,6.155a1.6,1.6,0,0,0-.682,1.654h0A.777.777,0,0,0,431.347,155.778Z" transform="translate(-385.972 -135.263)" fill="#d4ecff"/>
          <path id="Trazado_114281" data-name="Trazado 114281" d="M428.355,164.6l3.49-2.014a1.6,1.6,0,0,0,.681-1.654h0a.777.777,0,0,0-1.195-.57l-3.49,2.014a1.6,1.6,0,0,0-.681,1.654h0A.777.777,0,0,0,428.355,164.6Z" transform="translate(-373.658 -138.903)" fill="#d4ecff"/>
          <path id="Trazado_114282" data-name="Trazado 114282" d="M446.618,207.885l9.319-5.38a1.6,1.6,0,0,0,.682-1.653h0a.778.778,0,0,0-1.2-.571l-9.319,5.38a1.6,1.6,0,0,0-.682,1.654h0A.777.777,0,0,0,446.618,207.885Z" transform="translate(-410.884 -150.113)" fill="#d4ecff"/>
          <path id="Trazado_114283" data-name="Trazado 114283" d="M425.364,176.839l2.239-1.293a1.6,1.6,0,0,0,.682-1.654h0a.777.777,0,0,0-1.2-.57l-2.239,1.293a1.6,1.6,0,0,0-.682,1.653h0A.778.778,0,0,0,425.364,176.839Z" transform="translate(-367.265 -142.542)" fill="#d4ecff"/>
          <path id="Trazado_114284" data-name="Trazado 114284" d="M422.371,190.112l2.781-1.605a1.6,1.6,0,0,0,.682-1.654h0a.777.777,0,0,0-1.2-.57l-2.781,1.605a1.6,1.6,0,0,0-.681,1.654h0A.777.777,0,0,0,422.371,190.112Z" transform="translate(-362.663 -146.182)" fill="#d4ecff"/>
          <path id="Trazado_114285" data-name="Trazado 114285" d="M431.087,197.772l7.332-4.233a1.6,1.6,0,0,0,.682-1.654h0a.777.777,0,0,0-1.195-.57l-7.333,4.233a1.6,1.6,0,0,0-.681,1.654h0A.777.777,0,0,0,431.087,197.772Z" transform="translate(-382.198 -147.595)" fill="#d4ecff"/>
          <path id="Trazado_114286" data-name="Trazado 114286" d="M420.876,198.03l5.272-3.044a1.6,1.6,0,0,0,.682-1.654h0a.777.777,0,0,0-1.2-.57l-5.272,3.044a1.6,1.6,0,0,0-.682,1.654h0A.777.777,0,0,0,420.876,198.03Z" transform="translate(-362.582 -148.001)" fill="#d4ecff"/>
          <path id="Trazado_114287" data-name="Trazado 114287" d="M465.985,215.673l3.386-1.955a1.6,1.6,0,0,0,.681-1.654h0a.777.777,0,0,0-1.195-.57l-3.386,1.955a1.6,1.6,0,0,0-.681,1.654h0A.777.777,0,0,0,465.985,215.673Z" transform="translate(-438.248 -153.261)" fill="#d4ecff"/>
          <path id="Trazado_114288" data-name="Trazado 114288" d="M438.295,173.7l9.319-5.38a1.6,1.6,0,0,0,.682-1.654h0a.777.777,0,0,0-1.2-.57l-9.319,5.38a1.6,1.6,0,0,0-.682,1.653h0A.778.778,0,0,0,438.295,173.7Z" transform="translate(-396.575 -140.514)" fill="#d4ecff"/>
          <path id="Trazado_114289" data-name="Trazado 114289" d="M429.851,165.481l16.242-9.378a1.6,1.6,0,0,0,.681-1.653h0a.777.777,0,0,0-1.195-.57l-16.242,9.377a1.6,1.6,0,0,0-.682,1.654h0A.777.777,0,0,0,429.851,165.481Z" transform="translate(-388.982 -137.083)" fill="#d4ecff"/>
          <path id="Trazado_114290" data-name="Trazado 114290" d="M426.859,174.445l9.319-5.38a1.6,1.6,0,0,0,.681-1.653h0a.777.777,0,0,0-1.195-.571l-9.319,5.38a1.6,1.6,0,0,0-.681,1.654h0A.777.777,0,0,0,426.859,174.445Z" transform="translate(-376.916 -140.722)" fill="#d4ecff"/>
          <path id="Trazado_114291" data-name="Trazado 114291" d="M456.371,180.715l3.386-1.955a1.6,1.6,0,0,0,.682-1.654h0a.777.777,0,0,0-1.2-.57l-3.386,1.955a1.6,1.6,0,0,0-.681,1.653h0A.777.777,0,0,0,456.371,180.715Z" transform="translate(-421.72 -143.445)" fill="#d4ecff"/>
          <path id="Trazado_114292" data-name="Trazado 114292" d="M479.672,174.413l20.05-11.576a1.6,1.6,0,0,0,.682-1.654h0a.777.777,0,0,0-1.2-.57l-20.05,11.576a1.6,1.6,0,0,0-.682,1.653h0A.778.778,0,0,0,479.672,174.413Z" transform="translate(-478.442 -138.974)" fill="#d4ecff"/>
          <path id="Trazado_114293" data-name="Trazado 114293" d="M423.868,188.493l11.2-6.468a1.6,1.6,0,0,0,.682-1.653h0a.777.777,0,0,0-1.2-.571l-11.2,6.468a1.6,1.6,0,0,0-.682,1.654h0A.777.777,0,0,0,423.868,188.493Z" transform="translate(-373.656 -144.362)" fill="#d4ecff"/>
          <path id="Trazado_114294" data-name="Trazado 114294" d="M427.863,137.678l8.235-4.755a1.6,1.6,0,0,0,.682-1.654h0a.777.777,0,0,0-1.2-.57l-8.235,4.755a1.6,1.6,0,0,0-.682,1.654h0A.777.777,0,0,0,427.863,137.678Z" transform="translate(-377.557 -130.574)" fill="#d4ecff"/>
          <path id="Trazado_114295" data-name="Trazado 114295" d="M412.9,203.235l9.538-5.507a1.6,1.6,0,0,0,.682-1.653h0a.778.778,0,0,0-1.2-.571l-9.538,5.508a1.6,1.6,0,0,0-.681,1.653h0A.777.777,0,0,0,412.9,203.235Z" transform="translate(-353.142 -148.771)" fill="#d4ecff"/>
        </g>
        <g id="Grupo_78460" data-name="Grupo 78460" transform="translate(0 47.252)">
          <path id="Trazado_114296" data-name="Trazado 114296" d="M508.152,232.078l5.585-3.225a1.6,1.6,0,0,0,.681-1.654h0a.777.777,0,0,0-1.195-.57l-5.585,3.225a1.6,1.6,0,0,0-.682,1.653h0A.778.778,0,0,0,508.152,232.078Z" transform="translate(-498.404 -204.763)" fill="#d4ecff"/>
          <path id="Trazado_114297" data-name="Trazado 114297" d="M506.674,204.779l10.66-6.155a1.6,1.6,0,0,0,.682-1.654h0a.777.777,0,0,0-1.195-.57l-10.661,6.155a1.6,1.6,0,0,0-.681,1.653h0A.777.777,0,0,0,506.674,204.779Z" transform="translate(-500.939 -196.275)" fill="#d4ecff"/>
          <path id="Trazado_114298" data-name="Trazado 114298" d="M503.683,213.6l3.489-2.014a1.6,1.6,0,0,0,.682-1.654h0a.777.777,0,0,0-1.2-.57l-3.489,2.014a1.6,1.6,0,0,0-.682,1.653h0A.778.778,0,0,0,503.683,213.6Z" transform="translate(-488.625 -199.914)" fill="#d4ecff"/>
          <path id="Trazado_114299" data-name="Trazado 114299" d="M500.69,225.84l2.24-1.293a1.6,1.6,0,0,0,.682-1.654h0a.777.777,0,0,0-1.2-.57l-2.24,1.292a1.6,1.6,0,0,0-.681,1.654h0A.777.777,0,0,0,500.69,225.84Z" transform="translate(-482.231 -203.554)" fill="#d4ecff"/>
          <path id="Trazado_114300" data-name="Trazado 114300" d="M513.622,222.7l9.319-5.38a1.6,1.6,0,0,0,.681-1.654h0a.777.777,0,0,0-1.195-.57l-9.319,5.38a1.6,1.6,0,0,0-.681,1.654h0A.777.777,0,0,0,513.622,222.7Z" transform="translate(-511.543 -201.526)" fill="#d4ecff"/>
          <path id="Trazado_114301" data-name="Trazado 114301" d="M505.178,214.482,521.42,205.1a1.6,1.6,0,0,0,.682-1.653h0a.778.778,0,0,0-1.2-.571l-16.241,9.378a1.6,1.6,0,0,0-.682,1.653h0A.777.777,0,0,0,505.178,214.482Z" transform="translate(-503.949 -198.095)" fill="#d4ecff"/>
          <path id="Trazado_114302" data-name="Trazado 114302" d="M502.187,223.446l9.319-5.38a1.6,1.6,0,0,0,.682-1.654h0a.777.777,0,0,0-1.2-.57l-9.319,5.38a1.6,1.6,0,0,0-.682,1.654h0A.777.777,0,0,0,502.187,223.446Z" transform="translate(-491.883 -201.734)" fill="#d4ecff"/>
          <path id="Trazado_114303" data-name="Trazado 114303" d="M499.195,237.494l11.2-6.468a1.6,1.6,0,0,0,.681-1.654h0a.777.777,0,0,0-1.195-.57l-11.2,6.468a1.6,1.6,0,0,0-.681,1.653h0A.777.777,0,0,0,499.195,237.494Z" transform="translate(-488.622 -205.374)" fill="#d4ecff"/>
        </g>
      </g>
    </g>
    <path id="Trazado_134285" data-name="Trazado 134285" d="M-2125.027,666.607h128.7" transform="translate(-359.986 -2073.599)" fill="none" stroke="#5793ce" stroke-linecap="round" stroke-width="3"/>
    <path id="Trazado_134293" data-name="Trazado 134293" d="M4.361-2.335a6.784,6.784,0,0,1-2.7-1.311,2.505,2.505,0,0,1-.845-1.92A2.647,2.647,0,0,1,1.848-7.7a4.106,4.106,0,0,1,2.686-.845,4.482,4.482,0,0,1,2.01.436,3.305,3.305,0,0,1,1.368,1.2A3.074,3.074,0,0,1,8.4-5.235H6.946A2,2,0,0,0,6.315-6.8a2.567,2.567,0,0,0-1.781-.569A2.628,2.628,0,0,0,2.87-6.9a1.57,1.57,0,0,0-.6,1.306A1.412,1.412,0,0,0,2.84-4.46a5.565,5.565,0,0,0,1.931.847A8.961,8.961,0,0,1,6.9-2.767,3.238,3.238,0,0,1,8.047-1.689a2.752,2.752,0,0,1,.372,1.45,2.556,2.556,0,0,1-1.037,2.13,4.421,4.421,0,0,1-2.773.8,5.143,5.143,0,0,1-2.1-.432A3.541,3.541,0,0,1,1,1.077,2.888,2.888,0,0,1,.469-.629h1.45A1.884,1.884,0,0,0,2.652.938a3.085,3.085,0,0,0,1.957.575A2.836,2.836,0,0,0,6.36,1.047a1.513,1.513,0,0,0,.609-1.27,1.486,1.486,0,0,0-.564-1.244A6.5,6.5,0,0,0,4.361-2.335Zm9.062,5.027a3.552,3.552,0,0,1-2.69-1.086A4.03,4.03,0,0,1,9.7-1.3v-.255a4.879,4.879,0,0,1,.462-2.16A3.6,3.6,0,0,1,11.451-5.2a3.25,3.25,0,0,1,1.8-.537,3.045,3.045,0,0,1,2.465,1.044A4.522,4.522,0,0,1,16.595-1.7v.579H11.087a2.89,2.89,0,0,0,.7,1.942,2.208,2.208,0,0,0,1.71.74,2.421,2.421,0,0,0,1.247-.3,3.134,3.134,0,0,0,.894-.8l.849.661A3.414,3.414,0,0,1,13.424,2.692ZM13.251-4.6a1.854,1.854,0,0,0-1.413.612,2.977,2.977,0,0,0-.706,1.717H15.2v-.105a2.648,2.648,0,0,0-.571-1.642A1.746,1.746,0,0,0,13.251-4.6Zm8.882.255a4.166,4.166,0,0,0-.684-.053,1.832,1.832,0,0,0-1.856,1.165V2.542H18.2V-5.588h1.353l.023.939a2.165,2.165,0,0,1,1.939-1.09,1.42,1.42,0,0,1,.616.105Zm4.1,5,2.014-6.244h1.42L26.747,2.542h-1.06L22.741-5.588h1.42ZM32.51,2.542H31.12V-5.588h1.39Zm-1.5-10.287a.83.83,0,0,1,.207-.571.776.776,0,0,1,.612-.233.788.788,0,0,1,.616.233.821.821,0,0,1,.21.571.794.794,0,0,1-.21.564.8.8,0,0,1-.616.225.79.79,0,0,1-.612-.225A.8.8,0,0,1,31.007-7.745ZM34.4-1.591a4.763,4.763,0,0,1,.887-3.01A2.8,2.8,0,0,1,37.6-5.739a2.82,2.82,0,0,1,2.262.977V-9h1.39V2.542H39.979l-.068-.872A2.831,2.831,0,0,1,37.59,2.692a2.777,2.777,0,0,1-2.3-1.157,4.817,4.817,0,0,1-.89-3.021Zm1.39.158A3.606,3.606,0,0,0,36.357.731a1.846,1.846,0,0,0,1.578.781A2.028,2.028,0,0,0,39.867.325V-3.409a2.044,2.044,0,0,0-1.916-1.15,1.855,1.855,0,0,0-1.593.789A3.971,3.971,0,0,0,35.786-1.433ZM43.045-1.6a4.8,4.8,0,0,1,.47-2.149A3.5,3.5,0,0,1,44.822-5.22a3.559,3.559,0,0,1,1.912-.518,3.429,3.429,0,0,1,2.686,1.15,4.423,4.423,0,0,1,1.026,3.058v.1A4.844,4.844,0,0,1,49.992.7a3.452,3.452,0,0,1-1.3,1.469,3.6,3.6,0,0,1-1.942.526,3.42,3.42,0,0,1-2.679-1.15A4.4,4.4,0,0,1,43.045-1.5Zm1.4.165A3.478,3.478,0,0,0,45.07.739a2.008,2.008,0,0,0,1.679.819,2,2,0,0,0,1.683-.83A3.8,3.8,0,0,0,49.057-1.6a3.472,3.472,0,0,0-.635-2.168,2.019,2.019,0,0,0-1.687-.83,2,2,0,0,0-1.661.819A3.775,3.775,0,0,0,44.443-1.433ZM56.12-4.341a4.166,4.166,0,0,0-.684-.053A1.832,1.832,0,0,0,53.58-3.229V2.542H52.19V-5.588h1.353l.023.939A2.165,2.165,0,0,1,55.5-5.739a1.42,1.42,0,0,1,.616.105Z" transform="translate(-2567.469 -1299.623)" fill="#fff"/>
    <path id="Trazado_134294" data-name="Trazado 134294" d="M9.121-.93A4.025,4.025,0,0,1,7.84,1.749a4.2,4.2,0,0,1-2.867.943A3.855,3.855,0,0,1,1.866,1.3,5.593,5.593,0,0,1,.7-2.417V-3.469a6.234,6.234,0,0,1,.545-2.683A4.069,4.069,0,0,1,2.786-7.929,4.3,4.3,0,0,1,5.1-8.549a3.953,3.953,0,0,1,2.8.973A4.074,4.074,0,0,1,9.121-4.882H7.671a3.143,3.143,0,0,0-.815-1.9A2.467,2.467,0,0,0,5.1-7.369,2.581,2.581,0,0,0,2.933-6.347a4.7,4.7,0,0,0-.785,2.91v1.06A4.827,4.827,0,0,0,2.891.46,2.4,2.4,0,0,0,4.973,1.513,2.776,2.776,0,0,0,6.818.968a3.023,3.023,0,0,0,.853-1.9Zm3.261,3.472h-1.39V-9h1.39Zm3.735,0h-1.39V-5.588h1.39Zm-1.5-10.287a.83.83,0,0,1,.207-.571.776.776,0,0,1,.612-.233.788.788,0,0,1,.616.233.821.821,0,0,1,.21.571.794.794,0,0,1-.21.564.8.8,0,0,1-.616.225.79.79,0,0,1-.612-.225A.8.8,0,0,1,14.614-7.745Zm7.1,10.437a3.552,3.552,0,0,1-2.69-1.086,4.03,4.03,0,0,1-1.037-2.9v-.255a4.879,4.879,0,0,1,.462-2.16A3.605,3.605,0,0,1,19.742-5.2a3.25,3.25,0,0,1,1.8-.537,3.045,3.045,0,0,1,2.465,1.044A4.522,4.522,0,0,1,24.886-1.7v.579H19.378a2.89,2.89,0,0,0,.7,1.942,2.208,2.208,0,0,0,1.71.74,2.421,2.421,0,0,0,1.247-.3,3.134,3.134,0,0,0,.894-.8l.849.661A3.414,3.414,0,0,1,21.715,2.692ZM21.542-4.6a1.854,1.854,0,0,0-1.413.612,2.977,2.977,0,0,0-.706,1.717H23.5v-.105a2.648,2.648,0,0,0-.571-1.642A1.746,1.746,0,0,0,21.542-4.6Zm6.267-.992.045,1.022a2.963,2.963,0,0,1,2.435-1.172q2.577,0,2.6,2.908V2.542H31.5v-5.38a1.872,1.872,0,0,0-.4-1.3,1.611,1.611,0,0,0-1.229-.421,2.006,2.006,0,0,0-1.187.361,2.449,2.449,0,0,0-.8.947V2.542h-1.39V-5.588Zm9.062-1.969v1.969h1.518v1.075H36.872V.535a1.129,1.129,0,0,0,.2.734.854.854,0,0,0,.691.245,3.366,3.366,0,0,0,.661-.09V2.543a4.054,4.054,0,0,1-1.067.149,1.731,1.731,0,0,1-1.405-.564,2.421,2.421,0,0,1-.473-1.6V-4.514H34V-5.588h1.48V-7.557Zm6.515,10.25A3.552,3.552,0,0,1,40.7,1.607a4.03,4.03,0,0,1-1.037-2.9v-.255a4.879,4.879,0,0,1,.462-2.16A3.605,3.605,0,0,1,41.414-5.2a3.25,3.25,0,0,1,1.8-.537,3.045,3.045,0,0,1,2.465,1.044A4.522,4.522,0,0,1,46.558-1.7v.579H41.05a2.89,2.89,0,0,0,.7,1.942,2.208,2.208,0,0,0,1.71.74,2.421,2.421,0,0,0,1.247-.3,3.134,3.134,0,0,0,.894-.8l.849.661A3.414,3.414,0,0,1,43.386,2.692ZM43.214-4.6a1.854,1.854,0,0,0-1.413.612,2.977,2.977,0,0,0-.706,1.717h4.073v-.105A2.648,2.648,0,0,0,44.6-4.014,1.746,1.746,0,0,0,43.214-4.6Zm5.23,8.078H47.249L51.818-8.4H53Zm7.379-9.07.045,1.022A2.963,2.963,0,0,1,58.3-5.739q2.577,0,2.6,2.908V2.542h-1.39v-5.38a1.872,1.872,0,0,0-.4-1.3,1.611,1.611,0,0,0-1.229-.421,2.006,2.006,0,0,0-1.187.361,2.449,2.449,0,0,0-.8.947V2.542h-1.39V-5.588Zm12.2,8.131a2.92,2.92,0,0,1-.2-.857,3.1,3.1,0,0,1-2.314,1.007,2.87,2.87,0,0,1-1.973-.68,2.2,2.2,0,0,1-.77-1.725,2.3,2.3,0,0,1,.966-1.973,4.553,4.553,0,0,1,2.716-.7H67.8v-.639a1.561,1.561,0,0,0-.436-1.161,1.752,1.752,0,0,0-1.285-.432,2.027,2.027,0,0,0-1.247.376,1.107,1.107,0,0,0-.5.909h-1.4a1.918,1.918,0,0,1,.432-1.176,2.949,2.949,0,0,1,1.172-.9,3.944,3.944,0,0,1,1.627-.331,3.214,3.214,0,0,1,2.2.7A2.535,2.535,0,0,1,69.191-3.1V.641a4.575,4.575,0,0,0,.286,1.781v.12Zm-2.307-1.06a2.443,2.443,0,0,0,1.24-.338A2.045,2.045,0,0,0,67.8.265V-1.4h-1.09q-2.555,0-2.555,1.5a1.266,1.266,0,0,0,.436,1.022A1.675,1.675,0,0,0,65.712,1.483ZM73.94.656l2.014-6.244h1.42L74.458,2.542H73.4L70.453-5.588h1.42Zm8.048,2.036A3.552,3.552,0,0,1,79.3,1.607a4.03,4.03,0,0,1-1.037-2.9v-.255a4.879,4.879,0,0,1,.462-2.16A3.605,3.605,0,0,1,80.015-5.2a3.25,3.25,0,0,1,1.8-.537A3.045,3.045,0,0,1,84.28-4.694,4.522,4.522,0,0,1,85.159-1.7v.579H79.651a2.89,2.89,0,0,0,.7,1.942,2.208,2.208,0,0,0,1.71.74,2.421,2.421,0,0,0,1.247-.3,3.134,3.134,0,0,0,.894-.8l.849.661A3.414,3.414,0,0,1,81.988,2.692ZM81.815-4.6a1.854,1.854,0,0,0-1.413.612A2.977,2.977,0,0,0,79.7-2.267h4.073v-.105A2.648,2.648,0,0,0,83.2-4.014,1.746,1.746,0,0,0,81.815-4.6Zm4.621,3.006a4.778,4.778,0,0,1,.879-3.025,2.812,2.812,0,0,1,2.329-1.123,2.8,2.8,0,0,1,2.322,1.052l.068-.9H93.3V2.347a3.308,3.308,0,0,1-.936,2.487,3.452,3.452,0,0,1-2.514.909,4.182,4.182,0,0,1-1.721-.376A2.962,2.962,0,0,1,86.85,4.338l.721-.834a2.718,2.718,0,0,0,2.187,1.1,2.13,2.13,0,0,0,1.582-.571,2.183,2.183,0,0,0,.567-1.608v-.7a2.857,2.857,0,0,1-2.277.962,2.777,2.777,0,0,1-2.311-1.15A5.024,5.024,0,0,1,86.436-1.591Zm1.4.158A3.646,3.646,0,0,0,88.4.727a1.831,1.831,0,0,0,1.578.785A2.036,2.036,0,0,0,91.907.318V-3.394a2.06,2.06,0,0,0-1.916-1.165,1.848,1.848,0,0,0-1.586.789A3.971,3.971,0,0,0,87.834-1.433Zm12.587,3.975a2.92,2.92,0,0,1-.2-.857,3.1,3.1,0,0,1-2.314,1.007,2.87,2.87,0,0,1-1.973-.68,2.2,2.2,0,0,1-.77-1.725,2.3,2.3,0,0,1,.966-1.973,4.553,4.553,0,0,1,2.716-.7H100.2v-.639a1.561,1.561,0,0,0-.436-1.161,1.752,1.752,0,0,0-1.285-.432,2.027,2.027,0,0,0-1.247.376,1.107,1.107,0,0,0-.5.909h-1.4a1.918,1.918,0,0,1,.432-1.176,2.949,2.949,0,0,1,1.172-.9,3.944,3.944,0,0,1,1.627-.331,3.214,3.214,0,0,1,2.2.7,2.534,2.534,0,0,1,.827,1.935V.641a4.575,4.575,0,0,0,.286,1.781v.12Zm-2.307-1.06a2.443,2.443,0,0,0,1.24-.338A2.045,2.045,0,0,0,100.2.265V-1.4h-1.09q-2.555,0-2.555,1.5a1.266,1.266,0,0,0,.436,1.022A1.675,1.675,0,0,0,98.114,1.483Zm5.32-3.073a4.763,4.763,0,0,1,.887-3.01,2.8,2.8,0,0,1,2.322-1.138,2.82,2.82,0,0,1,2.262.977V-9h1.39V2.542h-1.277l-.068-.872a2.831,2.831,0,0,1-2.322,1.022,2.777,2.777,0,0,1-2.3-1.157,4.817,4.817,0,0,1-.89-3.021Zm1.39.158A3.606,3.606,0,0,0,105.4.731a1.846,1.846,0,0,0,1.578.781A2.028,2.028,0,0,0,108.9.325V-3.409a2.044,2.044,0,0,0-1.916-1.15,1.855,1.855,0,0,0-1.593.789A3.971,3.971,0,0,0,104.824-1.433Zm7.259-.165a4.8,4.8,0,0,1,.47-2.149A3.5,3.5,0,0,1,113.86-5.22a3.559,3.559,0,0,1,1.912-.518,3.429,3.429,0,0,1,2.686,1.15,4.423,4.423,0,0,1,1.026,3.058v.1A4.844,4.844,0,0,1,119.03.7a3.452,3.452,0,0,1-1.3,1.469,3.6,3.6,0,0,1-1.942.526,3.42,3.42,0,0,1-2.679-1.15A4.4,4.4,0,0,1,112.083-1.5Zm1.4.165a3.478,3.478,0,0,0,.627,2.172,2.008,2.008,0,0,0,1.679.819,2,2,0,0,0,1.683-.83,3.8,3.8,0,0,0,.624-2.326,3.472,3.472,0,0,0-.635-2.168,2.019,2.019,0,0,0-1.687-.83,2,2,0,0,0-1.661.819A3.775,3.775,0,0,0,113.481-1.433Zm11.677-2.908a4.166,4.166,0,0,0-.684-.053,1.832,1.832,0,0,0-1.856,1.165V2.542h-1.39V-5.588h1.353l.023.939a2.165,2.165,0,0,1,1.939-1.09,1.42,1.42,0,0,1,.616.105Z" transform="translate(-2318.943 -1299.623)" fill="#fff"/>
  </g>
</svg>
