<svg xmlns="http://www.w3.org/2000/svg" width="63.956" height="60.477" viewBox="0 0 63.956 60.477">
  <g id="Grupo_79490" data-name="Grupo 79490" transform="translate(-1240.825 -7905)">
    <g id="Grupo_78807" data-name="Grupo 78807" transform="translate(330.227 6510)">
      <path id="Trazado_108980" data-name="Trazado 108980" d="M974.554,1443.342a6,6,0,0,1-1.154,2.64,4.807,4.807,0,0,1-3.344,1.722c-.248.021-.5.023-.748.023q-26.723,0-53.445.007a4.784,4.784,0,0,1-4.714-2.748,6.222,6.222,0,0,1-.507-2.222c-.083-1.139-.026-2.288-.02-3.432a1.336,1.336,0,0,1,.834-1.4,1.225,1.225,0,0,1,1.653,1.218c.027,1.1.007,2.206.009,3.309,0,1.872.887,2.768,2.739,2.768q26.722,0,53.444,0c1.852,0,2.739-.9,2.739-2.768q0-9.178,0-18.356c0-.208-.007-.416.006-.624a1.236,1.236,0,0,1,.974-1.216,1.251,1.251,0,0,1,1.389.708c.047.088.1.175.143.261Z" transform="translate(0 -9.623)" fill="#fb8c00"/>
      <path id="Trazado_108981" data-name="Trazado 108981" d="M974.565,1403.868c-.26.305-.465.715-.794.9a1.2,1.2,0,0,1-1.708-1.17c-.029-1.1-.008-2.206-.01-3.309,0-1.892-.9-2.785-2.793-2.785H915.942c-1.93,0-2.811.886-2.812,2.83q0,9.115,0,18.23c0,.188,0,.375,0,.562-.027.849-.482,1.362-1.214,1.374a1.262,1.262,0,0,1-1.278-1.326c-.01-.124,0-.25,0-.374q0-9.272,0-18.543a4.9,4.9,0,0,1,5.275-5.25q26.69,0,53.381,0a4.857,4.857,0,0,1,5.086,3.656c.076.277.128.56.191.841Z" transform="translate(-0.011)" fill="#fb8c00"/>
      <path id="Trazado_108982" data-name="Trazado 108982" d="M974.574,1474.162c-.28.883-.937,1.1-1.79,1.1q-19.669-.016-39.339-.007h-.932c-.034.532-.039,1.045-.1,1.549a4.475,4.475,0,0,1-4.7,4.124,4.53,4.53,0,0,1-4.34-4.589c-.01-.33,0-.66,0-1.084H912.435c-1.166,0-1.8-.462-1.779-1.285s.61-1.213,1.77-1.213H923.32c.049-.659.062-1.278.145-1.886a4.5,4.5,0,0,1,8.917.111c.066.555.085,1.117.133,1.776h.773q19.762,0,39.525-.011a1.6,1.6,0,0,1,1.761,1.044Zm-48.7-.247v1.186c0,.417-.01.833,0,1.249a2.033,2.033,0,0,0,2.027,2.091,2,2,0,0,0,2.055-2.059c.036-1.581.033-3.164,0-4.745a2.025,2.025,0,0,0-2.087-2.1,2.047,2.047,0,0,0-2,2.128C925.858,1472.416,925.871,1473.165,925.87,1473.915Z" transform="translate(-0.02 -25.455)" fill="#fb8c00"/>
      <path id="Trazado_108983" data-name="Trazado 108983" d="M1008.125,1415.939l-.246.342a1.183,1.183,0,0,1-1.418.478,1.246,1.246,0,1,1,1.427-1.874,3.913,3.913,0,0,1,.237.429Z" transform="translate(-33.571 -6.825)" fill="#fb8c00"/>
      <path id="Trazado_108984" data-name="Trazado 108984" d="M944.791,1422.145q0-4.775,0-9.549c0-1.419.92-1.963,2.14-1.259q8.371,4.828,16.735,9.666c1.182.684,1.172,1.761-.021,2.45q-8.338,4.822-16.682,9.634c-1.255.723-2.171.184-2.173-1.269Q944.787,1426.981,944.791,1422.145Zm16,.076-13.461-7.766v15.535Z" transform="translate(-12.082 -5.664)" fill="#fb8c00"/>
      <path id="Trazado_108985" data-name="Trazado 108985" d="M913.136,1439.719a1.237,1.237,0,0,1-1.26,1.252,1.277,1.277,0,0,1-1.251-1.215,1.3,1.3,0,0,1,1.246-1.293A1.261,1.261,0,0,1,913.136,1439.719Z" transform="translate(-0.009 -15.357)" fill="#fb8c00"/>
    </g>
  </g>
</svg>
