<svg xmlns="http://www.w3.org/2000/svg" xmlns:xlink="http://www.w3.org/1999/xlink" width="148" height="137.095" viewBox="0 0 148 137.095">
  <defs>
    <filter id="Elipse_4699" x="12.113" y="5.076" width="123.328" height="122.279" filterUnits="userSpaceOnUse">
      <feOffset input="SourceAlpha"/>
      <feGaussianBlur stdDeviation="3" result="blur"/>
      <feFlood flood-opacity="0.29"/>
      <feComposite operator="in" in2="blur"/>
      <feComposite in="SourceGraphic"/>
    </filter>
  </defs>
  <g id="Grupo_73949" data-name="Grupo 73949" transform="translate(-180 -3821)">
    <rect id="Rectángulo_32701" data-name="Rectángulo 32701" width="148" height="90.709" rx="13" transform="translate(180 3867.386)" fill="#f6f6f6"/>
    <path id="Trazado_108975" data-name="Trazado 108975" d="M663,1787.123a57.916,57.916,0,0,1,54.527,38.8h9.032a66.3,66.3,0,0,0-127.119,0h9.032A57.916,57.916,0,0,1,663,1787.123Z" transform="translate(-409.272 2042.5)" fill="#2e74bc"/>
    <g transform="matrix(1, 0, 0, 1, 180, 3821)" filter="url(#Elipse_4699)">
      <ellipse id="Elipse_4699-2" data-name="Elipse 4699" cx="52.664" cy="52.139" rx="52.664" ry="52.139" transform="translate(21.11 14.08)" fill="#4699ed"/>
    </g>
    <g id="Grupo_73948" data-name="Grupo 73948" transform="translate(232.107 3865.321)">
      <path id="Trazado_108972" data-name="Trazado 108972" d="M1648.778,1848a9.584,9.584,0,0,1,1.295.476,5.015,5.015,0,0,1,2.649,4.8q.011,6.5,0,13,0,5.6,0,11.194a1.7,1.7,0,0,1-1.075,1.761,1.513,1.513,0,0,1-1.9-1.483c-.013-.181-.008-.364-.008-.546q0-11.953,0-23.9c0-1.092-.468-1.758-1.331-1.9a1.316,1.316,0,0,0-1.317.6c-2.8,3.677-5.613,7.345-8.4,11.039a2.061,2.061,0,0,1-1.865.973c-.9-.049-1.811-.016-2.717-.01a3.06,3.06,0,0,0-3.1,3.133,40.006,40.006,0,0,0,0,4.835,3.07,3.07,0,0,0,3.093,3.139c.956.007,1.911.026,2.866-.008a1.837,1.837,0,0,1,1.616.839q4.2,5.545,8.425,11.069a1.363,1.363,0,0,0,1.714.62,1.681,1.681,0,0,0,1.017-1.641,1.549,1.549,0,0,1,1.582-1.614,1.627,1.627,0,0,1,1.383,1.8,4.86,4.86,0,0,1-3.774,4.857.849.849,0,0,0-.167.075h-1.117c-.03-.021-.059-.057-.092-.063a4.483,4.483,0,0,1-2.825-1.858q-3.971-5.238-7.968-10.45a.716.716,0,0,0-.5-.249c-.856-.029-1.714.03-2.567-.031a5.789,5.789,0,0,1-5.1-3.812,15.969,15.969,0,0,1-.617-2.225v-5.724a3.635,3.635,0,0,0,.079-.358c.36-2.864,2.49-5.283,5.038-5.607a26.379,26.379,0,0,1,3.082-.089.708.708,0,0,0,.632-.316q4.018-5.3,8.063-10.578a3.564,3.564,0,0,1,.989-.937,16.91,16.91,0,0,1,1.852-.8Z" transform="translate(-1628 -1848)" fill="#fff"/>
      <path id="Trazado_108973" data-name="Trazado 108973" d="M1692.574,1876.665c-.1.825-.171,1.656-.3,2.475a21.048,21.048,0,0,1-4.587,10.446,1.312,1.312,0,0,1-2.108.059,2,2,0,0,1-.053-2.5,20.006,20.006,0,0,0,2.292-3.629,18.771,18.771,0,0,0,1.734-8.81,17.977,17.977,0,0,0-2.928-9.351c-.338-.514-.723-.984-1.081-1.481a2.037,2.037,0,0,1,.038-2.535,1.324,1.324,0,0,1,2.134.1,21.358,21.358,0,0,1,4.715,11.61c.045.428.092.854.139,1.282Z" transform="translate(-1649.472 -1853.948)" fill="#fff"/>
      <path id="Trazado_108974" data-name="Trazado 108974" d="M1684.5,1879.17a8.279,8.279,0,0,1-1.085,4.13,1.5,1.5,0,0,1-2.072.71,1.48,1.48,0,0,1-.561-2.084,5.606,5.606,0,0,0-.008-5.608,1.476,1.476,0,0,1,.588-2.076,1.5,1.5,0,0,1,2.028.672A8.326,8.326,0,0,1,1684.5,1879.17Z" transform="translate(-1648.233 -1857.585)" fill="#fff"/>
    </g>
  </g>
</svg>
