<svg xmlns="http://www.w3.org/2000/svg" xmlns:xlink="http://www.w3.org/1999/xlink" width="148" height="130.721" viewBox="0 0 148 130.721">
  <defs>
    <filter id="Rectángulo_32715" x="18.5" y="6.5" width="113" height="115.721" filterUnits="userSpaceOnUse">
      <feOffset input="SourceAlpha"/>
      <feGaussianBlur stdDeviation="2.5" result="blur"/>
      <feFlood flood-opacity="0.29"/>
      <feComposite operator="in" in2="blur"/>
      <feComposite in="SourceGraphic"/>
    </filter>
  </defs>
  <g id="Grupo_79454" data-name="Grupo 79454" transform="translate(-200 -7544)">
    <g id="Grupo_73970" data-name="Grupo 73970" transform="translate(28 -12)">
      <g id="Rectángulo_32714" data-name="Rectángulo 32714" transform="translate(183.887 7556)" fill="none" stroke="#1565c0" stroke-linecap="round" stroke-linejoin="round" stroke-width="8">
        <rect width="125" height="123.721" rx="17" stroke="none"/>
        <rect x="4" y="4" width="117" height="115.721" rx="13" fill="none"/>
      </g>
      <rect id="Rectángulo_32716" data-name="Rectángulo 32716" width="148" height="86.721" rx="6" transform="translate(172 7600)" fill="#f6f6f6"/>
      <g transform="matrix(1, 0, 0, 1, 172, 7556)" filter="url(#Rectángulo_32715)">
        <rect id="Rectángulo_32715-2" data-name="Rectángulo 32715" width="98" height="100.721" rx="15" transform="translate(26 14)" fill="#1565c0"/>
      </g>
      <g id="Grupo_73969" data-name="Grupo 73969" transform="translate(218 7593)">
        <path id="Trazado_108980" data-name="Trazado 108980" d="M969.505,1441.676a5.53,5.53,0,0,1-1.063,2.432,4.428,4.428,0,0,1-3.08,1.586c-.229.019-.46.021-.689.021q-24.613,0-49.226.006a4.406,4.406,0,0,1-4.341-2.531,5.73,5.73,0,0,1-.467-2.046c-.076-1.049-.024-2.107-.018-3.161a1.231,1.231,0,0,1,.768-1.288,1.128,1.128,0,0,1,1.522,1.122c.025,1.016.006,2.032.008,3.048a2.224,2.224,0,0,0,2.523,2.55q24.612,0,49.225,0a2.223,2.223,0,0,0,2.523-2.55q0-8.453,0-16.907c0-.191-.007-.383.006-.575a1.139,1.139,0,0,1,.9-1.12,1.152,1.152,0,0,1,1.279.652c.043.081.088.161.131.241Z" transform="translate(-910.598 -1406.014)" fill="#fff"/>
        <path id="Trazado_108981" data-name="Trazado 108981" d="M969.518,1403.168c-.24.281-.428.658-.731.824a1.1,1.1,0,0,1-1.573-1.078c-.027-1.015-.008-2.032-.01-3.048a2.247,2.247,0,0,0-2.572-2.565H915.522c-1.778,0-2.589.816-2.59,2.606q0,8.4,0,16.791c0,.173,0,.345,0,.518-.025.782-.444,1.255-1.119,1.265a1.162,1.162,0,0,1-1.177-1.222c-.009-.114,0-.23,0-.345q0-8.54,0-17.079a4.514,4.514,0,0,1,4.858-4.836q24.583,0,49.167,0a4.474,4.474,0,0,1,4.684,3.367c.07.255.118.516.176.774Z" transform="translate(-910.611 -1395)" fill="#fff"/>
        <path id="Trazado_108982" data-name="Trazado 108982" d="M969.528,1473.6c-.258.813-.863,1.013-1.649,1.012q-18.116-.014-36.233-.006h-.859c-.032.49-.036.962-.1,1.427a4.122,4.122,0,0,1-4.325,3.8,4.172,4.172,0,0,1-4-4.226c-.01-.3,0-.608,0-1H912.294c-1.074,0-1.66-.426-1.638-1.183s.562-1.117,1.63-1.117H922.32c.045-.607.057-1.177.133-1.737a4.146,4.146,0,0,1,8.213.1c.061.512.078,1.029.122,1.635h.712q18.2,0,36.405-.011a1.478,1.478,0,0,1,1.622.961Zm-44.859-.228v1.092c0,.384-.009.767,0,1.15a1.873,1.873,0,0,0,1.867,1.926,1.846,1.846,0,0,0,1.893-1.9c.033-1.456.03-2.914,0-4.37a1.865,1.865,0,0,0-1.923-1.932,1.885,1.885,0,0,0-1.839,1.96C924.658,1471.991,924.67,1472.682,924.669,1473.372Z" transform="translate(-910.621 -1424.132)" fill="#fff"/>
        <path id="Trazado_108983" data-name="Trazado 108983" d="M1007.926,1415.811l-.227.315a1.09,1.09,0,0,1-1.306.44,1.148,1.148,0,1,1,1.314-1.726,3.609,3.609,0,0,1,.219.4Z" transform="translate(-949.019 -1402.811)" fill="#fff"/>
        <path id="Trazado_108984" data-name="Trazado 108984" d="M944.791,1421.267q0-4.4,0-8.8c0-1.307.847-1.808,1.971-1.16q7.71,4.447,15.414,8.9c1.089.63,1.079,1.622-.019,2.257q-7.68,4.441-15.365,8.873c-1.156.666-2,.17-2-1.169Q944.788,1425.722,944.791,1421.267Zm14.735.07-12.4-7.153v14.309Z" transform="translate(-924.425 -1401.482)" fill="#fff"/>
        <path id="Trazado_108985" data-name="Trazado 108985" d="M912.938,1439.62a1.14,1.14,0,0,1-1.161,1.153,1.176,1.176,0,0,1-1.152-1.119,1.2,1.2,0,0,1,1.148-1.191A1.161,1.161,0,0,1,912.938,1439.62Z" transform="translate(-910.609 -1412.576)" fill="#fff"/>
      </g>
    </g>
  </g>
</svg>
