<svg xmlns="http://www.w3.org/2000/svg" xmlns:xlink="http://www.w3.org/1999/xlink" width="148" height="137.095" viewBox="0 0 148 137.095">
  <defs>
    <filter id="Elipse_4699" x="12.83" y="5.034" width="123.454" height="122.376" filterUnits="userSpaceOnUse">
      <feOffset input="SourceAlpha"/>
      <feGaussianBlur stdDeviation="3" result="blur"/>
      <feFlood flood-opacity="0.29"/>
      <feComposite operator="in" in2="blur"/>
      <feComposite in="SourceGraphic"/>
    </filter>
  </defs>
  <g id="Grupo_73945" data-name="Grupo 73945" transform="translate(-180 -1745)">
    <rect id="Rectángulo_32701" data-name="Rectángulo 32701" width="148" height="90.44" rx="13" transform="translate(180 1791.655)" fill="#f6f6f6"/>
    <path id="Trazado_108975" data-name="Trazado 108975" d="M663.028,1787.1a57.93,57.93,0,0,1,54.554,38.689h9.037a66.4,66.4,0,0,0-127.181,0h9.037A57.93,57.93,0,0,1,663.028,1787.1Z" transform="translate(-408.522 -33.5)" fill="#1f8a95"/>
    <g transform="matrix(1, 0, 0, 1, 180, 1745)" filter="url(#Elipse_4699)">
      <ellipse id="Elipse_4699-2" data-name="Elipse 4699" cx="52.727" cy="52.188" rx="52.727" ry="52.188" transform="translate(21.83 14.03)" fill="#26aab7"/>
    </g>
    <g id="Grupo_73938" data-name="Grupo 73938" transform="translate(228.27 1785.482)">
      <path id="Trazado_108953" data-name="Trazado 108953" d="M971.567,1841.858l.844,1.465a33.549,33.549,0,0,1,2.116,5.453l.4,1.656a31.677,31.677,0,0,1,.465,5.694c-.018.562-.05,1.124-.075,1.687l-.326,2.494a27.058,27.058,0,0,1-2.339,6.979c-.411.817-.82.94-1.62.489-.729-.411-1.461-.817-2.192-1.226a7.615,7.615,0,0,0-1.34-.775c-.4-.246-.8-.5-1.208-.735-.856-.5-.956-.778-.533-1.682a17.408,17.408,0,0,0,1.482-4.841,12.355,12.355,0,0,0,.217-2.385,16.788,16.788,0,0,0-1.07-6.7,6.275,6.275,0,0,0-.634-1.545,16,16,0,0,0-3.182-4.772,4.884,4.884,0,0,0-.95-.956,16.056,16.056,0,0,0-4.633-3.177,6.571,6.571,0,0,0-1.568-.661,15.764,15.764,0,0,0-4.583-1.081c-.515-.051-1.032-.076-1.27-.655l-.072-1.976q.019-2.056.038-4.111c.008-1.022.308-1.266,1.344-1.2,1.152.073,2.285.262,3.422.437l1.752.42a30.948,30.948,0,0,1,5.5,2.191l1.316.762a34.589,34.589,0,0,1,4.27,3.268l1.221,1.228A34.571,34.571,0,0,1,971.567,1841.858Zm-20.24-10.645a4.407,4.407,0,0,0,0,1.2,11.938,11.938,0,0,0,.005,2.092c-.106.969-.106.969.818,1.113.054.009.107.026.161.034a24.169,24.169,0,0,1,4.52,1.268l1.547.741a24.262,24.262,0,0,1,4.395,3.1l1.2,1.213a24.922,24.922,0,0,1,3.154,4.581l.574,1.236a23.413,23.413,0,0,1,1.5,6.274l.057,2.07a21.331,21.331,0,0,1-1.285,6.5c-.443,1.171-.436,1.174.723,1.741a.183.183,0,0,0,.053.01,9.267,9.267,0,0,0,1.482.859c.289.18.585.351.868.542.219.147.3.06.384-.15a17.847,17.847,0,0,0,.931-2.477,15.462,15.462,0,0,0,.75-2.858,23.146,23.146,0,0,0,.231-8.012,8.464,8.464,0,0,0-.32-1.758,20.9,20.9,0,0,0-1.991-5.818,6.754,6.754,0,0,0-.722-1.325,20,20,0,0,0-3.3-4.5,7.923,7.923,0,0,0-1.215-1.221,19.638,19.638,0,0,0-4.4-3.283,5.17,5.17,0,0,0-1.234-.683,20.743,20.743,0,0,0-5.829-2.093,11.281,11.281,0,0,0-1.944-.37l-.988-.114C951.384,1831.111,951.3,1831.075,951.327,1831.213Z" transform="translate(-922.687 -1829.293)" fill="#fff"/>
      <path id="Trazado_108954" data-name="Trazado 108954" d="M920.962,1901.511a35.277,35.277,0,0,1-4.379-3.335l-1.095-1.1c-.759-.908-1.557-1.782-2.231-2.759-.483-.7-.4-1.151.323-1.573q2.5-1.45,5.014-2.886a.9.9,0,0,1,1.374.258,10.61,10.61,0,0,0,1.211,1.4,6.009,6.009,0,0,0,1.1,1.095,15.964,15.964,0,0,0,4.709,3.112,5.24,5.24,0,0,0,1.327.55,16.949,16.949,0,0,0,6.917,1.144,12.463,12.463,0,0,0,2.419-.228,16.608,16.608,0,0,0,4.145-1.18,18.389,18.389,0,0,0,8.036-6.491c.513-.729.81-.787,1.606-.337.364.206.735.4,1.1.6a9.776,9.776,0,0,0,1.468.848c.737.436,1.471.877,2.209,1.308.8.467.916.888.4,1.643a26.07,26.07,0,0,1-16.68,11.235c-.178.038-.355.084-.533.126l-2.483.324a29.5,29.5,0,0,1-7.285-.375l-1.519-.353a33.037,33.037,0,0,1-5.672-2.179Zm-1.076-8.723c-.245-.293-.5-.58-.734-.881a.286.286,0,0,0-.45-.086c-1.175.692-2.361,1.365-3.583,2.067a16.609,16.609,0,0,0,1.776,2.031,6.708,6.708,0,0,0,1.1,1.094,19.737,19.737,0,0,0,4.5,3.3,6.591,6.591,0,0,0,1.324.726,21.2,21.2,0,0,0,5.817,1.995,8.642,8.642,0,0,0,1.759.32,22.466,22.466,0,0,0,8.137-.275,15.136,15.136,0,0,0,2.8-.72,20.886,20.886,0,0,0,3.191-1.289,24.363,24.363,0,0,0,8.985-7.538c.1-.143.449-.318.034-.538-.644-.341-1.274-.706-1.911-1.061-.465-.281-.934-.554-1.393-.844-.187-.118-.3-.116-.44.078a21.329,21.329,0,0,1-3.175,3.371,27.686,27.686,0,0,1-2.781,1.924,20.727,20.727,0,0,1-9.61,2.758l-2.077-.043a23.81,23.81,0,0,1-6.268-1.5l-1.427-.669a24.289,24.289,0,0,1-4.448-3.1Z" transform="translate(-908.331 -1852.706)" fill="#fff"/>
      <path id="Trazado_108955" data-name="Trazado 108955" d="M931.292,1874.136a3.574,3.574,0,0,1-1.158-3.4.347.347,0,0,0-.184-.4c-.552-.384-1.1-.777-1.644-1.167l-1.2-.886c-.135-.188-.267-.088-.419-.012a3.572,3.572,0,0,1-5.3-1.918,5.076,5.076,0,0,1-.036-1.973,3.4,3.4,0,0,1,2.549-2.558,4.994,4.994,0,0,1,1.97.053c1.973.906,2.858,2.537,2.284,4.356-.147.468-.043.669.342.839l1.2.883c.321.242.653.468.957.729a.414.414,0,0,0,.641.006,3.569,3.569,0,0,1,4.589.044.426.426,0,0,0,.644,0c.742-.563,1.49-1.119,2.254-1.652a.509.509,0,0,0,.233-.7,3.5,3.5,0,0,1,1.917-4.33,3.773,3.773,0,0,1,2.465-.172,5.336,5.336,0,0,1,1.467.887,3.082,3.082,0,0,1,.953,2.836c-.333,1.121.21,1.565.985,2.017.156.091.3.195.454.293a8.477,8.477,0,0,1,.807.638c.377.376.692.359,1-.065,2.418-1.265,4.468-.543,5.486,1.934a5.225,5.225,0,0,1-.017,2.086,3.612,3.612,0,0,1-2.3,2.307,5.55,5.55,0,0,1-2.087.013c-1.82-.728-2.713-1.977-2.5-3.7a.878.878,0,0,0-.559-1.092l-1.116-.811c-.391-.3-.794-.579-1.168-.9-.222-.19-.38-.151-.619-.023a3.643,3.643,0,0,1-3.566.046.547.547,0,0,0-.682.046c-.856.655-1.726,1.292-2.6,1.919a.582.582,0,0,0-.288.662,3.49,3.49,0,0,1-2.67,3.86,4.443,4.443,0,0,1-1.9-.044Zm9.657-7.862a1.6,1.6,0,0,0,1.76.695,1.658,1.658,0,0,0,1.347-1.348,1.6,1.6,0,0,0-.7-1.76,1.722,1.722,0,0,0-2.411,2.413Zm-8.491,6.452a1.718,1.718,0,0,0,2.423-2.424,1.723,1.723,0,1,0-2.423,2.424Zm-5.926-7.46a1.755,1.755,0,1,0-1.75,1.746A1.767,1.767,0,0,0,926.532,1865.266Zm26.351,6.14a1.755,1.755,0,1,0-1.783,1.755A1.768,1.768,0,0,0,952.883,1871.407Z" transform="translate(-911.598 -1842.041)" fill="#fff"/>
      <path id="Trazado_108956" data-name="Trazado 108956" d="M909.519,1877.836a1.234,1.234,0,0,1-1.043-.795,30.208,30.208,0,0,1-2.2-5.493l-.418-1.75a28.464,28.464,0,0,1-.457-7.243l.268-2.406a29.92,29.92,0,0,1,1.542-5.352c.29-.688.595-1.372.921-2.044a.929.929,0,0,1,1.477-.458c.764.424,1.525.854,2.287,1.282a9.594,9.594,0,0,0,1.372.8c.468.279.939.552,1.4.837a.893.893,0,0,1,.423,1.291c-.085.2-.191.392-.276.592a16.272,16.272,0,0,0-1.346,4.808,9.481,9.481,0,0,0-.2,2.307,16.851,16.851,0,0,0,1.145,6.713,6.83,6.83,0,0,0,.672,1.579c.149.311.3.621.446.934a.819.819,0,0,1-.314,1.149C913.33,1875.681,911.477,1876.851,909.519,1877.836Zm1.118-22.9c-.311-.187-.629-.363-.93-.563-.231-.154-.352-.153-.472.138a24.224,24.224,0,0,0-.99,2.653,14.7,14.7,0,0,0-.7,2.873,2.36,2.36,0,0,0-.1.312,24.114,24.114,0,0,0-.094,7.625,12.361,12.361,0,0,0,.339,1.851,24.072,24.072,0,0,0,1.908,5.531c.19.4.356.3.586.087.81-.453,1.624-.9,2.429-1.363,1.01-.581,1.007-.585.445-1.649a22.845,22.845,0,0,1-1.512-6.158l-.076-2.065a21.151,21.151,0,0,1,1.285-6.722c.438-1.167.435-1.168-.723-1.729Z" transform="translate(-905.342 -1838.251)" fill="#fff"/>
      <path id="Trazado_108957" data-name="Trazado 108957" d="M932.35,1829.313c1.54-.023,1.613.055,1.619,1.635,0,1.369.021,2.737.033,4.106-.011.378-.02.757-.036,1.136-.027.646-.26.889-.907,1a6.566,6.566,0,0,0-1.342.175,3.084,3.084,0,0,0-.381.02A18.356,18.356,0,0,0,919.252,1845c-.575.822-.848.871-1.729.368-.347-.2-.7-.388-1.051-.582l-1.13-.651-2.589-1.522c-.731-.429-.839-.866-.356-1.574a26.249,26.249,0,0,1,17.257-11.369,3.062,3.062,0,0,0,.309-.094Zm-2.5,2.138a15.143,15.143,0,0,0-2.847.7,22.578,22.578,0,0,0-5.188,2.3,24.473,24.473,0,0,0-7.307,6.618c-.149.2-.346.373.044.569.682.344,1.34.737,2.008,1.109.419.253.842.5,1.254.764.165.1.272.118.4-.06a20.8,20.8,0,0,1,4.293-4.271,22.969,22.969,0,0,1,3.809-2.141,20.118,20.118,0,0,1,5.363-1.472c.2-.026.539.076.533-.361-.018-1.262-.011-2.523,0-3.785,0-.232-.053-.341-.307-.3A17.375,17.375,0,0,0,929.853,1831.451Z" transform="translate(-907.998 -1829.299)" fill="#fff"/>
    </g>
  </g>
</svg>
