<svg xmlns="http://www.w3.org/2000/svg" xmlns:xlink="http://www.w3.org/1999/xlink" width="148" height="137.095" viewBox="0 0 148 137.095">
  <defs>
    <filter id="Elipse_4699" x="12.11" y="5.073" width="123.334" height="122.284" filterUnits="userSpaceOnUse">
      <feOffset input="SourceAlpha"/>
      <feGaussianBlur stdDeviation="3" result="blur"/>
      <feFlood flood-opacity="0.29"/>
      <feComposite operator="in" in2="blur"/>
      <feComposite in="SourceGraphic"/>
    </filter>
  </defs>
  <g id="Grupo_79508" data-name="Grupo 79508" transform="translate(14668 8717.926)">
    <g id="Grupo_79507" data-name="Grupo 79507">
      <rect id="Rectángulo_32701" data-name="Rectángulo 32701" width="148" height="90.695" rx="13" transform="translate(-14668 -8671.525)" fill="#f6f6f6"/>
      <path id="Trazado_108975" data-name="Trazado 108975" d="M663,1787.122a57.917,57.917,0,0,1,54.529,38.8h9.032a66.308,66.308,0,0,0-127.122,0h9.033A57.917,57.917,0,0,1,663,1787.122Z" transform="translate(-15257.273 -10496.426)" fill="#92e6f0"/>
      <g transform="matrix(1, 0, 0, 1, -14668, -8717.93)" filter="url(#Elipse_4699)">
        <ellipse id="Elipse_4699-2" data-name="Elipse 4699" cx="52.667" cy="52.142" rx="52.667" ry="52.142" transform="translate(21.11 14.07)" fill="#70bdc6"/>
      </g>
      <path id="Trazado_108960" data-name="Trazado 108960" d="M1183.47,1906.632a1.239,1.239,0,0,1-.522-1.143c.032-.7-.015-1.4.017-2.1.017-.37-.117-.433-.451-.432-2.616.013-5.232.007-7.849.007-1.463,0-2.034-.579-2.034-2.059,0-.555-.006-1.111,0-1.666a1.628,1.628,0,0,1,1.748-1.746c2.688-.006,5.377-.013,8.065.008.423,0,.563-.107.517-.526-.061-.545.229-1.281-.119-1.591-.3-.27-1.021-.081-1.557-.081q-3.388,0-6.774,0a1.667,1.667,0,0,1-1.881-1.886c0-.609-.006-1.218,0-1.827a1.613,1.613,0,0,1,1.742-1.743c2.688,0,5.376,0,8.064-.008.17,0,.479.13.49-.134.016-.342.205-.746-.165-1.038-.393-.31-.77-.645-1.183-.926a1.922,1.922,0,0,1-.858-1.843c.039-.787,0-1.577.011-2.365a1.486,1.486,0,0,1,1.641-1.627q1.4-.012,2.8,0a1.484,1.484,0,0,1,1.638,1.627c.007.914,0,1.828,0,2.742a1.4,1.4,0,0,1-.447,1.109,8.5,8.5,0,0,1-1.412,1.151c-.553.309-.342.749-.373,1.158-.011.146.121.151.231.152H1203.2c1.317,0,1.9.58,1.906,1.887,0,.645.01,1.29,0,1.935a1.582,1.582,0,0,1-1.575,1.631c-.393.021-.789.005-1.183.005-5.734,0-11.469.007-17.2-.013-.488,0-.63.13-.578.6a4.679,4.679,0,0,1,0,1.074c-.058.474.14.546.566.542,2.491-.02,4.982-.01,7.473-.01h10.59c1.311,0,1.91.593,1.913,1.889,0,.646.01,1.291,0,1.936a1.589,1.589,0,0,1-1.619,1.644c-.627.019-1.255.005-1.882.005-5.484,0-10.968.005-16.452-.011-.456,0-.633.08-.592.576.051.623-.016,1.255.021,1.88a1.4,1.4,0,0,1-.464,1.219Zm6.936-15.172c-1.809,0-3.618.008-5.427-.008-.331,0-.437.086-.417.42.029.482.02.968,0,1.451-.01.274.073.374.36.374q5.428-.012,10.855,0c.288,0,.372-.1.361-.374a12.881,12.881,0,0,1,0-1.4c.027-.377-.094-.479-.471-.475C1193.918,1891.471,1192.163,1891.46,1190.407,1891.46Zm7.776,9.894c1.612,0,3.223-.011,4.834.008.358,0,.518-.058.484-.458a8.119,8.119,0,0,1,0-1.341c.031-.388-.106-.467-.475-.465-2.793.017-5.586.008-8.379.01-.571,0-1.363-.2-1.656.086-.37.365-.068,1.153-.122,1.755-.03.343.1.415.426.412C1194.924,1901.345,1196.553,1901.354,1198.182,1901.354Zm-19.549-2.247c-1.326,0-2.651.011-3.975-.008-.327,0-.444.078-.421.417a9,9,0,0,1,0,1.342c-.032.4.09.511.5.506,2.149-.023,4.3-.008,6.446-.012.57,0,1.354.2,1.656-.088.375-.36.071-1.146.125-1.745.03-.324-.067-.426-.407-.421C1181.248,1899.12,1179.94,1899.107,1178.633,1899.107Zm-.044-5.416c1.326,0,2.651-.008,3.977.006.3,0,.412-.078.4-.39-.023-.5-.015-1,0-1.5.006-.233-.023-.352-.312-.35q-4.03.017-8.061,0c-.3,0-.359.109-.349.376.018.483.027.968,0,1.451-.021.343.107.421.429.417C1175.974,1893.681,1177.281,1893.691,1178.589,1893.691Zm9.306,7.663c1,0,2-.01,3,.005.279,0,.378-.075.366-.36-.02-.518-.023-1.038,0-1.555.015-.306-.12-.343-.378-.342q-2.977.012-5.956,0c-.27,0-.383.061-.37.355a13.98,13.98,0,0,1,0,1.5c-.023.358.131.407.436.4C1185.964,1901.343,1186.93,1901.354,1187.9,1901.354Zm12.735-9.894c-.841,0-1.683.01-2.524-.005-.272-.005-.378.06-.365.352.023.518.012,1.037,0,1.557,0,.208.029.334.287.333q2.578-.014,5.156,0c.235,0,.312-.083.306-.312-.011-.519-.024-1.039,0-1.557.018-.324-.114-.378-.4-.373C1202.278,1891.47,1201.455,1891.46,1200.631,1891.46Zm-15.435-6.52c0-.376-.013-.752,0-1.127.011-.241-.08-.3-.309-.3-.734.013-1.469.022-2.2,0-.313-.011-.351.125-.347.38.011.663,0,1.324,0,1.987a2.353,2.353,0,0,0,1.413,1.419.568.568,0,0,0,.348-.115c.68-.484,1.334-.978,1.09-1.974A1.146,1.146,0,0,1,1185.2,1884.94Z" transform="translate(-15775.842 -10530.646)" fill="#fff"/>
      <path id="Trazado_108961" data-name="Trazado 108961" d="M1193.661,1834.1c.149.2.388.113.581.177a3.821,3.821,0,0,1,2.662,3.756c.01,4.014,0,8.029,0,12.043q0,4.033,0,8.065a3.813,3.813,0,0,1-4.069,4.062q-14.92.008-29.84,0a2.376,2.376,0,0,1-.428-.021.722.722,0,0,1-.651-.734.714.714,0,0,1,.566-.8,2.868,2.868,0,0,1,.692-.056q14.813,0,29.625,0a2.249,2.249,0,0,0,2.418-1.625,2.8,2.8,0,0,0,.072-.8q0-10,0-20a2.231,2.231,0,0,0-2.471-2.449h-38.55a2.229,2.229,0,0,0-2.459,2.461q0,9.973,0,19.947a2.217,2.217,0,0,0,2.448,2.466c1.6.005,3.19,0,4.785,0a3.72,3.72,0,0,1,.483.012.821.821,0,0,1,.76.826.792.792,0,0,1-.808.768c-.536.021-1.075.008-1.613.008-1.2,0-2.4,0-3.6,0a3.817,3.817,0,0,1-4.068-4.064q-.005-9.947,0-19.894a3.8,3.8,0,0,1,3.083-4.065c.024-.007.037-.053.055-.082Z" transform="translate(-15767.643 -10513.18)" fill="#fff"/>
      <path id="Trazado_108962" data-name="Trazado 108962" d="M1174.266,1853.5a11.206,11.206,0,0,1,5.271-3.113,11.528,11.528,0,0,1,2.44-.351c.678-.029,1.056.248,1.081.764s-.314.815-1,.847a9.392,9.392,0,0,0-7.153,3.595c-.61.751-1.189.693-1.646-.175a13.164,13.164,0,0,0-8.643-6.929,12.361,12.361,0,0,0-3.135-.4.807.807,0,0,1-.831-.553.756.756,0,0,1,.2-.835.961.961,0,0,1,.8-.224,14.72,14.72,0,0,1,11.239,5.423A19.355,19.355,0,0,1,1174.266,1853.5Z" transform="translate(-15771.445 -10517.572)" fill="#fff"/>
      <path id="Trazado_108963" data-name="Trazado 108963" d="M1155.756,1906.472c1.272,0,2.544-.006,3.817,0a1.571,1.571,0,0,1,1.727,1.734c0,.7.008,1.4,0,2.1a1.536,1.536,0,0,1-1.558,1.632q-4,.029-8.01,0a1.523,1.523,0,0,1-1.536-1.6q-.023-1.129,0-2.258a1.54,1.54,0,0,1,1.636-1.606C1153.139,1906.461,1154.448,1906.472,1155.756,1906.472Zm-.011,1.615c-1.183,0-2.366.008-3.549-.007-.291,0-.414.058-.4.377.026.5.019,1,0,1.5-.008.262.043.378.346.376q3.6-.018,7.205,0c.312,0,.346-.129.339-.382a13.889,13.889,0,0,1,0-1.451c.029-.38-.13-.431-.456-.426C1158.075,1908.1,1156.909,1908.086,1155.745,1908.086Z" transform="translate(-15767.64 -10539.624)" fill="#fff"/>
      <path id="Trazado_108964" data-name="Trazado 108964" d="M1155.789,1894.42c1.272,0,2.544-.006,3.816,0a1.55,1.55,0,0,1,1.7,1.7c.005.717.01,1.433,0,2.15a1.517,1.517,0,0,1-1.536,1.6q-4,.036-8.008,0a1.515,1.515,0,0,1-1.557-1.573c-.018-.752-.016-1.505,0-2.257a1.525,1.525,0,0,1,1.617-1.617C1153.138,1894.411,1154.464,1894.42,1155.789,1894.42Zm-.046,1.613c-1.181,0-2.361.007-3.542-.005-.278,0-.423.035-.4.367.029.5.02,1,0,1.5-.009.27.063.375.356.374q3.6-.016,7.191,0c.306,0,.353-.123.345-.382-.015-.482-.026-.967,0-1.449.02-.33-.075-.422-.411-.416C1158.1,1896.047,1156.924,1896.034,1155.743,1896.034Z" transform="translate(-15767.64 -10535.22)" fill="#fff"/>
      <path id="Trazado_108965" data-name="Trazado 108965" d="M1207.935,1852.279a4.531,4.531,0,1,1-4.566-4.5A4.535,4.535,0,0,1,1207.935,1852.279Zm-1.616.025a2.916,2.916,0,0,0-5.832,0,2.942,2.942,0,0,0,2.895,2.922A2.912,2.912,0,0,0,1206.319,1852.3Z" transform="translate(-15785.433 -10518.176)" fill="#fff"/>
      <path id="Trazado_108966" data-name="Trazado 108966" d="M1161.77,1851.417a11.58,11.58,0,0,1,10.937,9.3c.124.656-.084,1.089-.576,1.2s-.885-.215-1.011-.849a9.936,9.936,0,0,0-9.385-8.043c-.78-.038-1.154-.3-1.141-.825S1161.02,1851.4,1161.77,1851.417Z" transform="translate(-15771.443 -10519.506)" fill="#fff"/>
      <path id="Trazado_108967" data-name="Trazado 108967" d="M1191.3,1858.374a.781.781,0,0,1-.8.824,7.951,7.951,0,0,0-1.641.242,5.9,5.9,0,0,0-4.034,3.9,1.209,1.209,0,0,1-.426.724.752.752,0,0,1-.905-.018.792.792,0,0,1-.288-.949,7.531,7.531,0,0,1,4.133-4.812,7.056,7.056,0,0,1,3.062-.686C1190.953,1857.6,1191.289,1857.892,1191.3,1858.374Z" transform="translate(-15779.688 -10521.766)" fill="#fff"/>
    </g>
  </g>
</svg>
