<svg xmlns="http://www.w3.org/2000/svg" width="98" height="98" viewBox="0 0 98 98">
  <g id="Grupo_74596" data-name="Grupo 74596" transform="translate(-332 -9185)">
    <circle id="Elipse_4716" data-name="Elipse 4716" cx="49" cy="49" r="49" transform="translate(332 9185)" fill="#26aab7"/>
    <g id="XvFOnX" transform="translate(-1101.463 7854.096)">
      <g id="Grupo_74595" data-name="Grupo 74595" transform="translate(1450.463 1345.904)">
        <path id="Trazado_110212" data-name="Trazado 110212" d="M1562.972,1411.287l.007-2.377a5.52,5.52,0,0,1,1.528-.047c.47-.009.7-.184.664-.666-.006-.07,0-.14,0-.21a.941.941,0,0,0-1.45-.937c-.262.117-.251.364-.327.578-.109.309.025.729-.4.9l-.021-3.952c.877-.25.921-.9.919-1.68q-.03-19.193-.021-38.385a3.989,3.989,0,0,1,1.173-3.124,3.6,3.6,0,0,1,2.34-1.008c.211-.011.422-.009.634-.009q18.629,0,37.259-.006a3.905,3.905,0,0,1,3.171,1.217,3.659,3.659,0,0,1,.962,2.36c.007.188.005.375.005.563q0,27.645.008,55.289a3.99,3.99,0,0,1-1.118,3.076,3.6,3.6,0,0,1-2.459,1.066c-.164.006-.329.006-.493.006q-18.7,0-37.4.005a3.944,3.944,0,0,1-2.8-.924,3.684,3.684,0,0,1-1.275-2.865c0-2.395-.026-4.79.015-7.184C1563.906,1412.182,1563.847,1411.538,1562.972,1411.287Z" transform="translate(-1547.12 -1358.32)" fill="#d5dddf"/>
        <path id="Trazado_110213" data-name="Trazado 110213" d="M1556,1398.952c1.131.058,1.131.058,1.131,1.219q0,3.769,0,7.537a3.393,3.393,0,0,0,3.629,3.664q18.913,0,37.827,0a3.385,3.385,0,0,0,3.627-3.6q0-27.965,0-55.931a3.372,3.372,0,0,0-3.56-3.59q-18.984-.006-37.968,0a3.374,3.374,0,0,0-3.554,3.6q0,19.583,0,39.166c0,1.161,0,1.161-1.131,1.219-1.123-.058-1.123-.058-1.123-1.221q0-19.438,0-38.876c0-3.809,2.326-6.139,6.129-6.139h37.327c3.809,0,6.138,2.326,6.138,6.13q0,27.678,0,55.356c0,3.808-2.328,6.142-6.128,6.142h-37.327c-3.808,0-6.138-2.328-6.139-6.13,0-2.559.029-5.118-.019-7.676-.013-.7.155-.986.863-.85A1.091,1.091,0,0,0,1556,1398.952Z" transform="translate(-1540.151 -1345.985)"/>
        <path id="Trazado_110214" data-name="Trazado 110214" d="M1451.661,1404.536c-1.123-.058-1.03-.067-1.142-1.22a10.374,10.374,0,0,1,1.627-6.809,12.686,12.686,0,0,0,.729-1.44,1.07,1.07,0,0,1,1.013-.637,1.1,1.1,0,0,1,1.08.644c.717,1.448,1.445,2.89,2.17,4.334a1.92,1.92,0,0,1,.165.888q0,25.709-.005,51.417a3.382,3.382,0,1,1-6.758-.007q-.006-22.152-.015-44.3c0-.521.113-.733.646-.64a2.305,2.305,0,0,0,.49-.018c.915-.374,1.3-.149,1.35.787.015.3.007.61.007.916v34.726c0,.211,0,.422,0,.634.006.986.471,1.312,1.426,1.018a.47.47,0,0,0,.358-.457,6.542,6.542,0,0,0,.019-.7q0-21.132.011-42.263a4.547,4.547,0,0,0-.614-2.275c-.237-.427-.4-.362-.609.02a4.124,4.124,0,0,0-.6,2.209c.038.8.028,1.6,0,2.394C1452.974,1404.685,1452.576,1404.91,1451.661,1404.536Z" transform="translate(-1450.463 -1387.592)"/>
        <path id="Trazado_110215" data-name="Trazado 110215" d="M1458.971,1426.75c1.131-.058,1.131-.058,1.131-1.218a10.3,10.3,0,0,0-.01-1.407,5.68,5.68,0,0,1,1.163-3.838c.449,1.071,1.125,1.916,1.122,3.136q-.05,21.552-.006,43.1c0,.64-.155.816-.794.793-1.474-.05-1.475-.016-1.475-1.505v-35.639c0-1.16,0-1.16-1.131-1.219Z" transform="translate(-1457.772 -1409.806)" fill="#d5dddf"/>
        <path id="Trazado_110216" data-name="Trazado 110216" d="M1524.1,1403.406c-1.181,0-1.181,0-1.181-1.205a4.4,4.4,0,0,0,0-.56c-.05-.388.131-.5.483-.453a.908.908,0,0,0,.14,0c1.646-.012,1.627-.012,1.649,1.607.006.47-.083.7-.6.615A2.954,2.954,0,0,0,1524.1,1403.406Z" transform="translate(-1512.704 -1393.389)" fill="#010101"/>
        <path id="Trazado_110217" data-name="Trazado 110217" d="M1525.252,1465.015c0,1.131,0,1.131-1.124,1.131s-1.132,0-1.132-1.123c0-1.082,0-1.082,1.088-1.082h.07C1525.252,1463.942,1525.252,1463.942,1525.252,1465.015Z" transform="translate(-1512.777 -1447.311)" fill="#020202"/>
        <path id="Trazado_110218" data-name="Trazado 110218" d="M1524.061,1497.222c-1.179,0-1.179,0-1.179-1.149a3.607,3.607,0,0,0,0-.561c-.074-.463.148-.58.554-.517a.928.928,0,0,0,.14,0c1.578,0,1.549,0,1.582,1.6.011.557-.175.7-.671.624A2.8,2.8,0,0,0,1524.061,1497.222Z" transform="translate(-1512.662 -1473.976)" fill="#010101"/>
        <path id="Trazado_110219" data-name="Trazado 110219" d="M1524.079,1528.615c-1.082,0-1.082,0-1.082-1.088,0-1.117,0-1.117,1.138-1.117,1.117,0,1.117,0,1.117,1.138C1525.252,1528.615,1525.252,1528.615,1524.079,1528.615Z" transform="translate(-1512.777 -1500.978)" fill="#020202"/>
        <path id="Trazado_110220" data-name="Trazado 110220" d="M1524.171,1591.213c-1.174,0-1.174,0-1.174-1.157,0-1.059,0-1.059,1.046-1.059,1.209,0,1.209,0,1.209,1.176C1525.252,1591.213,1525.252,1591.213,1524.171,1591.213Z" transform="translate(-1512.777 -1554.747)" fill="#010101"/>
        <path id="Trazado_110221" data-name="Trazado 110221" d="M1525.252,1621.115c0,1.125,0,1.125-1.464,1.125-.791,0-.791,0-.791-1.391,0-.833,0-.764,1.5-.854C1525.621,1619.926,1525.15,1620.688,1525.252,1621.115Z" transform="translate(-1512.777 -1581.373)" fill="#010101"/>
        <path id="Trazado_110222" data-name="Trazado 110222" d="M1563.035,1691.459a1.376,1.376,0,0,0,.1-.256c.268-1.576.267-1.568,1.87-1.472.287.017.447.073.4.39,0,.023,0,.047,0,.07-.051.593.262,1.529-.133,1.706a3.281,3.281,0,0,1-2.249-.049C1563.025,1691.717,1563.03,1691.589,1563.035,1691.459Z" transform="translate(-1547.161 -1641.258)" fill="#010101"/>
        <path id="Trazado_110223" data-name="Trazado 110223" d="M1498.75,1349.712a6.578,6.578,0,0,0-1.411-.583c-.155-.047-.06-.241-.034-.375.068-.342.12-.687.2-1.028.232-1.061.05-.883,1.027-.575,1.695.535,1.685.566.712,2.041C1498.889,1349.721,1498.889,1349.721,1498.75,1349.712Z" transform="translate(-1490.66 -1346.772)" fill="#010101"/>
        <path id="Trazado_110224" data-name="Trazado 110224" d="M1519.858,1367.063a6.858,6.858,0,0,1,.944,2.021c.093.314.013.428-.275.473-.139.022-.278.041-.415.071-1.493.325-1.481.321-1.982-1.085-.1-.267.039-.329.193-.434Z" transform="translate(-1508.568 -1364.082)" fill="#010101"/>
        <path id="Trazado_110225" data-name="Trazado 110225" d="M1534.691,1676.668a12.783,12.783,0,0,0,1.135,1.136c.223.232-.182.453-.269.693a1.351,1.351,0,0,1-.144.24c-.721,1.15-.721,1.15-1.737.172-.913-.879-.914-.88.108-1.608C1534.068,1677.1,1534.355,1676.9,1534.691,1676.668Z" transform="translate(-1521.375 -1630.065)" fill="#010101"/>
        <path id="Trazado_110226" data-name="Trazado 110226" d="M1524.141,1651.56c1.069,0,.973.015,1.127,1.012.132.852-.209,1.039-.924,1.177-1.34.258-1.333.3-1.361-1.1C1522.96,1651.56,1522.96,1651.56,1524.141,1651.56Z" transform="translate(-1512.761 -1608.495)" fill="#010101"/>
        <path id="Trazado_110227" data-name="Trazado 110227" d="M1469.208,1347.045c0,1.127,0,1.127-1.112,1.127-.023,0-.05.008-.069,0-.359-.176-1.092.455-1.081-.534.013-1.225.309-1.678,1.222-1.718C1469.208,1345.872,1469.208,1345.872,1469.208,1347.045Z" transform="translate(-1464.624 -1345.904)"/>
        <path id="Trazado_110228" data-name="Trazado 110228" d="M1524.071,1434.889c-1.071,0-1.071,0-1.071-1.041,0-1.14,0-1.14,1.113-1.14,1.141,0,1.141,0,1.141,1.112C1525.254,1434.889,1525.254,1434.889,1524.071,1434.889Z" transform="translate(-1512.78 -1420.478)"/>
        <path id="Trazado_110229" data-name="Trazado 110229" d="M1524.126,1559.992c-1.126,0-1.126,0-1.126-1.127,0-1.054,0-1.054,1.058-1.054,1.2,0,1.2,0,1.2,1.2a1.986,1.986,0,0,0,0,.35c.1.53-.116.728-.64.638A2.978,2.978,0,0,0,1524.126,1559.992Z" transform="translate(-1512.78 -1527.955)"/>
        <path id="Trazado_110230" data-name="Trazado 110230" d="M1594.974,1438.784v-6.719c.88-.255.915-.912.914-1.691q-.029-18.138-.013-36.276c0-1.709.027-1.736,1.72-1.736h33.176c1.591,0,1.633.041,1.633,1.6q0,23.421,0,46.842c0,1.56-.054,1.614-1.627,1.614q-16.659,0-33.317,0c-1.51,0-1.581-.075-1.585-1.591a2.7,2.7,0,0,1,0-.352C1595.976,1439.7,1595.853,1439.039,1594.974,1438.784Z" transform="translate(-1574.613 -1385.816)" fill="#2d72bb"/>
        <path id="Trazado_110231" data-name="Trazado 110231" d="M1588.008,1426.445c1.131.056,1.131.056,1.131,1.241,0,.587.012,1.174,0,1.761-.009.307.1.432.407.4.139-.013.281,0,.422,0q17.222,0,34.445.013c.623,0,.816-.131.815-.793q-.031-24.02,0-48.04c0-.671-.206-.789-.82-.788q-17.222.026-34.445,0c-.686,0-.839.171-.837.845q.033,18.7.016,37.4c0,1.186,0,1.186-1.131,1.241-1.124-.055-1.124-.055-1.124-1.224q0-19.4,0-38.8c0-1.4.294-1.7,1.675-1.7h37.253c1.339,0,1.65.312,1.65,1.657q0,25.387,0,50.773c0,1.374-.3,1.673-1.705,1.673h-37.182c-1.391,0-1.689-.3-1.69-1.687,0-1.056.04-2.115-.015-3.168-.033-.634.143-.9.789-.784A1.516,1.516,0,0,0,1588.008,1426.445Z" transform="translate(-1567.647 -1373.478)"/>
        <path id="Trazado_110232" data-name="Trazado 110232" d="M1696.539,1780.189c-1.713,0-3.425-.012-5.137.009-.394,0-.5-.1-.51-.5-.024-1.761-.038-1.761,1.7-1.761,3,0,6.006.01,9.009-.01.455,0,.584.11.581.574-.009,1.69.01,1.69-1.706,1.69Z" transform="translate(-1657.012 -1717.056)"/>
        <path id="Trazado_110233" data-name="Trazado 110233" d="M1466.951,1772.26c0-.655.019-1.311-.007-1.965-.015-.371.116-.466.479-.479,1.783-.063,1.782-.075,1.782,1.7,0,.889.009,1.778,0,2.667a1.139,1.139,0,0,1-1.1,1.277c-.688.015-1.135-.485-1.148-1.3C1466.943,1773.523,1466.951,1772.892,1466.951,1772.26Z" transform="translate(-1464.62 -1710.073)" fill="#2d71bb"/>
        <path id="Trazado_110234" data-name="Trazado 110234" d="M1629.538,1436.485c-1.214.745-2.339,1.41-3.433,2.12-.4.256-.56.185-.794-.2-.872-1.445-.886-1.434.526-2.3,1.1-.673,2.194-1.359,3.3-2.021a.744.744,0,0,0,.407-.733q-.018-5.318,0-10.637c0-.477-.153-.589-.6-.577-1.126.028-2.255-.011-3.381.019-.442.012-.546-.13-.55-.556-.016-1.708-.032-1.708,1.643-1.708.8,0,1.6-.015,2.395.006.356.01.536-.087.484-.469a1.569,1.569,0,0,1,0-.352c.043-.46-.223-1.15.11-1.333.55-.3,1.277-.091,1.93-.092.242,0,.209.209.211.366,0,.47.024.941,0,1.409-.023.38.125.476.485.473q2.923-.022,5.847,0c.335,0,.458-.105.443-.443-.022-.469.007-.939-.009-1.409-.01-.3.086-.448.4-.408a.438.438,0,0,0,.07,0c1.749-.087,1.761-.087,1.78,1.692,0,.4.068.58.532.574q2.852-.04,5.706,0c.449.006.6-.143.534-.562a.447.447,0,0,1,0-.07c.021-1.781.021-1.773,1.849-1.64.3.022.441.095.406.406a2.379,2.379,0,0,0,0,.281c.009,1.575.009,1.575,1.554,1.575.822,0,1.644.013,2.465-.006.346-.008.484.073.5.461.075,1.8.089,1.8-1.692,1.8-.775,0-1.551.021-2.324-.008-.408-.016-.536.127-.51.521.029.444-.007.892.011,1.338.012.3-.1.44-.4.4a.388.388,0,0,0-.07,0c-1.742.083-1.755.083-1.774-1.7,0-.41-.081-.574-.538-.568q-2.853.039-5.706,0c-.457-.006-.589.157-.529.568a.466.466,0,0,1,0,.07c-.02,1.781-.02,1.773-1.854,1.635-.3-.023-.434-.108-.4-.411a1.718,1.718,0,0,0,0-.211c-.021-1.64-.021-1.64-1.629-1.64q-2.289,0-4.579,0c-.272,0-.563-.077-.561.389.013,3.258.007,6.516.007,9.9,1.443-.884,2.8-1.712,4.147-2.542.98-.6,1.969-1.189,2.932-1.816a1.365,1.365,0,0,1,1.633,0c1.389.876,2.794,1.727,4.2,2.582a1.028,1.028,0,0,0,.617.269c0-.49.021-.976-.006-1.458-.023-.4.061-.573.526-.579,1.734-.022,1.843-.034,1.7,1.687a2.581,2.581,0,0,0,1.592,2.852c1.8.948,3.48,2.131,5.239,3.165.5.295.488.52.211.957-.844,1.333-.825,1.336-2.141.525-4.055-2.5-8.118-4.985-12.163-7.5a.969.969,0,0,0-1.2.01c-2.164,1.363-4.333,2.719-6.536,4.018a1.241,1.241,0,0,0-.761,1.387,7.626,7.626,0,0,1,.007,1.015c1.533-.954,2.96-1.84,4.385-2.729.916-.571,1.837-1.135,2.741-1.723a1.27,1.27,0,0,1,1.506-.013q4.351,2.733,8.715,5.445a1.378,1.378,0,0,1,.692,1.287c-.01,3.593,0,7.185-.007,10.778,0,1.006-.4,1.392-1.419,1.393-5.283,0-10.567.011-15.85-.013-.6,0-.818.113-.78.76.062,1.053.035,2.113.008,3.169-.011.438.084.613.571.605q2.817-.043,5.635,0c.482.007.574-.162.575-.6,0-1.726.018-1.712,1.737-1.674.4.009.522.118.518.518-.005.556-.252,1.287.1,1.627.38.368,1.116.106,1.695.114,1.456.019,2.912-.009,4.367.015.441.007.674-.092.592-.574a.408.408,0,0,1,0-.07c.019-1.784.018-1.775,1.862-1.628.31.025.424.126.392.42a.679.679,0,0,0,0,.141c.057.551-.261,1.3.138,1.6.365.274,1.079.092,1.64.1.751.007,1.5.018,2.254,0,.364-.011.473.1.486.475.065,1.787.077,1.786-1.7,1.786-.657,0-1.319.045-1.971-.013s-.968.108-.85.821c.048.3-.021.612.015.913.053.455-.146.538-.561.542-1.679.016-1.7.03-1.688-1.649,0-.492-.126-.635-.624-.627-1.855.03-3.71.025-5.565,0-.448-.005-.667.105-.587.579a.41.41,0,0,1,0,.07c-.018,1.788-.017,1.778-1.867,1.623-.314-.026-.417-.137-.387-.425a1.085,1.085,0,0,0,0-.141c-.017-.536.168-1.241-.1-1.564-.324-.386-1.056-.118-1.61-.126-1.5-.021-3.006.009-4.508-.017-.436-.008-.613.121-.542.554a.434.434,0,0,1,0,.07c-.023,1.781-.022,1.774-1.841,1.647-.286-.02-.443-.077-.416-.4.018-.21,0-.422,0-.634,0-1.23,0-1.23-1.264-1.23-.892,0-1.785-.016-2.677.007-.4.01-.575-.054-.582-.524-.024-1.737-.044-1.737,1.687-1.737.752,0,1.5-.026,2.254.01.458.021.6-.119.592-.585-.023-2.278-.01-4.555-.01-6.833v-12.067Z" transform="translate(-1600.157 -1407.479)"/>
        <path id="Trazado_110235" data-name="Trazado 110235" d="M1597.818,1691.143c0,1.108,0,1.108-1.1,1.108-1.073,0-1.073,0-1.073-1.077,0-1.178,0-1.178,1.042-1.178C1597.818,1690,1597.818,1690,1597.818,1691.143Z" transform="translate(-1575.187 -1641.516)" fill="#000101"/>
        <path id="Trazado_110236" data-name="Trazado 110236" d="M1674.915,1549.7c0-1.409.011-2.817-.008-4.225a.732.732,0,0,1,.4-.726q3.559-2.2,7.094-4.439a.666.666,0,0,1,.824.009q3.536,2.237,7.095,4.438a.685.685,0,0,1,.381.666q-.019,4.3,0,8.592c0,.392-.1.522-.5.513q-1.76-.038-3.521,0c-.411.01-.5-.131-.5-.517.019-1.62.012-3.239.007-4.859,0-.977-.4-1.388-1.348-1.394q-2.042-.012-4.085,0c-.917.006-1.322.415-1.327,1.341-.008,1.6-.029,3.193.013,4.788.014.548-.156.662-.666.643-1.078-.04-2.16-.036-3.239,0-.475.016-.646-.089-.632-.6C1674.94,1552.516,1674.915,1551.107,1674.915,1549.7Z" transform="translate(-1643.278 -1512.799)" fill="#fbbb04"/>
        <path id="Trazado_110237" data-name="Trazado 110237" d="M1723,1611.724v-.492c0-1.872,0-1.865,1.9-1.7.269.023.361.09.359.364q-.017,1.9,0,3.8c0,.272-.082.394-.358.357a.385.385,0,0,0-.07,0c-1.831.1-1.831.1-1.831-1.691Z" transform="translate(-1684.601 -1572.33)" fill="#d5dddf"/>
      </g>
    </g>
  </g>
</svg>
