<svg xmlns="http://www.w3.org/2000/svg" xmlns:xlink="http://www.w3.org/1999/xlink" width="166.031" height="156.134" viewBox="0 0 166.031 156.134">
  <defs>
    <filter id="Trazado_134289" x="15.115" y="8.533" width="134.761" height="134.761" filterUnits="userSpaceOnUse">
      <feOffset input="SourceAlpha"/>
      <feGaussianBlur stdDeviation="2.5" result="blur"/>
      <feFlood flood-opacity="0.29"/>
      <feComposite operator="in" in2="blur"/>
      <feComposite in="SourceGraphic"/>
    </filter>
  </defs>
  <g id="Grupo_79504" data-name="Grupo 79504" transform="translate(15150.197 9625.576)">
    <rect id="Rect치ngulo_34269" data-name="Rect치ngulo 34269" width="166.031" height="98.339" rx="13" transform="translate(-15150.197 -9567.781)" fill="#f6f6f6"/>
    <path id="Trazado_108959" data-name="Trazado 108959" d="M1148.62,1788.316a66.208,66.208,0,0,1,62.354,44.174H1221.3a75.919,75.919,0,0,0-145.366,0h10.329A66.208,66.208,0,0,1,1148.62,1788.316Z" transform="translate(-16216.135 -11404.076)" fill="#d57700"/>
    <g transform="matrix(1, 0, 0, 1, -15150.2, -9625.58)" filter="url(#Trazado_134289)">
      <path id="Trazado_134289-2" data-name="Trazado 134289" d="M59.88,0A59.88,59.88,0,1,1,0,59.88,59.88,59.88,0,0,1,59.88,0Z" transform="translate(22.62 16.03)" fill="#fc9d25"/>
    </g>
    <g id="Grupo_79501" data-name="Grupo 79501" transform="translate(-216.356 -330.621)">
      <text id="Im치genes" transform="translate(-14883.825 -9187.106)" fill="#fff" font-size="15" font-family="Roboto-Bold, Roboto" font-weight="700" style="isolation: isolate"><tspan x="0" y="0">Im치genes</tspan></text>
      <g id="image" transform="translate(-14877.688 -9254.977)">
        <path id="Trazado_134388" data-name="Trazado 134388" d="M44.248,6.529H41.232V5.145A5.151,5.151,0,0,0,36.087,0H5.145A5.151,5.151,0,0,0,0,5.145V27.926a5.151,5.151,0,0,0,5.145,5.145H7.617v1.384A5.151,5.151,0,0,0,12.762,39.6H44.248a5.151,5.151,0,0,0,5.145-5.145V11.674a5.151,5.151,0,0,0-5.145-5.145ZM5.145,2.058H36.087a3.09,3.09,0,0,1,3.087,3.087v17.1l-4.995-7.077a4.52,4.52,0,0,0-3.693-1.934h-.042a4.52,4.52,0,0,0-3.685,1.87L20.73,23.337a2.507,2.507,0,0,1-3.424.6L12.8,20.924A4.562,4.562,0,0,0,7.744,20.9l-.022.015L2.058,24.861V5.145A3.09,3.09,0,0,1,5.145,2.058ZM2.058,27.926v-.558l6.828-4.75a2.507,2.507,0,0,1,2.768.017l4.507,3.016a4.559,4.559,0,0,0,6.229-1.1l6.029-8.231a2.485,2.485,0,0,1,2.026-1.028h.023a2.484,2.484,0,0,1,2.03,1.064l6.677,9.459v1.091l.01.986a3.087,3.087,0,0,1-3.087,3.12H5.145a3.091,3.091,0,0,1-3.087-3.087Zm45.278,6.529a3.091,3.091,0,0,1-3.087,3.087H12.762a3.091,3.091,0,0,1-3.087-3.087V33.071H36.1a5.145,5.145,0,0,0,5.145-5.2l-.01-.98V8.587h3.016a3.09,3.09,0,0,1,3.087,3.087Zm0,0" fill="#f6f6f6"/>
        <path id="Trazado_134389" data-name="Trazado 134389" d="M111.324,68.336a5.461,5.461,0,1,0-5.461-5.461A5.461,5.461,0,0,0,111.324,68.336Zm0-8.864a3.4,3.4,0,1,1-3.4,3.4A3.4,3.4,0,0,1,111.324,59.472Zm0,0" transform="translate(-94.97 -51.506)" fill="#f6f6f6"/>
      </g>
    </g>
  </g>
</svg>
