<svg xmlns="http://www.w3.org/2000/svg" width="84" height="84" viewBox="0 0 84 84">
  <g id="Grupo_79471" data-name="Grupo 79471" transform="translate(-1070 -6211)">
    <g id="Grupo_79467" data-name="Grupo 79467">
      <circle id="Elipse_4722" data-name="Elipse 4722" cx="42" cy="42" r="42" transform="translate(1070 6211)" fill="#fff"/>
      <g id="Grupo_76406" data-name="Grupo 76406" transform="translate(1250.156 5410.555)">
        <path id="Trazado_112122" data-name="Trazado 112122" d="M-109.058,828.539a32.665,32.665,0,0,1,2.295,6.513,31.51,31.51,0,0,1,.792,9.292,31.59,31.59,0,0,1-6.992,18.172,31.138,31.138,0,0,1-17.695,11.258,31.359,31.359,0,0,1-27.862-6.4,30.65,30.65,0,0,1-10.973-17.487,31.363,31.363,0,0,1,6.584-28.025A31,31,0,0,1-145.6,811.1a32.191,32.191,0,0,1,22.353,2.7c.447.222.35.332.036.579a9.776,9.776,0,0,0-3.073,3.969c-.168.407-.317.437-.69.26a24.4,24.4,0,0,0-6.029-1.994,25.8,25.8,0,0,0-21.884,5.5,25.145,25.145,0,0,0-9.1,15.215,25.652,25.652,0,0,0,5.45,21.79,25.23,25.23,0,0,0,15.794,9.271,25.6,25.6,0,0,0,21.155-5.472A25.607,25.607,0,0,0-112.2,847a25.379,25.379,0,0,0-1.542-14.429c-.206-.5-.191-.72.369-.923a9.635,9.635,0,0,0,3.892-2.715C-109.358,828.8-109.279,828.619-109.058,828.539Z" fill="#5290f3"/>
        <path id="Trazado_112123" data-name="Trazado 112123" d="M-117.222,878.13a14.669,14.669,0,0,1-14.656-14.713A14.614,14.614,0,0,1-117.2,848.731a14.652,14.652,0,0,1,14.719,14.758A14.726,14.726,0,0,1-117.222,878.13Z" transform="translate(-20.97 -20.977)" fill="#5290f3"/>
        <path id="Trazado_112124" data-name="Trazado 112124" d="M-61.375,835.572a6.7,6.7,0,0,1-6.7-6.707,6.742,6.742,0,0,1,6.758-6.719,6.742,6.742,0,0,1,6.667,6.752A6.7,6.7,0,0,1-61.375,835.572Z" transform="translate(-55.701 -6.507)" fill="#5290f3"/>
      </g>
    </g>
  </g>
</svg>
