<svg xmlns="http://www.w3.org/2000/svg" width="63" height="60" viewBox="0 0 63 60">
  <g id="Grupo_79489" data-name="Grupo 79489" transform="translate(-925.303 -7907)">
    <g id="Grupo_78806" data-name="Grupo 78806" transform="translate(925.686 7906.647)">
      <rect id="Rectángulo_32115" data-name="Rectángulo 32115" width="63" height="60" transform="translate(-0.383 0.352)" fill="none"/>
      <g id="Grupo_71692" data-name="Grupo 71692" transform="translate(6.413 3.02)">
        <path id="Trazado_105955" data-name="Trazado 105955" d="M461.158,64.389a2.789,2.789,0,0,0-2.679-2.8c-.443-.021-.442-.191-.442-.517q.01-7.178,0-14.357a4.119,4.119,0,0,0-4.366-4.388q-5.325,0-10.65,0a4.118,4.118,0,0,0-4.365,4.337c-.011,2.123,0,4.246,0,6.37,0,.715.12.872.789,1.094.677-.232.774-.362.776-1.093,0-1.211,0-2.422.005-3.633,0-.162-.077-.345.07-.49h0c.152-.131.333-.062.5-.063,5.046,0,10.092,0,15.138-.011.42,0,.554.079.552.53-.02,4.159-.014,8.317-.006,12.476a.986.986,0,0,1-.262.746,2.817,2.817,0,0,0-.679,1.71c-.148,1.453-.349,2.9-.459,4.356a.709.709,0,0,1-.754.761c-.189.018-.378.034-.567.05-.521,0-1.042,0-1.562.01a.584.584,0,0,1-.446-.206,2.416,2.416,0,0,0-3.5-.012.7.7,0,0,1-.55.209c-.608-.008-1.216-.014-1.825,0a1.989,1.989,0,0,1-1.673-.455,2.11,2.11,0,0,0-1.068-.373c-.335-.08-.444-.233-.237-.547.123-.188.221-.393.337-.586a1.738,1.738,0,0,0,.23-.793,2.875,2.875,0,0,0-2.8-2.568c-.371.06-.452-.01-.449-.383.018-2.155.012-4.31.007-6.465,0-.821-.263-1.049-1.085-.984h0a1.022,1.022,0,0,0-.484,1.018c.01,1.827.005,3.654,0,5.481,0,.161-.019.322-.035.58a1.848,1.848,0,0,0-1.288-.878,9.4,9.4,0,0,0-1.2-.025,1.8,1.8,0,0,0-1.9,1.448c-.266.935-.266.935-1.128.467a1.8,1.8,0,0,0-2.367.324c-.15.146-.295.3-.443.444a1.827,1.827,0,0,0-.361,2.568c.432.768.432.768-.441,1.008a1.813,1.813,0,0,0-1.537,1.985c0,.174,0,.348,0,.522a1.85,1.85,0,0,0,1.623,2.126c.786.22.786.22.385.927-.017.03-.031.062-.048.093a1.8,1.8,0,0,0,.329,2.489c.219.223.437.45.673.655a1.74,1.74,0,0,0,1.989.266c.342-.152.667-.579,1-.437s.263.675.4,1.027a1.82,1.82,0,0,0,1.861,1.219c1.059.028,2.094.035,2.551-1.2a6.4,6.4,0,0,0,.214-.75c.078-.328.228-.459.544-.241.1.069.208.125.314.185a1.844,1.844,0,0,0,2.616-.34c.173-.171.349-.34.515-.518a1.771,1.771,0,0,0,.292-2.2c-.106-.2-.21-.4-.334-.588-.183-.276-.07-.412.2-.487l.452-.123a1.784,1.784,0,0,0,1.539-1.974c0-.313.11-.371.388-.36.539.02,1.08.026,1.618,0,.348-.018.457.076.381.431a10.369,10.369,0,0,0-.261,1.593,4.138,4.138,0,0,1-1.488,2.886c-.435.4-.876.795-1.313,1.193a8.019,8.019,0,0,0-2.123,9.041,6.832,6.832,0,0,1,.446,2.593c0,.265-.033.4-.358.405-.717.018-.938.278-.939,1.009,0,1.531.014,3.063-.009,4.593a1.076,1.076,0,0,0,.536,1.037H445.5c.131-.188.359-.295.437-.526.035-.77-.216-1.036-.986-1.04-.555,0-1.11-.008-1.665,0-.214,0-.307-.042-.3-.283.024-1.056.029-2.112.041-3.168.126-.143.293-.068.438-.068,4.167,0,8.334,0,12.5-.011.4,0,.533.093.516.51-.034.867-.029,1.736,0,2.6.012.354-.106.443-.435.419-.415-.031-.832-.018-1.248-.023-1.927.006-3.854.021-5.782.011a.894.894,0,0,0-1.024.74,1.038,1.038,0,0,0,.539.833h8.983a.986.986,0,0,0,.528-.83c-.008-1.671,0-3.341-.006-5.012,0-.445-.255-.8-.679-.773-.634.034-.666-.281-.613-.747.021-.189,0-.383,0-.574.056-3.228-.467-3.06,2.1-6.457a10.99,10.99,0,0,0,2.3-6.531C461.206,71.385,461.178,67.887,461.158,64.389Zm-17.64,7.186a.267.267,0,0,1-.193.217,2.343,2.343,0,0,1-.3.09,1.894,1.894,0,0,0-1.315,3.178c.377.485-.02.694-.276.98s-.492.525-.908.206a2.347,2.347,0,0,0-1.032-.477,1.817,1.817,0,0,0-1.918,1.046c-.075.174-.112.365-.176.544-.079.224-.036.587-.267.64a3.644,3.644,0,0,1-1.188.022c-.217-.023-.205-.3-.25-.473a2.181,2.181,0,0,0-.865-1.488,1.888,1.888,0,0,0-1.788-.137c-.411.157-.779.887-1.323.214-.2-.241-.626-.369-.528-.757a5.318,5.318,0,0,1,.453-.873,1.786,1.786,0,0,0-.71-2.311,2.483,2.483,0,0,0-.883-.3c-.432-.064-.558-.274-.538-.7.048-1.018-.125-.752.822-1.058.049-.016.1-.018.153-.033a1.788,1.788,0,0,0,1.1-2.624c-.024-.046-.054-.09-.079-.135-.422-.758-.328-1.092.411-1.584.192-.128.319-.032.472.048,1.905.992,2.679.674,3.325-1.382.087-.277.214-.414.515-.372a1.6,1.6,0,0,0,.469,0c.422-.068.6.134.655.525a1.916,1.916,0,0,0,3.174,1.3c.161-.121.368-.337.6-.1a3.6,3.6,0,0,1,.79.88c-.131.231-.25.442-.368.653a1.792,1.792,0,0,0,1.173,2.827C443.5,70.359,443.73,70.781,443.518,71.575Zm12.96-24.521c-.037.188-.13.22-.282.217l-1.2-.026c-.155.011-.311.03-.466.03-4.589,0-9.179,0-13.768.01-.424,0-.565-.1-.558-.543a2.611,2.611,0,0,1,2.853-2.848q5.4.006,10.794.018h0A2.63,2.63,0,0,1,456.478,47.054Zm-3.727,23.979a8.33,8.33,0,0,0,1.819-.069c.2-.042.244.043.216.222-.157,1.011-.165,2.044-.4,3.043a3.544,3.544,0,0,1-1.958,2.431c0-1.776,0-3.54-.006-5.3C452.42,71.1,452.507,71.029,452.751,71.033Zm6.818,3.929a9.61,9.61,0,0,1-2.025,5.594,25.532,25.532,0,0,0-1.483,2.14,5.84,5.84,0,0,0-.882,3.166c.02.956-.011,1.913.012,2.868.008.355-.112.457-.448.431-.4-.031-.8-.024-1.2-.034-1.443.009-2.887.023-4.33.028-1.5.005-2.994-.007-4.49.008-.324,0-.472-.058-.446-.427a7.733,7.733,0,0,0-.575-3.246,6.3,6.3,0,0,1,1.461-6.931,17.56,17.56,0,0,1,1.287-1.222,6.38,6.38,0,0,0,2.4-4.63,15.037,15.037,0,0,1,.3-1.9.773.773,0,0,1,.879-.7.813.813,0,0,1,.816.842q.017,2.819-.008,5.638a1.827,1.827,0,0,1-.633,1.275c-.554.554-1.112,1.1-1.659,1.663a.79.79,0,1,0,1.1,1.11q.34-.325.662-.667a6.4,6.4,0,0,1,2.42-1.692,5.132,5.132,0,0,0,3.327-4.491c.365-3.091.7-6.186,1.052-9.278a1.245,1.245,0,0,1,.514-.978h0a1.147,1.147,0,0,1,1.343-.211,1.109,1.109,0,0,1,.63,1.112C459.6,67.938,459.637,71.451,459.569,74.961Z" transform="translate(-411.872 -42.325)" fill="#fb8c00"/>
        <path id="Trazado_105956" data-name="Trazado 105956" d="M409.8,116.428c0-.8-.191-1.01-.99-1.071-.164-.013-.3,0-.312-.233a5.015,5.015,0,0,1,.289-2.352,8.023,8.023,0,0,0,.53-5.291c-.163-.713-.351-.844-1.084-.837h0a.951.951,0,0,0-.449,1.189,6.288,6.288,0,0,1-.395,4.211,5.884,5.884,0,0,0-.446,2.841c.017.353-.07.508-.449.473s-.794-.026-1.191-.036c-1.616.01-3.232.023-4.848.03-1.287,0-2.574-.024-3.86.014-.482.014-.581-.144-.561-.586.036-.781-.027-1.567.018-2.346a6.4,6.4,0,0,0-1.272-4.148q-.555-.788-1.123-1.567a10.271,10.271,0,0,1-2.031-6.227q0-4.825,0-9.65a1.226,1.226,0,0,1,.51-1.223h0a1.289,1.289,0,0,1,1.976,1.039c.2,1.584.358,3.173.539,4.759.191,1.672.362,3.347.59,5.013A5.491,5.491,0,0,0,397,103.6a5.971,5.971,0,0,0,2.446,1.212.834.834,0,0,1,.423.286c.562.569,1.121,1.14,1.689,1.7.437.433.886.464,1.232.1.326-.34.291-.777-.112-1.2q-.886-.92-1.784-1.828a1.569,1.569,0,0,1-.5-1.11c-.007-1.841,0-3.682.007-5.524.012-.576.257-.887.744-.943.524-.061.849.192.953.792q.264,1.513.491,3.033a3.907,3.907,0,0,0,1.111,2.246c.748.751,1.506,1.494,2.245,2.254a.866.866,0,0,0,1.249.157c.341-.572.316-.808-.155-1.283q-1.066-1.075-2.141-2.141a2.52,2.52,0,0,1-.753-1.452c-.149-1-.318-1.991-.483-2.985a2.41,2.41,0,0,0-2.667-2.206,2.439,2.439,0,0,0-2.183,2.594c-.008,1.723,0,3.446-.006,5.169,0,.123.083.269-.071.4a3.857,3.857,0,0,1-1.987-3.006c-.365-3.179-.712-6.359-1.062-9.54a2.541,2.541,0,0,0-1.614-2.246,2.814,2.814,0,0,0-4,2.651q-.014,4.934,0,9.869a11.688,11.688,0,0,0,2.372,7.089c.425.572.856,1.141,1.246,1.737a4.192,4.192,0,0,1,.788,2.283c.006,1.1,0,2.193.014,3.289,0,.277-.086.343-.354.354-.719.031-.942.284-.944,1.009,0,1.531.014,3.063-.009,4.595a1.081,1.081,0,0,0,.534,1.039h15.563a1.094,1.094,0,0,0,.535-1.089C409.789,119.419,409.805,117.923,409.8,116.428Zm-1.557,3.6c.012.358-.112.439-.438.416-.415-.029-.832-.017-1.249-.023q-5.752.009-11.5.021c-.211,0-.311-.036-.305-.28.023-1.057.028-2.114.04-3.171h0c.126-.144.293-.068.438-.069,4.168,0,8.336,0,12.5-.011.406,0,.531.1.515.512C408.214,118.29,408.219,119.159,408.247,120.027Z" transform="translate(-390.059 -68.523)" fill="#fb8c00"/>
        <path id="Trazado_105957" data-name="Trazado 105957" d="M407.7,58.495q5.4.012,10.807,0a2.5,2.5,0,0,0,2.682-2.625q.028-5.456,0-10.911a2.489,2.489,0,0,0-2.667-2.631q-5.4-.006-10.807,0A2.5,2.5,0,0,0,405.039,45c-.006,1.792,0,3.585,0,5.377,0,1.81,0,3.62,0,5.429A2.508,2.508,0,0,0,407.7,58.495Zm11.912-2.478a.919.919,0,0,1-.946.908c-.391.023-.784,0-1.3,0l2.252-2.388C419.619,55.13,419.645,55.576,419.612,56.016Zm-13.006-11c0-.711.323-1.114.95-1.115,3.272-.006,6.544.006,9.816.012.347-.006.694-.017,1.04-.017.9,0,1.211.316,1.214,1.227,0,1.3,0,2.6,0,3.906,0,.937-.012,1.875.007,2.812a.926.926,0,0,1-.3.733c-.59.585-1.161,1.189-1.74,1.786-.747.8-1.5,1.6-2.238,2.4a.61.61,0,0,1-.519.169c-2.367,0-4.735,0-7.1,0-.8,0-1.131-.344-1.132-1.157Q406.6,50.393,406.606,45.014Z" transform="translate(-398.68 -42.325)" fill="#fb8c00"/>
        <path id="Trazado_105958" data-name="Trazado 105958" d="M464.412,77.262c-.974-.011-1.949-.01-2.924,0a.77.77,0,0,0-.875.861q-.019,1.461,0,2.924c.006.567.264.86.815.873q1.513.036,3.028,0a.749.749,0,0,0,.8-.837c.013-.5,0-1.009,0-1.514,0-.487.011-.975,0-1.462A.762.762,0,0,0,464.412,77.262Zm-1.546,3.1c-.8,0-.673.087-.685-.8,0-.736,0-.736.8-.736.709,0,.714,0,.708.874C463.681,80.48,463.782,80.363,462.866,80.365Z" transform="translate(-430.662 -62.428)" fill="#fb8c00"/>
        <path id="Trazado_105959" data-name="Trazado 105959" d="M460.614,65.768c.014.573.257.861.812.875q1.513.037,3.027,0a.741.741,0,0,0,.8-.83q.02-1.487,0-2.975a.754.754,0,0,0-.835-.843q-1.488-.016-2.975,0a.756.756,0,0,0-.829.85c-.013.487,0,.975,0,1.462S460.6,65.281,460.614,65.768Zm1.57-1.537c-.007-.674,0-.68.858-.671.753.008.635-.115.648.777-.014.868.12.758-.78.758C462.05,65.094,462.194,65.2,462.184,64.231Z" transform="translate(-430.665 -53.641)" fill="#fb8c00"/>
        <path id="Trazado_105960" data-name="Trazado 105960" d="M475.995,78.828c.8.005,1.6,0,2.4,0,.818,0,1.636,0,2.454,0,.614,0,.961-.288.964-.778s-.338-.785-.951-.786q-2.428-.005-4.856,0c-.61,0-.972.293-.977.772S475.394,78.824,475.995,78.828Z" transform="translate(-438.966 -62.433)" fill="#fb8c00"/>
        <path id="Trazado_105961" data-name="Trazado 105961" d="M475.936,67.205q2.505.015,5.011,0a.774.774,0,0,0,.869-.769c.009-.494-.3-.784-.888-.791-.835-.01-1.67,0-2.505,0-.817,0-1.635-.006-2.453,0-.575.006-.923.3-.934.758A.811.811,0,0,0,475.936,67.205Z" transform="translate(-438.968 -55.744)" fill="#fb8c00"/>
        <path id="Trazado_105962" data-name="Trazado 105962" d="M478.7,84.576c-.469-.017-.939,0-1.408,0s-.939-.011-1.408,0a.78.78,0,1,0-.03,1.555c.956.022,1.913.023,2.869,0a.747.747,0,0,0,.788-.791A.738.738,0,0,0,478.7,84.576Z" transform="translate(-438.967 -66.638)" fill="#fb8c00"/>
        <path id="Trazado_105963" data-name="Trazado 105963" d="M443.121,101.311a3.7,3.7,0,1,0,3.7,3.716A3.682,3.682,0,0,0,443.121,101.311Zm-.205,5.779a2.1,2.1,0,0,1,0-4.174h0a2.1,2.1,0,1,1,0,4.174Z" transform="translate(-418.474 -76.275)" fill="#fb8c00"/>
        <path id="Trazado_105964" data-name="Trazado 105964" d="M415.244,53.8c1.059.006,2.118,0,3.177,0,1.076,0,2.153,0,3.229,0,.573,0,.919-.3.931-.756.013-.482-.347-.805-.943-.807q-3.2-.01-6.406,0c-.6,0-.963.318-.958.794S414.63,53.792,415.244,53.8Z" transform="translate(-403.996 -48.025)" fill="#fb8c00"/>
        <path id="Trazado_105965" data-name="Trazado 105965" d="M415.133,62.582q2.135.017,4.27,0a.784.784,0,1,0-.009-1.559c-.694-.009-1.389,0-2.083,0-.711,0-1.423-.005-2.135,0-.56,0-.911.313-.908.78A.8.8,0,0,0,415.133,62.582Z" transform="translate(-403.993 -53.083)" fill="#fb8c00"/>
      </g>
    </g>
  </g>
</svg>
