<svg xmlns="http://www.w3.org/2000/svg" xmlns:xlink="http://www.w3.org/1999/xlink" width="200" height="176.6" viewBox="0 0 200 176.6">
  <defs>
    <filter id="Trazado_134310" x="19.5" y="6.5" width="162" height="159" filterUnits="userSpaceOnUse">
      <feOffset input="SourceAlpha"/>
      <feGaussianBlur stdDeviation="2.5" result="blur"/>
      <feFlood flood-opacity="0.29"/>
      <feComposite operator="in" in2="blur"/>
      <feComposite in="SourceGraphic"/>
    </filter>
  </defs>
  <g id="Grupo_79451" data-name="Grupo 79451" transform="translate(14982 3667.635)">
    <g id="Trazado_134308" data-name="Trazado 134308" transform="translate(-14969 -3667.635)" fill="none" stroke-linecap="round">
      <path d="M17,0H157a17,17,0,0,1,17,17V150a17,17,0,0,1-17,17H17A17,17,0,0,1,0,150V17A17,17,0,0,1,17,0Z" stroke="none"/>
      <path d="M 17 8 C 12.03738403320312 8 8 12.03738403320312 8 17 L 8 150 C 8 154.9626159667969 12.03738403320312 159 17 159 L 157 159 C 161.9626159667969 159 166 154.9626159667969 166 150 L 166 17 C 166 12.03738403320312 161.9626159667969 8 157 8 L 17 8 M 17 0 L 157 0 C 166.3888244628906 0 174 7.61114501953125 174 17 L 174 150 C 174 159.3888244628906 166.3888244628906 167 157 167 L 17 167 C 7.61114501953125 167 0 159.3888244628906 0 150 L 0 17 C 0 7.61114501953125 7.61114501953125 0 17 0 Z" stroke="none" fill="#1565c0"/>
    </g>
    <path id="Trazado_134309" data-name="Trazado 134309" d="M6,0H194a6,6,0,0,1,6,6V80.721a6,6,0,0,1-6,6H6a6,6,0,0,1-6-6V6A6,6,0,0,1,6,0Z" transform="translate(-14982 -3577.756)" fill="#f6f6f6"/>
    <g transform="matrix(1, 0, 0, 1, -14982, -3667.64)" filter="url(#Trazado_134310)">
      <path id="Trazado_134310-2" data-name="Trazado 134310" d="M15,0H132a15,15,0,0,1,15,15V129a15,15,0,0,1-15,15H15A15,15,0,0,1,0,129V15A15,15,0,0,1,15,0Z" transform="translate(27 14)" fill="#1565c0"/>
    </g>
    <path id="Trazado_134311" data-name="Trazado 134311" d="M-29.564,0H-32.12V-4.453h-3.787V0h-2.571V-10.664h2.571v4.233h3.787v-4.233h2.556Zm4.116,0h-2.476V-7.925h2.476ZM-28.07-9.976a1.111,1.111,0,0,1,.381-.87,1.432,1.432,0,0,1,.989-.339,1.432,1.432,0,0,1,.989.339,1.111,1.111,0,0,1,.381.87,1.111,1.111,0,0,1-.381.87,1.432,1.432,0,0,1-.989.339,1.432,1.432,0,0,1-.989-.339A1.111,1.111,0,0,1-28.07-9.976Zm11.5,6.072A4.779,4.779,0,0,1-17.4-.956a2.665,2.665,0,0,1-2.245,1.1,2.285,2.285,0,0,1-1.794-.8v3.7H-23.91V-7.925H-21.6l.073.732a2.285,2.285,0,0,1,1.868-.879,2.687,2.687,0,0,1,2.278,1.08,4.838,4.838,0,0,1,.813,2.97Zm-2.468-.154q0-2.109-1.23-2.109a1.162,1.162,0,0,0-1.172.63v3.12a1.2,1.2,0,0,0,1.187.659q1.179,0,1.216-2.036Zm7.39,4.2A4.074,4.074,0,0,1-14.6-.941a3.756,3.756,0,0,1-1.128-2.831v-.205a4.867,4.867,0,0,1,.45-2.146,3.3,3.3,0,0,1,1.315-1.439,3.969,3.969,0,0,1,2.051-.509A3.43,3.43,0,0,1-9.276-7.035a4.073,4.073,0,0,1,.967,2.889v.959h-4.907a1.779,1.779,0,0,0,.579,1.047,1.722,1.722,0,0,0,1.157.381,2.218,2.218,0,0,0,1.831-.82l1.128,1.333A3.153,3.153,0,0,1-9.829-.231,4.418,4.418,0,0,1-11.649.146Zm-.278-6.313q-1.084,0-1.289,1.436h2.49v-.19a1.223,1.223,0,0,0-.3-.919A1.2,1.2,0,0,0-11.927-6.167Zm9.4.476-.813-.059a1.46,1.46,0,0,0-1.494.732V0H-7.3V-7.925h2.314L-4.9-6.907A1.911,1.911,0,0,1-3.168-8.071a2.407,2.407,0,0,1,.688.088ZM.7-7.925l.081.93A2.725,2.725,0,0,1,3.043-8.071,2.006,2.006,0,0,1,5.072-6.877,2.637,2.637,0,0,1,7.4-8.071q2.41,0,2.476,2.915V0H7.4V-5A1.511,1.511,0,0,0,7.2-5.889a.873.873,0,0,0-.747-.278,1.169,1.169,0,0,0-1.091.652l.007.1V0H2.889V-4.988a1.588,1.588,0,0,0-.2-.9.87.87,0,0,0-.754-.278,1.184,1.184,0,0,0-1.084.652V0H-1.615V-7.925ZM15.121.146A4.074,4.074,0,0,1,12.169-.941a3.756,3.756,0,0,1-1.128-2.831v-.205a4.867,4.867,0,0,1,.45-2.146,3.3,3.3,0,0,1,1.315-1.439,3.969,3.969,0,0,1,2.051-.509,3.43,3.43,0,0,1,2.637,1.036,4.073,4.073,0,0,1,.967,2.889v.959H13.553a1.779,1.779,0,0,0,.579,1.047,1.722,1.722,0,0,0,1.157.381,2.218,2.218,0,0,0,1.831-.82l1.128,1.333A3.153,3.153,0,0,1,16.941-.231,4.418,4.418,0,0,1,15.121.146Zm-.278-6.313q-1.084,0-1.289,1.436h2.49v-.19a1.223,1.223,0,0,0-.3-.919A1.2,1.2,0,0,0,14.843-6.167Zm4.3,2.146a4.841,4.841,0,0,1,.813-2.966,2.676,2.676,0,0,1,2.271-1.084,2.276,2.276,0,0,1,1.787.835V-11.25h2.476V0H24.269l-.125-.85a2.337,2.337,0,0,1-1.934,1A2.671,2.671,0,0,1,19.969-.937,4.994,4.994,0,0,1,19.142-4.021Zm2.468.154q0,2.109,1.23,2.109a1.215,1.215,0,0,0,1.172-.688V-5.464a1.182,1.182,0,0,0-1.157-.7q-1.143,0-1.238,1.846ZM30.494,0H28.019V-7.925h2.476ZM27.872-9.976a1.111,1.111,0,0,1,.381-.87,1.432,1.432,0,0,1,.989-.339,1.432,1.432,0,0,1,.989.339,1.111,1.111,0,0,1,.381.87,1.111,1.111,0,0,1-.381.87,1.432,1.432,0,0,1-.989.339,1.432,1.432,0,0,1-.989-.339A1.111,1.111,0,0,1,27.872-9.976ZM36.478,0a2.787,2.787,0,0,1-.234-.71,2.3,2.3,0,0,1-1.9.857,2.812,2.812,0,0,1-1.9-.677,2.156,2.156,0,0,1-.784-1.7A2.216,2.216,0,0,1,32.6-4.182a4.851,4.851,0,0,1,2.769-.659h.762v-.42q0-1.1-.945-1.1a.772.772,0,0,0-.879.868H31.842a2.213,2.213,0,0,1,.978-1.865,4.109,4.109,0,0,1,2.494-.717,3.6,3.6,0,0,1,2.4.74,2.572,2.572,0,0,1,.9,2.029v3.508a3.593,3.593,0,0,0,.337,1.67V0ZM34.933-1.611a1.377,1.377,0,0,0,.765-.2,1.239,1.239,0,0,0,.436-.447V-3.523h-.718q-1.289,0-1.289,1.157a.707.707,0,0,0,.227.546A.822.822,0,0,0,34.933-1.611Z" transform="translate(-14882 -3542.657)" fill="#fff"/>
    <g id="Grupo_79448" data-name="Grupo 79448" transform="translate(-15824.598 -5019.135)">
      <path id="Trazado_108980" data-name="Trazado 108980" d="M974.554,1443.342a6,6,0,0,1-1.154,2.64,4.807,4.807,0,0,1-3.344,1.722c-.248.021-.5.023-.748.023q-26.723,0-53.445.007a4.784,4.784,0,0,1-4.714-2.748,6.222,6.222,0,0,1-.507-2.222c-.083-1.139-.026-2.288-.02-3.432a1.336,1.336,0,0,1,.834-1.4,1.225,1.225,0,0,1,1.653,1.218c.027,1.1.007,2.206.009,3.309,0,1.872.887,2.768,2.739,2.768q26.722,0,53.444,0c1.852,0,2.739-.9,2.739-2.768q0-9.178,0-18.356c0-.208-.007-.416.006-.624a1.236,1.236,0,0,1,.974-1.216,1.251,1.251,0,0,1,1.389.708c.047.088.1.175.143.261Z" transform="translate(0 -9.623)" fill="#fff"/>
      <path id="Trazado_108981" data-name="Trazado 108981" d="M974.565,1403.868c-.26.305-.465.715-.794.9a1.2,1.2,0,0,1-1.708-1.17c-.029-1.1-.008-2.206-.01-3.309,0-1.892-.9-2.785-2.793-2.785H915.942c-1.93,0-2.811.886-2.812,2.83q0,9.115,0,18.23c0,.188,0,.375,0,.562-.027.849-.482,1.362-1.214,1.374a1.262,1.262,0,0,1-1.278-1.326c-.01-.124,0-.25,0-.374q0-9.272,0-18.543a4.9,4.9,0,0,1,5.275-5.25q26.69,0,53.381,0a4.857,4.857,0,0,1,5.086,3.656c.076.277.128.56.191.841Z" transform="translate(-0.011)" fill="#fff"/>
      <path id="Trazado_108982" data-name="Trazado 108982" d="M974.574,1474.162c-.28.883-.937,1.1-1.79,1.1q-19.669-.016-39.339-.007h-.932c-.034.532-.039,1.045-.1,1.549a4.475,4.475,0,0,1-4.7,4.124,4.53,4.53,0,0,1-4.34-4.589c-.01-.33,0-.66,0-1.084H912.435c-1.166,0-1.8-.462-1.779-1.285s.61-1.213,1.77-1.213H923.32c.049-.659.062-1.278.145-1.886a4.5,4.5,0,0,1,8.917.111c.066.555.085,1.117.133,1.776h.773q19.762,0,39.525-.011a1.6,1.6,0,0,1,1.761,1.044Zm-48.7-.247v1.186c0,.417-.01.833,0,1.249a2.033,2.033,0,0,0,2.027,2.091,2,2,0,0,0,2.055-2.059c.036-1.581.033-3.164,0-4.745a2.025,2.025,0,0,0-2.087-2.1,2.047,2.047,0,0,0-2,2.128C925.858,1472.416,925.871,1473.165,925.87,1473.915Z" transform="translate(-0.02 -25.455)" fill="#fff"/>
      <path id="Trazado_108983" data-name="Trazado 108983" d="M1008.125,1415.939l-.246.342a1.183,1.183,0,0,1-1.418.478,1.246,1.246,0,1,1,1.427-1.874,3.913,3.913,0,0,1,.237.429Z" transform="translate(-33.571 -6.825)" fill="#fff"/>
      <path id="Trazado_108984" data-name="Trazado 108984" d="M944.791,1422.145q0-4.775,0-9.549c0-1.419.92-1.963,2.14-1.259q8.371,4.828,16.735,9.666c1.182.684,1.172,1.761-.021,2.45q-8.338,4.822-16.682,9.634c-1.255.723-2.171.184-2.173-1.269Q944.787,1426.981,944.791,1422.145Zm16,.076-13.461-7.766v15.535Z" transform="translate(-12.082 -5.664)" fill="#fff"/>
      <path id="Trazado_108985" data-name="Trazado 108985" d="M913.136,1439.719a1.237,1.237,0,0,1-1.26,1.252,1.277,1.277,0,0,1-1.251-1.215,1.3,1.3,0,0,1,1.246-1.293A1.261,1.261,0,0,1,913.136,1439.719Z" transform="translate(-0.009 -15.357)" fill="#fff"/>
    </g>
  </g>
</svg>
