<svg id="Layer_1" data-name="Layer 1" xmlns="http://www.w3.org/2000/svg" width="500" height="500" viewBox="0 0 500 500">
  <defs>
    <style>
      .cls-1 {
        fill: #0074bd;
      }

      .cls-2 {
        fill: #ea2d2e;
      }
    </style>
  </defs>
  <g>
    <path class="cls-1" d="M209.54,263.52s-11.63,6.78,8.29,9.06c24.15,2.76,36.49,2.36,63.09-2.67a110.24,110.24,0,0,0,16.78,8.19c-59.65,25.55-135-1.49-88.16-14.58Z"/>
    <path class="cls-1" d="M202.25,230.17s-13.05,9.66,6.89,11.72c25.8,2.67,46.16,2.89,81.42-3.9a36,36,0,0,0,12.52,7.64c-72.11,21.1-152.43,1.66-100.83-15.46Z"/>
    <path class="cls-2" d="M263.7,173.58c14.7,16.93-3.86,32.15-3.86,32.15s37.32-19.27,20.18-43.4c-16-22.49-28.28-33.67,38.17-72.2,0,0-104.31,26-54.49,83.45Z"/>
    <path class="cls-1" d="M342.59,288.2s8.62,7.1-9.49,12.59c-34.42,10.43-143.3,13.58-173.54.42-10.86-4.73,9.52-11.29,15.93-12.67a41.7,41.7,0,0,1,10.5-1.19c-12.09-8.51-78.14,16.72-33.54,24C274.06,331,374.13,302.43,342.59,288.2Z"/>
    <path class="cls-1" d="M215.14,195.6s-55.37,13.16-19.61,17.94c15.11,2,45.21,1.56,73.26-.8,22.92-1.92,45.93-6,45.93-6a98,98,0,0,0-13.93,7.46c-56.24,14.79-164.87,7.9-133.6-7.22,26.44-12.79,47.95-11.34,47.95-11.34Z"/>
    <path class="cls-1" d="M314.49,251.13c57.17-29.7,30.73-58.25,12.28-54.4a44,44,0,0,0-6.54,1.75,10.38,10.38,0,0,1,4.88-3.76c36.51-12.83,64.57,37.84-11.77,57.91a5.21,5.21,0,0,0,1.15-1.5Z"/>
    <path class="cls-2" d="M280,27.89s31.66,31.67-30,80.36c-49.47,39.07-11.28,61.34,0,86.8-28.87-26.05-50.06-49-35.85-70.33C235,93.39,292.79,78.19,280,27.89Z"/>
    <path class="cls-1" d="M220.76,331.63c54.87,3.51,139.14-1.95,141.14-27.91,0,0-3.84,9.84-45.35,17.65-46.83,8.81-104.61,7.79-138.86,2.13,0,0,7,5.81,43.07,8.13Z"/>
    <path class="cls-2" d="M359.36,378.19h-1.67v-.93h4.5v.93h-1.66v4.67h-1.17v-4.67Zm9,.24h0l-1.66,4.43h-.77l-1.64-4.43h0v4.43h-1.11v-5.6h1.62l1.53,4,1.53-4h1.61v5.6h-1.07v-4.43Z"/>
    <path class="cls-2" d="M211.77,430.83c-5.17,4.49-10.64,7-15.55,7-7,0-10.79-4.2-10.79-10.93,0-7.28,4.06-12.61,20.33-12.61h6v16.53Zm14.29,16.11V397.07c0-12.75-7.27-21.16-24.8-21.16a65.38,65.38,0,0,0-26.47,5.74l2.1,8.84a61.44,61.44,0,0,1,20.44-4.07c10.1,0,14.44,4.07,14.44,12.47v6.31h-5c-24.52,0-35.59,9.51-35.59,23.82,0,12.32,7.29,19.33,21,19.33,8.82,0,15.42-3.64,21.57-9l1.12,7.56Z"/>
    <path class="cls-2" d="M273.72,446.94H255.91l-21.44-69.76H250l13.31,42.87,3,12.88a268.45,268.45,0,0,0,13.86-55.75h15.13c-4,23-11.34,48.19-21.56,69.76Z"/>
    <path class="cls-2" d="M342.06,430.83c-5.19,4.49-10.66,7-15.56,7-7,0-10.79-4.2-10.79-10.93,0-7.28,4.07-12.61,20.32-12.61h6v16.53Zm14.29,16.11V397.07c0-12.75-7.3-21.16-24.8-21.16a65.4,65.4,0,0,0-26.49,5.74l2.1,8.84a61.61,61.61,0,0,1,20.46-4.07c10.09,0,14.44,4.07,14.44,12.47v6.31H337c-24.52,0-35.59,9.51-35.59,23.82,0,12.32,7.29,19.33,21,19.33,8.83,0,15.41-3.64,21.58-9l1.13,7.56Z"/>
    <path class="cls-2" d="M155.48,458.8c-4.07,5.95-10.65,10.66-17.85,13.31l-7-8.31c5.48-2.81,10.18-7.35,12.36-11.58,1.89-3.76,2.67-8.61,2.67-20.2V352.37h15.18v78.55c0,15.51-1.23,21.77-5.31,27.88Z"/>
  </g>
</svg>
