<svg xmlns="http://www.w3.org/2000/svg" xmlns:xlink="http://www.w3.org/1999/xlink" width="148" height="130.721" viewBox="0 0 148 130.721">
  <defs>
    <filter id="Rectángulo_32715" x="18.5" y="6.5" width="113" height="115.721" filterUnits="userSpaceOnUse">
      <feOffset input="SourceAlpha"/>
      <feGaussianBlur stdDeviation="2.5" result="blur"/>
      <feFlood flood-opacity="0.29"/>
      <feComposite operator="in" in2="blur"/>
      <feComposite in="SourceGraphic"/>
    </filter>
  </defs>
  <g id="Grupo_74246" data-name="Grupo 74246" transform="translate(-172 -7556)">
    <g id="Rectángulo_32714" data-name="Rectángulo 32714" transform="translate(183.887 7556)" fill="none" stroke="#1565c0" stroke-linecap="round" stroke-linejoin="round" stroke-width="8">
      <rect width="125" height="123.721" rx="17" stroke="none"/>
      <rect x="4" y="4" width="117" height="115.721" rx="13" fill="none"/>
    </g>
    <rect id="Rectángulo_32716" data-name="Rectángulo 32716" width="148" height="86.721" rx="6" transform="translate(172 7600)" fill="#f6f6f6"/>
    <g transform="matrix(1, 0, 0, 1, 172, 7556)" filter="url(#Rectángulo_32715)">
      <rect id="Rectángulo_32715-2" data-name="Rectángulo 32715" width="98" height="100.721" rx="15" transform="translate(26 14)" fill="#1565c0"/>
    </g>
    <g id="jK04H4" transform="translate(-728.428 5998.476)">
      <g id="Grupo_78484" data-name="Grupo 78484" transform="translate(938.5 1589.012)">
        <path id="Trazado_123894" data-name="Trazado 123894" d="M1007.609,1661.987q-25.07.031-50.139.011c-3.892,0-7.785-.009-11.677.012-.5,0-.656-.123-.652-.641.023-3.333,0-6.666.016-10a3.922,3.922,0,0,1,4.235-4.156c1.63,0,3.26,0,4.89,0,.815,0,1.285-.4,1.3-1.052.019-.69-.47-1.127-1.312-1.132-1.752-.01-3.5-.031-5.254.006a6,6,0,0,0-4.788,2.388,6.31,6.31,0,0,0-1.274,4.088c.018,3.308.007,6.617,0,9.926,0,.289.112.591-.393.686a5.76,5.76,0,0,0-4.065,3.028v.73c.733.837,1.5.96,1.97.2a4.172,4.172,0,0,1,3.977-1.905q31.463.031,62.925.014c.292,0,.584,0,.875.014a3.516,3.516,0,0,1,2.82,1.568c.717,1.017,1.372,1.04,2.2.105v-.73A5.99,5.99,0,0,0,1007.609,1661.987Z" transform="translate(-938.5 -1615.835)" fill="#fff"/>
        <path id="Trazado_123895" data-name="Trazado 123895" d="M977.021,1606.921q0,9.709,0,19.417a6.076,6.076,0,0,0,.053.945,2.014,2.014,0,0,0,2.914,1.516,3.1,3.1,0,0,0,1.191-.94,1.265,1.265,0,0,1,1.184-.5q19.161.018,38.323.01c2.8,0,4.369,1.571,4.374,4.388q.005,2.993,0,5.986a1.3,1.3,0,0,0,.44,1.177,1.009,1.009,0,0,0,1.095.134,1.119,1.119,0,0,0,.654-1.122q0-3.1,0-6.2a7.667,7.667,0,0,0-.142-1.741,6.118,6.118,0,0,0-6.218-4.805q-15.183-.009-30.367,0h-6.882a3.775,3.775,0,0,1,3.545-2.042c10.949.068,21.9.007,32.848.058a3.1,3.1,0,0,0,3.387-3.41c-.091-4.305-.028-8.613-.028-12.92,0-2.22-1.078-3.287-3.322-3.287h-39.71C978.077,1603.572,977.022,1604.629,977.021,1606.921Zm2.19,19.048q0-9.525,0-19.051c0-1.053.107-1.157,1.178-1.157h39.633c1.082,0,1.18.1,1.18,1.146q0,6.5,0,12.992c0,.974-.1,1.075-1.1,1.075q-16.605,0-33.21-.01a5.018,5.018,0,0,0-4.27,1.907c-1.024,1.291-2.175,2.481-3.416,3.88Z" transform="translate(-956.951 -1595.986)" fill="#fff"/>
        <path id="Trazado_123896" data-name="Trazado 123896" d="M987.895,1654.674c-8.588-.022-17.175-.008-25.762-.008a4.846,4.846,0,0,0-2.512.628,4.653,4.653,0,0,0-2.176,5.195,4.593,4.593,0,0,0,4.431,3.458c4.379.023,8.758.007,13.137.008q6.349,0,12.7,0a5.806,5.806,0,0,0,1.379-.1,4.687,4.687,0,0,0,3.632-4.885A4.621,4.621,0,0,0,987.895,1654.674Zm.922,6.989a3.385,3.385,0,0,1-1.083.1q-6.35,0-12.7,0c-4.355,0-8.71.007-13.065,0a2.427,2.427,0,0,1-2.461-2.057,2.487,2.487,0,0,1,1.562-2.68,3.053,3.053,0,0,1,1.147-.165q12.81,0,25.62,0a2.465,2.465,0,0,1,.982,4.8Z" transform="translate(-947.505 -1620.458)" fill="#fff"/>
        <path id="Trazado_123897" data-name="Trazado 123897" d="M1030.375,1658.6a4.9,4.9,0,1,0,9.8-.044,4.9,4.9,0,0,0-9.8.044Zm7.612.029a2.706,2.706,0,0,1-2.715,2.67,2.668,2.668,0,0,1-2.706-2.664,2.7,2.7,0,0,1,2.7-2.758A2.747,2.747,0,0,1,1037.987,1658.625Z" transform="translate(-982.508 -1619.989)" fill="#fff"/>
        <path id="Trazado_123898" data-name="Trazado 123898" d="M1055.369,1660.772a11.037,11.037,0,0,0-.982.974,1.1,1.1,0,1,0,1.526,1.549c.771-.74,1.514-1.508,2.271-2.262a1.122,1.122,0,0,0,.351-.848,1.065,1.065,0,0,0-.335-.779c-.792-.788-1.567-1.593-2.374-2.365a1.054,1.054,0,0,0-1.557-.006,1.072,1.072,0,0,0,.037,1.561,8.619,8.619,0,0,0,1.088,1.073C1055.94,1660.086,1055.839,1660.391,1055.369,1660.772Z" transform="translate(-993.8 -1621.433)" fill="#fff"/>
        <path id="Trazado_123899" data-name="Trazado 123899" d="M968.578,1596.52a1.1,1.1,0,0,0,1.675.1,1.117,1.117,0,0,0-.158-1.674c-.713-.729-1.444-1.44-2.163-2.164a1.422,1.422,0,0,0-.9-.464,1.1,1.1,0,0,0-.986.615,1.037,1.037,0,0,0,.211,1.269C967.027,1594.98,967.794,1595.758,968.578,1596.52Z" transform="translate(-951.635 -1590.594)" fill="#fff"/>
        <path id="Trazado_123900" data-name="Trazado 123900" d="M978.153,1593.911a1.032,1.032,0,0,0,1.033-1.027c.032-.46.006-.924.006-1.386h.014q0-.621,0-1.241c0-.049,0-.1-.007-.146a1.115,1.115,0,0,0-1.052-1.1,1.068,1.068,0,0,0-1.107,1.034c-.042.947-.043,1.9,0,2.845A1.035,1.035,0,0,0,978.153,1593.911Z" transform="translate(-956.945 -1589.012)" fill="#fff"/>
        <path id="Trazado_123901" data-name="Trazado 123901" d="M964.216,1605.964c.413.022.827,0,1.241,0,.438,0,.877.02,1.313-.005a1.087,1.087,0,0,0-.031-2.174c-.851-.025-1.7-.027-2.554,0a1.051,1.051,0,0,0-1.066,1.066A1.062,1.062,0,0,0,964.216,1605.964Z" transform="translate(-950.292 -1596.08)" fill="#fff"/>
        <path id="Trazado_123902" data-name="Trazado 123902" d="M989.107,1622.565c.627.063,1.1-.332,1.339-1.1.461-1.468.911-2.938,1.416-4.567.512,1.652.979,3.152,1.442,4.654a1.23,1.23,0,0,0,1.33,1.006,1.294,1.294,0,0,0,1.22-1.159c.121-.619.246-1.237.37-1.856.4-2,.805-4,1.2-6a1.111,1.111,0,0,0-.8-1.417,1.1,1.1,0,0,0-1.355.979c-.058.26-.1.524-.155.786-.235,1.158-.471,2.315-.749,3.68-.492-1.605-.925-2.991-1.342-4.383-.179-.6-.44-1.107-1.16-1.1s-.972.5-1.152,1.107c-.411,1.39-.861,2.769-1.294,4.152l-.116-.006c-.281-1.4-.551-2.808-.85-4.208-.172-.808-.636-1.147-1.313-1.023-.655.12-.964.653-.811,1.449q.751,3.9,1.517,7.788A1.348,1.348,0,0,0,989.107,1622.565Z" transform="translate(-961.392 -1600.066)" fill="#fff"/>
        <path id="Trazado_123903" data-name="Trazado 123903" d="M1012.22,1621.321a1.356,1.356,0,0,0,1.305,1.245c.749,0,1.111-.465,1.312-1.139.437-1.463.9-2.917,1.357-4.385a1.021,1.021,0,0,1,.253.523c.394,1.3.8,2.6,1.192,3.893a1.333,1.333,0,0,0,1.341,1.115c.637-.006,1.105-.5,1.264-1.285q.769-3.819,1.532-7.637c.165-.819-.149-1.407-.815-1.524-.7-.124-1.151.246-1.328,1.1-.283,1.373-.561,2.748-.841,4.123l-.121-.027c-.446-1.434-.9-2.866-1.335-4.3a1.128,1.128,0,0,0-.847-.9c-.639-.14-1.115.168-1.35.91-.458,1.449-.9,2.9-1.409,4.545-.33-1.632-.605-3.059-.912-4.479-.169-.784-.669-1.124-1.343-.974a1.073,1.073,0,0,0-.776,1.411Q1011.452,1617.429,1012.22,1621.321Z" transform="translate(-973.066 -1600.065)" fill="#fff"/>
        <path id="Trazado_123904" data-name="Trazado 123904" d="M1036.116,1621.413a1.3,1.3,0,0,0,2.571.067c.438-1.463.9-2.918,1.417-4.575.516,1.662.981,3.136,1.428,4.615a1.294,1.294,0,0,0,1.3,1.056,1.337,1.337,0,0,0,1.254-1.205c.226-1.068.439-2.14.654-3.21.307-1.523.619-3.045.912-4.57a1.115,1.115,0,0,0-.825-1.461c-.68-.124-1.165.247-1.331,1.021-.061.285-.095.576-.165.858a25.83,25.83,0,0,1-.781,3.384c-.468-1.506-.922-2.938-1.354-4.376a1.1,1.1,0,0,0-1.069-.92,1.115,1.115,0,0,0-1.134.939c-.136.44-.266.882-.4,1.322q-.471,1.514-.946,3.026c-.379-1.4-.646-2.782-.916-4.159-.115-.59-.361-1.069-1.045-1.126a1.059,1.059,0,0,0-1.126,1.384Q1035.312,1617.452,1036.116,1621.413Z" transform="translate(-984.5 -1600.067)" fill="#fff"/>
        <path id="Trazado_123905" data-name="Trazado 123905" d="M975,1661.554q-4.416-.013-8.833,0c-.838,0-1.334.447-1.311,1.134.021.653.5,1.047,1.31,1.052,1.435.008,2.871,0,4.307,0,1.508,0,3.017.007,4.525,0,.814-.005,1.264-.406,1.264-1.085S975.8,1661.556,975,1661.554Z" transform="translate(-951.123 -1623.756)" fill="#fff"/>
      </g>
    </g>
  </g>
</svg>
