<svg xmlns="http://www.w3.org/2000/svg" xmlns:xlink="http://www.w3.org/1999/xlink" width="201" height="178.86" viewBox="0 0 201 178.86">
  <defs>
    <filter id="Trazado_134424" x="18" y="5" width="165" height="162" filterUnits="userSpaceOnUse">
      <feOffset input="SourceAlpha"/>
      <feGaussianBlur stdDeviation="3" result="blur"/>
      <feFlood flood-opacity="0.29"/>
      <feComposite operator="in" in2="blur"/>
      <feComposite in="SourceGraphic"/>
    </filter>
  </defs>
  <g id="Grupo_79543" data-name="Grupo 79543" transform="translate(946 4414.579)">
    <g id="Trazado_134423" data-name="Trazado 134423" transform="translate(-933 -4414.579)" fill="none" stroke-linecap="round">
      <path d="M17,0H157.352a17,17,0,0,1,17,17V150a17,17,0,0,1-17,17H17A17,17,0,0,1,0,150V17A17,17,0,0,1,17,0Z" stroke="none"/>
      <path d="M 16.99998474121094 8 C 12.03736877441406 8 7.999984741210938 12.03738403320312 7.999984741210938 17 L 7.999984741210938 150 C 7.999984741210938 154.9626159667969 12.03736877441406 159 16.99998474121094 159 L 157.3521881103516 159 C 162.3148040771484 159 166.3521881103516 154.9626159667969 166.3521881103516 150 L 166.3521881103516 17 C 166.3521881103516 12.03738403320312 162.3148040771484 8 157.3521881103516 8 L 16.99998474121094 8 M 16.99998474121094 0 L 157.3521881103516 0 C 166.7410430908203 0 174.3521881103516 7.61114501953125 174.3521881103516 17 L 174.3521881103516 150 C 174.3521881103516 159.3888244628906 166.7410430908203 167 157.3521881103516 167 L 16.99998474121094 167 C 7.611160278320312 167 -1.52587890625e-05 159.3888244628906 -1.52587890625e-05 150 L -1.52587890625e-05 17 C -1.52587890625e-05 7.61114501953125 7.611160278320312 0 16.99998474121094 0 Z" stroke="none" fill="#d57700"/>
    </g>
    <path id="Trazado_134425" data-name="Trazado 134425" d="M6,0H195a6,6,0,0,1,6,6V112.721a6,6,0,0,1-6,6H6a6,6,0,0,1-6-6V6A6,6,0,0,1,6,0Z" transform="translate(-946 -4354.439)" fill="#f6f6f6"/>
    <g transform="matrix(1, 0, 0, 1, -946, -4414.58)" filter="url(#Trazado_134424)">
      <path id="Trazado_134424-2" data-name="Trazado 134424" d="M15,0H132a15,15,0,0,1,15,15V129a15,15,0,0,1-15,15H15A15,15,0,0,1,0,129V15A15,15,0,0,1,15,0Z" transform="translate(27 14)" fill="#fb8c00"/>
    </g>
    <path id="Trazado_134426" data-name="Trazado 134426" d="M-42.946,0V-10.664h3.281a4.983,4.983,0,0,1,2.516.634,4.418,4.418,0,0,1,1.732,1.8,5.557,5.557,0,0,1,.623,2.655v.491a5.573,5.573,0,0,1-.612,2.644A4.38,4.38,0,0,1-37.13-.645,5.021,5.021,0,0,1-39.642,0Zm2.2-8.884v7.119h1.062a2.386,2.386,0,0,0,1.97-.842,3.806,3.806,0,0,0,.7-2.41v-.564a3.867,3.867,0,0,0-.674-2.465,2.378,2.378,0,0,0-1.97-.839Zm7.083,4.849a4.7,4.7,0,0,1,.454-2.1A3.324,3.324,0,0,1-31.9-7.566a3.814,3.814,0,0,1,1.981-.505A3.609,3.609,0,0,1-27.3-7.09a3.939,3.939,0,0,1,1.132,2.666l.015.542A4.142,4.142,0,0,1-27.177-.956a3.539,3.539,0,0,1-2.732,1.1,3.556,3.556,0,0,1-2.736-1.1A4.215,4.215,0,0,1-33.666-3.94Zm2.117.15a2.962,2.962,0,0,0,.425,1.727,1.4,1.4,0,0,0,1.216.6,1.4,1.4,0,0,0,1.2-.591,3.241,3.241,0,0,0,.432-1.889,2.933,2.933,0,0,0-.432-1.716,1.4,1.4,0,0,0-1.216-.609,1.382,1.382,0,0,0-1.2.605A3.3,3.3,0,0,0-31.549-3.885Zm8.679-4.039.066.886a2.785,2.785,0,0,1,2.278-1.033,2.114,2.114,0,0,1,2.1,1.208,2.721,2.721,0,0,1,2.38-1.208,2.364,2.364,0,0,1,1.919.751,3.451,3.451,0,0,1,.63,2.26V0h-2.124V-5.065a1.515,1.515,0,0,0-.264-.987,1.167,1.167,0,0,0-.93-.312,1.321,1.321,0,0,0-1.318.91L-18.124,0H-20.24V-5.058a1.5,1.5,0,0,0-.271-1,1.178,1.178,0,0,0-.923-.308,1.371,1.371,0,0,0-1.3.749V0h-2.117V-7.925ZM-9.635,0h-2.124V-7.925h2.124Zm-2.249-9.976a1.042,1.042,0,0,1,.319-.784,1.2,1.2,0,0,1,.868-.308,1.2,1.2,0,0,1,.864.308,1.036,1.036,0,0,1,.322.784,1.039,1.039,0,0,1-.326.791,1.2,1.2,0,0,1-.861.308,1.2,1.2,0,0,1-.861-.308A1.039,1.039,0,0,1-11.884-9.976Zm5.94,2.051.066.916A2.767,2.767,0,0,1-3.6-8.071a2.3,2.3,0,0,1,1.875.74,3.451,3.451,0,0,1,.63,2.212V0H-3.212V-5.08A1.379,1.379,0,0,0-3.5-6.06a1.31,1.31,0,0,0-.974-.3,1.456,1.456,0,0,0-1.34.763V0H-7.936V-7.925ZM2.743,0H.619V-7.925H2.743ZM.494-9.976a1.042,1.042,0,0,1,.319-.784,1.2,1.2,0,0,1,.868-.308,1.2,1.2,0,0,1,.864.308,1.036,1.036,0,0,1,.322.784,1.039,1.039,0,0,1-.326.791,1.2,1.2,0,0,1-.861.308A1.2,1.2,0,0,1,.82-9.185,1.039,1.039,0,0,1,.494-9.976Zm3.662,5.94a4.7,4.7,0,0,1,.454-2.1A3.324,3.324,0,0,1,5.918-7.566,3.814,3.814,0,0,1,7.9-8.071a3.609,3.609,0,0,1,2.618.981,3.939,3.939,0,0,1,1.132,2.666l.015.542A4.142,4.142,0,0,1,10.646-.956,3.539,3.539,0,0,1,7.914.146a3.556,3.556,0,0,1-2.736-1.1A4.215,4.215,0,0,1,4.156-3.94Zm2.117.15A2.962,2.962,0,0,0,6.7-2.158a1.4,1.4,0,0,0,1.216.6,1.4,1.4,0,0,0,1.2-.591,3.241,3.241,0,0,0,.432-1.889,2.933,2.933,0,0,0-.432-1.716A1.4,1.4,0,0,0,7.9-6.365a1.382,1.382,0,0,0-1.2.605A3.3,3.3,0,0,0,6.273-3.885ZM17.26-2.19a.682.682,0,0,0-.385-.612,4.368,4.368,0,0,0-1.234-.4q-2.827-.593-2.827-2.4a2.178,2.178,0,0,1,.875-1.761,3.531,3.531,0,0,1,2.289-.707,3.8,3.8,0,0,1,2.413.71,2.239,2.239,0,0,1,.9,1.846H17.179a1.024,1.024,0,0,0-.293-.751,1.24,1.24,0,0,0-.916-.3,1.267,1.267,0,0,0-.828.242.763.763,0,0,0-.293.615.652.652,0,0,0,.333.568,3.428,3.428,0,0,0,1.124.374,9.183,9.183,0,0,1,1.333.355,2.19,2.19,0,0,1,1.677,2.131,2.067,2.067,0,0,1-.93,1.754,4.013,4.013,0,0,1-2.4.67,4.191,4.191,0,0,1-1.769-.355A2.968,2.968,0,0,1,13-1.183a2.263,2.263,0,0,1-.439-1.337h2.007a1.105,1.105,0,0,0,.417.864,1.656,1.656,0,0,0,1.04.3,1.533,1.533,0,0,0,.919-.231A.718.718,0,0,0,17.26-2.19Zm6.826-1.831a4.776,4.776,0,0,1,.831-2.952,2.7,2.7,0,0,1,2.274-1.1,2.427,2.427,0,0,1,1.912.864V-11.25h2.124V0H29.315l-.1-.842a2.491,2.491,0,0,1-2.036.989,2.69,2.69,0,0,1-2.245-1.1A4.93,4.93,0,0,1,24.086-4.021ZM26.2-3.87a3.146,3.146,0,0,0,.388,1.714,1.263,1.263,0,0,0,1.128.6A1.416,1.416,0,0,0,29.1-2.391V-5.533a1.4,1.4,0,0,0-1.37-.831Q26.2-6.365,26.2-3.87ZM36.515.146A3.89,3.89,0,0,1,33.677-.923a3.8,3.8,0,0,1-1.095-2.849v-.205a4.787,4.787,0,0,1,.461-2.135,3.386,3.386,0,0,1,1.307-1.45,3.669,3.669,0,0,1,1.93-.509,3.289,3.289,0,0,1,2.56,1.025,4.167,4.167,0,0,1,.934,2.908v.864H34.728a1.966,1.966,0,0,0,.619,1.245,1.871,1.871,0,0,0,1.307.469,2.285,2.285,0,0,0,1.912-.886l1.04,1.165A3.178,3.178,0,0,1,38.317-.231,4.229,4.229,0,0,1,36.515.146Zm-.242-6.511a1.323,1.323,0,0,0-1.022.427,2.209,2.209,0,0,0-.5,1.221h2.944v-.169a1.576,1.576,0,0,0-.381-1.092A1.365,1.365,0,0,0,36.273-6.365ZM-41.792,12.81a.682.682,0,0,0-.385-.612,4.368,4.368,0,0,0-1.234-.4q-2.827-.593-2.827-2.4a2.178,2.178,0,0,1,.875-1.761,3.531,3.531,0,0,1,2.289-.707,3.8,3.8,0,0,1,2.413.71,2.239,2.239,0,0,1,.9,1.846h-2.117a1.024,1.024,0,0,0-.293-.751,1.24,1.24,0,0,0-.916-.3,1.267,1.267,0,0,0-.828.242.763.763,0,0,0-.293.615.652.652,0,0,0,.333.568,3.428,3.428,0,0,0,1.124.374,9.183,9.183,0,0,1,1.333.355,2.19,2.19,0,0,1,1.677,2.131,2.067,2.067,0,0,1-.93,1.754,4.013,4.013,0,0,1-2.4.67,4.191,4.191,0,0,1-1.769-.355,2.968,2.968,0,0,1-1.212-.974,2.263,2.263,0,0,1-.439-1.337h2.007a1.105,1.105,0,0,0,.417.864,1.656,1.656,0,0,0,1.04.3,1.533,1.533,0,0,0,.919-.231A.718.718,0,0,0-41.792,12.81Zm7.068,2.336a3.89,3.89,0,0,1-2.838-1.069,3.8,3.8,0,0,1-1.095-2.849v-.205A4.787,4.787,0,0,1-38.2,8.888a3.386,3.386,0,0,1,1.307-1.45,3.669,3.669,0,0,1,1.93-.509A3.289,3.289,0,0,1-32.4,7.954a4.167,4.167,0,0,1,.934,2.908v.864h-5.046a1.966,1.966,0,0,0,.619,1.245,1.871,1.871,0,0,0,1.307.469,2.285,2.285,0,0,0,1.912-.886l1.04,1.165a3.178,3.178,0,0,1-1.289,1.051A4.229,4.229,0,0,1-34.724,15.146Zm-.242-6.511a1.323,1.323,0,0,0-1.022.427,2.209,2.209,0,0,0-.5,1.221h2.944v-.169a1.576,1.576,0,0,0-.381-1.092A1.365,1.365,0,0,0-34.966,8.635Zm4.395,2.344A4.644,4.644,0,0,1-29.7,8.042a2.812,2.812,0,0,1,2.34-1.113,2.466,2.466,0,0,1,2.029.894l.088-.747h1.919v7.661a3.387,3.387,0,0,1-.472,1.809,3.034,3.034,0,0,1-1.329,1.172,4.673,4.673,0,0,1-2.007.4,4.346,4.346,0,0,1-1.7-.348,3.016,3.016,0,0,1-1.252-.9l.938-1.289a2.48,2.48,0,0,0,1.919.886,1.815,1.815,0,0,0,1.311-.45,1.69,1.69,0,0,0,.469-1.278v-.425a2.448,2.448,0,0,1-1.926.828,2.8,2.8,0,0,1-2.311-1.117,4.643,4.643,0,0,1-.883-2.963Zm2.117.151a2.907,2.907,0,0,0,.432,1.7,1.373,1.373,0,0,0,1.187.614,1.469,1.469,0,0,0,1.384-.728V9.364a1.465,1.465,0,0,0-1.37-.728,1.382,1.382,0,0,0-1.2.625A3.278,3.278,0,0,0-28.455,11.13Zm11.5,3.065a2.654,2.654,0,0,1-2.168.952,2.5,2.5,0,0,1-1.945-.732,3.127,3.127,0,0,1-.685-2.146V7.075h2.117V12.2q0,1.239,1.128,1.239a1.528,1.528,0,0,0,1.479-.748V7.075H-14.9V15H-16.9Zm5.6-7.119.066.916A2.767,2.767,0,0,1-9.016,6.929a2.3,2.3,0,0,1,1.875.74,3.451,3.451,0,0,1,.63,2.212V15H-8.628V9.92a1.379,1.379,0,0,0-.293-.98,1.31,1.31,0,0,0-.974-.3,1.456,1.456,0,0,0-1.34.763V15h-2.117V7.075Zm6.123,3.9a4.776,4.776,0,0,1,.831-2.952,2.7,2.7,0,0,1,2.274-1.1A2.427,2.427,0,0,1-.22,7.793V3.75H1.9V15H-.007l-.1-.842a2.491,2.491,0,0,1-2.036.989,2.69,2.69,0,0,1-2.245-1.1A4.93,4.93,0,0,1-5.237,10.979Zm2.117.151a3.146,3.146,0,0,0,.388,1.714,1.263,1.263,0,0,0,1.128.6A1.416,1.416,0,0,0-.22,12.609V9.467a1.4,1.4,0,0,0-1.37-.831Q-3.12,8.635-3.12,11.13Zm6.335-.165a4.7,4.7,0,0,1,.454-2.1A3.324,3.324,0,0,1,4.977,7.434a3.814,3.814,0,0,1,1.981-.505,3.609,3.609,0,0,1,2.618.981,3.939,3.939,0,0,1,1.132,2.666l.015.542A4.142,4.142,0,0,1,9.7,14.044a3.539,3.539,0,0,1-2.732,1.1,3.556,3.556,0,0,1-2.736-1.1A4.215,4.215,0,0,1,3.215,11.06Zm2.117.15a2.962,2.962,0,0,0,.425,1.727,1.4,1.4,0,0,0,1.216.6,1.4,1.4,0,0,0,1.2-.591,3.241,3.241,0,0,0,.432-1.889,2.933,2.933,0,0,0-.432-1.716,1.4,1.4,0,0,0-1.216-.609,1.382,1.382,0,0,0-1.2.605A3.3,3.3,0,0,0,5.332,11.115ZM17.71,7.075l.066.916a2.767,2.767,0,0,1,2.278-1.062,2.3,2.3,0,0,1,1.875.74,3.451,3.451,0,0,1,.63,2.212V15H20.442V9.92a1.379,1.379,0,0,0-.293-.98,1.31,1.31,0,0,0-.974-.3,1.456,1.456,0,0,0-1.34.763V15H15.718V7.075ZM26.4,15H24.272V7.075H26.4ZM24.148,5.024a1.042,1.042,0,0,1,.319-.784,1.373,1.373,0,0,1,1.732,0,1.036,1.036,0,0,1,.322.784,1.039,1.039,0,0,1-.326.791,1.358,1.358,0,0,1-1.721,0A1.039,1.039,0,0,1,24.148,5.024Zm6.958,7.39,1.472-5.339H34.79L32.117,15H30.1L27.422,7.075h2.212Zm8.167,2.732a3.89,3.89,0,0,1-2.838-1.069,3.8,3.8,0,0,1-1.095-2.849v-.205A4.787,4.787,0,0,1,35.8,8.888a3.386,3.386,0,0,1,1.307-1.45,3.669,3.669,0,0,1,1.93-.509A3.289,3.289,0,0,1,41.6,7.954a4.167,4.167,0,0,1,.934,2.908v.864H37.485a1.966,1.966,0,0,0,.619,1.245,1.871,1.871,0,0,0,1.307.469,2.285,2.285,0,0,0,1.912-.886l1.04,1.165a3.178,3.178,0,0,1-1.289,1.051A4.229,4.229,0,0,1,39.272,15.146Zm-.242-6.511a1.323,1.323,0,0,0-1.022.427,2.209,2.209,0,0,0-.5,1.221h2.944v-.169a1.576,1.576,0,0,0-.381-1.092A1.365,1.365,0,0,0,39.031,8.635ZM45.967,15H43.843V3.75h2.124Z" transform="translate(-846 -4297.579)" fill="#fff"/>
    <g id="Grupo_79532" data-name="Grupo 79532" transform="translate(-2002 -5976.579)">
      <path id="Trazado_123906" data-name="Trazado 123906" d="M1170.684,1654.716c.008.668,0,1.336,0,2,0,.647.009,1.294,0,1.94.01-.647,0-1.293,0-1.94C1170.686,1656.052,1170.692,1655.384,1170.684,1654.716Z" transform="translate(-25.649 -30.612)" fill="#fff"/>
      <path id="Trazado_123907" data-name="Trazado 123907" d="M1145.165,1630.137h0Z" transform="translate(-11.629 -17.107)" fill="#fff"/>
      <path id="Trazado_123908" data-name="Trazado 123908" d="M1184.849,1599H1130.27c-1.085,0-2.17-.013-3.255,0a3.019,3.019,0,0,0-2.832,2c-.05.131-.122.252-.183.378v51.089a1.422,1.422,0,0,0,1.258.637q30.795-.02,61.59-.012c.939,0,1.263-.331,1.263-1.284q0-24.786,0-49.572A3.044,3.044,0,0,0,1184.849,1599Zm-53.364,2.047h2.087c-.525.576-.656.943-.384,1.417a2.982,2.982,0,0,0,.407.522h-2.13C1132.208,1602.222,1132.207,1601.806,1131.486,1601.052Zm-3.017.007h2.022a2.732,2.732,0,0,0-.415.971c-.006.316.271.637.436.983h-2.052C1129.2,1602.205,1129.2,1601.791,1128.469,1601.058Zm-.849-.023c-.76.742-.761,1.2.016,1.978h-1.565C1125.846,1601.426,1126.206,1600.964,1127.619,1601.035Zm58.46,50.026h-60.025v-46h60.025Zm-.022-48.076h-51.539c.687-.8.687-1.125-.015-1.976h49.9C1185.942,1601.009,1186.235,1601.35,1186.058,1602.985Z" fill="#fff"/>
      <path id="Trazado_123909" data-name="Trazado 123909" d="M1142.968,1604.97c-.272-.474-.141-.84.384-1.417h0C1142.827,1604.129,1142.7,1604.5,1142.968,1604.97Z" transform="translate(-9.78 -2.501)" fill="#fff"/>
      <path id="Trazado_123910" data-name="Trazado 123910" d="M1136.651,1627.035h51.085c1.173,0,1.471-.3,1.471-1.487q0-2.6,0-5.2c0-.974-.351-1.33-1.316-1.33q-25.731,0-51.461,0c-.964,0-1.311.357-1.314,1.332,0,1.711,0,3.423,0,5.134C1135.115,1626.756,1135.392,1627.035,1136.651,1627.035Zm46.575-5.966h3.939V1625h-3.939Zm-46.076-.014h44v3.936h-44Z" transform="translate(-6.106 -11)" fill="#fff"/>
      <path id="Trazado_123911" data-name="Trazado 123911" d="M1236.288,1645.711a5.5,5.5,0,1,0,5.447,5.563A5.563,5.563,0,0,0,1236.288,1645.711Zm-.111,9a3.5,3.5,0,1,1,3.555-3.463A3.524,3.524,0,0,1,1236.176,1654.715Z" transform="translate(-58.637 -25.664)" fill="#fff"/>
      <path id="Trazado_123912" data-name="Trazado 123912" d="M1236.312,1679.057a5.5,5.5,0,1,0,5.422,5.586A5.557,5.557,0,0,0,1236.312,1679.057Zm-.033,9a3.5,3.5,0,1,1,3.453-3.5A3.523,3.523,0,0,1,1236.279,1688.061Z" transform="translate(-58.638 -43.984)" fill="#fff"/>
      <path id="Trazado_123913" data-name="Trazado 123913" d="M1180.155,1647.938c-.6-.149-.963.2-1.251.7-.623,1.083-1.276,2.147-1.989,3.339-.733-1.231-1.4-2.354-2.07-3.478a1,1,0,0,0-1.2-.549.973.973,0,0,0-.734,1.033c.005,2.587,0,5.175.006,7.761,0,.739.411,1.187,1.017,1.175s.974-.462.98-1.213c.009-1.168,0-2.337.005-3.5,0-.148.03-.3.059-.57.359.6.651,1.083.934,1.568.58,1,1.432,1.008,2.007.022.289-.5.586-.986.879-1.479a1.164,1.164,0,0,1,.126.622c0,1.168-.014,2.337.01,3.505a.993.993,0,0,0,1.012,1.049,1.016,1.016,0,0,0,.977-1.026c.01-.124,0-.25,0-.375,0-2.441-.01-4.882.008-7.323C1180.935,1648.584,1180.786,1648.095,1180.155,1647.938Z" transform="translate(-26.871 -26.868)" fill="#fff"/>
      <path id="Trazado_123914" data-name="Trazado 123914" d="M1146.774,1681.268c-.615.013-.977.477-.984,1.275-.006.647,0,1.294,0,1.941v1.271a1.391,1.391,0,0,1-.394-.518q-.821-1.651-1.638-3.3a1.007,1.007,0,0,0-1.211-.646.983.983,0,0,0-.768,1.07c.009,2.567,0,5.133.007,7.7,0,.815.517,1.334,1.169,1.188a1.037,1.037,0,0,0,.832-1.158c0-1.1,0-2.2,0-3.3l.132-.019c.615,1.229,1.248,2.45,1.837,3.691.262.551.6.9,1.245.795.536-.091.792-.505.792-1.236q0-3.693,0-7.386c0-.021,0-.042,0-.063C1147.783,1681.731,1147.411,1681.255,1146.774,1681.268Z" transform="translate(-9.768 -45.19)" fill="#fff"/>
      <path id="Trazado_123915" data-name="Trazado 123915" d="M1163.35,1652.993c0-.667.006-1.335,0-2a3,3,0,1,0-6.006-.015q-.02,1.971,0,3.943a3,3,0,1,0,6.005.015C1163.359,1654.287,1163.35,1653.64,1163.35,1652.993Zm-2.007,1.809a1.005,1.005,0,1,1-1.995,0c-.014-1.251-.016-2.5,0-3.754a1,1,0,1,1,1.992,0c0,.161.007.323.008.485,0,.485,0,.97,0,1.455C1161.346,1653.592,1161.358,1654.2,1161.343,1654.8Z" transform="translate(-18.314 -26.886)" fill="#fff"/>
      <path id="Trazado_123916" data-name="Trazado 123916" d="M1144.678,1657.939a3.026,3.026,0,0,0,3.091-2.688,1.058,1.058,0,0,0-.875-1.294c-.538-.066-.964.3-1.1.956-.018.082-.02.167-.044.246a.953.953,0,0,1-1.01.763.888.888,0,0,1-.92-.86q-.062-2.125,0-4.252a.887.887,0,0,1,.924-.855.95.95,0,0,1,1.006.77c.058.2.031.469.155.593.249.246.585.579.87.565a1.518,1.518,0,0,0,.905-.6,1.152,1.152,0,0,0,.068-.781,3,3,0,0,0-5.962.347c-.022.688,0,1.376,0,2.065,0,.532-.011,1.064-.007,1.6,0,.177,0,.354.011.531A3.027,3.027,0,0,0,1144.678,1657.939Z" transform="translate(-9.765 -26.887)" fill="#fff"/>
      <path id="Trazado_123917" data-name="Trazado 123917" d="M1141.781,1656.459c0-.688-.019-1.377,0-2.065-.022.688,0,1.376,0,2.065,0,.532-.011,1.064-.007,1.6C1141.77,1657.523,1141.781,1656.991,1141.781,1656.459Z" transform="translate(-9.765 -30.435)" fill="#fff"/>
      <path id="Trazado_123918" data-name="Trazado 123918" d="M1161.274,1683.255a1,1,0,1,0,0-1.989c-.98-.021-1.961-.019-2.941,0a.941.941,0,0,0-.984.988q-.018,4,0,8.01a.954.954,0,0,0,1.027,1.009q1.407.022,2.816,0a1.029,1.029,0,0,0,1.151-.979c.012-.6-.443-1-1.176-1.018-.58-.011-1.161,0-1.791,0v-1.994c.789-.052,1.872.22,1.927-.941.062-1.332-1.146-.99-1.924-1.1v-1.974C1160.033,1683.26,1160.654,1683.277,1161.274,1683.255Z" transform="translate(-18.319 -45.191)" fill="#fff"/>
      <path id="Trazado_123919" data-name="Trazado 123919" d="M1175.714,1681.275q-2-.041-4,0a.987.987,0,0,0-1,1,1.013,1.013,0,0,0,1.016.985c.305.021.614,0,.978,0V1684c0,2.044-.007,4.089,0,6.133a1.022,1.022,0,0,0,.992,1.137c.58,0,.976-.438,1.006-1.126.006-.146,0-.292,0-.438v-6.443c.384,0,.677.016.967,0a1.012,1.012,0,0,0,1.026-.974A.985.985,0,0,0,1175.714,1681.275Z" transform="translate(-25.664 -45.193)" fill="#fff"/>
      <path id="Trazado_123920" data-name="Trazado 123920" d="M1210.6,1685.715q-3.756-.009-7.513,0c-.787,0-1.255.389-1.25,1.007s.47.989,1.265.993c1.252.006,2.5,0,3.756,0s2.5.006,3.757,0c.749-.005,1.2-.379,1.219-.975C1211.849,1686.118,1211.381,1685.717,1210.6,1685.715Z" transform="translate(-42.765 -47.641)" fill="#fff"/>
      <path id="Trazado_123921" data-name="Trazado 123921" d="M1208.4,1690.158c-1.252,0-2.5,0-3.756,0,1.252.006,2.5,0,3.756,0s2.5.006,3.757,0C1210.905,1690.164,1209.653,1690.158,1208.4,1690.158Z" transform="translate(-44.308 -50.084)" fill="#fff"/>
      <path id="Trazado_123922" data-name="Trazado 123922" d="M1203.1,1654.369q.939,0,1.878,0h1.878l1.878,0q.94,0,1.878,0c.755-.005,1.2-.372,1.225-.969.021-.62-.448-1.028-1.228-1.03q-3.757-.01-7.513,0c-.794,0-1.257.383-1.256,1S1202.3,1654.365,1203.1,1654.369Z" transform="translate(-42.766 -29.32)" fill="#fff"/>
      <path id="Trazado_123923" data-name="Trazado 123923" d="M1208.8,1656.818h1.878l1.878,0-1.878,0Z" transform="translate(-46.591 -31.766)" fill="#fff"/>
      <path id="Trazado_123924" data-name="Trazado 123924" d="M1206.695,1692.383q-.235-.005-.469-.007c-.47,0-.939,0-1.409,0-.626,0-1.253-.014-1.878,0a1,1,0,1,0,0,1.993q1.878.025,3.756,0a1.006,1.006,0,1,0,0-2Z" transform="translate(-42.765 -51.303)" fill="#fff"/>
      <path id="Trazado_123925" data-name="Trazado 123925" d="M1206.162,1692.38c.469,0,.939-.007,1.409,0-.47,0-.939,0-1.409,0-.626,0-1.253-.014-1.878,0C1204.91,1692.366,1205.536,1692.38,1206.162,1692.38Z" transform="translate(-44.11 -51.303)" fill="#fff"/>
      <path id="Trazado_123926" data-name="Trazado 123926" d="M1202.97,1661.027q.235.005.469.007c.469,0,.939,0,1.409,0,.626,0,1.253.014,1.878,0a1,1,0,1,0,0-1.992c-1.252-.018-2.5-.017-3.756,0a1.022,1.022,0,0,0-1.131,1C1201.837,1660.617,1202.271,1661.01,1202.97,1661.027Z" transform="translate(-42.765 -32.977)" fill="#fff"/>
      <path id="Trazado_123927" data-name="Trazado 123927" d="M1206.8,1663.475c-.469,0-.939.007-1.409,0,.469,0,.939,0,1.409,0,.626,0,1.253.014,1.878,0C1208.056,1663.489,1207.429,1663.475,1206.8,1663.475Z" transform="translate(-44.72 -35.422)" fill="#fff"/>
      <path id="Trazado_123928" data-name="Trazado 123928" d="M1136.181,1665.727a.992.992,0,1,0,.019,1.985.992.992,0,0,0-.019-1.985Z" transform="translate(-6.151 -36.662)" fill="#fff"/>
      <path id="Trazado_123929" data-name="Trazado 123929" d="M1136.165,1699.076a.993.993,0,1,0,.05,1.986.993.993,0,0,0-.05-1.986Z" transform="translate(-6.15 -54.984)" fill="#fff"/>
      <path id="Trazado_123930" data-name="Trazado 123930" d="M1166.24,1655.92c0,.485,0,.97,0,1.455,0,.6.012,1.21,0,1.814.015-.6,0-1.21,0-1.814C1166.236,1656.89,1166.244,1656.4,1166.24,1655.92Z" transform="translate(-23.204 -31.273)" fill="#fff"/>
      <path id="Trazado_123931" data-name="Trazado 123931" d="M1160.878,1625.7a4.209,4.209,0,0,0-.5-.012q-8.566,0-17.132,0a2.9,2.9,0,0,0-.561.024.987.987,0,0,0,.02,1.959,3.834,3.834,0,0,0,.624.018h15.256c.75,0,1.5.019,2.25-.011a.992.992,0,0,0,.995-1A1.017,1.017,0,0,0,1160.878,1625.7Z" transform="translate(-9.793 -14.663)" fill="#fff"/>
      <path id="Trazado_123932" data-name="Trazado 123932" d="M1240.61,1654.988c-.389.374-.733.794-1.125,1.225-.19-.153-.252-.205-.317-.255-.59-.451-1.1-.457-1.5-.019s-.346.968.152,1.5c.256.273.519.542.79.8a1,1,0,0,0,1.544.035q.946-.91,1.851-1.864a1,1,0,0,0,.1-1.5A.986.986,0,0,0,1240.61,1654.988Z" transform="translate(-62.307 -30.55)" fill="#fff"/>
      <path id="Trazado_123933" data-name="Trazado 123933" d="M1242.023,1686.01c-.947-.936-1.5.263-2.166.7-.679-.461-1.235-1.647-2.181-.689s.27,1.5.705,2.17c-.463.673-1.577,1.156-.708,2.193.465.556.927.381,2.177-.73.683.474,1.244,1.651,2.187.7s-.26-1.5-.709-2.174C1241.8,1687.514,1242.977,1686.952,1242.023,1686.01Z" transform="translate(-62.265 -47.614)" fill="#fff"/>
    </g>
  </g>
</svg>
