<svg xmlns="http://www.w3.org/2000/svg" xmlns:xlink="http://www.w3.org/1999/xlink" width="201" height="178.86" viewBox="0 0 201 178.86">
  <defs>
    <filter id="Trazado_134418" x="18" y="5" width="165" height="162" filterUnits="userSpaceOnUse">
      <feOffset input="SourceAlpha"/>
      <feGaussianBlur stdDeviation="3" result="blur"/>
      <feFlood flood-opacity="0.29"/>
      <feComposite operator="in" in2="blur"/>
      <feComposite in="SourceGraphic"/>
    </filter>
  </defs>
  <g id="Grupo_79542" data-name="Grupo 79542" transform="translate(665 4414.579)">
    <g id="Trazado_134417" data-name="Trazado 134417" transform="translate(-652 -4414.579)" fill="none" stroke-linecap="round">
      <path d="M17.855,0H156.5a17.855,17.855,0,0,1,17.855,17.855V149.145A17.855,17.855,0,0,1,156.5,167H17.855A17.855,17.855,0,0,1,0,149.145V17.855A17.855,17.855,0,0,1,17.855,0Z" stroke="none"/>
      <path d="M 17.85533142089844 8 C 12.42109680175781 8 8 12.42108154296875 8 17.8553466796875 L 8 149.1446533203125 C 8 154.5789184570312 12.42109680175781 159 17.85533142089844 159 L 156.4968566894531 159 C 161.9310913085938 159 166.3521881103516 154.5789184570312 166.3521881103516 149.1446533203125 L 166.3521881103516 17.8553466796875 C 166.3521881103516 12.42108154296875 161.9310913085938 8 156.4968566894531 8 L 17.85533142089844 8 M 17.85533142089844 0 L 156.4968566894531 0 C 166.3580627441406 0 174.3521881103516 7.994110107421875 174.3521881103516 17.8553466796875 L 174.3521881103516 149.1446533203125 C 174.3521881103516 159.0058898925781 166.3580627441406 167 156.4968566894531 167 L 17.85533142089844 167 C 7.994094848632812 167 0 159.0058898925781 0 149.1446533203125 L 0 17.8553466796875 C 0 7.994110107421875 7.994094848632812 0 17.85533142089844 0 Z" stroke="none" fill="#b2ebf2"/>
    </g>
    <path id="Trazado_134421" data-name="Trazado 134421" d="M6,0H195a6,6,0,0,1,6,6V112.721a6,6,0,0,1-6,6H6a6,6,0,0,1-6-6V6A6,6,0,0,1,6,0Z" transform="translate(-665 -4354.439)" fill="#f6f6f6"/>
    <g transform="matrix(1, 0, 0, 1, -665, -4414.58)" filter="url(#Trazado_134418)">
      <path id="Trazado_134418-2" data-name="Trazado 134418" d="M15,0H132a15,15,0,0,1,15,15V129a15,15,0,0,1-15,15H15A15,15,0,0,1,0,129V15A15,15,0,0,1,15,0Z" transform="translate(27 14)" fill="#70bdc6"/>
    </g>
    <path id="Trazado_134422" data-name="Trazado 134422" d="M-42.946,0V-10.664h3.281a4.983,4.983,0,0,1,2.516.634,4.418,4.418,0,0,1,1.732,1.8,5.557,5.557,0,0,1,.623,2.655v.491a5.573,5.573,0,0,1-.612,2.644A4.38,4.38,0,0,1-37.13-.645,5.021,5.021,0,0,1-39.642,0Zm2.2-8.884v7.119h1.062a2.386,2.386,0,0,0,1.97-.842,3.806,3.806,0,0,0,.7-2.41v-.564a3.867,3.867,0,0,0-.674-2.465,2.378,2.378,0,0,0-1.97-.839Zm7.083,4.849a4.7,4.7,0,0,1,.454-2.1A3.324,3.324,0,0,1-31.9-7.566a3.814,3.814,0,0,1,1.981-.505A3.609,3.609,0,0,1-27.3-7.09a3.939,3.939,0,0,1,1.132,2.666l.015.542A4.142,4.142,0,0,1-27.177-.956a3.539,3.539,0,0,1-2.732,1.1,3.556,3.556,0,0,1-2.736-1.1A4.215,4.215,0,0,1-33.666-3.94Zm2.117.15a2.962,2.962,0,0,0,.425,1.727,1.4,1.4,0,0,0,1.216.6,1.4,1.4,0,0,0,1.2-.591,3.241,3.241,0,0,0,.432-1.889,2.933,2.933,0,0,0-.432-1.716,1.4,1.4,0,0,0-1.216-.609,1.382,1.382,0,0,0-1.2.605A3.3,3.3,0,0,0-31.549-3.885Zm8.679-4.039.066.886a2.785,2.785,0,0,1,2.278-1.033,2.114,2.114,0,0,1,2.1,1.208,2.721,2.721,0,0,1,2.38-1.208,2.364,2.364,0,0,1,1.919.751,3.451,3.451,0,0,1,.63,2.26V0h-2.124V-5.065a1.515,1.515,0,0,0-.264-.987,1.167,1.167,0,0,0-.93-.312,1.321,1.321,0,0,0-1.318.91L-18.124,0H-20.24V-5.058a1.5,1.5,0,0,0-.271-1,1.178,1.178,0,0,0-.923-.308,1.371,1.371,0,0,0-1.3.749V0h-2.117V-7.925ZM-9.635,0h-2.124V-7.925h2.124Zm-2.249-9.976a1.042,1.042,0,0,1,.319-.784,1.2,1.2,0,0,1,.868-.308,1.2,1.2,0,0,1,.864.308,1.036,1.036,0,0,1,.322.784,1.039,1.039,0,0,1-.326.791,1.2,1.2,0,0,1-.861.308,1.2,1.2,0,0,1-.861-.308A1.039,1.039,0,0,1-11.884-9.976Zm5.94,2.051.066.916A2.767,2.767,0,0,1-3.6-8.071a2.3,2.3,0,0,1,1.875.74,3.451,3.451,0,0,1,.63,2.212V0H-3.212V-5.08A1.379,1.379,0,0,0-3.5-6.06a1.31,1.31,0,0,0-.974-.3,1.456,1.456,0,0,0-1.34.763V0H-7.936V-7.925ZM2.743,0H.619V-7.925H2.743ZM.494-9.976a1.042,1.042,0,0,1,.319-.784,1.2,1.2,0,0,1,.868-.308,1.2,1.2,0,0,1,.864.308,1.036,1.036,0,0,1,.322.784,1.039,1.039,0,0,1-.326.791,1.2,1.2,0,0,1-.861.308A1.2,1.2,0,0,1,.82-9.185,1.039,1.039,0,0,1,.494-9.976Zm3.662,5.94a4.7,4.7,0,0,1,.454-2.1A3.324,3.324,0,0,1,5.918-7.566,3.814,3.814,0,0,1,7.9-8.071a3.609,3.609,0,0,1,2.618.981,3.939,3.939,0,0,1,1.132,2.666l.015.542A4.142,4.142,0,0,1,10.646-.956,3.539,3.539,0,0,1,7.914.146a3.556,3.556,0,0,1-2.736-1.1A4.215,4.215,0,0,1,4.156-3.94Zm2.117.15A2.962,2.962,0,0,0,6.7-2.158a1.4,1.4,0,0,0,1.216.6,1.4,1.4,0,0,0,1.2-.591,3.241,3.241,0,0,0,.432-1.889,2.933,2.933,0,0,0-.432-1.716A1.4,1.4,0,0,0,7.9-6.365a1.382,1.382,0,0,0-1.2.605A3.3,3.3,0,0,0,6.273-3.885ZM17.26-2.19a.682.682,0,0,0-.385-.612,4.368,4.368,0,0,0-1.234-.4q-2.827-.593-2.827-2.4a2.178,2.178,0,0,1,.875-1.761,3.531,3.531,0,0,1,2.289-.707,3.8,3.8,0,0,1,2.413.71,2.239,2.239,0,0,1,.9,1.846H17.179a1.024,1.024,0,0,0-.293-.751,1.24,1.24,0,0,0-.916-.3,1.267,1.267,0,0,0-.828.242.763.763,0,0,0-.293.615.652.652,0,0,0,.333.568,3.428,3.428,0,0,0,1.124.374,9.183,9.183,0,0,1,1.333.355,2.19,2.19,0,0,1,1.677,2.131,2.067,2.067,0,0,1-.93,1.754,4.013,4.013,0,0,1-2.4.67,4.191,4.191,0,0,1-1.769-.355A2.968,2.968,0,0,1,13-1.183a2.263,2.263,0,0,1-.439-1.337h2.007a1.105,1.105,0,0,0,.417.864,1.656,1.656,0,0,0,1.04.3,1.533,1.533,0,0,0,.919-.231A.718.718,0,0,0,17.26-2.19Zm6.826-1.831a4.776,4.776,0,0,1,.831-2.952,2.7,2.7,0,0,1,2.274-1.1,2.427,2.427,0,0,1,1.912.864V-11.25h2.124V0H29.315l-.1-.842a2.491,2.491,0,0,1-2.036.989,2.69,2.69,0,0,1-2.245-1.1A4.93,4.93,0,0,1,24.086-4.021ZM26.2-3.87a3.146,3.146,0,0,0,.388,1.714,1.263,1.263,0,0,0,1.128.6A1.416,1.416,0,0,0,29.1-2.391V-5.533a1.4,1.4,0,0,0-1.37-.831Q26.2-6.365,26.2-3.87ZM36.515.146A3.89,3.89,0,0,1,33.677-.923a3.8,3.8,0,0,1-1.095-2.849v-.205a4.787,4.787,0,0,1,.461-2.135,3.386,3.386,0,0,1,1.307-1.45,3.669,3.669,0,0,1,1.93-.509,3.289,3.289,0,0,1,2.56,1.025,4.167,4.167,0,0,1,.934,2.908v.864H34.728a1.966,1.966,0,0,0,.619,1.245,1.871,1.871,0,0,0,1.307.469,2.285,2.285,0,0,0,1.912-.886l1.04,1.165A3.178,3.178,0,0,1,38.317-.231,4.229,4.229,0,0,1,36.515.146Zm-.242-6.511a1.323,1.323,0,0,0-1.022.427,2.209,2.209,0,0,0-.5,1.221h2.944v-.169a1.576,1.576,0,0,0-.381-1.092A1.365,1.365,0,0,0,36.273-6.365ZM-34.449,5.127V7.075h1.355V8.628h-1.355v3.955a.944.944,0,0,0,.168.63.846.846,0,0,0,.645.19,3.376,3.376,0,0,0,.623-.051v1.6a4.358,4.358,0,0,1-1.282.19A2.021,2.021,0,0,1-36.566,12.9V8.628h-1.157V7.075h1.157V5.127Zm6.182,10.02a3.89,3.89,0,0,1-2.838-1.069A3.8,3.8,0,0,1-32.2,11.228v-.205a4.787,4.787,0,0,1,.461-2.135,3.386,3.386,0,0,1,1.307-1.45,3.669,3.669,0,0,1,1.93-.509,3.289,3.289,0,0,1,2.56,1.025,4.167,4.167,0,0,1,.934,2.908v.864h-5.046a1.966,1.966,0,0,0,.619,1.245,1.871,1.871,0,0,0,1.307.469,2.285,2.285,0,0,0,1.912-.886l1.04,1.165a3.178,3.178,0,0,1-1.289,1.051A4.229,4.229,0,0,1-28.268,15.146Zm-.242-6.511a1.323,1.323,0,0,0-1.022.427,2.209,2.209,0,0,0-.5,1.221h2.944v-.169a1.576,1.576,0,0,0-.381-1.092A1.365,1.365,0,0,0-28.51,8.635Zm9.155.425A5.751,5.751,0,0,0-20.116,9a1.55,1.55,0,0,0-1.575.813V15h-2.117V7.075h2l.059.945a1.961,1.961,0,0,1,1.765-1.091,2.218,2.218,0,0,1,.659.1Zm4.175,4.38a1.388,1.388,0,0,0,.952-.322,1.129,1.129,0,0,0,.381-.857h1.985a2.715,2.715,0,0,1-.439,1.476,2.9,2.9,0,0,1-1.183,1.04,3.7,3.7,0,0,1-1.659.37,3.44,3.44,0,0,1-2.681-1.08,4.275,4.275,0,0,1-.981-2.985v-.139a4.226,4.226,0,0,1,.974-2.922,3.4,3.4,0,0,1,2.673-1.091,3.333,3.333,0,0,1,2.384.846,3,3,0,0,1,.912,2.252h-1.985a1.455,1.455,0,0,0-.381-1.005,1.27,1.27,0,0,0-.967-.387,1.275,1.275,0,0,0-1.117.539,3.125,3.125,0,0,0-.377,1.749v.22a3.164,3.164,0,0,0,.374,1.761A1.291,1.291,0,0,0-15.179,13.44Zm8.174,1.707a3.89,3.89,0,0,1-2.838-1.069,3.8,3.8,0,0,1-1.095-2.849v-.205a4.787,4.787,0,0,1,.461-2.135A3.386,3.386,0,0,1-9.17,7.438a3.669,3.669,0,0,1,1.93-.509A3.289,3.289,0,0,1-4.68,7.954a4.167,4.167,0,0,1,.934,2.908v.864H-8.793a1.966,1.966,0,0,0,.619,1.245,1.871,1.871,0,0,0,1.307.469,2.285,2.285,0,0,0,1.912-.886l1.04,1.165A3.178,3.178,0,0,1-5.2,14.769,4.229,4.229,0,0,1-7.006,15.146Zm-.242-6.511a1.323,1.323,0,0,0-1.022.427,2.209,2.209,0,0,0-.5,1.221h2.944v-.169a1.576,1.576,0,0,0-.381-1.092A1.365,1.365,0,0,0-7.247,8.635Zm9.155.425A5.751,5.751,0,0,0,1.146,9a1.55,1.55,0,0,0-1.575.813V15H-2.545V7.075h2l.059.945A1.961,1.961,0,0,1,1.278,6.929a2.218,2.218,0,0,1,.659.1Zm6.7-1.985.066.916a2.767,2.767,0,0,1,2.278-1.062,2.3,2.3,0,0,1,1.875.74,3.451,3.451,0,0,1,.63,2.212V15H11.342V9.92a1.379,1.379,0,0,0-.293-.98,1.31,1.31,0,0,0-.974-.3,1.456,1.456,0,0,0-1.34.763V15H6.617V7.075ZM17.3,15H15.172V7.075H17.3ZM15.048,5.024a1.042,1.042,0,0,1,.319-.784,1.373,1.373,0,0,1,1.732,0,1.036,1.036,0,0,1,.322.784,1.039,1.039,0,0,1-.326.791,1.358,1.358,0,0,1-1.721,0A1.039,1.039,0,0,1,15.048,5.024Zm6.958,7.39,1.472-5.339H25.69L23.016,15H20.995L18.322,7.075h2.212Zm8.167,2.732a3.89,3.89,0,0,1-2.838-1.069,3.8,3.8,0,0,1-1.095-2.849v-.205A4.787,4.787,0,0,1,26.7,8.888a3.386,3.386,0,0,1,1.307-1.45,3.669,3.669,0,0,1,1.93-.509A3.289,3.289,0,0,1,32.5,7.954a4.167,4.167,0,0,1,.934,2.908v.864H28.385A1.966,1.966,0,0,0,29,12.971a1.871,1.871,0,0,0,1.307.469,2.285,2.285,0,0,0,1.912-.886l1.04,1.165a3.178,3.178,0,0,1-1.289,1.051A4.229,4.229,0,0,1,30.172,15.146ZM29.93,8.635a1.323,1.323,0,0,0-1.022.427,2.209,2.209,0,0,0-.5,1.221h2.944v-.169a1.576,1.576,0,0,0-.381-1.092A1.365,1.365,0,0,0,29.93,8.635ZM36.866,15H34.742V3.75h2.124Z" transform="translate(-564 -4297.579)" fill="#fff"/>
    <path id="Trazado_123934" data-name="Trazado 123934" d="M1163.684,1868.716c.008.7,0,1.4,0,2.106,0,.68.009,1.36,0,2.04.011-.68,0-1.36,0-2.04C1163.686,1870.12,1163.693,1869.418,1163.684,1868.716Z" transform="translate(-1739.568 -6219.301)" fill="#fff"/>
    <path id="Trazado_123935" data-name="Trazado 123935" d="M1138.165,1844.137h0Z" transform="translate(-1726.139 -6206.366)" fill="#fff"/>
    <path id="Trazado_123936" data-name="Trazado 123936" d="M1180.976,1813h-57.384c-1.141,0-2.281-.013-3.422,0a3.174,3.174,0,0,0-2.978,2.1c-.053.137-.128.265-.193.4v53.714a1.5,1.5,0,0,0,1.322.67q32.377-.021,64.755-.012c.988,0,1.328-.348,1.328-1.35q0-26.06,0-52.12A3.2,3.2,0,0,0,1180.976,1813Zm-56.106,2.153h2.194c-.552.606-.69.991-.4,1.489a3.125,3.125,0,0,0,.428.549h-2.24C1125.63,1816.387,1125.629,1815.95,1124.87,1815.157Zm-3.172.007h2.126a2.874,2.874,0,0,0-.436,1.021c-.007.332.285.67.459,1.033h-2.158C1122.472,1816.37,1122.469,1815.934,1121.7,1815.164Zm-.893-.025c-.8.781-.8,1.266.017,2.079h-1.645C1118.941,1815.551,1119.319,1815.065,1120.805,1815.139Zm61.464,52.6h-63.11v-48.364h63.11Zm-.023-50.546H1128.06c.722-.839.722-1.183-.016-2.078H1180.5C1182.125,1815.112,1182.434,1815.471,1182.247,1817.19Z" transform="translate(-1715 -6189.979)" fill="#fff"/>
    <path id="Trazado_123937" data-name="Trazado 123937" d="M1136.028,1819.042c-.286-.5-.149-.883.4-1.489h0C1135.88,1818.159,1135.742,1818.544,1136.028,1819.042Z" transform="translate(-1724.368 -6192.375)" fill="#fff"/>
    <path id="Trazado_123938" data-name="Trazado 123938" d="M1129.73,1841.447h53.711c1.233,0,1.546-.317,1.547-1.563q0-2.731,0-5.463c0-1.024-.369-1.4-1.384-1.4q-27.053,0-54.106,0c-1.013,0-1.379.375-1.381,1.4,0,1.8,0,3.6,0,5.4C1128.115,1841.154,1128.406,1841.447,1129.73,1841.447Zm48.968-6.272h4.142v4.131H1178.7Zm-48.444-.015h46.257v4.138h-46.257Z" transform="translate(-1720.849 -6200.516)" fill="#fff"/>
    <path id="Trazado_123939" data-name="Trazado 123939" d="M1229.574,1859.711a5.787,5.787,0,1,0,5.727,5.849A5.848,5.848,0,0,0,1229.574,1859.711Zm-.117,9.467a3.68,3.68,0,1,1,3.738-3.641A3.706,3.706,0,0,1,1229.457,1869.177Z" transform="translate(-1771.166 -6214.561)" fill="#fff"/>
    <path id="Trazado_123940" data-name="Trazado 123940" d="M1229.6,1893.057a5.787,5.787,0,1,0,5.7,5.873A5.843,5.843,0,0,0,1229.6,1893.057Zm-.035,9.467a3.682,3.682,0,1,1,3.631-3.683A3.7,3.7,0,0,1,1229.564,1902.524Z" transform="translate(-1771.167 -6232.11)" fill="#fff"/>
    <path id="Trazado_123941" data-name="Trazado 123941" d="M1156.659,1867.253c0-.7.007-1.4,0-2.106a3.158,3.158,0,1,0-6.315-.016q-.021,2.073,0,4.146a3.157,3.157,0,1,0,6.314.016C1156.668,1868.613,1156.659,1867.933,1156.659,1867.253Zm-2.11,1.9a1.057,1.057,0,1,1-2.1,0c-.015-1.315-.017-2.631,0-3.947a1.053,1.053,0,1,1,2.095,0c0,.17.007.34.009.51,0,.51,0,1.02,0,1.53C1154.552,1867.883,1154.565,1868.519,1154.549,1869.155Z" transform="translate(-1732.542 -6215.732)" fill="#fff"/>
    <path id="Trazado_123942" data-name="Trazado 123942" d="M1137.828,1872.453a3.181,3.181,0,0,0,3.249-2.826,1.113,1.113,0,0,0-.92-1.36c-.566-.069-1.013.318-1.16,1.005-.018.086-.021.176-.046.259a1,1,0,0,1-1.062.8.934.934,0,0,1-.967-.9q-.065-2.234,0-4.471a.932.932,0,0,1,.972-.9,1,1,0,0,1,1.057.809c.061.209.032.494.163.623.262.258.615.609.915.595a1.6,1.6,0,0,0,.952-.634,1.213,1.213,0,0,0,.072-.821,3.152,3.152,0,0,0-6.268.365c-.023.723,0,1.447,0,2.171,0,.559-.011,1.119-.007,1.678,0,.187.005.373.011.559A3.183,3.183,0,0,0,1137.828,1872.453Z" transform="translate(-1724.353 -6215.733)" fill="#fff"/>
    <path id="Trazado_123943" data-name="Trazado 123943" d="M1134.781,1870.565c0-.724-.019-1.448,0-2.171-.023.723,0,1.447,0,2.171,0,.559-.012,1.119-.007,1.678C1134.77,1871.684,1134.781,1871.125,1134.781,1870.565Z" transform="translate(-1724.353 -6219.132)" fill="#fff"/>
    <path id="Trazado_123944" data-name="Trazado 123944" d="M1138.476,1897.358a1.048,1.048,0,1,0,0-2.091c-1.031-.022-2.062-.02-3.092,0a.989.989,0,0,0-1.034,1.039q-.018,4.21,0,8.421a1,1,0,0,0,1.08,1.061q1.479.023,2.96,0a1.083,1.083,0,0,0,1.21-1.029c.013-.632-.466-1.055-1.236-1.071-.61-.012-1.221,0-1.883,0v-2.1c.829-.055,1.968.232,2.026-.989.066-1.4-1.2-1.041-2.022-1.161v-2.076C1137.171,1897.363,1137.824,1897.381,1138.476,1897.358Z" transform="translate(-1724.127 -6233.266)" fill="#fff"/>
    <path id="Trazado_123945" data-name="Trazado 123945" d="M1204.049,1899.715q-3.949-.009-7.9,0c-.828,0-1.319.409-1.315,1.059s.495,1.039,1.33,1.044c1.316.006,2.633,0,3.949,0s2.633.006,3.95,0c.788-.005,1.265-.4,1.281-1.025C1205.364,1900.138,1204.872,1899.717,1204.049,1899.715Z" transform="translate(-1755.963 -6235.613)" fill="#fff"/>
    <path id="Trazado_123946" data-name="Trazado 123946" d="M1201.593,1904.158c-1.316,0-2.633,0-3.949,0,1.316.006,2.633,0,3.949,0s2.634.006,3.95,0C1204.227,1904.164,1202.91,1904.158,1201.593,1904.158Z" transform="translate(-1757.441 -6237.952)" fill="#fff"/>
    <path id="Trazado_123947" data-name="Trazado 123947" d="M1196.161,1868.472q.988.005,1.975,0h1.974l1.975,0q.988,0,1.975,0c.794-.005,1.267-.391,1.288-1.019.022-.652-.471-1.081-1.291-1.083q-3.95-.011-7.9,0c-.835,0-1.322.4-1.32,1.053S1195.324,1868.468,1196.161,1868.472Z" transform="translate(-1755.963 -6218.064)" fill="#fff"/>
    <path id="Trazado_123948" data-name="Trazado 123948" d="M1201.8,1870.818h1.974l1.975,0-1.975,0Z" transform="translate(-1759.628 -6220.407)" fill="#fff"/>
    <path id="Trazado_123949" data-name="Trazado 123949" d="M1199.944,1906.383q-.246-.005-.494-.007c-.494,0-.987,0-1.481,0-.658,0-1.317-.015-1.975,0a1.053,1.053,0,1,0,0,2.1q1.974.026,3.949,0a1.057,1.057,0,1,0,0-2.1Z" transform="translate(-1755.962 -6239.12)" fill="#fff"/>
    <path id="Trazado_123950" data-name="Trazado 123950" d="M1199.259,1906.381c.494,0,.987-.008,1.481,0-.494,0-.987,0-1.481,0-.658,0-1.317-.015-1.975,0C1197.942,1906.365,1198.6,1906.381,1199.259,1906.381Z" transform="translate(-1757.251 -6239.12)" fill="#fff"/>
    <path id="Trazado_123951" data-name="Trazado 123951" d="M1196.028,1875.13q.247.006.494.007c.494,0,.988,0,1.481,0,.658,0,1.317.015,1.974,0a1.052,1.052,0,1,0,0-2.094c-1.316-.02-2.633-.018-3.949,0a1.074,1.074,0,0,0-1.19,1.051C1194.837,1874.7,1195.294,1875.113,1196.028,1875.13Z" transform="translate(-1755.963 -6221.566)" fill="#fff"/>
    <path id="Trazado_123952" data-name="Trazado 123952" d="M1199.875,1877.475c-.494,0-.988.008-1.481,0,.494,0,.988,0,1.481,0,.658,0,1.317.015,1.974,0C1201.192,1877.49,1200.533,1877.475,1199.875,1877.475Z" transform="translate(-1757.835 -6223.909)" fill="#fff"/>
    <path id="Trazado_123953" data-name="Trazado 123953" d="M1129.232,1879.727a1.043,1.043,0,1,0,.02,2.087,1.043,1.043,0,0,0-.02-2.087Z" transform="translate(-1720.892 -6225.096)" fill="#fff"/>
    <path id="Trazado_123954" data-name="Trazado 123954" d="M1129.215,1913.076a1.044,1.044,0,1,0,.052,2.088,1.044,1.044,0,0,0-.052-2.088Z" transform="translate(-1720.891 -6242.646)" fill="#fff"/>
    <path id="Trazado_123955" data-name="Trazado 123955" d="M1159.241,1869.92c0,.51,0,1.02,0,1.53,0,.636.013,1.272,0,1.908.016-.636,0-1.272,0-1.908C1159.236,1870.94,1159.244,1870.43,1159.241,1869.92Z" transform="translate(-1737.226 -6219.935)" fill="#fff"/>
    <path id="Trazado_123956" data-name="Trazado 123956" d="M1154.857,1839.7a4.408,4.408,0,0,0-.526-.012q-9.007,0-18.013,0a3.058,3.058,0,0,0-.59.026,1.037,1.037,0,0,0,.021,2.06,4.034,4.034,0,0,0,.656.019h16.04c.789,0,1.578.02,2.366-.012a1.043,1.043,0,0,0,1.046-1.05A1.07,1.07,0,0,0,1154.857,1839.7Z" transform="translate(-1724.38 -6204.025)" fill="#fff"/>
    <path id="Trazado_123957" data-name="Trazado 123957" d="M1233.775,1869.008c-.409.393-.771.835-1.182,1.288-.2-.161-.265-.216-.333-.268-.62-.474-1.158-.48-1.578-.02s-.364,1.018.16,1.578c.27.287.546.57.83.843a1.047,1.047,0,0,0,1.623.036q.994-.957,1.946-1.959a1.055,1.055,0,0,0,.107-1.578A1.036,1.036,0,0,0,1233.775,1869.008Z" transform="translate(-1774.681 -6219.242)" fill="#fff"/>
    <path id="Trazado_123958" data-name="Trazado 123958" d="M1233.775,1901.008c-.409.393-.771.835-1.182,1.288-.2-.161-.265-.216-.333-.268-.62-.474-1.158-.48-1.578-.02s-.364,1.018.16,1.578c.27.287.546.57.83.843a1.047,1.047,0,0,0,1.623.036q.994-.957,1.946-1.959a1.055,1.055,0,0,0,.107-1.578A1.036,1.036,0,0,0,1233.775,1901.008Z" transform="translate(-1774.681 -6236.083)" fill="#fff"/>
    <g id="Grupo_78487" data-name="Grupo 78487" transform="translate(-583.206 -4338.202)">
      <path id="Trazado_123959" data-name="Trazado 123959" d="M1152.835,1897.23v.038a.659.659,0,0,1-.659.659h-.217a.659.659,0,0,1-.659-.659v-.109a.768.768,0,0,0-1.535,0,3.38,3.38,0,0,0,1.535,2.764,3.961,3.961,0,0,1,1.535,3.386,2.3,2.3,0,0,1-2.083,2.285,2.377,2.377,0,0,1-2.074-.924,2.205,2.205,0,0,1-.45-1.37v-.253a.515.515,0,0,1,.515-.515h.505a.515.515,0,0,1,.515.515v.253a.768.768,0,0,0,1.535,0,3.379,3.379,0,0,0-1.535-2.764,3.959,3.959,0,0,1-1.535-3.383,2.3,2.3,0,0,1,4.066-1.478A2.357,2.357,0,0,1,1152.835,1897.23Z" transform="translate(-1148.229 -1894.856)" fill="#fff"/>
    </g>
  </g>
</svg>
