<svg xmlns="http://www.w3.org/2000/svg" xmlns:xlink="http://www.w3.org/1999/xlink" width="148" height="130.721" viewBox="0 0 148 130.721">
  <defs>
    <filter id="Rectángulo_32715" x="18.5" y="6.5" width="113" height="115.721" filterUnits="userSpaceOnUse">
      <feOffset input="SourceAlpha"/>
      <feGaussianBlur stdDeviation="2.5" result="blur"/>
      <feFlood flood-opacity="0.29"/>
      <feComposite operator="in" in2="blur"/>
      <feComposite in="SourceGraphic"/>
    </filter>
  </defs>
  <g id="Grupo_74249" data-name="Grupo 74249" transform="translate(-172 -7556)">
    <g id="Rectángulo_32714" data-name="Rectángulo 32714" transform="translate(183.887 7556)" fill="none" stroke="#2e74bc" stroke-linecap="round" stroke-linejoin="round" stroke-width="8">
      <rect width="125" height="123.721" rx="17" stroke="none"/>
      <rect x="4" y="4" width="117" height="115.721" rx="13" fill="none"/>
    </g>
    <rect id="Rectángulo_32716" data-name="Rectángulo 32716" width="148" height="86.721" rx="6" transform="translate(172 7600)" fill="#f6f6f6"/>
    <g transform="matrix(1, 0, 0, 1, 172, 7556)" filter="url(#Rectángulo_32715)">
      <rect id="Rectángulo_32715-2" data-name="Rectángulo 32715" width="98" height="100.721" rx="15" transform="translate(26 14)" fill="#4699ed"/>
    </g>
    <g id="Grupo_78489" data-name="Grupo 78489" transform="translate(-2.449 5797.947)">
      <path id="Trazado_123960" data-name="Trazado 123960" d="M218,1822.836q0-14.123,0-28.245a3.229,3.229,0,0,1,3.56-3.59h56.69a3.218,3.218,0,0,1,3.557,3.526q0,28.379,0,56.757a3.211,3.211,0,0,1-3.493,3.524q-28.412,0-56.822,0A3.215,3.215,0,0,1,218,1851.28Q218,1837.058,218,1822.836Zm56.9,29.845h3.252c1.219,0,1.529-.311,1.529-1.531q0-22.265,0-44.529v-.7H220.126v45.14c0,.2-.011.4.008.6a.985.985,0,0,0,.964,1c1.258.042,2.519.013,3.818.013-1.488-8.064.153-15.357,5.393-21.634a24.546,24.546,0,0,1,20.27-9.162A25.483,25.483,0,0,1,274.9,1852.681Zm4.781-48.942c0-3.123,0-6.176,0-9.23,0-1.031-.358-1.381-1.408-1.381q-28.371,0-56.742,0c-1.048,0-1.4.349-1.4,1.387q0,4.319,0,8.637c0,.191.024.381.038.586Zm-30.886,42.542v-9.517h-9.267a40.913,40.913,0,0,0-1.273,9.517Zm12.767,0a41.268,41.268,0,0,0-1.29-9.51H251.01v9.51Zm1.087-9.55c.411,3.221.813,6.368,1.214,9.517h9.392a23.01,23.01,0,0,0-2.345-9.109.744.744,0,0,0-.5-.391C267.8,1836.722,265.188,1836.73,262.648,1836.73Zm-25.491,0c-2.557,0-5.168-.008-7.779.018a.712.712,0,0,0-.487.406,39.735,39.735,0,0,0-1.558,4.221c-.421,1.582-.612,3.226-.909,4.874h9.514C236.348,1843.051,236.749,1839.919,237.158,1836.73Zm3.051-2.127h8.581v-10.481C244.895,1824.736,241.486,1830.027,240.208,1834.6Zm10.811-10.505v10.484h8.546c.014-.064.04-.114.029-.15a19.78,19.78,0,0,0-4.836-8.285A7.3,7.3,0,0,0,251.019,1824.1Zm18.4,10.484c-2.07-3.912-8.706-8.878-12.694-9.5a23.811,23.811,0,0,1,5.174,9.5Zm-26.307-9.536c-4.695,1.147-11.691,6.461-12.654,9.533h7.453A23.889,23.889,0,0,1,243.111,1825.045Zm-4.606,27.593H248.79v-4.168H238.213Zm12.486,0H261.3l.283-4.167H250.992Zm12.45.012h9.3c.19-1.383.38-2.765.573-4.171h-9.591C263.625,1849.883,263.534,1851.245,263.442,1852.646Zm-27.36-4.169h-9.6l.583,4.168h9.3C236.269,1851.243,236.177,1849.879,236.082,1848.476Z" transform="translate(0)" fill="#fff"/>
      <path id="Trazado_123961" data-name="Trazado 123961" d="M304.428,1837.172c-.506.528-.933,1.008-1.4,1.451a1.045,1.045,0,0,1-1.879-.582q-.763-4.381-1.461-8.773c-.159-1,.4-1.512,1.408-1.347,2.882.472,5.764.942,8.637,1.465a1.343,1.343,0,0,1,.927.7,1.533,1.533,0,0,1-.306,1.179,11.926,11.926,0,0,1-1.42,1.355c.218.241.355.4.5.554q2.278,2.281,4.557,4.559c.724.727.722,1.244-.006,1.978q-1.288,1.3-2.586,2.583a1.121,1.121,0,0,1-1.879-.01C307.853,1840.608,306.183,1838.929,304.428,1837.172Zm-1.52-1.448c.191-.177.288-.262.38-.352,1.019-1,1.346-1,2.352.009q2.183,2.183,4.367,4.365c.15.15.308.292.445.42l1.491-1.451c-.134-.146-.247-.281-.37-.4q-2.344-2.35-4.691-4.7a1.114,1.114,0,0,1,0-1.829c.176-.183.351-.368.609-.639l-5.495-.9Z" transform="translate(-39.301 -17.753)" fill="#fff"/>
      <path id="Trazado_123962" data-name="Trazado 123962" d="M287.246,1805.581H272.823c-1.219,0-1.526-.308-1.526-1.531,0-1.2-.007-2.393,0-3.589.007-.869.392-1.258,1.263-1.258q14.688-.005,29.376,0c.868,0,1.253.393,1.26,1.262.009,1.263.007,2.526,0,3.789,0,.952-.377,1.326-1.332,1.326Q294.557,1805.585,287.246,1805.581Zm-13.791-2.172h27.565v-2.048H273.455Z" transform="translate(-25.648 -3.946)" fill="#fff"/>
      <path id="Trazado_123963" data-name="Trazado 123963" d="M232.58,1802.383a3.187,3.187,0,1,1-3.159-3.179A3.2,3.2,0,0,1,232.58,1802.383Zm-2.129-.014a1.059,1.059,0,1,0-1.02,1.082A1.07,1.07,0,0,0,230.452,1802.368Z" transform="translate(-3.95 -3.948)" fill="#fff"/>
      <path id="Trazado_123964" data-name="Trazado 123964" d="M246.931,1802.389a3.187,3.187,0,1,1-3.152-3.185A3.2,3.2,0,0,1,246.931,1802.389Zm-3.19,1.061a1.06,1.06,0,1,0-1.057-1.044A1.072,1.072,0,0,0,243.741,1803.451Z" transform="translate(-10.856 -3.948)" fill="#fff"/>
      <path id="Trazado_123965" data-name="Trazado 123965" d="M258.072,1805.578a3.187,3.187,0,1,1,3.209-3.2A3.2,3.2,0,0,1,258.072,1805.578Zm1.08-3.212a1.059,1.059,0,1,0-1.017,1.085A1.07,1.07,0,0,0,259.152,1802.366Z" transform="translate(-17.762 -3.949)" fill="#fff"/>
    </g>
  </g>
</svg>
