<svg xmlns="http://www.w3.org/2000/svg" width="43" height="46.158" viewBox="0 0 43 46.158">
  <g id="Grupo_79480" data-name="Grupo 79480" transform="translate(6778 12589)">
    <g id="Grupo_77451" data-name="Grupo 77451" transform="translate(-7199 -14875)">
      <g id="Grupo_77443" data-name="Grupo 77443" transform="translate(177)">
        <rect id="Rect치ngulo_32442" data-name="Rect치ngulo 32442" width="31" height="31" transform="translate(256 2286)" fill="#fee2bf"/>
      </g>
      <rect id="Rect치ngulo_33680" data-name="Rect치ngulo 33680" width="43" height="46" transform="translate(421 2286)" fill="none"/>
      <g id="Grupo_62195" data-name="Grupo 62195" transform="translate(-270.505 691.554)">
        <g id="Grupo_60259" data-name="Grupo 60259" transform="translate(691.505 1596.211)">
          <path id="Trazado_130842" data-name="Trazado 130842" d="M718.074,1638.384a.755.755,0,0,0-1.509.01h0c-.017.676,0,1.354-.007,2.03a29.947,29.947,0,0,1-.176,4.613,11.751,11.751,0,0,1-22.015,3.437,12.971,12.971,0,0,1-1.338-6.479c.03-1.167.012-2.336,0-3.506,0-.553-.369-.916-.831-.86-.439.055-.685.39-.687.97,0,1.489-.012,2.979,0,4.468a12.689,12.689,0,0,0,.845,4.613,13.094,13.094,0,0,0,9.176,8.221c.369.1.428.236.369.588-.145.85-.281,1.7-.342,2.563-.034.486-.227.569-.656.559-.964-.023-1.932-.04-2.892.022a3.565,3.565,0,0,0-3.26,2.425,2.122,2.122,0,0,0,.745,2.907,2.1,2.1,0,0,0,.352.167h17.876a1.9,1.9,0,0,0,1.352-1.948,3.691,3.691,0,0,0-3.5-3.555c-1.015-.054-2.03-.039-3.045-.02-.333.007-.439-.116-.474-.416-.1-.873-.19-1.753-.349-2.614-.082-.449.052-.573.467-.7a13.036,13.036,0,0,0,9.711-10.709A40.108,40.108,0,0,0,718.074,1638.384Zm-15.021,20.869c.127-.887.245-1.774.358-2.663.026-.212.082-.317.34-.307.692.025,1.384.02,2.08,0,.232-.006.334.052.362.292.105.907.216,1.813.351,2.715.04.277-.052.319-.287.314-.49-.011-.982,0-1.476,0-.474,0-.948-.015-1.421.005-.281.008-.342-.1-.305-.356Zm8.051,1.877a2.223,2.223,0,0,1,2.342,1.553,3.283,3.283,0,0,1,.093.445c.059.347-.076.49-.44.485-1.166-.015-2.333-.006-3.5-.006H696.61c-.559,0-.646-.11-.541-.666a2.2,2.2,0,0,1,2-1.79c.522-.036,1.047-.023,1.569-.023q5.735,0,11.468,0Z" transform="translate(-691.505 -1620.74)"/>
          <path id="Trazado_130844" data-name="Trazado 130844" d="M701.589,1622.761a.768.768,0,0,0,1.445-.519.754.754,0,0,0-.088-.172,9.045,9.045,0,0,1-.951-4.462c0-.385.083-.514.5-.511,2.539.021,5.074.01,7.617.01h7.668c.2,0,.44-.092.439.292a11.541,11.541,0,0,1-.251,2.823,8.1,8.1,0,0,1-12.593,4.624,1.37,1.37,0,0,0-.521-.3.72.72,0,0,0-.875.428.759.759,0,0,0,.351,1,9.342,9.342,0,0,0,7.969,1.667,9.587,9.587,0,0,0,7.435-9.537q.008-6.017,0-12.034a11.649,11.649,0,0,0-.195-2.122,9.62,9.62,0,0,0-19.053,1.937c-.033,4.1-.009,8.193-.005,12.289A9.731,9.731,0,0,0,701.589,1622.761Zm5.24-15.009c-1.438-.006-2.876-.014-4.315.006-.38.006-.563-.067-.516-.494.054-.484-.194-1.115.093-1.424s.923-.092,1.41-.092c1.066-.017,2.132,0,3.2-.006a2.875,2.875,0,0,0,.4-.012.755.755,0,0,0,.7-.794.714.714,0,0,0-.715-.713l-.051,0c-1.422-.013-2.843-.007-4.264-.008h-.591a8.1,8.1,0,0,1,15.767-.437c.1.393.017.449-.348.445-1.4-.017-2.809-.01-4.214-.006-.65,0-.974.267-.962.772.011.479.339.746.95.749,1.456.005,2.911.014,4.366-.006.359,0,.528.052.483.462a5.93,5.93,0,0,0,0,1.115c.029.352-.083.461-.443.452-1.4-.022-2.809-.01-4.214-.009a3.6,3.6,0,0,0-.456.016.75.75,0,0,0-.013,1.492,2.872,2.872,0,0,0,.456.015c1.4,0,2.809.011,4.213-.007.339,0,.495.062.456.437-.052.516.214,1.212-.108,1.508-.276.256-.965.078-1.471.08-1.117,0-2.234-.007-3.351.005-.568.006-.874.3-.866.773.007.454.3.719.844.745.118.006.237,0,.355,0,1.353,0,2.709.025,4.06-.013.471-.012.567.139.541.566a13.249,13.249,0,0,0,0,1.725c.028.414-.116.5-.507.5-4.552-.014-9.1-.008-13.654-.008-.558,0-1.118-.013-1.676.006-.283.009-.389-.075-.38-.369.018-.66.023-1.32,0-1.98-.013-.336.092-.434.428-.429,1.384.018,2.775.007,4.163.007.152,0,.305.006.457-.007a.738.738,0,0,0,.751-.725v-.013a.75.75,0,0,0-.722-.777h-.042c-.135-.012-.27-.005-.406-.005-1.371,0-2.742-.012-4.112.007-.376.005-.564-.062-.516-.491.053-.484-.2-1.124.088-1.424.31-.326.958-.1,1.458-.1,1.1-.018,2.2,0,3.3-.007.611,0,.942-.269.954-.739,0-.5-.339-.78-.977-.782Z" transform="translate(-696.812 -1596.211)"/>
        </g>
      </g>
    </g>
  </g>
</svg>
