<svg xmlns="http://www.w3.org/2000/svg" width="43" height="46" viewBox="0 0 43 46">
  <g id="Grupo_79474" data-name="Grupo 79474" transform="translate(7849 12589)">
    <g id="Grupo_77444" data-name="Grupo 77444" transform="translate(-8093 -14875)">
      <g id="Grupo_77441" data-name="Grupo 77441" transform="translate(-1.039 1)">
        <rect id="Rect치ngulo_32442" data-name="Rect치ngulo 32442" width="31" height="31" transform="translate(256 2286)" fill="#fee2bf"/>
        <g id="Grupo_77440" data-name="Grupo 77440" transform="translate(-600.978 1296.807)">
          <path id="Trazado_112832" data-name="Trazado 112832" d="M847.034,1002.479a.6.6,0,0,0,1.178.089,1.729,1.729,0,0,0,.03-.443c0-3.043.006-6.087-.006-9.13,0-.3.062-.378.371-.377q10.246.016,20.492,0c.292,0,.384.053.381.368-.019,1.623-.011,3.246-.008,4.869a1.281,1.281,0,0,0,1.431,1.424c1.637,0,3.273.01,4.91-.008.312,0,.379.085.372.382-.021.851,0,1.7-.01,2.556a.629.629,0,0,0,.34.637c.438.217.872-.1.876-.654.009-.988-.017-1.976.01-2.962a1.733,1.733,0,0,0-.571-1.364q-2.971-2.939-5.913-5.908a1.993,1.993,0,0,0-.82-.552H847.849a1.352,1.352,0,0,0-.832,1.414c.024,3.1.011,6.195.011,9.292A3.255,3.255,0,0,0,847.034,1002.479Zm23.652-8.882,4.469,4.47h-3.134c-.365,0-.731-.006-1.1,0-.165,0-.243-.036-.242-.223C870.689,996.418,870.686,994.991,870.686,993.6Z" transform="translate(0 0)"/>
          <path id="Trazado_112833" data-name="Trazado 112833" d="M921.63,1020.706q-.324-.166-.653-.322a1.627,1.627,0,0,0-2.341.8q-5.965,12.1-11.925,24.21a1.323,1.323,0,0,0-.139.7c.028.364.035.73.051,1.095h-.009c.022.392.057.783.064,1.175a.874.874,0,0,0,.473.871.908.908,0,0,0,.986-.134q.907-.647,1.828-1.277a1.65,1.65,0,0,0,.563-.671c.718-1.48,1.451-2.954,2.178-4.43.34-.69.686-1.376,1.018-2.07a.621.621,0,0,0-.3-.909c-.325-.119-.609.023-.807.422-.575,1.16-1.149,2.321-1.713,3.486-.1.213-.188.279-.416.142a6.553,6.553,0,0,0-.979-.482c-.282-.11-.318-.215-.178-.495,1.163-2.329,2.306-4.667,3.455-7q2.242-4.556,4.478-9.115c.128-.263.231-.333.5-.167a6.666,6.666,0,0,0,.944.462c.25.1.3.21.168.472-.624,1.226-1.224,2.464-1.831,3.7q-1.582,3.212-3.162,6.425c-.213.433-.13.763.217.937s.654.026.875-.4q.037-.072.072-.145,1.859-3.775,3.718-7.551,1.823-3.7,3.644-7.406A1.628,1.628,0,0,0,921.63,1020.706Zm-13.771,27.1v-1.516l1.276.627Zm2.175-2.884a1.275,1.275,0,0,1,.178.134c-.146.279-.264.533-.41.771-.051.082-.147-.011-.212-.042-.387-.185-.763-.392-1.156-.561-.216-.093-.191-.19-.108-.364.3-.634.3-.637.918-.331C909.507,1044.66,909.772,1044.788,910.034,1044.922ZM919.579,1026c-.043.078-.126.021-.18-.006-.424-.206-.843-.424-1.27-.624-.133-.063-.131-.116-.083-.244.277-.737.283-.744.992-.394.242.12.481.244.724.361.084.04.165.075.194.162C919.824,1025.519,919.709,1025.763,919.579,1026Zm1.811-3.717a2,2,0,0,1-.088.236c-.216.447-.446.888-.652,1.34-.1.209-.189.241-.393.126-.351-.2-.716-.369-1.084-.532-.184-.082-.244-.153-.135-.354.249-.461.474-.934.7-1.405a.447.447,0,0,1,.693-.229c.227.116.457.226.685.342A.438.438,0,0,1,921.39,1022.281Z" transform="translate(-39.682 -19.163)"/>
          <path id="Trazado_112834" data-name="Trazado 112834" d="M877.372,1045.877a.555.555,0,0,0-.568-.432.547.547,0,0,0-.563.383,1.559,1.559,0,0,0-.042.48c0,3.653-.008,7.306.008,10.959,0,.386-.081.484-.477.483q-13.5-.02-26.993,0c-.378,0-.486-.068-.485-.471q.021-12.968.01-25.937a2,2,0,0,0-.033-.483.6.6,0,0,0-1.176.09c-.01.107-.006.216-.006.324q0,13.152,0,26.3c0,1,.388,1.382,1.405,1.382h27.561c1,0,1.4-.4,1.4-1.4q0-5.622,0-11.244A1.681,1.681,0,0,0,877.372,1045.877Z" transform="translate(-0.02 -25.98)"/>
          <path id="Trazado_112835" data-name="Trazado 112835" d="M855.78,1058.216a1.163,1.163,0,0,0,1.2,1.212q1.6.027,3.2,0a1.187,1.187,0,0,0,1.211-1.249q.012-1.562,0-3.123a1.141,1.141,0,0,0-1.126-1.234q-1.682-.053-3.365,0a1.119,1.119,0,0,0-1.121,1.19c-.013.527,0,1.055,0,1.582S855.767,1057.675,855.78,1058.216Zm1.208-2.946c0-.192.059-.258.254-.256q1.356.012,2.713,0c.18,0,.227.067.226.237-.006.9-.011,1.809,0,2.713,0,.237-.1.258-.291.254-.445-.01-.891,0-1.336,0s-.864-.011-1.3,0c-.217.008-.275-.07-.273-.277Q857,1056.607,856.988,1055.27Z" transform="translate(-5.835 -41.572)"/>
          <path id="Trazado_112836" data-name="Trazado 112836" d="M855.779,1036.237a1.137,1.137,0,0,0,1.15,1.21c1.108.029,2.217.03,3.325,0a1.149,1.149,0,0,0,1.137-1.227q.013-1.562,0-3.124a1.18,1.18,0,0,0-1.2-1.258c-1.081-.02-2.163-.022-3.245,0a1.148,1.148,0,0,0-1.168,1.2c-.014.541,0,1.081,0,1.622S855.767,1035.71,855.779,1036.237Zm1.208-2.947c0-.2.061-.254.255-.252.892.009,1.783.011,2.675,0,.225,0,.266.079.264.281q-.014,1.337,0,2.675c0,.193-.053.261-.25.255-.445-.012-.891,0-1.338,0s-.865-.008-1.3,0c-.211.006-.316-.03-.312-.282C857,1035.074,857,1034.182,856.987,1033.29Z" transform="translate(-5.835 -26.928)"/>
          <path id="Trazado_112837" data-name="Trazado 112837" d="M855.782,1080.237a1.155,1.155,0,0,0,1.193,1.169q1.6.015,3.2,0a1.175,1.175,0,0,0,1.211-1.2q.019-1.6,0-3.2a1.159,1.159,0,0,0-1.2-1.2q-1.6-.017-3.2,0a1.143,1.143,0,0,0-1.2,1.194c-.013.527,0,1.055,0,1.582h0C855.779,1079.128,855.765,1079.683,855.782,1080.237Zm1.2-2.959c0-.207.048-.284.268-.276.445.017.892.005,1.338.005s.892.008,1.338,0c.192-.005.255.048.253.247-.01.905-.009,1.811,0,2.716,0,.173-.043.233-.225.231q-1.358-.013-2.716,0c-.187,0-.257-.042-.254-.244Q857,1078.615,856.986,1077.278Z" transform="translate(-5.834 -56.227)"/>
          <path id="Trazado_112838" data-name="Trazado 112838" d="M861.385,1011.062a1.154,1.154,0,0,0-1.161-1.164q-1.642-.027-3.285,0a1.134,1.134,0,0,0-1.158,1.159q-.026,1.642,0,3.285a1.139,1.139,0,0,0,1.193,1.164c.527.01,1.055,0,1.582,0h1.663a1.164,1.164,0,0,0,1.167-1.158Q861.41,1012.7,861.385,1011.062Zm-1.455,3.231c-.445-.013-.891,0-1.337,0s-.919-.007-1.377,0c-.174,0-.234-.046-.232-.227q.013-1.357,0-2.714c0-.2.057-.25.25-.248.9.009,1.809.008,2.714,0,.172,0,.233.042.231.224q-.013,1.357,0,2.714C860.18,1014.236,860.125,1014.3,859.929,1014.293Z" transform="translate(-5.831 -12.311)"/>
          <path id="Trazado_112839" data-name="Trazado 112839" d="M889.525,1043.209a.547.547,0,0,0-.4-.622,1.463,1.463,0,0,0-.438-.045q-6.264,0-12.528,0a1.706,1.706,0,0,0-.363.019.6.6,0,0,0-.467.733.643.643,0,0,0,.714.464c2.135-.007,4.271,0,6.406,0h6.2a2.265,2.265,0,0,0,.364-.008A.559.559,0,0,0,889.525,1043.209Z" transform="translate(-18.848 -34.072)"/>
          <path id="Trazado_112840" data-name="Trazado 112840" d="M876.258,1034.4a3.044,3.044,0,0,0-.405.013.555.555,0,0,0-.521.572.546.546,0,0,0,.45.591,1.88,1.88,0,0,0,.442.04q6.211,0,12.421,0a1.73,1.73,0,0,0,.52-.058.594.594,0,0,0-.081-1.135,2.286,2.286,0,0,0-.445-.022q-3.085,0-6.17,0Z" transform="translate(-18.867 -28.647)" fill="#010101"/>
          <path id="Trazado_112841" data-name="Trazado 112841" d="M888.333,1065.7a.582.582,0,0,0,.637-.664c-.035-.379-.291-.549-.846-.549q-5.966,0-11.932,0a1.507,1.507,0,0,0-.479.056.545.545,0,0,0-.386.6.554.554,0,0,0,.468.537,2.292,2.292,0,0,0,.444.024q2.942,0,5.885,0h4.14C886.954,1065.709,887.644,1065.719,888.333,1065.7Z" transform="translate(-18.863 -48.699)" fill="#010101"/>
          <path id="Trazado_112842" data-name="Trazado 112842" d="M876,1057.563c.067,0,.135,0,.2,0h11.041a1.308,1.308,0,0,0,.482-.042.6.6,0,0,0,.355-.821.676.676,0,0,0-.71-.356c-1.881.005-3.761,0-5.642,0H879.3c-1.1,0-2.192,0-3.288,0a.616.616,0,0,0-.692.58C875.3,1057.295,875.571,1057.543,876,1057.563Z" transform="translate(-18.857 -43.269)"/>
          <path id="Trazado_112843" data-name="Trazado 112843" d="M886.189,1079.5a.589.589,0,0,0,.567-.581.6.6,0,0,0-.563-.626,3.241,3.241,0,0,0-.365-.005h-9.534a3.8,3.8,0,0,0-.405.005.6.6,0,0,0-.566.622.586.586,0,0,0,.562.584,2.5,2.5,0,0,0,.324.006h9.656A2.707,2.707,0,0,0,886.189,1079.5Z" transform="translate(-18.86 -57.888)"/>
          <path id="Trazado_112844" data-name="Trazado 112844" d="M876.085,1021.817q4.687,0,9.374,0c.5,0,.8-.231.8-.612s-.289-.6-.8-.6q-2.333,0-4.667,0-2.354,0-4.708,0c-.482,0-.757.213-.769.585C875.3,1021.573,875.591,1021.817,876.085,1021.817Z" transform="translate(-18.856 -19.451)" fill="#010101"/>
          <path id="Trazado_112845" data-name="Trazado 112845" d="M875.807,1013.61a2.3,2.3,0,0,0,.4.016h6.937c.825,0,1.65.006,2.474,0a.6.6,0,0,0,.635-.6.628.628,0,0,0-.592-.608,1.38,1.38,0,0,0-.162,0q-4.725,0-9.452,0a.969.969,0,0,0-.356.057.594.594,0,0,0,.111,1.135Z" transform="translate(-18.861 -13.998)" fill="#010101"/>
          <path id="Trazado_112846" data-name="Trazado 112846" d="M884.421,1086.5a2.373,2.373,0,0,0-.444-.023q-1.926,0-3.853,0-1.622,0-3.244,0c-.338,0-.677-.009-1.013.015a.543.543,0,0,0-.535.557.556.556,0,0,0,.472.614,1.633,1.633,0,0,0,.362.03q3.954,0,7.908,0a1.3,1.3,0,0,0,.438-.057.593.593,0,0,0-.091-1.135Z" transform="translate(-18.867 -63.345)" fill="#010101"/>
        </g>
      </g>
      <rect id="Rect치ngulo_33679" data-name="Rect치ngulo 33679" width="43" height="46" transform="translate(244 2286)" fill="none"/>
    </g>
  </g>
</svg>
